<?xml version="1.0" standalone="no"?>
<!DOCTYPE svg PUBLIC "-//W3C//DTD SVG 1.1//EN"
	"http://www.w3.org/Graphics/SVG/1.1/DTD/svg11.dtd">
<svg xmlns="http://www.w3.org/2000/svg" version="1.1"
	xmlns:xlink="http://www.w3.org/1999/xlink"
	xml:space='preserve' color="black"
	width="7.38in" height="2.93in" viewBox="0 0 531 211">
<title>data/results/biggest_11/abc/1.abc (1) tune 1</title>
<!-- Creator: abcm2ps-7.8.14 -->
<!-- CreationDate: Aug  9, 2015 23:50 -->
<!-- CommandLine: -g data/results/biggest_11/abc/1.abc -O /home/allanino/Dropbox/Trabalhos/folkme/svg/1.svg -->
<g transform="scale(0.750)" stroke-width="0.70" font-family="Times" font-size="20.00">
<text x="354.13" y="21.67" text-anchor="middle">The Old Rowairla Jig</text>
<path stroke="currentColor" fill="none"
	d="M183.43 107.01v-24.00"/>
<path stroke="currentColor" fill="none"
	d="M321.93 107.01v-24.00"/>
<path stroke="currentColor" fill="none"
	d="M454.33 107.01v-24.00"/>
<path stroke="currentColor" fill="none" stroke-width="3"
	d="M566.63 107.01v-24.00"/>
<path stroke="currentColor" fill="none"
	d="M562.13 107.01v-24.00"/>
<defs>
<g id="rdots" fill="currentColor">
	<circle cx="0" cy="-9" r="1.2"/>
	<circle cx="0" cy="-15" r="1.2"/>
</g>
</defs>
<use x="558.13" y="107.01" xlink:href="#rdots"/>
<path stroke="currentColor" fill="none"
	d="M694.93 107.01v-24.00"/>
<path stroke="currentColor" fill="none"
	d="M691.93 107.01v-24.00"/>
<path stroke="currentColor" fill="none"
	d="M13.33 107.01h681.60m-681.60 -6h681.60m-681.60 -6h681.60m-681.60 -6h681.60m-681.60 -6h681.60"/>
<path stroke="currentColor" fill="none"
	d="M224.53 78.01v-3l33.90 -0.00v3"/>
<rect x="234.53" y="69.01" width="14.00" height="12" fill="white"/>
<text font-family="serif" font-size="12" font-style="italic" font-weight="normal"
	x="241.53" y="79.01" text-anchor="middle">3</text>
</g>
<g transform="scale(0.750)" stroke-width="0.70" font-family="Times" font-size="13.00">
<text x="458.33" y="64.41">1</text>
<path stroke="currentColor" fill="none"
	d="M454.33 53.01v20M454.33 53.01h105.80v20"/>
<text x="572.13" y="64.41">2</text>
<path stroke="currentColor" fill="none"
	d="M568.13 53.01v20M568.13 53.01h126.80v20"/>
<defs>
<path id="utclef" fill="currentColor" d="m-50 -90
	c-72 -41 -72 -158 52 -188
	c150 -10 220 188 90 256
	c-114 52 -275 0 -293 -136
	c-15 -181 93 -229 220 -334
	c88 -87 79 -133 62 -210
	c-51 33 -94 105 -89 186
	c17 267 36 374 49 574
	c6 96 -19 134 -77 135
	c-80 1 -126 -93 -61 -133
	c85 -41 133 101 31 105
	c23 17 92 37 90 -92
	c-10 -223 -39 -342 -50 -617
	c0 -90 0 -162 96 -232
	c56 72 63 230 22 289
	c-74 106 -257 168 -255 316
	c9 153 148 185 252 133
	c86 -65 29 -192 -80 -176
	c-71 12 -105 67 -59 124"/>
<use id="tclef" transform="scale(0.045)"
	xlink:href="#utclef"/>
</defs>
<use x="25.33" y="107.01" xlink:href="#tclef"/>
<defs>
<path id="usharp" fill="currentColor" d="
	m136 -702
	v890
	h32
	v-890
	m128 840
	h32
	v-888
	h-32
	m-232 286
	v116
	l338 -96
	v-116
	m-338 442
	v116
	l338 -98
	v-114"/>
<use id="sh0" transform="translate(-4,5) scale(0.018)"
	xlink:href="#usharp"/>
</defs>
<use x="40.33" y="83.01" xlink:href="#sh0"/>
<defs>
<path id="csig" fill="currentColor" d="
	m1 -17.3
	c0.9 0 2.3 0.7 2.4 2.2
	c-1.2 -2 -3.6 0.1 -1.6 1.7
	c2 1 3.8 -3.5 -0.8 -4.7
	c-2 -0.4 -6.4 1.3 -5.8 7
	c0.4 6.4 7.9 6.8 9.1 0.7
	c-2.3 5.6 -6.7 5.1 -6.8 0
	c-0.5 -4.4 0.7 -7.5 3.5 -6.9"/>
<g id="ctsig">
	<use xlink:href="#csig"/>
	<path d="m0 -4v-16" stroke="currentColor"/>
</g>
</defs>
<use x="56.33" y="107.01" xlink:href="#ctsig"/>
<defs>
<ellipse id="hd" rx="4.1" ry="2.9"
	transform="rotate(-20)" fill="currentColor"/>
</defs>
<use x="74.33" y="98.01" xlink:href="#hd"/>
<circle fill="currentColor" cx="82.33" cy="98.01" r="1.2"/>
<path d="M77.83 98.01v-20.00" stroke="currentColor" fill="none"/>
<path fill="currentColor"
	d="M106.73 75.81l65.90 7.30v3.20l-65.90 -7.30"/>
<use x="103.53" y="95.01" xlink:href="#hd"/>
<path d="M107.03 95.01v-18.20" stroke="currentColor" fill="none"/>
<use x="119.83" y="98.01" xlink:href="#hd"/>
<path d="M123.33 98.01v-19.40" stroke="currentColor" fill="none"/>
<use x="136.13" y="107.01" xlink:href="#hd"/>
<path d="M139.63 107.01v-26.60" stroke="currentColor" fill="none"/>
<use x="152.43" y="107.01" xlink:href="#hd"/>
<path d="M155.93 107.01v-24.70" stroke="currentColor" fill="none"/>
<use x="168.73" y="110.01" xlink:href="#hd"/>
<path d="M172.23 110.01v-25.90" stroke="currentColor" fill="none"/>
<path fill="currentColor"
	d="M192.13 120.21l88.40 -9.60v-3.20l-88.40 9.60"/>
<use x="195.93" y="101.01" xlink:href="#hd"/>
<path d="M192.43 101.01v18.20" stroke="currentColor" fill="none"/>
<use x="212.23" y="98.01" xlink:href="#hd"/>
<path d="M208.73 98.01v19.40" stroke="currentColor" fill="none"/>
<use x="228.53" y="95.01" xlink:href="#hd"/>
<path d="M225.03 95.01v20.60" stroke="currentColor" fill="none"/>
<use x="241.53" y="92.01" xlink:href="#hd"/>
<path d="M238.03 92.01v22.20" stroke="currentColor" fill="none"/>
<use x="254.43" y="89.01" xlink:href="#hd"/>
<path d="M250.93 89.01v23.80" stroke="currentColor" fill="none"/>
<use x="267.33" y="86.01" xlink:href="#hd"/>
<path d="M263.83 86.01v25.40" stroke="currentColor" fill="none"/>
<use x="283.73" y="80.01" xlink:href="#hd"/>
<path d="M280.23 80.01v29.60" stroke="currentColor" fill="none"/>
<use x="301.73" y="86.01" xlink:href="#hd"/>
<path d="M298.23 86.01v20.00" stroke="currentColor" fill="none"/>
<path fill="currentColor"
	d="M337.63 80.01l82.20 0.00v3.20l-82.20 -0.00"/>
<use x="334.43" y="98.01" xlink:href="#hd"/>
<path d="M337.93 98.01v-17.00" stroke="currentColor" fill="none"/>
<use x="350.83" y="101.01" xlink:href="#hd"/>
<path d="M354.33 101.01v-20.00" stroke="currentColor" fill="none"/>
<use x="367.13" y="107.01" xlink:href="#hd"/>
<path d="M370.63 107.01v-26.00" stroke="currentColor" fill="none"/>
<use x="383.43" y="104.01" xlink:href="#hd"/>
<path d="M386.93 104.01v-23.00" stroke="currentColor" fill="none"/>
<use x="399.73" y="101.01" xlink:href="#hd"/>
<path d="M403.23 101.01v-20.00" stroke="currentColor" fill="none"/>
<use x="416.03" y="107.01" xlink:href="#hd"/>
<path d="M419.53 107.01v-26.00" stroke="currentColor" fill="none"/>
<use x="434.03" y="107.01" xlink:href="#hd"/>
<path d="M437.53 107.01v-20.00" stroke="currentColor" fill="none"/>
<use x="466.83" y="98.01" xlink:href="#hd"/>
<circle fill="currentColor" cx="474.83" cy="98.01" r="1.2"/>
<path d="M470.33 98.01v-20.00" stroke="currentColor" fill="none"/>
<path fill="currentColor"
	d="M499.13 72.81l33.30 0.00v3.20l-33.30 -0.00"/>
<use x="496.03" y="95.01" xlink:href="#hd"/>
<path d="M499.53 95.01v-21.20" stroke="currentColor" fill="none"/>
<use x="512.33" y="92.01" xlink:href="#hd"/>
<path d="M515.83 92.01v-18.20" stroke="currentColor" fill="none"/>
<use x="528.63" y="98.01" xlink:href="#hd"/>
<path d="M532.13 98.01v-24.20" stroke="currentColor" fill="none"/>
<use x="546.63" y="98.01" xlink:href="#hd"/>
<path d="M550.13 98.01v-20.00" stroke="currentColor" fill="none"/>
<use x="580.63" y="98.01" xlink:href="#hd"/>
<path d="M584.13 98.01v-20.00" stroke="currentColor" fill="none"/>
<path fill="currentColor"
	d="M602.13 110.71l17.00 3.60v-3.20l-17.00 -3.60"/>
<use x="605.93" y="89.01" xlink:href="#hd"/>
<path d="M602.43 89.01v20.70" stroke="currentColor" fill="none"/>
<use x="622.23" y="95.01" xlink:href="#hd"/>
<path d="M618.73 95.01v18.20" stroke="currentColor" fill="none"/>
<use x="638.63" y="98.01" xlink:href="#hd"/>
<path d="M642.13 98.01v-20.00" stroke="currentColor" fill="none"/>
<path fill="currentColor"
	d="M666.83 81.71l17.00 3.60v3.20l-17.00 -3.60"/>
<use x="663.63" y="101.01" xlink:href="#hd"/>
<path d="M667.13 101.01v-18.20" stroke="currentColor" fill="none"/>
<use x="679.93" y="107.01" xlink:href="#hd"/>
<path d="M683.43 107.01v-20.70" stroke="currentColor" fill="none"/>
<defs>
<path id="grm" fill="currentColor" d="
	m-5 -2.5
	c5 -8.5 5.5 4.5 10 -2
	c-5 8.5 -5.5 -4.5 -10 2"/>
</defs>
<use x="74.33" y="74.01" xlink:href="#grm"/>
<use x="434.03" y="81.01" xlink:href="#grm"/>
<use x="466.83" y="74.01" xlink:href="#grm"/>
<use x="546.63" y="74.01" xlink:href="#grm"/>
<use x="64.83" y="177.01" xlink:href="#rdots"/>
<path stroke="currentColor" fill="none"
	d="M60.83 177.01v-24.00"/>
<path stroke="currentColor" fill="none" stroke-width="3"
	d="M56.33 177.01v-24.00"/>
<path stroke="currentColor" fill="none"
	d="M212.63 177.01v-24.00"/>
<path stroke="currentColor" fill="none"
	d="M359.53 177.01v-24.00"/>
<path stroke="currentColor" fill="none"
	d="M523.93 177.01v-24.00"/>
<path stroke="currentColor" fill="none"
	d="M694.93 177.01v-24.00"/>
<path stroke="currentColor" fill="none"
	d="M13.33 177.01h681.60m-681.60 -6h681.60m-681.60 -6h681.60m-681.60 -6h681.60m-681.60 -6h681.60"/>
<use x="25.33" y="177.01" xlink:href="#tclef"/>
<use x="40.33" y="153.01" xlink:href="#sh0"/>
<defs>
<path id="hl" stroke="currentColor" d="m-6 0h12"/>
</defs>
<use x="78.33" y="147.01" xlink:href="#hl"/>
<use x="78.33" y="147.01" xlink:href="#hd"/>
<circle fill="currentColor" cx="86.33" cy="144.01" r="1.2"/>
<path d="M74.83 147.01v20.00" stroke="currentColor" fill="none"/>
<path fill="currentColor"
	d="M110.43 171.31l81.10 5.30v-3.20l-81.10 -5.30"/>
<use x="114.33" y="147.01" xlink:href="#hl"/>
<use x="114.33" y="144.01" xlink:href="#hd"/>
<path d="M110.83 144.01v26.30" stroke="currentColor" fill="none"/>
<use x="134.43" y="147.01" xlink:href="#hl"/>
<use x="134.43" y="147.01" xlink:href="#hd"/>
<path d="M130.93 147.01v24.60" stroke="currentColor" fill="none"/>
<use x="154.53" y="150.01" xlink:href="#hd"/>
<path d="M151.03 150.01v22.90" stroke="currentColor" fill="none"/>
<use x="174.63" y="156.01" xlink:href="#hd"/>
<path d="M171.13 156.01v18.20" stroke="currentColor" fill="none"/>
<use x="194.73" y="153.01" xlink:href="#hd"/>
<path d="M191.23 153.01v22.50" stroke="currentColor" fill="none"/>
<path fill="currentColor"
	d="M221.23 177.41l60.90 6.80v-3.20l-60.90 -6.80"/>
<use x="225.13" y="150.01" xlink:href="#hd"/>
<path d="M221.63 150.01v26.50" stroke="currentColor" fill="none"/>
<use x="245.13" y="156.01" xlink:href="#hd"/>
<path d="M241.63 156.01v22.70" stroke="currentColor" fill="none"/>
<use x="265.23" y="159.01" xlink:href="#hd"/>
<path d="M261.73 159.01v22.00" stroke="currentColor" fill="none"/>
<use x="285.33" y="165.01" xlink:href="#hd"/>
<path d="M281.83 165.01v18.20" stroke="currentColor" fill="none"/>
<use x="305.43" y="168.01" xlink:href="#hd"/>
<circle fill="currentColor" cx="313.43" cy="168.01" r="1.2"/>
<path d="M308.93 168.01v-20.00" stroke="currentColor" fill="none"/>
<use x="341.33" y="165.01" xlink:href="#hd"/>
<path d="M344.83 165.01v-20.00" stroke="currentColor" fill="none"/>
<path fill="currentColor"
	d="	M344.83 145.01c0.6 5.6 9.6 9 5.6 18.4
	c1.6 -6 -1.3 -11.6 -5.6 -12.8
"/>
<path fill="currentColor"
	d="M368.23 178.21l60.90 -7.00v-3.20l-60.90 7.00"/>
<use x="372.03" y="159.01" xlink:href="#hd"/>
<path d="M368.53 159.01v18.20" stroke="currentColor" fill="none"/>
<use x="392.13" y="156.01" xlink:href="#hd"/>
<path d="M388.63 156.01v18.90" stroke="currentColor" fill="none"/>
<use x="412.23" y="153.01" xlink:href="#hd"/>
<path d="M408.73 153.01v19.60" stroke="currentColor" fill="none"/>
<use x="432.33" y="150.01" xlink:href="#hd"/>
<path d="M428.83 150.01v20.30" stroke="currentColor" fill="none"/>
<use x="454.53" y="147.01" xlink:href="#hl"/>
<use x="454.53" y="147.01" xlink:href="#hd"/>
<path d="M451.03 147.01v20.00" stroke="currentColor" fill="none"/>
<path fill="currentColor"
	d="M482.13 166.91l20.80 -1.70v-3.20l-20.80 1.70"/>
<use x="485.93" y="147.01" xlink:href="#hl"/>
<use x="485.93" y="147.01" xlink:href="#hd"/>
<path d="M482.43 147.01v18.80" stroke="currentColor" fill="none"/>
<use x="506.03" y="147.01" xlink:href="#hl"/>
<use x="506.03" y="144.01" xlink:href="#hd"/>
<path d="M502.53 144.01v20.20" stroke="currentColor" fill="none"/>
<path fill="currentColor"
	d="M532.63 176.51l141.20 10.80v-3.20l-141.20 -10.80"/>
<use x="536.43" y="147.01" xlink:href="#hl"/>
<use x="536.43" y="147.01" xlink:href="#hd"/>
<path d="M532.93 147.01v28.50" stroke="currentColor" fill="none"/>
<use x="556.53" y="153.01" xlink:href="#hd"/>
<path d="M553.03 153.01v24.00" stroke="currentColor" fill="none"/>
<use x="576.63" y="150.01" xlink:href="#hd"/>
<path d="M573.13 150.01v28.60" stroke="currentColor" fill="none"/>
<use x="596.73" y="156.01" xlink:href="#hd"/>
<path d="M593.23 156.01v24.10" stroke="currentColor" fill="none"/>
<use x="616.83" y="159.01" xlink:href="#hd"/>
<path d="M613.33 159.01v22.70" stroke="currentColor" fill="none"/>
<use x="636.83" y="165.01" xlink:href="#hd"/>
<path d="M633.33 165.01v18.20" stroke="currentColor" fill="none"/>
<use x="656.93" y="165.01" xlink:href="#hd"/>
<path d="M653.43 165.01v19.70" stroke="currentColor" fill="none"/>
<use x="677.03" y="168.01" xlink:href="#hd"/>
<path d="M673.53 168.01v18.30" stroke="currentColor" fill="none"/>
<use x="78.33" y="141.01" xlink:href="#grm"/>
<use x="305.43" y="144.01" xlink:href="#grm"/>
<path stroke="currentColor" fill="none"
	d="M182.63 258.01v-24.00"/>
<path stroke="currentColor" fill="none"
	d="M301.63 258.01v-24.00"/>
<path stroke="currentColor" fill="none"
	d="M420.93 258.01v-24.00"/>
<path stroke="currentColor" fill="none" stroke-width="3"
	d="M563.73 258.01v-24.00"/>
<path stroke="currentColor" fill="none"
	d="M559.23 258.01v-24.00"/>
<use x="555.23" y="258.01" xlink:href="#rdots"/>
<path stroke="currentColor" fill="none"
	d="M694.93 258.01v-24.00"/>
<path stroke="currentColor" fill="none"
	d="M691.93 258.01v-24.00"/>
<path stroke="currentColor" fill="none"
	d="M13.33 258.01h681.60m-681.60 -6h681.60m-681.60 -6h681.60m-681.60 -6h681.60m-681.60 -6h681.60"/>
<path stroke="currentColor" fill="none"
	d="M78.63 229.01v-3l33.30 -0.00v3"/>
<rect x="88.33" y="220.01" width="14.00" height="12" fill="white"/>
<text font-family="serif" font-size="12" font-style="italic" font-weight="normal"
	x="95.33" y="230.01" text-anchor="middle">3</text>
<text x="424.93" y="213.41">1</text>
<path stroke="currentColor" fill="none"
	d="M420.93 202.01v20M420.93 202.01h136.30v20"/>
<text x="569.23" y="213.41">2</text>
<path stroke="currentColor" fill="none"
	d="M565.23 202.01v20M565.23 202.01h129.70v20"/>
<use x="25.33" y="258.01" xlink:href="#tclef"/>
<use x="40.33" y="234.01" xlink:href="#sh0"/>
<use x="58.33" y="246.01" xlink:href="#hd"/>
<path d="M54.83 246.01v20.00" stroke="currentColor" fill="none"/>
<path fill="currentColor"
	d="M78.83 265.21l86.30 0.00v-3.20l-86.30 -0.00"/>
<use x="82.63" y="246.01" xlink:href="#hd"/>
<path d="M79.13 246.01v18.20" stroke="currentColor" fill="none"/>
<use x="95.33" y="243.01" xlink:href="#hd"/>
<path d="M91.83 243.01v21.20" stroke="currentColor" fill="none"/>
<use x="107.93" y="240.01" xlink:href="#hd"/>
<path d="M104.43 240.01v24.20" stroke="currentColor" fill="none"/>
<use x="120.63" y="237.01" xlink:href="#hd"/>
<path d="M117.13 237.01v27.20" stroke="currentColor" fill="none"/>
<use x="136.53" y="240.01" xlink:href="#hd"/>
<path d="M133.03 240.01v24.20" stroke="currentColor" fill="none"/>
<use x="152.43" y="246.01" xlink:href="#hd"/>
<path d="M148.93 246.01v18.20" stroke="currentColor" fill="none"/>
<use x="168.33" y="243.01" xlink:href="#hd"/>
<path d="M164.83 243.01v21.20" stroke="currentColor" fill="none"/>
<use x="195.13" y="240.01" xlink:href="#hd"/>
<circle fill="currentColor" cx="203.13" cy="237.01" r="1.2"/>
<path d="M191.63 240.01v20.00" stroke="currentColor" fill="none"/>
<path fill="currentColor"
	d="M219.83 262.81l64.30 5.40v-3.20l-64.30 -5.40"/>
<use x="223.63" y="240.01" xlink:href="#hd"/>
<path d="M220.13 240.01v21.80" stroke="currentColor" fill="none"/>
<use x="239.53" y="237.01" xlink:href="#hd"/>
<path d="M236.03 237.01v26.20" stroke="currentColor" fill="none"/>
<use x="255.43" y="240.01" xlink:href="#hd"/>
<path d="M251.93 240.01v24.50" stroke="currentColor" fill="none"/>
<use x="271.33" y="246.01" xlink:href="#hd"/>
<path d="M267.83 246.01v19.90" stroke="currentColor" fill="none"/>
<use x="287.23" y="249.01" xlink:href="#hd"/>
<path d="M283.73 249.01v18.20" stroke="currentColor" fill="none"/>
<use x="314.13" y="231.01" xlink:href="#hd"/>
<circle fill="currentColor" cx="322.13" cy="231.01" r="1.2"/>
<path d="M310.63 231.01v20.00" stroke="currentColor" fill="none"/>
<path fill="currentColor"
	d="M338.73 255.01l64.70 0.00v-3.20l-64.70 -0.00"/>
<use x="342.53" y="228.01" xlink:href="#hl"/>
<use x="342.53" y="228.01" xlink:href="#hd"/>
<path d="M339.03 228.01v26.00" stroke="currentColor" fill="none"/>
<use x="358.63" y="228.01" xlink:href="#hl"/>
<use x="358.63" y="225.01" xlink:href="#hd"/>
<path d="M355.13 225.01v29.00" stroke="currentColor" fill="none"/>
<use x="374.73" y="228.01" xlink:href="#hl"/>
<use x="374.73" y="228.01" xlink:href="#hd"/>
<path d="M371.23 228.01v26.00" stroke="currentColor" fill="none"/>
<use x="390.63" y="231.01" xlink:href="#hd"/>
<path d="M387.13 231.01v23.00" stroke="currentColor" fill="none"/>
<use x="406.53" y="237.01" xlink:href="#hd"/>
<path d="M403.03 237.01v17.00" stroke="currentColor" fill="none"/>
<path fill="currentColor"
	d="M436.53 220.81l112.00 0.00v3.20l-112.00 -0.00"/>
<use x="433.43" y="240.01" xlink:href="#hd"/>
<path d="M436.93 240.01v-18.20" stroke="currentColor" fill="none"/>
<use x="449.33" y="246.01" xlink:href="#hd"/>
<path d="M452.83 246.01v-24.20" stroke="currentColor" fill="none"/>
<use x="465.23" y="249.01" xlink:href="#hd"/>
<path d="M468.73 249.01v-27.20" stroke="currentColor" fill="none"/>
<use x="481.13" y="243.01" xlink:href="#hd"/>
<path d="M484.63 243.01v-21.20" stroke="currentColor" fill="none"/>
<use x="497.03" y="246.01" xlink:href="#hd"/>
<path d="M500.53 246.01v-24.20" stroke="currentColor" fill="none"/>
<use x="512.93" y="249.01" xlink:href="#hd"/>
<path d="M516.43 249.01v-27.20" stroke="currentColor" fill="none"/>
<use x="528.83" y="252.01" xlink:href="#hd"/>
<path d="M532.33 252.01v-30.20" stroke="currentColor" fill="none"/>
<use x="544.73" y="255.01" xlink:href="#hd"/>
<path d="M548.23 255.01v-33.20" stroke="currentColor" fill="none"/>
<path fill="currentColor"
	d="M580.93 220.81l80.20 0.00v3.20l-80.20 -0.00"/>
<use x="577.73" y="240.01" xlink:href="#hd"/>
<path d="M581.23 240.01v-18.20" stroke="currentColor" fill="none"/>
<use x="593.63" y="246.01" xlink:href="#hd"/>
<path d="M597.13 246.01v-24.20" stroke="currentColor" fill="none"/>
<use x="609.53" y="249.01" xlink:href="#hd"/>
<path d="M613.03 249.01v-27.20" stroke="currentColor" fill="none"/>
<use x="625.43" y="252.01" xlink:href="#hd"/>
<path d="M628.93 252.01v-30.20" stroke="currentColor" fill="none"/>
<use x="641.33" y="249.01" xlink:href="#hd"/>
<path d="M644.83 249.01v-27.20" stroke="currentColor" fill="none"/>
<use x="657.23" y="252.01" xlink:href="#hd"/>
<path d="M660.73 252.01v-30.20" stroke="currentColor" fill="none"/>
<use x="674.83" y="258.01" xlink:href="#hd"/>
<path d="M678.33 258.01v-20.00" stroke="currentColor" fill="none"/>
<use x="195.13" y="232.01" xlink:href="#grm"/>
<use x="314.13" y="225.01" xlink:href="#grm"/>
</g>
</svg>
