<?xml version="1.0" standalone="no"?>
<!DOCTYPE svg PUBLIC "-//W3C//DTD SVG 1.1//EN"
	"http://www.w3.org/Graphics/SVG/1.1/DTD/svg11.dtd">
<svg xmlns="http://www.w3.org/2000/svg" version="1.1"
	xmlns:xlink="http://www.w3.org/1999/xlink"
	xml:space='preserve' color="black"
	width="7.38in" height="7.56in" viewBox="0 0 531 544">
<title>data/results/biggest_11/abc/100.abc (100) tune 1</title>
<!-- Creator: abcm2ps-7.8.14 -->
<!-- CreationDate: Aug  9, 2015 23:50 -->
<!-- CommandLine: -g data/results/biggest_11/abc/100.abc -O /home/allanino/Dropbox/Trabalhos/folkme/svg/100.svg -->
<g transform="scale(0.750)" stroke-width="0.70" font-family="Times" font-size="20.00">
<text x="354.13" y="21.67" text-anchor="middle">A Charlie Hall&apos;s My Horn</text>
</g>
<g transform="scale(0.750)" stroke-width="0.70" font-family="Times" font-size="16.00">
<text x="354.13" y="41.30" text-anchor="middle">Devil an the Mountain</text>
<path stroke="currentColor" fill="none"
	d="M212.93 116.84v-24.00"/>
<path stroke="currentColor" fill="none"
	d="M367.73 116.84v-24.00"/>
<path stroke="currentColor" fill="none"
	d="M531.33 116.84v-24.00"/>
<path stroke="currentColor" fill="none"
	d="M694.93 116.84v-24.00"/>
<path stroke="currentColor" fill="none"
	d="M13.33 116.84h681.60m-681.60 -6h681.60m-681.60 -6h681.60m-681.60 -6h681.60m-681.60 -6h681.60"/>
<defs>
<path id="utclef" fill="currentColor" d="m-50 -90
	c-72 -41 -72 -158 52 -188
	c150 -10 220 188 90 256
	c-114 52 -275 0 -293 -136
	c-15 -181 93 -229 220 -334
	c88 -87 79 -133 62 -210
	c-51 33 -94 105 -89 186
	c17 267 36 374 49 574
	c6 96 -19 134 -77 135
	c-80 1 -126 -93 -61 -133
	c85 -41 133 101 31 105
	c23 17 92 37 90 -92
	c-10 -223 -39 -342 -50 -617
	c0 -90 0 -162 96 -232
	c56 72 63 230 22 289
	c-74 106 -257 168 -255 316
	c9 153 148 185 252 133
	c86 -65 29 -192 -80 -176
	c-71 12 -105 67 -59 124"/>
<use id="tclef" transform="scale(0.045)"
	xlink:href="#utclef"/>
</defs>
<use x="25.33" y="116.84" xlink:href="#tclef"/>
<defs>
<path id="csig" fill="currentColor" d="
	m1 -17.3
	c0.9 0 2.3 0.7 2.4 2.2
	c-1.2 -2 -3.6 0.1 -1.6 1.7
	c2 1 3.8 -3.5 -0.8 -4.7
	c-2 -0.4 -6.4 1.3 -5.8 7
	c0.4 6.4 7.9 6.8 9.1 0.7
	c-2.3 5.6 -6.7 5.1 -6.8 0
	c-0.5 -4.4 0.7 -7.5 3.5 -6.9"/>
<g id="ctsig">
	<use xlink:href="#csig"/>
	<path d="m0 -4v-16" stroke="currentColor"/>
</g>
</defs>
<use x="43.83" y="116.84" xlink:href="#ctsig"/>
<path fill="currentColor"
	d="M65.03 94.54l20.70 3.90v3.20l-20.70 -3.90"/>
<defs>
<ellipse id="hd" rx="4.1" ry="2.9"
	transform="rotate(-20)" fill="currentColor"/>
</defs>
<use x="61.83" y="113.84" xlink:href="#hd"/>
<path d="M65.33 113.84v-18.20" stroke="currentColor" fill="none"/>
<use x="81.83" y="119.84" xlink:href="#hd"/>
<path d="M85.33 119.84v-20.50" stroke="currentColor" fill="none"/>
<use x="103.93" y="119.84" xlink:href="#hd"/>
<path d="M107.43 119.84v-20.00" stroke="currentColor" fill="none"/>
<path fill="currentColor"
	d="M131.43 133.14l60.60 -9.10v-3.20l-60.60 9.10"/>
<use x="135.23" y="113.84" xlink:href="#hd"/>
<path d="M131.73 113.84v18.20" stroke="currentColor" fill="none"/>
<use x="155.23" y="107.84" xlink:href="#hd"/>
<path d="M151.73 107.84v21.20" stroke="currentColor" fill="none"/>
<use x="175.23" y="98.84" xlink:href="#hd"/>
<path d="M171.73 98.84v27.20" stroke="currentColor" fill="none"/>
<use x="195.13" y="92.84" xlink:href="#hd"/>
<path d="M191.63 92.84v30.20" stroke="currentColor" fill="none"/>
<use x="225.43" y="95.84" xlink:href="#hd"/>
<path d="M221.93 95.84v20.00" stroke="currentColor" fill="none"/>
<path fill="currentColor"
	d="M252.83 121.14l20.70 -3.90v-3.20l-20.70 3.90"/>
<use x="256.63" y="101.84" xlink:href="#hd"/>
<path d="M253.13 101.84v18.20" stroke="currentColor" fill="none"/>
<use x="276.63" y="95.84" xlink:href="#hd"/>
<path d="M273.13 95.84v20.50" stroke="currentColor" fill="none"/>
<use x="298.83" y="98.84" xlink:href="#hd"/>
<path d="M295.33 98.84v20.00" stroke="currentColor" fill="none"/>
<path fill="currentColor"
	d="M326.13 112.14l20.70 -3.90v-3.20l-20.70 3.90"/>
<use x="329.93" y="92.84" xlink:href="#hd"/>
<path d="M326.43 92.84v18.20" stroke="currentColor" fill="none"/>
<defs>
<path id="hl" stroke="currentColor" d="m-6 0h12"/>
</defs>
<use x="349.93" y="86.84" xlink:href="#hl"/>
<use x="349.93" y="86.84" xlink:href="#hd"/>
<path d="M346.43 86.84v20.50" stroke="currentColor" fill="none"/>
<path fill="currentColor"
	d="M376.43 105.64l20.70 3.40v-3.20l-20.70 -3.40"/>
<use x="380.23" y="86.84" xlink:href="#hl"/>
<use x="380.23" y="83.84" xlink:href="#hd"/>
<path d="M376.73 83.84v20.90" stroke="currentColor" fill="none"/>
<use x="400.23" y="89.84" xlink:href="#hd"/>
<path d="M396.73 89.84v18.20" stroke="currentColor" fill="none"/>
<use x="422.33" y="89.84" xlink:href="#hd"/>
<path d="M418.83 89.84v20.00" stroke="currentColor" fill="none"/>
<path fill="currentColor"
	d="M449.73 111.94l60.60 6.10v-3.20l-60.60 -6.10"/>
<use x="453.53" y="86.84" xlink:href="#hl"/>
<use x="453.53" y="86.84" xlink:href="#hd"/>
<path d="M450.03 86.84v24.20" stroke="currentColor" fill="none"/>
<use x="473.53" y="89.84" xlink:href="#hd"/>
<path d="M470.03 89.84v23.20" stroke="currentColor" fill="none"/>
<use x="493.53" y="95.84" xlink:href="#hd"/>
<path d="M490.03 95.84v19.20" stroke="currentColor" fill="none"/>
<use x="513.53" y="98.84" xlink:href="#hd"/>
<path d="M510.03 98.84v18.20" stroke="currentColor" fill="none"/>
<path fill="currentColor"
	d="M546.93 82.64l60.60 3.80v3.20l-60.60 -3.80"/>
<use x="543.83" y="101.84" xlink:href="#hd"/>
<path d="M547.33 101.84v-18.20" stroke="currentColor" fill="none"/>
<use x="563.73" y="107.84" xlink:href="#hd"/>
<path d="M567.23 107.84v-22.90" stroke="currentColor" fill="none"/>
<use x="583.73" y="104.84" xlink:href="#hd"/>
<path d="M587.23 104.84v-18.70" stroke="currentColor" fill="none"/>
<use x="603.73" y="110.84" xlink:href="#hd"/>
<path d="M607.23 110.84v-23.40" stroke="currentColor" fill="none"/>
<use x="625.83" y="107.84" xlink:href="#hd"/>
<path d="M629.33 107.84v-20.00" stroke="currentColor" fill="none"/>
<path fill="currentColor"
	d="M653.33 124.14l20.70 -3.90v-3.20l-20.70 3.90"/>
<use x="657.13" y="104.84" xlink:href="#hd"/>
<path d="M653.63 104.84v18.20" stroke="currentColor" fill="none"/>
<use x="677.13" y="98.84" xlink:href="#hd"/>
<path d="M673.63 98.84v20.50" stroke="currentColor" fill="none"/>
<defs>
<path id="grm" fill="currentColor" d="
	m-5 -2.5
	c5 -8.5 5.5 4.5 10 -2
	c-5 8.5 -5.5 -4.5 -10 2"/>
</defs>
<use x="103.93" y="90.84" xlink:href="#grm"/>
<use x="422.33" y="83.84" xlink:href="#grm"/>
<path stroke="currentColor" fill="none"
	d="M183.53 186.84v-24.00"/>
<path stroke="currentColor" fill="none"
	d="M354.03 186.84v-24.00"/>
<path stroke="currentColor" fill="none"
	d="M524.43 186.84v-24.00"/>
<path stroke="currentColor" fill="none"
	d="M694.93 186.84v-24.00"/>
<path stroke="currentColor" fill="none"
	d="M13.33 186.84h681.60m-681.60 -6h681.60m-681.60 -6h681.60m-681.60 -6h681.60m-681.60 -6h681.60"/>
<use x="25.33" y="186.84" xlink:href="#tclef"/>
<use x="49.83" y="177.84" xlink:href="#hd"/>
<circle fill="currentColor" cx="57.83" cy="177.84" r="1.2"/>
<path d="M53.33 177.84v-20.00" stroke="currentColor" fill="none"/>
<path fill="currentColor"
	d="M88.83 152.64l80.70 0.00v3.20l-80.70 -0.00"/>
<use x="85.63" y="177.84" xlink:href="#hd"/>
<path d="M89.13 177.84v-24.20" stroke="currentColor" fill="none"/>
<use x="105.63" y="174.84" xlink:href="#hd"/>
<path d="M109.13 174.84v-21.20" stroke="currentColor" fill="none"/>
<use x="125.63" y="171.84" xlink:href="#hd"/>
<path d="M129.13 171.84v-18.20" stroke="currentColor" fill="none"/>
<use x="145.73" y="177.84" xlink:href="#hd"/>
<path d="M149.23 177.84v-24.20" stroke="currentColor" fill="none"/>
<use x="165.73" y="180.84" xlink:href="#hd"/>
<path d="M169.23 180.84v-27.20" stroke="currentColor" fill="none"/>
<path fill="currentColor"
	d="M199.23 159.84l140.80 0.00v3.20l-140.80 -0.00"/>
<use x="196.03" y="183.84" xlink:href="#hd"/>
<path d="M199.53 183.84v-23.00" stroke="currentColor" fill="none"/>
<use x="216.03" y="177.84" xlink:href="#hd"/>
<path d="M219.53 177.84v-17.00" stroke="currentColor" fill="none"/>
<use x="236.03" y="189.84" xlink:href="#hd"/>
<path d="M239.53 189.84v-29.00" stroke="currentColor" fill="none"/>
<use x="256.13" y="186.84" xlink:href="#hd"/>
<path d="M259.63 186.84v-26.00" stroke="currentColor" fill="none"/>
<use x="276.13" y="183.84" xlink:href="#hd"/>
<path d="M279.63 183.84v-23.00" stroke="currentColor" fill="none"/>
<use x="296.13" y="186.84" xlink:href="#hd"/>
<path d="M299.63 186.84v-26.00" stroke="currentColor" fill="none"/>
<use x="316.13" y="189.84" xlink:href="#hd"/>
<path d="M319.63 189.84v-29.00" stroke="currentColor" fill="none"/>
<use x="336.13" y="192.84" xlink:href="#hl"/>
<use x="336.13" y="192.84" xlink:href="#hd"/>
<path d="M339.63 192.84v-32.00" stroke="currentColor" fill="none"/>
<path fill="currentColor"
	d="M369.63 155.64l140.80 0.00v3.20l-140.80 -0.00"/>
<use x="366.53" y="192.84" xlink:href="#hl"/>
<use x="366.53" y="195.84" xlink:href="#hd"/>
<path d="M370.03 195.84v-39.20" stroke="currentColor" fill="none"/>
<use x="386.53" y="189.84" xlink:href="#hd"/>
<path d="M390.03 189.84v-33.20" stroke="currentColor" fill="none"/>
<use x="406.53" y="180.84" xlink:href="#hd"/>
<path d="M410.03 180.84v-24.20" stroke="currentColor" fill="none"/>
<use x="426.53" y="174.84" xlink:href="#hd"/>
<path d="M430.03 174.84v-18.20" stroke="currentColor" fill="none"/>
<use x="446.53" y="177.84" xlink:href="#hd"/>
<path d="M450.03 177.84v-21.20" stroke="currentColor" fill="none"/>
<use x="466.63" y="189.84" xlink:href="#hd"/>
<path d="M470.13 189.84v-33.20" stroke="currentColor" fill="none"/>
<use x="486.63" y="177.84" xlink:href="#hd"/>
<path d="M490.13 177.84v-21.20" stroke="currentColor" fill="none"/>
<use x="506.63" y="183.84" xlink:href="#hd"/>
<path d="M510.13 183.84v-27.20" stroke="currentColor" fill="none"/>
<path fill="currentColor"
	d="M540.13 159.84l140.80 0.00v3.20l-140.80 -0.00"/>
<use x="536.93" y="180.84" xlink:href="#hd"/>
<path d="M540.43 180.84v-20.00" stroke="currentColor" fill="none"/>
<use x="557.03" y="186.84" xlink:href="#hd"/>
<path d="M560.53 186.84v-26.00" stroke="currentColor" fill="none"/>
<use x="577.03" y="177.84" xlink:href="#hd"/>
<path d="M580.53 177.84v-17.00" stroke="currentColor" fill="none"/>
<use x="597.03" y="183.84" xlink:href="#hd"/>
<path d="M600.53 183.84v-23.00" stroke="currentColor" fill="none"/>
<use x="617.03" y="183.84" xlink:href="#hd"/>
<path d="M620.53 183.84v-23.00" stroke="currentColor" fill="none"/>
<use x="637.03" y="180.84" xlink:href="#hd"/>
<path d="M640.53 180.84v-20.00" stroke="currentColor" fill="none"/>
<use x="657.03" y="186.84" xlink:href="#hd"/>
<path d="M660.53 186.84v-26.00" stroke="currentColor" fill="none"/>
<use x="677.13" y="183.84" xlink:href="#hd"/>
<path d="M680.63 183.84v-23.00" stroke="currentColor" fill="none"/>
<use x="49.83" y="153.84" xlink:href="#grm"/>
<path stroke="currentColor" fill="none"
	d="M205.63 256.84v-24.00"/>
<path stroke="currentColor" fill="none"
	d="M369.83 256.84v-24.00"/>
<path stroke="currentColor" fill="none"
	d="M519.93 256.84v-24.00"/>
<path stroke="currentColor" fill="none"
	d="M694.93 256.84v-24.00"/>
<path stroke="currentColor" fill="none"
	d="M13.33 256.84h681.60m-681.60 -6h681.60m-681.60 -6h681.60m-681.60 -6h681.60m-681.60 -6h681.60"/>
<use x="25.33" y="256.84" xlink:href="#tclef"/>
<path fill="currentColor"
	d="M53.03 234.44l62.50 -5.80v3.20l-62.50 5.80"/>
<use x="49.83" y="259.84" xlink:href="#hd"/>
<path d="M53.33 259.84v-24.50" stroke="currentColor" fill="none"/>
<use x="70.43" y="256.84" xlink:href="#hd"/>
<path d="M73.93 256.84v-23.40" stroke="currentColor" fill="none"/>
<use x="91.03" y="253.84" xlink:href="#hd"/>
<path d="M94.53 253.84v-22.30" stroke="currentColor" fill="none"/>
<use x="111.63" y="247.84" xlink:href="#hd"/>
<path d="M115.13 247.84v-18.20" stroke="currentColor" fill="none"/>
<use x="134.53" y="238.84" xlink:href="#hd"/>
<path d="M131.03 238.84v20.00" stroke="currentColor" fill="none"/>
<path fill="currentColor"
	d="M162.93 259.14l21.30 2.40v-3.20l-21.30 -2.40"/>
<use x="166.73" y="238.84" xlink:href="#hd"/>
<path d="M163.23 238.84v19.30" stroke="currentColor" fill="none"/>
<use x="187.33" y="241.84" xlink:href="#hd"/>
<path d="M183.83 241.84v18.70" stroke="currentColor" fill="none"/>
<path fill="currentColor"
	d="M221.33 225.64l103.60 7.90v3.20l-103.60 -7.90"/>
<use x="218.13" y="244.84" xlink:href="#hd"/>
<path d="M221.63 244.84v-18.20" stroke="currentColor" fill="none"/>
<use x="238.73" y="247.84" xlink:href="#hd"/>
<path d="M242.23 247.84v-19.60" stroke="currentColor" fill="none"/>
<use x="259.33" y="250.84" xlink:href="#hd"/>
<path d="M262.83 250.84v-21.10" stroke="currentColor" fill="none"/>
<use x="279.93" y="256.84" xlink:href="#hd"/>
<path d="M283.43 256.84v-25.50" stroke="currentColor" fill="none"/>
<use x="300.53" y="256.84" xlink:href="#hd"/>
<path d="M304.03 256.84v-23.90" stroke="currentColor" fill="none"/>
<use x="321.13" y="259.84" xlink:href="#hd"/>
<path d="M324.63 259.84v-25.40" stroke="currentColor" fill="none"/>
<use x="344.03" y="259.84" xlink:href="#hd"/>
<path d="M347.53 259.84v-20.00" stroke="currentColor" fill="none"/>
<use x="382.33" y="259.84" xlink:href="#hd"/>
<circle fill="currentColor" cx="390.33" cy="259.84" r="1.2"/>
<path d="M385.83 259.84v-20.00" stroke="currentColor" fill="none"/>
<path fill="currentColor"
	d="M415.33 273.04l83.10 -8.60v-3.20l-83.10 8.60"/>
<use x="419.23" y="253.84" xlink:href="#hd"/>
<path d="M415.73 253.84v18.20" stroke="currentColor" fill="none"/>
<use x="439.83" y="247.84" xlink:href="#hd"/>
<path d="M436.33 247.84v22.10" stroke="currentColor" fill="none"/>
<use x="460.43" y="238.84" xlink:href="#hd"/>
<path d="M456.93 238.84v28.90" stroke="currentColor" fill="none"/>
<use x="481.03" y="232.84" xlink:href="#hd"/>
<path d="M477.53 232.84v32.80" stroke="currentColor" fill="none"/>
<use x="501.63" y="238.84" xlink:href="#hd"/>
<path d="M498.13 238.84v24.60" stroke="currentColor" fill="none"/>
<path fill="currentColor"
	d="M528.63 267.04l144.80 0.00v-3.20l-144.80 -0.00"/>
<use x="532.43" y="229.84" xlink:href="#hd"/>
<path d="M528.93 229.84v36.20" stroke="currentColor" fill="none"/>
<use x="553.03" y="232.84" xlink:href="#hd"/>
<path d="M549.53 232.84v33.20" stroke="currentColor" fill="none"/>
<use x="573.63" y="235.84" xlink:href="#hd"/>
<path d="M570.13 235.84v30.20" stroke="currentColor" fill="none"/>
<use x="594.23" y="238.84" xlink:href="#hd"/>
<path d="M590.73 238.84v27.20" stroke="currentColor" fill="none"/>
<use x="614.83" y="241.84" xlink:href="#hd"/>
<path d="M611.33 241.84v24.20" stroke="currentColor" fill="none"/>
<use x="635.43" y="247.84" xlink:href="#hd"/>
<path d="M631.93 247.84v18.20" stroke="currentColor" fill="none"/>
<use x="656.03" y="247.84" xlink:href="#hd"/>
<path d="M652.53 247.84v18.20" stroke="currentColor" fill="none"/>
<use x="676.63" y="229.84" xlink:href="#hd"/>
<path d="M673.13 229.84v36.20" stroke="currentColor" fill="none"/>
<use x="382.33" y="230.84" xlink:href="#grm"/>
<path stroke="currentColor" fill="none"
	d="M152.33 331.84v-24.00"/>
<path stroke="currentColor" fill="none"
	d="M273.23 331.84v-24.00"/>
<path stroke="currentColor" fill="none"
	d="M407.83 331.84v-24.00"/>
<path stroke="currentColor" fill="none" stroke-width="3"
	d="M552.73 331.84v-24.00"/>
<path stroke="currentColor" fill="none"
	d="M548.23 331.84v-24.00"/>
<defs>
<g id="rdots" fill="currentColor">
	<circle cx="0" cy="-9" r="1.2"/>
	<circle cx="0" cy="-15" r="1.2"/>
</g>
</defs>
<use x="544.23" y="331.84" xlink:href="#rdots"/>
<path stroke="currentColor" fill="none"
	d="M694.93 331.84v-24.00"/>
<path stroke="currentColor" fill="none"
	d="M691.93 331.84v-24.00"/>
<path stroke="currentColor" fill="none"
	d="M13.33 331.84h681.60m-681.60 -6h681.60m-681.60 -6h681.60m-681.60 -6h681.60m-681.60 -6h681.60"/>
</g>
<g transform="scale(0.750)" stroke-width="0.70" font-family="Times" font-size="13.00">
<text x="411.83" y="293.24">1</text>
<path stroke="currentColor" fill="none"
	d="M407.83 281.84v20M407.83 281.84h138.40v20"/>
<text x="558.23" y="293.24">2</text>
<path stroke="currentColor" fill="none"
	d="M554.23 281.84v20M554.23 281.84h140.70v20"/>
<use x="25.33" y="331.84" xlink:href="#tclef"/>
<use x="49.83" y="307.84" xlink:href="#hd"/>
<circle fill="currentColor" cx="57.83" cy="304.84" r="1.2"/>
<path d="M46.33 307.84v20.00" stroke="currentColor" fill="none"/>
<use x="78.83" y="301.84" xlink:href="#hl"/>
<use x="78.83" y="301.84" xlink:href="#hd"/>
<path d="M75.33 301.84v20.00" stroke="currentColor" fill="none"/>
<path fill="currentColor"
	d="M75.33 321.84c0.6 -5.6 9.6 -9 5.6 -18.4
	c1.6 6 -1.3 11.6 -5.6 12.8
"/>
<use x="96.73" y="304.84" xlink:href="#hd"/>
<path d="M93.23 304.84v20.00" stroke="currentColor" fill="none"/>
<path fill="currentColor"
	d="M117.83 327.44l16.90 -2.30v-3.20l-16.90 2.30"/>
<use x="121.63" y="307.84" xlink:href="#hd"/>
<path d="M118.13 307.84v18.60" stroke="currentColor" fill="none"/>
<use x="137.83" y="304.84" xlink:href="#hd"/>
<path d="M134.33 304.84v19.40" stroke="currentColor" fill="none"/>
<use x="164.83" y="301.84" xlink:href="#hl"/>
<use x="164.83" y="301.84" xlink:href="#hd"/>
<circle fill="currentColor" cx="172.83" cy="298.84" r="1.2"/>
<path d="M161.33 301.84v20.00" stroke="currentColor" fill="none"/>
<path fill="currentColor"
	d="M190.03 332.14l65.50 6.90v-3.20l-65.50 -6.90"/>
<use x="193.83" y="304.84" xlink:href="#hd"/>
<path d="M190.33 304.84v26.40" stroke="currentColor" fill="none"/>
<use x="210.03" y="307.84" xlink:href="#hd"/>
<path d="M206.53 307.84v25.10" stroke="currentColor" fill="none"/>
<use x="226.23" y="313.84" xlink:href="#hd"/>
<path d="M222.73 313.84v20.80" stroke="currentColor" fill="none"/>
<use x="242.43" y="313.84" xlink:href="#hd"/>
<path d="M238.93 313.84v22.50" stroke="currentColor" fill="none"/>
<use x="258.63" y="319.84" xlink:href="#hd"/>
<path d="M255.13 319.84v18.20" stroke="currentColor" fill="none"/>
<path fill="currentColor"
	d="M281.83 342.14l16.90 -4.40v-3.20l-16.90 4.40"/>
<use x="285.73" y="322.84" xlink:href="#hd"/>
<path d="M282.23 322.84v18.20" stroke="currentColor" fill="none"/>
<use x="301.93" y="313.84" xlink:href="#hd"/>
<path d="M298.43 313.84v22.90" stroke="currentColor" fill="none"/>
<use x="319.83" y="313.84" xlink:href="#hd"/>
<path d="M316.33 313.84v20.00" stroke="currentColor" fill="none"/>
<path fill="currentColor"
	d="M340.83 336.84l49.30 5.20v-3.20l-49.30 -5.20"/>
<use x="344.73" y="307.84" xlink:href="#hd"/>
<path d="M341.23 307.84v28.10" stroke="currentColor" fill="none"/>
<use x="360.93" y="313.84" xlink:href="#hd"/>
<path d="M357.43 313.84v23.80" stroke="currentColor" fill="none"/>
<use x="377.13" y="304.84" xlink:href="#hd"/>
<path d="M373.63 304.84v34.50" stroke="currentColor" fill="none"/>
<use x="393.23" y="322.84" xlink:href="#hd"/>
<path d="M389.73 322.84v18.20" stroke="currentColor" fill="none"/>
<path fill="currentColor"
	d="M416.53 345.04l114.00 0.00v-3.20l-114.00 -0.00"/>
<use x="420.33" y="307.84" xlink:href="#hd"/>
<path d="M416.83 307.84v36.20" stroke="currentColor" fill="none"/>
<use x="436.53" y="313.84" xlink:href="#hd"/>
<path d="M433.03 313.84v30.20" stroke="currentColor" fill="none"/>
<use x="452.73" y="316.84" xlink:href="#hd"/>
<path d="M449.23 316.84v27.20" stroke="currentColor" fill="none"/>
<use x="468.93" y="322.84" xlink:href="#hd"/>
<path d="M465.43 322.84v21.20" stroke="currentColor" fill="none"/>
<use x="485.13" y="325.84" xlink:href="#hd"/>
<path d="M481.63 325.84v18.20" stroke="currentColor" fill="none"/>
<use x="501.33" y="322.84" xlink:href="#hd"/>
<path d="M497.83 322.84v21.20" stroke="currentColor" fill="none"/>
<use x="517.53" y="319.84" xlink:href="#hd"/>
<path d="M514.03 319.84v24.20" stroke="currentColor" fill="none"/>
<use x="533.73" y="316.84" xlink:href="#hd"/>
<path d="M530.23 316.84v27.20" stroke="currentColor" fill="none"/>
<path fill="currentColor"
	d="M562.83 342.04l114.00 0.00v-3.20l-114.00 -0.00"/>
<use x="566.73" y="307.84" xlink:href="#hd"/>
<path d="M563.23 307.84v33.20" stroke="currentColor" fill="none"/>
<use x="582.93" y="313.84" xlink:href="#hd"/>
<path d="M579.43 313.84v27.20" stroke="currentColor" fill="none"/>
<use x="599.13" y="310.84" xlink:href="#hd"/>
<path d="M595.63 310.84v30.20" stroke="currentColor" fill="none"/>
<use x="615.33" y="316.84" xlink:href="#hd"/>
<path d="M611.83 316.84v24.20" stroke="currentColor" fill="none"/>
<use x="631.53" y="322.84" xlink:href="#hd"/>
<path d="M628.03 322.84v18.20" stroke="currentColor" fill="none"/>
<use x="647.63" y="313.84" xlink:href="#hd"/>
<path d="M644.13 313.84v27.20" stroke="currentColor" fill="none"/>
<use x="663.83" y="313.84" xlink:href="#hd"/>
<path d="M660.33 313.84v27.20" stroke="currentColor" fill="none"/>
<use x="680.03" y="310.84" xlink:href="#hd"/>
<path d="M676.53 310.84v30.20" stroke="currentColor" fill="none"/>
<use x="49.83" y="301.84" xlink:href="#grm"/>
<use x="164.83" y="295.84" xlink:href="#grm"/>
<use x="319.83" y="305.84" xlink:href="#grm"/>
<use x="52.33" y="407.84" xlink:href="#rdots"/>
<path stroke="currentColor" fill="none"
	d="M48.33 407.84v-24.00"/>
<path stroke="currentColor" fill="none" stroke-width="3"
	d="M43.83 407.84v-24.00"/>
<path stroke="currentColor" fill="none"
	d="M194.53 407.84v-24.00"/>
<path stroke="currentColor" fill="none"
	d="M367.03 407.84v-24.00"/>
<path stroke="currentColor" fill="none"
	d="M547.03 407.84v-24.00"/>
<path stroke="currentColor" fill="none"
	d="M694.93 407.84v-24.00"/>
<path stroke="currentColor" fill="none"
	d="M13.33 407.84h681.60m-681.60 -6h681.60m-681.60 -6h681.60m-681.60 -6h681.60m-681.60 -6h681.60"/>
<path stroke="currentColor" fill="none"
	d="M500.13 361.84v-3l40.30 -0.00v3"/>
<rect x="513.23" y="352.84" width="14.00" height="12" fill="white"/>
<text font-family="serif" font-size="12" font-style="italic" font-weight="normal"
	x="520.23" y="362.84" text-anchor="middle">3</text>
<use x="25.33" y="407.84" xlink:href="#tclef"/>
<use x="65.83" y="383.84" xlink:href="#hd"/>
<circle fill="currentColor" cx="73.83" cy="380.84" r="1.2"/>
<path d="M62.33 383.84v20.00" stroke="currentColor" fill="none"/>
<use x="102.03" y="389.84" xlink:href="#hd"/>
<path d="M98.53 389.84v20.00" stroke="currentColor" fill="none"/>
<path fill="currentColor"
	d="M98.53 409.84c0.6 -5.6 9.6 -9 5.6 -18.4
	c1.6 6 -1.3 11.6 -5.6 12.8
"/>
<use x="124.53" y="386.84" xlink:href="#hd"/>
<path d="M121.03 386.84v20.00" stroke="currentColor" fill="none"/>
<path fill="currentColor"
	d="M152.33 404.14l20.90 2.40v-3.20l-20.90 -2.40"/>
<use x="156.23" y="383.84" xlink:href="#hd"/>
<path d="M152.73 383.84v19.30" stroke="currentColor" fill="none"/>
<use x="176.53" y="386.84" xlink:href="#hd"/>
<path d="M173.03 386.84v18.70" stroke="currentColor" fill="none"/>
<path fill="currentColor"
	d="M210.23 370.64l142.60 0.00v3.20l-142.60 -0.00"/>
<use x="207.03" y="389.84" xlink:href="#hd"/>
<path d="M210.53 389.84v-18.20" stroke="currentColor" fill="none"/>
<use x="227.33" y="395.84" xlink:href="#hd"/>
<path d="M230.83 395.84v-24.20" stroke="currentColor" fill="none"/>
<use x="247.63" y="398.84" xlink:href="#hd"/>
<path d="M251.13 398.84v-27.20" stroke="currentColor" fill="none"/>
<use x="267.83" y="404.84" xlink:href="#hd"/>
<path d="M271.33 404.84v-33.20" stroke="currentColor" fill="none"/>
<use x="288.13" y="410.84" xlink:href="#hd"/>
<path d="M291.63 410.84v-39.20" stroke="currentColor" fill="none"/>
<use x="308.43" y="407.84" xlink:href="#hd"/>
<path d="M311.93 407.84v-36.20" stroke="currentColor" fill="none"/>
<use x="328.63" y="404.84" xlink:href="#hd"/>
<path d="M332.13 404.84v-33.20" stroke="currentColor" fill="none"/>
<use x="348.93" y="398.84" xlink:href="#hd"/>
<path d="M352.43 398.84v-27.20" stroke="currentColor" fill="none"/>
<path fill="currentColor"
	d="M382.63 370.64l154.00 0.00v3.20l-154.00 -0.00"/>
<use x="379.53" y="389.84" xlink:href="#hd"/>
<path d="M383.03 389.84v-18.20" stroke="currentColor" fill="none"/>
<use x="399.73" y="398.84" xlink:href="#hd"/>
<path d="M403.23 398.84v-27.20" stroke="currentColor" fill="none"/>
<use x="420.03" y="395.84" xlink:href="#hd"/>
<path d="M423.53 395.84v-24.20" stroke="currentColor" fill="none"/>
<use x="440.33" y="398.84" xlink:href="#hd"/>
<path d="M443.83 398.84v-27.20" stroke="currentColor" fill="none"/>
<use x="460.53" y="401.84" xlink:href="#hd"/>
<path d="M464.03 401.84v-30.20" stroke="currentColor" fill="none"/>
<use x="480.83" y="407.84" xlink:href="#hd"/>
<path d="M484.33 407.84v-36.20" stroke="currentColor" fill="none"/>
<use x="501.13" y="404.84" xlink:href="#hd"/>
<path d="M504.63 404.84v-33.20" stroke="currentColor" fill="none"/>
<use x="517.03" y="407.84" xlink:href="#hd"/>
<path d="M520.53 407.84v-36.20" stroke="currentColor" fill="none"/>
<use x="532.83" y="410.84" xlink:href="#hd"/>
<path d="M536.33 410.84v-39.20" stroke="currentColor" fill="none"/>
<use x="559.53" y="398.84" xlink:href="#hd"/>
<circle fill="currentColor" cx="567.53" cy="398.84" r="1.2"/>
<path d="M563.03 398.84v-20.00" stroke="currentColor" fill="none"/>
<path fill="currentColor"
	d="M598.93 370.64l81.80 8.10v3.20l-81.80 -8.10"/>
<use x="595.83" y="389.84" xlink:href="#hd"/>
<path d="M599.33 389.84v-18.20" stroke="currentColor" fill="none"/>
<use x="616.03" y="395.84" xlink:href="#hd"/>
<path d="M619.53 395.84v-22.20" stroke="currentColor" fill="none"/>
<use x="636.33" y="401.84" xlink:href="#hd"/>
<path d="M639.83 401.84v-26.20" stroke="currentColor" fill="none"/>
<use x="656.63" y="401.84" xlink:href="#hd"/>
<path d="M660.13 401.84v-24.10" stroke="currentColor" fill="none"/>
<use x="676.83" y="407.84" xlink:href="#hd"/>
<path d="M680.33 407.84v-28.10" stroke="currentColor" fill="none"/>
<use x="65.83" y="377.84" xlink:href="#grm"/>
<use x="559.53" y="374.84" xlink:href="#grm"/>
<path stroke="currentColor" fill="none"
	d="M204.33 477.84v-24.00"/>
<path stroke="currentColor" fill="none"
	d="M360.43 477.84v-24.00"/>
<path stroke="currentColor" fill="none"
	d="M525.63 477.84v-24.00"/>
<path stroke="currentColor" fill="none"
	d="M694.93 477.84v-24.00"/>
<path stroke="currentColor" fill="none"
	d="M13.33 477.84h681.60m-681.60 -6h681.60m-681.60 -6h681.60m-681.60 -6h681.60m-681.60 -6h681.60"/>
<use x="25.33" y="477.84" xlink:href="#tclef"/>
<use x="49.83" y="468.84" xlink:href="#hd"/>
<path d="M53.33 468.84v-20.00" stroke="currentColor" fill="none"/>
<path fill="currentColor"
	d="M85.43 440.64l104.30 0.00v3.20l-104.30 -0.00"/>
<use x="82.23" y="459.84" xlink:href="#hd"/>
<path d="M85.73 459.84v-18.20" stroke="currentColor" fill="none"/>
<use x="103.03" y="468.84" xlink:href="#hd"/>
<path d="M106.53 468.84v-27.20" stroke="currentColor" fill="none"/>
<use x="123.73" y="465.84" xlink:href="#hd"/>
<path d="M127.23 465.84v-24.20" stroke="currentColor" fill="none"/>
<use x="144.43" y="468.84" xlink:href="#hd"/>
<path d="M147.93 468.84v-27.20" stroke="currentColor" fill="none"/>
<use x="165.13" y="474.84" xlink:href="#hd"/>
<path d="M168.63 474.84v-33.20" stroke="currentColor" fill="none"/>
<use x="185.93" y="468.84" xlink:href="#hd"/>
<path d="M189.43 468.84v-27.20" stroke="currentColor" fill="none"/>
<path fill="currentColor"
	d="M220.03 455.44l62.90 -5.80v3.20l-62.90 5.80"/>
<use x="216.83" y="480.84" xlink:href="#hd"/>
<path d="M220.33 480.84v-24.50" stroke="currentColor" fill="none"/>
<use x="237.63" y="477.84" xlink:href="#hd"/>
<path d="M241.13 477.84v-23.40" stroke="currentColor" fill="none"/>
<use x="258.33" y="474.84" xlink:href="#hd"/>
<path d="M261.83 474.84v-22.30" stroke="currentColor" fill="none"/>
<use x="279.03" y="468.84" xlink:href="#hd"/>
<path d="M282.53 468.84v-18.20" stroke="currentColor" fill="none"/>
<use x="302.03" y="471.84" xlink:href="#hd"/>
<path d="M305.53 471.84v-20.00" stroke="currentColor" fill="none"/>
<use x="334.43" y="471.84" xlink:href="#hd"/>
<path d="M337.93 471.84v-20.00" stroke="currentColor" fill="none"/>
<path fill="currentColor"
	d="M376.13 450.84l104.30 0.00v3.20l-104.30 -0.00"/>
<use x="372.93" y="468.84" xlink:href="#hd"/>
<path d="M376.43 468.84v-17.00" stroke="currentColor" fill="none"/>
<use x="393.73" y="474.84" xlink:href="#hd"/>
<path d="M397.23 474.84v-23.00" stroke="currentColor" fill="none"/>
<use x="414.43" y="480.84" xlink:href="#hd"/>
<path d="M417.93 480.84v-29.00" stroke="currentColor" fill="none"/>
<use x="435.13" y="474.84" xlink:href="#hd"/>
<path d="M438.63 474.84v-23.00" stroke="currentColor" fill="none"/>
<use x="455.93" y="468.84" xlink:href="#hd"/>
<path d="M459.43 468.84v-17.00" stroke="currentColor" fill="none"/>
<use x="476.63" y="474.84" xlink:href="#hd"/>
<path d="M480.13 474.84v-23.00" stroke="currentColor" fill="none"/>
<use x="499.63" y="474.84" xlink:href="#hd"/>
<path d="M503.13 474.84v-20.00" stroke="currentColor" fill="none"/>
<path fill="currentColor"
	d="M541.33 459.64l62.90 -7.10v3.20l-62.90 7.10"/>
<use x="538.13" y="480.84" xlink:href="#hd"/>
<path d="M541.63 480.84v-20.20" stroke="currentColor" fill="none"/>
<use x="558.83" y="477.84" xlink:href="#hd"/>
<path d="M562.33 477.84v-19.50" stroke="currentColor" fill="none"/>
<use x="579.53" y="474.84" xlink:href="#hd"/>
<path d="M583.03 474.84v-18.90" stroke="currentColor" fill="none"/>
<use x="600.33" y="471.84" xlink:href="#hd"/>
<path d="M603.83 471.84v-18.20" stroke="currentColor" fill="none"/>
<use x="623.33" y="468.84" xlink:href="#hd"/>
<path d="M626.83 468.84v-20.00" stroke="currentColor" fill="none"/>
<path fill="currentColor"
	d="M658.93 447.54l21.40 -3.90v3.20l-21.40 3.90"/>
<use x="655.73" y="468.84" xlink:href="#hd"/>
<path d="M659.23 468.84v-20.40" stroke="currentColor" fill="none"/>
<use x="676.43" y="462.84" xlink:href="#hd"/>
<path d="M679.93 462.84v-18.20" stroke="currentColor" fill="none"/>
<use x="334.43" y="447.84" xlink:href="#grm"/>
<use x="499.63" y="450.84" xlink:href="#grm"/>
<path stroke="currentColor" fill="none"
	d="M171.93 553.84v-24.00"/>
<path stroke="currentColor" fill="none"
	d="M300.93 553.84v-24.00"/>
<path stroke="currentColor" fill="none"
	d="M435.53 553.84v-24.00"/>
<path stroke="currentColor" fill="none" stroke-width="3"
	d="M575.23 553.84v-24.00"/>
<path stroke="currentColor" fill="none"
	d="M570.73 553.84v-24.00"/>
<use x="566.73" y="553.84" xlink:href="#rdots"/>
<path stroke="currentColor" fill="none"
	d="M694.93 553.84v-24.00"/>
<path stroke="currentColor" fill="none"
	d="M691.93 553.84v-24.00"/>
<path stroke="currentColor" fill="none"
	d="M13.33 553.84h681.60m-681.60 -6h681.60m-681.60 -6h681.60m-681.60 -6h681.60m-681.60 -6h681.60"/>
<text x="439.53" y="514.24">1</text>
<path stroke="currentColor" fill="none"
	d="M435.53 502.84v20M435.53 502.84h133.20v20"/>
<text x="580.73" y="514.24">2</text>
<path stroke="currentColor" fill="none"
	d="M576.73 502.84v20M576.73 502.84h118.20v20"/>
<use x="25.33" y="553.84" xlink:href="#tclef"/>
<path fill="currentColor"
	d="M53.03 516.64l108.90 0.00v3.20l-108.90 -0.00"/>
<use x="49.83" y="535.84" xlink:href="#hd"/>
<path d="M53.33 535.84v-18.20" stroke="currentColor" fill="none"/>
<use x="65.33" y="544.84" xlink:href="#hd"/>
<path d="M68.83 544.84v-27.20" stroke="currentColor" fill="none"/>
<use x="80.73" y="541.84" xlink:href="#hd"/>
<path d="M84.23 541.84v-24.20" stroke="currentColor" fill="none"/>
<use x="96.23" y="544.84" xlink:href="#hd"/>
<path d="M99.73 544.84v-27.20" stroke="currentColor" fill="none"/>
<use x="111.63" y="535.84" xlink:href="#hd"/>
<path d="M115.13 535.84v-18.20" stroke="currentColor" fill="none"/>
<use x="127.13" y="538.84" xlink:href="#hd"/>
<path d="M130.63 538.84v-21.20" stroke="currentColor" fill="none"/>
<use x="142.53" y="544.84" xlink:href="#hd"/>
<path d="M146.03 544.84v-27.20" stroke="currentColor" fill="none"/>
<use x="158.03" y="550.84" xlink:href="#hd"/>
<path d="M161.53 550.84v-33.20" stroke="currentColor" fill="none"/>
<path fill="currentColor"
	d="M187.63 528.54l16.10 3.50v3.20l-16.10 -3.50"/>
<use x="184.43" y="547.84" xlink:href="#hd"/>
<path d="M187.93 547.84v-18.20" stroke="currentColor" fill="none"/>
<use x="199.93" y="553.84" xlink:href="#hd"/>
<path d="M203.43 553.84v-20.80" stroke="currentColor" fill="none"/>
<use x="216.93" y="553.84" xlink:href="#hd"/>
<path d="M220.43 553.84v-20.00" stroke="currentColor" fill="none"/>
<path fill="currentColor"
	d="M243.73 529.64l47.10 0.00v3.20l-47.10 -0.00"/>
<use x="240.63" y="547.84" xlink:href="#hd"/>
<path d="M244.13 547.84v-17.20" stroke="currentColor" fill="none"/>
<use x="256.03" y="553.84" xlink:href="#hd"/>
<path d="M259.53 553.84v-23.20" stroke="currentColor" fill="none"/>
<use x="271.53" y="556.84" xlink:href="#hd"/>
<path d="M275.03 556.84v-26.20" stroke="currentColor" fill="none"/>
<use x="287.03" y="553.84" xlink:href="#hd"/>
<path d="M290.53 553.84v-23.20" stroke="currentColor" fill="none"/>
<path fill="currentColor"
	d="M316.53 522.64l108.90 0.00v3.20l-108.90 -0.00"/>
<use x="313.43" y="550.84" xlink:href="#hd"/>
<path d="M316.93 550.84v-27.20" stroke="currentColor" fill="none"/>
<use x="328.83" y="556.84" xlink:href="#hd"/>
<path d="M332.33 556.84v-33.20" stroke="currentColor" fill="none"/>
<use x="344.33" y="544.84" xlink:href="#hd"/>
<path d="M347.83 544.84v-21.20" stroke="currentColor" fill="none"/>
<use x="359.73" y="541.84" xlink:href="#hd"/>
<path d="M363.23 541.84v-18.20" stroke="currentColor" fill="none"/>
<use x="375.23" y="544.84" xlink:href="#hd"/>
<path d="M378.73 544.84v-21.20" stroke="currentColor" fill="none"/>
<use x="390.73" y="541.84" xlink:href="#hd"/>
<path d="M394.23 541.84v-18.20" stroke="currentColor" fill="none"/>
<use x="406.13" y="544.84" xlink:href="#hd"/>
<path d="M409.63 544.84v-21.20" stroke="currentColor" fill="none"/>
<use x="421.63" y="547.84" xlink:href="#hd"/>
<path d="M425.13 547.84v-24.20" stroke="currentColor" fill="none"/>
<path fill="currentColor"
	d="M451.23 522.24l108.90 -8.60v3.20l-108.90 8.60"/>
<use x="448.03" y="553.84" xlink:href="#hd"/>
<path d="M451.53 553.84v-30.60" stroke="currentColor" fill="none"/>
<use x="463.53" y="544.84" xlink:href="#hd"/>
<path d="M467.03 544.84v-22.80" stroke="currentColor" fill="none"/>
<use x="478.93" y="544.84" xlink:href="#hd"/>
<path d="M482.43 544.84v-24.10" stroke="currentColor" fill="none"/>
<use x="494.43" y="547.84" xlink:href="#hd"/>
<path d="M497.93 547.84v-28.30" stroke="currentColor" fill="none"/>
<use x="509.83" y="544.84" xlink:href="#hd"/>
<path d="M513.33 544.84v-26.50" stroke="currentColor" fill="none"/>
<use x="525.33" y="541.84" xlink:href="#hd"/>
<path d="M528.83 541.84v-24.70" stroke="currentColor" fill="none"/>
<use x="540.73" y="535.84" xlink:href="#hd"/>
<path d="M544.23 535.84v-20.00" stroke="currentColor" fill="none"/>
<use x="556.23" y="532.84" xlink:href="#hd"/>
<path d="M559.73 532.84v-18.20" stroke="currentColor" fill="none"/>
<path fill="currentColor"
	d="M592.43 529.64l47.10 0.00v3.20l-47.10 -0.00"/>
<use x="589.23" y="553.84" xlink:href="#hd"/>
<path d="M592.73 553.84v-23.20" stroke="currentColor" fill="none"/>
<use x="604.73" y="547.84" xlink:href="#hd"/>
<path d="M608.23 547.84v-17.20" stroke="currentColor" fill="none"/>
<use x="620.13" y="550.84" xlink:href="#hd"/>
<path d="M623.63 550.84v-20.20" stroke="currentColor" fill="none"/>
<use x="635.63" y="553.84" xlink:href="#hd"/>
<path d="M639.13 553.84v-23.20" stroke="currentColor" fill="none"/>
<use x="652.63" y="556.84" xlink:href="#hd"/>
<circle fill="currentColor" cx="660.63" cy="556.84" r="1.2"/>
<path d="M656.13 556.84v-20.00" stroke="currentColor" fill="none"/>
<use x="680.63" y="532.84" xlink:href="#hd"/>
<path d="M677.13 532.84v20.00" stroke="currentColor" fill="none"/>
<path fill="currentColor"
	d="M677.13 552.84c0.6 -5.6 9.6 -9 5.6 -18.4
	c1.6 6 -1.3 11.6 -5.6 12.8
"/>
<use x="216.93" y="527.84" xlink:href="#grm"/>
<use x="52.33" y="627.84" xlink:href="#rdots"/>
<path stroke="currentColor" fill="none"
	d="M48.33 627.84v-24.00"/>
<path stroke="currentColor" fill="none" stroke-width="3"
	d="M43.83 627.84v-24.00"/>
<path stroke="currentColor" fill="none"
	d="M198.03 627.84v-24.00"/>
<path stroke="currentColor" fill="none"
	d="M361.43 627.84v-24.00"/>
<path stroke="currentColor" fill="none"
	d="M531.63 627.84v-24.00"/>
<path stroke="currentColor" fill="none"
	d="M694.93 627.84v-24.00"/>
<path stroke="currentColor" fill="none"
	d="M13.33 627.84h681.60m-681.60 -6h681.60m-681.60 -6h681.60m-681.60 -6h681.60m-681.60 -6h681.60"/>
<path stroke="currentColor" fill="none"
	d="M369.93 583.24v-3l38.10 6.00v3"/>
<rect x="381.93" y="577.24" width="14.00" height="12" fill="white"/>
<text font-family="serif" font-size="12" font-style="italic" font-weight="normal"
	x="388.93" y="587.24" text-anchor="middle">3</text>
<use x="25.33" y="627.84" xlink:href="#tclef"/>
<path fill="currentColor"
	d="M62.03 633.34l19.80 4.80v-3.20l-19.80 -4.80"/>
<use x="65.83" y="609.84" xlink:href="#hd"/>
<path d="M62.33 609.84v22.60" stroke="currentColor" fill="none"/>
<use x="84.93" y="618.84" xlink:href="#hd"/>
<path d="M81.43 618.84v18.20" stroke="currentColor" fill="none"/>
<use x="104.03" y="618.84" xlink:href="#hd"/>
<path d="M107.53 618.84v-20.00" stroke="currentColor" fill="none"/>
<path fill="currentColor"
	d="M137.03 599.54l19.80 3.80v3.20l-19.80 -3.80"/>
<use x="133.83" y="618.84" xlink:href="#hd"/>
<path d="M137.33 618.84v-18.20" stroke="currentColor" fill="none"/>
<use x="152.93" y="624.84" xlink:href="#hd"/>
<path d="M156.43 624.84v-20.50" stroke="currentColor" fill="none"/>
<use x="174.13" y="624.84" xlink:href="#hd"/>
<path d="M177.63 624.84v-20.00" stroke="currentColor" fill="none"/>
<path fill="currentColor"
	d="M206.73 638.04l134.50 -9.60v-3.20l-134.50 9.60"/>
<use x="210.53" y="618.84" xlink:href="#hd"/>
<path d="M207.03 618.84v18.20" stroke="currentColor" fill="none"/>
<use x="229.63" y="609.84" xlink:href="#hd"/>
<path d="M226.13 609.84v25.80" stroke="currentColor" fill="none"/>
<use x="248.73" y="612.84" xlink:href="#hd"/>
<path d="M245.23 612.84v21.50" stroke="currentColor" fill="none"/>
<use x="267.93" y="609.84" xlink:href="#hd"/>
<path d="M264.43 609.84v23.10" stroke="currentColor" fill="none"/>
<use x="287.03" y="606.84" xlink:href="#hd"/>
<path d="M283.53 606.84v24.80" stroke="currentColor" fill="none"/>
<use x="306.13" y="603.84" xlink:href="#hd"/>
<path d="M302.63 603.84v26.40" stroke="currentColor" fill="none"/>
<use x="325.23" y="600.84" xlink:href="#hd"/>
<path d="M321.73 600.84v28.00" stroke="currentColor" fill="none"/>
<use x="344.33" y="597.84" xlink:href="#hl"/>
<use x="344.33" y="597.84" xlink:href="#hd"/>
<path d="M340.83 597.84v29.70" stroke="currentColor" fill="none"/>
<path fill="currentColor"
	d="M370.03 628.04l141.30 0.00v-3.20l-141.30 -0.00"/>
<use x="373.93" y="597.84" xlink:href="#hl"/>
<use x="373.93" y="594.84" xlink:href="#hd"/>
<path d="M370.43 594.84v32.20" stroke="currentColor" fill="none"/>
<use x="388.93" y="597.84" xlink:href="#hl"/>
<use x="388.93" y="597.84" xlink:href="#hd"/>
<path d="M385.43 597.84v29.20" stroke="currentColor" fill="none"/>
<use x="403.93" y="600.84" xlink:href="#hd"/>
<path d="M400.43 600.84v26.20" stroke="currentColor" fill="none"/>
<use x="418.93" y="597.84" xlink:href="#hl"/>
<use x="418.93" y="597.84" xlink:href="#hd"/>
<path d="M415.43 597.84v29.20" stroke="currentColor" fill="none"/>
<use x="438.13" y="603.84" xlink:href="#hd"/>
<path d="M434.63 603.84v23.20" stroke="currentColor" fill="none"/>
<use x="457.23" y="600.84" xlink:href="#hd"/>
<path d="M453.73 600.84v26.20" stroke="currentColor" fill="none"/>
<use x="476.33" y="603.84" xlink:href="#hd"/>
<path d="M472.83 603.84v23.20" stroke="currentColor" fill="none"/>
<use x="495.43" y="606.84" xlink:href="#hd"/>
<path d="M491.93 606.84v20.20" stroke="currentColor" fill="none"/>
<use x="514.53" y="609.84" xlink:href="#hd"/>
<path d="M511.03 609.84v17.20" stroke="currentColor" fill="none"/>
<path fill="currentColor"
	d="M540.23 638.04l134.50 0.00v-3.20l-134.50 -0.00"/>
<use x="544.13" y="618.84" xlink:href="#hd"/>
<path d="M540.63 618.84v18.20" stroke="currentColor" fill="none"/>
<use x="563.23" y="615.84" xlink:href="#hd"/>
<path d="M559.73 615.84v21.20" stroke="currentColor" fill="none"/>
<use x="582.33" y="609.84" xlink:href="#hd"/>
<path d="M578.83 609.84v27.20" stroke="currentColor" fill="none"/>
<use x="601.43" y="606.84" xlink:href="#hd"/>
<path d="M597.93 606.84v30.20" stroke="currentColor" fill="none"/>
<use x="620.53" y="603.84" xlink:href="#hd"/>
<path d="M617.03 603.84v33.20" stroke="currentColor" fill="none"/>
<use x="639.63" y="609.84" xlink:href="#hd"/>
<path d="M636.13 609.84v27.20" stroke="currentColor" fill="none"/>
<use x="658.73" y="606.84" xlink:href="#hd"/>
<path d="M655.23 606.84v30.20" stroke="currentColor" fill="none"/>
<use x="677.83" y="609.84" xlink:href="#hd"/>
<path d="M674.33 609.84v27.20" stroke="currentColor" fill="none"/>
<use x="104.03" y="594.84" xlink:href="#grm"/>
<use x="174.13" y="600.84" xlink:href="#grm"/>
<path stroke="currentColor" fill="none"
	d="M163.13 702.84v-24.00"/>
<path stroke="currentColor" fill="none"
	d="M296.73 702.84v-24.00"/>
<path stroke="currentColor" fill="none"
	d="M423.53 702.84v-24.00"/>
<path stroke="currentColor" fill="none" stroke-width="3"
	d="M556.73 702.84v-24.00"/>
<path stroke="currentColor" fill="none"
	d="M552.23 702.84v-24.00"/>
<use x="548.23" y="702.84" xlink:href="#rdots"/>
<path stroke="currentColor" fill="none"
	d="M694.93 702.84v-24.00"/>
<path stroke="currentColor" fill="none"
	d="M691.93 702.84v-24.00"/>
<path stroke="currentColor" fill="none"
	d="M13.33 702.84h681.60m-681.60 -6h681.60m-681.60 -6h681.60m-681.60 -6h681.60m-681.60 -6h681.60"/>
<text x="427.53" y="664.24">1</text>
<path stroke="currentColor" fill="none"
	d="M423.53 652.84v20M423.53 652.84h126.70v20"/>
<text x="562.23" y="664.24">2</text>
<path stroke="currentColor" fill="none"
	d="M558.23 652.84v20M558.23 652.84h136.70v20"/>
<use x="25.33" y="702.84" xlink:href="#tclef"/>
<path fill="currentColor"
	d="M46.03 713.04l46.70 0.00v-3.20l-46.70 -0.00"/>
<use x="49.83" y="684.84" xlink:href="#hd"/>
<path d="M46.33 684.84v27.20" stroke="currentColor" fill="none"/>
<use x="65.13" y="690.84" xlink:href="#hd"/>
<path d="M61.63 690.84v21.20" stroke="currentColor" fill="none"/>
<use x="80.53" y="693.84" xlink:href="#hd"/>
<path d="M77.03 693.84v18.20" stroke="currentColor" fill="none"/>
<use x="95.83" y="690.84" xlink:href="#hd"/>
<path d="M92.33 690.84v21.20" stroke="currentColor" fill="none"/>
<use x="112.73" y="687.84" xlink:href="#hd"/>
<path d="M109.23 687.84v20.00" stroke="currentColor" fill="none"/>
<path fill="currentColor"
	d="M137.13 671.24l16.00 2.30v3.20l-16.00 -2.30"/>
<use x="133.93" y="690.84" xlink:href="#hd"/>
<path d="M137.43 690.84v-18.60" stroke="currentColor" fill="none"/>
<use x="149.23" y="693.84" xlink:href="#hd"/>
<path d="M152.73 693.84v-19.40" stroke="currentColor" fill="none"/>
<path fill="currentColor"
	d="M178.73 665.64l108.00 0.00v3.20l-108.00 -0.00"/>
<use x="175.63" y="699.84" xlink:href="#hd"/>
<path d="M179.13 699.84v-33.20" stroke="currentColor" fill="none"/>
<use x="190.93" y="693.84" xlink:href="#hd"/>
<path d="M194.43 693.84v-27.20" stroke="currentColor" fill="none"/>
<use x="206.23" y="684.84" xlink:href="#hd"/>
<path d="M209.73 684.84v-18.20" stroke="currentColor" fill="none"/>
<use x="221.63" y="693.84" xlink:href="#hd"/>
<path d="M225.13 693.84v-27.20" stroke="currentColor" fill="none"/>
<use x="236.93" y="699.84" xlink:href="#hd"/>
<path d="M240.43 699.84v-33.20" stroke="currentColor" fill="none"/>
<use x="252.33" y="702.84" xlink:href="#hd"/>
<path d="M255.83 702.84v-36.20" stroke="currentColor" fill="none"/>
<use x="267.63" y="705.84" xlink:href="#hd"/>
<path d="M271.13 705.84v-39.20" stroke="currentColor" fill="none"/>
<use x="282.93" y="699.84" xlink:href="#hd"/>
<path d="M286.43 699.84v-33.20" stroke="currentColor" fill="none"/>
<use x="309.23" y="693.84" xlink:href="#hd"/>
<path d="M312.73 693.84v-20.00" stroke="currentColor" fill="none"/>
<path fill="currentColor"
	d="M329.23 716.44l77.40 -8.50v-3.20l-77.40 8.50"/>
<use x="333.03" y="693.84" xlink:href="#hd"/>
<path d="M329.53 693.84v21.60" stroke="currentColor" fill="none"/>
<use x="348.33" y="690.84" xlink:href="#hd"/>
<path d="M344.83 690.84v22.90" stroke="currentColor" fill="none"/>
<use x="363.73" y="693.84" xlink:href="#hd"/>
<path d="M360.23 693.84v18.20" stroke="currentColor" fill="none"/>
<use x="379.03" y="684.84" xlink:href="#hd"/>
<path d="M375.53 684.84v25.50" stroke="currentColor" fill="none"/>
<use x="394.33" y="681.84" xlink:href="#hd"/>
<path d="M390.83 681.84v26.80" stroke="currentColor" fill="none"/>
<use x="409.73" y="675.84" xlink:href="#hd"/>
<path d="M406.23 675.84v31.10" stroke="currentColor" fill="none"/>
<path fill="currentColor"
	d="M432.23 702.24l46.70 4.80v-3.20l-46.70 -4.80"/>
<use x="436.03" y="678.84" xlink:href="#hd"/>
<path d="M432.53 678.84v22.50" stroke="currentColor" fill="none"/>
<use x="451.33" y="675.84" xlink:href="#hd"/>
<path d="M447.83 675.84v27.10" stroke="currentColor" fill="none"/>
<use x="466.73" y="681.84" xlink:href="#hd"/>
<path d="M463.23 681.84v22.60" stroke="currentColor" fill="none"/>
<use x="482.03" y="687.84" xlink:href="#hd"/>
<path d="M478.53 687.84v18.20" stroke="currentColor" fill="none"/>
<use x="498.93" y="684.84" xlink:href="#hd"/>
<path d="M495.43 684.84v20.00" stroke="currentColor" fill="none"/>
<path fill="currentColor"
	d="M518.53 708.24l16.00 2.30v-3.20l-16.00 -2.30"/>
<use x="522.33" y="687.84" xlink:href="#hd"/>
<path d="M518.83 687.84v19.40" stroke="currentColor" fill="none"/>
<use x="537.73" y="690.84" xlink:href="#hd"/>
<path d="M534.23 690.84v18.60" stroke="currentColor" fill="none"/>
<path fill="currentColor"
	d="M566.83 710.04l110.70 0.00v-3.20l-110.70 -0.00"/>
<use x="570.73" y="678.84" xlink:href="#hd"/>
<path d="M567.23 678.84v30.20" stroke="currentColor" fill="none"/>
<use x="586.03" y="684.84" xlink:href="#hd"/>
<path d="M582.53 684.84v24.20" stroke="currentColor" fill="none"/>
<use x="601.33" y="681.84" xlink:href="#hd"/>
<path d="M597.83 681.84v27.20" stroke="currentColor" fill="none"/>
<use x="619.33" y="687.84" xlink:href="#hd"/>
<defs>
<path id="usharp" fill="currentColor" d="
	m136 -702
	v890
	h32
	v-890
	m128 840
	h32
	v-888
	h-32
	m-232 286
	v116
	l338 -96
	v-116
	m-338 442
	v116
	l338 -98
	v-114"/>
<use id="sh0" transform="translate(-4,5) scale(0.018)"
	xlink:href="#usharp"/>
</defs>
<use x="610.33" y="687.84" xlink:href="#sh0"/>
<path d="M615.83 687.84v21.20" stroke="currentColor" fill="none"/>
<use x="634.73" y="684.84" xlink:href="#hd"/>
<path d="M631.23 684.84v24.20" stroke="currentColor" fill="none"/>
<use x="650.03" y="687.84" xlink:href="#hd"/>
<path d="M646.53 687.84v21.20" stroke="currentColor" fill="none"/>
<use x="665.43" y="690.84" xlink:href="#hd"/>
<path d="M661.93 690.84v18.20" stroke="currentColor" fill="none"/>
<use x="680.73" y="687.84" xlink:href="#hd"/>
<path d="M677.23 687.84v21.20" stroke="currentColor" fill="none"/>
<use x="309.23" y="669.84" xlink:href="#grm"/>
</g>
</svg>
