<?xml version="1.0" standalone="no"?>
<!DOCTYPE svg PUBLIC "-//W3C//DTD SVG 1.1//EN"
	"http://www.w3.org/Graphics/SVG/1.1/DTD/svg11.dtd">
<svg xmlns="http://www.w3.org/2000/svg" version="1.1"
	xmlns:xlink="http://www.w3.org/1999/xlink"
	xml:space='preserve' color="black"
	width="7.38in" height="2.24in" viewBox="0 0 531 161">
<title>data/results/biggest_11/abc/116.abc (116) tune 1</title>
<!-- Creator: abcm2ps-7.8.14 -->
<!-- CreationDate: Aug  9, 2015 23:50 -->
<!-- CommandLine: -g data/results/biggest_11/abc/116.abc -O /home/allanino/Dropbox/Trabalhos/folkme/svg/116.svg -->
<g transform="scale(0.750)" stroke-width="0.70" font-family="Times" font-size="20.00">
<text x="354.13" y="21.67" text-anchor="middle">Walzer D 10-</text>
<defs>
<g id="rdots" fill="currentColor">
	<circle cx="0" cy="-9" r="1.2"/>
	<circle cx="0" cy="-15" r="1.2"/>
</g>
</defs>
<use x="108.83" y="111.01" xlink:href="#rdots"/>
<path stroke="currentColor" fill="none"
	d="M104.83 111.01v-24.00"/>
<path stroke="currentColor" fill="none" stroke-width="3"
	d="M100.33 111.01v-24.00"/>
<path stroke="currentColor" fill="none"
	d="M210.93 111.01v-24.00"/>
<path stroke="currentColor" fill="none"
	d="M305.13 111.01v-24.00"/>
<path stroke="currentColor" fill="none"
	d="M406.33 111.01v-24.00"/>
<path stroke="currentColor" fill="none"
	d="M500.03 111.01v-24.00"/>
<path stroke="currentColor" fill="none"
	d="M593.83 111.01v-24.00"/>
<path stroke="currentColor" fill="none"
	d="M694.93 111.01v-24.00"/>
<path stroke="currentColor" fill="none"
	d="M13.33 111.01h681.60m-681.60 -6h681.60m-681.60 -6h681.60m-681.60 -6h681.60m-681.60 -6h681.60"/>
</g>
<g transform="scale(0.750)" stroke-width="0.70" font-family="Helvetica" font-size="12.00">
<text x="119.43" y="62.61">F</text>
<text x="217.33" y="62.61">C7</text>
<text x="415.83" y="62.61">F</text>
<text x="559.03" y="62.61">C7</text>
<text x="603.33" y="62.61">F</text>
<defs>
<path id="utclef" fill="currentColor" d="m-50 -90
	c-72 -41 -72 -158 52 -188
	c150 -10 220 188 90 256
	c-114 52 -275 0 -293 -136
	c-15 -181 93 -229 220 -334
	c88 -87 79 -133 62 -210
	c-51 33 -94 105 -89 186
	c17 267 36 374 49 574
	c6 96 -19 134 -77 135
	c-80 1 -126 -93 -61 -133
	c85 -41 133 101 31 105
	c23 17 92 37 90 -92
	c-10 -223 -39 -342 -50 -617
	c0 -90 0 -162 96 -232
	c56 72 63 230 22 289
	c-74 106 -257 168 -255 316
	c9 153 148 185 252 133
	c86 -65 29 -192 -80 -176
	c-71 12 -105 67 -59 124"/>
<use id="tclef" transform="scale(0.045)"
	xlink:href="#utclef"/>
</defs>
<use x="25.33" y="111.01" xlink:href="#tclef"/>
<defs>
<path id="uflat" fill="currentColor" d="
	m100 -746
	h32
	v734
	l-32 4
	m32 -332
	c46 -72 152 -90 208 -20
	c100 110 -120 326 -208 348
	m0 -28
	c54 0 200 -206 130 -290
	c-50 -60 -130 -4 -130 34"/>
<use id="ft0" transform="translate(-3.5,3.5) scale(0.018)"
	xlink:href="#uflat"/>
</defs>
<use x="40.33" y="99.01" xlink:href="#ft0"/>
<g font-family="serif" font-size="16" font-weight="bold" font-style="normal"
	transform="translate(56.33,111.01) scale(1.2,1)">
	<text y="-1" text-anchor="middle">4</text>
	<text y="-13" text-anchor="middle">3</text>
</g>
<path fill="currentColor"
	d="M77.53 81.61l15.70 -2.20v3.20l-15.70 2.20"/>
<defs>
<ellipse id="hd" rx="4.1" ry="2.9"
	transform="rotate(-20)" fill="currentColor"/>
</defs>
<use x="74.33" y="102.01" xlink:href="#hd"/>
<path d="M77.83 102.01v-19.40" stroke="currentColor" fill="none"/>
<use x="89.33" y="99.01" xlink:href="#hd"/>
<path d="M92.83 99.01v-18.60" stroke="currentColor" fill="none"/>
<path fill="currentColor"
	d="M125.53 72.31l75.70 7.20v3.20l-75.70 -7.20"/>
<use x="122.33" y="96.01" xlink:href="#hd"/>
<path d="M125.83 96.01v-22.60" stroke="currentColor" fill="none"/>
<use x="137.33" y="93.01" xlink:href="#hd"/>
<path d="M140.83 93.01v-18.20" stroke="currentColor" fill="none"/>
<use x="152.33" y="96.01" xlink:href="#hd"/>
<path d="M155.83 96.01v-19.80" stroke="currentColor" fill="none"/>
<use x="167.33" y="102.01" xlink:href="#hd"/>
<path d="M170.83 102.01v-24.40" stroke="currentColor" fill="none"/>
<use x="182.33" y="105.01" xlink:href="#hd"/>
<path d="M185.83 105.01v-25.90" stroke="currentColor" fill="none"/>
<use x="197.33" y="108.01" xlink:href="#hd"/>
<path d="M200.83 108.01v-27.50" stroke="currentColor" fill="none"/>
<use x="223.43" y="111.01" xlink:href="#hd"/>
<path d="M226.93 111.01v-20.00" stroke="currentColor" fill="none"/>
<path fill="currentColor"
	d="M242.73 117.21l45.70 0.00v-3.20l-45.70 -0.00"/>
<use x="246.53" y="96.01" xlink:href="#hd"/>
<path d="M243.03 96.01v20.20" stroke="currentColor" fill="none"/>
<use x="261.53" y="96.01" xlink:href="#hd"/>
<path d="M258.03 96.01v20.20" stroke="currentColor" fill="none"/>
<use x="276.53" y="96.01" xlink:href="#hd"/>
<path d="M273.03 96.01v20.20" stroke="currentColor" fill="none"/>
<use x="291.53" y="96.01" xlink:href="#hd"/>
<path d="M288.03 96.01v20.20" stroke="currentColor" fill="none"/>
<path fill="currentColor"
	d="M320.83 72.31l75.70 7.20v3.20l-75.70 -7.20"/>
<use x="317.63" y="96.01" xlink:href="#hd"/>
<path d="M321.13 96.01v-22.60" stroke="currentColor" fill="none"/>
<use x="332.63" y="93.01" xlink:href="#hd"/>
<path d="M336.13 93.01v-18.20" stroke="currentColor" fill="none"/>
<use x="347.73" y="96.01" xlink:href="#hd"/>
<path d="M351.23 96.01v-19.80" stroke="currentColor" fill="none"/>
<use x="362.73" y="99.01" xlink:href="#hd"/>
<path d="M366.23 99.01v-21.40" stroke="currentColor" fill="none"/>
<use x="377.73" y="111.01" xlink:href="#hd"/>
<path d="M381.23 111.01v-31.90" stroke="currentColor" fill="none"/>
<use x="392.73" y="105.01" xlink:href="#hd"/>
<path d="M396.23 105.01v-24.50" stroke="currentColor" fill="none"/>
<use x="418.83" y="108.01" xlink:href="#hd"/>
<path d="M422.33 108.01v-20.00" stroke="currentColor" fill="none"/>
<path fill="currentColor"
	d="M444.63 84.91l45.70 -8.10v3.20l-45.70 8.10"/>
<defs>
<path id="hl" stroke="currentColor" d="m-6 0h12"/>
</defs>
<use x="441.43" y="117.01" xlink:href="#hl"/>
<use x="441.43" y="117.01" xlink:href="#hd"/>
<path d="M444.93 117.01v-31.20" stroke="currentColor" fill="none"/>
<use x="456.43" y="108.01" xlink:href="#hd"/>
<path d="M459.93 108.01v-24.90" stroke="currentColor" fill="none"/>
<use x="471.43" y="102.01" xlink:href="#hd"/>
<path d="M474.93 102.01v-21.50" stroke="currentColor" fill="none"/>
<use x="486.43" y="96.01" xlink:href="#hd"/>
<path d="M489.93 96.01v-18.20" stroke="currentColor" fill="none"/>
<use x="512.53" y="108.01" xlink:href="#hd"/>
<path d="M516.03 108.01v-20.00" stroke="currentColor" fill="none"/>
<path fill="currentColor"
	d="M538.33 76.81l45.70 0.00v3.20l-45.70 -0.00"/>
<use x="535.13" y="102.01" xlink:href="#hd"/>
<path d="M538.63 102.01v-24.20" stroke="currentColor" fill="none"/>
<use x="550.13" y="96.01" xlink:href="#hd"/>
<path d="M553.63 96.01v-18.20" stroke="currentColor" fill="none"/>
<use x="565.13" y="99.01" xlink:href="#hd"/>
<path d="M568.63 99.01v-21.20" stroke="currentColor" fill="none"/>
<use x="580.23" y="102.01" xlink:href="#hd"/>
<path d="M583.73 102.01v-24.20" stroke="currentColor" fill="none"/>
<path fill="currentColor"
	d="M609.43 75.41l75.70 6.80v3.20l-75.70 -6.80"/>
<use x="606.33" y="108.01" xlink:href="#hd"/>
<path d="M609.83 108.01v-31.50" stroke="currentColor" fill="none"/>
<use x="621.33" y="96.01" xlink:href="#hd"/>
<path d="M624.83 96.01v-18.20" stroke="currentColor" fill="none"/>
<use x="636.33" y="102.01" xlink:href="#hd"/>
<path d="M639.83 102.01v-22.90" stroke="currentColor" fill="none"/>
<use x="651.33" y="117.01" xlink:href="#hl"/>
<use x="651.33" y="117.01" xlink:href="#hd"/>
<path d="M654.83 117.01v-36.50" stroke="currentColor" fill="none"/>
<use x="666.33" y="108.01" xlink:href="#hd"/>
<path d="M669.83 108.01v-26.20" stroke="currentColor" fill="none"/>
<use x="681.33" y="117.01" xlink:href="#hl"/>
<use x="681.33" y="117.01" xlink:href="#hd"/>
<path d="M684.83 117.01v-33.80" stroke="currentColor" fill="none"/>
<path stroke="currentColor" fill="none"
	d="M148.73 192.01v-24.00"/>
<path stroke="currentColor" fill="none" stroke-width="3"
	d="M233.43 192.01v-24.00"/>
<path stroke="currentColor" fill="none"
	d="M228.93 192.01v-24.00"/>
<use x="224.93" y="192.01" xlink:href="#rdots"/>
<use x="320.13" y="192.01" xlink:href="#rdots"/>
<path stroke="currentColor" fill="none"
	d="M316.13 192.01v-24.00"/>
<path stroke="currentColor" fill="none" stroke-width="3"
	d="M311.63 192.01v-24.00"/>
<path stroke="currentColor" fill="none"
	d="M418.03 192.01v-24.00"/>
<path stroke="currentColor" fill="none"
	d="M512.33 192.01v-24.00"/>
<path stroke="currentColor" fill="none"
	d="M615.23 192.01v-24.00"/>
<path stroke="currentColor" fill="none" stroke-width="3"
	d="M693.43 192.01v-24.00"/>
<path stroke="currentColor" fill="none"
	d="M688.93 192.01v-24.00"/>
<use x="684.93" y="192.01" xlink:href="#rdots"/>
<path stroke="currentColor" fill="none"
	d="M13.33 192.01h681.60m-681.60 -6h681.60m-681.60 -6h681.60m-681.60 -6h681.60m-681.60 -6h681.60"/>
<text x="52.13" y="147.61">C7</text>
<text x="164.83" y="147.61">F</text>
<text x="251.03" y="147.61">F</text>
<text x="327.43" y="147.61">C7</text>
<text x="427.63" y="147.61">F</text>
<text x="518.63" y="147.61">C7</text>
<text x="624.83" y="147.61">F</text>
</g>
<g transform="scale(0.750)" stroke-width="0.70" font-family="Times" font-size="13.00">
<text x="152.73" y="147.41">1</text>
<path stroke="currentColor" fill="none"
	d="M148.73 136.01v20M148.73 136.01h78.20v20"/>
<text x="238.93" y="147.41">2</text>
<path stroke="currentColor" fill="none"
	d="M234.93 136.01v20M234.93 136.01h74.20v20"/>
<use x="25.33" y="192.01" xlink:href="#tclef"/>
<use x="40.33" y="180.01" xlink:href="#ft0"/>
<path fill="currentColor"
	d="M61.53 158.61l77.30 -6.30v3.20l-77.30 6.30"/>
<use x="58.33" y="198.01" xlink:href="#hl"/>
<use x="58.33" y="198.01" xlink:href="#hd"/>
<path d="M61.83 198.01v-38.50" stroke="currentColor" fill="none"/>
<use x="73.63" y="192.01" xlink:href="#hd"/>
<path d="M77.13 192.01v-33.70" stroke="currentColor" fill="none"/>
<use x="88.93" y="186.01" xlink:href="#hd"/>
<path d="M92.43 186.01v-29.00" stroke="currentColor" fill="none"/>
<use x="104.23" y="174.01" xlink:href="#hd"/>
<path d="M107.73 174.01v-18.20" stroke="currentColor" fill="none"/>
<use x="119.63" y="177.01" xlink:href="#hd"/>
<path d="M123.13 177.01v-22.40" stroke="currentColor" fill="none"/>
<use x="134.93" y="192.01" xlink:href="#hd"/>
<path d="M138.43 192.01v-38.70" stroke="currentColor" fill="none"/>
<use x="167.73" y="189.01" xlink:href="#hd"/>
<path d="M171.23 189.01v-20.00" stroke="currentColor" fill="none"/>
<defs>
<path id="r4" fill="currentColor" d="m-1 -8.5
	l3.6 5.1 -2.1 5.2 2.2 4.3
	c-2.6 -2.3 -5.1 0 -2.4 2.6
	c-4.8 -3 -1.5 -6.9 1.4 -4.1
	l-3.1 -4.5 1.9 -5.1 -1.5 -3.5"/>
</defs>
<use x="191.03" y="180.01" xlink:href="#r4"/>
<use x="214.23" y="177.01" xlink:href="#hd"/>
<path d="M210.73 177.01v20.00" stroke="currentColor" fill="none"/>
<use x="253.93" y="189.01" xlink:href="#hd"/>
<path d="M257.43 189.01v-20.00" stroke="currentColor" fill="none"/>
<use x="277.13" y="180.01" xlink:href="#r4"/>
<use x="300.43" y="180.01" xlink:href="#r4"/>
<use x="333.63" y="177.01" xlink:href="#hd"/>
<path d="M330.13 177.01v20.00" stroke="currentColor" fill="none"/>
<path fill="currentColor"
	d="M354.43 199.21l46.60 -6.60v-3.20l-46.60 6.60"/>
<use x="358.23" y="180.01" xlink:href="#hd"/>
<defs>
<path id="unat" fill="currentColor" d="
	m96 -750
	h-32
	v716
	l32 -8
	l182 -54
	v282
	h32
	v-706
	l-34 10
	l-180 50
	v-290
	m0 592
	v-190
	l182 -52
	v188"/>
<use id="nt0" transform="translate(-3,5) scale(0.018)"
	xlink:href="#unat"/>
</defs>
<use x="349.23" y="180.01" xlink:href="#nt0"/>
<path d="M354.73 180.01v18.20" stroke="currentColor" fill="none"/>
<use x="373.63" y="177.01" xlink:href="#hd"/>
<path d="M370.13 177.01v19.00" stroke="currentColor" fill="none"/>
<use x="388.93" y="174.01" xlink:href="#hd"/>
<path d="M385.43 174.01v19.90" stroke="currentColor" fill="none"/>
<use x="404.23" y="171.01" xlink:href="#hd"/>
<path d="M400.73 171.01v20.70" stroke="currentColor" fill="none"/>
<path fill="currentColor"
	d="M426.73 195.01l46.60 0.00v-3.20l-46.60 -0.00"/>
<use x="430.53" y="168.01" xlink:href="#hd"/>
<path d="M427.03 168.01v26.00" stroke="currentColor" fill="none"/>
<use x="445.93" y="162.01" xlink:href="#hl"/>
<use x="445.93" y="162.01" xlink:href="#hd"/>
<path d="M442.43 162.01v32.00" stroke="currentColor" fill="none"/>
<use x="461.23" y="177.01" xlink:href="#hd"/>
<path d="M457.73 177.01v17.00" stroke="currentColor" fill="none"/>
<use x="476.53" y="162.01" xlink:href="#hl"/>
<use x="476.53" y="162.01" xlink:href="#hd"/>
<path d="M473.03 162.01v32.00" stroke="currentColor" fill="none"/>
<use x="493.33" y="168.01" xlink:href="#hd"/>
<path d="M489.83 168.01v20.00" stroke="currentColor" fill="none"/>
<path fill="currentColor"
	d="M521.03 199.21l77.30 0.00v-3.20l-77.30 -0.00"/>
<use x="524.83" y="171.01" xlink:href="#hd"/>
<path d="M521.33 171.01v27.20" stroke="currentColor" fill="none"/>
<use x="540.13" y="165.01" xlink:href="#hd"/>
<path d="M536.63 165.01v33.20" stroke="currentColor" fill="none"/>
<use x="555.43" y="177.01" xlink:href="#hd"/>
<path d="M551.93 177.01v21.20" stroke="currentColor" fill="none"/>
<use x="570.73" y="171.01" xlink:href="#hd"/>
<path d="M567.23 171.01v27.20" stroke="currentColor" fill="none"/>
<use x="586.13" y="180.01" xlink:href="#hd"/>
<path d="M582.63 180.01v18.20" stroke="currentColor" fill="none"/>
<use x="601.43" y="171.01" xlink:href="#hd"/>
<path d="M597.93 171.01v27.20" stroke="currentColor" fill="none"/>
<use x="627.73" y="168.01" xlink:href="#hd"/>
<path d="M624.23 168.01v20.00" stroke="currentColor" fill="none"/>
<use x="651.03" y="180.01" xlink:href="#r4"/>
<use x="674.23" y="180.01" xlink:href="#r4"/>
</g>
</svg>
