<?xml version="1.0" standalone="no"?>
<!DOCTYPE svg PUBLIC "-//W3C//DTD SVG 1.1//EN"
	"http://www.w3.org/Graphics/SVG/1.1/DTD/svg11.dtd">
<svg xmlns="http://www.w3.org/2000/svg" version="1.1"
	xmlns:xlink="http://www.w3.org/1999/xlink"
	xml:space='preserve' color="black"
	width="7.38in" height="2.22in" viewBox="0 0 531 160">
<title>data/results/biggest_11/abc/117.abc (117) tune 1</title>
<!-- Creator: abcm2ps-7.8.14 -->
<!-- CreationDate: Aug  9, 2015 23:50 -->
<!-- CommandLine: -g data/results/biggest_11/abc/117.abc -O /home/allanino/Dropbox/Trabalhos/folkme/svg/117.svg -->
<g transform="scale(0.750)" stroke-width="0.70" font-family="Times" font-size="20.00">
<text x="354.13" y="21.67" text-anchor="middle">Wilkinish Jig</text>
<defs>
<g id="rdots" fill="currentColor">
	<circle cx="0" cy="-9" r="1.2"/>
	<circle cx="0" cy="-15" r="1.2"/>
</g>
</defs>
<use x="84.83" y="109.01" xlink:href="#rdots"/>
<path stroke="currentColor" fill="none"
	d="M80.83 109.01v-24.00"/>
<path stroke="currentColor" fill="none" stroke-width="3"
	d="M76.33 109.01v-24.00"/>
<path stroke="currentColor" fill="none"
	d="M238.13 109.01v-24.00"/>
<path stroke="currentColor" fill="none"
	d="M390.43 109.01v-24.00"/>
<path stroke="currentColor" fill="none"
	d="M542.63 109.01v-24.00"/>
<path stroke="currentColor" fill="none"
	d="M694.93 109.01v-24.00"/>
<path stroke="currentColor" fill="none"
	d="M13.33 109.01h681.60m-681.60 -6h681.60m-681.60 -6h681.60m-681.60 -6h681.60m-681.60 -6h681.60"/>
</g>
<g transform="scale(0.750)" stroke-width="0.70" font-family="Helvetica" font-size="12.00">
<text x="91.13" y="62.61">Am</text>
<text x="243.43" y="62.61">Am</text>
<text x="314.13" y="62.61">Em7</text>
<text x="547.93" y="62.61">Am</text>
<defs>
<path id="utclef" fill="currentColor" d="m-50 -90
	c-72 -41 -72 -158 52 -188
	c150 -10 220 188 90 256
	c-114 52 -275 0 -293 -136
	c-15 -181 93 -229 220 -334
	c88 -87 79 -133 62 -210
	c-51 33 -94 105 -89 186
	c17 267 36 374 49 574
	c6 96 -19 134 -77 135
	c-80 1 -126 -93 -61 -133
	c85 -41 133 101 31 105
	c23 17 92 37 90 -92
	c-10 -223 -39 -342 -50 -617
	c0 -90 0 -162 96 -232
	c56 72 63 230 22 289
	c-74 106 -257 168 -255 316
	c9 153 148 185 252 133
	c86 -65 29 -192 -80 -176
	c-71 12 -105 67 -59 124"/>
<use id="tclef" transform="scale(0.045)"
	xlink:href="#utclef"/>
</defs>
<use x="25.33" y="109.01" xlink:href="#tclef"/>
<defs>
<path id="usharp" fill="currentColor" d="
	m136 -702
	v890
	h32
	v-890
	m128 840
	h32
	v-888
	h-32
	m-232 286
	v116
	l338 -96
	v-116
	m-338 442
	v116
	l338 -98
	v-114"/>
<use id="sh0" transform="translate(-4,5) scale(0.018)"
	xlink:href="#usharp"/>
</defs>
<use x="40.33" y="85.01" xlink:href="#sh0"/>
<g font-family="serif" font-size="16" font-weight="bold" font-style="normal"
	transform="translate(56.33,109.01) scale(1.2,1)">
	<text y="-1" text-anchor="middle">8</text>
	<text y="-13" text-anchor="middle">6</text>
</g>
<path fill="currentColor"
	d="M95.23 119.21l118.70 0.00v-3.20l-118.70 -0.00"/>
<defs>
<ellipse id="hd" rx="4.1" ry="2.9"
	transform="rotate(-20)" fill="currentColor"/>
</defs>
<use x="99.03" y="100.01" xlink:href="#hd"/>
<path d="M95.53 100.01v18.20" stroke="currentColor" fill="none"/>
<use x="122.63" y="88.01" xlink:href="#hd"/>
<path d="M119.13 88.01v30.20" stroke="currentColor" fill="none"/>
<use x="146.23" y="88.01" xlink:href="#hd"/>
<path d="M142.73 88.01v30.20" stroke="currentColor" fill="none"/>
<use x="169.83" y="88.01" xlink:href="#hd"/>
<path d="M166.33 88.01v30.20" stroke="currentColor" fill="none"/>
<use x="193.53" y="85.01" xlink:href="#hd"/>
<path d="M190.03 85.01v33.20" stroke="currentColor" fill="none"/>
<use x="217.13" y="88.01" xlink:href="#hd"/>
<path d="M213.63 88.01v30.20" stroke="currentColor" fill="none"/>
<path fill="currentColor"
	d="M247.53 113.21l118.70 -6.50v-3.20l-118.70 6.50"/>
<use x="251.33" y="94.01" xlink:href="#hd"/>
<path d="M247.83 94.01v18.20" stroke="currentColor" fill="none"/>
<use x="274.93" y="91.01" xlink:href="#hd"/>
<path d="M271.43 91.01v19.90" stroke="currentColor" fill="none"/>
<use x="298.53" y="88.01" xlink:href="#hd"/>
<path d="M295.03 88.01v21.60" stroke="currentColor" fill="none"/>
<use x="322.13" y="82.01" xlink:href="#hd"/>
<path d="M318.63 82.01v26.30" stroke="currentColor" fill="none"/>
<use x="345.73" y="85.01" xlink:href="#hd"/>
<path d="M342.23 85.01v22.10" stroke="currentColor" fill="none"/>
<use x="369.33" y="82.01" xlink:href="#hd"/>
<path d="M365.83 82.01v23.80" stroke="currentColor" fill="none"/>
<path fill="currentColor"
	d="M399.73 110.21l118.70 12.00v-3.20l-118.70 -12.00"/>
<use x="403.63" y="88.01" xlink:href="#hd"/>
<path d="M400.13 88.01v21.20" stroke="currentColor" fill="none"/>
<use x="427.23" y="91.01" xlink:href="#hd"/>
<path d="M423.73 91.01v20.60" stroke="currentColor" fill="none"/>
<use x="450.83" y="94.01" xlink:href="#hd"/>
<path d="M447.33 94.01v20.00" stroke="currentColor" fill="none"/>
<use x="474.43" y="97.01" xlink:href="#hd"/>
<path d="M470.93 97.01v19.40" stroke="currentColor" fill="none"/>
<use x="498.03" y="100.01" xlink:href="#hd"/>
<path d="M494.53 100.01v18.80" stroke="currentColor" fill="none"/>
<use x="521.63" y="103.01" xlink:href="#hd"/>
<path d="M518.13 103.01v18.20" stroke="currentColor" fill="none"/>
<path fill="currentColor"
	d="M559.03 71.81l118.70 0.00v3.20l-118.70 -0.00"/>
<use x="555.83" y="100.01" xlink:href="#hd"/>
<path d="M559.33 100.01v-27.20" stroke="currentColor" fill="none"/>
<use x="579.53" y="103.01" xlink:href="#hd"/>
<path d="M583.03 103.01v-30.20" stroke="currentColor" fill="none"/>
<use x="603.13" y="100.01" xlink:href="#hd"/>
<path d="M606.63 100.01v-27.20" stroke="currentColor" fill="none"/>
<use x="626.73" y="97.01" xlink:href="#hd"/>
<path d="M630.23 97.01v-24.20" stroke="currentColor" fill="none"/>
<use x="650.33" y="94.01" xlink:href="#hd"/>
<path d="M653.83 94.01v-21.20" stroke="currentColor" fill="none"/>
<use x="673.93" y="91.01" xlink:href="#hd"/>
<path d="M677.43 91.01v-18.20" stroke="currentColor" fill="none"/>
<path stroke="currentColor" fill="none"
	d="M210.83 190.01v-24.00"/>
<path stroke="currentColor" fill="none"
	d="M369.43 190.01v-24.00"/>
<path stroke="currentColor" fill="none"
	d="M536.33 190.01v-24.00"/>
<path stroke="currentColor" fill="none" stroke-width="3"
	d="M693.43 190.01v-24.00"/>
<path stroke="currentColor" fill="none"
	d="M688.93 190.01v-24.00"/>
<use x="684.93" y="190.01" xlink:href="#rdots"/>
<path stroke="currentColor" fill="none"
	d="M13.33 190.01h681.60m-681.60 -6h681.60m-681.60 -6h681.60m-681.60 -6h681.60m-681.60 -6h681.60"/>
<text x="50.43" y="143.61">Am</text>
<text x="221.43" y="143.61">G</text>
<text x="377.33" y="143.61">D7</text>
<text x="546.83" y="143.61">G</text>
<use x="25.33" y="190.01" xlink:href="#tclef"/>
<use x="40.33" y="166.01" xlink:href="#sh0"/>
<path fill="currentColor"
	d="M54.53 197.51l130.10 6.70v-3.20l-130.10 -6.70"/>
<use x="58.33" y="169.01" xlink:href="#hd"/>
<path d="M54.83 169.01v27.50" stroke="currentColor" fill="none"/>
<use x="84.23" y="169.01" xlink:href="#hd"/>
<path d="M80.73 169.01v28.90" stroke="currentColor" fill="none"/>
<use x="110.13" y="181.01" xlink:href="#hd"/>
<path d="M106.63 181.01v18.20" stroke="currentColor" fill="none"/>
<use x="136.03" y="181.01" xlink:href="#hd"/>
<path d="M132.53 181.01v19.50" stroke="currentColor" fill="none"/>
<use x="161.93" y="178.01" xlink:href="#hd"/>
<path d="M158.43 178.01v23.90" stroke="currentColor" fill="none"/>
<use x="187.83" y="181.01" xlink:href="#hd"/>
<path d="M184.33 181.01v22.20" stroke="currentColor" fill="none"/>
<path fill="currentColor"
	d="M228.33 158.81l52.50 0.00v3.20l-52.50 -0.00"/>
<use x="225.23" y="178.01" xlink:href="#hd"/>
<path d="M228.73 178.01v-18.20" stroke="currentColor" fill="none"/>
<use x="251.13" y="184.01" xlink:href="#hd"/>
<path d="M254.63 184.01v-24.20" stroke="currentColor" fill="none"/>
<use x="277.03" y="178.01" xlink:href="#hd"/>
<path d="M280.53 178.01v-18.20" stroke="currentColor" fill="none"/>
<use x="305.73" y="172.01" xlink:href="#hd"/>
<path d="M302.23 172.01v20.00" stroke="currentColor" fill="none"/>
<use x="346.43" y="169.01" xlink:href="#hd"/>
<path d="M342.93 169.01v20.00" stroke="currentColor" fill="none"/>
<path fill="currentColor"
	d="M342.93 189.01c0.6 -5.6 9.6 -9 5.6 -18.4
	c1.6 6 -1.3 11.6 -5.6 12.8
"/>
<path fill="currentColor"
	d="M387.03 152.81l130.10 0.00v3.20l-130.10 -0.00"/>
<use x="383.83" y="172.01" xlink:href="#hd"/>
<path d="M387.33 172.01v-18.20" stroke="currentColor" fill="none"/>
<use x="409.73" y="178.01" xlink:href="#hd"/>
<path d="M413.23 178.01v-24.20" stroke="currentColor" fill="none"/>
<use x="435.63" y="181.01" xlink:href="#hd"/>
<path d="M439.13 181.01v-27.20" stroke="currentColor" fill="none"/>
<use x="461.53" y="184.01" xlink:href="#hd"/>
<path d="M465.03 184.01v-30.20" stroke="currentColor" fill="none"/>
<use x="487.43" y="184.01" xlink:href="#hd"/>
<path d="M490.93 184.01v-30.20" stroke="currentColor" fill="none"/>
<use x="513.33" y="181.01" xlink:href="#hd"/>
<path d="M516.83 181.01v-27.20" stroke="currentColor" fill="none"/>
<path fill="currentColor"
	d="M553.83 158.81l52.50 0.00v3.20l-52.50 -0.00"/>
<use x="550.73" y="178.01" xlink:href="#hd"/>
<path d="M554.23 178.01v-18.20" stroke="currentColor" fill="none"/>
<use x="576.63" y="181.01" xlink:href="#hd"/>
<path d="M580.13 181.01v-21.20" stroke="currentColor" fill="none"/>
<use x="602.43" y="178.01" xlink:href="#hd"/>
<path d="M605.93 178.01v-18.20" stroke="currentColor" fill="none"/>
<use x="631.23" y="193.01" xlink:href="#hd"/>
<path d="M634.73 193.01v-20.00" stroke="currentColor" fill="none"/>
<use x="671.93" y="178.01" xlink:href="#hd"/>
<path d="M668.43 178.01v20.00" stroke="currentColor" fill="none"/>
<path fill="currentColor"
	d="M668.43 198.01c0.6 -5.6 9.6 -9 5.6 -18.4
	c1.6 6 -1.3 11.6 -5.6 12.8
"/>
</g>
</svg>
