<?xml version="1.0" standalone="no"?>
<!DOCTYPE svg PUBLIC "-//W3C//DTD SVG 1.1//EN"
	"http://www.w3.org/Graphics/SVG/1.1/DTD/svg11.dtd">
<svg xmlns="http://www.w3.org/2000/svg" version="1.1"
	xmlns:xlink="http://www.w3.org/1999/xlink"
	xml:space='preserve' color="black"
	width="7.38in" height="3.88in" viewBox="0 0 531 280">
<title>data/results/biggest_11/abc/121.abc (121) tune 1</title>
<!-- Creator: abcm2ps-7.8.14 -->
<!-- CreationDate: Aug  9, 2015 23:50 -->
<!-- CommandLine: -g data/results/biggest_11/abc/121.abc -O /home/allanino/Dropbox/Trabalhos/folkme/svg/121.svg -->
<g transform="scale(0.750)" stroke-width="0.70" font-family="Times" font-size="20.00">
<text x="354.13" y="21.67" text-anchor="middle">Goodel Bells. JMP.051</text>
</g>
<g transform="scale(0.750)" stroke-width="0.70" font-family="Times" font-size="16.00">
<text x="354.13" y="41.30" text-anchor="middle">High Whakey Hill,The,The,aka. RHu.1442</text>
<text x="354.13" y="60.13" text-anchor="middle">Polska efter Pelle Fores</text>
<path stroke="currentColor" fill="none"
	d="M171.93 139.67v-24.00"/>
<path stroke="currentColor" fill="none"
	d="M282.73 139.67v-24.00"/>
<path stroke="currentColor" fill="none"
	d="M393.13 139.67v-24.00"/>
<path stroke="currentColor" fill="none"
	d="M489.33 139.67v-24.00"/>
<path stroke="currentColor" fill="none"
	d="M584.13 139.67v-24.00"/>
<path stroke="currentColor" fill="none"
	d="M694.93 139.67v-24.00"/>
<path stroke="currentColor" fill="none"
	d="M13.33 139.67h681.60m-681.60 -6h681.60m-681.60 -6h681.60m-681.60 -6h681.60m-681.60 -6h681.60"/>
<defs>
<path id="utclef" fill="currentColor" d="m-50 -90
	c-72 -41 -72 -158 52 -188
	c150 -10 220 188 90 256
	c-114 52 -275 0 -293 -136
	c-15 -181 93 -229 220 -334
	c88 -87 79 -133 62 -210
	c-51 33 -94 105 -89 186
	c17 267 36 374 49 574
	c6 96 -19 134 -77 135
	c-80 1 -126 -93 -61 -133
	c85 -41 133 101 31 105
	c23 17 92 37 90 -92
	c-10 -223 -39 -342 -50 -617
	c0 -90 0 -162 96 -232
	c56 72 63 230 22 289
	c-74 106 -257 168 -255 316
	c9 153 148 185 252 133
	c86 -65 29 -192 -80 -176
	c-71 12 -105 67 -59 124"/>
<use id="tclef" transform="scale(0.045)"
	xlink:href="#utclef"/>
</defs>
<use x="25.33" y="139.67" xlink:href="#tclef"/>
<defs>
<path id="usharp" fill="currentColor" d="
	m136 -702
	v890
	h32
	v-890
	m128 840
	h32
	v-888
	h-32
	m-232 286
	v116
	l338 -96
	v-116
	m-338 442
	v116
	l338 -98
	v-114"/>
<use id="sh0" transform="translate(-4,5) scale(0.018)"
	xlink:href="#usharp"/>
</defs>
<use x="40.33" y="115.67" xlink:href="#sh0"/>
<use x="45.83" y="124.67" xlink:href="#sh0"/>
<g font-family="serif" font-size="16" font-weight="bold" font-style="normal"
	transform="translate(61.83,139.67) scale(1.2,1)">
	<text y="-1" text-anchor="middle">4</text>
	<text y="-13" text-anchor="middle">3</text>
</g>
<path fill="currentColor"
	d="M76.03 147.67l83.30 0.00v-3.20l-83.30 -0.00"/>
<path fill="currentColor"
	d="M102.23 142.67l30.00 0.00v-3.20l-30.00 -0.00"/>
<path fill="currentColor"
	d="M152.93 142.67l6.00 0.00v-3.20l-6.00 -0.00"/>
<defs>
<ellipse id="hd" rx="4.1" ry="2.9"
	transform="rotate(-20)" fill="currentColor"/>
</defs>
<use x="79.83" y="130.67" xlink:href="#hd"/>
<path d="M76.33 130.67v16.00" stroke="currentColor" fill="none"/>
<use x="92.73" y="121.67" xlink:href="#hd"/>
<path d="M89.23 121.67v25.00" stroke="currentColor" fill="none"/>
<use x="105.73" y="124.67" xlink:href="#hd"/>
<path d="M102.23 124.67v22.00" stroke="currentColor" fill="none"/>
<use x="115.73" y="121.67" xlink:href="#hd"/>
<path d="M112.23 121.67v25.00" stroke="currentColor" fill="none"/>
<use x="125.73" y="118.67" xlink:href="#hd"/>
<path d="M122.23 118.67v28.00" stroke="currentColor" fill="none"/>
<use x="135.73" y="124.67" xlink:href="#hd"/>
<path d="M132.23 124.67v22.00" stroke="currentColor" fill="none"/>
<use x="145.73" y="121.67" xlink:href="#hd"/>
<circle fill="currentColor" cx="153.73" cy="118.67" r="1.2"/>
<path d="M142.23 121.67v25.00" stroke="currentColor" fill="none"/>
<use x="162.43" y="118.67" xlink:href="#hd"/>
<path d="M158.93 118.67v28.00" stroke="currentColor" fill="none"/>
<path fill="currentColor"
	d="M180.63 147.67l89.50 0.00v-3.20l-89.50 -0.00"/>
<path fill="currentColor"
	d="M193.93 142.67l10.00 0.00v-3.20l-10.00 -0.00"/>
<path fill="currentColor"
	d="M226.83 142.67l10.00 0.00v-3.20l-10.00 -0.00"/>
<path fill="currentColor"
	d="M259.73 142.67l10.00 0.00v-3.20l-10.00 -0.00"/>
<use x="184.43" y="115.67" xlink:href="#hd"/>
<path d="M180.93 115.67v31.00" stroke="currentColor" fill="none"/>
<use x="197.43" y="118.67" xlink:href="#hd"/>
<path d="M193.93 118.67v28.00" stroke="currentColor" fill="none"/>
<use x="207.43" y="121.67" xlink:href="#hd"/>
<path d="M203.93 121.67v25.00" stroke="currentColor" fill="none"/>
<use x="217.43" y="118.67" xlink:href="#hd"/>
<path d="M213.93 118.67v28.00" stroke="currentColor" fill="none"/>
<use x="230.33" y="115.67" xlink:href="#hd"/>
<path d="M226.83 115.67v31.00" stroke="currentColor" fill="none"/>
<use x="240.33" y="118.67" xlink:href="#hd"/>
<path d="M236.83 118.67v28.00" stroke="currentColor" fill="none"/>
<use x="250.33" y="121.67" xlink:href="#hd"/>
<path d="M246.83 121.67v25.00" stroke="currentColor" fill="none"/>
<use x="263.23" y="124.67" xlink:href="#hd"/>
<path d="M259.73 124.67v22.00" stroke="currentColor" fill="none"/>
<use x="273.23" y="127.67" xlink:href="#hd"/>
<path d="M269.73 127.67v19.00" stroke="currentColor" fill="none"/>
<path fill="currentColor"
	d="M298.43 92.47l86.60 0.00v3.20l-86.60 -0.00"/>
<path fill="currentColor"
	d="M298.73 97.47l30.00 0.00v3.20l-30.00 -0.00"/>
<path fill="currentColor"
	d="M351.73 97.47l10.00 0.00v3.20l-10.00 -0.00"/>
<use x="295.23" y="130.67" xlink:href="#hd"/>
<path d="M298.73 130.67v-37.20" stroke="currentColor" fill="none"/>
<use x="305.23" y="127.67" xlink:href="#hd"/>
<path d="M308.73 127.67v-34.20" stroke="currentColor" fill="none"/>
<use x="315.23" y="130.67" xlink:href="#hd"/>
<path d="M318.73 130.67v-37.20" stroke="currentColor" fill="none"/>
<use x="325.23" y="133.67" xlink:href="#hd"/>
<path d="M328.73 133.67v-40.20" stroke="currentColor" fill="none"/>
<use x="335.33" y="136.67" xlink:href="#hd"/>
<path d="M338.83 136.67v-43.20" stroke="currentColor" fill="none"/>
<use x="348.23" y="121.67" xlink:href="#hd"/>
<path d="M351.73 121.67v-28.20" stroke="currentColor" fill="none"/>
<use x="358.23" y="136.67" xlink:href="#hd"/>
<path d="M361.73 136.67v-43.20" stroke="currentColor" fill="none"/>
<use x="368.23" y="130.67" xlink:href="#hd"/>
<path d="M371.73 130.67v-37.20" stroke="currentColor" fill="none"/>
<defs>
<path id="hl" stroke="currentColor" d="m-6 0h12"/>
</defs>
<use x="381.13" y="109.67" xlink:href="#hl"/>
<use x="381.13" y="109.67" xlink:href="#hd"/>
<path d="M384.63 109.67v-16.20" stroke="currentColor" fill="none"/>
<path fill="currentColor"
	d="M401.83 141.67l72.40 0.00v-3.20l-72.40 -0.00"/>
<path fill="currentColor"
	d="M415.03 136.67l10.00 0.00v-3.20l-10.00 -0.00"/>
<use x="405.63" y="112.67" xlink:href="#hd"/>
<path d="M402.13 112.67v28.00" stroke="currentColor" fill="none"/>
<use x="418.53" y="109.67" xlink:href="#hl"/>
<use x="418.53" y="109.67" xlink:href="#hd"/>
<path d="M415.03 109.67v31.00" stroke="currentColor" fill="none"/>
<use x="428.53" y="115.67" xlink:href="#hd"/>
<path d="M425.03 115.67v25.00" stroke="currentColor" fill="none"/>
<use x="438.53" y="124.67" xlink:href="#hd"/>
<path d="M435.03 124.67v16.00" stroke="currentColor" fill="none"/>
<use x="451.53" y="118.67" xlink:href="#hd"/>
<path d="M448.03 118.67v22.00" stroke="currentColor" fill="none"/>
<use x="464.43" y="118.67" xlink:href="#hd"/>
<path d="M460.93 118.67v22.00" stroke="currentColor" fill="none"/>
<use x="477.33" y="115.67" xlink:href="#hd"/>
<path d="M473.83 115.67v25.00" stroke="currentColor" fill="none"/>
<path fill="currentColor"
	d="M498.03 152.87l56.50 0.00v-3.20l-56.50 -0.00"/>
<path fill="currentColor"
	d="M511.23 147.87l10.00 0.00v-3.20l-10.00 -0.00"/>
<path fill="currentColor"
	d="M544.23 147.87l10.00 0.00v-3.20l-10.00 -0.00"/>
<use x="501.83" y="118.67" xlink:href="#hd"/>
<path d="M498.33 118.67v33.20" stroke="currentColor" fill="none"/>
<use x="514.73" y="118.67" xlink:href="#hd"/>
<path d="M511.23 118.67v33.20" stroke="currentColor" fill="none"/>
<use x="524.73" y="121.67" xlink:href="#hd"/>
<path d="M521.23 121.67v30.20" stroke="currentColor" fill="none"/>
<use x="534.73" y="124.67" xlink:href="#hd"/>
<path d="M531.23 124.67v27.20" stroke="currentColor" fill="none"/>
<use x="547.73" y="124.67" xlink:href="#hd"/>
<path d="M544.23 124.67v27.20" stroke="currentColor" fill="none"/>
<use x="557.73" y="130.67" xlink:href="#hd"/>
<path d="M554.23 130.67v21.20" stroke="currentColor" fill="none"/>
<use x="568.53" y="127.67" xlink:href="#hd"/>
<path d="M565.03 127.67v20.00" stroke="currentColor" fill="none"/>
<path fill="currentColor"
	d="M592.83 152.87l89.50 0.00v-3.20l-89.50 -0.00"/>
<path fill="currentColor"
	d="M606.03 147.87l10.00 0.00v-3.20l-10.00 -0.00"/>
<path fill="currentColor"
	d="M639.03 147.87l10.00 0.00v-3.20l-10.00 -0.00"/>
<path fill="currentColor"
	d="M671.93 147.87l10.00 0.00v-3.20l-10.00 -0.00"/>
<use x="596.63" y="130.67" xlink:href="#hd"/>
<path d="M593.13 130.67v21.20" stroke="currentColor" fill="none"/>
<use x="609.53" y="127.67" xlink:href="#hd"/>
<path d="M606.03 127.67v24.20" stroke="currentColor" fill="none"/>
<use x="619.53" y="121.67" xlink:href="#hd"/>
<path d="M616.03 121.67v30.20" stroke="currentColor" fill="none"/>
<use x="629.53" y="124.67" xlink:href="#hd"/>
<path d="M626.03 124.67v27.20" stroke="currentColor" fill="none"/>
<use x="642.53" y="130.67" xlink:href="#hd"/>
<path d="M639.03 130.67v21.20" stroke="currentColor" fill="none"/>
<use x="652.53" y="124.67" xlink:href="#hd"/>
<path d="M649.03 124.67v27.20" stroke="currentColor" fill="none"/>
<use x="662.53" y="133.67" xlink:href="#hd"/>
<path d="M659.03 133.67v18.20" stroke="currentColor" fill="none"/>
<use x="675.43" y="127.67" xlink:href="#hd"/>
<path d="M671.93 127.67v24.20" stroke="currentColor" fill="none"/>
<use x="685.43" y="124.67" xlink:href="#hd"/>
<path d="M681.93 124.67v27.20" stroke="currentColor" fill="none"/>
<path stroke="currentColor" fill="none"
	d="M263.93 209.67v-24.00"/>
<path stroke="currentColor" fill="none"
	d="M467.13 209.67v-24.00"/>
<path stroke="currentColor" fill="none" stroke-width="3"
	d="M693.43 209.67v-24.00"/>
<path stroke="currentColor" fill="none"
	d="M688.93 209.67v-24.00"/>
<defs>
<g id="rdots" fill="currentColor">
	<circle cx="0" cy="-9" r="1.2"/>
	<circle cx="0" cy="-15" r="1.2"/>
</g>
</defs>
<use x="684.93" y="209.67" xlink:href="#rdots"/>
<path stroke="currentColor" fill="none"
	d="M13.33 209.67h681.60m-681.60 -6h681.60m-681.60 -6h681.60m-681.60 -6h681.60m-681.60 -6h681.60"/>
<use x="25.33" y="209.67" xlink:href="#tclef"/>
<use x="40.33" y="185.67" xlink:href="#sh0"/>
<use x="45.83" y="194.67" xlink:href="#sh0"/>
<path fill="currentColor"
	d="M67.03 169.47l124.30 0.00v3.20l-124.30 -0.00"/>
<path fill="currentColor"
	d="M67.33 174.47l68.50 0.00v3.20l-68.50 -0.00"/>
<use x="63.83" y="200.67" xlink:href="#hd"/>
<path d="M67.33 200.67v-30.20" stroke="currentColor" fill="none"/>
<use x="86.63" y="206.67" xlink:href="#hd"/>
<path d="M90.13 206.67v-36.20" stroke="currentColor" fill="none"/>
<use x="109.53" y="191.67" xlink:href="#hd"/>
<path d="M113.03 191.67v-21.20" stroke="currentColor" fill="none"/>
<use x="132.33" y="206.67" xlink:href="#hd"/>
<path d="M135.83 206.67v-36.20" stroke="currentColor" fill="none"/>
<use x="155.13" y="191.67" xlink:href="#hd"/>
<path d="M158.63 191.67v-21.20" stroke="currentColor" fill="none"/>
<use x="187.43" y="191.67" xlink:href="#hd"/>
<path d="M190.93 191.67v-21.20" stroke="currentColor" fill="none"/>
<use x="223.33" y="206.67" xlink:href="#hd"/>
<path d="M226.83 206.67v-20.00" stroke="currentColor" fill="none"/>
<path fill="currentColor"
	d="M278.03 217.67l157.20 0.00v-3.20l-157.20 -0.00"/>
<path fill="currentColor"
	d="M309.13 212.67l6.00 0.00v-3.20l-6.00 -0.00"/>
<use x="281.93" y="200.67" xlink:href="#hd"/>
<circle fill="currentColor" cx="289.93" cy="200.67" r="1.2"/>
<path d="M278.43 200.67v16.00" stroke="currentColor" fill="none"/>
<use x="318.63" y="194.67" xlink:href="#hd"/>
<path d="M315.13 194.67v22.00" stroke="currentColor" fill="none"/>
<use x="341.43" y="188.67" xlink:href="#hd"/>
<path d="M337.93 188.67v28.00" stroke="currentColor" fill="none"/>
<use x="373.83" y="182.67" xlink:href="#hd"/>
<path d="M370.33 182.67v34.00" stroke="currentColor" fill="none"/>
<use x="406.13" y="188.67" xlink:href="#hd"/>
<path d="M402.63 188.67v28.00" stroke="currentColor" fill="none"/>
<use x="438.43" y="194.67" xlink:href="#hd"/>
<path d="M434.93 194.67v22.00" stroke="currentColor" fill="none"/>
<path fill="currentColor"
	d="M481.23 217.67l147.10 0.00v-3.20l-147.10 -0.00"/>
<path fill="currentColor"
	d="M513.83 212.67l114.20 0.00v-3.20l-114.20 -0.00"/>
<use x="485.03" y="188.67" xlink:href="#hd"/>
<path d="M481.53 188.67v28.00" stroke="currentColor" fill="none"/>
<use x="517.33" y="191.67" xlink:href="#hd"/>
<path d="M513.83 191.67v25.00" stroke="currentColor" fill="none"/>
<use x="540.23" y="194.67" xlink:href="#hd"/>
<path d="M536.73 194.67v22.00" stroke="currentColor" fill="none"/>
<use x="563.03" y="191.67" xlink:href="#hd"/>
<path d="M559.53 191.67v25.00" stroke="currentColor" fill="none"/>
<use x="585.83" y="188.67" xlink:href="#hd"/>
<path d="M582.33 188.67v28.00" stroke="currentColor" fill="none"/>
<use x="608.73" y="191.67" xlink:href="#hd"/>
<path d="M605.23 191.67v25.00" stroke="currentColor" fill="none"/>
<use x="631.53" y="197.67" xlink:href="#hd"/>
<path d="M628.03 197.67v19.00" stroke="currentColor" fill="none"/>
<use x="654.33" y="203.67" xlink:href="#hd"/>
<path d="M657.83 203.67v-20.00" stroke="currentColor" fill="none"/>
<use x="70.33" y="279.67" xlink:href="#rdots"/>
<path stroke="currentColor" fill="none"
	d="M66.33 279.67v-24.00"/>
<path stroke="currentColor" fill="none" stroke-width="3"
	d="M61.83 279.67v-24.00"/>
<path stroke="currentColor" fill="none"
	d="M217.83 279.67v-24.00"/>
<path stroke="currentColor" fill="none"
	d="M379.43 279.67v-24.00"/>
<path stroke="currentColor" fill="none"
	d="M541.23 279.67v-24.00"/>
<path stroke="currentColor" fill="none"
	d="M694.93 279.67v-24.00"/>
<path stroke="currentColor" fill="none"
	d="M13.33 279.67h681.60m-681.60 -6h681.60m-681.60 -6h681.60m-681.60 -6h681.60m-681.60 -6h681.60"/>
<use x="25.33" y="279.67" xlink:href="#tclef"/>
<use x="40.33" y="255.67" xlink:href="#sh0"/>
<use x="45.83" y="264.67" xlink:href="#sh0"/>
<path fill="currentColor"
	d="M80.03 281.67l123.40 0.00v-3.20l-123.40 -0.00"/>
<path fill="currentColor"
	d="M80.33 276.67l37.60 0.00v-3.20l-37.60 -0.00"/>
<path fill="currentColor"
	d="M165.43 276.67l37.60 0.00v-3.20l-37.60 -0.00"/>
<use x="83.83" y="258.67" xlink:href="#hd"/>
<path d="M80.33 258.67v22.00" stroke="currentColor" fill="none"/>
<use x="96.33" y="255.67" xlink:href="#hd"/>
<path d="M92.83 255.67v25.00" stroke="currentColor" fill="none"/>
<use x="108.83" y="252.67" xlink:href="#hd"/>
<path d="M105.33 252.67v28.00" stroke="currentColor" fill="none"/>
<use x="121.43" y="249.67" xlink:href="#hl"/>
<use x="121.43" y="249.67" xlink:href="#hd"/>
<path d="M117.93 249.67v31.00" stroke="currentColor" fill="none"/>
<use x="134.13" y="249.67" xlink:href="#hl"/>
<use x="134.13" y="246.67" xlink:href="#hd"/>
<path d="M130.63 246.67v34.00" stroke="currentColor" fill="none"/>
<use x="151.53" y="249.67" xlink:href="#hl"/>
<use x="151.53" y="243.67" xlink:href="#hl"/>
<use x="151.53" y="240.67" xlink:href="#hd"/>
<path d="M148.03 240.67v40.00" stroke="currentColor" fill="none"/>
<use x="168.93" y="249.67" xlink:href="#hl"/>
<use x="168.93" y="243.67" xlink:href="#hl"/>
<use x="168.93" y="240.67" xlink:href="#hd"/>
<path d="M165.43 240.67v40.00" stroke="currentColor" fill="none"/>
<use x="181.43" y="255.67" xlink:href="#hd"/>
<path d="M177.93 255.67v25.00" stroke="currentColor" fill="none"/>
<use x="194.03" y="249.67" xlink:href="#hl"/>
<use x="194.03" y="249.67" xlink:href="#hd"/>
<path d="M190.53 249.67v31.00" stroke="currentColor" fill="none"/>
<use x="206.53" y="255.67" xlink:href="#hd"/>
<path d="M203.03 255.67v25.00" stroke="currentColor" fill="none"/>
<path fill="currentColor"
	d="M226.53 292.87l138.40 0.00v-3.20l-138.40 -0.00"/>
<path fill="currentColor"
	d="M226.83 287.87l137.70 0.00v-3.20l-137.70 -0.00"/>
<use x="230.33" y="258.67" xlink:href="#hd"/>
<path d="M226.83 258.67v33.20" stroke="currentColor" fill="none"/>
<use x="242.83" y="261.67" xlink:href="#hd"/>
<path d="M239.33 261.67v30.20" stroke="currentColor" fill="none"/>
<use x="255.43" y="249.67" xlink:href="#hl"/>
<use x="255.43" y="246.67" xlink:href="#hd"/>
<path d="M251.93 246.67v45.20" stroke="currentColor" fill="none"/>
<use x="267.93" y="252.67" xlink:href="#hd"/>
<path d="M264.43 252.67v39.20" stroke="currentColor" fill="none"/>
<use x="280.43" y="249.67" xlink:href="#hl"/>
<use x="280.43" y="249.67" xlink:href="#hd"/>
<path d="M276.93 249.67v42.20" stroke="currentColor" fill="none"/>
<use x="292.93" y="270.67" xlink:href="#hd"/>
<path d="M289.43 270.67v21.20" stroke="currentColor" fill="none"/>
<use x="305.43" y="264.67" xlink:href="#hd"/>
<path d="M301.93 264.67v27.20" stroke="currentColor" fill="none"/>
<use x="318.03" y="258.67" xlink:href="#hd"/>
<path d="M314.53 258.67v33.20" stroke="currentColor" fill="none"/>
<use x="330.53" y="252.67" xlink:href="#hd"/>
<path d="M327.03 252.67v39.20" stroke="currentColor" fill="none"/>
<use x="343.03" y="258.67" xlink:href="#hd"/>
<path d="M339.53 258.67v33.20" stroke="currentColor" fill="none"/>
<use x="355.53" y="264.67" xlink:href="#hd"/>
<path d="M352.03 264.67v27.20" stroke="currentColor" fill="none"/>
<use x="368.13" y="270.67" xlink:href="#hd"/>
<path d="M364.63 270.67v21.20" stroke="currentColor" fill="none"/>
<path fill="currentColor"
	d="M388.03 281.67l138.60 0.00v-3.20l-138.60 -0.00"/>
<path fill="currentColor"
	d="M388.43 276.67l137.90 0.00v-3.20l-137.90 -0.00"/>
<use x="391.93" y="261.67" xlink:href="#hd"/>
<path d="M388.43 261.67v19.00" stroke="currentColor" fill="none"/>
<use x="404.43" y="255.67" xlink:href="#hd"/>
<path d="M400.93 255.67v25.00" stroke="currentColor" fill="none"/>
<use x="416.93" y="249.67" xlink:href="#hl"/>
<use x="416.93" y="249.67" xlink:href="#hd"/>
<path d="M413.43 249.67v31.00" stroke="currentColor" fill="none"/>
<use x="429.53" y="261.67" xlink:href="#hd"/>
<path d="M426.03 261.67v19.00" stroke="currentColor" fill="none"/>
<use x="442.03" y="255.67" xlink:href="#hd"/>
<path d="M438.53 255.67v25.00" stroke="currentColor" fill="none"/>
<use x="454.53" y="249.67" xlink:href="#hl"/>
<use x="454.53" y="246.67" xlink:href="#hd"/>
<path d="M451.03 246.67v34.00" stroke="currentColor" fill="none"/>
<use x="467.23" y="249.67" xlink:href="#hl"/>
<use x="467.23" y="249.67" xlink:href="#hd"/>
<path d="M463.73 249.67v31.00" stroke="currentColor" fill="none"/>
<use x="479.73" y="255.67" xlink:href="#hd"/>
<path d="M476.23 255.67v25.00" stroke="currentColor" fill="none"/>
<use x="492.33" y="252.67" xlink:href="#hd"/>
<path d="M488.83 252.67v28.00" stroke="currentColor" fill="none"/>
<use x="504.83" y="258.67" xlink:href="#hd"/>
<path d="M501.33 258.67v22.00" stroke="currentColor" fill="none"/>
<use x="517.33" y="255.67" xlink:href="#hd"/>
<path d="M513.83 255.67v25.00" stroke="currentColor" fill="none"/>
<use x="529.83" y="261.67" xlink:href="#hd"/>
<path d="M526.33 261.67v19.00" stroke="currentColor" fill="none"/>
<path fill="currentColor"
	d="M549.83 292.87l130.60 0.00v-3.20l-130.60 -0.00"/>
<path fill="currentColor"
	d="M550.23 287.87l87.70 0.00v-3.20l-87.70 -0.00"/>
<path fill="currentColor"
	d="M667.53 287.87l12.50 0.00v-3.20l-12.50 -0.00"/>
<use x="553.73" y="252.67" xlink:href="#hd"/>
<path d="M550.23 252.67v39.20" stroke="currentColor" fill="none"/>
<use x="566.23" y="255.67" xlink:href="#hd"/>
<path d="M562.73 255.67v36.20" stroke="currentColor" fill="none"/>
<use x="578.73" y="258.67" xlink:href="#hd"/>
<path d="M575.23 258.67v33.20" stroke="currentColor" fill="none"/>
<use x="591.23" y="261.67" xlink:href="#hd"/>
<path d="M587.73 261.67v30.20" stroke="currentColor" fill="none"/>
<use x="603.73" y="267.67" xlink:href="#hd"/>
<path d="M600.23 267.67v24.20" stroke="currentColor" fill="none"/>
<use x="616.33" y="261.67" xlink:href="#hd"/>
<path d="M612.83 261.67v30.20" stroke="currentColor" fill="none"/>
<use x="628.83" y="264.67" xlink:href="#hd"/>
<path d="M625.33 264.67v27.20" stroke="currentColor" fill="none"/>
<use x="641.33" y="267.67" xlink:href="#hd"/>
<path d="M637.83 267.67v24.20" stroke="currentColor" fill="none"/>
<use x="653.83" y="270.67" xlink:href="#hd"/>
<path d="M650.33 270.67v21.20" stroke="currentColor" fill="none"/>
<use x="671.03" y="270.67" xlink:href="#hd"/>
<path d="M667.53 270.67v21.20" stroke="currentColor" fill="none"/>
<use x="683.63" y="267.67" xlink:href="#hd"/>
<path d="M680.13 267.67v24.20" stroke="currentColor" fill="none"/>
<path stroke="currentColor" fill="none"
	d="M234.13 349.67v-24.00"/>
<path stroke="currentColor" fill="none"
	d="M413.63 349.67v-24.00"/>
<path stroke="currentColor" fill="none"
	d="M577.03 349.67v-24.00"/>
<path stroke="currentColor" fill="none" stroke-width="3"
	d="M693.43 349.67v-24.00"/>
<path stroke="currentColor" fill="none"
	d="M688.93 349.67v-24.00"/>
<use x="684.93" y="349.67" xlink:href="#rdots"/>
<path stroke="currentColor" fill="none"
	d="M13.33 349.67h681.60m-681.60 -6h681.60m-681.60 -6h681.60m-681.60 -6h681.60m-681.60 -6h681.60"/>
<use x="25.33" y="349.67" xlink:href="#tclef"/>
<use x="40.33" y="325.67" xlink:href="#sh0"/>
<use x="45.83" y="334.67" xlink:href="#sh0"/>
<path fill="currentColor"
	d="M60.03 351.67l156.80 0.00v-3.20l-156.80 -0.00"/>
<path fill="currentColor"
	d="M105.13 346.67l111.30 0.00v-3.20l-111.30 -0.00"/>
<use x="63.83" y="334.67" xlink:href="#hd"/>
<path d="M60.33 334.67v16.00" stroke="currentColor" fill="none"/>
<use x="86.23" y="331.67" xlink:href="#hd"/>
<path d="M82.73 331.67v19.00" stroke="currentColor" fill="none"/>
<use x="108.63" y="328.67" xlink:href="#hd"/>
<path d="M105.13 328.67v22.00" stroke="currentColor" fill="none"/>
<use x="124.53" y="325.67" xlink:href="#hd"/>
<path d="M121.03 325.67v25.00" stroke="currentColor" fill="none"/>
<use x="140.43" y="322.67" xlink:href="#hd"/>
<path d="M136.93 322.67v28.00" stroke="currentColor" fill="none"/>
<use x="156.33" y="328.67" xlink:href="#hd"/>
<path d="M152.83 328.67v22.00" stroke="currentColor" fill="none"/>
<use x="172.23" y="325.67" xlink:href="#hd"/>
<path d="M168.73 325.67v25.00" stroke="currentColor" fill="none"/>
<use x="188.13" y="331.67" xlink:href="#hd"/>
<path d="M184.63 331.67v19.00" stroke="currentColor" fill="none"/>
<use x="204.03" y="325.67" xlink:href="#hd"/>
<path d="M200.53 325.67v25.00" stroke="currentColor" fill="none"/>
<use x="219.93" y="319.67" xlink:href="#hl"/>
<use x="219.93" y="319.67" xlink:href="#hd"/>
<path d="M216.43 319.67v31.00" stroke="currentColor" fill="none"/>
<path fill="currentColor"
	d="M242.83 351.67l153.50 0.00v-3.20l-153.50 -0.00"/>
<path fill="currentColor"
	d="M268.83 346.67l127.20 0.00v-3.20l-127.20 -0.00"/>
<use x="246.73" y="322.67" xlink:href="#hd"/>
<circle fill="currentColor" cx="254.73" cy="322.67" r="1.2"/>
<path d="M243.23 322.67v28.00" stroke="currentColor" fill="none"/>
<use x="272.33" y="322.67" xlink:href="#hd"/>
<path d="M268.83 322.67v28.00" stroke="currentColor" fill="none"/>
<use x="288.23" y="319.67" xlink:href="#hl"/>
<use x="288.23" y="316.67" xlink:href="#hd"/>
<path d="M284.73 316.67v34.00" stroke="currentColor" fill="none"/>
<use x="304.13" y="319.67" xlink:href="#hl"/>
<use x="304.13" y="319.67" xlink:href="#hd"/>
<path d="M300.63 319.67v31.00" stroke="currentColor" fill="none"/>
<use x="320.03" y="322.67" xlink:href="#hd"/>
<path d="M316.53 322.67v28.00" stroke="currentColor" fill="none"/>
<use x="335.93" y="325.67" xlink:href="#hd"/>
<path d="M332.43 325.67v25.00" stroke="currentColor" fill="none"/>
<use x="351.83" y="328.67" xlink:href="#hd"/>
<path d="M348.33 328.67v22.00" stroke="currentColor" fill="none"/>
<use x="367.73" y="325.67" xlink:href="#hd"/>
<path d="M364.23 325.67v25.00" stroke="currentColor" fill="none"/>
<use x="383.63" y="322.67" xlink:href="#hd"/>
<path d="M380.13 322.67v28.00" stroke="currentColor" fill="none"/>
<use x="399.53" y="328.67" xlink:href="#hd"/>
<path d="M396.03 328.67v22.00" stroke="currentColor" fill="none"/>
<path fill="currentColor"
	d="M422.43 357.67l131.50 0.00v-3.20l-131.50 -0.00"/>
<path fill="currentColor"
	d="M422.73 352.67l47.70 0.00v-3.20l-47.70 -0.00"/>
<use x="426.23" y="331.67" xlink:href="#hd"/>
<path d="M422.73 331.67v25.00" stroke="currentColor" fill="none"/>
<use x="442.13" y="334.67" xlink:href="#hd"/>
<path d="M438.63 334.67v22.00" stroke="currentColor" fill="none"/>
<use x="458.03" y="331.67" xlink:href="#hd"/>
<path d="M454.53 331.67v25.00" stroke="currentColor" fill="none"/>
<use x="473.93" y="325.67" xlink:href="#hd"/>
<path d="M470.43 325.67v31.00" stroke="currentColor" fill="none"/>
<use x="489.83" y="319.67" xlink:href="#hl"/>
<use x="489.83" y="319.67" xlink:href="#hd"/>
<path d="M486.33 319.67v37.00" stroke="currentColor" fill="none"/>
<use x="512.23" y="325.67" xlink:href="#hd"/>
<path d="M508.73 325.67v31.00" stroke="currentColor" fill="none"/>
<use x="534.63" y="328.67" xlink:href="#hd"/>
<path d="M531.13 328.67v28.00" stroke="currentColor" fill="none"/>
<use x="557.13" y="331.67" xlink:href="#hd"/>
<path d="M553.63 331.67v25.00" stroke="currentColor" fill="none"/>
<path fill="currentColor"
	d="M585.83 357.67l48.40 0.00v-3.20l-48.40 -0.00"/>
<path fill="currentColor"
	d="M586.13 352.67l47.70 0.00v-3.20l-47.70 -0.00"/>
<use x="589.63" y="334.67" xlink:href="#hd"/>
<path d="M586.13 334.67v22.00" stroke="currentColor" fill="none"/>
<use x="605.53" y="331.67" xlink:href="#hd"/>
<path d="M602.03 331.67v25.00" stroke="currentColor" fill="none"/>
<use x="621.43" y="328.67" xlink:href="#hd"/>
<path d="M617.93 328.67v28.00" stroke="currentColor" fill="none"/>
<use x="637.33" y="334.67" xlink:href="#hd"/>
<path d="M633.83 334.67v22.00" stroke="currentColor" fill="none"/>
<defs>
<path id="Hd" fill="currentColor" d="m3 -1.6
	c-1 -1.8 -7 1.4 -6 3.2
	c1 1.8 7 -1.4 6 -3.2
	m0.5 -0.3
	c2 3.8 -5 7.6 -7 3.8
	c-2 -3.8 5 -7.6 7 -3.8"/>
</defs>
<use x="654.93" y="331.67" xlink:href="#Hd"/>
<path d="M651.43 331.67v20.00" stroke="currentColor" fill="none"/>
</g>
</svg>
