<?xml version="1.0" standalone="no"?>
<!DOCTYPE svg PUBLIC "-//W3C//DTD SVG 1.1//EN"
	"http://www.w3.org/Graphics/SVG/1.1/DTD/svg11.dtd">
<svg xmlns="http://www.w3.org/2000/svg" version="1.1"
	xmlns:xlink="http://www.w3.org/1999/xlink"
	xml:space='preserve' color="black"
	width="7.38in" height="1.60in" viewBox="0 0 531 115">
<title>data/results/biggest_11/abc/122.abc (122) tune 1</title>
<!-- Creator: abcm2ps-7.8.14 -->
<!-- CreationDate: Aug  9, 2015 23:50 -->
<!-- CommandLine: -g data/results/biggest_11/abc/122.abc -O /home/allanino/Dropbox/Trabalhos/folkme/svg/122.svg -->
<g transform="scale(0.750)" stroke-width="0.70" font-family="Times" font-size="20.00">
<text x="354.13" y="21.67" text-anchor="middle">Mazurka FBb</text>
</g>
<g transform="scale(0.750)" stroke-width="0.70" font-family="Times" font-size="16.00">
<text x="354.13" y="41.30" text-anchor="middle">Hanny Christen. Bd.IX Uri II, Schwyz, Unterwalden I S.423 (wz10825) orig. F,Bb-Dur</text>
<path stroke="currentColor" fill="none"
	d="M114.73 130.84v-24.00"/>
<path stroke="currentColor" fill="none"
	d="M171.93 130.84v-24.00"/>
<path stroke="currentColor" fill="none"
	d="M233.13 130.84v-24.00"/>
<path stroke="currentColor" fill="none"
	d="M291.53 130.84v-24.00"/>
<path stroke="currentColor" fill="none"
	d="M352.43 130.84v-24.00"/>
<path stroke="currentColor" fill="none"
	d="M404.83 130.84v-24.00"/>
<path stroke="currentColor" fill="none"
	d="M462.03 130.84v-24.00"/>
<path stroke="currentColor" fill="none"
	d="M520.13 130.84v-24.00"/>
<path stroke="currentColor" fill="none"
	d="M572.53 130.84v-24.00"/>
<path stroke="currentColor" fill="none" stroke-width="3"
	d="M637.93 130.84v-24.00"/>
<path stroke="currentColor" fill="none"
	d="M633.43 130.84v-24.00"/>
<defs>
<g id="rdots" fill="currentColor">
	<circle cx="0" cy="-9" r="1.2"/>
	<circle cx="0" cy="-15" r="1.2"/>
</g>
</defs>
<use x="629.43" y="130.84" xlink:href="#rdots"/>
<path stroke="currentColor" fill="none" stroke-width="3"
	d="M693.43 130.84v-24.00"/>
<path stroke="currentColor" fill="none"
	d="M688.93 130.84v-24.00"/>
<path stroke="currentColor" fill="none"
	d="M13.33 130.84h681.60m-681.60 -6h681.60m-681.60 -6h681.60m-681.60 -6h681.60m-681.60 -6h681.60"/>
</g>
<g transform="scale(0.750)" stroke-width="0.70" font-family="Helvetica" font-size="12.00">
<text x="61.43" y="83.44">F</text>
<text x="119.03" y="83.44">C7</text>
<text x="240.63" y="83.44">F</text>
<text x="356.73" y="83.44">C7</text>
<text x="585.53" y="83.44">F</text>
<text x="652.33" y="83.44">F</text>
</g>
<g transform="scale(0.750)" stroke-width="0.70" font-family="Times" font-size="13.00">
<text x="576.53" y="83.24">1</text>
<path stroke="currentColor" fill="none"
	d="M572.53 71.84v20M572.53 71.84h58.90v20"/>
<text x="643.43" y="83.24">2</text>
<path stroke="currentColor" fill="none"
	d="M639.43 71.84v20M639.43 71.84h55.50v20"/>
<defs>
<path id="utclef" fill="currentColor" d="m-50 -90
	c-72 -41 -72 -158 52 -188
	c150 -10 220 188 90 256
	c-114 52 -275 0 -293 -136
	c-15 -181 93 -229 220 -334
	c88 -87 79 -133 62 -210
	c-51 33 -94 105 -89 186
	c17 267 36 374 49 574
	c6 96 -19 134 -77 135
	c-80 1 -126 -93 -61 -133
	c85 -41 133 101 31 105
	c23 17 92 37 90 -92
	c-10 -223 -39 -342 -50 -617
	c0 -90 0 -162 96 -232
	c56 72 63 230 22 289
	c-74 106 -257 168 -255 316
	c9 153 148 185 252 133
	c86 -65 29 -192 -80 -176
	c-71 12 -105 67 -59 124"/>
<use id="tclef" transform="scale(0.045)"
	xlink:href="#utclef"/>
</defs>
<use x="21.73" y="130.84" xlink:href="#tclef"/>
<defs>
<path id="uflat" fill="currentColor" d="
	m100 -746
	h32
	v734
	l-32 4
	m32 -332
	c46 -72 152 -90 208 -20
	c100 110 -120 326 -208 348
	m0 -28
	c54 0 200 -206 130 -290
	c-50 -60 -130 -4 -130 34"/>
<use id="ft0" transform="translate(-3.5,3.5) scale(0.018)"
	xlink:href="#uflat"/>
</defs>
<use x="35.93" y="118.84" xlink:href="#ft0"/>
<g font-family="serif" font-size="16" font-weight="bold" font-style="normal"
	transform="translate(49.33,130.84) scale(1.2,1)">
	<text y="-1" text-anchor="middle">4</text>
	<text y="-13" text-anchor="middle">3</text>
</g>
<path fill="currentColor"
	d="M60.53 141.04l43.20 0.00v-3.20l-43.20 -0.00"/>
<defs>
<ellipse id="hd" rx="4.1" ry="2.9"
	transform="rotate(-20)" fill="currentColor"/>
</defs>
<use x="64.33" y="121.84" xlink:href="#hd"/>
<path d="M60.83 121.84v18.20" stroke="currentColor" fill="none"/>
<use x="72.83" y="106.84" xlink:href="#hd"/>
<path d="M69.33 106.84v33.20" stroke="currentColor" fill="none"/>
<use x="81.33" y="106.84" xlink:href="#hd"/>
<path d="M77.83 106.84v33.20" stroke="currentColor" fill="none"/>
<use x="89.83" y="121.84" xlink:href="#hd"/>
<path d="M86.33 121.84v18.20" stroke="currentColor" fill="none"/>
<use x="98.33" y="115.84" xlink:href="#hd"/>
<path d="M94.83 115.84v24.20" stroke="currentColor" fill="none"/>
<use x="106.83" y="106.84" xlink:href="#hd"/>
<path d="M103.33 106.84v33.20" stroke="currentColor" fill="none"/>
<use x="125.23" y="109.84" xlink:href="#hd"/>
<path d="M121.73 109.84v20.00" stroke="currentColor" fill="none"/>
<path fill="currentColor"
	d="M134.73 144.14l26.20 -5.10v-3.20l-26.20 5.10"/>
<use x="138.53" y="124.84" xlink:href="#hd"/>
<path d="M135.03 124.84v18.20" stroke="currentColor" fill="none"/>
<use x="147.03" y="115.84" xlink:href="#hd"/>
<path d="M143.53 115.84v25.50" stroke="currentColor" fill="none"/>
<use x="155.53" y="115.84" xlink:href="#hd"/>
<path d="M152.03 115.84v23.90" stroke="currentColor" fill="none"/>
<use x="164.03" y="109.84" xlink:href="#hd"/>
<path d="M160.53 109.84v28.20" stroke="currentColor" fill="none"/>
<path fill="currentColor"
	d="M178.63 131.04l43.40 0.00v-3.20l-43.40 -0.00"/>
<use x="182.43" y="109.84" xlink:href="#hd"/>
<path d="M178.93 109.84v20.20" stroke="currentColor" fill="none"/>
<defs>
<path id="hl" stroke="currentColor" d="m-6 0h12"/>
</defs>
<use x="190.93" y="100.84" xlink:href="#hl"/>
<use x="190.93" y="97.84" xlink:href="#hd"/>
<path d="M187.43 97.84v32.20" stroke="currentColor" fill="none"/>
<use x="199.43" y="112.84" xlink:href="#hd"/>
<path d="M195.93 112.84v17.20" stroke="currentColor" fill="none"/>
<use x="207.93" y="100.84" xlink:href="#hl"/>
<use x="207.93" y="97.84" xlink:href="#hd"/>
<path d="M204.43 97.84v32.20" stroke="currentColor" fill="none"/>
<use x="216.73" y="100.84" xlink:href="#hl"/>
<use x="216.73" y="100.84" xlink:href="#hd"/>
<path d="M213.23 100.84v29.20" stroke="currentColor" fill="none"/>
<use x="225.23" y="103.84" xlink:href="#hd"/>
<path d="M221.73 103.84v26.20" stroke="currentColor" fill="none"/>
<path fill="currentColor"
	d="M239.73 126.14l9.20 -2.70v-3.20l-9.20 2.70"/>
<use x="243.53" y="106.84" xlink:href="#hd"/>
<path d="M240.03 106.84v18.20" stroke="currentColor" fill="none"/>
<use x="252.03" y="100.84" xlink:href="#hl"/>
<use x="252.03" y="100.84" xlink:href="#hd"/>
<path d="M248.53 100.84v21.70" stroke="currentColor" fill="none"/>
<use x="261.53" y="100.84" xlink:href="#hl"/>
<use x="261.53" y="94.84" xlink:href="#hl"/>
<use x="261.53" y="94.84" xlink:href="#hd"/>
<path d="M258.03 94.84v24.00" stroke="currentColor" fill="none"/>
<path fill="currentColor"
	d="M271.03 119.14l9.50 1.50v-3.20l-9.50 -1.50"/>
<use x="274.83" y="100.84" xlink:href="#hl"/>
<use x="274.83" y="97.84" xlink:href="#hd"/>
<path d="M271.33 97.84v20.30" stroke="currentColor" fill="none"/>
<use x="283.63" y="100.84" xlink:href="#hl"/>
<use x="283.63" y="100.84" xlink:href="#hd"/>
<path d="M280.13 100.84v18.70" stroke="currentColor" fill="none"/>
<path fill="currentColor"
	d="M298.23 133.84l43.20 0.00v-3.20l-43.20 -0.00"/>
<use x="302.03" y="115.84" xlink:href="#hd"/>
<path d="M298.53 115.84v17.00" stroke="currentColor" fill="none"/>
<use x="310.53" y="106.84" xlink:href="#hd"/>
<path d="M307.03 106.84v26.00" stroke="currentColor" fill="none"/>
<use x="319.03" y="100.84" xlink:href="#hl"/>
<use x="319.03" y="100.84" xlink:href="#hd"/>
<path d="M315.53 100.84v32.00" stroke="currentColor" fill="none"/>
<use x="327.53" y="115.84" xlink:href="#hd"/>
<path d="M324.03 115.84v17.00" stroke="currentColor" fill="none"/>
<use x="336.03" y="106.84" xlink:href="#hd"/>
<path d="M332.53 106.84v26.00" stroke="currentColor" fill="none"/>
<use x="344.53" y="100.84" xlink:href="#hl"/>
<use x="344.53" y="100.84" xlink:href="#hd"/>
<path d="M341.03 100.84v32.00" stroke="currentColor" fill="none"/>
<use x="362.93" y="100.84" xlink:href="#hl"/>
<use x="362.93" y="97.84" xlink:href="#hd"/>
<path d="M359.43 97.84v21.00" stroke="currentColor" fill="none"/>
<path fill="currentColor"
	d="M372.43 129.14l9.20 -2.70v-3.20l-9.20 2.70"/>
<use x="376.23" y="109.84" xlink:href="#hd"/>
<path d="M372.73 109.84v18.20" stroke="currentColor" fill="none"/>
<use x="384.73" y="103.84" xlink:href="#hd"/>
<path d="M381.23 103.84v21.70" stroke="currentColor" fill="none"/>
<use x="394.13" y="109.84" xlink:href="#hd"/>
<path d="M390.63 109.84v20.00" stroke="currentColor" fill="none"/>
<use x="415.33" y="100.84" xlink:href="#hl"/>
<use x="415.33" y="94.84" xlink:href="#hl"/>
<use x="415.33" y="94.84" xlink:href="#hd"/>
<path d="M411.83 94.84v24.00" stroke="currentColor" fill="none"/>
<path fill="currentColor"
	d="M424.83 133.84l26.20 0.00v-3.20l-26.20 -0.00"/>
<use x="428.63" y="100.84" xlink:href="#hl"/>
<use x="428.63" y="97.84" xlink:href="#hd"/>
<path d="M425.13 97.84v35.00" stroke="currentColor" fill="none"/>
<use x="437.13" y="115.84" xlink:href="#hd"/>
<path d="M433.63 115.84v17.00" stroke="currentColor" fill="none"/>
<use x="445.63" y="109.84" xlink:href="#hd"/>
<path d="M442.13 109.84v23.00" stroke="currentColor" fill="none"/>
<use x="454.13" y="103.84" xlink:href="#hd"/>
<path d="M450.63 103.84v29.00" stroke="currentColor" fill="none"/>
<use x="472.53" y="100.84" xlink:href="#hl"/>
<use x="472.53" y="94.84" xlink:href="#hl"/>
<use x="472.53" y="94.84" xlink:href="#hd"/>
<path d="M469.03 94.84v24.00" stroke="currentColor" fill="none"/>
<path fill="currentColor"
	d="M482.03 119.04l27.00 0.00v-3.20l-27.00 -0.00"/>
<use x="485.83" y="100.84" xlink:href="#hl"/>
<use x="485.83" y="97.84" xlink:href="#hd"/>
<path d="M482.33 97.84v20.20" stroke="currentColor" fill="none"/>
<use x="494.63" y="100.84" xlink:href="#hl"/>
<use x="494.63" y="94.84" xlink:href="#hl"/>
<use x="494.63" y="94.84" xlink:href="#hd"/>
<path d="M491.13 94.84v23.20" stroke="currentColor" fill="none"/>
<use x="503.43" y="100.84" xlink:href="#hl"/>
<use x="503.43" y="94.84" xlink:href="#hl"/>
<use x="503.43" y="91.84" xlink:href="#hd"/>
<path d="M499.93 91.84v26.20" stroke="currentColor" fill="none"/>
<use x="512.23" y="100.84" xlink:href="#hl"/>
<use x="512.23" y="94.84" xlink:href="#hl"/>
<use x="512.23" y="94.84" xlink:href="#hd"/>
<path d="M508.73 94.84v23.20" stroke="currentColor" fill="none"/>
<path fill="currentColor"
	d="M526.73 129.14l9.20 -3.30v-3.20l-9.20 3.30"/>
<use x="530.63" y="109.84" xlink:href="#hd"/>
<path d="M527.13 109.84v18.20" stroke="currentColor" fill="none"/>
<use x="539.13" y="100.84" xlink:href="#hl"/>
<use x="539.13" y="94.84" xlink:href="#hl"/>
<use x="539.13" y="91.84" xlink:href="#hd"/>
<path d="M535.63 91.84v33.10" stroke="currentColor" fill="none"/>
<use x="548.53" y="100.84" xlink:href="#hl"/>
<use x="548.53" y="97.84" xlink:href="#hd"/>
<path d="M545.03 97.84v21.00" stroke="currentColor" fill="none"/>
<use x="561.83" y="100.84" xlink:href="#hl"/>
<use x="561.83" y="94.84" xlink:href="#hl"/>
<use x="561.83" y="94.84" xlink:href="#hd"/>
<path d="M558.33 94.84v24.00" stroke="currentColor" fill="none"/>
<use x="588.43" y="106.84" xlink:href="#hd"/>
<path d="M584.93 106.84v20.00" stroke="currentColor" fill="none"/>
<defs>
<path id="r4" fill="currentColor" d="m-1 -8.5
	l3.6 5.1 -2.1 5.2 2.2 4.3
	c-2.6 -2.3 -5.1 0 -2.4 2.6
	c-4.8 -3 -1.5 -6.9 1.4 -4.1
	l-3.1 -4.5 1.9 -5.1 -1.5 -3.5"/>
</defs>
<use x="601.73" y="118.84" xlink:href="#r4"/>
<path fill="currentColor"
	d="M616.93 101.24l9.20 -1.90v3.20l-9.20 1.90"/>
<use x="613.73" y="121.84" xlink:href="#hd"/>
<path d="M617.23 121.84v-19.60" stroke="currentColor" fill="none"/>
<use x="622.23" y="118.84" xlink:href="#hd"/>
<path d="M625.73 118.84v-18.40" stroke="currentColor" fill="none"/>
<use x="655.33" y="106.84" xlink:href="#hd"/>
<path d="M651.83 106.84v20.00" stroke="currentColor" fill="none"/>
<use x="668.63" y="118.84" xlink:href="#r4"/>
<use x="681.93" y="118.84" xlink:href="#r4"/>
</g>
</svg>
