<?xml version="1.0" standalone="no"?>
<!DOCTYPE svg PUBLIC "-//W3C//DTD SVG 1.1//EN"
	"http://www.w3.org/Graphics/SVG/1.1/DTD/svg11.dtd">
<svg xmlns="http://www.w3.org/2000/svg" version="1.1"
	xmlns:xlink="http://www.w3.org/1999/xlink"
	xml:space='preserve' color="black"
	width="7.38in" height="4.43in" viewBox="0 0 531 319">
<title>data/results/biggest_11/abc/123.abc (123) tune 1</title>
<!-- Creator: abcm2ps-7.8.14 -->
<!-- CreationDate: Aug  9, 2015 23:50 -->
<!-- CommandLine: -g data/results/biggest_11/abc/123.abc -O /home/allanino/Dropbox/Trabalhos/folkme/svg/123.svg -->
<g transform="scale(0.750)" stroke-width="0.70" font-family="Times" font-size="20.00">
<text x="354.13" y="21.67" text-anchor="middle">Bonnel&apos;s Corns &amp; Na girl</text>
</g>
<g transform="scale(0.750)" stroke-width="0.70" font-family="Times" font-size="16.00">
<text x="354.13" y="41.30" text-anchor="middle">44 The</text>
<defs>
<g id="rdots" fill="currentColor">
	<circle cx="0" cy="-9" r="1.2"/>
	<circle cx="0" cy="-15" r="1.2"/>
</g>
</defs>
<use x="137.93" y="116.84" xlink:href="#rdots"/>
<path stroke="currentColor" fill="none"
	d="M133.93 116.84v-24.00"/>
<path stroke="currentColor" fill="none" stroke-width="3"
	d="M129.43 116.84v-24.00"/>
<path stroke="currentColor" fill="none"
	d="M416.93 116.84v-24.00"/>
<path stroke="currentColor" fill="none"
	d="M694.93 116.84v-24.00"/>
<path stroke="currentColor" fill="none"
	d="M13.33 116.84h681.60m-681.60 -6h681.60m-681.60 -6h681.60m-681.60 -6h681.60m-681.60 -6h681.60"/>
<defs>
<path id="utclef" fill="currentColor" d="m-50 -90
	c-72 -41 -72 -158 52 -188
	c150 -10 220 188 90 256
	c-114 52 -275 0 -293 -136
	c-15 -181 93 -229 220 -334
	c88 -87 79 -133 62 -210
	c-51 33 -94 105 -89 186
	c17 267 36 374 49 574
	c6 96 -19 134 -77 135
	c-80 1 -126 -93 -61 -133
	c85 -41 133 101 31 105
	c23 17 92 37 90 -92
	c-10 -223 -39 -342 -50 -617
	c0 -90 0 -162 96 -232
	c56 72 63 230 22 289
	c-74 106 -257 168 -255 316
	c9 153 148 185 252 133
	c86 -65 29 -192 -80 -176
	c-71 12 -105 67 -59 124"/>
<use id="tclef" transform="scale(0.045)"
	xlink:href="#utclef"/>
</defs>
<use x="25.33" y="116.84" xlink:href="#tclef"/>
<defs>
<path id="usharp" fill="currentColor" d="
	m136 -702
	v890
	h32
	v-890
	m128 840
	h32
	v-888
	h-32
	m-232 286
	v116
	l338 -96
	v-116
	m-338 442
	v116
	l338 -98
	v-114"/>
<use id="sh0" transform="translate(-4,5) scale(0.018)"
	xlink:href="#usharp"/>
</defs>
<use x="40.33" y="92.84" xlink:href="#sh0"/>
<defs>
<path id="csig" fill="currentColor" d="
	m1 -17.3
	c0.9 0 2.3 0.7 2.4 2.2
	c-1.2 -2 -3.6 0.1 -1.6 1.7
	c2 1 3.8 -3.5 -0.8 -4.7
	c-2 -0.4 -6.4 1.3 -5.8 7
	c0.4 6.4 7.9 6.8 9.1 0.7
	c-2.3 5.6 -6.7 5.1 -6.8 0
	c-0.5 -4.4 0.7 -7.5 3.5 -6.9"/>
<g id="ctsig">
	<use xlink:href="#csig"/>
	<path d="m0 -4v-16" stroke="currentColor"/>
</g>
</defs>
<use x="56.33" y="116.84" xlink:href="#ctsig"/>
<path fill="currentColor"
	d="M77.53 97.04l34.90 2.60v3.20l-34.90 -2.60"/>
<defs>
<ellipse id="hd" rx="4.1" ry="2.9"
	transform="rotate(-20)" fill="currentColor"/>
</defs>
<use x="74.33" y="116.84" xlink:href="#hd"/>
<path d="M77.83 116.84v-18.80" stroke="currentColor" fill="none"/>
<use x="108.53" y="119.84" xlink:href="#hd"/>
<path d="M112.03 119.84v-19.20" stroke="currentColor" fill="none"/>
<path fill="currentColor"
	d="M161.13 85.64l103.30 0.00v3.20l-103.30 -0.00"/>
<use x="157.93" y="110.84" xlink:href="#hd"/>
<path d="M161.43 110.84v-24.20" stroke="currentColor" fill="none"/>
<use x="192.13" y="107.84" xlink:href="#hd"/>
<path d="M195.63 107.84v-21.20" stroke="currentColor" fill="none"/>
<use x="226.33" y="104.84" xlink:href="#hd"/>
<path d="M229.83 104.84v-18.20" stroke="currentColor" fill="none"/>
<use x="260.63" y="107.84" xlink:href="#hd"/>
<path d="M264.13 107.84v-21.20" stroke="currentColor" fill="none"/>
<use x="298.63" y="110.84" xlink:href="#hd"/>
<path d="M302.13 110.84v-20.00" stroke="currentColor" fill="none"/>
<path fill="currentColor"
	d="M355.53 88.04l34.90 2.60v3.20l-34.90 -2.60"/>
<use x="352.33" y="107.84" xlink:href="#hd"/>
<path d="M355.83 107.84v-18.80" stroke="currentColor" fill="none"/>
<use x="386.53" y="110.84" xlink:href="#hd"/>
<path d="M390.03 110.84v-19.20" stroke="currentColor" fill="none"/>
<path fill="currentColor"
	d="M439.13 96.14l34.90 -4.50v3.20l-34.90 4.50"/>
<use x="435.93" y="116.84" xlink:href="#hd"/>
<path d="M439.43 116.84v-19.80" stroke="currentColor" fill="none"/>
<use x="470.13" y="110.84" xlink:href="#hd"/>
<path d="M473.63 110.84v-18.20" stroke="currentColor" fill="none"/>
<use x="508.13" y="110.84" xlink:href="#hd"/>
<path d="M511.63 110.84v-20.00" stroke="currentColor" fill="none"/>
<path fill="currentColor"
	d="M565.03 85.64l103.30 0.00v3.20l-103.30 -0.00"/>
<use x="561.93" y="110.84" xlink:href="#hd"/>
<path d="M565.43 110.84v-24.20" stroke="currentColor" fill="none"/>
<use x="596.13" y="107.84" xlink:href="#hd"/>
<path d="M599.63 107.84v-21.20" stroke="currentColor" fill="none"/>
<use x="630.33" y="104.84" xlink:href="#hd"/>
<path d="M633.83 104.84v-18.20" stroke="currentColor" fill="none"/>
<use x="664.53" y="107.84" xlink:href="#hd"/>
<path d="M668.03 107.84v-21.20" stroke="currentColor" fill="none"/>
<path stroke="currentColor" fill="none"
	d="M359.23 186.84v-24.00"/>
<path stroke="currentColor" fill="none"
	d="M694.93 186.84v-24.00"/>
<path stroke="currentColor" fill="none"
	d="M13.33 186.84h681.60m-681.60 -6h681.60m-681.60 -6h681.60m-681.60 -6h681.60m-681.60 -6h681.60"/>
<use x="25.33" y="186.84" xlink:href="#tclef"/>
<use x="40.33" y="162.84" xlink:href="#sh0"/>
<path fill="currentColor"
	d="M61.53 159.64l119.90 -4.10v3.20l-119.90 4.10"/>
<use x="58.33" y="180.84" xlink:href="#hd"/>
<path d="M61.83 180.84v-20.20" stroke="currentColor" fill="none"/>
<use x="98.13" y="186.84" xlink:href="#hd"/>
<path d="M101.63 186.84v-27.50" stroke="currentColor" fill="none"/>
<use x="137.83" y="180.84" xlink:href="#hd"/>
<path d="M141.33 180.84v-22.90" stroke="currentColor" fill="none"/>
<use x="177.63" y="174.84" xlink:href="#hd"/>
<path d="M181.13 174.84v-18.20" stroke="currentColor" fill="none"/>
<use x="221.73" y="177.84" xlink:href="#hd"/>
<path d="M225.23 177.84v-20.00" stroke="currentColor" fill="none"/>
<path fill="currentColor"
	d="M280.33 194.14l40.40 -4.70v-3.20l-40.40 4.70"/>
<use x="284.13" y="174.84" xlink:href="#hd"/>
<path d="M280.63 174.84v18.30" stroke="currentColor" fill="none"/>
<use x="323.93" y="168.84" xlink:href="#hd"/>
<path d="M320.43 168.84v19.70" stroke="currentColor" fill="none"/>
<path fill="currentColor"
	d="M377.53 191.34l278.90 12.20v-3.20l-278.90 -12.20"/>
<use x="381.33" y="165.84" xlink:href="#hd"/>
<path d="M377.83 165.84v24.50" stroke="currentColor" fill="none"/>
<use x="421.13" y="159.84" xlink:href="#hd"/>
<path d="M417.63 159.84v32.20" stroke="currentColor" fill="none"/>
<use x="460.83" y="168.84" xlink:href="#hd"/>
<path d="M457.33 168.84v25.00" stroke="currentColor" fill="none"/>
<use x="500.63" y="174.84" xlink:href="#hd"/>
<path d="M497.13 174.84v20.70" stroke="currentColor" fill="none"/>
<use x="540.33" y="174.84" xlink:href="#hd"/>
<path d="M536.83 174.84v22.50" stroke="currentColor" fill="none"/>
<use x="580.13" y="180.84" xlink:href="#hd"/>
<path d="M576.63 180.84v18.20" stroke="currentColor" fill="none"/>
<use x="619.83" y="180.84" xlink:href="#hd"/>
<path d="M616.33 180.84v19.90" stroke="currentColor" fill="none"/>
<use x="659.63" y="183.84" xlink:href="#hd"/>
<path d="M656.13 183.84v18.70" stroke="currentColor" fill="none"/>
<path stroke="currentColor" fill="none"
	d="M215.63 256.84v-24.00"/>
<path stroke="currentColor" fill="none"
	d="M392.13 256.84v-24.00"/>
<path stroke="currentColor" fill="none"
	d="M568.73 256.84v-24.00"/>
<path stroke="currentColor" fill="none" stroke-width="3"
	d="M693.43 256.84v-24.00"/>
<path stroke="currentColor" fill="none"
	d="M688.93 256.84v-24.00"/>
<use x="684.93" y="256.84" xlink:href="#rdots"/>
<path stroke="currentColor" fill="none"
	d="M13.33 256.84h681.60m-681.60 -6h681.60m-681.60 -6h681.60m-681.60 -6h681.60m-681.60 -6h681.60"/>
<use x="25.33" y="256.84" xlink:href="#tclef"/>
<use x="40.33" y="232.84" xlink:href="#sh0"/>
<path fill="currentColor"
	d="M61.53 235.54l21.50 -3.90v3.20l-21.50 3.90"/>
<use x="58.33" y="256.84" xlink:href="#hd"/>
<path d="M61.83 256.84v-20.40" stroke="currentColor" fill="none"/>
<use x="79.13" y="250.84" xlink:href="#hd"/>
<path d="M82.63 250.84v-18.20" stroke="currentColor" fill="none"/>
<use x="102.23" y="250.84" xlink:href="#hd"/>
<path d="M105.73 250.84v-20.00" stroke="currentColor" fill="none"/>
<path fill="currentColor"
	d="M137.83 225.64l63.10 0.00v3.20l-63.10 -0.00"/>
<use x="134.73" y="247.84" xlink:href="#hd"/>
<path d="M138.23 247.84v-21.20" stroke="currentColor" fill="none"/>
<use x="155.53" y="244.84" xlink:href="#hd"/>
<path d="M159.03 244.84v-18.20" stroke="currentColor" fill="none"/>
<use x="176.23" y="247.84" xlink:href="#hd"/>
<path d="M179.73 247.84v-21.20" stroke="currentColor" fill="none"/>
<use x="197.03" y="250.84" xlink:href="#hd"/>
<path d="M200.53 250.84v-24.20" stroke="currentColor" fill="none"/>
<path fill="currentColor"
	d="M231.23 222.64l146.20 0.00v3.20l-146.20 -0.00"/>
<use x="228.13" y="256.84" xlink:href="#hd"/>
<path d="M231.63 256.84v-33.20" stroke="currentColor" fill="none"/>
<use x="248.93" y="241.84" xlink:href="#hd"/>
<path d="M252.43 241.84v-18.20" stroke="currentColor" fill="none"/>
<use x="269.63" y="244.84" xlink:href="#hd"/>
<path d="M273.13 244.84v-21.20" stroke="currentColor" fill="none"/>
<use x="290.43" y="247.84" xlink:href="#hd"/>
<path d="M293.93 247.84v-24.20" stroke="currentColor" fill="none"/>
<use x="311.23" y="250.84" xlink:href="#hd"/>
<path d="M314.73 250.84v-27.20" stroke="currentColor" fill="none"/>
<use x="332.03" y="256.84" xlink:href="#hd"/>
<path d="M335.53 256.84v-33.20" stroke="currentColor" fill="none"/>
<use x="352.83" y="259.84" xlink:href="#hd"/>
<path d="M356.33 259.84v-36.20" stroke="currentColor" fill="none"/>
<use x="373.63" y="256.84" xlink:href="#hd"/>
<path d="M377.13 256.84v-33.20" stroke="currentColor" fill="none"/>
<path fill="currentColor"
	d="M407.83 219.64l146.20 0.00v3.20l-146.20 -0.00"/>
<use x="404.63" y="250.84" xlink:href="#hd"/>
<path d="M408.13 250.84v-30.20" stroke="currentColor" fill="none"/>
<use x="425.43" y="247.84" xlink:href="#hd"/>
<path d="M428.93 247.84v-27.20" stroke="currentColor" fill="none"/>
<use x="446.23" y="244.84" xlink:href="#hd"/>
<path d="M449.73 244.84v-24.20" stroke="currentColor" fill="none"/>
<use x="467.03" y="238.84" xlink:href="#hd"/>
<path d="M470.53 238.84v-18.20" stroke="currentColor" fill="none"/>
<use x="487.83" y="247.84" xlink:href="#hd"/>
<path d="M491.33 247.84v-27.20" stroke="currentColor" fill="none"/>
<use x="508.63" y="244.84" xlink:href="#hd"/>
<path d="M512.13 244.84v-24.20" stroke="currentColor" fill="none"/>
<use x="529.43" y="238.84" xlink:href="#hd"/>
<path d="M532.93 238.84v-18.20" stroke="currentColor" fill="none"/>
<use x="550.23" y="244.84" xlink:href="#hd"/>
<path d="M553.73 244.84v-24.20" stroke="currentColor" fill="none"/>
<use x="581.23" y="247.84" xlink:href="#hd"/>
<path d="M584.73 247.84v-20.00" stroke="currentColor" fill="none"/>
<path fill="currentColor"
	d="M616.83 231.54l21.50 3.90v3.20l-21.50 -3.90"/>
<use x="613.73" y="250.84" xlink:href="#hd"/>
<path d="M617.23 250.84v-18.20" stroke="currentColor" fill="none"/>
<use x="634.53" y="256.84" xlink:href="#hd"/>
<path d="M638.03 256.84v-20.40" stroke="currentColor" fill="none"/>
<defs>
<path id="Hd" fill="currentColor" d="m3 -1.6
	c-1 -1.8 -7 1.4 -6 3.2
	c1 1.8 7 -1.4 6 -3.2
	m0.5 -0.3
	c2 3.8 -5 7.6 -7 3.8
	c-2 -3.8 5 -7.6 7 -3.8"/>
</defs>
<use x="657.63" y="259.84" xlink:href="#Hd"/>
<path d="M661.13 259.84v-20.00" stroke="currentColor" fill="none"/>
<defs>
<path id="grm" fill="currentColor" d="
	m-5 -2.5
	c5 -8.5 5.5 4.5 10 -2
	c-5 8.5 -5.5 -4.5 -10 2"/>
</defs>
<use x="102.23" y="226.84" xlink:href="#grm"/>
<use x="64.83" y="326.84" xlink:href="#rdots"/>
<path stroke="currentColor" fill="none"
	d="M60.83 326.84v-24.00"/>
<path stroke="currentColor" fill="none" stroke-width="3"
	d="M56.33 326.84v-24.00"/>
<path stroke="currentColor" fill="none"
	d="M219.93 326.84v-24.00"/>
<path stroke="currentColor" fill="none"
	d="M383.43 326.84v-24.00"/>
<path stroke="currentColor" fill="none"
	d="M532.83 326.84v-24.00"/>
<path stroke="currentColor" fill="none"
	d="M694.93 326.84v-24.00"/>
<path stroke="currentColor" fill="none"
	d="M13.33 326.84h681.60m-681.60 -6h681.60m-681.60 -6h681.60m-681.60 -6h681.60m-681.60 -6h681.60"/>
<use x="25.33" y="326.84" xlink:href="#tclef"/>
<use x="40.33" y="302.84" xlink:href="#sh0"/>
<path fill="currentColor"
	d="M74.53 326.44l42.00 4.70v-3.20l-42.00 -4.70"/>
<use x="78.33" y="305.84" xlink:href="#hd"/>
<path d="M74.83 305.84v19.70" stroke="currentColor" fill="none"/>
<use x="98.83" y="308.84" xlink:href="#hd"/>
<path d="M95.33 308.84v19.00" stroke="currentColor" fill="none"/>
<use x="119.63" y="311.84" xlink:href="#hd"/>
<use x="110.63" y="311.84" xlink:href="#sh0"/>
<path d="M116.13 311.84v18.30" stroke="currentColor" fill="none"/>
<use x="142.43" y="314.84" xlink:href="#hd"/>
<path d="M138.93 314.84v20.00" stroke="currentColor" fill="none"/>
<use x="171.23" y="317.84" xlink:href="#hd"/>
<path d="M174.73 317.84v-20.00" stroke="currentColor" fill="none"/>
<path fill="currentColor"
	d="	M174.73 297.84c0.6 5.6 9.6 9 5.6 18.4
	c1.6 -6 -1.3 -11.6 -5.6 -12.8
"/>
<use x="194.23" y="320.84" xlink:href="#hd"/>
<path d="M197.73 320.84v-20.00" stroke="currentColor" fill="none"/>
<path fill="currentColor"
	d="M235.63 299.84l103.20 0.00v3.20l-103.20 -0.00"/>
<use x="232.43" y="329.84" xlink:href="#hd"/>
<path d="M235.93 329.84v-29.00" stroke="currentColor" fill="none"/>
<use x="252.93" y="326.84" xlink:href="#hd"/>
<path d="M256.43 326.84v-26.00" stroke="currentColor" fill="none"/>
<use x="273.43" y="320.84" xlink:href="#hd"/>
<path d="M276.93 320.84v-20.00" stroke="currentColor" fill="none"/>
<use x="293.93" y="317.84" xlink:href="#hd"/>
<path d="M297.43 317.84v-17.00" stroke="currentColor" fill="none"/>
<use x="314.43" y="320.84" xlink:href="#hd"/>
<path d="M317.93 320.84v-20.00" stroke="currentColor" fill="none"/>
<use x="334.93" y="326.84" xlink:href="#hd"/>
<path d="M338.43 326.84v-26.00" stroke="currentColor" fill="none"/>
<use x="357.73" y="329.84" xlink:href="#hd"/>
<path d="M361.23 329.84v-20.00" stroke="currentColor" fill="none"/>
<use x="395.93" y="320.84" xlink:href="#hd"/>
<circle fill="currentColor" cx="403.93" cy="317.84" r="1.2"/>
<path d="M399.43 320.84v-20.00" stroke="currentColor" fill="none"/>
<path fill="currentColor"
	d="M435.73 302.34l82.70 -6.70v3.20l-82.70 6.70"/>
<use x="432.53" y="326.84" xlink:href="#hd"/>
<path d="M436.03 326.84v-23.60" stroke="currentColor" fill="none"/>
<use x="453.03" y="329.84" xlink:href="#hd"/>
<path d="M456.53 329.84v-28.20" stroke="currentColor" fill="none"/>
<use x="473.53" y="326.84" xlink:href="#hd"/>
<path d="M477.03 326.84v-26.90" stroke="currentColor" fill="none"/>
<use x="494.03" y="320.84" xlink:href="#hd"/>
<path d="M497.53 320.84v-22.50" stroke="currentColor" fill="none"/>
<use x="514.53" y="314.84" xlink:href="#hd"/>
<path d="M518.03 314.84v-18.20" stroke="currentColor" fill="none"/>
<use x="545.33" y="305.84" xlink:href="#hd"/>
<path d="M541.83 305.84v20.00" stroke="currentColor" fill="none"/>
<path fill="currentColor"
	d="M577.33 289.64l103.20 7.70v3.20l-103.20 -7.70"/>
<use x="574.13" y="308.84" xlink:href="#hd"/>
<path d="M577.63 308.84v-18.20" stroke="currentColor" fill="none"/>
<use x="594.63" y="314.84" xlink:href="#hd"/>
<path d="M598.13 314.84v-22.70" stroke="currentColor" fill="none"/>
<use x="615.13" y="317.84" xlink:href="#hd"/>
<path d="M618.63 317.84v-24.10" stroke="currentColor" fill="none"/>
<use x="635.63" y="314.84" xlink:href="#hd"/>
<path d="M639.13 314.84v-19.60" stroke="currentColor" fill="none"/>
<use x="656.13" y="320.84" xlink:href="#hd"/>
<path d="M659.63 320.84v-24.10" stroke="currentColor" fill="none"/>
<use x="676.63" y="326.84" xlink:href="#hd"/>
<path d="M680.13 326.84v-28.50" stroke="currentColor" fill="none"/>
<use x="142.43" y="300.84" xlink:href="#grm"/>
<use x="395.93" y="296.84" xlink:href="#grm"/>
<path stroke="currentColor" fill="none"
	d="M180.73 401.84v-24.00"/>
<path stroke="currentColor" fill="none"
	d="M328.63 401.84v-24.00"/>
<path stroke="currentColor" fill="none"
	d="M476.53 401.84v-24.00"/>
<path stroke="currentColor" fill="none" stroke-width="3"
	d="M588.83 401.84v-24.00"/>
<path stroke="currentColor" fill="none"
	d="M584.33 401.84v-24.00"/>
<use x="580.33" y="401.84" xlink:href="#rdots"/>
<path stroke="currentColor" fill="none"
	d="M694.93 401.84v-24.00"/>
<path stroke="currentColor" fill="none"
	d="M691.93 401.84v-24.00"/>
<path stroke="currentColor" fill="none"
	d="M13.33 401.84h681.60m-681.60 -6h681.60m-681.60 -6h681.60m-681.60 -6h681.60m-681.60 -6h681.60"/>
</g>
<g transform="scale(0.750)" stroke-width="0.70" font-family="Times" font-size="13.00">
<text x="480.53" y="363.24">1</text>
<path stroke="currentColor" fill="none"
	d="M476.53 351.84v20M476.53 351.84h105.80v20"/>
<text x="594.33" y="363.24">2</text>
<path stroke="currentColor" fill="none"
	d="M590.33 351.84v20M590.33 351.84h104.60v20"/>
<use x="25.33" y="401.84" xlink:href="#tclef"/>
<use x="40.33" y="377.84" xlink:href="#sh0"/>
<path fill="currentColor"
	d="M61.53 376.54l17.80 3.70v3.20l-17.80 -3.70"/>
<use x="58.33" y="395.84" xlink:href="#hd"/>
<path d="M61.83 395.84v-18.20" stroke="currentColor" fill="none"/>
<use x="75.43" y="401.84" xlink:href="#hd"/>
<path d="M78.93 401.84v-20.70" stroke="currentColor" fill="none"/>
<use x="94.43" y="401.84" xlink:href="#hd"/>
<path d="M97.93 401.84v-20.00" stroke="currentColor" fill="none"/>
<use x="120.93" y="395.84" xlink:href="#hd"/>
<path d="M124.43 395.84v-20.00" stroke="currentColor" fill="none"/>
<path fill="currentColor"
	d="M151.33 375.54l17.80 -2.30v3.20l-17.80 2.30"/>
<use x="148.23" y="395.84" xlink:href="#hd"/>
<use x="139.23" y="395.84" xlink:href="#sh0"/>
<path d="M151.73 395.84v-19.40" stroke="currentColor" fill="none"/>
<use x="165.33" y="392.84" xlink:href="#hd"/>
<path d="M168.83 392.84v-18.60" stroke="currentColor" fill="none"/>
<path fill="currentColor"
	d="M196.43 364.64l120.70 0.00v3.20l-120.70 -0.00"/>
<use x="193.23" y="389.84" xlink:href="#hd"/>
<path d="M196.73 389.84v-24.20" stroke="currentColor" fill="none"/>
<use x="210.33" y="392.84" xlink:href="#hd"/>
<path d="M213.83 392.84v-27.20" stroke="currentColor" fill="none"/>
<use x="227.53" y="395.84" xlink:href="#hd"/>
<path d="M231.03 395.84v-30.20" stroke="currentColor" fill="none"/>
<use x="244.63" y="392.84" xlink:href="#hd"/>
<path d="M248.13 392.84v-27.20" stroke="currentColor" fill="none"/>
<use x="261.83" y="389.84" xlink:href="#hd"/>
<path d="M265.33 389.84v-24.20" stroke="currentColor" fill="none"/>
<use x="278.93" y="386.84" xlink:href="#hd"/>
<path d="M282.43 386.84v-21.20" stroke="currentColor" fill="none"/>
<use x="296.13" y="383.84" xlink:href="#hd"/>
<path d="M299.63 383.84v-18.20" stroke="currentColor" fill="none"/>
<use x="313.23" y="389.84" xlink:href="#hd"/>
<path d="M316.73 389.84v-24.20" stroke="currentColor" fill="none"/>
<path fill="currentColor"
	d="M344.33 370.64l120.70 0.00v3.20l-120.70 -0.00"/>
<use x="341.13" y="392.84" xlink:href="#hd"/>
<path d="M344.63 392.84v-21.20" stroke="currentColor" fill="none"/>
<use x="358.23" y="389.84" xlink:href="#hd"/>
<path d="M361.73 389.84v-18.20" stroke="currentColor" fill="none"/>
<use x="375.43" y="395.84" xlink:href="#hd"/>
<path d="M378.93 395.84v-24.20" stroke="currentColor" fill="none"/>
<use x="392.53" y="401.84" xlink:href="#hd"/>
<path d="M396.03 401.84v-30.20" stroke="currentColor" fill="none"/>
<use x="409.73" y="404.84" xlink:href="#hd"/>
<path d="M413.23 404.84v-33.20" stroke="currentColor" fill="none"/>
<use x="426.83" y="401.84" xlink:href="#hd"/>
<path d="M430.33 401.84v-30.20" stroke="currentColor" fill="none"/>
<use x="444.03" y="395.84" xlink:href="#hd"/>
<path d="M447.53 395.84v-24.20" stroke="currentColor" fill="none"/>
<use x="461.13" y="392.84" xlink:href="#hd"/>
<path d="M464.63 392.84v-21.20" stroke="currentColor" fill="none"/>
<path fill="currentColor"
	d="M492.23 370.64l52.10 5.60v3.20l-52.10 -5.60"/>
<use x="489.03" y="389.84" xlink:href="#hd"/>
<path d="M492.53 389.84v-18.20" stroke="currentColor" fill="none"/>
<use x="506.13" y="392.84" xlink:href="#hd"/>
<path d="M509.63 392.84v-19.40" stroke="currentColor" fill="none"/>
<use x="523.33" y="395.84" xlink:href="#hd"/>
<path d="M526.83 395.84v-20.50" stroke="currentColor" fill="none"/>
<use x="540.43" y="401.84" xlink:href="#hd"/>
<path d="M543.93 401.84v-24.70" stroke="currentColor" fill="none"/>
<use x="559.53" y="401.84" xlink:href="#Hd"/>
<path d="M563.03 401.84v-20.00" stroke="currentColor" fill="none"/>
<path fill="currentColor"
	d="M606.03 370.64l52.10 5.60v3.20l-52.10 -5.60"/>
<use x="602.83" y="389.84" xlink:href="#hd"/>
<path d="M606.33 389.84v-18.20" stroke="currentColor" fill="none"/>
<use x="620.03" y="392.84" xlink:href="#hd"/>
<path d="M623.53 392.84v-19.40" stroke="currentColor" fill="none"/>
<use x="637.13" y="395.84" xlink:href="#hd"/>
<path d="M640.63 395.84v-20.50" stroke="currentColor" fill="none"/>
<use x="654.33" y="401.84" xlink:href="#hd"/>
<path d="M657.83 401.84v-24.70" stroke="currentColor" fill="none"/>
<use x="673.33" y="404.84" xlink:href="#hd"/>
<path d="M676.83 404.84v-20.00" stroke="currentColor" fill="none"/>
<use x="94.43" y="375.84" xlink:href="#grm"/>
</g>
</svg>
