<?xml version="1.0" standalone="no"?>
<!DOCTYPE svg PUBLIC "-//W3C//DTD SVG 1.1//EN"
	"http://www.w3.org/Graphics/SVG/1.1/DTD/svg11.dtd">
<svg xmlns="http://www.w3.org/2000/svg" version="1.1"
	xmlns:xlink="http://www.w3.org/1999/xlink"
	xml:space='preserve' color="black"
	width="7.38in" height="3.11in" viewBox="0 0 531 224">
<title>data/results/biggest_11/abc/13.abc (13) tune 1</title>
<!-- Creator: abcm2ps-7.8.14 -->
<!-- CreationDate: Aug  9, 2015 23:50 -->
<!-- CommandLine: -g data/results/biggest_11/abc/13.abc -O /home/allanino/Dropbox/Trabalhos/folkme/svg/13.svg -->
<g transform="scale(0.750)" stroke-width="0.70" font-family="Times" font-size="20.00">
<text x="354.13" y="21.67" text-anchor="middle">Wädenswiler Walzer FCBb chords</text>
</g>
<g transform="scale(0.750)" stroke-width="0.70" font-family="Times" font-size="16.00">
<text x="354.13" y="41.30" text-anchor="middle">Hanny Christen. Bd.VIII Zug, Luzern, Uri I. S.120 (wz09682) orig. F,Bb-Dur</text>
<defs>
<g id="rdots" fill="currentColor">
	<circle cx="0" cy="-9" r="1.2"/>
	<circle cx="0" cy="-15" r="1.2"/>
</g>
</defs>
<use x="110.13" y="123.84" xlink:href="#rdots"/>
<path stroke="currentColor" fill="none"
	d="M106.13 123.84v-24.00"/>
<path stroke="currentColor" fill="none" stroke-width="3"
	d="M101.63 123.84v-24.00"/>
<path stroke="currentColor" fill="none"
	d="M220.03 123.84v-24.00"/>
<path stroke="currentColor" fill="none"
	d="M319.63 123.84v-24.00"/>
<path stroke="currentColor" fill="none"
	d="M428.43 123.84v-24.00"/>
<path stroke="currentColor" fill="none"
	d="M528.33 123.84v-24.00"/>
<path stroke="currentColor" fill="none"
	d="M626.93 123.84v-24.00"/>
<path stroke="currentColor" fill="none"
	d="M694.93 123.84v-24.00"/>
<path stroke="currentColor" fill="none"
	d="M13.33 123.84h681.60m-681.60 -6h681.60m-681.60 -6h681.60m-681.60 -6h681.60m-681.60 -6h681.60"/>
</g>
<g transform="scale(0.750)" stroke-width="0.70" font-family="Helvetica" font-size="12.00">
<text x="120.73" y="81.44">F</text>
<text x="226.43" y="81.44">C7</text>
<text x="437.93" y="81.44">F</text>
<text x="633.83" y="81.44">C7</text>
<defs>
<path id="utclef" fill="currentColor" d="m-50 -90
	c-72 -41 -72 -158 52 -188
	c150 -10 220 188 90 256
	c-114 52 -275 0 -293 -136
	c-15 -181 93 -229 220 -334
	c88 -87 79 -133 62 -210
	c-51 33 -94 105 -89 186
	c17 267 36 374 49 574
	c6 96 -19 134 -77 135
	c-80 1 -126 -93 -61 -133
	c85 -41 133 101 31 105
	c23 17 92 37 90 -92
	c-10 -223 -39 -342 -50 -617
	c0 -90 0 -162 96 -232
	c56 72 63 230 22 289
	c-74 106 -257 168 -255 316
	c9 153 148 185 252 133
	c86 -65 29 -192 -80 -176
	c-71 12 -105 67 -59 124"/>
<use id="tclef" transform="scale(0.045)"
	xlink:href="#utclef"/>
</defs>
<use x="25.33" y="123.84" xlink:href="#tclef"/>
<defs>
<path id="uflat" fill="currentColor" d="
	m100 -746
	h32
	v734
	l-32 4
	m32 -332
	c46 -72 152 -90 208 -20
	c100 110 -120 326 -208 348
	m0 -28
	c54 0 200 -206 130 -290
	c-50 -60 -130 -4 -130 34"/>
<use id="ft0" transform="translate(-3.5,3.5) scale(0.018)"
	xlink:href="#uflat"/>
</defs>
<use x="40.33" y="111.84" xlink:href="#ft0"/>
<g font-family="serif" font-size="16" font-weight="bold" font-style="normal"
	transform="translate(56.33,123.84) scale(1.2,1)">
	<text y="-1" text-anchor="middle">4</text>
	<text y="-13" text-anchor="middle">3</text>
</g>
<path fill="currentColor"
	d="M77.53 101.24l17.00 2.30v3.20l-17.00 -2.30"/>
<defs>
<ellipse id="hd" rx="4.1" ry="2.9"
	transform="rotate(-20)" fill="currentColor"/>
</defs>
<use x="74.33" y="120.84" xlink:href="#hd"/>
<path d="M77.83 120.84v-18.60" stroke="currentColor" fill="none"/>
<use x="90.63" y="123.84" xlink:href="#hd"/>
<path d="M94.13 123.84v-19.40" stroke="currentColor" fill="none"/>
<path fill="currentColor"
	d="M126.83 97.64l82.40 -10.10v3.20l-82.40 10.10"/>
<defs>
<path id="hl" stroke="currentColor" d="m-6 0h12"/>
</defs>
<use x="123.63" y="129.84" xlink:href="#hl"/>
<use x="123.63" y="135.84" xlink:href="#hl"/>
<use x="123.63" y="135.84" xlink:href="#hd"/>
<path d="M127.13 135.84v-37.20" stroke="currentColor" fill="none"/>
<use x="140.13" y="129.84" xlink:href="#hl"/>
<use x="140.13" y="129.84" xlink:href="#hd"/>
<path d="M143.63 129.84v-33.20" stroke="currentColor" fill="none"/>
<use x="156.43" y="120.84" xlink:href="#hd"/>
<path d="M159.93 120.84v-26.20" stroke="currentColor" fill="none"/>
<use x="172.73" y="114.84" xlink:href="#hd"/>
<path d="M176.23 114.84v-22.20" stroke="currentColor" fill="none"/>
<use x="189.03" y="108.84" xlink:href="#hd"/>
<path d="M192.53 108.84v-18.20" stroke="currentColor" fill="none"/>
<use x="205.33" y="114.84" xlink:href="#hd"/>
<path d="M208.83 114.84v-26.20" stroke="currentColor" fill="none"/>
<path fill="currentColor"
	d="M235.73 94.44l49.60 -4.80v3.20l-49.60 4.80"/>
<use x="232.53" y="117.84" xlink:href="#hd"/>
<path d="M236.03 117.84v-22.40" stroke="currentColor" fill="none"/>
<use x="248.83" y="123.84" xlink:href="#hd"/>
<path d="M252.33 123.84v-30.00" stroke="currentColor" fill="none"/>
<use x="265.13" y="117.84" xlink:href="#hd"/>
<path d="M268.63 117.84v-25.60" stroke="currentColor" fill="none"/>
<use x="281.43" y="108.84" xlink:href="#hd"/>
<path d="M284.93 108.84v-18.20" stroke="currentColor" fill="none"/>
<use x="299.43" y="111.84" xlink:href="#hd"/>
<path d="M302.93 111.84v-20.00" stroke="currentColor" fill="none"/>
<path fill="currentColor"
	d="M335.33 89.64l82.20 0.00v3.20l-82.20 -0.00"/>
<use x="332.13" y="123.84" xlink:href="#hd"/>
<path d="M335.63 123.84v-33.20" stroke="currentColor" fill="none"/>
<use x="348.43" y="108.84" xlink:href="#hd"/>
<path d="M351.93 108.84v-18.20" stroke="currentColor" fill="none"/>
<use x="364.73" y="123.84" xlink:href="#hd"/>
<path d="M368.23 123.84v-33.20" stroke="currentColor" fill="none"/>
<use x="381.03" y="108.84" xlink:href="#hd"/>
<path d="M384.53 108.84v-18.20" stroke="currentColor" fill="none"/>
<use x="397.43" y="111.84" xlink:href="#hd"/>
<path d="M400.93 111.84v-21.20" stroke="currentColor" fill="none"/>
<use x="413.73" y="123.84" xlink:href="#hd"/>
<path d="M417.23 123.84v-33.20" stroke="currentColor" fill="none"/>
<path fill="currentColor"
	d="M444.03 93.04l49.60 -6.50v3.20l-49.60 6.50"/>
<use x="440.93" y="120.84" xlink:href="#hd"/>
<path d="M444.43 120.84v-26.80" stroke="currentColor" fill="none"/>
<use x="457.23" y="123.84" xlink:href="#hd"/>
<path d="M460.73 123.84v-31.90" stroke="currentColor" fill="none"/>
<use x="473.53" y="120.84" xlink:href="#hd"/>
<path d="M477.03 120.84v-31.10" stroke="currentColor" fill="none"/>
<use x="489.83" y="105.84" xlink:href="#hd"/>
<path d="M493.33 105.84v-18.20" stroke="currentColor" fill="none"/>
<use x="508.13" y="108.84" xlink:href="#hd"/>
<path d="M504.63 108.84v20.00" stroke="currentColor" fill="none"/>
<use x="540.83" y="108.84" xlink:href="#hd"/>
<path d="M537.33 108.84v20.00" stroke="currentColor" fill="none"/>
<path fill="currentColor"
	d="M566.53 92.64l49.60 6.70v3.20l-49.60 -6.70"/>
<use x="563.33" y="111.84" xlink:href="#hd"/>
<path d="M566.83 111.84v-18.20" stroke="currentColor" fill="none"/>
<use x="579.63" y="114.84" xlink:href="#hd"/>
<path d="M583.13 114.84v-19.00" stroke="currentColor" fill="none"/>
<use x="595.93" y="117.84" xlink:href="#hd"/>
<path d="M599.43 117.84v-19.80" stroke="currentColor" fill="none"/>
<use x="612.23" y="120.84" xlink:href="#hd"/>
<path d="M615.73 120.84v-20.60" stroke="currentColor" fill="none"/>
<defs>
<path id="Hd" fill="currentColor" d="m3 -1.6
	c-1 -1.8 -7 1.4 -6 3.2
	c1 1.8 7 -1.4 6 -3.2
	m0.5 -0.3
	c2 3.8 -5 7.6 -7 3.8
	c-2 -3.8 5 -7.6 7 -3.8"/>
</defs>
<use x="639.93" y="123.84" xlink:href="#Hd"/>
<path d="M643.43 123.84v-20.00" stroke="currentColor" fill="none"/>
<use x="674.73" y="117.84" xlink:href="#hd"/>
<path d="M678.23 117.84v-20.00" stroke="currentColor" fill="none"/>
<path stroke="currentColor" fill="none"
	d="M122.03 198.84v-24.00"/>
<path stroke="currentColor" fill="none"
	d="M205.33 198.84v-24.00"/>
<path stroke="currentColor" fill="none"
	d="M281.63 198.84v-24.00"/>
<path stroke="currentColor" fill="none" stroke-width="3"
	d="M351.83 198.84v-24.00"/>
<path stroke="currentColor" fill="none"
	d="M347.33 198.84v-24.00"/>
<use x="343.33" y="198.84" xlink:href="#rdots"/>
<use x="425.43" y="198.84" xlink:href="#rdots"/>
<path stroke="currentColor" fill="none"
	d="M421.43 198.84v-24.00"/>
<path stroke="currentColor" fill="none" stroke-width="3"
	d="M416.93 198.84v-24.00"/>
<path stroke="currentColor" fill="none"
	d="M502.63 198.84v-24.00"/>
<path stroke="currentColor" fill="none"
	d="M578.63 198.84v-24.00"/>
<path stroke="currentColor" fill="none"
	d="M645.13 198.84v-24.00"/>
<path stroke="currentColor" fill="none"
	d="M694.93 198.84v-24.00"/>
<path stroke="currentColor" fill="none"
	d="M13.33 198.84h681.60m-681.60 -6h681.60m-681.60 -6h681.60m-681.60 -6h681.60m-681.60 -6h681.60"/>
<text x="297.63" y="160.44">F</text>
<text x="369.43" y="160.44">F</text>
<text x="432.73" y="160.44">C7</text>
<text x="512.23" y="160.44">F</text>
<text x="583.23" y="160.44">Gm</text>
</g>
<g transform="scale(0.750)" stroke-width="0.70" font-family="Times" font-size="13.00">
<text x="285.63" y="160.24">1</text>
<path stroke="currentColor" fill="none"
	d="M281.63 148.84v20M281.63 148.84h63.70v20"/>
<text x="357.33" y="160.24">2</text>
<path stroke="currentColor" fill="none"
	d="M353.33 148.84v20M353.33 148.84h61.10v20"/>
<use x="25.33" y="198.84" xlink:href="#tclef"/>
<use x="40.33" y="186.84" xlink:href="#ft0"/>
<defs>
<path id="r4" fill="currentColor" d="m-1 -8.5
	l3.6 5.1 -2.1 5.2 2.2 4.3
	c-2.6 -2.3 -5.1 0 -2.4 2.6
	c-4.8 -3 -1.5 -6.9 1.4 -4.1
	l-3.1 -4.5 1.9 -5.1 -1.5 -3.5"/>
</defs>
<use x="58.33" y="186.84" xlink:href="#r4"/>
<path fill="currentColor"
	d="M71.23 201.84l36.50 0.00v-3.20l-36.50 -0.00"/>
<use x="75.13" y="180.84" xlink:href="#hd"/>
<path d="M71.63 180.84v20.00" stroke="currentColor" fill="none"/>
<use x="87.03" y="183.84" xlink:href="#hd"/>
<path d="M83.53 183.84v17.00" stroke="currentColor" fill="none"/>
<use x="98.93" y="177.84" xlink:href="#hd"/>
<path d="M95.43 177.84v23.00" stroke="currentColor" fill="none"/>
<use x="110.93" y="183.84" xlink:href="#hd"/>
<path d="M107.43 183.84v17.00" stroke="currentColor" fill="none"/>
<path fill="currentColor"
	d="M137.73 161.64l60.30 0.00v3.20l-60.30 -0.00"/>
<use x="134.53" y="186.84" xlink:href="#hd"/>
<path d="M138.03 186.84v-24.20" stroke="currentColor" fill="none"/>
<use x="146.53" y="180.84" xlink:href="#hd"/>
<path d="M150.03 180.84v-18.20" stroke="currentColor" fill="none"/>
<use x="158.43" y="183.84" xlink:href="#hd"/>
<path d="M161.93 183.84v-21.20" stroke="currentColor" fill="none"/>
<use x="170.33" y="198.84" xlink:href="#hd"/>
<path d="M173.83 198.84v-36.20" stroke="currentColor" fill="none"/>
<use x="182.23" y="192.84" xlink:href="#hd"/>
<path d="M185.73 192.84v-30.20" stroke="currentColor" fill="none"/>
<use x="194.23" y="183.84" xlink:href="#hd"/>
<path d="M197.73 183.84v-21.20" stroke="currentColor" fill="none"/>
<use x="217.83" y="198.84" xlink:href="#hd"/>
<path d="M221.33 198.84v-20.00" stroke="currentColor" fill="none"/>
<path fill="currentColor"
	d="M237.83 164.64l36.50 0.00v3.20l-36.50 -0.00"/>
<use x="234.63" y="192.84" xlink:href="#hd"/>
<path d="M238.13 192.84v-27.20" stroke="currentColor" fill="none"/>
<use x="246.53" y="186.84" xlink:href="#hd"/>
<path d="M250.03 186.84v-21.20" stroke="currentColor" fill="none"/>
<use x="258.53" y="183.84" xlink:href="#hd"/>
<path d="M262.03 183.84v-18.20" stroke="currentColor" fill="none"/>
<use x="270.43" y="198.84" xlink:href="#hd"/>
<path d="M273.93 198.84v-33.20" stroke="currentColor" fill="none"/>
<use x="300.63" y="195.84" xlink:href="#hd"/>
<path d="M304.13 195.84v-20.00" stroke="currentColor" fill="none"/>
<use x="317.43" y="186.84" xlink:href="#r4"/>
<use x="332.83" y="195.84" xlink:href="#hd"/>
<path d="M336.33 195.84v-20.00" stroke="currentColor" fill="none"/>
<use x="372.33" y="195.84" xlink:href="#hd"/>
<path d="M375.83 195.84v-20.00" stroke="currentColor" fill="none"/>
<use x="389.13" y="186.84" xlink:href="#r4"/>
<use x="405.93" y="171.84" xlink:href="#hd"/>
<path d="M402.43 171.84v20.00" stroke="currentColor" fill="none"/>
<use x="438.93" y="174.84" xlink:href="#hd"/>
<path d="M435.43 174.84v20.00" stroke="currentColor" fill="none"/>
<path fill="currentColor"
	d="M451.83 200.04l36.50 6.10v-3.20l-36.50 -6.10"/>
<use x="455.73" y="177.84" xlink:href="#hd"/>
<path d="M452.23 177.84v21.20" stroke="currentColor" fill="none"/>
<use x="467.63" y="180.84" xlink:href="#hd"/>
<path d="M464.13 180.84v20.20" stroke="currentColor" fill="none"/>
<use x="479.53" y="183.84" xlink:href="#hd"/>
<path d="M476.03 183.84v19.20" stroke="currentColor" fill="none"/>
<use x="491.53" y="186.84" xlink:href="#hd"/>
<path d="M488.03 186.84v18.20" stroke="currentColor" fill="none"/>
<use x="515.13" y="189.84" xlink:href="#hd"/>
<circle fill="currentColor" cx="523.13" cy="189.84" r="1.2"/>
<path d="M518.63 189.84v-20.00" stroke="currentColor" fill="none"/>
<path fill="currentColor"
	d="M533.73 206.04l30.60 0.00v-3.20l-30.60 -0.00"/>
<use x="537.53" y="183.84" xlink:href="#hd"/>
<path d="M534.03 183.84v21.20" stroke="currentColor" fill="none"/>
<use x="555.53" y="186.84" xlink:href="#hd"/>
<defs>
<path id="unat" fill="currentColor" d="
	m96 -750
	h-32
	v716
	l32 -8
	l182 -54
	v282
	h32
	v-706
	l-34 10
	l-180 50
	v-290
	m0 592
	v-190
	l182 -52
	v188"/>
<use id="nt0" transform="translate(-3,5) scale(0.018)"
	xlink:href="#unat"/>
</defs>
<use x="546.53" y="186.84" xlink:href="#nt0"/>
<path d="M552.03 186.84v18.20" stroke="currentColor" fill="none"/>
<use x="567.53" y="183.84" xlink:href="#hd"/>
<path d="M564.03 183.84v21.20" stroke="currentColor" fill="none"/>
<use x="591.13" y="180.84" xlink:href="#hd"/>
<path d="M587.63 180.84v20.00" stroke="currentColor" fill="none"/>
<use x="606.63" y="192.84" xlink:href="#hd"/>
<circle fill="currentColor" cx="614.63" cy="189.84" r="1.2"/>
<path d="M610.13 192.84v-20.00" stroke="currentColor" fill="none"/>
<use x="628.13" y="189.84" xlink:href="#hd"/>
<path d="M631.63 189.84v-20.00" stroke="currentColor" fill="none"/>
<path fill="currentColor"
	d="	M631.63 169.84c0.6 5.6 9.6 9 5.6 18.4
	c1.6 -6 -1.3 -11.6 -5.6 -12.8
"/>
<use x="658.13" y="186.84" xlink:href="#Hd"/>
<path d="M654.63 186.84v20.00" stroke="currentColor" fill="none"/>
<use x="680.63" y="186.84" xlink:href="#hd"/>
<path d="M677.13 186.84v20.00" stroke="currentColor" fill="none"/>
<path stroke="currentColor" fill="none"
	d="M107.93 275.84v-24.00"/>
<path stroke="currentColor" fill="none"
	d="M161.03 275.84v-24.00"/>
<path stroke="currentColor" fill="none"
	d="M217.73 275.84v-24.00"/>
<path stroke="currentColor" fill="none"
	d="M270.73 275.84v-24.00"/>
<path stroke="currentColor" fill="none"
	d="M346.63 275.84v-24.00"/>
<path stroke="currentColor" fill="none"
	d="M416.53 275.84v-24.00"/>
<path stroke="currentColor" fill="none"
	d="M485.93 275.84v-24.00"/>
<path stroke="currentColor" fill="none"
	d="M554.03 275.84v-24.00"/>
<path stroke="currentColor" fill="none" stroke-width="3"
	d="M630.83 275.84v-24.00"/>
<path stroke="currentColor" fill="none"
	d="M626.33 275.84v-24.00"/>
<use x="622.33" y="275.84" xlink:href="#rdots"/>
<path stroke="currentColor" fill="none" stroke-width="3"
	d="M693.43 275.84v-24.00"/>
<path stroke="currentColor" fill="none"
	d="M688.93 275.84v-24.00"/>
<path stroke="currentColor" fill="none"
	d="M13.33 275.84h681.60m-681.60 -6h681.60m-681.60 -6h681.60m-681.60 -6h681.60m-681.60 -6h681.60"/>
</g>
<g transform="scale(0.750)" stroke-width="0.70" font-family="Helvetica" font-size="12.00">
<text x="52.13" y="235.44">C7</text>
<text x="170.53" y="235.44">F</text>
<text x="277.13" y="235.44">C7</text>
<text x="426.13" y="235.44">F</text>
<text x="492.23" y="235.44">C7</text>
<text x="570.13" y="235.44">F</text>
<text x="648.33" y="235.44">F</text>
</g>
<g transform="scale(0.750)" stroke-width="0.70" font-family="Times" font-size="13.00">
<text x="558.03" y="235.24">1</text>
<path stroke="currentColor" fill="none"
	d="M554.03 223.84v20M554.03 223.84h70.30v20"/>
<text x="636.33" y="235.24">2</text>
<path stroke="currentColor" fill="none"
	d="M632.33 223.84v20M632.33 223.84h62.60v20"/>
<use x="25.33" y="275.84" xlink:href="#tclef"/>
<use x="40.33" y="263.84" xlink:href="#ft0"/>
<use x="58.33" y="260.84" xlink:href="#hd"/>
<circle fill="currentColor" cx="66.33" cy="260.84" r="1.2"/>
<path d="M54.83 260.84v20.00" stroke="currentColor" fill="none"/>
<path fill="currentColor"
	d="M79.63 244.64l21.90 0.00v3.20l-21.90 -0.00"/>
<use x="76.43" y="263.84" xlink:href="#hd"/>
<path d="M79.93 263.84v-18.20" stroke="currentColor" fill="none"/>
<use x="87.13" y="266.84" xlink:href="#hd"/>
<path d="M90.63 266.84v-21.20" stroke="currentColor" fill="none"/>
<use x="97.73" y="263.84" xlink:href="#hd"/>
<path d="M101.23 263.84v-18.20" stroke="currentColor" fill="none"/>
<use x="120.43" y="254.84" xlink:href="#hd"/>
<path d="M116.93 254.84v20.00" stroke="currentColor" fill="none"/>
<use x="134.53" y="257.84" xlink:href="#hd"/>
<path d="M131.03 257.84v20.00" stroke="currentColor" fill="none"/>
<use x="148.53" y="260.84" xlink:href="#hd"/>
<path d="M145.03 260.84v20.00" stroke="currentColor" fill="none"/>
<use x="173.53" y="266.84" xlink:href="#hd"/>
<circle fill="currentColor" cx="181.53" cy="266.84" r="1.2"/>
<path d="M177.03 266.84v-20.00" stroke="currentColor" fill="none"/>
<use x="193.93" y="257.84" xlink:href="#hd"/>
<path d="M190.43 257.84v20.00" stroke="currentColor" fill="none"/>
<path fill="currentColor"
	d="M190.43 277.84c0.6 -5.6 9.6 -9 5.6 -18.4
	c1.6 6 -1.3 11.6 -5.6 12.8
"/>
<use x="205.23" y="260.84" xlink:href="#hd"/>
<path d="M201.73 260.84v20.00" stroke="currentColor" fill="none"/>
<use x="230.23" y="266.84" xlink:href="#hd"/>
<path d="M233.73 266.84v-20.00" stroke="currentColor" fill="none"/>
<use x="244.23" y="263.84" xlink:href="#r4"/>
<use x="258.33" y="260.84" xlink:href="#hd"/>
<path d="M254.83 260.84v20.00" stroke="currentColor" fill="none"/>
<path fill="currentColor"
	d="M279.43 283.04l53.80 0.00v-3.20l-53.80 -0.00"/>
<use x="283.23" y="263.84" xlink:href="#hd"/>
<path d="M279.73 263.84v18.20" stroke="currentColor" fill="none"/>
<use x="293.83" y="260.84" xlink:href="#hd"/>
<path d="M290.33 260.84v21.20" stroke="currentColor" fill="none"/>
<use x="304.53" y="254.84" xlink:href="#hd"/>
<path d="M301.03 254.84v27.20" stroke="currentColor" fill="none"/>
<use x="315.13" y="260.84" xlink:href="#hd"/>
<path d="M311.63 260.84v21.20" stroke="currentColor" fill="none"/>
<use x="325.73" y="263.84" xlink:href="#hd"/>
<path d="M322.23 263.84v18.20" stroke="currentColor" fill="none"/>
<use x="336.43" y="260.84" xlink:href="#hd"/>
<path d="M332.93 260.84v21.20" stroke="currentColor" fill="none"/>
<path fill="currentColor"
	d="M355.23 279.64l11.30 3.60v-3.20l-11.30 -3.60"/>
<use x="359.13" y="254.84" xlink:href="#hd"/>
<path d="M355.63 254.84v23.90" stroke="currentColor" fill="none"/>
<use x="369.73" y="263.84" xlink:href="#hd"/>
<path d="M366.23 263.84v18.20" stroke="currentColor" fill="none"/>
<use x="380.33" y="269.84" xlink:href="#hd"/>
<circle fill="currentColor" cx="388.33" cy="266.84" r="1.2"/>
<path d="M383.83 269.84v-20.00" stroke="currentColor" fill="none"/>
<use x="399.53" y="272.84" xlink:href="#hd"/>
<path d="M403.03 272.84v-20.00" stroke="currentColor" fill="none"/>
<path fill="currentColor"
	d="	M403.03 252.84c0.6 5.6 9.6 9 5.6 18.4
	c1.6 -6 -1.3 -11.6 -5.6 -12.8
"/>
<path fill="currentColor"
	d="M432.23 248.84l32.60 0.00v3.20l-32.60 -0.00"/>
<use x="429.03" y="272.84" xlink:href="#hd"/>
<path d="M432.53 272.84v-23.00" stroke="currentColor" fill="none"/>
<use x="439.63" y="275.84" xlink:href="#hd"/>
<path d="M443.13 275.84v-26.00" stroke="currentColor" fill="none"/>
<use x="450.33" y="272.84" xlink:href="#hd"/>
<path d="M453.83 272.84v-23.00" stroke="currentColor" fill="none"/>
<use x="460.93" y="266.84" xlink:href="#hd"/>
<path d="M464.43 266.84v-17.00" stroke="currentColor" fill="none"/>
<use x="473.53" y="260.84" xlink:href="#hd"/>
<path d="M470.03 260.84v20.00" stroke="currentColor" fill="none"/>
<path fill="currentColor"
	d="M494.63 283.14l32.60 -5.90v-3.20l-32.60 5.90"/>
<use x="498.43" y="263.84" xlink:href="#hd"/>
<path d="M494.93 263.84v18.20" stroke="currentColor" fill="none"/>
<use x="509.03" y="260.84" xlink:href="#hd"/>
<path d="M505.53 260.84v19.30" stroke="currentColor" fill="none"/>
<use x="519.73" y="257.84" xlink:href="#hd"/>
<path d="M516.23 257.84v20.40" stroke="currentColor" fill="none"/>
<use x="530.33" y="254.84" xlink:href="#hd"/>
<path d="M526.83 254.84v21.40" stroke="currentColor" fill="none"/>
<use x="541.63" y="260.84" xlink:href="#hd"/>
<path d="M538.13 260.84v20.00" stroke="currentColor" fill="none"/>
<use x="573.03" y="272.84" xlink:href="#hd"/>
<path d="M576.53 272.84v-20.00" stroke="currentColor" fill="none"/>
<use x="587.13" y="263.84" xlink:href="#r4"/>
<path fill="currentColor"
	d="M597.33 282.04l11.30 0.00v-3.20l-11.30 -0.00"/>
<use x="601.13" y="260.84" xlink:href="#hd"/>
<path d="M597.63 260.84v20.20" stroke="currentColor" fill="none"/>
<use x="611.83" y="260.84" xlink:href="#hd"/>
<path d="M608.33 260.84v20.20" stroke="currentColor" fill="none"/>
<use x="651.33" y="272.84" xlink:href="#hd"/>
<path d="M654.83 272.84v-20.00" stroke="currentColor" fill="none"/>
<use x="665.33" y="263.84" xlink:href="#r4"/>
<use x="679.43" y="263.84" xlink:href="#r4"/>
</g>
</svg>
