<?xml version="1.0" standalone="no"?>
<!DOCTYPE svg PUBLIC "-//W3C//DTD SVG 1.1//EN"
	"http://www.w3.org/Graphics/SVG/1.1/DTD/svg11.dtd">
<svg xmlns="http://www.w3.org/2000/svg" version="1.1"
	xmlns:xlink="http://www.w3.org/1999/xlink"
	xml:space='preserve' color="black"
	width="7.38in" height="5.34in" viewBox="0 0 531 385">
<title>data/results/biggest_11/abc/137.abc (137) tune 1</title>
<!-- Creator: abcm2ps-7.8.14 -->
<!-- CreationDate: Aug  9, 2015 23:50 -->
<!-- CommandLine: -g data/results/biggest_11/abc/137.abc -O /home/allanino/Dropbox/Trabalhos/folkme/svg/137.svg -->
<g transform="scale(0.750)" stroke-width="0.70" font-family="Times" font-size="20.00">
<text x="354.13" y="21.67" text-anchor="middle">Z채uerli (E,D)</text>
</g>
<g transform="scale(0.750)" stroke-width="0.70" font-family="Times" font-size="16.00">
<text x="354.13" y="41.30" text-anchor="middle">Hanny Christen. Bd.I Z체rich, Schaffhause, St. Gallen I. S.232  (wz05430) orig. F,Bb-Dur</text>
<text x="354.13" y="60.13" text-anchor="middle">Z체rcher Oberland, L채ndlermusig am Bachtel. S.40-274</text>
<path stroke="currentColor" fill="none"
	d="M132.23 153.67v-24.00"/>
<path stroke="currentColor" fill="none"
	d="M203.83 153.67v-24.00"/>
<path stroke="currentColor" fill="none"
	d="M279.13 153.67v-24.00"/>
<path stroke="currentColor" fill="none"
	d="M360.43 153.67v-24.00"/>
<path stroke="currentColor" fill="none"
	d="M452.83 153.67v-24.00"/>
<path stroke="currentColor" fill="none"
	d="M546.93 153.67v-24.00"/>
<path stroke="currentColor" fill="none"
	d="M612.03 153.67v-24.00"/>
<path stroke="currentColor" fill="none"
	d="M694.93 153.67v-24.00"/>
<path stroke="currentColor" fill="none"
	d="M13.33 153.67h681.60m-681.60 -6h681.60m-681.60 -6h681.60m-681.60 -6h681.60m-681.60 -6h681.60"/>
</g>
<g transform="scale(0.750)" stroke-width="0.70" font-family="Helvetica" font-size="12.00">
<text x="58.33" y="100.27">C</text>
<text x="144.23" y="100.27">G7</text>
<text x="288.03" y="100.27">C</text>
<text x="396.73" y="100.27">F</text>
<text x="461.83" y="100.27">C</text>
<text x="552.93" y="100.27">G7</text>
<text x="621.03" y="100.27">C</text>
<defs>
<path id="utclef" fill="currentColor" d="m-50 -90
	c-72 -41 -72 -158 52 -188
	c150 -10 220 188 90 256
	c-114 52 -275 0 -293 -136
	c-15 -181 93 -229 220 -334
	c88 -87 79 -133 62 -210
	c-51 33 -94 105 -89 186
	c17 267 36 374 49 574
	c6 96 -19 134 -77 135
	c-80 1 -126 -93 -61 -133
	c85 -41 133 101 31 105
	c23 17 92 37 90 -92
	c-10 -223 -39 -342 -50 -617
	c0 -90 0 -162 96 -232
	c56 72 63 230 22 289
	c-74 106 -257 168 -255 316
	c9 153 148 185 252 133
	c86 -65 29 -192 -80 -176
	c-71 12 -105 67 -59 124"/>
<use id="tclef" transform="scale(0.045)"
	xlink:href="#utclef"/>
</defs>
<use x="25.33" y="153.67" xlink:href="#tclef"/>
<g font-family="serif" font-size="16" font-weight="bold" font-style="normal"
	transform="translate(43.83,153.67) scale(1.2,1)">
	<text y="-1" text-anchor="middle">4</text>
	<text y="-13" text-anchor="middle">3</text>
</g>
<path fill="currentColor"
	d="M58.03 149.37l26.20 2.50v-3.20l-26.20 -2.50"/>
<path fill="currentColor"
	d="M77.83 146.27l6.00 0.60v-3.20l-6.00 -0.60"/>
<defs>
<ellipse id="hd" rx="4.1" ry="2.9"
	transform="rotate(-20)" fill="currentColor"/>
</defs>
<use x="61.83" y="126.67" xlink:href="#hd"/>
<circle fill="currentColor" cx="69.83" cy="126.67" r="1.2"/>
<path d="M58.33 126.67v21.80" stroke="currentColor" fill="none"/>
<use x="87.33" y="129.67" xlink:href="#hd"/>
<defs>
<path id="usharp" fill="currentColor" d="
	m136 -702
	v890
	h32
	v-890
	m128 840
	h32
	v-888
	h-32
	m-232 286
	v116
	l338 -96
	v-116
	m-338 442
	v116
	l338 -98
	v-114"/>
<use id="sh0" transform="translate(-4,5) scale(0.018)"
	xlink:href="#usharp"/>
</defs>
<use x="78.33" y="129.67" xlink:href="#sh0"/>
<path d="M83.83 129.67v21.20" stroke="currentColor" fill="none"/>
<use x="98.13" y="126.67" xlink:href="#hd"/>
<path d="M94.63 126.67v20.00" stroke="currentColor" fill="none"/>
<defs>
<path id="hl" stroke="currentColor" d="m-6 0h12"/>
</defs>
<use x="116.63" y="123.67" xlink:href="#hl"/>
<use x="116.63" y="117.67" xlink:href="#hl"/>
<use x="116.63" y="117.67" xlink:href="#hd"/>
<path d="M113.13 117.67v24.00" stroke="currentColor" fill="none"/>
<use x="150.73" y="129.67" xlink:href="#hd"/>
<defs>
<path id="unat" fill="currentColor" d="
	m96 -750
	h-32
	v716
	l32 -8
	l182 -54
	v282
	h32
	v-706
	l-34 10
	l-180 50
	v-290
	m0 592
	v-190
	l182 -52
	v188"/>
<use id="nt0" transform="translate(-3,5) scale(0.018)"
	xlink:href="#unat"/>
</defs>
<use x="141.73" y="129.67" xlink:href="#nt0"/>
<path d="M147.23 129.67v20.00" stroke="currentColor" fill="none"/>
<use x="169.23" y="123.67" xlink:href="#hl"/>
<use x="169.23" y="120.67" xlink:href="#hd"/>
<path d="M165.73 120.67v21.00" stroke="currentColor" fill="none"/>
<use x="188.23" y="123.67" xlink:href="#hl"/>
<use x="188.23" y="120.67" xlink:href="#hd"/>
<path d="M184.73 120.67v21.00" stroke="currentColor" fill="none"/>
<path fill="currentColor"
	d="M212.53 154.97l17.50 -5.70v-3.20l-17.50 5.70"/>
<path fill="currentColor"
	d="M223.63 146.37l6.00 -2.00v-3.20l-6.00 2.00"/>
<use x="216.33" y="135.67" xlink:href="#hd"/>
<circle fill="currentColor" cx="224.33" cy="132.67" r="1.2"/>
<path d="M212.83 135.67v18.20" stroke="currentColor" fill="none"/>
<use x="233.13" y="123.67" xlink:href="#hl"/>
<use x="233.13" y="117.67" xlink:href="#hl"/>
<use x="233.13" y="117.67" xlink:href="#hd"/>
<path d="M229.63 117.67v30.70" stroke="currentColor" fill="none"/>
<use x="244.43" y="123.67" xlink:href="#hl"/>
<use x="244.43" y="120.67" xlink:href="#hd"/>
<path d="M240.93 120.67v21.00" stroke="currentColor" fill="none"/>
<use x="263.53" y="123.67" xlink:href="#hl"/>
<use x="263.53" y="123.67" xlink:href="#hd"/>
<path d="M260.03 123.67v20.00" stroke="currentColor" fill="none"/>
<path fill="currentColor"
	d="M287.73 144.67l39.90 0.00v-3.20l-39.90 -0.00"/>
<use x="291.63" y="126.67" xlink:href="#hd"/>
<path d="M288.13 126.67v17.00" stroke="currentColor" fill="none"/>
<use x="304.53" y="123.67" xlink:href="#hl"/>
<use x="304.53" y="117.67" xlink:href="#hl"/>
<use x="304.53" y="111.67" xlink:href="#hl"/>
<use x="304.53" y="111.67" xlink:href="#hd"/>
<path d="M301.03 111.67v32.00" stroke="currentColor" fill="none"/>
<use x="317.93" y="123.67" xlink:href="#hl"/>
<use x="317.93" y="117.67" xlink:href="#hl"/>
<use x="317.93" y="117.67" xlink:href="#hd"/>
<path d="M314.43 117.67v26.00" stroke="currentColor" fill="none"/>
<use x="330.83" y="126.67" xlink:href="#hd"/>
<path d="M327.33 126.67v17.00" stroke="currentColor" fill="none"/>
<use x="344.83" y="123.67" xlink:href="#hl"/>
<use x="344.83" y="117.67" xlink:href="#hl"/>
<use x="344.83" y="117.67" xlink:href="#hd"/>
<path d="M341.33 117.67v24.00" stroke="currentColor" fill="none"/>
<path fill="currentColor"
	d="M369.03 155.57l71.10 0.00v-3.20l-71.10 -0.00"/>
<path fill="currentColor"
	d="M380.23 150.57l6.00 0.00v-3.20l-6.00 -0.00"/>
<path fill="currentColor"
	d="M407.03 150.57l6.00 0.00v-3.20l-6.00 -0.00"/>
<path fill="currentColor"
	d="M433.83 150.57l6.00 0.00v-3.20l-6.00 -0.00"/>
<use x="372.93" y="132.67" xlink:href="#hd"/>
<circle fill="currentColor" cx="380.93" cy="132.67" r="1.2"/>
<path d="M369.43 132.67v22.00" stroke="currentColor" fill="none"/>
<use x="389.73" y="135.67" xlink:href="#hd"/>
<path d="M386.23 135.67v19.00" stroke="currentColor" fill="none"/>
<use x="399.73" y="138.67" xlink:href="#hd"/>
<circle fill="currentColor" cx="407.73" cy="138.67" r="1.2"/>
<path d="M396.23 138.67v16.00" stroke="currentColor" fill="none"/>
<use x="416.53" y="135.67" xlink:href="#hd"/>
<path d="M413.03 135.67v19.00" stroke="currentColor" fill="none"/>
<use x="426.53" y="129.67" xlink:href="#hd"/>
<circle fill="currentColor" cx="434.53" cy="126.67" r="1.2"/>
<path d="M423.03 129.67v25.00" stroke="currentColor" fill="none"/>
<use x="443.33" y="123.67" xlink:href="#hl"/>
<use x="443.33" y="123.67" xlink:href="#hd"/>
<path d="M439.83 123.67v31.00" stroke="currentColor" fill="none"/>
<path fill="currentColor"
	d="M461.53 150.67l70.30 0.00v-3.20l-70.30 -0.00"/>
<use x="465.33" y="123.67" xlink:href="#hl"/>
<use x="465.33" y="123.67" xlink:href="#hd"/>
<path d="M461.83 123.67v26.00" stroke="currentColor" fill="none"/>
<use x="478.23" y="126.67" xlink:href="#hd"/>
<path d="M474.73 126.67v23.00" stroke="currentColor" fill="none"/>
<use x="496.23" y="129.67" xlink:href="#hd"/>
<use x="487.23" y="129.67" xlink:href="#sh0"/>
<path d="M492.73 129.67v20.00" stroke="currentColor" fill="none"/>
<use x="509.13" y="126.67" xlink:href="#hd"/>
<path d="M505.63 126.67v23.00" stroke="currentColor" fill="none"/>
<use x="522.03" y="132.67" xlink:href="#hd"/>
<path d="M518.53 132.67v17.00" stroke="currentColor" fill="none"/>
<use x="534.93" y="132.67" xlink:href="#hd"/>
<path d="M531.43 132.67v17.00" stroke="currentColor" fill="none"/>
<use x="559.43" y="132.67" xlink:href="#hd"/>
<path d="M555.93 132.67v20.00" stroke="currentColor" fill="none"/>
<use x="577.93" y="129.67" xlink:href="#hd"/>
<path d="M574.43 129.67v20.00" stroke="currentColor" fill="none"/>
<use x="596.43" y="129.67" xlink:href="#hd"/>
<path d="M592.93 129.67v20.00" stroke="currentColor" fill="none"/>
<use x="624.53" y="132.67" xlink:href="#hd"/>
<path d="M621.03 132.67v20.00" stroke="currentColor" fill="none"/>
<path fill="currentColor"
	d="M639.23 155.37l26.20 2.50v-3.20l-26.20 -2.50"/>
<path fill="currentColor"
	d="M659.03 152.27l6.00 0.60v-3.20l-6.00 -0.60"/>
<use x="643.03" y="132.67" xlink:href="#hd"/>
<circle fill="currentColor" cx="651.03" cy="132.67" r="1.2"/>
<path d="M639.53 132.67v21.80" stroke="currentColor" fill="none"/>
<use x="668.53" y="135.67" xlink:href="#hd"/>
<use x="659.53" y="135.67" xlink:href="#sh0"/>
<path d="M665.03 135.67v21.20" stroke="currentColor" fill="none"/>
<use x="679.33" y="132.67" xlink:href="#hd"/>
<path d="M675.83 132.67v20.00" stroke="currentColor" fill="none"/>
<path stroke="currentColor" fill="none"
	d="M132.23 233.67v-24.00"/>
<path stroke="currentColor" fill="none"
	d="M217.43 233.67v-24.00"/>
<path stroke="currentColor" fill="none"
	d="M310.33 233.67v-24.00"/>
<path stroke="currentColor" fill="none"
	d="M393.03 233.67v-24.00"/>
<path stroke="currentColor" fill="none"
	d="M492.23 233.67v-24.00"/>
<defs>
<g id="rdots" fill="currentColor">
	<circle cx="0" cy="-9" r="1.2"/>
	<circle cx="0" cy="-15" r="1.2"/>
</g>
</defs>
<use x="584.03" y="233.67" xlink:href="#rdots"/>
<path stroke="currentColor" fill="none" stroke-width="3"
	d="M578.53 233.67v-24.00"/>
<path stroke="currentColor" fill="none" stroke-width="3"
	d="M572.53 233.67v-24.00"/>
<use x="567.03" y="233.67" xlink:href="#rdots"/>
<path stroke="currentColor" fill="none"
	d="M694.93 233.67v-24.00"/>
<path stroke="currentColor" fill="none"
	d="M13.33 233.67h681.60m-681.60 -6h681.60m-681.60 -6h681.60m-681.60 -6h681.60m-681.60 -6h681.60"/>
<text x="43.33" y="188.27">G7</text>
<text x="141.23" y="188.27">C</text>
<text x="223.53" y="188.27">G7</text>
<text x="319.23" y="188.27">C</text>
<text x="399.13" y="188.27">G7</text>
<text x="501.23" y="188.27">C</text>
<text x="610.23" y="188.27">G</text>
<use x="25.33" y="233.67" xlink:href="#tclef"/>
<path fill="currentColor"
	d="M46.03 234.97l17.60 -5.20v-3.20l-17.60 5.20"/>
<use x="49.83" y="215.67" xlink:href="#hd"/>
<path d="M46.33 215.67v18.20" stroke="currentColor" fill="none"/>
<use x="66.73" y="203.67" xlink:href="#hl"/>
<use x="66.73" y="203.67" xlink:href="#hd"/>
<path d="M63.23 203.67v25.20" stroke="currentColor" fill="none"/>
<use x="85.33" y="206.67" xlink:href="#hd"/>
<path d="M81.83 206.67v20.00" stroke="currentColor" fill="none"/>
<use x="111.23" y="221.67" xlink:href="#hd"/>
<path d="M107.73 221.67v20.00" stroke="currentColor" fill="none"/>
<use x="144.73" y="218.67" xlink:href="#hd"/>
<path d="M141.23 218.67v20.00" stroke="currentColor" fill="none"/>
<use x="170.63" y="212.67" xlink:href="#hd"/>
<path d="M167.13 212.67v20.00" stroke="currentColor" fill="none"/>
<use x="196.43" y="206.67" xlink:href="#hd"/>
<path d="M192.93 206.67v20.00" stroke="currentColor" fill="none"/>
<path fill="currentColor"
	d="M226.13 233.87l20.70 0.00v-3.20l-20.70 -0.00"/>
<path fill="currentColor"
	d="M240.43 228.87l6.00 0.00v-3.20l-6.00 -0.00"/>
<use x="229.93" y="209.67" xlink:href="#hd"/>
<circle fill="currentColor" cx="237.93" cy="206.67" r="1.2"/>
<path d="M226.43 209.67v23.20" stroke="currentColor" fill="none"/>
<use x="249.93" y="209.67" xlink:href="#hd"/>
<path d="M246.43 209.67v23.20" stroke="currentColor" fill="none"/>
<use x="263.43" y="212.67" xlink:href="#hd"/>
<path d="M259.93 212.67v20.00" stroke="currentColor" fill="none"/>
<use x="289.33" y="215.67" xlink:href="#hd"/>
<path d="M285.83 215.67v20.00" stroke="currentColor" fill="none"/>
<use x="322.83" y="218.67" xlink:href="#hd"/>
<path d="M319.33 218.67v20.00" stroke="currentColor" fill="none"/>
<use x="348.63" y="221.67" xlink:href="#hd"/>
<path d="M345.13 221.67v20.00" stroke="currentColor" fill="none"/>
<use x="372.03" y="224.67" xlink:href="#hd"/>
<path d="M375.53 224.67v-20.00" stroke="currentColor" fill="none"/>
<path fill="currentColor"
	d="M408.73 197.47l52.90 0.00v3.20l-52.90 -0.00"/>
<path fill="currentColor"
	d="M423.03 202.47l6.00 0.00v3.20l-6.00 -0.00"/>
<path fill="currentColor"
	d="M455.23 202.47l6.00 0.00v3.20l-6.00 -0.00"/>
<use x="405.53" y="221.67" xlink:href="#hd"/>
<circle fill="currentColor" cx="413.53" cy="218.67" r="1.2"/>
<path d="M409.03 221.67v-23.20" stroke="currentColor" fill="none"/>
<use x="425.53" y="221.67" xlink:href="#hd"/>
<path d="M429.03 221.67v-23.20" stroke="currentColor" fill="none"/>
<use x="437.83" y="221.67" xlink:href="#hd"/>
<circle fill="currentColor" cx="445.83" cy="218.67" r="1.2"/>
<path d="M441.33 221.67v-23.20" stroke="currentColor" fill="none"/>
<use x="457.73" y="224.67" xlink:href="#hd"/>
<path d="M461.23 224.67v-26.20" stroke="currentColor" fill="none"/>
<use x="471.23" y="221.67" xlink:href="#hd"/>
<path d="M474.73 221.67v-20.00" stroke="currentColor" fill="none"/>
<use x="504.73" y="218.67" xlink:href="#hd"/>
<path d="M501.23 218.67v20.00" stroke="currentColor" fill="none"/>
<use x="530.63" y="218.67" xlink:href="#hd"/>
<path d="M527.13 218.67v20.00" stroke="currentColor" fill="none"/>
<defs>
<path id="r4" fill="currentColor" d="m-1 -8.5
	l3.6 5.1 -2.1 5.2 2.2 4.3
	c-2.6 -2.3 -5.1 0 -2.4 2.6
	c-4.8 -3 -1.5 -6.9 1.4 -4.1
	l-3.1 -4.5 1.9 -5.1 -1.5 -3.5"/>
</defs>
<use x="556.53" y="221.67" xlink:href="#r4"/>
<use x="596.03" y="209.67" xlink:href="#sh0"/>
<path fill="currentColor"
	d="M610.13 237.27l17.60 3.60v-3.20l-17.60 -3.60"/>
<use x="614.03" y="215.67" xlink:href="#hd"/>
<path d="M610.53 215.67v20.70" stroke="currentColor" fill="none"/>
<use x="630.83" y="221.67" xlink:href="#hd"/>
<path d="M627.33 221.67v18.20" stroke="currentColor" fill="none"/>
<use x="649.53" y="212.67" xlink:href="#hd"/>
<circle fill="currentColor" cx="657.53" cy="212.67" r="1.2"/>
<path d="M646.03 212.67v20.00" stroke="currentColor" fill="none"/>
<use x="679.73" y="209.67" xlink:href="#hd"/>
<path d="M676.23 209.67v20.00" stroke="currentColor" fill="none"/>
<path fill="currentColor"
	d="M676.23 229.67c0.6 -5.6 9.6 -9 5.6 -18.4
	c1.6 6 -1.3 11.6 -5.6 12.8
"/>
<path stroke="currentColor" fill="none"
	d="M129.03 309.67v-24.00"/>
<path stroke="currentColor" fill="none"
	d="M212.33 309.67v-24.00"/>
<path stroke="currentColor" fill="none"
	d="M302.53 309.67v-24.00"/>
<path stroke="currentColor" fill="none"
	d="M396.43 309.67v-24.00"/>
<path stroke="currentColor" fill="none"
	d="M496.83 309.67v-24.00"/>
<path stroke="currentColor" fill="none"
	d="M605.13 309.67v-24.00"/>
<path stroke="currentColor" fill="none" stroke-width="3"
	d="M693.43 309.67v-24.00"/>
<path stroke="currentColor" fill="none"
	d="M688.93 309.67v-24.00"/>
<use x="684.93" y="309.67" xlink:href="#rdots"/>
<path stroke="currentColor" fill="none"
	d="M13.33 309.67h681.60m-681.60 -6h681.60m-681.60 -6h681.60m-681.60 -6h681.60m-681.60 -6h681.60"/>
<text x="50.43" y="268.27">Am</text>
<text x="135.03" y="268.27">D7</text>
<text x="221.03" y="268.27">G</text>
<text x="361.23" y="268.27">D7</text>
<text x="405.13" y="268.27">G</text>
<text x="502.83" y="268.27">D7</text>
<text x="618.63" y="268.27">C</text>
<use x="25.33" y="309.67" xlink:href="#tclef"/>
<use x="40.33" y="285.67" xlink:href="#sh0"/>
<path fill="currentColor"
	d="M54.53 303.87l15.60 0.00v-3.20l-15.60 -0.00"/>
<use x="58.33" y="282.67" xlink:href="#hd"/>
<path d="M54.83 282.67v20.20" stroke="currentColor" fill="none"/>
<use x="73.23" y="282.67" xlink:href="#hd"/>
<path d="M69.73 282.67v20.20" stroke="currentColor" fill="none"/>
<use x="88.13" y="300.67" xlink:href="#hd"/>
<circle fill="currentColor" cx="96.13" cy="300.67" r="1.2"/>
<path d="M91.63 300.67v-20.00" stroke="currentColor" fill="none"/>
<use x="115.43" y="294.67" xlink:href="#hd"/>
<path d="M111.93 294.67v20.00" stroke="currentColor" fill="none"/>
<path fill="currentColor"
	d="M111.93 314.67c0.6 -5.6 9.6 -9 5.6 -18.4
	c1.6 6 -1.3 11.6 -5.6 12.8
"/>
<path fill="currentColor"
	d="M137.63 313.37l19.10 -2.30v-3.20l-19.10 2.30"/>
<path fill="currentColor"
	d="M150.43 306.77l6.00 -0.70v-3.20l-6.00 0.70"/>
<use x="141.53" y="291.67" xlink:href="#hd"/>
<circle fill="currentColor" cx="149.53" cy="288.67" r="1.2"/>
<path d="M138.03 291.67v20.60" stroke="currentColor" fill="none"/>
<use x="159.93" y="288.67" xlink:href="#hd"/>
<path d="M156.43 288.67v21.40" stroke="currentColor" fill="none"/>
<use x="172.03" y="279.67" xlink:href="#hl"/>
<use x="172.03" y="273.67" xlink:href="#hl"/>
<use x="172.03" y="273.67" xlink:href="#hd"/>
<circle fill="currentColor" cx="180.03" cy="270.67" r="1.2"/>
<path d="M168.53 273.67v24.00" stroke="currentColor" fill="none"/>
<use x="198.73" y="291.67" xlink:href="#hd"/>
<path d="M195.23 291.67v20.00" stroke="currentColor" fill="none"/>
<path fill="currentColor"
	d="M195.23 311.67c0.6 -5.6 9.6 -9 5.6 -18.4
	c1.6 6 -1.3 11.6 -5.6 12.8
"/>
<path fill="currentColor"
	d="M221.03 323.27l45.10 -8.30v-3.20l-45.10 8.30"/>
<path fill="currentColor"
	d="M233.83 315.97l6.00 -1.10v-3.20l-6.00 1.10"/>
<use x="224.83" y="303.67" xlink:href="#hd"/>
<circle fill="currentColor" cx="232.83" cy="300.67" r="1.2"/>
<path d="M221.33 303.67v18.60" stroke="currentColor" fill="none"/>
<use x="243.33" y="297.67" xlink:href="#hd"/>
<path d="M239.83 297.67v21.20" stroke="currentColor" fill="none"/>
<use x="254.43" y="291.67" xlink:href="#hd"/>
<path d="M250.93 291.67v25.20" stroke="currentColor" fill="none"/>
<use x="269.33" y="282.67" xlink:href="#hd"/>
<path d="M265.83 282.67v31.40" stroke="currentColor" fill="none"/>
<use x="284.23" y="303.67" xlink:href="#hd"/>
<path d="M287.73 303.67v-20.00" stroke="currentColor" fill="none"/>
<path fill="currentColor"
	d="M318.13 276.17l19.10 2.30v3.20l-19.10 -2.30"/>
<path fill="currentColor"
	d="M330.93 282.77l6.00 0.70v3.20l-6.00 -0.70"/>
<use x="315.03" y="297.67" xlink:href="#hd"/>
<circle fill="currentColor" cx="323.03" cy="294.67" r="1.2"/>
<path d="M318.53 297.67v-20.50" stroke="currentColor" fill="none"/>
<use x="333.43" y="300.67" xlink:href="#hd"/>
<path d="M336.93 300.67v-21.20" stroke="currentColor" fill="none"/>
<use x="345.53" y="303.67" xlink:href="#hd"/>
<path d="M349.03 303.67v-20.00" stroke="currentColor" fill="none"/>
<path fill="currentColor"
	d="M370.83 282.17l19.10 -3.80v3.20l-19.10 3.80"/>
<path fill="currentColor"
	d="M383.63 284.67l6.00 -1.20v3.20l-6.00 1.20"/>
<use x="367.73" y="306.67" xlink:href="#hd"/>
<circle fill="currentColor" cx="375.73" cy="306.67" r="1.2"/>
<path d="M371.23 306.67v-23.60" stroke="currentColor" fill="none"/>
<use x="386.13" y="300.67" xlink:href="#hd"/>
<path d="M389.63 300.67v-21.20" stroke="currentColor" fill="none"/>
<path fill="currentColor"
	d="M405.03 322.87l78.30 0.00v-3.20l-78.30 -0.00"/>
<path fill="currentColor"
	d="M417.83 317.87l6.00 0.00v-3.20l-6.00 -0.00"/>
<path fill="currentColor"
	d="M447.43 317.87l6.00 0.00v-3.20l-6.00 -0.00"/>
<path fill="currentColor"
	d="M477.03 317.87l6.00 0.00v-3.20l-6.00 -0.00"/>
<use x="408.93" y="303.67" xlink:href="#hd"/>
<circle fill="currentColor" cx="416.93" cy="300.67" r="1.2"/>
<path d="M405.43 303.67v18.20" stroke="currentColor" fill="none"/>
<use x="427.33" y="297.67" xlink:href="#hd"/>
<path d="M423.83 297.67v24.20" stroke="currentColor" fill="none"/>
<use x="438.53" y="291.67" xlink:href="#hd"/>
<circle fill="currentColor" cx="446.53" cy="288.67" r="1.2"/>
<path d="M435.03 291.67v30.20" stroke="currentColor" fill="none"/>
<use x="456.93" y="288.67" xlink:href="#hd"/>
<path d="M453.43 288.67v33.20" stroke="currentColor" fill="none"/>
<use x="468.13" y="291.67" xlink:href="#hd"/>
<circle fill="currentColor" cx="476.13" cy="288.67" r="1.2"/>
<path d="M464.63 291.67v30.20" stroke="currentColor" fill="none"/>
<use x="486.53" y="297.67" xlink:href="#hd"/>
<path d="M483.03 297.67v24.20" stroke="currentColor" fill="none"/>
<path fill="currentColor"
	d="M505.43 311.67l86.20 0.00v-3.20l-86.20 -0.00"/>
<path fill="currentColor"
	d="M520.63 306.67l11.20 0.00v-3.20l-11.20 -0.00"/>
<path fill="currentColor"
	d="M555.43 306.67l6.00 0.00v-3.20l-6.00 -0.00"/>
<path fill="currentColor"
	d="M585.33 306.67l6.00 0.00v-3.20l-6.00 -0.00"/>
<use x="509.33" y="294.67" xlink:href="#hd"/>
<path d="M505.83 294.67v16.00" stroke="currentColor" fill="none"/>
<use x="524.13" y="279.67" xlink:href="#hl"/>
<use x="524.13" y="279.67" xlink:href="#hd"/>
<path d="M520.63 279.67v31.00" stroke="currentColor" fill="none"/>
<use x="535.33" y="285.67" xlink:href="#hd"/>
<path d="M531.83 285.67v25.00" stroke="currentColor" fill="none"/>
<use x="546.43" y="291.67" xlink:href="#hd"/>
<circle fill="currentColor" cx="554.43" cy="288.67" r="1.2"/>
<path d="M542.93 291.67v19.00" stroke="currentColor" fill="none"/>
<use x="564.93" y="279.67" xlink:href="#hl"/>
<use x="564.93" y="276.67" xlink:href="#hd"/>
<path d="M561.43 276.67v34.00" stroke="currentColor" fill="none"/>
<use x="576.43" y="279.67" xlink:href="#hl"/>
<use x="576.43" y="279.67" xlink:href="#hd"/>
<circle fill="currentColor" cx="584.43" cy="276.67" r="1.2"/>
<path d="M572.93 279.67v31.00" stroke="currentColor" fill="none"/>
<use x="594.83" y="282.67" xlink:href="#hd"/>
<path d="M591.33 282.67v28.00" stroke="currentColor" fill="none"/>
<use x="622.13" y="285.67" xlink:href="#hd"/>
<path d="M618.63 285.67v21.00" stroke="currentColor" fill="none"/>
<use x="615.13" y="288.67" xlink:href="#hd"/>
<use x="644.33" y="297.67" xlink:href="#r4"/>
<use x="666.43" y="297.67" xlink:href="#r4"/>
<use x="64.83" y="390.67" xlink:href="#rdots"/>
<path stroke="currentColor" fill="none"
	d="M60.83 390.67v-24.00"/>
<path stroke="currentColor" fill="none" stroke-width="3"
	d="M56.33 390.67v-24.00"/>
<path stroke="currentColor" fill="none"
	d="M152.63 390.67v-24.00"/>
<path stroke="currentColor" fill="none"
	d="M239.13 390.67v-24.00"/>
<path stroke="currentColor" fill="none"
	d="M325.33 390.67v-24.00"/>
<path stroke="currentColor" fill="none" stroke-width="3"
	d="M409.93 390.67v-24.00"/>
<path stroke="currentColor" fill="none"
	d="M405.43 390.67v-24.00"/>
<use x="401.43" y="390.67" xlink:href="#rdots"/>
<use x="496.63" y="390.67" xlink:href="#rdots"/>
<path stroke="currentColor" fill="none"
	d="M492.63 390.67v-24.00"/>
<path stroke="currentColor" fill="none" stroke-width="3"
	d="M488.13 390.67v-24.00"/>
<path stroke="currentColor" fill="none"
	d="M600.83 390.67v-24.00"/>
<path stroke="currentColor" fill="none"
	d="M694.93 390.67v-24.00"/>
<path stroke="currentColor" fill="none"
	d="M13.33 390.67h681.60m-681.60 -6h681.60m-681.60 -6h681.60m-681.60 -6h681.60m-681.60 -6h681.60"/>
<text x="74.53" y="346.27">G</text>
<text x="243.73" y="346.27">Am</text>
<text x="340.53" y="346.27">G</text>
<text x="426.63" y="346.27">G</text>
<text x="503.63" y="346.27">D7</text>
<text x="609.43" y="346.27">G</text>
</g>
<g transform="scale(0.750)" stroke-width="0.70" font-family="Times" font-size="13.00">
<text x="329.33" y="346.07">1</text>
<path stroke="currentColor" fill="none"
	d="M325.33 334.67v20M325.33 334.67h78.10v20"/>
<text x="415.43" y="346.07">2</text>
<path stroke="currentColor" fill="none"
	d="M411.43 334.67v20M411.43 334.67h74.10v20"/>
<use x="25.33" y="390.67" xlink:href="#tclef"/>
<use x="40.33" y="366.67" xlink:href="#sh0"/>
<path fill="currentColor"
	d="M74.53 378.87l16.30 0.00v-3.20l-16.30 -0.00"/>
<use x="78.33" y="360.67" xlink:href="#hl"/>
<use x="78.33" y="357.67" xlink:href="#hd"/>
<path d="M74.83 357.67v20.20" stroke="currentColor" fill="none"/>
<use x="93.93" y="360.67" xlink:href="#hl"/>
<use x="93.93" y="357.67" xlink:href="#hd"/>
<path d="M90.43 357.67v20.20" stroke="currentColor" fill="none"/>
<use x="111.03" y="360.67" xlink:href="#hl"/>
<use x="111.03" y="357.67" xlink:href="#hd"/>
<circle fill="currentColor" cx="119.03" cy="357.67" r="1.2"/>
<path d="M107.53 357.67v21.00" stroke="currentColor" fill="none"/>
<use x="138.73" y="360.67" xlink:href="#hl"/>
<use x="138.73" y="357.67" xlink:href="#hd"/>
<path d="M135.23 357.67v21.00" stroke="currentColor" fill="none"/>
<path fill="currentColor"
	d="M135.23 378.67c0.6 -5.6 9.6 -9 5.6 -18.4
	c1.6 6 -1.3 11.6 -5.6 12.8
"/>
<path fill="currentColor"
	d="M161.23 391.97l16.00 -5.20v-3.20l-16.00 5.20"/>
<use x="165.13" y="372.67" xlink:href="#hd"/>
<path d="M161.63 372.67v18.20" stroke="currentColor" fill="none"/>
<use x="180.43" y="360.67" xlink:href="#hl"/>
<use x="180.43" y="357.67" xlink:href="#hd"/>
<path d="M176.93 357.67v28.30" stroke="currentColor" fill="none"/>
<use x="197.53" y="360.67" xlink:href="#hl"/>
<use x="197.53" y="357.67" xlink:href="#hd"/>
<circle fill="currentColor" cx="205.53" cy="357.67" r="1.2"/>
<path d="M194.03 357.67v21.00" stroke="currentColor" fill="none"/>
<use x="225.23" y="360.67" xlink:href="#hl"/>
<use x="225.23" y="357.67" xlink:href="#hd"/>
<path d="M221.73 357.67v21.00" stroke="currentColor" fill="none"/>
<path fill="currentColor"
	d="M221.73 378.67c0.6 -5.6 9.6 -9 5.6 -18.4
	c1.6 6 -1.3 11.6 -5.6 12.8
"/>
<path fill="currentColor"
	d="M247.83 378.87l16.30 1.70v-3.20l-16.30 -1.70"/>
<use x="251.63" y="360.67" xlink:href="#hl"/>
<use x="251.63" y="357.67" xlink:href="#hd"/>
<path d="M248.13 357.67v20.20" stroke="currentColor" fill="none"/>
<use x="267.23" y="360.67" xlink:href="#hl"/>
<use x="267.23" y="360.67" xlink:href="#hd"/>
<path d="M263.73 360.67v18.80" stroke="currentColor" fill="none"/>
<use x="284.03" y="369.67" xlink:href="#hd"/>
<circle fill="currentColor" cx="292.03" cy="369.67" r="1.2"/>
<path d="M280.53 369.67v20.00" stroke="currentColor" fill="none"/>
<use x="311.43" y="360.67" xlink:href="#hl"/>
<use x="311.43" y="360.67" xlink:href="#hd"/>
<path d="M307.93 360.67v20.00" stroke="currentColor" fill="none"/>
<path fill="currentColor"
	d="M307.93 380.67c0.6 -5.6 9.6 -9 5.6 -18.4
	c1.6 6 -1.3 11.6 -5.6 12.8
"/>
<use x="344.33" y="363.67" xlink:href="#hd"/>
<path d="M340.83 363.67v20.00" stroke="currentColor" fill="none"/>
<use x="367.43" y="378.67" xlink:href="#r4"/>
<use x="390.53" y="372.67" xlink:href="#hd"/>
<path d="M387.03 372.67v20.00" stroke="currentColor" fill="none"/>
<use x="430.43" y="363.67" xlink:href="#hd"/>
<path d="M426.93 363.67v20.00" stroke="currentColor" fill="none"/>
<use x="453.53" y="378.67" xlink:href="#r4"/>
<use x="476.63" y="378.67" xlink:href="#r4"/>
<path fill="currentColor"
	d="M506.23 393.67l77.50 0.00v-3.20l-77.50 -0.00"/>
<use x="510.13" y="360.67" xlink:href="#hl"/>
<use x="510.13" y="360.67" xlink:href="#hd"/>
<path d="M506.63 360.67v32.00" stroke="currentColor" fill="none"/>
<use x="525.63" y="360.67" xlink:href="#hl"/>
<use x="525.63" y="360.67" xlink:href="#hd"/>
<path d="M522.13 360.67v32.00" stroke="currentColor" fill="none"/>
<use x="540.93" y="369.67" xlink:href="#hd"/>
<path d="M537.43 369.67v23.00" stroke="currentColor" fill="none"/>
<use x="556.33" y="360.67" xlink:href="#hl"/>
<use x="556.33" y="360.67" xlink:href="#hd"/>
<path d="M552.83 360.67v32.00" stroke="currentColor" fill="none"/>
<use x="571.63" y="375.67" xlink:href="#hd"/>
<path d="M568.13 375.67v17.00" stroke="currentColor" fill="none"/>
<use x="586.93" y="369.67" xlink:href="#hd"/>
<path d="M583.43 369.67v23.00" stroke="currentColor" fill="none"/>
<path fill="currentColor"
	d="M609.43 397.87l46.60 0.00v-3.20l-46.60 -0.00"/>
<use x="613.33" y="363.67" xlink:href="#hd"/>
<path d="M609.83 363.67v33.20" stroke="currentColor" fill="none"/>
<use x="628.63" y="378.67" xlink:href="#hd"/>
<path d="M625.13 378.67v18.20" stroke="currentColor" fill="none"/>
<use x="643.93" y="372.67" xlink:href="#hd"/>
<path d="M640.43 372.67v24.20" stroke="currentColor" fill="none"/>
<use x="659.23" y="363.67" xlink:href="#hd"/>
<path d="M655.73 363.67v33.20" stroke="currentColor" fill="none"/>
<use x="676.03" y="360.67" xlink:href="#hl"/>
<use x="676.03" y="357.67" xlink:href="#hd"/>
<path d="M672.53 357.67v21.00" stroke="currentColor" fill="none"/>
<path stroke="currentColor" fill="none"
	d="M186.03 489.67v-24.00"/>
<path stroke="currentColor" fill="none"
	d="M326.23 489.67v-24.00"/>
<path stroke="currentColor" fill="none"
	d="M466.53 489.67v-24.00"/>
<path stroke="currentColor" fill="none" stroke-width="3"
	d="M579.33 489.67v-24.00"/>
<path stroke="currentColor" fill="none"
	d="M574.83 489.67v-24.00"/>
<use x="570.83" y="489.67" xlink:href="#rdots"/>
<path stroke="currentColor" fill="none" stroke-width="3"
	d="M693.43 489.67v-24.00"/>
<path stroke="currentColor" fill="none"
	d="M688.93 489.67v-24.00"/>
<path stroke="currentColor" fill="none"
	d="M13.33 489.67h681.60m-681.60 -6h681.60m-681.60 -6h681.60m-681.60 -6h681.60m-681.60 -6h681.60"/>
</g>
<g transform="scale(0.750)" stroke-width="0.70" font-family="Helvetica" font-size="12.00">
<text x="51.83" y="442.27">D7</text>
<text x="194.73" y="442.27">G</text>
<text x="332.23" y="442.27">D7</text>
<text x="481.73" y="442.27">G</text>
<text x="596.03" y="442.27">G</text>
</g>
<g transform="scale(0.750)" stroke-width="0.70" font-family="Times" font-size="13.00">
<text x="470.53" y="427.07">1</text>
<path stroke="currentColor" fill="none"
	d="M466.53 415.67v20M466.53 415.67h106.30v20"/>
<text x="584.83" y="427.07">2</text>
<path stroke="currentColor" fill="none"
	d="M580.83 415.67v20M580.83 415.67h114.10v20"/>
<use x="25.33" y="489.67" xlink:href="#tclef"/>
<use x="40.33" y="465.67" xlink:href="#sh0"/>
<path fill="currentColor"
	d="M54.53 489.87l109.10 0.00v-3.20l-109.10 -0.00"/>
<use x="58.33" y="471.67" xlink:href="#hd"/>
<path d="M54.83 471.67v17.20" stroke="currentColor" fill="none"/>
<use x="80.03" y="465.67" xlink:href="#hd"/>
<path d="M76.53 465.67v23.20" stroke="currentColor" fill="none"/>
<use x="101.73" y="459.67" xlink:href="#hl"/>
<use x="101.73" y="459.67" xlink:href="#hd"/>
<path d="M98.23 459.67v29.20" stroke="currentColor" fill="none"/>
<use x="123.33" y="471.67" xlink:href="#hd"/>
<path d="M119.83 471.67v17.20" stroke="currentColor" fill="none"/>
<use x="145.03" y="465.67" xlink:href="#hd"/>
<path d="M141.53 465.67v23.20" stroke="currentColor" fill="none"/>
<use x="166.73" y="459.67" xlink:href="#hl"/>
<use x="166.73" y="459.67" xlink:href="#hd"/>
<path d="M163.23 459.67v29.20" stroke="currentColor" fill="none"/>
<path fill="currentColor"
	d="M194.73 489.87l109.10 0.00v-3.20l-109.10 -0.00"/>
<use x="198.53" y="462.67" xlink:href="#hd"/>
<path d="M195.03 462.67v26.20" stroke="currentColor" fill="none"/>
<use x="220.23" y="459.67" xlink:href="#hl"/>
<use x="220.23" y="456.67" xlink:href="#hd"/>
<path d="M216.73 456.67v32.20" stroke="currentColor" fill="none"/>
<use x="241.93" y="471.67" xlink:href="#hd"/>
<path d="M238.43 471.67v17.20" stroke="currentColor" fill="none"/>
<use x="263.53" y="462.67" xlink:href="#hd"/>
<path d="M260.03 462.67v26.20" stroke="currentColor" fill="none"/>
<use x="285.23" y="459.67" xlink:href="#hl"/>
<use x="285.23" y="456.67" xlink:href="#hd"/>
<path d="M281.73 456.67v32.20" stroke="currentColor" fill="none"/>
<use x="306.93" y="462.67" xlink:href="#hd"/>
<path d="M303.43 462.67v26.20" stroke="currentColor" fill="none"/>
<path fill="currentColor"
	d="M334.93 483.87l109.20 0.00v-3.20l-109.20 -0.00"/>
<use x="338.73" y="459.67" xlink:href="#hl"/>
<use x="338.73" y="453.67" xlink:href="#hl"/>
<use x="338.73" y="453.67" xlink:href="#hd"/>
<path d="M335.23 453.67v29.20" stroke="currentColor" fill="none"/>
<use x="360.43" y="459.67" xlink:href="#hl"/>
<use x="360.43" y="456.67" xlink:href="#hd"/>
<path d="M356.93 456.67v26.20" stroke="currentColor" fill="none"/>
<use x="382.23" y="459.67" xlink:href="#hl"/>
<use x="382.23" y="459.67" xlink:href="#hd"/>
<path d="M378.73 459.67v23.20" stroke="currentColor" fill="none"/>
<use x="403.83" y="462.67" xlink:href="#hd"/>
<path d="M400.33 462.67v20.20" stroke="currentColor" fill="none"/>
<use x="425.53" y="465.67" xlink:href="#hd"/>
<path d="M422.03 465.67v17.20" stroke="currentColor" fill="none"/>
<use x="447.23" y="459.67" xlink:href="#hl"/>
<use x="447.23" y="459.67" xlink:href="#hd"/>
<path d="M443.73 459.67v23.20" stroke="currentColor" fill="none"/>
<use x="485.53" y="462.67" xlink:href="#hd"/>
<path d="M482.03 462.67v20.00" stroke="currentColor" fill="none"/>
<use x="519.43" y="477.67" xlink:href="#r4"/>
<use x="553.23" y="459.67" xlink:href="#hl"/>
<use x="553.23" y="453.67" xlink:href="#hl"/>
<use x="553.23" y="450.67" xlink:href="#hd"/>
<path d="M549.73 450.67v27.00" stroke="currentColor" fill="none"/>
<use x="599.83" y="462.67" xlink:href="#hd"/>
<path d="M596.33 462.67v20.00" stroke="currentColor" fill="none"/>
<use x="633.73" y="477.67" xlink:href="#r4"/>
<use x="667.53" y="477.67" xlink:href="#r4"/>
</g>
</svg>
