<?xml version="1.0" standalone="no"?>
<!DOCTYPE svg PUBLIC "-//W3C//DTD SVG 1.1//EN"
	"http://www.w3.org/Graphics/SVG/1.1/DTD/svg11.dtd">
<svg xmlns="http://www.w3.org/2000/svg" version="1.1"
	xmlns:xlink="http://www.w3.org/1999/xlink"
	xml:space='preserve' color="black"
	width="7.38in" height="3.36in" viewBox="0 0 531 242">
<title>data/results/biggest_11/abc/140.abc (140) tune 1</title>
<!-- Creator: abcm2ps-7.8.14 -->
<!-- CreationDate: Aug  9, 2015 23:50 -->
<!-- CommandLine: -g data/results/biggest_11/abc/140.abc -O /home/allanino/Dropbox/Trabalhos/folkme/svg/140.svg -->
<g transform="scale(0.750)" stroke-width="0.70" font-family="Times" font-size="20.00">
<text x="354.13" y="21.67" text-anchor="middle">Tunqus er manckPosse (Walzer) FCBb</text>
</g>
<g transform="scale(0.750)" stroke-width="0.70" font-family="Times" font-size="16.00">
<text x="354.13" y="41.30" text-anchor="middle">Hanny Christen. Bd.IX Uri II, Schwyz, Unterwalden I S.424 (wz10684) orig. F,Bb-Dur</text>
</g>
<g transform="scale(0.750)" stroke-width="0.70" font-family="Times" font-size="15.00">
<text x="111.73" y="86.84">A</text>
<defs>
<g id="rdots" fill="currentColor">
	<circle cx="0" cy="-9" r="1.2"/>
	<circle cx="0" cy="-15" r="1.2"/>
</g>
</defs>
<use x="108.23" y="141.84" xlink:href="#rdots"/>
<path stroke="currentColor" fill="none"
	d="M104.23 141.84v-24.00"/>
<path stroke="currentColor" fill="none" stroke-width="3"
	d="M99.73 141.84v-24.00"/>
<path stroke="currentColor" fill="none"
	d="M231.73 141.84v-24.00"/>
<path stroke="currentColor" fill="none"
	d="M354.23 141.84v-24.00"/>
<path stroke="currentColor" fill="none"
	d="M467.73 141.84v-24.00"/>
<path stroke="currentColor" fill="none"
	d="M599.33 141.84v-24.00"/>
<path stroke="currentColor" fill="none"
	d="M694.93 141.84v-24.00"/>
<path stroke="currentColor" fill="none"
	d="M13.33 141.84h681.60m-681.60 -6h681.60m-681.60 -6h681.60m-681.60 -6h681.60m-681.60 -6h681.60"/>
</g>
<g transform="scale(0.750)" stroke-width="0.70" font-family="Helvetica" font-size="12.00">
<text x="118.23" y="105.44">C</text>
<text x="241.33" y="105.44">F</text>
<text x="360.63" y="105.44">C7</text>
<text x="477.33" y="105.44">F</text>
<defs>
<path id="utclef" fill="currentColor" d="m-50 -90
	c-72 -41 -72 -158 52 -188
	c150 -10 220 188 90 256
	c-114 52 -275 0 -293 -136
	c-15 -181 93 -229 220 -334
	c88 -87 79 -133 62 -210
	c-51 33 -94 105 -89 186
	c17 267 36 374 49 574
	c6 96 -19 134 -77 135
	c-80 1 -126 -93 -61 -133
	c85 -41 133 101 31 105
	c23 17 92 37 90 -92
	c-10 -223 -39 -342 -50 -617
	c0 -90 0 -162 96 -232
	c56 72 63 230 22 289
	c-74 106 -257 168 -255 316
	c9 153 148 185 252 133
	c86 -65 29 -192 -80 -176
	c-71 12 -105 67 -59 124"/>
<use id="tclef" transform="scale(0.045)"
	xlink:href="#utclef"/>
</defs>
<use x="25.33" y="141.84" xlink:href="#tclef"/>
<defs>
<path id="uflat" fill="currentColor" d="
	m100 -746
	h32
	v734
	l-32 4
	m32 -332
	c46 -72 152 -90 208 -20
	c100 110 -120 326 -208 348
	m0 -28
	c54 0 200 -206 130 -290
	c-50 -60 -130 -4 -130 34"/>
<use id="ft0" transform="translate(-3.5,3.5) scale(0.018)"
	xlink:href="#uflat"/>
</defs>
<use x="40.33" y="129.84" xlink:href="#ft0"/>
<g font-family="serif" font-size="16" font-weight="bold" font-style="normal"
	transform="translate(56.33,141.84) scale(1.2,1)">
	<text y="-1" text-anchor="middle">4</text>
	<text y="-13" text-anchor="middle">3</text>
</g>
<path fill="currentColor"
	d="M70.53 149.74l15.10 0.00v-3.20l-15.10 -0.00"/>
<path fill="currentColor"
	d="M70.83 144.74l14.40 0.00v-3.20l-14.40 -0.00"/>
<defs>
<ellipse id="hd" rx="4.1" ry="2.9"
	transform="rotate(-20)" fill="currentColor"/>
</defs>
<use x="74.33" y="129.84" xlink:href="#hd"/>
<path d="M70.83 129.84v19.00" stroke="currentColor" fill="none"/>
<use x="88.73" y="129.84" xlink:href="#hd"/>
<path d="M85.23 129.84v19.00" stroke="currentColor" fill="none"/>
<use x="121.73" y="126.84" xlink:href="#hd"/>
<path d="M118.23 126.84v20.00" stroke="currentColor" fill="none"/>
<path fill="currentColor"
	d="M149.33 142.24l61.20 3.80v-3.20l-61.20 -3.80"/>
<use x="153.13" y="120.84" xlink:href="#hd"/>
<path d="M149.63 120.84v20.40" stroke="currentColor" fill="none"/>
<use x="173.33" y="114.84" xlink:href="#hd"/>
<path d="M169.83 114.84v27.70" stroke="currentColor" fill="none"/>
<use x="193.53" y="120.84" xlink:href="#hd"/>
<path d="M190.03 120.84v22.90" stroke="currentColor" fill="none"/>
<use x="213.73" y="126.84" xlink:href="#hd"/>
<path d="M210.23 126.84v18.20" stroke="currentColor" fill="none"/>
<use x="244.23" y="117.84" xlink:href="#hd"/>
<path d="M240.73 117.84v20.00" stroke="currentColor" fill="none"/>
<path fill="currentColor"
	d="M271.83 146.04l61.20 -3.80v-3.20l-61.20 3.80"/>
<use x="275.63" y="126.84" xlink:href="#hd"/>
<path d="M272.13 126.84v18.20" stroke="currentColor" fill="none"/>
<defs>
<path id="hl" stroke="currentColor" d="m-6 0h12"/>
</defs>
<use x="295.83" y="111.84" xlink:href="#hl"/>
<use x="295.83" y="111.84" xlink:href="#hd"/>
<path d="M292.33 111.84v31.90" stroke="currentColor" fill="none"/>
<use x="316.03" y="114.84" xlink:href="#hd"/>
<path d="M312.53 114.84v27.70" stroke="currentColor" fill="none"/>
<use x="336.23" y="117.84" xlink:href="#hd"/>
<path d="M332.73 117.84v23.40" stroke="currentColor" fill="none"/>
<use x="366.73" y="120.84" xlink:href="#hd"/>
<path d="M363.23 120.84v20.00" stroke="currentColor" fill="none"/>
<use x="398.13" y="114.84" xlink:href="#hd"/>
<path d="M394.63 114.84v20.00" stroke="currentColor" fill="none"/>
<path fill="currentColor"
	d="M425.73 134.64l20.90 5.40v-3.20l-20.90 -5.40"/>
<use x="429.53" y="111.84" xlink:href="#hl"/>
<use x="429.53" y="105.84" xlink:href="#hl"/>
<use x="429.53" y="105.84" xlink:href="#hd"/>
<path d="M426.03 105.84v27.90" stroke="currentColor" fill="none"/>
<use x="449.73" y="120.84" xlink:href="#hd"/>
<path d="M446.23 120.84v18.20" stroke="currentColor" fill="none"/>
<path fill="currentColor"
	d="M476.43 142.24l101.70 6.30v-3.20l-101.70 -6.30"/>
<use x="480.23" y="117.84" xlink:href="#hd"/>
<path d="M476.73 117.84v23.40" stroke="currentColor" fill="none"/>
<use x="500.43" y="111.84" xlink:href="#hl"/>
<use x="500.43" y="105.84" xlink:href="#hl"/>
<use x="500.43" y="105.84" xlink:href="#hd"/>
<path d="M496.93 105.84v36.70" stroke="currentColor" fill="none"/>
<use x="520.73" y="111.84" xlink:href="#hl"/>
<use x="520.73" y="111.84" xlink:href="#hd"/>
<path d="M517.23 111.84v31.90" stroke="currentColor" fill="none"/>
<use x="540.93" y="126.84" xlink:href="#hd"/>
<path d="M537.43 126.84v18.20" stroke="currentColor" fill="none"/>
<use x="561.13" y="117.84" xlink:href="#hd"/>
<path d="M557.63 117.84v28.50" stroke="currentColor" fill="none"/>
<use x="581.33" y="126.84" xlink:href="#hd"/>
<path d="M577.83 126.84v20.70" stroke="currentColor" fill="none"/>
<defs>
<path id="Hd" fill="currentColor" d="m3 -1.6
	c-1 -1.8 -7 1.4 -6 3.2
	c1 1.8 7 -1.4 6 -3.2
	m0.5 -0.3
	c2 3.8 -5 7.6 -7 3.8
	c-2 -3.8 5 -7.6 7 -3.8"/>
</defs>
<use x="612.33" y="132.84" xlink:href="#Hd"/>
<path d="M615.83 132.84v-20.00" stroke="currentColor" fill="none"/>
<path fill="currentColor"
	d="M652.83 146.54l20.90 -2.40v-3.20l-20.90 2.40"/>
<use x="656.73" y="126.84" xlink:href="#hd"/>
<path d="M653.23 126.84v18.70" stroke="currentColor" fill="none"/>
<use x="676.93" y="123.84" xlink:href="#hd"/>
<path d="M673.43 123.84v19.30" stroke="currentColor" fill="none"/>
<path stroke="currentColor" fill="none"
	d="M159.43 216.84v-24.00"/>
<path stroke="currentColor" fill="none"
	d="M298.13 216.84v-24.00"/>
<path stroke="currentColor" fill="none"
	d="M436.83 216.84v-24.00"/>
<path stroke="currentColor" fill="none" stroke-width="3"
	d="M573.33 216.84v-24.00"/>
<path stroke="currentColor" fill="none"
	d="M568.83 216.84v-24.00"/>
<use x="564.83" y="216.84" xlink:href="#rdots"/>
<path stroke="currentColor" fill="none"
	d="M694.93 216.84v-24.00"/>
<path stroke="currentColor" fill="none"
	d="M13.33 216.84h681.60m-681.60 -6h681.60m-681.60 -6h681.60m-681.60 -6h681.60m-681.60 -6h681.60"/>
<text x="166.23" y="180.44">C7</text>
<text x="452.93" y="180.44">F</text>
<text x="590.93" y="180.44">F</text>
</g>
<g transform="scale(0.750)" stroke-width="0.70" font-family="Times" font-size="13.00">
<text x="440.83" y="178.24">1</text>
<path stroke="currentColor" fill="none"
	d="M436.83 166.84v20M436.83 166.84h130.00v20"/>
<text x="578.83" y="178.24">2</text>
<path stroke="currentColor" fill="none"
	d="M574.83 166.84v20M574.83 166.84h112.10"/>
<use x="25.33" y="216.84" xlink:href="#tclef"/>
<use x="40.33" y="204.84" xlink:href="#ft0"/>
<use x="58.33" y="198.84" xlink:href="#hd"/>
<path d="M54.83 198.84v20.00" stroke="currentColor" fill="none"/>
<use x="94.43" y="186.84" xlink:href="#hl"/>
<use x="94.43" y="180.84" xlink:href="#hl"/>
<use x="94.43" y="180.84" xlink:href="#hd"/>
<path d="M90.93 180.84v24.00" stroke="currentColor" fill="none"/>
<use x="130.53" y="192.84" xlink:href="#hd"/>
<path d="M127.03 192.84v20.00" stroke="currentColor" fill="none"/>
<use x="172.33" y="195.84" xlink:href="#hd"/>
<path d="M168.83 195.84v20.00" stroke="currentColor" fill="none"/>
<path fill="currentColor"
	d="M204.63 219.84l69.80 0.00v-3.20l-69.80 -0.00"/>
<use x="208.43" y="201.84" xlink:href="#hd"/>
<path d="M204.93 201.84v17.00" stroke="currentColor" fill="none"/>
<use x="231.53" y="186.84" xlink:href="#hl"/>
<use x="231.53" y="183.84" xlink:href="#hd"/>
<path d="M228.03 183.84v35.00" stroke="currentColor" fill="none"/>
<use x="254.53" y="201.84" xlink:href="#hd"/>
<path d="M251.03 201.84v17.00" stroke="currentColor" fill="none"/>
<use x="277.63" y="195.84" xlink:href="#hd"/>
<path d="M274.13 195.84v23.00" stroke="currentColor" fill="none"/>
<use x="311.13" y="195.84" xlink:href="#hd"/>
<path d="M307.63 195.84v20.00" stroke="currentColor" fill="none"/>
<path fill="currentColor"
	d="M343.33 219.84l69.80 0.00v-3.20l-69.80 -0.00"/>
<use x="347.13" y="201.84" xlink:href="#hd"/>
<path d="M343.63 201.84v17.00" stroke="currentColor" fill="none"/>
<use x="370.23" y="186.84" xlink:href="#hl"/>
<use x="370.23" y="183.84" xlink:href="#hd"/>
<path d="M366.73 183.84v35.00" stroke="currentColor" fill="none"/>
<use x="393.23" y="189.84" xlink:href="#hd"/>
<path d="M389.73 189.84v29.00" stroke="currentColor" fill="none"/>
<use x="416.33" y="195.84" xlink:href="#hd"/>
<path d="M412.83 195.84v23.00" stroke="currentColor" fill="none"/>
<use x="455.83" y="192.84" xlink:href="#hd"/>
<path d="M452.33 192.84v20.00" stroke="currentColor" fill="none"/>
<defs>
<path id="r4" fill="currentColor" d="m-1 -8.5
	l3.6 5.1 -2.1 5.2 2.2 4.3
	c-2.6 -2.3 -5.1 0 -2.4 2.6
	c-4.8 -3 -1.5 -6.9 1.4 -4.1
	l-3.1 -4.5 1.9 -5.1 -1.5 -3.5"/>
</defs>
<use x="491.93" y="204.84" xlink:href="#r4"/>
<path fill="currentColor"
	d="M524.13 233.14l27.00 -8.30v-3.20l-27.00 8.30"/>
<path fill="currentColor"
	d="M544.83 221.74l6.00 -1.80v-3.20l-6.00 1.80"/>
<use x="528.03" y="213.84" xlink:href="#hd"/>
<circle fill="currentColor" cx="536.03" cy="213.84" r="1.2"/>
<path d="M524.53 213.84v18.20" stroke="currentColor" fill="none"/>
<use x="554.33" y="192.84" xlink:href="#hd"/>
<path d="M550.83 192.84v31.10" stroke="currentColor" fill="none"/>
<use x="593.83" y="192.84" xlink:href="#hd"/>
<path d="M590.33 192.84v20.00" stroke="currentColor" fill="none"/>
<use x="629.93" y="204.84" xlink:href="#r4"/>
<use x="666.03" y="204.84" xlink:href="#r4"/>
<use x="64.83" y="299.84" xlink:href="#rdots"/>
<path stroke="currentColor" fill="none"
	d="M60.83 299.84v-24.00"/>
<path stroke="currentColor" fill="none" stroke-width="3"
	d="M56.33 299.84v-24.00"/>
<path stroke="currentColor" fill="none"
	d="M141.23 299.84v-24.00"/>
<path stroke="currentColor" fill="none"
	d="M208.83 299.84v-24.00"/>
<path stroke="currentColor" fill="none"
	d="M282.43 299.84v-24.00"/>
<path stroke="currentColor" fill="none"
	d="M348.13 299.84v-24.00"/>
<path stroke="currentColor" fill="none"
	d="M421.73 299.84v-24.00"/>
<path stroke="currentColor" fill="none"
	d="M495.43 299.84v-24.00"/>
<path stroke="currentColor" fill="none"
	d="M569.03 299.84v-24.00"/>
<path stroke="currentColor" fill="none" stroke-width="3"
	d="M633.03 299.84v-24.00"/>
<path stroke="currentColor" fill="none"
	d="M628.53 299.84v-24.00"/>
<use x="624.53" y="299.84" xlink:href="#rdots"/>
<path stroke="currentColor" fill="none" stroke-width="3"
	d="M693.43 299.84v-24.00"/>
<path stroke="currentColor" fill="none"
	d="M688.93 299.84v-24.00"/>
<path stroke="currentColor" fill="none"
	d="M13.33 299.84h681.60m-681.60 -6h681.60m-681.60 -6h681.60m-681.60 -6h681.60m-681.60 -6h681.60"/>
</g>
<g transform="scale(0.750)" stroke-width="0.70" font-family="Helvetica" font-size="12.00">
<text x="72.13" y="253.44">C7</text>
<text x="150.83" y="253.44">F</text>
<text x="215.13" y="253.44">C7</text>
<text x="292.03" y="253.44">F</text>
<text x="354.43" y="253.44">C7</text>
<text x="431.33" y="253.44">F</text>
<text x="501.73" y="253.44">C7</text>
<text x="585.13" y="253.44">F</text>
<text x="650.53" y="253.44">F</text>
</g>
<g transform="scale(0.750)" stroke-width="0.70" font-family="Times" font-size="13.00">
<text x="573.03" y="253.24">1</text>
<path stroke="currentColor" fill="none"
	d="M569.03 241.84v20M569.03 241.84h57.40v20"/>
<text x="638.53" y="253.24">2</text>
<path stroke="currentColor" fill="none"
	d="M634.53 241.84v20M634.53 241.84h60.40v20"/>
<use x="25.33" y="299.84" xlink:href="#tclef"/>
<use x="40.33" y="287.84" xlink:href="#ft0"/>
<path fill="currentColor"
	d="M81.53 281.64l53.60 0.00v3.20l-53.60 -0.00"/>
<use x="78.33" y="305.84" xlink:href="#hl"/>
<use x="78.33" y="305.84" xlink:href="#hd"/>
<path d="M81.83 305.84v-23.20" stroke="currentColor" fill="none"/>
<use x="89.43" y="305.84" xlink:href="#hl"/>
<use x="89.43" y="305.84" xlink:href="#hd"/>
<path d="M92.93 305.84v-23.20" stroke="currentColor" fill="none"/>
<use x="99.73" y="299.84" xlink:href="#hd"/>
<path d="M103.23 299.84v-17.20" stroke="currentColor" fill="none"/>
<use x="109.93" y="305.84" xlink:href="#hl"/>
<use x="109.93" y="311.84" xlink:href="#hl"/>
<use x="109.93" y="314.84" xlink:href="#hd"/>
<path d="M113.43 314.84v-32.20" stroke="currentColor" fill="none"/>
<use x="121.03" y="305.84" xlink:href="#hl"/>
<use x="121.03" y="305.84" xlink:href="#hd"/>
<path d="M124.53 305.84v-23.20" stroke="currentColor" fill="none"/>
<use x="131.23" y="299.84" xlink:href="#hd"/>
<path d="M134.73 299.84v-17.20" stroke="currentColor" fill="none"/>
<path fill="currentColor"
	d="M156.93 277.64l33.20 4.00v3.20l-33.20 -4.00"/>
<use x="153.73" y="296.84" xlink:href="#hd"/>
<path d="M157.23 296.84v-18.20" stroke="currentColor" fill="none"/>
<use x="164.03" y="305.84" xlink:href="#hl"/>
<use x="164.03" y="305.84" xlink:href="#hd"/>
<path d="M167.53 305.84v-26.00" stroke="currentColor" fill="none"/>
<use x="175.13" y="305.84" xlink:href="#hl"/>
<use x="175.13" y="311.84" xlink:href="#hl"/>
<use x="175.13" y="311.84" xlink:href="#hd"/>
<path d="M178.63 311.84v-30.60" stroke="currentColor" fill="none"/>
<use x="186.23" y="305.84" xlink:href="#hl"/>
<use x="186.23" y="305.84" xlink:href="#hd"/>
<path d="M189.73 305.84v-23.30" stroke="currentColor" fill="none"/>
<use x="197.03" y="296.84" xlink:href="#hd"/>
<path d="M200.53 296.84v-20.00" stroke="currentColor" fill="none"/>
<path fill="currentColor"
	d="M224.43 275.64l51.80 0.00v3.20l-51.80 -0.00"/>
<use x="221.33" y="299.84" xlink:href="#hd"/>
<path d="M224.83 299.84v-23.20" stroke="currentColor" fill="none"/>
<use x="231.53" y="293.84" xlink:href="#hd"/>
<path d="M235.03 293.84v-17.20" stroke="currentColor" fill="none"/>
<use x="241.73" y="305.84" xlink:href="#hl"/>
<use x="241.73" y="305.84" xlink:href="#hd"/>
<path d="M245.23 305.84v-29.20" stroke="currentColor" fill="none"/>
<use x="251.93" y="299.84" xlink:href="#hd"/>
<path d="M255.43 299.84v-23.20" stroke="currentColor" fill="none"/>
<use x="262.23" y="299.84" xlink:href="#hd"/>
<path d="M265.73 299.84v-23.20" stroke="currentColor" fill="none"/>
<use x="272.43" y="293.84" xlink:href="#hd"/>
<path d="M275.93 293.84v-17.20" stroke="currentColor" fill="none"/>
<path fill="currentColor"
	d="M298.03 262.64l31.40 0.00v3.20l-31.40 -0.00"/>
<use x="294.93" y="296.84" xlink:href="#hd"/>
<path d="M298.43 296.84v-33.20" stroke="currentColor" fill="none"/>
<use x="305.13" y="281.84" xlink:href="#hd"/>
<path d="M308.63 281.84v-18.20" stroke="currentColor" fill="none"/>
<use x="315.33" y="284.84" xlink:href="#hd"/>
<path d="M318.83 284.84v-21.20" stroke="currentColor" fill="none"/>
<use x="325.63" y="296.84" xlink:href="#hd"/>
<path d="M329.13 296.84v-33.20" stroke="currentColor" fill="none"/>
<use x="336.33" y="290.84" xlink:href="#hd"/>
<path d="M339.83 290.84v-20.00" stroke="currentColor" fill="none"/>
<path fill="currentColor"
	d="M363.83 265.64l51.80 0.00v3.20l-51.80 -0.00"/>
<use x="360.63" y="287.84" xlink:href="#hd"/>
<path d="M364.13 287.84v-21.20" stroke="currentColor" fill="none"/>
<use x="370.83" y="305.84" xlink:href="#hl"/>
<use x="370.83" y="305.84" xlink:href="#hd"/>
<path d="M374.33 305.84v-39.20" stroke="currentColor" fill="none"/>
<use x="381.13" y="299.84" xlink:href="#hd"/>
<path d="M384.63 299.84v-33.20" stroke="currentColor" fill="none"/>
<use x="391.33" y="293.84" xlink:href="#hd"/>
<path d="M394.83 293.84v-27.20" stroke="currentColor" fill="none"/>
<use x="401.53" y="284.84" xlink:href="#hd"/>
<path d="M405.03 284.84v-18.20" stroke="currentColor" fill="none"/>
<use x="411.73" y="287.84" xlink:href="#hd"/>
<path d="M415.23 287.84v-21.20" stroke="currentColor" fill="none"/>
<path fill="currentColor"
	d="M437.43 272.84l51.80 0.00v3.20l-51.80 -0.00"/>
<use x="434.23" y="290.84" xlink:href="#hd"/>
<path d="M437.73 290.84v-17.00" stroke="currentColor" fill="none"/>
<use x="444.53" y="305.84" xlink:href="#hl"/>
<use x="444.53" y="305.84" xlink:href="#hd"/>
<path d="M448.03 305.84v-32.00" stroke="currentColor" fill="none"/>
<use x="454.73" y="296.84" xlink:href="#hd"/>
<path d="M458.23 296.84v-23.00" stroke="currentColor" fill="none"/>
<use x="464.93" y="290.84" xlink:href="#hd"/>
<path d="M468.43 290.84v-17.00" stroke="currentColor" fill="none"/>
<use x="475.13" y="293.84" xlink:href="#hd"/>
<path d="M478.63 293.84v-20.00" stroke="currentColor" fill="none"/>
<use x="485.43" y="296.84" xlink:href="#hd"/>
<path d="M488.93 296.84v-23.00" stroke="currentColor" fill="none"/>
<path fill="currentColor"
	d="M504.03 319.04l51.80 -7.50v-3.20l-51.80 7.50"/>
<use x="507.93" y="299.84" xlink:href="#hd"/>
<path d="M504.43 299.84v18.20" stroke="currentColor" fill="none"/>
<use x="518.13" y="281.84" xlink:href="#hd"/>
<path d="M514.63 281.84v34.70" stroke="currentColor" fill="none"/>
<use x="528.33" y="284.84" xlink:href="#hd"/>
<path d="M524.83 284.84v30.20" stroke="currentColor" fill="none"/>
<use x="538.63" y="269.84" xlink:href="#hl"/>
<use x="538.63" y="266.84" xlink:href="#hd"/>
<path d="M535.13 266.84v46.70" stroke="currentColor" fill="none"/>
<use x="548.83" y="281.84" xlink:href="#hd"/>
<path d="M545.33 281.84v30.30" stroke="currentColor" fill="none"/>
<use x="559.03" y="278.84" xlink:href="#hd"/>
<path d="M555.53 278.84v31.80" stroke="currentColor" fill="none"/>
<use x="588.03" y="275.84" xlink:href="#hd"/>
<path d="M584.53 275.84v20.00" stroke="currentColor" fill="none"/>
<use x="601.03" y="287.84" xlink:href="#r4"/>
<use x="614.03" y="269.84" xlink:href="#hl"/>
<use x="614.03" y="263.84" xlink:href="#hl"/>
<use x="614.03" y="260.84" xlink:href="#hd"/>
<path d="M610.53 260.84v27.00" stroke="currentColor" fill="none"/>
<use x="653.53" y="275.84" xlink:href="#hd"/>
<path d="M650.03 275.84v20.00" stroke="currentColor" fill="none"/>
<use x="666.43" y="287.84" xlink:href="#r4"/>
<use x="679.43" y="287.84" xlink:href="#r4"/>
</g>
</svg>
