<?xml version="1.0" standalone="no"?>
<!DOCTYPE svg PUBLIC "-//W3C//DTD SVG 1.1//EN"
	"http://www.w3.org/Graphics/SVG/1.1/DTD/svg11.dtd">
<svg xmlns="http://www.w3.org/2000/svg" version="1.1"
	xmlns:xlink="http://www.w3.org/1999/xlink"
	xml:space='preserve' color="black"
	width="7.38in" height="3.00in" viewBox="0 0 531 216">
<title>data/results/biggest_11/abc/145.abc (145) tune 1</title>
<!-- Creator: abcm2ps-7.8.14 -->
<!-- CreationDate: Aug  9, 2015 23:50 -->
<!-- CommandLine: -g data/results/biggest_11/abc/145.abc -O /home/allanino/Dropbox/Trabalhos/folkme/svg/145.svg -->
<g transform="scale(0.750)" stroke-width="0.70" font-family="Times" font-size="20.00">
<text x="354.13" y="21.67" text-anchor="middle">Pudfedys</text>
</g>
<g transform="scale(0.525)" stroke-width="0.70" font-family="Times" font-size="20.00">
<defs>
<ellipse id="hd" rx="4.1" ry="2.9"
	transform="rotate(-20)" fill="currentColor"/>
</defs>
<use x="107.04" y="94.16" xlink:href="#hd"/>
<path d="M110.54 94.16v-20.00" stroke="currentColor" fill="none"/>
</g>
<g transform="scale(0.750)" stroke-width="0.70" font-family="Times" font-size="15.00" font-weight="bold">
<text x="82.63" y="68.01">= 100</text>
<path stroke="currentColor" fill="none"
	d="M121.83 114.21v-24.00"/>
<path stroke="currentColor" fill="none"
	d="M256.33 114.21v-24.00"/>
<path stroke="currentColor" fill="none"
	d="M407.03 114.21v-24.00"/>
<path stroke="currentColor" fill="none"
	d="M557.63 114.21v-24.00"/>
<path stroke="currentColor" fill="none"
	d="M694.93 114.21v-24.00"/>
<path stroke="currentColor" fill="none"
	d="M13.33 114.21h681.60m-681.60 -6h681.60m-681.60 -6h681.60m-681.60 -6h681.60m-681.60 -6h681.60"/>
<text font-family="serif" font-size="12" font-style="italic" font-weight="normal"
	x="92.33" y="80.01" text-anchor="middle">3</text>
</g>
<g transform="scale(0.750)" stroke-width="0.70" font-family="Helvetica" font-size="12.00">
<text x="130.53" y="66.81">G</text>
<text x="416.03" y="66.81">C</text>
<text x="477.83" y="66.81">Em</text>
<text x="562.53" y="66.81">Bm</text>
<text x="632.03" y="66.81">G</text>
<defs>
<path id="utclef" fill="currentColor" d="m-50 -90
	c-72 -41 -72 -158 52 -188
	c150 -10 220 188 90 256
	c-114 52 -275 0 -293 -136
	c-15 -181 93 -229 220 -334
	c88 -87 79 -133 62 -210
	c-51 33 -94 105 -89 186
	c17 267 36 374 49 574
	c6 96 -19 134 -77 135
	c-80 1 -126 -93 -61 -133
	c85 -41 133 101 31 105
	c23 17 92 37 90 -92
	c-10 -223 -39 -342 -50 -617
	c0 -90 0 -162 96 -232
	c56 72 63 230 22 289
	c-74 106 -257 168 -255 316
	c9 153 148 185 252 133
	c86 -65 29 -192 -80 -176
	c-71 12 -105 67 -59 124"/>
<use id="tclef" transform="scale(0.045)"
	xlink:href="#utclef"/>
</defs>
<use x="25.33" y="114.21" xlink:href="#tclef"/>
<defs>
<path id="usharp" fill="currentColor" d="
	m136 -702
	v890
	h32
	v-890
	m128 840
	h32
	v-888
	h-32
	m-232 286
	v116
	l338 -96
	v-116
	m-338 442
	v116
	l338 -98
	v-114"/>
<use id="sh0" transform="translate(-4,5) scale(0.018)"
	xlink:href="#usharp"/>
</defs>
<use x="40.33" y="90.21" xlink:href="#sh0"/>
<g font-family="serif" font-size="16" font-weight="bold" font-style="normal"
	transform="translate(56.33,114.21) scale(1.2,1)">
	<text y="-1" text-anchor="middle">4</text>
	<text y="-13" text-anchor="middle">4</text>
</g>
<path fill="currentColor"
	d="M77.53 91.11l33.60 -5.10v3.20l-33.60 5.10"/>
<use x="74.33" y="117.21" xlink:href="#hd"/>
<path d="M77.83 117.21v-25.20" stroke="currentColor" fill="none"/>
<use x="90.73" y="108.21" xlink:href="#hd"/>
<path d="M94.23 108.21v-18.70" stroke="currentColor" fill="none"/>
<use x="107.23" y="105.21" xlink:href="#hd"/>
<path d="M110.73 105.21v-18.20" stroke="currentColor" fill="none"/>
<use x="134.33" y="108.21" xlink:href="#hd"/>
<path d="M137.83 108.21v-20.00" stroke="currentColor" fill="none"/>
<use x="167.23" y="108.21" xlink:href="#hd"/>
<path d="M170.73 108.21v-20.00" stroke="currentColor" fill="none"/>
<use x="200.03" y="108.21" xlink:href="#hd"/>
<circle fill="currentColor" cx="208.03" cy="105.21" r="1.2"/>
<path d="M203.53 108.21v-20.00" stroke="currentColor" fill="none"/>
<use x="237.63" y="96.21" xlink:href="#hd"/>
<path d="M234.13 96.21v20.00" stroke="currentColor" fill="none"/>
<path fill="currentColor"
	d="M234.13 116.21c0.6 -5.6 9.6 -9 5.6 -18.4
	c1.6 6 -1.3 11.6 -5.6 12.8
"/>
<use x="268.83" y="93.21" xlink:href="#hd"/>
<path d="M265.33 93.21v20.00" stroke="currentColor" fill="none"/>
<use x="301.63" y="87.21" xlink:href="#hd"/>
<path d="M298.13 87.21v20.00" stroke="currentColor" fill="none"/>
<use x="334.43" y="87.21" xlink:href="#hd"/>
<path d="M330.93 87.21v20.00" stroke="currentColor" fill="none"/>
<path fill="currentColor"
	d="M363.43 104.11l21.70 -1.70v-3.20l-21.70 1.70"/>
<defs>
<path id="hl" stroke="currentColor" d="m-6 0h12"/>
</defs>
<use x="367.23" y="84.21" xlink:href="#hl"/>
<use x="367.23" y="84.21" xlink:href="#hd"/>
<path d="M363.73 84.21v18.80" stroke="currentColor" fill="none"/>
<use x="388.33" y="84.21" xlink:href="#hl"/>
<use x="388.33" y="81.21" xlink:href="#hd"/>
<path d="M384.83 81.21v20.20" stroke="currentColor" fill="none"/>
<use x="419.53" y="84.21" xlink:href="#hl"/>
<use x="419.53" y="78.21" xlink:href="#hl"/>
<use x="419.53" y="78.21" xlink:href="#hd"/>
<path d="M416.03 78.21v24.00" stroke="currentColor" fill="none"/>
<use x="452.33" y="93.21" xlink:href="#hd"/>
<path d="M448.83 93.21v20.00" stroke="currentColor" fill="none"/>
<use x="485.13" y="93.21" xlink:href="#hd"/>
<path d="M481.63 93.21v20.00" stroke="currentColor" fill="none"/>
<path fill="currentColor"
	d="M514.13 116.51l21.70 2.40v-3.20l-21.70 -2.40"/>
<use x="517.93" y="96.21" xlink:href="#hd"/>
<path d="M514.43 96.21v19.30" stroke="currentColor" fill="none"/>
<use x="538.93" y="99.21" xlink:href="#hd"/>
<path d="M535.43 99.21v18.70" stroke="currentColor" fill="none"/>
<use x="570.13" y="102.21" xlink:href="#hd"/>
<path d="M573.63 102.21v-20.00" stroke="currentColor" fill="none"/>
<use x="603.03" y="105.21" xlink:href="#hd"/>
<path d="M606.53 105.21v-20.00" stroke="currentColor" fill="none"/>
<use x="635.83" y="108.21" xlink:href="#hd"/>
<path d="M639.33 108.21v-20.00" stroke="currentColor" fill="none"/>
<use x="668.63" y="111.21" xlink:href="#hd"/>
<path d="M672.13 111.21v-20.00" stroke="currentColor" fill="none"/>
<path stroke="currentColor" fill="none"
	d="M130.43 190.25v-24.00"/>
<path stroke="currentColor" fill="none"
	d="M215.03 190.25v-24.00"/>
<path stroke="currentColor" fill="none"
	d="M305.43 190.25v-24.00"/>
<path stroke="currentColor" fill="none"
	d="M364.83 190.25v-24.00"/>
<path stroke="currentColor" fill="none"
	d="M438.33 190.25v-24.00"/>
<path stroke="currentColor" fill="none"
	d="M518.93 190.25v-24.00"/>
<path stroke="currentColor" fill="none"
	d="M603.53 190.25v-24.00"/>
<path stroke="currentColor" fill="none"
	d="M694.93 190.25v-24.00"/>
<path stroke="currentColor" fill="none"
	d="M13.33 190.25h681.60m-681.60 -6h681.60m-681.60 -6h681.60m-681.60 -6h681.60m-681.60 -6h681.60"/>
<text x="51.03" y="148.85">Em</text>
<text x="92.83" y="148.85">E</text>
<text x="223.93" y="148.85">C</text>
<text x="267.23" y="148.85">G</text>
<text x="314.63" y="148.85">D</text>
<text x="374.03" y="148.85">G</text>
<text x="447.33" y="148.85">C</text>
<use x="25.33" y="190.25" xlink:href="#tclef"/>
<use x="40.33" y="166.25" xlink:href="#sh0"/>
<use x="58.33" y="187.25" xlink:href="#hd"/>
<path d="M61.83 187.25v-20.00" stroke="currentColor" fill="none"/>
<use x="77.23" y="190.25" xlink:href="#hd"/>
<path d="M80.73 190.25v-20.00" stroke="currentColor" fill="none"/>
<use x="96.03" y="190.25" xlink:href="#hd"/>
<path d="M99.53 190.25v-20.00" stroke="currentColor" fill="none"/>
<use x="114.93" y="193.25" xlink:href="#hd"/>
<path d="M118.43 193.25v-20.00" stroke="currentColor" fill="none"/>
<use x="142.93" y="190.25" xlink:href="#hd"/>
<path d="M146.43 190.25v-20.00" stroke="currentColor" fill="none"/>
<use x="161.73" y="184.25" xlink:href="#hd"/>
<path d="M165.23 184.25v-20.00" stroke="currentColor" fill="none"/>
<use x="180.63" y="181.25" xlink:href="#hd"/>
<path d="M184.13 181.25v-20.00" stroke="currentColor" fill="none"/>
<use x="199.43" y="178.25" xlink:href="#hd"/>
<path d="M202.93 178.25v-20.00" stroke="currentColor" fill="none"/>
<use x="227.53" y="175.25" xlink:href="#hd"/>
<path d="M224.03 175.25v20.00" stroke="currentColor" fill="none"/>
<path fill="currentColor"
	d="M247.83 159.85l13.30 -3.90v3.20l-13.30 3.90"/>
<use x="244.63" y="184.25" xlink:href="#hd"/>
<path d="M248.13 184.25v-23.50" stroke="currentColor" fill="none"/>
<use x="257.23" y="175.25" xlink:href="#hd"/>
<path d="M260.73 175.25v-18.20" stroke="currentColor" fill="none"/>
<use x="271.03" y="178.25" xlink:href="#hd"/>
<path d="M274.53 178.25v-20.00" stroke="currentColor" fill="none"/>
<use x="289.93" y="178.25" xlink:href="#hd"/>
<path d="M293.43 178.25v-20.00" stroke="currentColor" fill="none"/>
<defs>
<path id="Hd" fill="currentColor" d="m3 -1.6
	c-1 -1.8 -7 1.4 -6 3.2
	c1 1.8 7 -1.4 6 -3.2
	m0.5 -0.3
	c2 3.8 -5 7.6 -7 3.8
	c-2 -3.8 5 -7.6 7 -3.8"/>
</defs>
<use x="318.43" y="181.25" xlink:href="#Hd"/>
<circle fill="currentColor" cx="327.43" cy="181.25" r="1.2"/>
<path d="M321.93 181.25v-20.00" stroke="currentColor" fill="none"/>
<use x="349.33" y="193.25" xlink:href="#hd"/>
<path d="M352.83 193.25v-20.00" stroke="currentColor" fill="none"/>
<use x="377.83" y="184.25" xlink:href="#Hd"/>
<path d="M381.33 184.25v-20.00" stroke="currentColor" fill="none"/>
<use x="403.93" y="184.25" xlink:href="#hd"/>
<path d="M407.43 184.25v-20.00" stroke="currentColor" fill="none"/>
<use x="422.83" y="184.25" xlink:href="#hd"/>
<path d="M426.33 184.25v-20.00" stroke="currentColor" fill="none"/>
<path fill="currentColor"
	d="M453.93 163.25l13.30 0.00v3.20l-13.30 -0.00"/>
<use x="450.83" y="184.25" xlink:href="#hd"/>
<path d="M454.33 184.25v-20.00" stroke="currentColor" fill="none"/>
<use x="463.43" y="184.25" xlink:href="#hd"/>
<path d="M466.93 184.25v-20.00" stroke="currentColor" fill="none"/>
<use x="477.33" y="181.25" xlink:href="#Hd"/>
<path d="M480.83 181.25v-20.00" stroke="currentColor" fill="none"/>
<use x="503.43" y="184.25" xlink:href="#hd"/>
<path d="M506.93 184.25v-20.00" stroke="currentColor" fill="none"/>
<use x="531.43" y="190.25" xlink:href="#hd"/>
<path d="M534.93 190.25v-20.00" stroke="currentColor" fill="none"/>
<use x="550.33" y="184.25" xlink:href="#hd"/>
<path d="M553.83 184.25v-20.00" stroke="currentColor" fill="none"/>
<use x="569.13" y="181.25" xlink:href="#hd"/>
<path d="M572.63 181.25v-20.00" stroke="currentColor" fill="none"/>
<use x="588.03" y="178.25" xlink:href="#hd"/>
<path d="M591.53 178.25v-20.00" stroke="currentColor" fill="none"/>
<path fill="currentColor"
	d="M612.13 195.65l13.30 2.10v-3.20l-13.30 -2.10"/>
<use x="616.03" y="175.25" xlink:href="#hd"/>
<path d="M612.53 175.25v19.50" stroke="currentColor" fill="none"/>
<use x="628.63" y="178.25" xlink:href="#hd"/>
<path d="M625.13 178.25v18.50" stroke="currentColor" fill="none"/>
<use x="641.23" y="181.25" xlink:href="#hd"/>
<path d="M644.73 181.25v-20.00" stroke="currentColor" fill="none"/>
<use x="660.13" y="181.25" xlink:href="#hd"/>
<path d="M663.63 181.25v-20.00" stroke="currentColor" fill="none"/>
<use x="679.43" y="166.25" xlink:href="#hd"/>
<path d="M675.93 166.25v20.00" stroke="currentColor" fill="none"/>
<path stroke="currentColor" fill="none"
	d="M164.83 265.25v-24.00"/>
<path stroke="currentColor" fill="none"
	d="M248.23 265.25v-24.00"/>
<path stroke="currentColor" fill="none"
	d="M371.13 265.25v-24.00"/>
<path stroke="currentColor" fill="none"
	d="M498.23 265.25v-24.00"/>
<path stroke="currentColor" fill="none"
	d="M607.23 265.25v-24.00"/>
<path stroke="currentColor" fill="none"
	d="M694.93 265.25v-24.00"/>
<path stroke="currentColor" fill="none"
	d="M691.93 265.25v-24.00"/>
<path stroke="currentColor" fill="none"
	d="M13.33 265.25h681.60m-681.60 -6h681.60m-681.60 -6h681.60m-681.60 -6h681.60m-681.60 -6h681.60"/>
<text x="54.53" y="224.85">G</text>
<text x="108.63" y="224.85">D</text>
<text x="174.03" y="224.85">G</text>
<text x="218.43" y="224.85">D7</text>
<text x="256.93" y="224.85">G</text>
<text x="380.33" y="224.85">D</text>
<text x="418.13" y="224.85">Em</text>
<text x="507.43" y="224.85">G</text>
<text x="544.63" y="224.85">C♯/A</text>
<text x="576.53" y="224.85">Em</text>
<text x="612.33" y="224.85">Am</text>
<text x="655.43" y="224.85">D7</text>
<use x="25.33" y="265.25" xlink:href="#tclef"/>
<use x="40.33" y="241.25" xlink:href="#sh0"/>
<use x="58.33" y="238.25" xlink:href="#hd"/>
<circle fill="currentColor" cx="66.33" cy="238.25" r="1.2"/>
<path d="M54.83 238.25v20.00" stroke="currentColor" fill="none"/>
<use x="91.73" y="244.25" xlink:href="#hd"/>
<path d="M88.23 244.25v20.00" stroke="currentColor" fill="none"/>
<path fill="currentColor"
	d="M88.23 264.25c0.6 -5.6 9.6 -9 5.6 -18.4
	c1.6 6 -1.3 11.6 -5.6 12.8
"/>
<use x="112.43" y="247.25" xlink:href="#hd"/>
<path d="M108.93 247.25v20.00" stroke="currentColor" fill="none"/>
<use x="141.53" y="253.25" xlink:href="#hd"/>
<path d="M138.03 253.25v20.00" stroke="currentColor" fill="none"/>
<use x="177.83" y="259.25" xlink:href="#Hd"/>
<circle fill="currentColor" cx="186.83" cy="256.25" r="1.2"/>
<path d="M181.33 259.25v-20.00" stroke="currentColor" fill="none"/>
<use x="224.93" y="262.25" xlink:href="#hd"/>
<path d="M228.43 262.25v-20.00" stroke="currentColor" fill="none"/>
<use x="260.73" y="259.25" xlink:href="#hd"/>
<path d="M264.23 259.25v-20.00" stroke="currentColor" fill="none"/>
<use x="289.73" y="268.25" xlink:href="#hd"/>
<path d="M293.23 268.25v-20.00" stroke="currentColor" fill="none"/>
<use x="318.73" y="265.25" xlink:href="#hd"/>
<path d="M322.23 265.25v-20.00" stroke="currentColor" fill="none"/>
<use x="347.83" y="262.25" xlink:href="#hd"/>
<path d="M351.33 262.25v-20.00" stroke="currentColor" fill="none"/>
<use x="384.13" y="256.25" xlink:href="#Hd"/>
<path d="M387.63 256.25v-20.00" stroke="currentColor" fill="none"/>
<path fill="currentColor"
	d="M428.63 234.05l56.70 0.00v3.20l-56.70 -0.00"/>
<use x="425.53" y="253.25" xlink:href="#hd"/>
<path d="M429.03 253.25v-18.20" stroke="currentColor" fill="none"/>
<use x="444.13" y="256.25" xlink:href="#hd"/>
<path d="M447.63 256.25v-21.20" stroke="currentColor" fill="none"/>
<use x="462.83" y="259.25" xlink:href="#hd"/>
<path d="M466.33 259.25v-24.20" stroke="currentColor" fill="none"/>
<use x="481.53" y="256.25" xlink:href="#hd"/>
<path d="M485.03 256.25v-21.20" stroke="currentColor" fill="none"/>
<use x="511.23" y="253.25" xlink:href="#Hd"/>
<path d="M507.73 253.25v20.00" stroke="currentColor" fill="none"/>
<use x="552.63" y="250.25" xlink:href="#hd"/>
<path d="M549.13 250.25v20.00" stroke="currentColor" fill="none"/>
<use x="583.83" y="253.25" xlink:href="#hd"/>
<path d="M580.33 253.25v20.00" stroke="currentColor" fill="none"/>
<use x="620.23" y="250.25" xlink:href="#Hd"/>
<path d="M616.73 250.25v20.00" stroke="currentColor" fill="none"/>
<use x="661.93" y="244.25" xlink:href="#Hd"/>
<path d="M658.43 244.25v20.00" stroke="currentColor" fill="none"/>
</g>
</svg>
