<?xml version="1.0" standalone="no"?>
<!DOCTYPE svg PUBLIC "-//W3C//DTD SVG 1.1//EN"
	"http://www.w3.org/Graphics/SVG/1.1/DTD/svg11.dtd">
<svg xmlns="http://www.w3.org/2000/svg" version="1.1"
	xmlns:xlink="http://www.w3.org/1999/xlink"
	xml:space='preserve' color="black"
	width="7.38in" height="1.36in" viewBox="0 0 531 98">
<title>data/results/biggest_11/abc/149.abc (149) tune 1</title>
<!-- Creator: abcm2ps-7.8.14 -->
<!-- CreationDate: Aug  9, 2015 23:50 -->
<!-- CommandLine: -g data/results/biggest_11/abc/149.abc -O /home/allanino/Dropbox/Trabalhos/folkme/svg/149.svg -->
<g transform="scale(0.750)" stroke-width="0.70" font-family="Times" font-size="20.00">
<text x="354.13" y="21.67" text-anchor="middle">Ländler F 7- chords</text>
<path stroke="currentColor" fill="none"
	d="M135.03 108.01v-24.00"/>
<path stroke="currentColor" fill="none"
	d="M208.33 108.01v-24.00"/>
<path stroke="currentColor" fill="none"
	d="M281.53 108.01v-24.00"/>
<path stroke="currentColor" fill="none"
	d="M354.83 108.01v-24.00"/>
<path stroke="currentColor" fill="none"
	d="M420.03 108.01v-24.00"/>
<path stroke="currentColor" fill="none"
	d="M484.83 108.01v-24.00"/>
<path stroke="currentColor" fill="none"
	d="M558.13 108.01v-24.00"/>
<path stroke="currentColor" fill="none" stroke-width="3"
	d="M633.33 108.01v-24.00"/>
<path stroke="currentColor" fill="none"
	d="M628.83 108.01v-24.00"/>
<defs>
<g id="rdots" fill="currentColor">
	<circle cx="0" cy="-9" r="1.2"/>
	<circle cx="0" cy="-15" r="1.2"/>
</g>
</defs>
<use x="624.83" y="108.01" xlink:href="#rdots"/>
<path stroke="currentColor" fill="none" stroke-width="3"
	d="M693.43 108.01v-24.00"/>
<path stroke="currentColor" fill="none"
	d="M688.93 108.01v-24.00"/>
<path stroke="currentColor" fill="none"
	d="M13.33 108.01h681.60m-681.60 -6h681.60m-681.60 -6h681.60m-681.60 -6h681.60m-681.60 -6h681.60"/>
</g>
<g transform="scale(0.750)" stroke-width="0.70" font-family="Helvetica" font-size="12.00">
<text x="71.43" y="64.61">F</text>
<text x="141.43" y="64.61">C7</text>
<text x="291.13" y="64.61">F</text>
<text x="426.43" y="64.61">C7</text>
<text x="574.13" y="64.61">F</text>
<text x="650.93" y="64.61">F</text>
</g>
<g transform="scale(0.750)" stroke-width="0.70" font-family="Times" font-size="13.00">
<text x="562.13" y="64.41">1</text>
<path stroke="currentColor" fill="none"
	d="M558.13 53.01v20M558.13 53.01h68.80v20"/>
<text x="638.83" y="64.41">2</text>
<path stroke="currentColor" fill="none"
	d="M634.83 53.01v20M634.83 53.01h60.10v20"/>
<defs>
<path id="utclef" fill="currentColor" d="m-50 -90
	c-72 -41 -72 -158 52 -188
	c150 -10 220 188 90 256
	c-114 52 -275 0 -293 -136
	c-15 -181 93 -229 220 -334
	c88 -87 79 -133 62 -210
	c-51 33 -94 105 -89 186
	c17 267 36 374 49 574
	c6 96 -19 134 -77 135
	c-80 1 -126 -93 -61 -133
	c85 -41 133 101 31 105
	c23 17 92 37 90 -92
	c-10 -223 -39 -342 -50 -617
	c0 -90 0 -162 96 -232
	c56 72 63 230 22 289
	c-74 106 -257 168 -255 316
	c9 153 148 185 252 133
	c86 -65 29 -192 -80 -176
	c-71 12 -105 67 -59 124"/>
<use id="tclef" transform="scale(0.045)"
	xlink:href="#utclef"/>
</defs>
<use x="25.33" y="108.01" xlink:href="#tclef"/>
<defs>
<path id="uflat" fill="currentColor" d="
	m100 -746
	h32
	v734
	l-32 4
	m32 -332
	c46 -72 152 -90 208 -20
	c100 110 -120 326 -208 348
	m0 -28
	c54 0 200 -206 130 -290
	c-50 -60 -130 -4 -130 34"/>
<use id="ft0" transform="translate(-3.5,3.5) scale(0.018)"
	xlink:href="#uflat"/>
</defs>
<use x="40.33" y="96.01" xlink:href="#ft0"/>
<g font-family="serif" font-size="16" font-weight="bold" font-style="normal"
	transform="translate(56.33,108.01) scale(1.2,1)">
	<text y="-1" text-anchor="middle">4</text>
	<text y="-13" text-anchor="middle">3</text>
</g>
<path fill="currentColor"
	d="M70.53 118.21l51.50 0.00v-3.20l-51.50 -0.00"/>
<defs>
<ellipse id="hd" rx="4.1" ry="2.9"
	transform="rotate(-20)" fill="currentColor"/>
</defs>
<use x="74.33" y="99.01" xlink:href="#hd"/>
<path d="M70.83 99.01v18.20" stroke="currentColor" fill="none"/>
<use x="84.53" y="93.01" xlink:href="#hd"/>
<path d="M81.03 93.01v24.20" stroke="currentColor" fill="none"/>
<use x="94.63" y="90.01" xlink:href="#hd"/>
<path d="M91.13 90.01v27.20" stroke="currentColor" fill="none"/>
<use x="104.83" y="93.01" xlink:href="#hd"/>
<path d="M101.33 93.01v24.20" stroke="currentColor" fill="none"/>
<use x="114.93" y="99.01" xlink:href="#hd"/>
<path d="M111.43 99.01v18.20" stroke="currentColor" fill="none"/>
<use x="125.13" y="93.01" xlink:href="#hd"/>
<path d="M121.63 93.01v24.20" stroke="currentColor" fill="none"/>
<path fill="currentColor"
	d="M143.73 121.21l51.50 0.00v-3.20l-51.50 -0.00"/>
<use x="147.53" y="96.01" xlink:href="#hd"/>
<path d="M144.03 96.01v24.20" stroke="currentColor" fill="none"/>
<use x="157.73" y="81.01" xlink:href="#hd"/>
<path d="M154.23 81.01v39.20" stroke="currentColor" fill="none"/>
<use x="167.93" y="87.01" xlink:href="#hd"/>
<path d="M164.43 87.01v33.20" stroke="currentColor" fill="none"/>
<use x="178.03" y="93.01" xlink:href="#hd"/>
<path d="M174.53 93.01v27.20" stroke="currentColor" fill="none"/>
<use x="188.23" y="102.01" xlink:href="#hd"/>
<path d="M184.73 102.01v18.20" stroke="currentColor" fill="none"/>
<use x="198.33" y="93.01" xlink:href="#hd"/>
<path d="M194.83 93.01v27.20" stroke="currentColor" fill="none"/>
<path fill="currentColor"
	d="M216.93 127.21l51.50 -7.40v-3.20l-51.50 7.40"/>
<use x="220.83" y="108.01" xlink:href="#hd"/>
<path d="M217.33 108.01v18.20" stroke="currentColor" fill="none"/>
<use x="230.93" y="102.01" xlink:href="#hd"/>
<path d="M227.43 102.01v22.70" stroke="currentColor" fill="none"/>
<use x="241.13" y="96.01" xlink:href="#hd"/>
<path d="M237.63 96.01v27.30" stroke="currentColor" fill="none"/>
<use x="251.23" y="87.01" xlink:href="#hd"/>
<path d="M247.73 87.01v34.80" stroke="currentColor" fill="none"/>
<use x="261.43" y="90.01" xlink:href="#hd"/>
<path d="M257.93 90.01v30.30" stroke="currentColor" fill="none"/>
<use x="271.63" y="93.01" xlink:href="#hd"/>
<path d="M268.13 93.01v25.90" stroke="currentColor" fill="none"/>
<path fill="currentColor"
	d="M297.23 73.81l51.50 0.00v3.20l-51.50 -0.00"/>
<use x="294.03" y="99.01" xlink:href="#hd"/>
<path d="M297.53 99.01v-24.20" stroke="currentColor" fill="none"/>
<use x="304.23" y="93.01" xlink:href="#hd"/>
<path d="M307.73 93.01v-18.20" stroke="currentColor" fill="none"/>
<defs>
<path id="hl" stroke="currentColor" d="m-6 0h12"/>
</defs>
<use x="314.33" y="114.01" xlink:href="#hl"/>
<use x="314.33" y="114.01" xlink:href="#hd"/>
<path d="M317.83 114.01v-39.20" stroke="currentColor" fill="none"/>
<use x="324.53" y="99.01" xlink:href="#hd"/>
<path d="M328.03 99.01v-24.20" stroke="currentColor" fill="none"/>
<use x="334.63" y="105.01" xlink:href="#hd"/>
<path d="M338.13 105.01v-30.20" stroke="currentColor" fill="none"/>
<use x="344.83" y="99.01" xlink:href="#hd"/>
<path d="M348.33 99.01v-24.20" stroke="currentColor" fill="none"/>
<path fill="currentColor"
	d="M363.43 118.21l31.20 0.00v-3.20l-31.20 -0.00"/>
<use x="367.33" y="93.01" xlink:href="#hd"/>
<path d="M363.83 93.01v24.20" stroke="currentColor" fill="none"/>
<use x="377.43" y="96.01" xlink:href="#hd"/>
<path d="M373.93 96.01v21.20" stroke="currentColor" fill="none"/>
<use x="387.63" y="99.01" xlink:href="#hd"/>
<path d="M384.13 99.01v18.20" stroke="currentColor" fill="none"/>
<use x="397.73" y="93.01" xlink:href="#hd"/>
<path d="M394.23 93.01v24.20" stroke="currentColor" fill="none"/>
<use x="408.43" y="84.01" xlink:href="#hd"/>
<path d="M404.93 84.01v20.00" stroke="currentColor" fill="none"/>
<path fill="currentColor"
	d="M428.73 112.31l31.20 4.40v-3.20l-31.20 -4.40"/>
<use x="432.53" y="87.01" xlink:href="#hd"/>
<path d="M429.03 87.01v24.40" stroke="currentColor" fill="none"/>
<use x="442.73" y="90.01" xlink:href="#hd"/>
<path d="M439.23 90.01v22.80" stroke="currentColor" fill="none"/>
<use x="452.93" y="96.01" xlink:href="#hd"/>
<path d="M449.43 96.01v18.20" stroke="currentColor" fill="none"/>
<use x="463.03" y="96.01" xlink:href="#hd"/>
<path d="M459.53 96.01v19.60" stroke="currentColor" fill="none"/>
<use x="473.23" y="108.01" xlink:href="#hd"/>
<path d="M476.73 108.01v-20.00" stroke="currentColor" fill="none"/>
<path fill="currentColor"
	d="M500.53 69.41l51.50 6.90v3.20l-51.50 -6.90"/>
<use x="497.33" y="93.01" xlink:href="#hd"/>
<path d="M500.83 93.01v-22.60" stroke="currentColor" fill="none"/>
<use x="507.53" y="90.01" xlink:href="#hd"/>
<path d="M511.03 90.01v-18.20" stroke="currentColor" fill="none"/>
<use x="517.63" y="93.01" xlink:href="#hd"/>
<path d="M521.13 93.01v-19.80" stroke="currentColor" fill="none"/>
<use x="527.83" y="108.01" xlink:href="#hd"/>
<path d="M531.33 108.01v-33.50" stroke="currentColor" fill="none"/>
<use x="537.93" y="96.01" xlink:href="#hd"/>
<path d="M541.43 96.01v-20.10" stroke="currentColor" fill="none"/>
<use x="548.13" y="108.01" xlink:href="#hd"/>
<path d="M551.63 108.01v-30.80" stroke="currentColor" fill="none"/>
<use x="577.13" y="105.01" xlink:href="#hd"/>
<path d="M580.63 105.01v-20.00" stroke="currentColor" fill="none"/>
<use x="591.43" y="84.01" xlink:href="#hd"/>
<path d="M587.93 84.01v20.00" stroke="currentColor" fill="none"/>
<path fill="currentColor"
	d="M600.33 118.31l10.80 -2.90v-3.20l-10.80 2.90"/>
<use x="604.23" y="99.01" xlink:href="#hd"/>
<path d="M600.73 99.01v18.20" stroke="currentColor" fill="none"/>
<use x="614.33" y="93.01" xlink:href="#hd"/>
<path d="M610.83 93.01v21.40" stroke="currentColor" fill="none"/>
<use x="653.83" y="105.01" xlink:href="#hd"/>
<path d="M657.33 105.01v-20.00" stroke="currentColor" fill="none"/>
<defs>
<path id="r4" fill="currentColor" d="m-1 -8.5
	l3.6 5.1 -2.1 5.2 2.2 4.3
	c-2.6 -2.3 -5.1 0 -2.4 2.6
	c-4.8 -3 -1.5 -6.9 1.4 -4.1
	l-3.1 -4.5 1.9 -5.1 -1.5 -3.5"/>
</defs>
<use x="666.63" y="96.01" xlink:href="#r4"/>
<use x="679.43" y="96.01" xlink:href="#r4"/>
</g>
</svg>
