<?xml version="1.0" standalone="no"?>
<!DOCTYPE svg PUBLIC "-//W3C//DTD SVG 1.1//EN"
	"http://www.w3.org/Graphics/SVG/1.1/DTD/svg11.dtd">
<svg xmlns="http://www.w3.org/2000/svg" version="1.1"
	xmlns:xlink="http://www.w3.org/1999/xlink"
	xml:space='preserve' color="black"
	width="7.38in" height="2.07in" viewBox="0 0 531 149">
<title>data/results/biggest_11/abc/15.abc (15) tune 1</title>
<!-- Creator: abcm2ps-7.8.14 -->
<!-- CreationDate: Aug  9, 2015 23:50 -->
<!-- CommandLine: -g data/results/biggest_11/abc/15.abc -O /home/allanino/Dropbox/Trabalhos/folkme/svg/15.svg -->
<g transform="scale(0.750)" stroke-width="0.70" font-family="Times" font-size="20.00">
<text x="354.13" y="21.67" text-anchor="middle">Guggisbe FBb chords Anm</text>
<defs>
<g id="rdots" fill="currentColor">
	<circle cx="0" cy="-9" r="1.2"/>
	<circle cx="0" cy="-15" r="1.2"/>
</g>
</defs>
<use x="106.13" y="101.01" xlink:href="#rdots"/>
<path stroke="currentColor" fill="none"
	d="M102.13 101.01v-24.00"/>
<path stroke="currentColor" fill="none" stroke-width="3"
	d="M97.63 101.01v-24.00"/>
<path stroke="currentColor" fill="none"
	d="M168.23 101.01v-24.00"/>
<path stroke="currentColor" fill="none"
	d="M253.83 101.01v-24.00"/>
<path stroke="currentColor" fill="none"
	d="M314.93 101.01v-24.00"/>
<path stroke="currentColor" fill="none"
	d="M400.53 101.01v-24.00"/>
<path stroke="currentColor" fill="none"
	d="M463.13 101.01v-24.00"/>
<path stroke="currentColor" fill="none"
	d="M533.13 101.01v-24.00"/>
<path stroke="currentColor" fill="none"
	d="M618.73 101.01v-24.00"/>
<path stroke="currentColor" fill="none" stroke-width="3"
	d="M693.43 101.01v-24.00"/>
<path stroke="currentColor" fill="none"
	d="M688.93 101.01v-24.00"/>
<use x="684.93" y="101.01" xlink:href="#rdots"/>
<path stroke="currentColor" fill="none"
	d="M13.33 101.01h681.60m-681.60 -6h681.60m-681.60 -6h681.60m-681.60 -6h681.60m-681.60 -6h681.60"/>
</g>
<g transform="scale(0.750)" stroke-width="0.70" font-family="Helvetica" font-size="12.00">
<text x="116.73" y="62.61">F</text>
<text x="260.23" y="62.61">C7</text>
<text x="542.73" y="62.61">F</text>
<defs>
<path id="utclef" fill="currentColor" d="m-50 -90
	c-72 -41 -72 -158 52 -188
	c150 -10 220 188 90 256
	c-114 52 -275 0 -293 -136
	c-15 -181 93 -229 220 -334
	c88 -87 79 -133 62 -210
	c-51 33 -94 105 -89 186
	c17 267 36 374 49 574
	c6 96 -19 134 -77 135
	c-80 1 -126 -93 -61 -133
	c85 -41 133 101 31 105
	c23 17 92 37 90 -92
	c-10 -223 -39 -342 -50 -617
	c0 -90 0 -162 96 -232
	c56 72 63 230 22 289
	c-74 106 -257 168 -255 316
	c9 153 148 185 252 133
	c86 -65 29 -192 -80 -176
	c-71 12 -105 67 -59 124"/>
<use id="tclef" transform="scale(0.045)"
	xlink:href="#utclef"/>
</defs>
<use x="25.33" y="101.01" xlink:href="#tclef"/>
<defs>
<path id="uflat" fill="currentColor" d="
	m100 -746
	h32
	v734
	l-32 4
	m32 -332
	c46 -72 152 -90 208 -20
	c100 110 -120 326 -208 348
	m0 -28
	c54 0 200 -206 130 -290
	c-50 -60 -130 -4 -130 34"/>
<use id="ft0" transform="translate(-3.5,3.5) scale(0.018)"
	xlink:href="#uflat"/>
</defs>
<use x="40.33" y="89.01" xlink:href="#ft0"/>
<g font-family="serif" font-size="16" font-weight="bold" font-style="normal"
	transform="translate(56.33,101.01) scale(1.2,1)">
	<text y="-1" text-anchor="middle">4</text>
	<text y="-13" text-anchor="middle">3</text>
</g>
<path fill="currentColor"
	d="M77.53 71.61l13.00 -2.10v3.20l-13.00 2.10"/>
<defs>
<ellipse id="hd" rx="4.1" ry="2.9"
	transform="rotate(-20)" fill="currentColor"/>
</defs>
<use x="74.33" y="92.01" xlink:href="#hd"/>
<path d="M77.83 92.01v-19.50" stroke="currentColor" fill="none"/>
<use x="86.63" y="89.01" xlink:href="#hd"/>
<path d="M90.13 89.01v-18.50" stroke="currentColor" fill="none"/>
<use x="119.63" y="86.01" xlink:href="#hd"/>
<path d="M116.13 86.01v20.00" stroke="currentColor" fill="none"/>
<use x="135.83" y="92.01" xlink:href="#hd"/>
<path d="M139.33 92.01v-20.00" stroke="currentColor" fill="none"/>
<use x="153.43" y="98.01" xlink:href="#hd"/>
<path d="M156.93 98.01v-20.00" stroke="currentColor" fill="none"/>
<path fill="currentColor"
	d="M176.93 111.21l62.30 0.00v-3.20l-62.30 -0.00"/>
<use x="180.73" y="86.01" xlink:href="#hd"/>
<path d="M177.23 86.01v24.20" stroke="currentColor" fill="none"/>
<use x="193.13" y="92.01" xlink:href="#hd"/>
<path d="M189.63 92.01v18.20" stroke="currentColor" fill="none"/>
<use x="205.43" y="92.01" xlink:href="#hd"/>
<path d="M201.93 92.01v18.20" stroke="currentColor" fill="none"/>
<use x="217.73" y="89.01" xlink:href="#hd"/>
<path d="M214.23 89.01v21.20" stroke="currentColor" fill="none"/>
<use x="230.03" y="86.01" xlink:href="#hd"/>
<path d="M226.53 86.01v24.20" stroke="currentColor" fill="none"/>
<use x="242.43" y="83.01" xlink:href="#hd"/>
<path d="M238.93 83.01v27.20" stroke="currentColor" fill="none"/>
<use x="266.33" y="86.01" xlink:href="#hd"/>
<path d="M262.83 86.01v20.00" stroke="currentColor" fill="none"/>
<use x="283.93" y="89.01" xlink:href="#hd"/>
<path d="M280.43 89.01v20.00" stroke="currentColor" fill="none"/>
<use x="300.13" y="92.01" xlink:href="#hd"/>
<path d="M303.63 92.01v-20.00" stroke="currentColor" fill="none"/>
<path fill="currentColor"
	d="M323.63 114.21l62.30 0.00v-3.20l-62.30 -0.00"/>
<use x="327.43" y="89.01" xlink:href="#hd"/>
<path d="M323.93 89.01v24.20" stroke="currentColor" fill="none"/>
<use x="339.83" y="95.01" xlink:href="#hd"/>
<path d="M336.33 95.01v18.20" stroke="currentColor" fill="none"/>
<use x="352.13" y="86.01" xlink:href="#hd"/>
<path d="M348.63 86.01v27.20" stroke="currentColor" fill="none"/>
<use x="364.43" y="80.01" xlink:href="#hd"/>
<path d="M360.93 80.01v33.20" stroke="currentColor" fill="none"/>
<use x="376.73" y="83.01" xlink:href="#hd"/>
<path d="M373.23 83.01v30.20" stroke="currentColor" fill="none"/>
<use x="389.03" y="86.01" xlink:href="#hd"/>
<path d="M385.53 86.01v27.20" stroke="currentColor" fill="none"/>
<use x="413.03" y="89.01" xlink:href="#hd"/>
<path d="M409.53 89.01v20.00" stroke="currentColor" fill="none"/>
<use x="430.63" y="86.01" xlink:href="#hd"/>
<path d="M427.13 86.01v20.00" stroke="currentColor" fill="none"/>
<use x="448.23" y="89.01" xlink:href="#hd"/>
<path d="M444.73 89.01v20.00" stroke="currentColor" fill="none"/>
<use x="475.63" y="89.01" xlink:href="#hd"/>
<path d="M479.13 89.01v-20.00" stroke="currentColor" fill="none"/>
<defs>
<path id="r4" fill="currentColor" d="m-1 -8.5
	l3.6 5.1 -2.1 5.2 2.2 4.3
	c-2.6 -2.3 -5.1 0 -2.4 2.6
	c-4.8 -3 -1.5 -6.9 1.4 -4.1
	l-3.1 -4.5 1.9 -5.1 -1.5 -3.5"/>
</defs>
<use x="493.23" y="89.01" xlink:href="#r4"/>
<path fill="currentColor"
	d="M512.53 84.91l13.00 -3.20v3.20l-13.00 3.20"/>
<defs>
<path id="hl" stroke="currentColor" d="m-6 0h12"/>
</defs>
<use x="509.33" y="107.01" xlink:href="#hl"/>
<use x="509.33" y="107.01" xlink:href="#hd"/>
<path d="M512.83 107.01v-21.20" stroke="currentColor" fill="none"/>
<use x="521.73" y="101.01" xlink:href="#hd"/>
<path d="M525.23 101.01v-18.20" stroke="currentColor" fill="none"/>
<path fill="currentColor"
	d="M541.83 117.21l62.30 0.00v-3.20l-62.30 -0.00"/>
<use x="545.63" y="98.01" xlink:href="#hd"/>
<path d="M542.13 98.01v18.20" stroke="currentColor" fill="none"/>
<use x="557.93" y="92.01" xlink:href="#hd"/>
<path d="M554.43 92.01v24.20" stroke="currentColor" fill="none"/>
<use x="570.33" y="86.01" xlink:href="#hd"/>
<path d="M566.83 86.01v30.20" stroke="currentColor" fill="none"/>
<use x="582.63" y="77.01" xlink:href="#hd"/>
<path d="M579.13 77.01v39.20" stroke="currentColor" fill="none"/>
<use x="594.93" y="92.01" xlink:href="#hd"/>
<path d="M591.43 92.01v24.20" stroke="currentColor" fill="none"/>
<use x="607.23" y="86.01" xlink:href="#hd"/>
<path d="M603.73 86.01v30.20" stroke="currentColor" fill="none"/>
<use x="631.23" y="77.01" xlink:href="#hd"/>
<path d="M627.73 77.01v20.00" stroke="currentColor" fill="none"/>
<use x="648.83" y="89.01" xlink:href="#r4"/>
<use x="666.43" y="89.01" xlink:href="#r4"/>
<use x="64.83" y="176.01" xlink:href="#rdots"/>
<path stroke="currentColor" fill="none"
	d="M60.83 176.01v-24.00"/>
<path stroke="currentColor" fill="none" stroke-width="3"
	d="M56.33 176.01v-24.00"/>
<path stroke="currentColor" fill="none"
	d="M198.63 176.01v-24.00"/>
<path stroke="currentColor" fill="none"
	d="M331.43 176.01v-24.00"/>
<path stroke="currentColor" fill="none"
	d="M466.63 176.01v-24.00"/>
<path stroke="currentColor" fill="none" stroke-width="3"
	d="M577.63 176.01v-24.00"/>
<path stroke="currentColor" fill="none"
	d="M573.13 176.01v-24.00"/>
<use x="569.13" y="176.01" xlink:href="#rdots"/>
<path stroke="currentColor" fill="none" stroke-width="3"
	d="M693.43 176.01v-24.00"/>
<path stroke="currentColor" fill="none"
	d="M688.93 176.01v-24.00"/>
<path stroke="currentColor" fill="none"
	d="M13.33 176.01h681.60m-681.60 -6h681.60m-681.60 -6h681.60m-681.60 -6h681.60m-681.60 -6h681.60"/>
<text x="74.83" y="139.61">C</text>
<text x="208.13" y="139.61">F</text>
<text x="337.83" y="139.61">C7</text>
<text x="482.73" y="139.61">F</text>
<text x="595.23" y="139.61">F</text>
</g>
<g transform="scale(0.750)" stroke-width="0.70" font-family="Times" font-size="13.00">
<text x="470.63" y="137.41">1</text>
<path stroke="currentColor" fill="none"
	d="M466.63 126.01v20M466.63 126.01h104.50v20"/>
<text x="583.13" y="137.41">2</text>
<path stroke="currentColor" fill="none"
	d="M579.13 126.01v20M579.13 126.01h115.80v20"/>
<use x="25.33" y="176.01" xlink:href="#tclef"/>
<use x="40.33" y="164.01" xlink:href="#ft0"/>
<use x="78.33" y="182.01" xlink:href="#hl"/>
<use x="78.33" y="182.01" xlink:href="#hd"/>
<path d="M81.83 182.01v-20.00" stroke="currentColor" fill="none"/>
<path fill="currentColor"
	d="M115.93 139.21l66.80 -5.10v3.20l-66.80 5.10"/>
<use x="112.83" y="176.01" xlink:href="#hd"/>
<path d="M116.33 176.01v-35.80" stroke="currentColor" fill="none"/>
<use x="134.83" y="170.01" xlink:href="#hd"/>
<path d="M138.33 170.01v-31.50" stroke="currentColor" fill="none"/>
<use x="156.93" y="155.01" xlink:href="#hd"/>
<path d="M160.43 155.01v-18.20" stroke="currentColor" fill="none"/>
<use x="178.93" y="170.01" xlink:href="#hd"/>
<path d="M182.43 170.01v-34.90" stroke="currentColor" fill="none"/>
<use x="211.13" y="173.01" xlink:href="#hd"/>
<path d="M214.63 173.01v-20.00" stroke="currentColor" fill="none"/>
<path fill="currentColor"
	d="M241.83 192.21l66.80 -9.10v-3.20l-66.80 9.10"/>
<use x="245.63" y="173.01" xlink:href="#hd"/>
<path d="M242.13 173.01v18.20" stroke="currentColor" fill="none"/>
<use x="267.73" y="167.01" xlink:href="#hd"/>
<path d="M264.23 167.01v21.20" stroke="currentColor" fill="none"/>
<use x="289.73" y="161.01" xlink:href="#hd"/>
<path d="M286.23 161.01v24.20" stroke="currentColor" fill="none"/>
<use x="311.83" y="152.01" xlink:href="#hd"/>
<path d="M308.33 152.01v30.20" stroke="currentColor" fill="none"/>
<path fill="currentColor"
	d="M340.13 176.31l22.70 4.00v-3.20l-22.70 -4.00"/>
<use x="343.93" y="155.01" xlink:href="#hd"/>
<path d="M340.43 155.01v20.30" stroke="currentColor" fill="none"/>
<use x="366.03" y="161.01" xlink:href="#hd"/>
<path d="M362.53 161.01v18.20" stroke="currentColor" fill="none"/>
<use x="390.43" y="161.01" xlink:href="#hd"/>
<path d="M386.93 161.01v20.00" stroke="currentColor" fill="none"/>
<path fill="currentColor"
	d="M421.13 170.21l22.70 0.00v-3.20l-22.70 -0.00"/>
<use x="424.93" y="149.01" xlink:href="#hd"/>
<path d="M421.43 149.01v20.20" stroke="currentColor" fill="none"/>
<use x="447.03" y="149.01" xlink:href="#hd"/>
<path d="M443.53 149.01v20.20" stroke="currentColor" fill="none"/>
<use x="485.63" y="152.01" xlink:href="#hd"/>
<path d="M482.13 152.01v20.00" stroke="currentColor" fill="none"/>
<use x="520.13" y="164.01" xlink:href="#r4"/>
<use x="551.13" y="167.01" xlink:href="#hd"/>
<path d="M554.63 167.01v-20.00" stroke="currentColor" fill="none"/>
<use x="598.13" y="152.01" xlink:href="#hd"/>
<path d="M594.63 152.01v20.00" stroke="currentColor" fill="none"/>
<use x="632.63" y="164.01" xlink:href="#r4"/>
<use x="667.13" y="164.01" xlink:href="#r4"/>
</g>
</svg>
