<?xml version="1.0" standalone="no"?>
<!DOCTYPE svg PUBLIC "-//W3C//DTD SVG 1.1//EN"
	"http://www.w3.org/Graphics/SVG/1.1/DTD/svg11.dtd">
<svg xmlns="http://www.w3.org/2000/svg" version="1.1"
	xmlns:xlink="http://www.w3.org/1999/xlink"
	xml:space='preserve' color="black"
	width="7.38in" height="2.66in" viewBox="0 0 531 192">
<title>data/results/biggest_11/abc/156.abc (156) tune 1</title>
<!-- Creator: abcm2ps-7.8.14 -->
<!-- CreationDate: Aug  9, 2015 23:50 -->
<!-- CommandLine: -g data/results/biggest_11/abc/156.abc -O /home/allanino/Dropbox/Trabalhos/folkme/svg/156.svg -->
<g transform="scale(0.750)" stroke-width="0.70" font-family="Times" font-size="20.00">
<text x="354.13" y="21.67" text-anchor="middle">Mazurka FBb chords</text>
</g>
<g transform="scale(0.750)" stroke-width="0.70" font-family="Times" font-size="16.00">
<text x="354.13" y="41.30" text-anchor="middle">Hanny Christen. Bd.VIII Zug, Luzern, Uri I. S.318 (LD11362) orig. F,Bb-Dur</text>
<text x="354.13" y="60.13" text-anchor="middle">anzern T{Bchew: mitzurb (Luzern)</text>
<path stroke="currentColor" fill="none"
	d="M139.23 148.67v-24.00"/>
<path stroke="currentColor" fill="none"
	d="M207.43 148.67v-24.00"/>
<path stroke="currentColor" fill="none"
	d="M290.13 148.67v-24.00"/>
<path stroke="currentColor" fill="none"
	d="M365.23 148.67v-24.00"/>
<path stroke="currentColor" fill="none"
	d="M447.93 148.67v-24.00"/>
<path stroke="currentColor" fill="none"
	d="M530.33 148.67v-24.00"/>
<path stroke="currentColor" fill="none"
	d="M613.33 148.67v-24.00"/>
<path stroke="currentColor" fill="none" stroke-width="3"
	d="M693.43 148.67v-24.00"/>
<path stroke="currentColor" fill="none"
	d="M688.93 148.67v-24.00"/>
<defs>
<g id="rdots" fill="currentColor">
	<circle cx="0" cy="-9" r="1.2"/>
	<circle cx="0" cy="-15" r="1.2"/>
</g>
</defs>
<use x="684.93" y="148.67" xlink:href="#rdots"/>
<path stroke="currentColor" fill="none"
	d="M13.33 148.67h681.60m-681.60 -6h681.60m-681.60 -6h681.60m-681.60 -6h681.60m-681.60 -6h681.60"/>
</g>
<g transform="scale(0.750)" stroke-width="0.70" font-family="Helvetica" font-size="12.00">
<text x="55.33" y="102.27">G7</text>
<text x="148.23" y="102.27">C</text>
<text x="213.53" y="102.27">G7</text>
<text x="299.13" y="102.27">C</text>
<text x="452.53" y="102.27">Dm</text>
<text x="536.33" y="102.27">G7</text>
<text x="628.83" y="102.27">C</text>
</g>
<g transform="scale(0.750)" stroke-width="0.70" font-family="Times" font-size="13.00">
<text x="617.33" y="102.07">1</text>
<path stroke="currentColor" fill="none"
	d="M613.33 90.67v20M613.33 90.67h73.60v20"/>
<defs>
<path id="utclef" fill="currentColor" d="m-50 -90
	c-72 -41 -72 -158 52 -188
	c150 -10 220 188 90 256
	c-114 52 -275 0 -293 -136
	c-15 -181 93 -229 220 -334
	c88 -87 79 -133 62 -210
	c-51 33 -94 105 -89 186
	c17 267 36 374 49 574
	c6 96 -19 134 -77 135
	c-80 1 -126 -93 -61 -133
	c85 -41 133 101 31 105
	c23 17 92 37 90 -92
	c-10 -223 -39 -342 -50 -617
	c0 -90 0 -162 96 -232
	c56 72 63 230 22 289
	c-74 106 -257 168 -255 316
	c9 153 148 185 252 133
	c86 -65 29 -192 -80 -176
	c-71 12 -105 67 -59 124"/>
<use id="tclef" transform="scale(0.045)"
	xlink:href="#utclef"/>
</defs>
<use x="25.33" y="148.67" xlink:href="#tclef"/>
<g font-family="serif" font-size="16" font-weight="bold" font-style="normal"
	transform="translate(43.83,148.67) scale(1.2,1)">
	<text y="-1" text-anchor="middle">4</text>
	<text y="-13" text-anchor="middle">2</text>
</g>
<path fill="currentColor"
	d="M65.03 116.67l65.10 0.00v3.20l-65.10 -0.00"/>
<path fill="currentColor"
	d="M65.33 121.67l39.60 0.00v3.20l-39.60 -0.00"/>
<defs>
<ellipse id="hd" rx="4.1" ry="2.9"
	transform="rotate(-20)" fill="currentColor"/>
</defs>
<use x="61.83" y="142.67" xlink:href="#hd"/>
<path d="M65.33 142.67v-25.00" stroke="currentColor" fill="none"/>
<use x="72.63" y="139.67" xlink:href="#hd"/>
<path d="M76.13 139.67v-22.00" stroke="currentColor" fill="none"/>
<use x="83.43" y="142.67" xlink:href="#hd"/>
<path d="M86.93 142.67v-25.00" stroke="currentColor" fill="none"/>
<use x="101.43" y="145.67" xlink:href="#hd"/>
<defs>
<path id="usharp" fill="currentColor" d="
	m136 -702
	v890
	h32
	v-890
	m128 840
	h32
	v-888
	h-32
	m-232 286
	v116
	l338 -96
	v-116
	m-338 442
	v116
	l338 -98
	v-114"/>
<use id="sh0" transform="translate(-4,5) scale(0.018)"
	xlink:href="#usharp"/>
</defs>
<use x="92.43" y="145.67" xlink:href="#sh0"/>
<path d="M104.93 145.67v-28.00" stroke="currentColor" fill="none"/>
<use x="112.23" y="142.67" xlink:href="#hd"/>
<path d="M115.73 142.67v-25.00" stroke="currentColor" fill="none"/>
<use x="126.23" y="151.67" xlink:href="#hd"/>
<path d="M129.73 151.67v-34.00" stroke="currentColor" fill="none"/>
<defs>
<path id="hl" stroke="currentColor" d="m-6 0h12"/>
</defs>
<use x="151.73" y="154.67" xlink:href="#hl"/>
<use x="151.73" y="154.67" xlink:href="#hd"/>
<path d="M155.23 154.67v-20.00" stroke="currentColor" fill="none"/>
<path fill="currentColor"
	d="M175.73 128.17l25.50 -3.00v3.20l-25.50 3.00"/>
<path fill="currentColor"
	d="M190.13 131.47l10.80 -1.20v3.20l-10.80 1.20"/>
<use x="172.53" y="154.67" xlink:href="#hl"/>
<use x="172.53" y="154.67" xlink:href="#hd"/>
<path d="M176.03 154.67v-25.60" stroke="currentColor" fill="none"/>
<use x="186.63" y="148.67" xlink:href="#hd"/>
<path d="M190.13 148.67v-21.20" stroke="currentColor" fill="none"/>
<use x="197.43" y="148.67" xlink:href="#hd"/>
<path d="M200.93 148.67v-22.40" stroke="currentColor" fill="none"/>
<path fill="currentColor"
	d="M223.13 126.07l57.90 -9.90v3.20l-57.90 9.90"/>
<path fill="currentColor"
	d="M223.43 130.97l32.40 -5.50v3.20l-32.40 5.50"/>
<use x="219.93" y="151.67" xlink:href="#hd"/>
<path d="M223.43 151.67v-24.70" stroke="currentColor" fill="none"/>
<use x="230.73" y="148.67" xlink:href="#hd"/>
<path d="M234.23 148.67v-23.50" stroke="currentColor" fill="none"/>
<use x="241.53" y="145.67" xlink:href="#hd"/>
<path d="M245.03 145.67v-22.40" stroke="currentColor" fill="none"/>
<use x="252.33" y="142.67" xlink:href="#hd"/>
<path d="M255.83 142.67v-21.20" stroke="currentColor" fill="none"/>
<use x="263.13" y="139.67" xlink:href="#hd"/>
<path d="M266.63 139.67v-20.00" stroke="currentColor" fill="none"/>
<use x="277.13" y="136.67" xlink:href="#hd"/>
<path d="M280.63 136.67v-19.40" stroke="currentColor" fill="none"/>
<path fill="currentColor"
	d="M305.83 111.47l50.30 6.40v3.20l-50.30 -6.40"/>
<path fill="currentColor"
	d="M306.13 116.47l10.80 1.40v3.20l-10.80 -1.40"/>
<use x="302.63" y="133.67" xlink:href="#hd"/>
<path d="M306.13 133.67v-21.20" stroke="currentColor" fill="none"/>
<use x="313.43" y="142.67" xlink:href="#hd"/>
<path d="M316.93 142.67v-28.80" stroke="currentColor" fill="none"/>
<use x="324.23" y="148.67" xlink:href="#hd"/>
<path d="M327.73 148.67v-33.50" stroke="currentColor" fill="none"/>
<use x="338.23" y="148.67" xlink:href="#hd"/>
<path d="M341.73 148.67v-31.70" stroke="currentColor" fill="none"/>
<use x="352.33" y="148.67" xlink:href="#hd"/>
<path d="M355.83 148.67v-29.90" stroke="currentColor" fill="none"/>
<path fill="currentColor"
	d="M380.93 112.47l57.90 0.00v3.20l-57.90 -0.00"/>
<path fill="currentColor"
	d="M381.23 117.47l32.40 0.00v3.20l-32.40 -0.00"/>
<use x="377.73" y="142.67" xlink:href="#hd"/>
<path d="M381.23 142.67v-29.20" stroke="currentColor" fill="none"/>
<use x="388.53" y="148.67" xlink:href="#hd"/>
<path d="M392.03 148.67v-35.20" stroke="currentColor" fill="none"/>
<use x="399.33" y="154.67" xlink:href="#hl"/>
<use x="399.33" y="154.67" xlink:href="#hd"/>
<path d="M402.83 154.67v-41.20" stroke="currentColor" fill="none"/>
<use x="410.13" y="148.67" xlink:href="#hd"/>
<path d="M413.63 148.67v-35.20" stroke="currentColor" fill="none"/>
<use x="420.93" y="142.67" xlink:href="#hd"/>
<path d="M424.43 142.67v-29.20" stroke="currentColor" fill="none"/>
<use x="434.93" y="133.67" xlink:href="#hd"/>
<path d="M438.43 133.67v-20.20" stroke="currentColor" fill="none"/>
<path fill="currentColor"
	d="M456.63 173.87l57.50 -7.90v-3.20l-57.50 7.90"/>
<path fill="currentColor"
	d="M471.03 166.87l18.00 -2.50v-3.20l-18.00 2.50"/>
<use x="460.43" y="136.67" xlink:href="#hd"/>
<path d="M456.93 136.67v36.10" stroke="currentColor" fill="none"/>
<use x="474.53" y="151.67" xlink:href="#hd"/>
<path d="M471.03 151.67v19.20" stroke="currentColor" fill="none"/>
<use x="492.53" y="133.67" xlink:href="#hd"/>
<use x="483.53" y="133.67" xlink:href="#sh0"/>
<path d="M489.03 133.67v34.70" stroke="currentColor" fill="none"/>
<use x="503.23" y="130.67" xlink:href="#hd"/>
<path d="M499.73 130.67v36.20" stroke="currentColor" fill="none"/>
<use x="517.33" y="124.67" xlink:href="#hd"/>
<path d="M513.83 124.67v40.30" stroke="currentColor" fill="none"/>
<path fill="currentColor"
	d="M538.93 154.47l61.10 7.40v-3.20l-61.10 -7.40"/>
<path fill="currentColor"
	d="M553.33 151.27l10.80 1.30v-3.20l-10.80 -1.30"/>
<path fill="currentColor"
	d="M588.93 155.57l10.80 1.30v-3.20l-10.80 -1.30"/>
<use x="542.83" y="124.67" xlink:href="#hd"/>
<path d="M539.33 124.67v28.90" stroke="currentColor" fill="none"/>
<use x="556.83" y="124.67" xlink:href="#hd"/>
<path d="M553.33 124.67v30.60" stroke="currentColor" fill="none"/>
<use x="567.63" y="127.67" xlink:href="#hd"/>
<path d="M564.13 127.67v28.90" stroke="currentColor" fill="none"/>
<use x="578.43" y="130.67" xlink:href="#hd"/>
<path d="M574.93 130.67v27.20" stroke="currentColor" fill="none"/>
<use x="592.43" y="136.67" xlink:href="#hd"/>
<path d="M588.93 136.67v22.90" stroke="currentColor" fill="none"/>
<use x="603.23" y="139.67" xlink:href="#hd"/>
<path d="M599.73 139.67v21.20" stroke="currentColor" fill="none"/>
<path fill="currentColor"
	d="M635.43 124.47l42.80 0.00v3.20l-42.80 -0.00"/>
<use x="632.33" y="142.67" xlink:href="#hd"/>
<path d="M635.83 142.67v-17.20" stroke="currentColor" fill="none"/>
<use x="646.33" y="148.67" xlink:href="#hd"/>
<path d="M649.83 148.67v-23.20" stroke="currentColor" fill="none"/>
<use x="660.43" y="148.67" xlink:href="#hd"/>
<path d="M663.93 148.67v-23.20" stroke="currentColor" fill="none"/>
<use x="674.43" y="142.67" xlink:href="#hd"/>
<path d="M677.93 142.67v-17.20" stroke="currentColor" fill="none"/>
<use x="171.43" y="232.67" xlink:href="#rdots"/>
<path stroke="currentColor" fill="none"
	d="M167.43 232.67v-24.00"/>
<path stroke="currentColor" fill="none" stroke-width="3"
	d="M162.93 232.67v-24.00"/>
<path stroke="currentColor" fill="none"
	d="M309.33 232.67v-24.00"/>
<path stroke="currentColor" fill="none"
	d="M440.23 232.67v-24.00"/>
<path stroke="currentColor" fill="none"
	d="M571.63 232.67v-24.00"/>
<path stroke="currentColor" fill="none" stroke-width="3"
	d="M693.43 232.67v-24.00"/>
<path stroke="currentColor" fill="none"
	d="M688.93 232.67v-24.00"/>
<use x="684.93" y="232.67" xlink:href="#rdots"/>
<path stroke="currentColor" fill="none"
	d="M13.33 232.67h681.60m-681.60 -6h681.60m-681.60 -6h681.60m-681.60 -6h681.60m-681.60 -6h681.60"/>
</g>
<g transform="scale(0.750)" stroke-width="0.70" font-family="Helvetica" font-size="12.00">
<text x="60.93" y="191.27">C</text>
<text x="198.43" y="191.27">F</text>
<text x="250.73" y="191.27">C7</text>
<text x="321.83" y="191.27">F</text>
<text x="449.43" y="191.27">C7</text>
<text x="584.13" y="191.27">F</text>
</g>
<g transform="scale(0.750)" stroke-width="0.70" font-family="Times" font-size="13.00">
<text x="49.33" y="191.07">2</text>
<path stroke="currentColor" fill="none"
	d="M45.33 179.67v20M45.33 179.67h115.10v20"/>
<use x="25.33" y="232.67" xlink:href="#tclef"/>
<path fill="currentColor"
	d="M60.63 238.87l56.20 0.00v-3.20l-56.20 -0.00"/>
<use x="64.53" y="217.67" xlink:href="#hd"/>
<path d="M61.03 217.67v20.20" stroke="currentColor" fill="none"/>
<use x="92.23" y="217.67" xlink:href="#hd"/>
<path d="M88.73 217.67v20.20" stroke="currentColor" fill="none"/>
<use x="120.03" y="217.67" xlink:href="#hd"/>
<path d="M116.53 217.67v20.20" stroke="currentColor" fill="none"/>
<defs>
<path id="r8e" fill="currentColor" d="m 0 0
	c-1.5 1.5 -2.4 2 -3.6 2
	c2.4 -2.8 -2.8 -4 -2.8 -1.2
	c0 2.7 4.3 2.4 5.9 0.6"/>
<g id="r8">
	<path d="m3.3 -4l-3.4 9.6" stroke="currentColor" fill="none"/>
	<use x="3.4" y="-4" xlink:href="#r8e"/>
</g>
</defs>
<use x="147.73" y="220.67" xlink:href="#r8"/>
<defs>
<path id="uflat" fill="currentColor" d="
	m100 -746
	h32
	v734
	l-32 4
	m32 -332
	c46 -72 152 -90 208 -20
	c100 110 -120 326 -208 348
	m0 -28
	c54 0 200 -206 130 -290
	c-50 -60 -130 -4 -130 34"/>
<use id="ft0" transform="translate(-3.5,3.5) scale(0.018)"
	xlink:href="#uflat"/>
</defs>
<use x="183.43" y="220.67" xlink:href="#ft0"/>
<path fill="currentColor"
	d="M197.53 230.47l83.90 6.50v-3.20l-83.90 -6.50"/>
<use x="201.43" y="202.67" xlink:href="#hl"/>
<use x="201.43" y="202.67" xlink:href="#hd"/>
<path d="M197.93 202.67v26.80" stroke="currentColor" fill="none"/>
<use x="229.13" y="208.67" xlink:href="#hd"/>
<path d="M225.63 208.67v22.90" stroke="currentColor" fill="none"/>
<use x="256.93" y="205.67" xlink:href="#hd"/>
<path d="M253.43 205.67v28.10" stroke="currentColor" fill="none"/>
<use x="284.63" y="217.67" xlink:href="#hd"/>
<path d="M281.13 217.67v18.20" stroke="currentColor" fill="none"/>
<path fill="currentColor"
	d="M320.93 245.97l59.50 -9.10v-3.20l-59.50 9.10"/>
<path fill="currentColor"
	d="M321.23 240.87l58.80 -9.00v-3.20l-58.80 9.00"/>
<use x="324.73" y="223.67" xlink:href="#hd"/>
<path d="M321.23 223.67v21.20" stroke="currentColor" fill="none"/>
<use x="344.33" y="217.67" xlink:href="#hd"/>
<path d="M340.83 217.67v24.20" stroke="currentColor" fill="none"/>
<use x="363.93" y="208.67" xlink:href="#hd"/>
<path d="M360.43 208.67v30.20" stroke="currentColor" fill="none"/>
<use x="383.53" y="202.67" xlink:href="#hl"/>
<use x="383.53" y="202.67" xlink:href="#hd"/>
<path d="M380.03 202.67v33.20" stroke="currentColor" fill="none"/>
<use x="405.33" y="202.67" xlink:href="#hl"/>
<use x="405.33" y="196.67" xlink:href="#hl"/>
<use x="405.33" y="196.67" xlink:href="#hd"/>
<path d="M401.83 196.67v24.00" stroke="currentColor" fill="none"/>
<path fill="currentColor"
	d="M451.83 245.87l99.20 0.00v-3.20l-99.20 -0.00"/>
<path fill="currentColor"
	d="M452.13 240.87l19.60 0.00v-3.20l-19.60 -0.00"/>
<path fill="currentColor"
	d="M544.63 240.87l6.00 0.00v-3.20l-6.00 -0.00"/>
<use x="455.63" y="220.67" xlink:href="#hd"/>
<path d="M452.13 220.67v24.20" stroke="currentColor" fill="none"/>
<use x="475.23" y="217.67" xlink:href="#hd"/>
<path d="M471.73 217.67v27.20" stroke="currentColor" fill="none"/>
<use x="494.83" y="211.67" xlink:href="#hd"/>
<path d="M491.33 211.67v33.20" stroke="currentColor" fill="none"/>
<use x="522.63" y="226.67" xlink:href="#hd"/>
<circle fill="currentColor" cx="530.63" cy="223.67" r="1.2"/>
<path d="M519.13 226.67v18.20" stroke="currentColor" fill="none"/>
<use x="554.13" y="217.67" xlink:href="#hd"/>
<path d="M550.63 217.67v27.20" stroke="currentColor" fill="none"/>
<path fill="currentColor"
	d="M590.13 205.67l56.20 0.00v3.20l-56.20 -0.00"/>
<use x="587.03" y="229.67" xlink:href="#hd"/>
<path d="M590.53 229.67v-23.00" stroke="currentColor" fill="none"/>
<use x="614.73" y="223.67" xlink:href="#hd"/>
<path d="M618.23 223.67v-17.00" stroke="currentColor" fill="none"/>
<use x="642.53" y="229.67" xlink:href="#hd"/>
<path d="M646.03 229.67v-23.00" stroke="currentColor" fill="none"/>
<use x="670.23" y="220.67" xlink:href="#r8"/>
</g>
</svg>
