<?xml version="1.0" standalone="no"?>
<!DOCTYPE svg PUBLIC "-//W3C//DTD SVG 1.1//EN"
	"http://www.w3.org/Graphics/SVG/1.1/DTD/svg11.dtd">
<svg xmlns="http://www.w3.org/2000/svg" version="1.1"
	xmlns:xlink="http://www.w3.org/1999/xlink"
	xml:space='preserve' color="black"
	width="7.38in" height="1.54in" viewBox="0 0 531 111">
<title>data/results/biggest_11/abc/157.abc (157) tune 1</title>
<!-- Creator: abcm2ps-7.8.14 -->
<!-- CreationDate: Aug  9, 2015 23:50 -->
<!-- CommandLine: -g data/results/biggest_11/abc/157.abc -O /home/allanino/Dropbox/Trabalhos/folkme/svg/157.svg -->
<g transform="scale(0.750)" stroke-width="0.70" font-family="Times" font-size="20.00">
<text x="354.13" y="21.67" text-anchor="middle">Danie&apos;s #2</text>
</g>
<g transform="scale(0.525)" stroke-width="0.70" font-family="Times" font-size="20.00">
<defs>
<path id="Hd" fill="currentColor" d="m3 -1.6
	c-1 -1.8 -7 1.4 -6 3.2
	c1 1.8 7 -1.4 6 -3.2
	m0.5 -0.3
	c2 3.8 -5 7.6 -7 3.8
	c-2 -3.8 5 -7.6 7 -3.8"/>
</defs>
<use x="115.61" y="94.16" xlink:href="#Hd"/>
<path d="M119.11 94.16v-20.00" stroke="currentColor" fill="none"/>
</g>
<g transform="scale(0.750)" stroke-width="0.70" font-family="Times" font-size="15.00" font-weight="bold">
<text x="88.63" y="68.01">= 50</text>
<path stroke="currentColor" fill="none"
	d="M126.03 125.01v-24.00"/>
<path stroke="currentColor" fill="none"
	d="M201.93 125.01v-24.00"/>
<path stroke="currentColor" fill="none"
	d="M282.23 125.01v-24.00"/>
<path stroke="currentColor" fill="none"
	d="M357.13 125.01v-24.00"/>
<path stroke="currentColor" fill="none"
	d="M445.03 125.01v-24.00"/>
<path stroke="currentColor" fill="none"
	d="M531.73 125.01v-24.00"/>
<path stroke="currentColor" fill="none"
	d="M624.33 125.01v-24.00"/>
<path stroke="currentColor" fill="none" stroke-width="3"
	d="M693.43 125.01v-24.00"/>
<path stroke="currentColor" fill="none"
	d="M688.93 125.01v-24.00"/>
<defs>
<g id="rdots" fill="currentColor">
	<circle cx="0" cy="-9" r="1.2"/>
	<circle cx="0" cy="-15" r="1.2"/>
</g>
</defs>
<use x="684.93" y="125.01" xlink:href="#rdots"/>
<path stroke="currentColor" fill="none"
	d="M13.33 125.01h681.60m-681.60 -6h681.60m-681.60 -6h681.60m-681.60 -6h681.60m-681.60 -6h681.60"/>
</g>
<g transform="scale(0.750)" stroke-width="0.70" font-family="Helvetica" font-size="12.00">
<text x="76.53" y="83.61">D</text>
<text x="99.03" y="83.61">Em</text>
<text x="130.63" y="83.61">Am</text>
<text x="178.33" y="83.61">D</text>
<text x="207.03" y="83.61">Em</text>
<text x="242.83" y="83.61">A7</text>
<text x="287.63" y="83.61">Bm</text>
<text x="317.33" y="83.61">Bm</text>
<text x="365.83" y="83.61">G</text>
<text x="399.63" y="83.61">D</text>
<text x="484.83" y="83.61">Bm</text>
<text x="540.73" y="83.61">C</text>
<text x="587.53" y="83.61">B7</text>
<text x="629.53" y="83.61">Em</text>
<defs>
<path id="utclef" fill="currentColor" d="m-50 -90
	c-72 -41 -72 -158 52 -188
	c150 -10 220 188 90 256
	c-114 52 -275 0 -293 -136
	c-15 -181 93 -229 220 -334
	c88 -87 79 -133 62 -210
	c-51 33 -94 105 -89 186
	c17 267 36 374 49 574
	c6 96 -19 134 -77 135
	c-80 1 -126 -93 -61 -133
	c85 -41 133 101 31 105
	c23 17 92 37 90 -92
	c-10 -223 -39 -342 -50 -617
	c0 -90 0 -162 96 -232
	c56 72 63 230 22 289
	c-74 106 -257 168 -255 316
	c9 153 148 185 252 133
	c86 -65 29 -192 -80 -176
	c-71 12 -105 67 -59 124"/>
<use id="tclef" transform="scale(0.045)"
	xlink:href="#utclef"/>
</defs>
<use x="25.33" y="125.01" xlink:href="#tclef"/>
<defs>
<path id="usharp" fill="currentColor" d="
	m136 -702
	v890
	h32
	v-890
	m128 840
	h32
	v-888
	h-32
	m-232 286
	v116
	l338 -96
	v-116
	m-338 442
	v116
	l338 -98
	v-114"/>
<use id="sh0" transform="translate(-4,5) scale(0.018)"
	xlink:href="#usharp"/>
</defs>
<use x="40.33" y="101.01" xlink:href="#sh0"/>
<use x="45.83" y="110.01" xlink:href="#sh0"/>
<g font-family="serif" font-size="16" font-weight="bold" font-style="normal"
	transform="translate(61.83,125.01) scale(1.2,1)">
	<text y="-1" text-anchor="middle">4</text>
	<text y="-13" text-anchor="middle">4</text>
</g>
<use x="80.33" y="107.01" xlink:href="#Hd"/>
<path d="M76.83 107.01v20.00" stroke="currentColor" fill="none"/>
<use x="106.33" y="113.01" xlink:href="#Hd"/>
<path d="M102.83 113.01v20.00" stroke="currentColor" fill="none"/>
<defs>
<ellipse id="hd" rx="4.1" ry="2.9"
	transform="rotate(-20)" fill="currentColor"/>
</defs>
<use x="138.53" y="116.01" xlink:href="#hd"/>
<path d="M142.03 116.01v-20.00" stroke="currentColor" fill="none"/>
<path fill="currentColor"
	d="M152.93 132.61l12.80 -2.10v-3.20l-12.80 2.10"/>
<use x="156.73" y="113.01" xlink:href="#hd"/>
<path d="M153.23 113.01v18.50" stroke="currentColor" fill="none"/>
<use x="168.83" y="110.01" xlink:href="#hd"/>
<path d="M165.33 110.01v19.50" stroke="currentColor" fill="none"/>
<use x="182.13" y="107.01" xlink:href="#Hd"/>
<path d="M178.63 107.01v20.00" stroke="currentColor" fill="none"/>
<use x="214.43" y="104.01" xlink:href="#hd"/>
<circle fill="currentColor" cx="222.43" cy="104.01" r="1.2"/>
<path d="M210.93 104.01v20.00" stroke="currentColor" fill="none"/>
<use x="236.13" y="101.01" xlink:href="#hd"/>
<path d="M232.63 101.01v20.00" stroke="currentColor" fill="none"/>
<path fill="currentColor"
	d="M232.63 121.01c0.6 -5.6 9.6 -9 5.6 -18.4
	c1.6 6 -1.3 11.6 -5.6 12.8
"/>
<use x="249.33" y="104.01" xlink:href="#hd"/>
<circle fill="currentColor" cx="257.33" cy="104.01" r="1.2"/>
<path d="M245.83 104.01v20.00" stroke="currentColor" fill="none"/>
<use x="271.03" y="101.01" xlink:href="#hd"/>
<path d="M267.53 101.01v20.00" stroke="currentColor" fill="none"/>
<path fill="currentColor"
	d="M267.53 121.01c0.6 -5.6 9.6 -9 5.6 -18.4
	c1.6 6 -1.3 11.6 -5.6 12.8
"/>
<use x="295.23" y="107.01" xlink:href="#Hd"/>
<path d="M291.73 107.01v20.00" stroke="currentColor" fill="none"/>
<use x="325.03" y="107.01" xlink:href="#hd"/>
<path d="M321.53 107.01v20.00" stroke="currentColor" fill="none"/>
<use x="342.43" y="110.01" xlink:href="#hd"/>
<path d="M338.93 110.01v20.00" stroke="currentColor" fill="none"/>
<use x="369.63" y="113.01" xlink:href="#hd"/>
<circle fill="currentColor" cx="377.63" cy="110.01" r="1.2"/>
<path d="M366.13 113.01v20.00" stroke="currentColor" fill="none"/>
<use x="391.43" y="110.01" xlink:href="#hd"/>
<path d="M387.93 110.01v20.00" stroke="currentColor" fill="none"/>
<path fill="currentColor"
	d="M387.93 130.01c0.6 -5.6 9.6 -9 5.6 -18.4
	c1.6 6 -1.3 11.6 -5.6 12.8
"/>
<use x="403.53" y="116.01" xlink:href="#hd"/>
<path d="M407.03 116.01v-20.00" stroke="currentColor" fill="none"/>
<path fill="currentColor"
	d="M417.83 132.61l12.80 -2.10v-3.20l-12.80 2.10"/>
<use x="421.73" y="113.01" xlink:href="#hd"/>
<path d="M418.23 113.01v18.50" stroke="currentColor" fill="none"/>
<use x="433.83" y="110.01" xlink:href="#hd"/>
<path d="M430.33 110.01v19.50" stroke="currentColor" fill="none"/>
<use x="457.53" y="107.01" xlink:href="#hd"/>
<circle fill="currentColor" cx="465.53" cy="104.01" r="1.2"/>
<path d="M454.03 107.01v20.00" stroke="currentColor" fill="none"/>
<use x="479.23" y="110.01" xlink:href="#hd"/>
<path d="M475.73 110.01v20.00" stroke="currentColor" fill="none"/>
<path fill="currentColor"
	d="M475.73 130.01c0.6 -5.6 9.6 -9 5.6 -18.4
	c1.6 6 -1.3 11.6 -5.6 12.8
"/>
<use x="492.43" y="113.01" xlink:href="#hd"/>
<path d="M488.93 113.01v20.00" stroke="currentColor" fill="none"/>
<path fill="currentColor"
	d="M511.53 95.61l12.80 -2.10v3.20l-12.80 2.10"/>
<use x="508.43" y="116.01" xlink:href="#hd"/>
<path d="M511.93 116.01v-19.50" stroke="currentColor" fill="none"/>
<use x="520.53" y="113.01" xlink:href="#hd"/>
<path d="M524.03 113.01v-18.50" stroke="currentColor" fill="none"/>
<path fill="currentColor"
	d="M540.33 127.91l37.00 0.00v-3.20l-37.00 -0.00"/>
<use x="544.23" y="110.01" xlink:href="#hd"/>
<path d="M540.73 110.01v17.00" stroke="currentColor" fill="none"/>
<use x="556.33" y="107.01" xlink:href="#hd"/>
<path d="M552.83 107.01v20.00" stroke="currentColor" fill="none"/>
<use x="568.43" y="104.01" xlink:href="#hd"/>
<path d="M564.93 104.01v23.00" stroke="currentColor" fill="none"/>
<use x="580.53" y="110.01" xlink:href="#hd"/>
<path d="M577.03 110.01v17.00" stroke="currentColor" fill="none"/>
<use x="593.63" y="113.01" xlink:href="#hd"/>
<path d="M590.13 113.01v20.00" stroke="currentColor" fill="none"/>
<use x="609.63" y="122.01" xlink:href="#hd"/>
<path d="M613.13 122.01v-20.00" stroke="currentColor" fill="none"/>
<use x="636.83" y="125.01" xlink:href="#hd"/>
<path d="M640.33 125.01v-20.00" stroke="currentColor" fill="none"/>
<defs>
<path id="hl" stroke="currentColor" d="m-6 0h12"/>
</defs>
<use x="654.33" y="131.01" xlink:href="#hl"/>
<use x="654.33" y="134.01" xlink:href="#hd"/>
<path d="M657.83 134.01v-21.00" stroke="currentColor" fill="none"/>
<use x="671.93" y="125.01" xlink:href="#Hd"/>
<path d="M675.43 125.01v-20.00" stroke="currentColor" fill="none"/>
<path fill="currentColor"
	d="M298.73 107.01c3.58 -4.91 19.15 -4.91 22.72 -0.00
	l0.00 -0.22c-4.26 -6.69 -18.46 -6.69 -22.72 0.22"/>
</g>
</svg>
