<?xml version="1.0" standalone="no"?>
<!DOCTYPE svg PUBLIC "-//W3C//DTD SVG 1.1//EN"
	"http://www.w3.org/Graphics/SVG/1.1/DTD/svg11.dtd">
<svg xmlns="http://www.w3.org/2000/svg" version="1.1"
	xmlns:xlink="http://www.w3.org/1999/xlink"
	xml:space='preserve' color="black"
	width="7.38in" height="3.05in" viewBox="0 0 531 220">
<title>data/results/biggest_11/abc/159.abc (159) tune 1</title>
<!-- Creator: abcm2ps-7.8.14 -->
<!-- CreationDate: Aug  9, 2015 23:50 -->
<!-- CommandLine: -g data/results/biggest_11/abc/159.abc -O /home/allanino/Dropbox/Trabalhos/folkme/svg/159.svg -->
<g transform="scale(0.750)" stroke-width="0.70" font-family="Times" font-size="20.00">
<text x="354.13" y="21.67" text-anchor="middle">Phy Mo Linnisses,La. JGi.085</text>
</g>
<g transform="scale(0.750)" stroke-width="0.70" font-family="Times" font-size="16.00">
<text x="354.13" y="41.30" text-anchor="middle">Grey Kite Hym</text>
<path stroke="currentColor" fill="none"
	d="M211.03 116.84v-24.00"/>
<path stroke="currentColor" fill="none"
	d="M378.23 116.84v-24.00"/>
<path stroke="currentColor" fill="none"
	d="M543.23 116.84v-24.00"/>
<path stroke="currentColor" fill="none"
	d="M694.93 116.84v-24.00"/>
<path stroke="currentColor" fill="none"
	d="M13.33 116.84h681.60m-681.60 -6h681.60m-681.60 -6h681.60m-681.60 -6h681.60m-681.60 -6h681.60"/>
<defs>
<path id="utclef" fill="currentColor" d="m-50 -90
	c-72 -41 -72 -158 52 -188
	c150 -10 220 188 90 256
	c-114 52 -275 0 -293 -136
	c-15 -181 93 -229 220 -334
	c88 -87 79 -133 62 -210
	c-51 33 -94 105 -89 186
	c17 267 36 374 49 574
	c6 96 -19 134 -77 135
	c-80 1 -126 -93 -61 -133
	c85 -41 133 101 31 105
	c23 17 92 37 90 -92
	c-10 -223 -39 -342 -50 -617
	c0 -90 0 -162 96 -232
	c56 72 63 230 22 289
	c-74 106 -257 168 -255 316
	c9 153 148 185 252 133
	c86 -65 29 -192 -80 -176
	c-71 12 -105 67 -59 124"/>
<use id="tclef" transform="scale(0.045)"
	xlink:href="#utclef"/>
</defs>
<use x="25.33" y="116.84" xlink:href="#tclef"/>
<defs>
<path id="uflat" fill="currentColor" d="
	m100 -746
	h32
	v734
	l-32 4
	m32 -332
	c46 -72 152 -90 208 -20
	c100 110 -120 326 -208 348
	m0 -28
	c54 0 200 -206 130 -290
	c-50 -60 -130 -4 -130 34"/>
<use id="ft0" transform="translate(-3.5,3.5) scale(0.018)"
	xlink:href="#uflat"/>
</defs>
<use x="40.33" y="104.84" xlink:href="#ft0"/>
<defs>
<path id="csig" fill="currentColor" d="
	m1 -17.3
	c0.9 0 2.3 0.7 2.4 2.2
	c-1.2 -2 -3.6 0.1 -1.6 1.7
	c2 1 3.8 -3.5 -0.8 -4.7
	c-2 -0.4 -6.4 1.3 -5.8 7
	c0.4 6.4 7.9 6.8 9.1 0.7
	c-2.3 5.6 -6.7 5.1 -6.8 0
	c-0.5 -4.4 0.7 -7.5 3.5 -6.9"/>
<g id="ctsig">
	<use xlink:href="#csig"/>
	<path d="m0 -4v-16" stroke="currentColor"/>
</g>
</defs>
<use x="56.33" y="116.84" xlink:href="#ctsig"/>
<defs>
<ellipse id="hd" rx="4.1" ry="2.9"
	transform="rotate(-20)" fill="currentColor"/>
</defs>
<use x="74.33" y="107.84" xlink:href="#hd"/>
<circle fill="currentColor" cx="82.33" cy="107.84" r="1.2"/>
<path d="M77.83 107.84v-20.00" stroke="currentColor" fill="none"/>
<path fill="currentColor"
	d="M114.13 82.64l82.50 8.60v3.20l-82.50 -8.60"/>
<use x="110.93" y="101.84" xlink:href="#hd"/>
<path d="M114.43 101.84v-18.20" stroke="currentColor" fill="none"/>
<use x="131.43" y="107.84" xlink:href="#hd"/>
<path d="M134.93 107.84v-22.10" stroke="currentColor" fill="none"/>
<use x="151.83" y="110.84" xlink:href="#hd"/>
<path d="M155.33 110.84v-22.90" stroke="currentColor" fill="none"/>
<use x="172.33" y="116.84" xlink:href="#hd"/>
<path d="M175.83 116.84v-26.80" stroke="currentColor" fill="none"/>
<use x="192.73" y="119.84" xlink:href="#hd"/>
<path d="M196.23 119.84v-27.70" stroke="currentColor" fill="none"/>
<path fill="currentColor"
	d="M226.63 95.44l21.10 -3.90v3.20l-21.10 3.90"/>
<use x="223.53" y="116.84" xlink:href="#hd"/>
<path d="M227.03 116.84v-20.40" stroke="currentColor" fill="none"/>
<use x="243.93" y="110.84" xlink:href="#hd"/>
<path d="M247.43 110.84v-18.20" stroke="currentColor" fill="none"/>
<use x="266.63" y="110.84" xlink:href="#hd"/>
<path d="M270.13 110.84v-20.00" stroke="currentColor" fill="none"/>
<path fill="currentColor"
	d="M301.73 88.64l62.10 6.10v3.20l-62.10 -6.10"/>
<use x="298.63" y="107.84" xlink:href="#hd"/>
<path d="M302.13 107.84v-18.20" stroke="currentColor" fill="none"/>
<use x="319.03" y="110.84" xlink:href="#hd"/>
<path d="M322.53 110.84v-19.20" stroke="currentColor" fill="none"/>
<use x="339.53" y="116.84" xlink:href="#hd"/>
<path d="M343.03 116.84v-23.20" stroke="currentColor" fill="none"/>
<use x="360.03" y="119.84" xlink:href="#hd"/>
<path d="M363.53 119.84v-24.10" stroke="currentColor" fill="none"/>
<use x="390.73" y="107.84" xlink:href="#hd"/>
<path d="M394.23 107.84v-20.00" stroke="currentColor" fill="none"/>
<path fill="currentColor"
	d="M425.83 92.64l103.00 0.00v3.20l-103.00 -0.00"/>
<use x="422.63" y="110.84" xlink:href="#hd"/>
<path d="M426.13 110.84v-17.20" stroke="currentColor" fill="none"/>
<use x="443.13" y="116.84" xlink:href="#hd"/>
<path d="M446.63 116.84v-23.20" stroke="currentColor" fill="none"/>
<use x="463.63" y="113.84" xlink:href="#hd"/>
<path d="M467.13 113.84v-20.20" stroke="currentColor" fill="none"/>
<use x="484.03" y="110.84" xlink:href="#hd"/>
<path d="M487.53 110.84v-17.20" stroke="currentColor" fill="none"/>
<use x="504.53" y="116.84" xlink:href="#hd"/>
<path d="M508.03 116.84v-23.20" stroke="currentColor" fill="none"/>
<use x="524.93" y="119.84" xlink:href="#hd"/>
<path d="M528.43 119.84v-26.20" stroke="currentColor" fill="none"/>
<path fill="currentColor"
	d="M558.83 82.64l62.10 0.00v3.20l-62.10 -0.00"/>
<use x="555.73" y="116.84" xlink:href="#hd"/>
<path d="M559.23 116.84v-33.20" stroke="currentColor" fill="none"/>
<use x="576.13" y="101.84" xlink:href="#hd"/>
<path d="M579.63 101.84v-18.20" stroke="currentColor" fill="none"/>
<use x="596.63" y="107.84" xlink:href="#hd"/>
<path d="M600.13 107.84v-24.20" stroke="currentColor" fill="none"/>
<use x="617.13" y="110.84" xlink:href="#hd"/>
<path d="M620.63 110.84v-27.20" stroke="currentColor" fill="none"/>
<use x="639.83" y="116.84" xlink:href="#hd"/>
<circle fill="currentColor" cx="647.83" cy="113.84" r="1.2"/>
<path d="M643.33 116.84v-20.00" stroke="currentColor" fill="none"/>
<use x="676.43" y="113.84" xlink:href="#hd"/>
<path d="M679.93 113.84v-20.00" stroke="currentColor" fill="none"/>
<path fill="currentColor"
	d="	M679.93 93.84c0.6 5.6 9.6 9 5.6 18.4
	c1.6 -6 -1.3 -11.6 -5.6 -12.8
"/>
<defs>
<path id="grm" fill="currentColor" d="
	m-5 -2.5
	c5 -8.5 5.5 4.5 10 -2
	c-5 8.5 -5.5 -4.5 -10 2"/>
</defs>
<use x="74.33" y="83.84" xlink:href="#grm"/>
<use x="266.63" y="86.84" xlink:href="#grm"/>
<use x="639.83" y="90.84" xlink:href="#grm"/>
<path stroke="currentColor" fill="none"
	d="M167.53 191.84v-24.00"/>
<path stroke="currentColor" fill="none"
	d="M295.93 191.84v-24.00"/>
<path stroke="currentColor" fill="none"
	d="M421.23 191.84v-24.00"/>
<path stroke="currentColor" fill="none" stroke-width="3"
	d="M551.63 191.84v-24.00"/>
<path stroke="currentColor" fill="none"
	d="M547.13 191.84v-24.00"/>
<defs>
<g id="rdots" fill="currentColor">
	<circle cx="0" cy="-9" r="1.2"/>
	<circle cx="0" cy="-15" r="1.2"/>
</g>
</defs>
<use x="543.13" y="191.84" xlink:href="#rdots"/>
<path stroke="currentColor" fill="none"
	d="M694.93 191.84v-24.00"/>
<path stroke="currentColor" fill="none"
	d="M691.93 191.84v-24.00"/>
<path stroke="currentColor" fill="none"
	d="M13.33 191.84h681.60m-681.60 -6h681.60m-681.60 -6h681.60m-681.60 -6h681.60m-681.60 -6h681.60"/>
</g>
<g transform="scale(0.750)" stroke-width="0.70" font-family="Times" font-size="13.00">
<text x="425.23" y="153.24">1</text>
<path stroke="currentColor" fill="none"
	d="M421.23 141.84v20M421.23 141.84h123.90v20"/>
<text x="557.13" y="153.24">2</text>
<path stroke="currentColor" fill="none"
	d="M553.13 141.84v20M553.13 141.84h141.80v20"/>
<use x="25.33" y="191.84" xlink:href="#tclef"/>
<use x="40.33" y="179.84" xlink:href="#ft0"/>
<use x="58.33" y="185.84" xlink:href="#hd"/>
<circle fill="currentColor" cx="66.33" cy="182.84" r="1.2"/>
<path d="M61.83 185.84v-20.00" stroke="currentColor" fill="none"/>
<path fill="currentColor"
	d="M90.73 160.64l66.00 8.20v3.20l-66.00 -8.20"/>
<use x="87.53" y="179.84" xlink:href="#hd"/>
<path d="M91.03 179.84v-18.20" stroke="currentColor" fill="none"/>
<use x="103.93" y="182.84" xlink:href="#hd"/>
<path d="M107.43 182.84v-19.20" stroke="currentColor" fill="none"/>
<use x="120.23" y="185.84" xlink:href="#hd"/>
<path d="M123.73 185.84v-20.10" stroke="currentColor" fill="none"/>
<use x="136.53" y="191.84" xlink:href="#hd"/>
<path d="M140.03 191.84v-24.10" stroke="currentColor" fill="none"/>
<defs>
<path id="hl" stroke="currentColor" d="m-6 0h12"/>
</defs>
<use x="152.93" y="197.84" xlink:href="#hl"/>
<use x="152.93" y="197.84" xlink:href="#hd"/>
<path d="M156.43 197.84v-28.10" stroke="currentColor" fill="none"/>
<use x="180.03" y="182.84" xlink:href="#hd"/>
<path d="M183.53 182.84v-20.00" stroke="currentColor" fill="none"/>
<path fill="currentColor"
	d="M201.63 195.54l17.00 3.60v-3.20l-17.00 -3.60"/>
<use x="205.43" y="173.84" xlink:href="#hd"/>
<path d="M201.93 173.84v20.70" stroke="currentColor" fill="none"/>
<use x="221.73" y="179.84" xlink:href="#hd"/>
<path d="M218.23 179.84v18.20" stroke="currentColor" fill="none"/>
<use x="239.83" y="176.84" xlink:href="#hd"/>
<path d="M236.33 176.84v20.00" stroke="currentColor" fill="none"/>
<path fill="currentColor"
	d="M261.13 197.24l17.00 2.30v-3.20l-17.00 -2.30"/>
<use x="264.93" y="176.84" xlink:href="#hd"/>
<path d="M261.43 176.84v19.40" stroke="currentColor" fill="none"/>
<use x="281.33" y="179.84" xlink:href="#hd"/>
<path d="M277.83 179.84v18.60" stroke="currentColor" fill="none"/>
<path fill="currentColor"
	d="M304.63 202.04l51.50 -7.00v-3.20l-51.50 7.00"/>
<use x="308.43" y="182.84" xlink:href="#hd"/>
<path d="M304.93 182.84v18.20" stroke="currentColor" fill="none"/>
<use x="324.73" y="161.84" xlink:href="#hl"/>
<use x="324.73" y="161.84" xlink:href="#hd"/>
<path d="M321.23 161.84v37.00" stroke="currentColor" fill="none"/>
<use x="341.23" y="161.84" xlink:href="#hl"/>
<use x="341.23" y="161.84" xlink:href="#hd"/>
<path d="M337.73 161.84v34.70" stroke="currentColor" fill="none"/>
<use x="359.23" y="164.84" xlink:href="#hd"/>
<defs>
<path id="usharp" fill="currentColor" d="
	m136 -702
	v890
	h32
	v-890
	m128 840
	h32
	v-888
	h-32
	m-232 286
	v116
	l338 -96
	v-116
	m-338 442
	v116
	l338 -98
	v-114"/>
<use id="sh0" transform="translate(-4,5) scale(0.018)"
	xlink:href="#usharp"/>
</defs>
<use x="350.23" y="164.84" xlink:href="#sh0"/>
<path d="M355.73 164.84v29.30" stroke="currentColor" fill="none"/>
<use x="377.33" y="161.84" xlink:href="#hl"/>
<use x="377.33" y="161.84" xlink:href="#hd"/>
<circle fill="currentColor" cx="385.33" cy="158.84" r="1.2"/>
<path d="M373.83 161.84v20.00" stroke="currentColor" fill="none"/>
<use x="406.53" y="167.84" xlink:href="#hd"/>
<path d="M403.03 167.84v20.00" stroke="currentColor" fill="none"/>
<path fill="currentColor"
	d="M403.03 187.84c0.6 -5.6 9.6 -9 5.6 -18.4
	c1.6 6 -1.3 11.6 -5.6 12.8
"/>
<path fill="currentColor"
	d="M429.83 195.94l82.30 9.10v-3.20l-82.30 -9.10"/>
<use x="433.73" y="164.84" xlink:href="#hd"/>
<path d="M430.23 164.84v30.20" stroke="currentColor" fill="none"/>
<use x="450.03" y="170.84" xlink:href="#hd"/>
<path d="M446.53 170.84v26.00" stroke="currentColor" fill="none"/>
<use x="466.33" y="173.84" xlink:href="#hd"/>
<path d="M462.83 173.84v24.80" stroke="currentColor" fill="none"/>
<use x="482.73" y="176.84" xlink:href="#hd"/>
<path d="M479.23 176.84v23.60" stroke="currentColor" fill="none"/>
<use x="499.03" y="179.84" xlink:href="#hd"/>
<path d="M495.53 179.84v22.40" stroke="currentColor" fill="none"/>
<use x="515.33" y="185.84" xlink:href="#hd"/>
<path d="M511.83 185.84v18.20" stroke="currentColor" fill="none"/>
<use x="531.73" y="185.84" xlink:href="#hd"/>
<path d="M535.23 185.84v-20.00" stroke="currentColor" fill="none"/>
<path fill="currentColor"
	d="M561.83 202.04l115.00 0.00v-3.20l-115.00 -0.00"/>
<use x="565.63" y="176.84" xlink:href="#hd"/>
<path d="M562.13 176.84v24.20" stroke="currentColor" fill="none"/>
<use x="581.93" y="182.84" xlink:href="#hd"/>
<path d="M578.43 182.84v18.20" stroke="currentColor" fill="none"/>
<use x="598.33" y="173.84" xlink:href="#hd"/>
<path d="M594.83 173.84v27.20" stroke="currentColor" fill="none"/>
<use x="614.63" y="176.84" xlink:href="#hd"/>
<path d="M611.13 176.84v24.20" stroke="currentColor" fill="none"/>
<use x="630.93" y="179.84" xlink:href="#hd"/>
<path d="M627.43 179.84v21.20" stroke="currentColor" fill="none"/>
<use x="647.33" y="176.84" xlink:href="#hd"/>
<path d="M643.83 176.84v24.20" stroke="currentColor" fill="none"/>
<use x="663.63" y="173.84" xlink:href="#hd"/>
<path d="M660.13 173.84v27.20" stroke="currentColor" fill="none"/>
<use x="679.93" y="170.84" xlink:href="#hd"/>
<path d="M676.43 170.84v30.20" stroke="currentColor" fill="none"/>
<use x="58.33" y="161.84" xlink:href="#grm"/>
<use x="180.03" y="158.84" xlink:href="#grm"/>
<use x="377.33" y="155.84" xlink:href="#grm"/>
<use x="531.73" y="161.84" xlink:href="#grm"/>
<use x="64.83" y="269.84" xlink:href="#rdots"/>
<path stroke="currentColor" fill="none"
	d="M60.83 269.84v-24.00"/>
<path stroke="currentColor" fill="none" stroke-width="3"
	d="M56.33 269.84v-24.00"/>
<path stroke="currentColor" fill="none"
	d="M181.13 269.84v-24.00"/>
<path stroke="currentColor" fill="none"
	d="M309.23 269.84v-24.00"/>
<path stroke="currentColor" fill="none"
	d="M428.73 269.84v-24.00"/>
<path stroke="currentColor" fill="none" stroke-width="3"
	d="M567.73 269.84v-24.00"/>
<path stroke="currentColor" fill="none"
	d="M563.23 269.84v-24.00"/>
<use x="559.23" y="269.84" xlink:href="#rdots"/>
<path stroke="currentColor" fill="none"
	d="M694.93 269.84v-24.00"/>
<path stroke="currentColor" fill="none"
	d="M691.93 269.84v-24.00"/>
<path stroke="currentColor" fill="none"
	d="M13.33 269.84h681.60m-681.60 -6h681.60m-681.60 -6h681.60m-681.60 -6h681.60m-681.60 -6h681.60"/>
<text x="432.73" y="228.24">1</text>
<path stroke="currentColor" fill="none"
	d="M428.73 216.84v20M428.73 216.84h132.50v20"/>
<text x="573.23" y="228.24">2</text>
<path stroke="currentColor" fill="none"
	d="M569.23 216.84v20M569.23 216.84h125.70v20"/>
<use x="25.33" y="269.84" xlink:href="#tclef"/>
<use x="40.33" y="257.84" xlink:href="#ft0"/>
<use x="78.33" y="254.84" xlink:href="#hd"/>
<circle fill="currentColor" cx="86.33" cy="254.84" r="1.2"/>
<path d="M74.83 254.84v20.00" stroke="currentColor" fill="none"/>
<path fill="currentColor"
	d="M102.03 277.64l62.10 5.40v-3.20l-62.10 -5.40"/>
<use x="105.83" y="251.84" xlink:href="#hd"/>
<path d="M102.33 251.84v24.80" stroke="currentColor" fill="none"/>
<use x="121.23" y="257.84" xlink:href="#hd"/>
<path d="M117.73 257.84v20.20" stroke="currentColor" fill="none"/>
<use x="136.53" y="254.84" xlink:href="#hd"/>
<path d="M133.03 254.84v24.50" stroke="currentColor" fill="none"/>
<use x="151.93" y="260.84" xlink:href="#hd"/>
<path d="M148.43 260.84v19.90" stroke="currentColor" fill="none"/>
<use x="167.33" y="263.84" xlink:href="#hd"/>
<path d="M163.83 263.84v18.20" stroke="currentColor" fill="none"/>
<path fill="currentColor"
	d="M196.83 248.04l16.00 -3.50v3.20l-16.00 3.50"/>
<use x="193.63" y="269.84" xlink:href="#hd"/>
<path d="M197.13 269.84v-20.80" stroke="currentColor" fill="none"/>
<use x="209.03" y="263.84" xlink:href="#hd"/>
<path d="M212.53 263.84v-18.20" stroke="currentColor" fill="none"/>
<use x="225.93" y="263.84" xlink:href="#hd"/>
<path d="M229.43 263.84v-20.00" stroke="currentColor" fill="none"/>
<path fill="currentColor"
	d="M252.43 244.04l46.80 -5.50v3.20l-46.80 5.50"/>
<use x="249.33" y="269.84" xlink:href="#hd"/>
<path d="M252.83 269.84v-24.80" stroke="currentColor" fill="none"/>
<use x="264.63" y="266.84" xlink:href="#hd"/>
<path d="M268.13 266.84v-23.60" stroke="currentColor" fill="none"/>
<use x="280.03" y="263.84" xlink:href="#hd"/>
<path d="M283.53 263.84v-22.40" stroke="currentColor" fill="none"/>
<use x="295.43" y="257.84" xlink:href="#hd"/>
<path d="M298.93 257.84v-18.20" stroke="currentColor" fill="none"/>
<path fill="currentColor"
	d="M324.93 241.54l16.00 4.30v3.20l-16.00 -4.30"/>
<use x="321.73" y="260.84" xlink:href="#hd"/>
<path d="M325.23 260.84v-18.20" stroke="currentColor" fill="none"/>
<use x="337.13" y="269.84" xlink:href="#hd"/>
<path d="M340.63 269.84v-23.10" stroke="currentColor" fill="none"/>
<use x="354.03" y="269.84" xlink:href="#hd"/>
<path d="M357.53 269.84v-20.00" stroke="currentColor" fill="none"/>
<path fill="currentColor"
	d="M380.53 235.54l16.00 5.30v3.20l-16.00 -5.30"/>
<use x="377.43" y="254.84" xlink:href="#hd"/>
<path d="M380.93 254.84v-18.20" stroke="currentColor" fill="none"/>
<use x="392.73" y="269.84" xlink:href="#hd"/>
<path d="M396.23 269.84v-28.10" stroke="currentColor" fill="none"/>
<use x="409.73" y="269.84" xlink:href="#hd"/>
<path d="M413.23 269.84v-20.00" stroke="currentColor" fill="none"/>
<path fill="currentColor"
	d="M444.33 235.64l108.20 0.00v3.20l-108.20 -0.00"/>
<use x="441.23" y="260.84" xlink:href="#hd"/>
<path d="M444.73 260.84v-24.20" stroke="currentColor" fill="none"/>
<use x="456.53" y="254.84" xlink:href="#hd"/>
<path d="M460.03 254.84v-18.20" stroke="currentColor" fill="none"/>
<use x="471.93" y="257.84" xlink:href="#hd"/>
<path d="M475.43 257.84v-21.20" stroke="currentColor" fill="none"/>
<use x="487.33" y="263.84" xlink:href="#hd"/>
<path d="M490.83 263.84v-27.20" stroke="currentColor" fill="none"/>
<use x="502.63" y="269.84" xlink:href="#hd"/>
<path d="M506.13 269.84v-33.20" stroke="currentColor" fill="none"/>
<use x="518.03" y="272.84" xlink:href="#hd"/>
<path d="M521.53 272.84v-36.20" stroke="currentColor" fill="none"/>
<use x="533.33" y="269.84" xlink:href="#hd"/>
<path d="M536.83 269.84v-33.20" stroke="currentColor" fill="none"/>
<use x="548.73" y="266.84" xlink:href="#hd"/>
<path d="M552.23 266.84v-30.20" stroke="currentColor" fill="none"/>
<path fill="currentColor"
	d="M584.93 235.64l77.50 0.00v3.20l-77.50 -0.00"/>
<use x="581.73" y="260.84" xlink:href="#hd"/>
<path d="M585.23 260.84v-24.20" stroke="currentColor" fill="none"/>
<use x="597.13" y="263.84" xlink:href="#hd"/>
<path d="M600.63 263.84v-27.20" stroke="currentColor" fill="none"/>
<use x="612.43" y="254.84" xlink:href="#hd"/>
<path d="M615.93 254.84v-18.20" stroke="currentColor" fill="none"/>
<use x="627.83" y="260.84" xlink:href="#hd"/>
<path d="M631.33 260.84v-24.20" stroke="currentColor" fill="none"/>
<use x="643.13" y="263.84" xlink:href="#hd"/>
<path d="M646.63 263.84v-27.20" stroke="currentColor" fill="none"/>
<use x="658.53" y="269.84" xlink:href="#hd"/>
<path d="M662.03 269.84v-33.20" stroke="currentColor" fill="none"/>
<use x="675.43" y="272.84" xlink:href="#hd"/>
<path d="M678.93 272.84v-20.00" stroke="currentColor" fill="none"/>
<use x="78.33" y="243.84" xlink:href="#grm"/>
<use x="225.93" y="239.84" xlink:href="#grm"/>
<use x="354.03" y="243.84" xlink:href="#grm"/>
<use x="409.73" y="243.84" xlink:href="#grm"/>
</g>
</svg>
