<?xml version="1.0" standalone="no"?>
<!DOCTYPE svg PUBLIC "-//W3C//DTD SVG 1.1//EN"
	"http://www.w3.org/Graphics/SVG/1.1/DTD/svg11.dtd">
<svg xmlns="http://www.w3.org/2000/svg" version="1.1"
	xmlns:xlink="http://www.w3.org/1999/xlink"
	xml:space='preserve' color="black"
	width="7.38in" height="2.64in" viewBox="0 0 531 190">
<title>data/results/biggest_11/abc/16.abc (16) tune 1</title>
<!-- Creator: abcm2ps-7.8.14 -->
<!-- CreationDate: Aug  9, 2015 23:50 -->
<!-- CommandLine: -g data/results/biggest_11/abc/16.abc -O /home/allanino/Dropbox/Trabalhos/folkme/svg/16.svg -->
<g transform="scale(0.750)" stroke-width="0.70" font-family="Times" font-size="20.00">
<text x="354.13" y="21.67" text-anchor="middle">Walzer  BbEb</text>
</g>
<g transform="scale(0.750)" stroke-width="0.70" font-family="Times" font-size="16.00">
<text x="354.13" y="41.30" text-anchor="middle">Hanny Christen. Bd.I  Zürich, Schaffhausen, St. Gallen I. S.267  (wz00364) orig. F,Bb-Dur</text>
<text x="354.13" y="60.13" text-anchor="middle">Zürcher Z:&quot;uveltisely and arigg, mailundmat Bärnand&apos;s Reelna (Ludcrten)</text>
<path stroke="currentColor" fill="none"
	d="M135.83 147.67v-24.00"/>
<path stroke="currentColor" fill="none"
	d="M202.43 147.67v-24.00"/>
<path stroke="currentColor" fill="none"
	d="M291.73 147.67v-24.00"/>
<path stroke="currentColor" fill="none"
	d="M373.23 147.67v-24.00"/>
<path stroke="currentColor" fill="none"
	d="M456.03 147.67v-24.00"/>
<path stroke="currentColor" fill="none"
	d="M537.43 147.67v-24.00"/>
<path stroke="currentColor" fill="none"
	d="M620.33 147.67v-24.00"/>
<path stroke="currentColor" fill="none"
	d="M694.93 147.67v-24.00"/>
<path stroke="currentColor" fill="none"
	d="M13.33 147.67h681.60m-681.60 -6h681.60m-681.60 -6h681.60m-681.60 -6h681.60m-681.60 -6h681.60"/>
</g>
<g transform="scale(0.750)" stroke-width="0.70" font-family="Helvetica" font-size="12.00">
<text x="71.43" y="100.27">F</text>
<text x="142.13" y="100.27">C7</text>
<text x="208.83" y="100.27">C7</text>
<text x="301.33" y="100.27">F</text>
<text x="462.33" y="100.27">C7</text>
<defs>
<path id="utclef" fill="currentColor" d="m-50 -90
	c-72 -41 -72 -158 52 -188
	c150 -10 220 188 90 256
	c-114 52 -275 0 -293 -136
	c-15 -181 93 -229 220 -334
	c88 -87 79 -133 62 -210
	c-51 33 -94 105 -89 186
	c17 267 36 374 49 574
	c6 96 -19 134 -77 135
	c-80 1 -126 -93 -61 -133
	c85 -41 133 101 31 105
	c23 17 92 37 90 -92
	c-10 -223 -39 -342 -50 -617
	c0 -90 0 -162 96 -232
	c56 72 63 230 22 289
	c-74 106 -257 168 -255 316
	c9 153 148 185 252 133
	c86 -65 29 -192 -80 -176
	c-71 12 -105 67 -59 124"/>
<use id="tclef" transform="scale(0.045)"
	xlink:href="#utclef"/>
</defs>
<use x="25.33" y="147.67" xlink:href="#tclef"/>
<defs>
<path id="uflat" fill="currentColor" d="
	m100 -746
	h32
	v734
	l-32 4
	m32 -332
	c46 -72 152 -90 208 -20
	c100 110 -120 326 -208 348
	m0 -28
	c54 0 200 -206 130 -290
	c-50 -60 -130 -4 -130 34"/>
<use id="ft0" transform="translate(-3.5,3.5) scale(0.018)"
	xlink:href="#uflat"/>
</defs>
<use x="40.33" y="135.67" xlink:href="#ft0"/>
<g font-family="serif" font-size="16" font-weight="bold" font-style="normal"
	transform="translate(56.33,147.67) scale(1.2,1)">
	<text y="-1" text-anchor="middle">4</text>
	<text y="-13" text-anchor="middle">3</text>
</g>
<defs>
<path id="hl" stroke="currentColor" d="m-6 0h12"/>
</defs>
<use x="74.33" y="117.67" xlink:href="#hl"/>
<use x="74.33" y="111.67" xlink:href="#hl"/>
<defs>
<ellipse id="hd" rx="4.1" ry="2.9"
	transform="rotate(-20)" fill="currentColor"/>
</defs>
<use x="74.33" y="111.67" xlink:href="#hd"/>
<circle fill="currentColor" cx="82.33" cy="108.67" r="1.2"/>
<path d="M70.83 111.67v24.00" stroke="currentColor" fill="none"/>
<path fill="currentColor"
	d="M94.13 146.47l26.60 5.50v-3.20l-26.60 -5.50"/>
<use x="98.03" y="117.67" xlink:href="#hl"/>
<use x="98.03" y="117.67" xlink:href="#hd"/>
<path d="M94.53 117.67v27.90" stroke="currentColor" fill="none"/>
<use x="110.93" y="123.67" xlink:href="#hd"/>
<path d="M107.43 123.67v24.50" stroke="currentColor" fill="none"/>
<use x="123.93" y="132.67" xlink:href="#hd"/>
<path d="M120.43 132.67v18.20" stroke="currentColor" fill="none"/>
<use x="148.33" y="132.67" xlink:href="#hd"/>
<path d="M144.83 132.67v20.00" stroke="currentColor" fill="none"/>
<use x="167.43" y="135.67" xlink:href="#hd"/>
<path d="M163.93 135.67v20.00" stroke="currentColor" fill="none"/>
<use x="186.63" y="135.67" xlink:href="#hd"/>
<path d="M183.13 135.67v20.00" stroke="currentColor" fill="none"/>
<path fill="currentColor"
	d="M211.13 147.97l65.60 8.70v-3.20l-65.60 -8.70"/>
<use x="214.93" y="117.67" xlink:href="#hl"/>
<use x="214.93" y="114.67" xlink:href="#hd"/>
<path d="M211.43 114.67v32.30" stroke="currentColor" fill="none"/>
<use x="227.93" y="120.67" xlink:href="#hd"/>
<path d="M224.43 120.67v28.10" stroke="currentColor" fill="none"/>
<use x="240.93" y="126.67" xlink:href="#hd"/>
<path d="M237.43 126.67v23.80" stroke="currentColor" fill="none"/>
<use x="253.93" y="132.67" xlink:href="#hd"/>
<path d="M250.43 132.67v19.50" stroke="currentColor" fill="none"/>
<use x="266.83" y="135.67" xlink:href="#hd"/>
<path d="M263.33 135.67v18.20" stroke="currentColor" fill="none"/>
<use x="279.83" y="132.67" xlink:href="#hd"/>
<path d="M276.33 132.67v22.90" stroke="currentColor" fill="none"/>
<path fill="currentColor"
	d="M300.43 139.67l39.60 6.30v-3.20l-39.60 -6.30"/>
<use x="304.23" y="117.67" xlink:href="#hl"/>
<use x="304.23" y="117.67" xlink:href="#hd"/>
<path d="M300.73 117.67v21.00" stroke="currentColor" fill="none"/>
<use x="317.23" y="120.67" xlink:href="#hd"/>
<path d="M313.73 120.67v20.10" stroke="currentColor" fill="none"/>
<use x="330.23" y="123.67" xlink:href="#hd"/>
<path d="M326.73 123.67v19.10" stroke="currentColor" fill="none"/>
<use x="343.13" y="126.67" xlink:href="#hd"/>
<path d="M339.63 126.67v18.20" stroke="currentColor" fill="none"/>
<use x="357.33" y="123.67" xlink:href="#hd"/>
<path d="M353.83 123.67v20.00" stroke="currentColor" fill="none"/>
<use x="385.73" y="117.67" xlink:href="#hl"/>
<use x="385.73" y="111.67" xlink:href="#hl"/>
<use x="385.73" y="111.67" xlink:href="#hd"/>
<path d="M382.23 111.67v24.00" stroke="currentColor" fill="none"/>
<path fill="currentColor"
	d="M401.33 149.97l39.60 5.50v-3.20l-39.60 -5.50"/>
<use x="405.23" y="117.67" xlink:href="#hl"/>
<use x="405.23" y="117.67" xlink:href="#hd"/>
<path d="M401.73 117.67v31.40" stroke="currentColor" fill="none"/>
<use x="418.13" y="132.67" xlink:href="#hd"/>
<path d="M414.63 132.67v18.20" stroke="currentColor" fill="none"/>
<use x="431.13" y="129.67" xlink:href="#hd"/>
<path d="M427.63 129.67v23.00" stroke="currentColor" fill="none"/>
<use x="444.13" y="132.67" xlink:href="#hd"/>
<path d="M440.63 132.67v21.80" stroke="currentColor" fill="none"/>
<path fill="currentColor"
	d="M464.63 151.97l39.60 -9.30v-3.20l-39.60 9.30"/>
<use x="468.53" y="132.67" xlink:href="#hd"/>
<path d="M465.03 132.67v18.20" stroke="currentColor" fill="none"/>
<use x="481.53" y="126.67" xlink:href="#hd"/>
<path d="M478.03 126.67v21.20" stroke="currentColor" fill="none"/>
<use x="494.43" y="120.67" xlink:href="#hd"/>
<path d="M490.93 120.67v24.10" stroke="currentColor" fill="none"/>
<use x="507.43" y="117.67" xlink:href="#hl"/>
<use x="507.43" y="114.67" xlink:href="#hd"/>
<path d="M503.93 114.67v27.10" stroke="currentColor" fill="none"/>
<use x="521.63" y="126.67" xlink:href="#hd"/>
<path d="M518.13 126.67v20.00" stroke="currentColor" fill="none"/>
<use x="549.93" y="117.67" xlink:href="#hl"/>
<use x="549.93" y="111.67" xlink:href="#hl"/>
<use x="549.93" y="111.67" xlink:href="#hd"/>
<path d="M546.43 111.67v24.00" stroke="currentColor" fill="none"/>
<path fill="currentColor"
	d="M565.63 150.67l39.60 0.00v-3.20l-39.60 -0.00"/>
<use x="569.43" y="117.67" xlink:href="#hl"/>
<use x="569.43" y="114.67" xlink:href="#hd"/>
<path d="M565.93 114.67v35.00" stroke="currentColor" fill="none"/>
<use x="582.43" y="132.67" xlink:href="#hd"/>
<path d="M578.93 132.67v17.00" stroke="currentColor" fill="none"/>
<use x="595.43" y="126.67" xlink:href="#hd"/>
<path d="M591.93 126.67v23.00" stroke="currentColor" fill="none"/>
<use x="608.43" y="117.67" xlink:href="#hl"/>
<use x="608.43" y="114.67" xlink:href="#hd"/>
<path d="M604.93 114.67v35.00" stroke="currentColor" fill="none"/>
<use x="632.83" y="126.67" xlink:href="#hd"/>
<path d="M629.33 126.67v20.00" stroke="currentColor" fill="none"/>
<path fill="currentColor"
	d="M648.03 151.67l13.70 3.30v-3.20l-13.70 -3.30"/>
<use x="651.93" y="129.67" xlink:href="#hd"/>
<path d="M648.43 129.67v21.10" stroke="currentColor" fill="none"/>
<use x="664.93" y="135.67" xlink:href="#hd"/>
<path d="M661.43 135.67v18.20" stroke="currentColor" fill="none"/>
<use x="679.03" y="132.67" xlink:href="#hd"/>
<path d="M675.53 132.67v20.00" stroke="currentColor" fill="none"/>
<text font-family="serif" font-size="16" font-weight="bold" font-style="italic"
	x="144.33" y="119.67">tr</text>
<path stroke="currentColor" fill="none"
	d="M144.53 230.67v-24.00"/>
<path stroke="currentColor" fill="none"
	d="M253.73 230.67v-24.00"/>
<path stroke="currentColor" fill="none" stroke-width="3"
	d="M375.53 230.67v-24.00"/>
<path stroke="currentColor" fill="none"
	d="M371.03 230.67v-24.00"/>
<defs>
<g id="rdots" fill="currentColor">
	<circle cx="0" cy="-9" r="1.2"/>
	<circle cx="0" cy="-15" r="1.2"/>
</g>
</defs>
<use x="367.03" y="230.67" xlink:href="#rdots"/>
<path stroke="currentColor" fill="none"
	d="M492.73 230.67v-24.00"/>
<path stroke="currentColor" fill="none"
	d="M603.53 230.67v-24.00"/>
<path stroke="currentColor" fill="none" stroke-width="3"
	d="M693.43 230.67v-24.00"/>
<path stroke="currentColor" fill="none"
	d="M688.93 230.67v-24.00"/>
<path stroke="currentColor" fill="none"
	d="M13.33 230.67h681.60m-681.60 -6h681.60m-681.60 -6h681.60m-681.60 -6h681.60m-681.60 -6h681.60"/>
<text x="154.03" y="184.27">F</text>
<text x="393.13" y="184.27">F</text>
<text x="499.13" y="184.27">C7</text>
<text x="613.13" y="184.27">F</text>
</g>
<g transform="scale(0.750)" stroke-width="0.70" font-family="Times" font-size="13.00">
<text x="61.83" y="184.07">1</text>
<path stroke="currentColor" fill="none"
	d="M57.83 172.67v20M57.83 172.67h311.20v20"/>
<text x="381.03" y="184.07">2</text>
<path stroke="currentColor" fill="none"
	d="M377.03 172.67v20M377.03 172.67h317.90v20"/>
<use x="25.33" y="230.67" xlink:href="#tclef"/>
<use x="40.33" y="218.67" xlink:href="#ft0"/>
<use x="70.33" y="218.67" xlink:href="#hd"/>
<path d="M66.83 218.67v20.00" stroke="currentColor" fill="none"/>
<use x="98.23" y="209.67" xlink:href="#hd"/>
<circle fill="currentColor" cx="106.23" cy="209.67" r="1.2"/>
<path d="M94.73 209.67v20.00" stroke="currentColor" fill="none"/>
<use x="127.53" y="230.67" xlink:href="#hd"/>
<path d="M131.03 230.67v-20.00" stroke="currentColor" fill="none"/>
<path fill="currentColor"
	d="	M131.03 210.67c0.6 5.6 9.6 9 5.6 18.4
	c1.6 -6 -1.3 -11.6 -5.6 -12.8
"/>
<path fill="currentColor"
	d="M160.13 193.47l54.90 6.90v3.20l-54.90 -6.90"/>
<use x="157.03" y="212.67" xlink:href="#hd"/>
<path d="M160.53 212.67v-18.20" stroke="currentColor" fill="none"/>
<use x="175.03" y="215.67" xlink:href="#hd"/>
<path d="M178.53 215.67v-18.90" stroke="currentColor" fill="none"/>
<use x="193.13" y="221.67" xlink:href="#hd"/>
<path d="M196.63 221.67v-22.60" stroke="currentColor" fill="none"/>
<use x="211.23" y="227.67" xlink:href="#hd"/>
<path d="M214.73 227.67v-26.30" stroke="currentColor" fill="none"/>
<use x="231.13" y="227.67" xlink:href="#hd"/>
<path d="M234.63 227.67v-20.00" stroke="currentColor" fill="none"/>
<path fill="currentColor"
	d="M262.33 233.67l91.00 0.00v-3.20l-91.00 -0.00"/>
<use x="266.23" y="206.67" xlink:href="#hd"/>
<path d="M262.73 206.67v26.00" stroke="currentColor" fill="none"/>
<use x="284.23" y="215.67" xlink:href="#hd"/>
<path d="M280.73 215.67v17.00" stroke="currentColor" fill="none"/>
<use x="302.33" y="215.67" xlink:href="#hd"/>
<path d="M298.83 215.67v17.00" stroke="currentColor" fill="none"/>
<use x="320.43" y="212.67" xlink:href="#hd"/>
<path d="M316.93 212.67v20.00" stroke="currentColor" fill="none"/>
<use x="338.43" y="215.67" xlink:href="#hd"/>
<path d="M334.93 215.67v17.00" stroke="currentColor" fill="none"/>
<use x="356.53" y="206.67" xlink:href="#hd"/>
<path d="M353.03 206.67v26.00" stroke="currentColor" fill="none"/>
<path fill="currentColor"
	d="M392.23 246.97l54.90 -10.10v-3.20l-54.90 10.10"/>
<use x="396.03" y="227.67" xlink:href="#hd"/>
<path d="M392.53 227.67v18.20" stroke="currentColor" fill="none"/>
<use x="414.13" y="221.67" xlink:href="#hd"/>
<path d="M410.63 221.67v20.90" stroke="currentColor" fill="none"/>
<use x="432.23" y="206.67" xlink:href="#hd"/>
<path d="M428.73 206.67v32.60" stroke="currentColor" fill="none"/>
<use x="450.23" y="203.67" xlink:href="#hd"/>
<path d="M446.73 203.67v32.30" stroke="currentColor" fill="none"/>
<use x="470.23" y="200.67" xlink:href="#hl"/>
<use x="470.23" y="200.67" xlink:href="#hd"/>
<path d="M466.73 200.67v20.00" stroke="currentColor" fill="none"/>
<use x="505.23" y="206.67" xlink:href="#hd"/>
<path d="M501.73 206.67v20.00" stroke="currentColor" fill="none"/>
<path fill="currentColor"
	d="M529.33 230.87l54.90 0.00v-3.20l-54.90 -0.00"/>
<use x="533.13" y="209.67" xlink:href="#hd"/>
<path d="M529.63 209.67v20.20" stroke="currentColor" fill="none"/>
<use x="551.23" y="209.67" xlink:href="#hd"/>
<path d="M547.73 209.67v20.20" stroke="currentColor" fill="none"/>
<use x="569.33" y="209.67" xlink:href="#hd"/>
<path d="M565.83 209.67v20.20" stroke="currentColor" fill="none"/>
<use x="587.33" y="209.67" xlink:href="#hd"/>
<path d="M583.83 209.67v20.20" stroke="currentColor" fill="none"/>
<use x="616.03" y="206.67" xlink:href="#hd"/>
<path d="M612.53 206.67v20.00" stroke="currentColor" fill="none"/>
<defs>
<path id="r4" fill="currentColor" d="m-1 -8.5
	l3.6 5.1 -2.1 5.2 2.2 4.3
	c-2.6 -2.3 -5.1 0 -2.4 2.6
	c-4.8 -3 -1.5 -6.9 1.4 -4.1
	l-3.1 -4.5 1.9 -5.1 -1.5 -3.5"/>
</defs>
<use x="643.93" y="218.67" xlink:href="#r4"/>
<use x="671.83" y="218.67" xlink:href="#r4"/>
</g>
</svg>
