<?xml version="1.0" standalone="no"?>
<!DOCTYPE svg PUBLIC "-//W3C//DTD SVG 1.1//EN"
	"http://www.w3.org/Graphics/SVG/1.1/DTD/svg11.dtd">
<svg xmlns="http://www.w3.org/2000/svg" version="1.1"
	xmlns:xlink="http://www.w3.org/1999/xlink"
	xml:space='preserve' color="black"
	width="7.38in" height="2.40in" viewBox="0 0 531 173">
<title>data/results/biggest_11/abc/167.abc (167) tune 1</title>
<!-- Creator: abcm2ps-7.8.14 -->
<!-- CreationDate: Aug  9, 2015 23:50 -->
<!-- CommandLine: -g data/results/biggest_11/abc/167.abc -O /home/allanino/Dropbox/Trabalhos/folkme/svg/167.svg -->
<g transform="scale(0.750)" stroke-width="0.70" font-family="Times" font-size="20.00">
<text x="354.13" y="21.67" text-anchor="middle">Ländler Bb chords</text>
</g>
<g transform="scale(0.750)" stroke-width="0.70" font-family="Times" font-size="16.00">
<text x="354.13" y="41.30" text-anchor="middle">Hanny Christen. Bd.3 Appenzell. S.27 (LD03086) orig. C-Dur</text>
<path stroke="currentColor" fill="none"
	d="M175.03 128.84v-24.00"/>
<path stroke="currentColor" fill="none"
	d="M274.53 128.84v-24.00"/>
<path stroke="currentColor" fill="none"
	d="M382.83 128.84v-24.00"/>
<path stroke="currentColor" fill="none"
	d="M475.63 128.84v-24.00"/>
<path stroke="currentColor" fill="none"
	d="M585.23 128.84v-24.00"/>
<path stroke="currentColor" fill="none"
	d="M694.93 128.84v-24.00"/>
<path stroke="currentColor" fill="none"
	d="M13.33 128.84h681.60m-681.60 -6h681.60m-681.60 -6h681.60m-681.60 -6h681.60m-681.60 -6h681.60"/>
</g>
<g transform="scale(0.750)" stroke-width="0.70" font-family="Helvetica" font-size="12.00">
<text x="73.93" y="81.44">B♭</text>
<text x="179.83" y="81.44">Cm</text>
<text x="281.13" y="81.44">B♭</text>
<text x="389.73" y="81.44">F7</text>
<text x="591.93" y="81.44">B♭</text>
<defs>
<path id="utclef" fill="currentColor" d="m-50 -90
	c-72 -41 -72 -158 52 -188
	c150 -10 220 188 90 256
	c-114 52 -275 0 -293 -136
	c-15 -181 93 -229 220 -334
	c88 -87 79 -133 62 -210
	c-51 33 -94 105 -89 186
	c17 267 36 374 49 574
	c6 96 -19 134 -77 135
	c-80 1 -126 -93 -61 -133
	c85 -41 133 101 31 105
	c23 17 92 37 90 -92
	c-10 -223 -39 -342 -50 -617
	c0 -90 0 -162 96 -232
	c56 72 63 230 22 289
	c-74 106 -257 168 -255 316
	c9 153 148 185 252 133
	c86 -65 29 -192 -80 -176
	c-71 12 -105 67 -59 124"/>
<use id="tclef" transform="scale(0.045)"
	xlink:href="#utclef"/>
</defs>
<use x="25.33" y="128.84" xlink:href="#tclef"/>
<defs>
<path id="uflat" fill="currentColor" d="
	m100 -746
	h32
	v734
	l-32 4
	m32 -332
	c46 -72 152 -90 208 -20
	c100 110 -120 326 -208 348
	m0 -28
	c54 0 200 -206 130 -290
	c-50 -60 -130 -4 -130 34"/>
<use id="ft0" transform="translate(-3.5,3.5) scale(0.018)"
	xlink:href="#uflat"/>
</defs>
<use x="40.33" y="116.84" xlink:href="#ft0"/>
<use x="45.83" y="107.84" xlink:href="#ft0"/>
<g font-family="serif" font-size="16" font-weight="bold" font-style="normal"
	transform="translate(61.83,128.84) scale(1.2,1)">
	<text y="-1" text-anchor="middle">4</text>
	<text y="-13" text-anchor="middle">3</text>
</g>
<path fill="currentColor"
	d="M76.03 130.84l85.00 0.00v-3.20l-85.00 -0.00"/>
<path fill="currentColor"
	d="M122.83 125.84l6.00 0.00v-3.20l-6.00 -0.00"/>
<path fill="currentColor"
	d="M154.63 125.84l6.00 0.00v-3.20l-6.00 -0.00"/>
<defs>
<ellipse id="hd" rx="4.1" ry="2.9"
	transform="rotate(-20)" fill="currentColor"/>
</defs>
<use x="79.83" y="104.84" xlink:href="#hd"/>
<path d="M76.33 104.84v25.00" stroke="currentColor" fill="none"/>
<defs>
<path id="hl" stroke="currentColor" d="m-6 0h12"/>
</defs>
<use x="96.33" y="98.84" xlink:href="#hl"/>
<use x="96.33" y="95.84" xlink:href="#hd"/>
<path d="M92.83 95.84v34.00" stroke="currentColor" fill="none"/>
<use x="112.73" y="110.84" xlink:href="#hd"/>
<circle fill="currentColor" cx="120.73" cy="107.84" r="1.2"/>
<path d="M109.23 110.84v19.00" stroke="currentColor" fill="none"/>
<use x="132.33" y="104.84" xlink:href="#hd"/>
<path d="M128.83 104.84v25.00" stroke="currentColor" fill="none"/>
<use x="144.33" y="98.84" xlink:href="#hl"/>
<use x="144.33" y="95.84" xlink:href="#hd"/>
<circle fill="currentColor" cx="152.33" cy="95.84" r="1.2"/>
<path d="M140.83 95.84v34.00" stroke="currentColor" fill="none"/>
<use x="164.13" y="98.84" xlink:href="#hl"/>
<use x="164.13" y="92.84" xlink:href="#hl"/>
<use x="164.13" y="89.84" xlink:href="#hd"/>
<path d="M160.63 89.84v40.00" stroke="currentColor" fill="none"/>
<path fill="currentColor"
	d="M183.63 123.04l49.10 0.00v-3.20l-49.10 -0.00"/>
<path fill="currentColor"
	d="M197.73 118.04l6.00 0.00v-3.20l-6.00 -0.00"/>
<use x="187.53" y="98.84" xlink:href="#hl"/>
<use x="187.53" y="92.84" xlink:href="#hl"/>
<use x="187.53" y="92.84" xlink:href="#hd"/>
<circle fill="currentColor" cx="195.53" cy="89.84" r="1.2"/>
<path d="M184.03 92.84v29.20" stroke="currentColor" fill="none"/>
<use x="207.23" y="98.84" xlink:href="#hl"/>
<use x="207.23" y="95.84" xlink:href="#hd"/>
<path d="M203.73 95.84v26.20" stroke="currentColor" fill="none"/>
<use x="219.43" y="98.84" xlink:href="#hl"/>
<use x="219.43" y="98.84" xlink:href="#hd"/>
<path d="M215.93 98.84v23.20" stroke="currentColor" fill="none"/>
<use x="235.93" y="101.84" xlink:href="#hd"/>
<path d="M232.43 101.84v20.20" stroke="currentColor" fill="none"/>
<use x="254.13" y="101.84" xlink:href="#hd"/>
<path d="M250.63 101.84v20.00" stroke="currentColor" fill="none"/>
<path fill="currentColor"
	d="M283.23 136.74l81.70 0.00v-3.20l-81.70 -0.00"/>
<path fill="currentColor"
	d="M297.13 131.74l6.00 0.00v-3.20l-6.00 -0.00"/>
<use x="287.03" y="104.84" xlink:href="#hd"/>
<circle fill="currentColor" cx="295.03" cy="101.84" r="1.2"/>
<path d="M283.53 104.84v31.00" stroke="currentColor" fill="none"/>
<use x="306.63" y="116.84" xlink:href="#hd"/>
<path d="M303.13 116.84v19.00" stroke="currentColor" fill="none"/>
<use x="318.63" y="110.84" xlink:href="#hd"/>
<path d="M315.13 110.84v25.00" stroke="currentColor" fill="none"/>
<use x="335.03" y="104.84" xlink:href="#hd"/>
<path d="M331.53 104.84v31.00" stroke="currentColor" fill="none"/>
<use x="351.53" y="116.84" xlink:href="#hd"/>
<path d="M348.03 116.84v19.00" stroke="currentColor" fill="none"/>
<use x="368.03" y="110.84" xlink:href="#hd"/>
<path d="M364.53 110.84v25.00" stroke="currentColor" fill="none"/>
<path fill="currentColor"
	d="M391.53 139.14l17.10 -5.50v-3.20l-17.10 5.50"/>
<use x="395.33" y="119.84" xlink:href="#hd"/>
<path d="M391.83 119.84v18.20" stroke="currentColor" fill="none"/>
<use x="411.83" y="104.84" xlink:href="#hd"/>
<path d="M408.33 104.84v27.90" stroke="currentColor" fill="none"/>
<use x="429.93" y="107.84" xlink:href="#hd"/>
<path d="M426.43 107.84v20.00" stroke="currentColor" fill="none"/>
<use x="455.13" y="107.84" xlink:href="#hd"/>
<path d="M451.63 107.84v20.00" stroke="currentColor" fill="none"/>
<path fill="currentColor"
	d="M484.23 145.04l83.00 0.00v-3.20l-83.00 -0.00"/>
<use x="488.13" y="125.84" xlink:href="#hd"/>
<path d="M484.63 125.84v18.20" stroke="currentColor" fill="none"/>
<use x="504.53" y="107.84" xlink:href="#hd"/>
<path d="M501.03 107.84v36.20" stroke="currentColor" fill="none"/>
<use x="521.03" y="107.84" xlink:href="#hd"/>
<path d="M517.53 107.84v36.20" stroke="currentColor" fill="none"/>
<use x="537.53" y="125.84" xlink:href="#hd"/>
<path d="M534.03 125.84v18.20" stroke="currentColor" fill="none"/>
<use x="553.93" y="110.84" xlink:href="#hd"/>
<path d="M550.43 110.84v33.20" stroke="currentColor" fill="none"/>
<use x="570.43" y="113.84" xlink:href="#hd"/>
<path d="M566.93 113.84v30.20" stroke="currentColor" fill="none"/>
<path fill="currentColor"
	d="M593.93 145.04l83.00 0.00v-3.20l-83.00 -0.00"/>
<use x="597.73" y="113.84" xlink:href="#hd"/>
<path d="M594.23 113.84v30.20" stroke="currentColor" fill="none"/>
<use x="614.23" y="116.84" xlink:href="#hd"/>
<path d="M610.73 116.84v27.20" stroke="currentColor" fill="none"/>
<use x="630.73" y="125.84" xlink:href="#hd"/>
<path d="M627.23 125.84v18.20" stroke="currentColor" fill="none"/>
<use x="647.13" y="116.84" xlink:href="#hd"/>
<path d="M643.63 116.84v27.20" stroke="currentColor" fill="none"/>
<use x="663.63" y="110.84" xlink:href="#hd"/>
<path d="M660.13 110.84v33.20" stroke="currentColor" fill="none"/>
<use x="680.13" y="113.84" xlink:href="#hd"/>
<path d="M676.63 113.84v30.20" stroke="currentColor" fill="none"/>
<path stroke="currentColor" fill="none"
	d="M159.13 207.84v-24.00"/>
<path stroke="currentColor" fill="none"
	d="M267.03 207.84v-24.00"/>
<path stroke="currentColor" fill="none"
	d="M386.73 207.84v-24.00"/>
<path stroke="currentColor" fill="none"
	d="M488.43 207.84v-24.00"/>
<path stroke="currentColor" fill="none"
	d="M602.43 207.84v-24.00"/>
<path stroke="currentColor" fill="none" stroke-width="3"
	d="M693.43 207.84v-24.00"/>
<path stroke="currentColor" fill="none"
	d="M688.93 207.84v-24.00"/>
<defs>
<g id="rdots" fill="currentColor">
	<circle cx="0" cy="-9" r="1.2"/>
	<circle cx="0" cy="-15" r="1.2"/>
</g>
</defs>
<use x="684.93" y="207.84" xlink:href="#rdots"/>
<path stroke="currentColor" fill="none"
	d="M13.33 207.84h681.60m-681.60 -6h681.60m-681.60 -6h681.60m-681.60 -6h681.60m-681.60 -6h681.60"/>
<text x="58.23" y="163.44">F7</text>
<text x="165.73" y="163.44">B♭</text>
<text x="393.73" y="163.44">F7</text>
<text x="609.03" y="163.44">B♭</text>
<use x="25.33" y="207.84" xlink:href="#tclef"/>
<use x="40.33" y="195.84" xlink:href="#ft0"/>
<use x="45.83" y="186.84" xlink:href="#ft0"/>
<path fill="currentColor"
	d="M60.03 208.04l53.10 0.00v-3.20l-53.10 -0.00"/>
<path fill="currentColor"
	d="M75.53 203.04l6.00 0.00v-3.20l-6.00 -0.00"/>
<use x="63.83" y="183.84" xlink:href="#hd"/>
<circle fill="currentColor" cx="71.83" cy="180.84" r="1.2"/>
<path d="M60.33 183.84v23.20" stroke="currentColor" fill="none"/>
<use x="85.03" y="177.84" xlink:href="#hl"/>
<use x="85.03" y="177.84" xlink:href="#hd"/>
<path d="M81.53 177.84v29.20" stroke="currentColor" fill="none"/>
<use x="98.13" y="180.84" xlink:href="#hd"/>
<path d="M94.63 180.84v26.20" stroke="currentColor" fill="none"/>
<use x="116.33" y="186.84" xlink:href="#hd"/>
<path d="M112.83 186.84v20.20" stroke="currentColor" fill="none"/>
<use x="136.43" y="177.84" xlink:href="#hl"/>
<use x="136.43" y="171.84" xlink:href="#hl"/>
<use x="136.43" y="171.84" xlink:href="#hd"/>
<path d="M132.93 171.84v24.00" stroke="currentColor" fill="none"/>
<path fill="currentColor"
	d="M167.83 202.94l53.30 6.20v-3.20l-53.30 -6.20"/>
<path fill="currentColor"
	d="M183.43 199.74l6.00 0.70v-3.20l-6.00 -0.70"/>
<use x="171.63" y="177.84" xlink:href="#hl"/>
<use x="171.63" y="174.84" xlink:href="#hd"/>
<circle fill="currentColor" cx="179.63" cy="174.84" r="1.2"/>
<path d="M168.13 174.84v27.10" stroke="currentColor" fill="none"/>
<use x="192.93" y="177.84" xlink:href="#hl"/>
<use x="192.93" y="177.84" xlink:href="#hd"/>
<path d="M189.43 177.84v26.60" stroke="currentColor" fill="none"/>
<use x="206.03" y="180.84" xlink:href="#hd"/>
<path d="M202.53 180.84v25.10" stroke="currentColor" fill="none"/>
<use x="224.23" y="189.84" xlink:href="#hd"/>
<path d="M220.73 189.84v18.20" stroke="currentColor" fill="none"/>
<use x="244.33" y="183.84" xlink:href="#hd"/>
<path d="M240.83 183.84v20.00" stroke="currentColor" fill="none"/>
<path fill="currentColor"
	d="M275.73 215.04l91.60 0.00v-3.20l-91.60 -0.00"/>
<use x="279.53" y="180.84" xlink:href="#hd"/>
<path d="M276.03 180.84v33.20" stroke="currentColor" fill="none"/>
<use x="297.73" y="183.84" xlink:href="#hd"/>
<path d="M294.23 183.84v30.20" stroke="currentColor" fill="none"/>
<use x="315.93" y="189.84" xlink:href="#hd"/>
<path d="M312.43 189.84v24.20" stroke="currentColor" fill="none"/>
<use x="334.13" y="195.84" xlink:href="#hd"/>
<path d="M330.63 195.84v18.20" stroke="currentColor" fill="none"/>
<use x="352.33" y="189.84" xlink:href="#hd"/>
<path d="M348.83 189.84v24.20" stroke="currentColor" fill="none"/>
<use x="370.43" y="183.84" xlink:href="#hd"/>
<path d="M366.93 183.84v30.20" stroke="currentColor" fill="none"/>
<path fill="currentColor"
	d="M395.43 218.14l18.90 -3.70v-3.20l-18.90 3.70"/>
<use x="399.23" y="198.84" xlink:href="#hd"/>
<path d="M395.73 198.84v18.20" stroke="currentColor" fill="none"/>
<use x="417.43" y="192.84" xlink:href="#hd"/>
<path d="M413.93 192.84v20.60" stroke="currentColor" fill="none"/>
<use x="437.53" y="186.84" xlink:href="#hd"/>
<path d="M434.03 186.84v20.00" stroke="currentColor" fill="none"/>
<use x="465.73" y="180.84" xlink:href="#hd"/>
<path d="M462.23 180.84v20.00" stroke="currentColor" fill="none"/>
<path fill="currentColor"
	d="M497.13 218.04l90.40 -7.50v-3.20l-90.40 7.50"/>
<path fill="currentColor"
	d="M512.63 211.74l6.00 -0.50v-3.20l-6.00 0.50"/>
<path fill="currentColor"
	d="M546.93 208.94l6.00 -0.50v-3.20l-6.00 0.50"/>
<path fill="currentColor"
	d="M581.13 206.04l6.00 -0.50v-3.20l-6.00 0.50"/>
<use x="500.93" y="198.84" xlink:href="#hd"/>
<circle fill="currentColor" cx="508.93" cy="198.84" r="1.2"/>
<path d="M497.43 198.84v18.20" stroke="currentColor" fill="none"/>
<use x="522.13" y="180.84" xlink:href="#hd"/>
<path d="M518.63 180.84v34.40" stroke="currentColor" fill="none"/>
<use x="535.23" y="183.84" xlink:href="#hd"/>
<circle fill="currentColor" cx="543.23" cy="180.84" r="1.2"/>
<path d="M531.73 183.84v30.30" stroke="currentColor" fill="none"/>
<use x="556.43" y="183.84" xlink:href="#hd"/>
<path d="M552.93 183.84v28.60" stroke="currentColor" fill="none"/>
<use x="569.43" y="183.84" xlink:href="#hd"/>
<circle fill="currentColor" cx="577.43" cy="180.84" r="1.2"/>
<path d="M565.93 183.84v27.50" stroke="currentColor" fill="none"/>
<use x="590.63" y="177.84" xlink:href="#hl"/>
<use x="590.63" y="177.84" xlink:href="#hd"/>
<path d="M587.13 177.84v31.70" stroke="currentColor" fill="none"/>
<use x="614.93" y="177.84" xlink:href="#hl"/>
<use x="614.93" y="174.84" xlink:href="#hd"/>
<path d="M611.43 174.84v21.00" stroke="currentColor" fill="none"/>
<use x="643.23" y="177.84" xlink:href="#hl"/>
<use x="643.23" y="174.84" xlink:href="#hd"/>
<path d="M639.73 174.84v21.00" stroke="currentColor" fill="none"/>
<defs>
<path id="r4" fill="currentColor" d="m-1 -8.5
	l3.6 5.1 -2.1 5.2 2.2 4.3
	c-2.6 -2.3 -5.1 0 -2.4 2.6
	c-4.8 -3 -1.5 -6.9 1.4 -4.1
	l-3.1 -4.5 1.9 -5.1 -1.5 -3.5"/>
</defs>
<use x="671.33" y="195.84" xlink:href="#r4"/>
</g>
</svg>
