<?xml version="1.0" standalone="no"?>
<!DOCTYPE svg PUBLIC "-//W3C//DTD SVG 1.1//EN"
	"http://www.w3.org/Graphics/SVG/1.1/DTD/svg11.dtd">
<svg xmlns="http://www.w3.org/2000/svg" version="1.1"
	xmlns:xlink="http://www.w3.org/1999/xlink"
	xml:space='preserve' color="black"
	width="7.38in" height="3.59in" viewBox="0 0 531 259">
<title>data/results/biggest_11/abc/173.abc (173) tune 1</title>
<!-- Creator: abcm2ps-7.8.14 -->
<!-- CreationDate: Aug  9, 2015 23:50 -->
<!-- CommandLine: -g data/results/biggest_11/abc/173.abc -O /home/allanino/Dropbox/Trabalhos/folkme/svg/173.svg -->
<g transform="scale(0.750)" stroke-width="0.70" font-family="Times" font-size="20.00">
<text x="354.13" y="21.67" text-anchor="middle">Ländler C chords</text>
</g>
<g transform="scale(0.750)" stroke-width="0.70" font-family="Times" font-size="16.00">
<text x="354.13" y="41.30" text-anchor="middle">Hanny Christen. Bd.VIII Zug, Luzern, Uri I. S.341 (mz11341) orig. F-Dur</text>
<text x="354.13" y="60.13" text-anchor="middle">Tänze aus Willisau (Luzern)</text>
<path stroke="currentColor" fill="none"
	d="M168.83 141.67v-24.00"/>
<path stroke="currentColor" fill="none"
	d="M275.83 141.67v-24.00"/>
<path stroke="currentColor" fill="none"
	d="M382.83 141.67v-24.00"/>
<path stroke="currentColor" fill="none"
	d="M480.93 141.67v-24.00"/>
<path stroke="currentColor" fill="none"
	d="M587.93 141.67v-24.00"/>
<path stroke="currentColor" fill="none"
	d="M694.93 141.67v-24.00"/>
<path stroke="currentColor" fill="none"
	d="M13.33 141.67h681.60m-681.60 -6h681.60m-681.60 -6h681.60m-681.60 -6h681.60m-681.60 -6h681.60"/>
</g>
<g transform="scale(0.750)" stroke-width="0.70" font-family="Helvetica" font-size="12.00">
<text x="71.43" y="100.27">F</text>
<text x="175.13" y="100.27">C7</text>
<text x="392.43" y="100.27">F</text>
<text x="594.23" y="100.27">C7</text>
<defs>
<path id="utclef" fill="currentColor" d="m-50 -90
	c-72 -41 -72 -158 52 -188
	c150 -10 220 188 90 256
	c-114 52 -275 0 -293 -136
	c-15 -181 93 -229 220 -334
	c88 -87 79 -133 62 -210
	c-51 33 -94 105 -89 186
	c17 267 36 374 49 574
	c6 96 -19 134 -77 135
	c-80 1 -126 -93 -61 -133
	c85 -41 133 101 31 105
	c23 17 92 37 90 -92
	c-10 -223 -39 -342 -50 -617
	c0 -90 0 -162 96 -232
	c56 72 63 230 22 289
	c-74 106 -257 168 -255 316
	c9 153 148 185 252 133
	c86 -65 29 -192 -80 -176
	c-71 12 -105 67 -59 124"/>
<use id="tclef" transform="scale(0.045)"
	xlink:href="#utclef"/>
</defs>
<use x="25.33" y="141.67" xlink:href="#tclef"/>
<defs>
<path id="uflat" fill="currentColor" d="
	m100 -746
	h32
	v734
	l-32 4
	m32 -332
	c46 -72 152 -90 208 -20
	c100 110 -120 326 -208 348
	m0 -28
	c54 0 200 -206 130 -290
	c-50 -60 -130 -4 -130 34"/>
<use id="ft0" transform="translate(-3.5,3.5) scale(0.018)"
	xlink:href="#uflat"/>
</defs>
<use x="40.33" y="129.67" xlink:href="#ft0"/>
<g font-family="serif" font-size="16" font-weight="bold" font-style="normal"
	transform="translate(56.33,141.67) scale(1.2,1)">
	<text y="-1" text-anchor="middle">4</text>
	<text y="-13" text-anchor="middle">3</text>
</g>
<path fill="currentColor"
	d="M70.53 144.67l80.80 0.00v-3.20l-80.80 -0.00"/>
<defs>
<path id="hl" stroke="currentColor" d="m-6 0h12"/>
</defs>
<use x="74.33" y="111.67" xlink:href="#hl"/>
<defs>
<ellipse id="hd" rx="4.1" ry="2.9"
	transform="rotate(-20)" fill="currentColor"/>
</defs>
<use x="74.33" y="111.67" xlink:href="#hd"/>
<path d="M70.83 111.67v32.00" stroke="currentColor" fill="none"/>
<use x="90.33" y="126.67" xlink:href="#hd"/>
<path d="M86.83 126.67v17.00" stroke="currentColor" fill="none"/>
<use x="106.33" y="111.67" xlink:href="#hl"/>
<use x="106.33" y="111.67" xlink:href="#hd"/>
<path d="M102.83 111.67v32.00" stroke="currentColor" fill="none"/>
<use x="122.33" y="126.67" xlink:href="#hd"/>
<path d="M118.83 126.67v17.00" stroke="currentColor" fill="none"/>
<use x="138.43" y="117.67" xlink:href="#hd"/>
<path d="M134.93 117.67v26.00" stroke="currentColor" fill="none"/>
<use x="154.43" y="111.67" xlink:href="#hl"/>
<use x="154.43" y="111.67" xlink:href="#hd"/>
<path d="M150.93 111.67v32.00" stroke="currentColor" fill="none"/>
<path fill="currentColor"
	d="M177.53 144.67l80.80 0.00v-3.20l-80.80 -0.00"/>
<use x="181.33" y="111.67" xlink:href="#hl"/>
<use x="181.33" y="111.67" xlink:href="#hd"/>
<path d="M177.83 111.67v32.00" stroke="currentColor" fill="none"/>
<use x="197.33" y="126.67" xlink:href="#hd"/>
<path d="M193.83 126.67v17.00" stroke="currentColor" fill="none"/>
<use x="213.33" y="120.67" xlink:href="#hd"/>
<path d="M209.83 120.67v23.00" stroke="currentColor" fill="none"/>
<use x="229.33" y="126.67" xlink:href="#hd"/>
<path d="M225.83 126.67v17.00" stroke="currentColor" fill="none"/>
<use x="245.43" y="120.67" xlink:href="#hd"/>
<path d="M241.93 120.67v23.00" stroke="currentColor" fill="none"/>
<use x="261.43" y="126.67" xlink:href="#hd"/>
<path d="M257.93 126.67v17.00" stroke="currentColor" fill="none"/>
<path fill="currentColor"
	d="M284.53 144.67l80.80 0.00v-3.20l-80.80 -0.00"/>
<use x="288.33" y="126.67" xlink:href="#hd"/>
<path d="M284.83 126.67v17.00" stroke="currentColor" fill="none"/>
<use x="304.33" y="111.67" xlink:href="#hl"/>
<use x="304.33" y="108.67" xlink:href="#hd"/>
<path d="M300.83 108.67v35.00" stroke="currentColor" fill="none"/>
<use x="320.33" y="120.67" xlink:href="#hd"/>
<path d="M316.83 120.67v23.00" stroke="currentColor" fill="none"/>
<use x="336.33" y="114.67" xlink:href="#hd"/>
<path d="M332.83 114.67v29.00" stroke="currentColor" fill="none"/>
<use x="352.43" y="126.67" xlink:href="#hd"/>
<path d="M348.93 126.67v17.00" stroke="currentColor" fill="none"/>
<use x="368.43" y="120.67" xlink:href="#hd"/>
<path d="M364.93 120.67v23.00" stroke="currentColor" fill="none"/>
<path fill="currentColor"
	d="M391.53 144.67l48.70 0.00v-3.20l-48.70 -0.00"/>
<use x="395.33" y="117.67" xlink:href="#hd"/>
<path d="M391.83 117.67v26.00" stroke="currentColor" fill="none"/>
<use x="411.33" y="111.67" xlink:href="#hl"/>
<use x="411.33" y="111.67" xlink:href="#hd"/>
<path d="M407.83 111.67v32.00" stroke="currentColor" fill="none"/>
<use x="427.33" y="126.67" xlink:href="#hd"/>
<path d="M423.83 126.67v17.00" stroke="currentColor" fill="none"/>
<use x="443.33" y="117.67" xlink:href="#hd"/>
<path d="M439.83 117.67v26.00" stroke="currentColor" fill="none"/>
<use x="461.03" y="111.67" xlink:href="#hl"/>
<use x="461.03" y="111.67" xlink:href="#hd"/>
<path d="M457.53 111.67v20.00" stroke="currentColor" fill="none"/>
<path fill="currentColor"
	d="M489.63 148.97l80.80 8.90v-3.20l-80.80 -8.90"/>
<use x="493.43" y="126.67" xlink:href="#hd"/>
<path d="M489.93 126.67v21.40" stroke="currentColor" fill="none"/>
<use x="509.43" y="111.67" xlink:href="#hl"/>
<use x="509.43" y="111.67" xlink:href="#hd"/>
<path d="M505.93 111.67v38.10" stroke="currentColor" fill="none"/>
<use x="525.43" y="117.67" xlink:href="#hd"/>
<path d="M521.93 117.67v33.90" stroke="currentColor" fill="none"/>
<use x="541.43" y="126.67" xlink:href="#hd"/>
<path d="M537.93 126.67v26.70" stroke="currentColor" fill="none"/>
<use x="557.53" y="132.67" xlink:href="#hd"/>
<path d="M554.03 132.67v22.40" stroke="currentColor" fill="none"/>
<use x="573.53" y="138.67" xlink:href="#hd"/>
<path d="M570.03 138.67v18.20" stroke="currentColor" fill="none"/>
<path fill="currentColor"
	d="M596.63 160.97l80.80 -13.40v-3.20l-80.80 13.40"/>
<use x="600.43" y="141.67" xlink:href="#hd"/>
<path d="M596.93 141.67v18.20" stroke="currentColor" fill="none"/>
<use x="616.43" y="135.67" xlink:href="#hd"/>
<path d="M612.93 135.67v21.50" stroke="currentColor" fill="none"/>
<use x="632.43" y="129.67" xlink:href="#hd"/>
<path d="M628.93 129.67v24.90" stroke="currentColor" fill="none"/>
<use x="648.43" y="120.67" xlink:href="#hd"/>
<path d="M644.93 120.67v31.20" stroke="currentColor" fill="none"/>
<use x="664.53" y="114.67" xlink:href="#hd"/>
<path d="M661.03 114.67v34.60" stroke="currentColor" fill="none"/>
<use x="680.53" y="111.67" xlink:href="#hl"/>
<use x="680.53" y="108.67" xlink:href="#hd"/>
<path d="M677.03 108.67v37.90" stroke="currentColor" fill="none"/>
<path stroke="currentColor" fill="none"
	d="M163.23 231.67v-24.00"/>
<path stroke="currentColor" fill="none" stroke-width="3"
	d="M258.73 231.67v-24.00"/>
<path stroke="currentColor" fill="none"
	d="M254.23 231.67v-24.00"/>
<defs>
<g id="rdots" fill="currentColor">
	<circle cx="0" cy="-9" r="1.2"/>
	<circle cx="0" cy="-15" r="1.2"/>
</g>
</defs>
<use x="250.23" y="231.67" xlink:href="#rdots"/>
<use x="368.73" y="231.67" xlink:href="#rdots"/>
<path stroke="currentColor" fill="none"
	d="M364.73 231.67v-24.00"/>
<path stroke="currentColor" fill="none" stroke-width="3"
	d="M360.23 231.67v-24.00"/>
<path stroke="currentColor" fill="none"
	d="M479.13 231.67v-24.00"/>
<path stroke="currentColor" fill="none"
	d="M585.73 231.67v-24.00"/>
<path stroke="currentColor" fill="none"
	d="M694.93 231.67v-24.00"/>
<path stroke="currentColor" fill="none"
	d="M13.33 231.67h681.60m-681.60 -6h681.60m-681.60 -6h681.60m-681.60 -6h681.60m-681.60 -6h681.60"/>
<text x="179.23" y="178.27">F</text>
<text x="276.33" y="178.27">F</text>
<text x="379.23" y="178.27">F</text>
<text x="485.53" y="178.27">C7</text>
</g>
<g transform="scale(0.750)" stroke-width="0.70" font-family="Times" font-size="13.00">
<text x="167.23" y="178.07">1</text>
<path stroke="currentColor" fill="none"
	d="M163.23 166.67v20M163.23 166.67h89.10v20"/>
<text x="264.23" y="178.07">2</text>
<path stroke="currentColor" fill="none"
	d="M260.23 166.67v20M260.23 166.67h97.40v20"/>
<use x="25.33" y="231.67" xlink:href="#tclef"/>
<use x="40.33" y="219.67" xlink:href="#ft0"/>
<path fill="currentColor"
	d="M54.53 229.17l89.60 6.70v-3.20l-89.60 -6.70"/>
<use x="58.33" y="201.67" xlink:href="#hl"/>
<use x="58.33" y="195.67" xlink:href="#hl"/>
<use x="58.33" y="195.67" xlink:href="#hd"/>
<path d="M54.83 195.67v32.60" stroke="currentColor" fill="none"/>
<use x="76.13" y="210.67" xlink:href="#hd"/>
<path d="M72.63 210.67v18.90" stroke="currentColor" fill="none"/>
<use x="93.93" y="207.67" xlink:href="#hd"/>
<path d="M90.43 207.67v23.20" stroke="currentColor" fill="none"/>
<use x="111.63" y="213.67" xlink:href="#hd"/>
<path d="M108.13 213.67v18.50" stroke="currentColor" fill="none"/>
<use x="129.43" y="210.67" xlink:href="#hd"/>
<path d="M125.93 210.67v22.90" stroke="currentColor" fill="none"/>
<use x="147.23" y="216.67" xlink:href="#hd"/>
<path d="M143.73 216.67v18.20" stroke="currentColor" fill="none"/>
<use x="182.23" y="207.67" xlink:href="#hd"/>
<path d="M178.73 207.67v20.00" stroke="currentColor" fill="none"/>
<defs>
<path id="r4" fill="currentColor" d="m-1 -8.5
	l3.6 5.1 -2.1 5.2 2.2 4.3
	c-2.6 -2.3 -5.1 0 -2.4 2.6
	c-4.8 -3 -1.5 -6.9 1.4 -4.1
	l-3.1 -4.5 1.9 -5.1 -1.5 -3.5"/>
</defs>
<use x="209.63" y="219.67" xlink:href="#r4"/>
<use x="237.03" y="216.67" xlink:href="#hd"/>
<path d="M233.53 216.67v20.00" stroke="currentColor" fill="none"/>
<use x="279.23" y="207.67" xlink:href="#hd"/>
<path d="M275.73 207.67v20.00" stroke="currentColor" fill="none"/>
<use x="306.63" y="219.67" xlink:href="#r4"/>
<path fill="currentColor"
	d="M334.63 207.47l18.50 0.00v3.20l-18.50 -0.00"/>
<use x="331.43" y="228.67" xlink:href="#hd"/>
<path d="M334.93 228.67v-20.20" stroke="currentColor" fill="none"/>
<use x="349.23" y="228.67" xlink:href="#hd"/>
<path d="M352.73 228.67v-20.20" stroke="currentColor" fill="none"/>
<use x="382.23" y="228.67" xlink:href="#hd"/>
<path d="M385.73 228.67v-20.00" stroke="currentColor" fill="none"/>
<path fill="currentColor"
	d="M406.03 241.87l54.00 -6.30v-3.20l-54.00 6.30"/>
<use x="409.83" y="222.67" xlink:href="#hd"/>
<path d="M406.33 222.67v18.20" stroke="currentColor" fill="none"/>
<use x="427.63" y="216.67" xlink:href="#hd"/>
<path d="M424.13 216.67v22.10" stroke="currentColor" fill="none"/>
<use x="445.43" y="207.67" xlink:href="#hd"/>
<path d="M441.93 207.67v29.10" stroke="currentColor" fill="none"/>
<use x="463.23" y="210.67" xlink:href="#hd"/>
<path d="M459.73 210.67v24.00" stroke="currentColor" fill="none"/>
<use x="491.63" y="204.67" xlink:href="#hd"/>
<path d="M488.13 204.67v20.00" stroke="currentColor" fill="none"/>
<path fill="currentColor"
	d="M519.63 187.47l54.00 6.90v3.20l-54.00 -6.90"/>
<use x="516.43" y="204.67" xlink:href="#hd"/>
<path d="M519.93 204.67v-16.20" stroke="currentColor" fill="none"/>
<use x="534.23" y="237.67" xlink:href="#hl"/>
<use x="534.23" y="237.67" xlink:href="#hd"/>
<path d="M537.73 237.67v-46.90" stroke="currentColor" fill="none"/>
<use x="552.03" y="231.67" xlink:href="#hd"/>
<path d="M555.53 231.67v-38.60" stroke="currentColor" fill="none"/>
<use x="569.73" y="225.67" xlink:href="#hd"/>
<path d="M573.23 225.67v-30.40" stroke="currentColor" fill="none"/>
<use x="598.23" y="216.67" xlink:href="#hd"/>
<path d="M594.73 216.67v20.00" stroke="currentColor" fill="none"/>
<path fill="currentColor"
	d="M621.83 238.87l54.00 0.00v-3.20l-54.00 -0.00"/>
<use x="625.63" y="210.67" xlink:href="#hd"/>
<path d="M622.13 210.67v27.20" stroke="currentColor" fill="none"/>
<use x="643.43" y="216.67" xlink:href="#hd"/>
<path d="M639.93 216.67v21.20" stroke="currentColor" fill="none"/>
<use x="661.23" y="219.67" xlink:href="#hd"/>
<path d="M657.73 219.67v18.20" stroke="currentColor" fill="none"/>
<use x="678.93" y="216.67" xlink:href="#hd"/>
<path d="M675.43 216.67v21.20" stroke="currentColor" fill="none"/>
<path stroke="currentColor" fill="none"
	d="M154.03 321.67v-24.00"/>
<path stroke="currentColor" fill="none"
	d="M270.33 321.67v-24.00"/>
<path stroke="currentColor" fill="none"
	d="M386.63 321.67v-24.00"/>
<path stroke="currentColor" fill="none"
	d="M502.83 321.67v-24.00"/>
<path stroke="currentColor" fill="none" stroke-width="3"
	d="M597.63 321.67v-24.00"/>
<path stroke="currentColor" fill="none"
	d="M593.13 321.67v-24.00"/>
<use x="589.13" y="321.67" xlink:href="#rdots"/>
<path stroke="currentColor" fill="none" stroke-width="3"
	d="M693.43 321.67v-24.00"/>
<path stroke="currentColor" fill="none"
	d="M688.93 321.67v-24.00"/>
<path stroke="currentColor" fill="none"
	d="M13.33 321.67h681.60m-681.60 -6h681.60m-681.60 -6h681.60m-681.60 -6h681.60m-681.60 -6h681.60"/>
</g>
<g transform="scale(0.750)" stroke-width="0.70" font-family="Helvetica" font-size="12.00">
<text x="55.43" y="280.27">F</text>
<text x="276.63" y="280.27">C7</text>
<text x="518.93" y="280.27">F</text>
<text x="615.23" y="268.27">F</text>
<text x="615.23" y="280.27">F</text>
</g>
<g transform="scale(0.750)" stroke-width="0.70" font-family="Times" font-size="13.00">
<text x="506.83" y="268.07">1</text>
<path stroke="currentColor" fill="none"
	d="M502.83 256.67v20M502.83 256.67h88.30v20"/>
<text x="603.13" y="268.07">2</text>
<path stroke="currentColor" fill="none"
	d="M599.13 256.67v20M599.13 256.67h95.80v20"/>
<use x="25.33" y="321.67" xlink:href="#tclef"/>
<use x="40.33" y="309.67" xlink:href="#ft0"/>
<use x="58.33" y="291.67" xlink:href="#hl"/>
<use x="58.33" y="291.67" xlink:href="#hd"/>
<path d="M54.83 291.67v20.00" stroke="currentColor" fill="none"/>
<path fill="currentColor"
	d="M81.63 331.87l53.50 0.00v-3.20l-53.50 -0.00"/>
<use x="85.43" y="297.67" xlink:href="#hd"/>
<path d="M81.93 297.67v33.20" stroke="currentColor" fill="none"/>
<use x="103.03" y="312.67" xlink:href="#hd"/>
<path d="M99.53 312.67v18.20" stroke="currentColor" fill="none"/>
<use x="120.63" y="306.67" xlink:href="#hd"/>
<path d="M117.13 306.67v24.20" stroke="currentColor" fill="none"/>
<use x="138.23" y="297.67" xlink:href="#hd"/>
<path d="M134.73 297.67v33.20" stroke="currentColor" fill="none"/>
<path fill="currentColor"
	d="M162.73 331.87l88.70 0.00v-3.20l-88.70 -0.00"/>
<use x="166.53" y="312.67" xlink:href="#hd"/>
<path d="M163.03 312.67v18.20" stroke="currentColor" fill="none"/>
<use x="184.13" y="306.67" xlink:href="#hd"/>
<path d="M180.63 306.67v24.20" stroke="currentColor" fill="none"/>
<use x="201.73" y="297.67" xlink:href="#hd"/>
<path d="M198.23 297.67v33.20" stroke="currentColor" fill="none"/>
<use x="219.33" y="312.67" xlink:href="#hd"/>
<path d="M215.83 312.67v18.20" stroke="currentColor" fill="none"/>
<use x="236.93" y="306.67" xlink:href="#hd"/>
<path d="M233.43 306.67v24.20" stroke="currentColor" fill="none"/>
<use x="254.53" y="297.67" xlink:href="#hd"/>
<path d="M251.03 297.67v33.20" stroke="currentColor" fill="none"/>
<path fill="currentColor"
	d="M278.93 336.57l88.70 -8.60v-3.20l-88.70 8.60"/>
<use x="282.83" y="300.67" xlink:href="#hd"/>
<path d="M279.33 300.67v34.90" stroke="currentColor" fill="none"/>
<use x="300.43" y="315.67" xlink:href="#hd"/>
<path d="M296.93 315.67v18.20" stroke="currentColor" fill="none"/>
<use x="318.03" y="306.67" xlink:href="#hd"/>
<path d="M314.53 306.67v25.50" stroke="currentColor" fill="none"/>
<use x="335.63" y="300.67" xlink:href="#hd"/>
<path d="M332.13 300.67v29.80" stroke="currentColor" fill="none"/>
<use x="353.23" y="294.67" xlink:href="#hd"/>
<path d="M349.73 294.67v34.10" stroke="currentColor" fill="none"/>
<use x="370.83" y="291.67" xlink:href="#hl"/>
<use x="370.83" y="288.67" xlink:href="#hd"/>
<path d="M367.33 288.67v38.40" stroke="currentColor" fill="none"/>
<path fill="currentColor"
	d="M395.23 328.87l88.70 0.00v-3.20l-88.70 -0.00"/>
<use x="399.13" y="291.67" xlink:href="#hl"/>
<use x="399.13" y="285.67" xlink:href="#hl"/>
<use x="399.13" y="282.67" xlink:href="#hd"/>
<path d="M395.63 282.67v45.20" stroke="currentColor" fill="none"/>
<use x="416.73" y="300.67" xlink:href="#hd"/>
<path d="M413.23 300.67v27.20" stroke="currentColor" fill="none"/>
<use x="434.23" y="294.67" xlink:href="#hd"/>
<path d="M430.73 294.67v33.20" stroke="currentColor" fill="none"/>
<use x="451.83" y="309.67" xlink:href="#hd"/>
<path d="M448.33 309.67v18.20" stroke="currentColor" fill="none"/>
<use x="469.43" y="300.67" xlink:href="#hd"/>
<path d="M465.93 300.67v27.20" stroke="currentColor" fill="none"/>
<use x="487.03" y="294.67" xlink:href="#hd"/>
<path d="M483.53 294.67v33.20" stroke="currentColor" fill="none"/>
<use x="521.83" y="297.67" xlink:href="#hd"/>
<path d="M518.33 297.67v20.00" stroke="currentColor" fill="none"/>
<use x="549.03" y="309.67" xlink:href="#r4"/>
<use x="576.13" y="297.67" xlink:href="#hd"/>
<path d="M572.63 297.67v20.00" stroke="currentColor" fill="none"/>
<use x="618.13" y="297.67" xlink:href="#hd"/>
<path d="M614.63 297.67v20.00" stroke="currentColor" fill="none"/>
<use x="645.23" y="309.67" xlink:href="#r4"/>
<use x="672.43" y="309.67" xlink:href="#r4"/>
<text font-family="serif" font-size="16" font-weight="bold" font-style="italic"
	x="395.13" y="274.67">tr</text>
</g>
</svg>
