<?xml version="1.0" standalone="no"?>
<!DOCTYPE svg PUBLIC "-//W3C//DTD SVG 1.1//EN"
	"http://www.w3.org/Graphics/SVG/1.1/DTD/svg11.dtd">
<svg xmlns="http://www.w3.org/2000/svg" version="1.1"
	xmlns:xlink="http://www.w3.org/1999/xlink"
	xml:space='preserve' color="black"
	width="7.38in" height="2.60in" viewBox="0 0 531 187">
<title>data/results/biggest_11/abc/189.abc (189) tune 1</title>
<!-- Creator: abcm2ps-7.8.14 -->
<!-- CreationDate: Aug  9, 2015 23:50 -->
<!-- CommandLine: -g data/results/biggest_11/abc/189.abc -O /home/allanino/Dropbox/Trabalhos/folkme/svg/189.svg -->
<g transform="scale(0.750)" stroke-width="0.70" font-family="Times" font-size="20.00">
<text x="354.13" y="21.67" text-anchor="middle">Vögeli-Schottisch CF chords</text>
</g>
<g transform="scale(0.750)" stroke-width="0.70" font-family="Times" font-size="16.00">
<text x="354.13" y="41.30" text-anchor="middle">Hanny Christen. Bd.VII. Bern II, Solothurn. S.281 (st05224) orig. F,Bb-Dur</text>
<text x="354.13" y="60.13" text-anchor="middle">Tänze aus Willisau (Luzern)</text>
<defs>
<g id="rdots" fill="currentColor">
	<circle cx="0" cy="-9" r="1.2"/>
	<circle cx="0" cy="-15" r="1.2"/>
</g>
</defs>
<use x="94.53" y="144.67" xlink:href="#rdots"/>
<path stroke="currentColor" fill="none"
	d="M90.53 144.67v-24.00"/>
<path stroke="currentColor" fill="none" stroke-width="3"
	d="M86.03 144.67v-24.00"/>
<path stroke="currentColor" fill="none"
	d="M176.73 144.67v-24.00"/>
<path stroke="currentColor" fill="none"
	d="M267.13 144.67v-24.00"/>
<path stroke="currentColor" fill="none"
	d="M357.53 144.67v-24.00"/>
<path stroke="currentColor" fill="none" stroke-width="3"
	d="M427.63 144.67v-24.00"/>
<path stroke="currentColor" fill="none"
	d="M423.13 144.67v-24.00"/>
<use x="419.13" y="144.67" xlink:href="#rdots"/>
<path stroke="currentColor" fill="none"
	d="M512.83 144.67v-24.00"/>
<path stroke="currentColor" fill="none"
	d="M604.13 144.67v-24.00"/>
<path stroke="currentColor" fill="none"
	d="M694.93 144.67v-24.00"/>
<path stroke="currentColor" fill="none"
	d="M13.33 144.67h681.60m-681.60 -6h681.60m-681.60 -6h681.60m-681.60 -6h681.60m-681.60 -6h681.60"/>
</g>
<g transform="scale(0.750)" stroke-width="0.70" font-family="Helvetica" font-size="12.00">
<text x="104.43" y="100.27">C</text>
<text x="273.13" y="100.27">G7</text>
<text x="366.53" y="100.27">C</text>
<text x="435.13" y="100.27">G7</text>
<text x="521.83" y="100.27">C</text>
<text x="610.13" y="100.27">G7</text>
<defs>
<path id="utclef" fill="currentColor" d="m-50 -90
	c-72 -41 -72 -158 52 -188
	c150 -10 220 188 90 256
	c-114 52 -275 0 -293 -136
	c-15 -181 93 -229 220 -334
	c88 -87 79 -133 62 -210
	c-51 33 -94 105 -89 186
	c17 267 36 374 49 574
	c6 96 -19 134 -77 135
	c-80 1 -126 -93 -61 -133
	c85 -41 133 101 31 105
	c23 17 92 37 90 -92
	c-10 -223 -39 -342 -50 -617
	c0 -90 0 -162 96 -232
	c56 72 63 230 22 289
	c-74 106 -257 168 -255 316
	c9 153 148 185 252 133
	c86 -65 29 -192 -80 -176
	c-71 12 -105 67 -59 124"/>
<use id="tclef" transform="scale(0.045)"
	xlink:href="#utclef"/>
</defs>
<use x="25.33" y="144.67" xlink:href="#tclef"/>
<g font-family="serif" font-size="16" font-weight="bold" font-style="normal"
	transform="translate(43.83,144.67) scale(1.2,1)">
	<text y="-1" text-anchor="middle">4</text>
	<text y="-13" text-anchor="middle">3</text>
</g>
<path fill="currentColor"
	d="M58.03 138.87l13.80 0.00v-3.20l-13.80 -0.00"/>
<defs>
<ellipse id="hd" rx="4.1" ry="2.9"
	transform="rotate(-20)" fill="currentColor"/>
</defs>
<use x="61.83" y="117.67" xlink:href="#hd"/>
<path d="M58.33 117.67v20.20" stroke="currentColor" fill="none"/>
<use x="75.03" y="117.67" xlink:href="#hd"/>
<path d="M71.53 117.67v20.20" stroke="currentColor" fill="none"/>
<path fill="currentColor"
	d="M104.13 142.57l40.20 6.40v-3.20l-40.20 -6.40"/>
<defs>
<path id="hl" stroke="currentColor" d="m-6 0h12"/>
</defs>
<use x="108.03" y="114.67" xlink:href="#hl"/>
<use x="108.03" y="114.67" xlink:href="#hd"/>
<path d="M104.53 114.67v26.90" stroke="currentColor" fill="none"/>
<use x="121.13" y="117.67" xlink:href="#hd"/>
<path d="M117.63 117.67v26.00" stroke="currentColor" fill="none"/>
<use x="134.33" y="123.67" xlink:href="#hd"/>
<path d="M130.83 123.67v22.10" stroke="currentColor" fill="none"/>
<use x="147.53" y="129.67" xlink:href="#hd"/>
<path d="M144.03 129.67v18.20" stroke="currentColor" fill="none"/>
<use x="160.63" y="138.67" xlink:href="#hd"/>
<path d="M164.13 138.67v-20.00" stroke="currentColor" fill="none"/>
<path fill="currentColor"
	d="M192.33 110.47l66.50 0.00v3.20l-66.50 -0.00"/>
<use x="189.23" y="135.67" xlink:href="#hd"/>
<path d="M192.73 135.67v-24.20" stroke="currentColor" fill="none"/>
<use x="202.33" y="138.67" xlink:href="#hd"/>
<path d="M205.83 138.67v-27.20" stroke="currentColor" fill="none"/>
<use x="215.53" y="144.67" xlink:href="#hd"/>
<path d="M219.03 144.67v-33.20" stroke="currentColor" fill="none"/>
<use x="228.63" y="138.67" xlink:href="#hd"/>
<path d="M232.13 138.67v-27.20" stroke="currentColor" fill="none"/>
<use x="241.83" y="129.67" xlink:href="#hd"/>
<path d="M245.33 129.67v-18.20" stroke="currentColor" fill="none"/>
<use x="255.03" y="144.67" xlink:href="#hd"/>
<path d="M258.53 144.67v-33.20" stroke="currentColor" fill="none"/>
<path fill="currentColor"
	d="M282.73 113.47l66.50 0.00v3.20l-66.50 -0.00"/>
<use x="279.63" y="138.67" xlink:href="#hd"/>
<path d="M283.13 138.67v-24.20" stroke="currentColor" fill="none"/>
<use x="292.73" y="132.67" xlink:href="#hd"/>
<path d="M296.23 132.67v-18.20" stroke="currentColor" fill="none"/>
<use x="305.93" y="132.67" xlink:href="#hd"/>
<path d="M309.43 132.67v-18.20" stroke="currentColor" fill="none"/>
<use x="319.13" y="147.67" xlink:href="#hd"/>
<path d="M322.63 147.67v-33.20" stroke="currentColor" fill="none"/>
<use x="332.23" y="138.67" xlink:href="#hd"/>
<path d="M335.73 138.67v-24.20" stroke="currentColor" fill="none"/>
<use x="345.43" y="132.67" xlink:href="#hd"/>
<path d="M348.93 132.67v-18.20" stroke="currentColor" fill="none"/>
<use x="370.03" y="129.67" xlink:href="#hd"/>
<path d="M366.53 129.67v20.00" stroke="currentColor" fill="none"/>
<defs>
<path id="r4" fill="currentColor" d="m-1 -8.5
	l3.6 5.1 -2.1 5.2 2.2 4.3
	c-2.6 -2.3 -5.1 0 -2.4 2.6
	c-4.8 -3 -1.5 -6.9 1.4 -4.1
	l-3.1 -4.5 1.9 -5.1 -1.5 -3.5"/>
</defs>
<use x="389.33" y="132.67" xlink:href="#r4"/>
<use x="408.63" y="132.67" xlink:href="#r4"/>
<use x="441.63" y="117.67" xlink:href="#hd"/>
<path d="M438.13 117.67v20.00" stroke="currentColor" fill="none"/>
<path fill="currentColor"
	d="M457.03 134.07l40.60 5.90v-3.20l-40.60 -5.90"/>
<use x="460.83" y="114.67" xlink:href="#hl"/>
<use x="460.83" y="111.67" xlink:href="#hd"/>
<path d="M457.33 111.67v21.40" stroke="currentColor" fill="none"/>
<use x="474.43" y="114.67" xlink:href="#hl"/>
<use x="474.43" y="114.67" xlink:href="#hd"/>
<path d="M470.93 114.67v20.40" stroke="currentColor" fill="none"/>
<use x="487.63" y="117.67" xlink:href="#hd"/>
<path d="M484.13 117.67v19.30" stroke="currentColor" fill="none"/>
<use x="500.73" y="120.67" xlink:href="#hd"/>
<path d="M497.23 120.67v18.20" stroke="currentColor" fill="none"/>
<path fill="currentColor"
	d="M521.53 141.67l67.30 0.00v-3.20l-67.30 -0.00"/>
<use x="525.33" y="123.67" xlink:href="#hd"/>
<path d="M521.83 123.67v17.00" stroke="currentColor" fill="none"/>
<use x="538.53" y="117.67" xlink:href="#hd"/>
<path d="M535.03 117.67v23.00" stroke="currentColor" fill="none"/>
<use x="551.73" y="114.67" xlink:href="#hl"/>
<use x="551.73" y="108.67" xlink:href="#hl"/>
<use x="551.73" y="108.67" xlink:href="#hd"/>
<path d="M548.23 108.67v32.00" stroke="currentColor" fill="none"/>
<use x="565.23" y="114.67" xlink:href="#hl"/>
<use x="565.23" y="111.67" xlink:href="#hd"/>
<path d="M561.73 111.67v29.00" stroke="currentColor" fill="none"/>
<use x="578.83" y="114.67" xlink:href="#hl"/>
<use x="578.83" y="114.67" xlink:href="#hd"/>
<path d="M575.33 114.67v26.00" stroke="currentColor" fill="none"/>
<use x="592.03" y="117.67" xlink:href="#hd"/>
<path d="M588.53 117.67v23.00" stroke="currentColor" fill="none"/>
<path fill="currentColor"
	d="M612.73 135.87l66.90 10.10v-3.20l-66.90 -10.10"/>
<use x="616.63" y="114.67" xlink:href="#hl"/>
<use x="616.63" y="111.67" xlink:href="#hd"/>
<path d="M613.13 111.67v23.20" stroke="currentColor" fill="none"/>
<use x="630.13" y="114.67" xlink:href="#hl"/>
<use x="630.13" y="114.67" xlink:href="#hd"/>
<path d="M626.63 114.67v22.30" stroke="currentColor" fill="none"/>
<use x="643.33" y="117.67" xlink:href="#hd"/>
<path d="M639.83 117.67v21.20" stroke="currentColor" fill="none"/>
<use x="656.53" y="120.67" xlink:href="#hd"/>
<path d="M653.03 120.67v20.20" stroke="currentColor" fill="none"/>
<use x="669.63" y="123.67" xlink:href="#hd"/>
<path d="M666.13 123.67v19.20" stroke="currentColor" fill="none"/>
<use x="682.83" y="126.67" xlink:href="#hd"/>
<path d="M679.33 126.67v18.20" stroke="currentColor" fill="none"/>
<path stroke="currentColor" fill="none"
	d="M184.53 226.67v-24.00"/>
<path stroke="currentColor" fill="none"
	d="M332.13 226.67v-24.00"/>
<path stroke="currentColor" fill="none"
	d="M433.83 226.67v-24.00"/>
<path stroke="currentColor" fill="none"
	d="M581.53 226.67v-24.00"/>
<path stroke="currentColor" fill="none" stroke-width="3"
	d="M693.43 226.67v-24.00"/>
<path stroke="currentColor" fill="none"
	d="M688.93 226.67v-24.00"/>
<use x="684.93" y="226.67" xlink:href="#rdots"/>
<path stroke="currentColor" fill="none"
	d="M13.33 226.67h681.60m-681.60 -6h681.60m-681.60 -6h681.60m-681.60 -6h681.60m-681.60 -6h681.60"/>
<text x="46.33" y="179.27">C</text>
<text x="194.43" y="179.27">F</text>
<text x="341.33" y="179.27">C</text>
<text x="440.13" y="179.27">G7</text>
<text x="590.83" y="179.27">C</text>
<use x="25.33" y="226.67" xlink:href="#tclef"/>
<path fill="currentColor"
	d="M53.03 192.47l115.10 0.00v3.20l-115.10 -0.00"/>
<use x="49.83" y="211.67" xlink:href="#hd"/>
<path d="M53.33 211.67v-18.20" stroke="currentColor" fill="none"/>
<use x="72.73" y="226.67" xlink:href="#hd"/>
<path d="M76.23 226.67v-33.20" stroke="currentColor" fill="none"/>
<use x="95.63" y="217.67" xlink:href="#hd"/>
<path d="M99.13 217.67v-24.20" stroke="currentColor" fill="none"/>
<use x="118.43" y="220.67" xlink:href="#hd"/>
<path d="M121.93 220.67v-27.20" stroke="currentColor" fill="none"/>
<use x="141.33" y="226.67" xlink:href="#hd"/>
<path d="M144.83 226.67v-33.20" stroke="currentColor" fill="none"/>
<use x="164.23" y="220.67" xlink:href="#hd"/>
<path d="M167.73 220.67v-27.20" stroke="currentColor" fill="none"/>
<path fill="currentColor"
	d="M200.53 199.67l115.10 0.00v3.20l-115.10 -0.00"/>
<use x="197.33" y="217.67" xlink:href="#hd"/>
<path d="M200.83 217.67v-17.00" stroke="currentColor" fill="none"/>
<use x="220.23" y="220.67" xlink:href="#hd"/>
<path d="M223.73 220.67v-20.00" stroke="currentColor" fill="none"/>
<use x="243.13" y="223.67" xlink:href="#hd"/>
<path d="M246.63 223.67v-23.00" stroke="currentColor" fill="none"/>
<use x="266.03" y="220.67" xlink:href="#hd"/>
<path d="M269.53 220.67v-20.00" stroke="currentColor" fill="none"/>
<use x="288.93" y="217.67" xlink:href="#hd"/>
<path d="M292.43 217.67v-17.00" stroke="currentColor" fill="none"/>
<use x="311.73" y="223.67" xlink:href="#hd"/>
<path d="M315.23 223.67v-23.00" stroke="currentColor" fill="none"/>
<path fill="currentColor"
	d="M348.03 205.47l23.60 -4.10v3.20l-23.60 4.10"/>
<use x="344.93" y="226.67" xlink:href="#hd"/>
<path d="M348.43 226.67v-20.30" stroke="currentColor" fill="none"/>
<use x="367.73" y="220.67" xlink:href="#hd"/>
<path d="M371.23 220.67v-18.20" stroke="currentColor" fill="none"/>
<defs>
<path id="Hd" fill="currentColor" d="m3 -1.6
	c-1 -1.8 -7 1.4 -6 3.2
	c1 1.8 7 -1.4 6 -3.2
	m0.5 -0.3
	c2 3.8 -5 7.6 -7 3.8
	c-2 -3.8 5 -7.6 7 -3.8"/>
</defs>
<use x="393.23" y="211.67" xlink:href="#Hd"/>
<path d="M389.73 211.67v20.00" stroke="currentColor" fill="none"/>
<path fill="currentColor"
	d="M442.73 233.87l115.30 -6.10v-3.20l-115.30 6.10"/>
<use x="446.63" y="214.67" xlink:href="#hd"/>
<path d="M443.13 214.67v18.20" stroke="currentColor" fill="none"/>
<use x="469.53" y="196.67" xlink:href="#hl"/>
<use x="469.53" y="196.67" xlink:href="#hd"/>
<path d="M466.03 196.67v35.00" stroke="currentColor" fill="none"/>
<use x="492.33" y="199.67" xlink:href="#hd"/>
<path d="M488.83 199.67v30.80" stroke="currentColor" fill="none"/>
<use x="515.33" y="202.67" xlink:href="#hd"/>
<defs>
<path id="usharp" fill="currentColor" d="
	m136 -702
	v890
	h32
	v-890
	m128 840
	h32
	v-888
	h-32
	m-232 286
	v116
	l338 -96
	v-116
	m-338 442
	v116
	l338 -98
	v-114"/>
<use id="sh0" transform="translate(-4,5) scale(0.018)"
	xlink:href="#usharp"/>
</defs>
<use x="506.33" y="202.67" xlink:href="#sh0"/>
<path d="M511.83 202.67v26.60" stroke="currentColor" fill="none"/>
<use x="538.33" y="202.67" xlink:href="#hd"/>
<defs>
<path id="unat" fill="currentColor" d="
	m96 -750
	h-32
	v716
	l32 -8
	l182 -54
	v282
	h32
	v-706
	l-34 10
	l-180 50
	v-290
	m0 592
	v-190
	l182 -52
	v188"/>
<use id="nt0" transform="translate(-3,5) scale(0.018)"
	xlink:href="#unat"/>
</defs>
<use x="529.33" y="202.67" xlink:href="#nt0"/>
<path d="M534.83 202.67v25.40" stroke="currentColor" fill="none"/>
<use x="561.23" y="196.67" xlink:href="#hl"/>
<use x="561.23" y="193.67" xlink:href="#hd"/>
<path d="M557.73 193.67v33.20" stroke="currentColor" fill="none"/>
<use x="594.33" y="196.67" xlink:href="#hl"/>
<use x="594.33" y="190.67" xlink:href="#hl"/>
<use x="594.33" y="190.67" xlink:href="#hd"/>
<path d="M590.83 190.67v24.00" stroke="currentColor" fill="none"/>
<use x="630.23" y="214.67" xlink:href="#r4"/>
<use x="666.13" y="214.67" xlink:href="#r4"/>
</g>
</svg>
