<?xml version="1.0" standalone="no"?>
<!DOCTYPE svg PUBLIC "-//W3C//DTD SVG 1.1//EN"
	"http://www.w3.org/Graphics/SVG/1.1/DTD/svg11.dtd">
<svg xmlns="http://www.w3.org/2000/svg" version="1.1"
	xmlns:xlink="http://www.w3.org/1999/xlink"
	xml:space='preserve' color="black"
	width="7.38in" height="2.10in" viewBox="0 0 531 152">
<title>data/results/biggest_11/abc/190.abc (190) tune 1</title>
<!-- Creator: abcm2ps-7.8.14 -->
<!-- CreationDate: Aug  9, 2015 23:50 -->
<!-- CommandLine: -g data/results/biggest_11/abc/190.abc -O /home/allanino/Dropbox/Trabalhos/folkme/svg/190.svg -->
<g transform="scale(0.750)" stroke-width="0.70" font-family="Times" font-size="20.00">
<text x="354.13" y="21.67" text-anchor="middle">Mazurka F,C Anm</text>
<defs>
<g id="rdots" fill="currentColor">
	<circle cx="0" cy="-9" r="1.2"/>
	<circle cx="0" cy="-15" r="1.2"/>
</g>
</defs>
<use x="130.83" y="99.01" xlink:href="#rdots"/>
<path stroke="currentColor" fill="none"
	d="M126.83 99.01v-24.00"/>
<path stroke="currentColor" fill="none" stroke-width="3"
	d="M122.33 99.01v-24.00"/>
<path stroke="currentColor" fill="none"
	d="M244.93 99.01v-24.00"/>
<path stroke="currentColor" fill="none"
	d="M358.13 99.01v-24.00"/>
<path stroke="currentColor" fill="none"
	d="M471.23 99.01v-24.00"/>
<path stroke="currentColor" fill="none"
	d="M584.53 99.01v-24.00"/>
<path stroke="currentColor" fill="none"
	d="M694.93 99.01v-24.00"/>
<path stroke="currentColor" fill="none"
	d="M13.33 99.01h681.60m-681.60 -6h681.60m-681.60 -6h681.60m-681.60 -6h681.60m-681.60 -6h681.60"/>
</g>
<g transform="scale(0.750)" stroke-width="0.70" font-family="Helvetica" font-size="12.00">
<text x="141.33" y="62.61">F</text>
<text x="251.33" y="62.61">C7</text>
<text x="480.83" y="62.61">F</text>
<defs>
<path id="utclef" fill="currentColor" d="m-50 -90
	c-72 -41 -72 -158 52 -188
	c150 -10 220 188 90 256
	c-114 52 -275 0 -293 -136
	c-15 -181 93 -229 220 -334
	c88 -87 79 -133 62 -210
	c-51 33 -94 105 -89 186
	c17 267 36 374 49 574
	c6 96 -19 134 -77 135
	c-80 1 -126 -93 -61 -133
	c85 -41 133 101 31 105
	c23 17 92 37 90 -92
	c-10 -223 -39 -342 -50 -617
	c0 -90 0 -162 96 -232
	c56 72 63 230 22 289
	c-74 106 -257 168 -255 316
	c9 153 148 185 252 133
	c86 -65 29 -192 -80 -176
	c-71 12 -105 67 -59 124"/>
<use id="tclef" transform="scale(0.045)"
	xlink:href="#utclef"/>
</defs>
<use x="25.33" y="99.01" xlink:href="#tclef"/>
<defs>
<path id="uflat" fill="currentColor" d="
	m100 -746
	h32
	v734
	l-32 4
	m32 -332
	c46 -72 152 -90 208 -20
	c100 110 -120 326 -208 348
	m0 -28
	c54 0 200 -206 130 -290
	c-50 -60 -130 -4 -130 34"/>
<use id="ft0" transform="translate(-3.5,3.5) scale(0.018)"
	xlink:href="#uflat"/>
</defs>
<use x="40.33" y="87.01" xlink:href="#ft0"/>
<g font-family="serif" font-size="16" font-weight="bold" font-style="normal"
	transform="translate(56.33,99.01) scale(1.2,1)">
	<text y="-1" text-anchor="middle">4</text>
	<text y="-13" text-anchor="middle">3</text>
</g>
<path fill="currentColor"
	d="M77.53 84.31l37.70 -4.60v3.20l-37.70 4.60"/>
<defs>
<path id="hl" stroke="currentColor" d="m-6 0h12"/>
</defs>
<use x="74.33" y="105.01" xlink:href="#hl"/>
<defs>
<ellipse id="hd" rx="4.1" ry="2.9"
	transform="rotate(-20)" fill="currentColor"/>
</defs>
<use x="74.33" y="105.01" xlink:href="#hd"/>
<path d="M77.83 105.01v-19.70" stroke="currentColor" fill="none"/>
<use x="92.83" y="102.01" xlink:href="#hd"/>
<path d="M96.33 102.01v-19.00" stroke="currentColor" fill="none"/>
<use x="111.33" y="99.01" xlink:href="#hd"/>
<path d="M114.83 99.01v-18.30" stroke="currentColor" fill="none"/>
<use x="144.33" y="96.01" xlink:href="#hd"/>
<path d="M147.83 96.01v-20.00" stroke="currentColor" fill="none"/>
<path fill="currentColor"
	d="M176.03 63.51l56.20 3.80v3.20l-56.20 -3.80"/>
<use x="172.93" y="90.01" xlink:href="#hd"/>
<path d="M176.43 90.01v-25.40" stroke="currentColor" fill="none"/>
<use x="191.43" y="84.01" xlink:href="#hd"/>
<path d="M194.93 84.01v-18.20" stroke="currentColor" fill="none"/>
<use x="209.93" y="90.01" xlink:href="#hd"/>
<path d="M213.43 90.01v-23.00" stroke="currentColor" fill="none"/>
<use x="228.43" y="96.01" xlink:href="#hd"/>
<path d="M231.93 96.01v-27.70" stroke="currentColor" fill="none"/>
<use x="257.43" y="99.01" xlink:href="#hd"/>
<path d="M260.93 99.01v-20.00" stroke="currentColor" fill="none"/>
<path fill="currentColor"
	d="M289.23 64.11l56.20 -5.30v3.20l-56.20 5.30"/>
<use x="286.03" y="93.01" xlink:href="#hd"/>
<path d="M289.53 93.01v-27.90" stroke="currentColor" fill="none"/>
<use x="304.53" y="84.01" xlink:href="#hd"/>
<path d="M308.03 84.01v-20.70" stroke="currentColor" fill="none"/>
<use x="323.03" y="93.01" xlink:href="#hd"/>
<path d="M326.53 93.01v-31.40" stroke="currentColor" fill="none"/>
<use x="341.53" y="78.01" xlink:href="#hd"/>
<path d="M345.03 78.01v-18.20" stroke="currentColor" fill="none"/>
<use x="370.63" y="96.01" xlink:href="#hd"/>
<path d="M374.13 96.01v-20.00" stroke="currentColor" fill="none"/>
<path fill="currentColor"
	d="M402.33 64.81l56.20 0.00v3.20l-56.20 -0.00"/>
<use x="399.23" y="99.01" xlink:href="#hd"/>
<path d="M402.73 99.01v-33.20" stroke="currentColor" fill="none"/>
<use x="417.73" y="93.01" xlink:href="#hd"/>
<path d="M421.23 93.01v-27.20" stroke="currentColor" fill="none"/>
<use x="436.13" y="84.01" xlink:href="#hd"/>
<path d="M439.63 84.01v-18.20" stroke="currentColor" fill="none"/>
<use x="454.63" y="99.01" xlink:href="#hd"/>
<path d="M458.13 99.01v-33.20" stroke="currentColor" fill="none"/>
<use x="483.73" y="96.01" xlink:href="#hd"/>
<path d="M487.23 96.01v-20.00" stroke="currentColor" fill="none"/>
<path fill="currentColor"
	d="M508.73 113.01l56.20 -5.70v-3.20l-56.20 5.70"/>
<use x="512.53" y="90.01" xlink:href="#hd"/>
<path d="M509.03 90.01v21.90" stroke="currentColor" fill="none"/>
<use x="531.03" y="84.01" xlink:href="#hd"/>
<path d="M527.53 84.01v26.10" stroke="currentColor" fill="none"/>
<use x="549.53" y="90.01" xlink:href="#hd"/>
<path d="M546.03 90.01v18.20" stroke="currentColor" fill="none"/>
<use x="568.03" y="75.01" xlink:href="#hd"/>
<path d="M564.53 75.01v31.30" stroke="currentColor" fill="none"/>
<use x="597.03" y="75.01" xlink:href="#hd"/>
<path d="M593.53 75.01v20.00" stroke="currentColor" fill="none"/>
<path fill="currentColor"
	d="M626.03 63.51l56.20 3.80v3.20l-56.20 -3.80"/>
<use x="622.93" y="90.01" xlink:href="#hd"/>
<path d="M626.43 90.01v-25.40" stroke="currentColor" fill="none"/>
<use x="641.43" y="84.01" xlink:href="#hd"/>
<path d="M644.93 84.01v-18.20" stroke="currentColor" fill="none"/>
<use x="659.83" y="90.01" xlink:href="#hd"/>
<path d="M663.33 90.01v-23.00" stroke="currentColor" fill="none"/>
<use x="678.33" y="96.01" xlink:href="#hd"/>
<path d="M681.83 96.01v-27.70" stroke="currentColor" fill="none"/>
<path stroke="currentColor" fill="none"
	d="M153.23 179.01v-24.00"/>
<path stroke="currentColor" fill="none"
	d="M260.73 179.01v-24.00"/>
<path stroke="currentColor" fill="none" stroke-width="3"
	d="M375.33 179.01v-24.00"/>
<path stroke="currentColor" fill="none"
	d="M370.83 179.01v-24.00"/>
<use x="366.83" y="179.01" xlink:href="#rdots"/>
<path stroke="currentColor" fill="none"
	d="M490.83 179.01v-24.00"/>
<path stroke="currentColor" fill="none"
	d="M606.33 179.01v-24.00"/>
<path stroke="currentColor" fill="none" stroke-width="3"
	d="M693.43 179.01v-24.00"/>
<path stroke="currentColor" fill="none"
	d="M688.93 179.01v-24.00"/>
<path stroke="currentColor" fill="none"
	d="M13.33 179.01h681.60m-681.60 -6h681.60m-681.60 -6h681.60m-681.60 -6h681.60m-681.60 -6h681.60"/>
<text x="52.13" y="135.61">C7</text>
<text x="276.73" y="135.61">F</text>
<text x="392.93" y="135.61">F</text>
</g>
<g transform="scale(0.750)" stroke-width="0.70" font-family="Times" font-size="13.00">
<text x="264.73" y="135.41">1</text>
<path stroke="currentColor" fill="none"
	d="M260.73 124.01v20M260.73 124.01h108.20v20"/>
<text x="380.83" y="135.41">2</text>
<path stroke="currentColor" fill="none"
	d="M376.83 124.01v20M376.83 124.01h318.10v20"/>
<use x="25.33" y="179.01" xlink:href="#tclef"/>
<use x="40.33" y="167.01" xlink:href="#ft0"/>
<use x="58.33" y="179.01" xlink:href="#hd"/>
<path d="M61.83 179.01v-20.00" stroke="currentColor" fill="none"/>
<path fill="currentColor"
	d="M88.33 144.81l53.10 0.00v3.20l-53.10 -0.00"/>
<use x="85.23" y="173.01" xlink:href="#hd"/>
<path d="M88.73 173.01v-27.20" stroke="currentColor" fill="none"/>
<use x="102.63" y="164.01" xlink:href="#hd"/>
<path d="M106.13 164.01v-18.20" stroke="currentColor" fill="none"/>
<use x="120.13" y="179.01" xlink:href="#hd"/>
<path d="M123.63 179.01v-33.20" stroke="currentColor" fill="none"/>
<use x="137.63" y="173.01" xlink:href="#hd"/>
<path d="M141.13 173.01v-27.20" stroke="currentColor" fill="none"/>
<use x="165.73" y="170.01" xlink:href="#hd"/>
<path d="M169.23 170.01v-20.00" stroke="currentColor" fill="none"/>
<path fill="currentColor"
	d="M195.83 138.81l53.10 0.00v3.20l-53.10 -0.00"/>
<use x="192.63" y="173.01" xlink:href="#hd"/>
<path d="M196.13 173.01v-33.20" stroke="currentColor" fill="none"/>
<use x="210.13" y="167.01" xlink:href="#hd"/>
<path d="M213.63 167.01v-27.20" stroke="currentColor" fill="none"/>
<use x="227.53" y="158.01" xlink:href="#hd"/>
<path d="M231.03 158.01v-18.20" stroke="currentColor" fill="none"/>
<use x="245.03" y="173.01" xlink:href="#hd"/>
<path d="M248.53 173.01v-33.20" stroke="currentColor" fill="none"/>
<use x="279.73" y="176.01" xlink:href="#hd"/>
<path d="M283.23 176.01v-20.00" stroke="currentColor" fill="none"/>
<defs>
<path id="r8e" fill="currentColor" d="m 0 0
	c-1.5 1.5 -2.4 2 -3.6 2
	c2.4 -2.8 -2.8 -4 -2.8 -1.2
	c0 2.7 4.3 2.4 5.9 0.6"/>
<g id="r8">
	<path d="m3.3 -4l-3.4 9.6" stroke="currentColor" fill="none"/>
	<use x="3.4" y="-4" xlink:href="#r8e"/>
</g>
</defs>
<use x="304.03" y="167.01" xlink:href="#r8"/>
<path fill="currentColor"
	d="M324.63 156.81l35.60 -6.10v3.20l-35.60 6.10"/>
<use x="321.43" y="185.01" xlink:href="#hl"/>
<use x="321.43" y="185.01" xlink:href="#hd"/>
<path d="M324.93 185.01v-27.30" stroke="currentColor" fill="none"/>
<use x="338.93" y="176.01" xlink:href="#hd"/>
<path d="M342.43 176.01v-21.20" stroke="currentColor" fill="none"/>
<use x="356.33" y="170.01" xlink:href="#hd"/>
<path d="M359.83 170.01v-18.20" stroke="currentColor" fill="none"/>
<use x="395.83" y="176.01" xlink:href="#hd"/>
<path d="M399.33 176.01v-20.00" stroke="currentColor" fill="none"/>
<path fill="currentColor"
	d="M425.93 154.51l53.10 -6.80v3.20l-53.10 6.80"/>
<use x="422.73" y="176.01" xlink:href="#hd"/>
<path d="M426.23 176.01v-20.50" stroke="currentColor" fill="none"/>
<use x="440.23" y="173.01" xlink:href="#hd"/>
<path d="M443.73 173.01v-19.70" stroke="currentColor" fill="none"/>
<use x="457.63" y="170.01" xlink:href="#hd"/>
<path d="M461.13 170.01v-19.00" stroke="currentColor" fill="none"/>
<use x="475.13" y="167.01" xlink:href="#hd"/>
<path d="M478.63 167.01v-18.20" stroke="currentColor" fill="none"/>
<path fill="currentColor"
	d="M499.43 189.21l88.00 0.00v-3.20l-88.00 -0.00"/>
<use x="503.33" y="164.01" xlink:href="#hd"/>
<path d="M499.83 164.01v24.20" stroke="currentColor" fill="none"/>
<use x="520.73" y="155.01" xlink:href="#hd"/>
<path d="M517.23 155.01v33.20" stroke="currentColor" fill="none"/>
<use x="538.23" y="149.01" xlink:href="#hl"/>
<use x="538.23" y="149.01" xlink:href="#hd"/>
<path d="M534.73 149.01v39.20" stroke="currentColor" fill="none"/>
<use x="555.73" y="164.01" xlink:href="#hd"/>
<path d="M552.23 164.01v24.20" stroke="currentColor" fill="none"/>
<use x="573.13" y="155.01" xlink:href="#hd"/>
<path d="M569.63 155.01v33.20" stroke="currentColor" fill="none"/>
<use x="590.63" y="170.01" xlink:href="#hd"/>
<path d="M587.13 170.01v18.20" stroke="currentColor" fill="none"/>
<use x="618.83" y="161.01" xlink:href="#hd"/>
<path d="M615.33 161.01v20.00" stroke="currentColor" fill="none"/>
<defs>
<path id="r4" fill="currentColor" d="m-1 -8.5
	l3.6 5.1 -2.1 5.2 2.2 4.3
	c-2.6 -2.3 -5.1 0 -2.4 2.6
	c-4.8 -3 -1.5 -6.9 1.4 -4.1
	l-3.1 -4.5 1.9 -5.1 -1.5 -3.5"/>
</defs>
<use x="645.63" y="167.01" xlink:href="#r4"/>
<use x="672.53" y="167.01" xlink:href="#r4"/>
<text font-family="serif" font-size="16" font-weight="bold" font-style="italic"
	x="161.73" y="144.01">tr</text>
</g>
</svg>
