<?xml version="1.0" standalone="no"?>
<!DOCTYPE svg PUBLIC "-//W3C//DTD SVG 1.1//EN"
	"http://www.w3.org/Graphics/SVG/1.1/DTD/svg11.dtd">
<svg xmlns="http://www.w3.org/2000/svg" version="1.1"
	xmlns:xlink="http://www.w3.org/1999/xlink"
	xml:space='preserve' color="black"
	width="7.38in" height="2.25in" viewBox="0 0 531 162">
<title>data/results/biggest_11/abc/196.abc (196) tune 1</title>
<!-- Creator: abcm2ps-7.8.14 -->
<!-- CreationDate: Aug  9, 2015 23:50 -->
<!-- CommandLine: -g data/results/biggest_11/abc/196.abc -O /home/allanino/Dropbox/Trabalhos/folkme/svg/196.svg -->
<g transform="scale(0.750)" stroke-width="0.70" font-family="Times" font-size="20.00">
<text x="354.13" y="21.67" text-anchor="middle">VögzE8 C2 5- Anm.</text>
<defs>
<g id="rdots" fill="currentColor">
	<circle cx="0" cy="-9" r="1.2"/>
	<circle cx="0" cy="-15" r="1.2"/>
</g>
</defs>
<use x="93.53" y="107.01" xlink:href="#rdots"/>
<path stroke="currentColor" fill="none"
	d="M89.53 107.01v-24.00"/>
<path stroke="currentColor" fill="none" stroke-width="3"
	d="M85.03 107.01v-24.00"/>
<path stroke="currentColor" fill="none"
	d="M180.53 107.01v-24.00"/>
<path stroke="currentColor" fill="none"
	d="M273.93 107.01v-24.00"/>
<path stroke="currentColor" fill="none"
	d="M359.83 107.01v-24.00"/>
<path stroke="currentColor" fill="none"
	d="M445.83 107.01v-24.00"/>
<path stroke="currentColor" fill="none"
	d="M523.53 107.01v-24.00"/>
<path stroke="currentColor" fill="none"
	d="M609.43 107.01v-24.00"/>
<path stroke="currentColor" fill="none"
	d="M694.93 107.01v-24.00"/>
<path stroke="currentColor" fill="none"
	d="M13.33 107.01h681.60m-681.60 -6h681.60m-681.60 -6h681.60m-681.60 -6h681.60m-681.60 -6h681.60"/>
</g>
<g transform="scale(0.750)" stroke-width="0.70" font-family="Helvetica" font-size="12.00">
<text x="103.53" y="62.61">C</text>
<text x="280.03" y="62.61">G7</text>
<text x="368.83" y="62.61">C</text>
<text x="528.03" y="62.61">Dm/F</text>
<text x="615.53" y="62.61">G7</text>
<text x="651.83" y="62.61">C</text>
<defs>
<path id="utclef" fill="currentColor" d="m-50 -90
	c-72 -41 -72 -158 52 -188
	c150 -10 220 188 90 256
	c-114 52 -275 0 -293 -136
	c-15 -181 93 -229 220 -334
	c88 -87 79 -133 62 -210
	c-51 33 -94 105 -89 186
	c17 267 36 374 49 574
	c6 96 -19 134 -77 135
	c-80 1 -126 -93 -61 -133
	c85 -41 133 101 31 105
	c23 17 92 37 90 -92
	c-10 -223 -39 -342 -50 -617
	c0 -90 0 -162 96 -232
	c56 72 63 230 22 289
	c-74 106 -257 168 -255 316
	c9 153 148 185 252 133
	c86 -65 29 -192 -80 -176
	c-71 12 -105 67 -59 124"/>
<use id="tclef" transform="scale(0.045)"
	xlink:href="#utclef"/>
</defs>
<use x="25.33" y="107.01" xlink:href="#tclef"/>
<g font-family="serif" font-size="16" font-weight="bold" font-style="normal"
	transform="translate(43.83,107.01) scale(1.2,1)">
	<text y="-1" text-anchor="middle">4</text>
	<text y="-13" text-anchor="middle">2</text>
</g>
<path fill="currentColor"
	d="M65.03 77.91l12.90 -2.10v3.20l-12.90 2.10"/>
<path fill="currentColor"
	d="M65.33 82.81l12.20 -2.00v3.20l-12.20 2.00"/>
<defs>
<ellipse id="hd" rx="4.1" ry="2.9"
	transform="rotate(-20)" fill="currentColor"/>
</defs>
<use x="61.83" y="101.01" xlink:href="#hd"/>
<path d="M65.33 101.01v-22.20" stroke="currentColor" fill="none"/>
<use x="74.03" y="98.01" xlink:href="#hd"/>
<path d="M77.53 98.01v-21.20" stroke="currentColor" fill="none"/>
<path fill="currentColor"
	d="M103.23 120.21l63.00 -9.00v-3.20l-63.00 9.00"/>
<path fill="currentColor"
	d="M153.63 108.01l12.20 -1.70v-3.20l-12.20 1.70"/>
<use x="107.03" y="101.01" xlink:href="#hd"/>
<path d="M103.53 101.01v18.20" stroke="currentColor" fill="none"/>
<use x="123.73" y="92.01" xlink:href="#hd"/>
<path d="M120.23 92.01v24.80" stroke="currentColor" fill="none"/>
<use x="140.43" y="86.01" xlink:href="#hd"/>
<path d="M136.93 86.01v28.40" stroke="currentColor" fill="none"/>
<use x="157.13" y="80.01" xlink:href="#hd"/>
<path d="M153.63 80.01v32.00" stroke="currentColor" fill="none"/>
<use x="169.43" y="80.01" xlink:href="#hd"/>
<path d="M165.93 80.01v30.30" stroke="currentColor" fill="none"/>
<path fill="currentColor"
	d="M189.13 109.01l66.50 0.00v-3.20l-66.50 -0.00"/>
<path fill="currentColor"
	d="M189.53 104.01l12.20 0.00v-3.20l-12.20 -0.00"/>
<path fill="currentColor"
	d="M230.93 104.01l12.20 0.00v-3.20l-12.20 -0.00"/>
<use x="193.03" y="80.01" xlink:href="#hd"/>
<path d="M189.53 80.01v28.00" stroke="currentColor" fill="none"/>
<defs>
<path id="hl" stroke="currentColor" d="m-6 0h12"/>
</defs>
<use x="205.23" y="77.01" xlink:href="#hl"/>
<use x="205.23" y="71.01" xlink:href="#hl"/>
<use x="205.23" y="71.01" xlink:href="#hd"/>
<path d="M201.73 71.01v37.00" stroke="currentColor" fill="none"/>
<use x="217.73" y="77.01" xlink:href="#hl"/>
<use x="217.73" y="71.01" xlink:href="#hl"/>
<use x="217.73" y="71.01" xlink:href="#hd"/>
<path d="M214.23 71.01v37.00" stroke="currentColor" fill="none"/>
<use x="234.43" y="86.01" xlink:href="#hd"/>
<path d="M230.93 86.01v22.00" stroke="currentColor" fill="none"/>
<use x="246.63" y="80.01" xlink:href="#hd"/>
<path d="M243.13 80.01v28.00" stroke="currentColor" fill="none"/>
<use x="258.83" y="77.01" xlink:href="#hl"/>
<use x="258.83" y="71.01" xlink:href="#hl"/>
<use x="258.83" y="71.01" xlink:href="#hd"/>
<path d="M255.33 71.01v37.00" stroke="currentColor" fill="none"/>
<path fill="currentColor"
	d="M282.63 106.51l59.00 7.70v-3.20l-59.00 -7.70"/>
<path fill="currentColor"
	d="M316.83 106.01l12.20 1.60v-3.20l-12.20 -1.60"/>
<use x="286.43" y="77.01" xlink:href="#hl"/>
<use x="286.43" y="74.01" xlink:href="#hd"/>
<path d="M282.93 74.01v31.60" stroke="currentColor" fill="none"/>
<use x="303.43" y="77.01" xlink:href="#hl"/>
<use x="303.43" y="77.01" xlink:href="#hd"/>
<path d="M299.93 77.01v30.80" stroke="currentColor" fill="none"/>
<use x="320.33" y="77.01" xlink:href="#hl"/>
<use x="320.33" y="77.01" xlink:href="#hd"/>
<path d="M316.83 77.01v33.00" stroke="currentColor" fill="none"/>
<use x="332.53" y="80.01" xlink:href="#hd"/>
<path d="M329.03 80.01v31.60" stroke="currentColor" fill="none"/>
<use x="344.83" y="95.01" xlink:href="#hd"/>
<path d="M341.33 95.01v18.20" stroke="currentColor" fill="none"/>
<path fill="currentColor"
	d="M368.53 109.01l63.00 0.00v-3.20l-63.00 -0.00"/>
<path fill="currentColor"
	d="M419.03 104.01l12.20 0.00v-3.20l-12.20 -0.00"/>
<use x="372.33" y="92.01" xlink:href="#hd"/>
<path d="M368.83 92.01v16.00" stroke="currentColor" fill="none"/>
<use x="389.13" y="86.01" xlink:href="#hd"/>
<path d="M385.63 86.01v22.00" stroke="currentColor" fill="none"/>
<use x="405.83" y="77.01" xlink:href="#hl"/>
<use x="405.83" y="77.01" xlink:href="#hd"/>
<path d="M402.33 77.01v31.00" stroke="currentColor" fill="none"/>
<use x="422.53" y="80.01" xlink:href="#hd"/>
<path d="M419.03 80.01v28.00" stroke="currentColor" fill="none"/>
<use x="434.73" y="86.01" xlink:href="#hd"/>
<path d="M431.23 86.01v22.00" stroke="currentColor" fill="none"/>
<path fill="currentColor"
	d="M454.53 111.21l50.80 -6.50v-3.20l-50.80 6.50"/>
<use x="458.33" y="92.01" xlink:href="#hd"/>
<path d="M454.83 92.01v18.20" stroke="currentColor" fill="none"/>
<use x="475.03" y="77.01" xlink:href="#hl"/>
<use x="475.03" y="77.01" xlink:href="#hd"/>
<path d="M471.53 77.01v31.10" stroke="currentColor" fill="none"/>
<use x="491.73" y="80.01" xlink:href="#hd"/>
<path d="M488.23 80.01v25.90" stroke="currentColor" fill="none"/>
<use x="508.43" y="77.01" xlink:href="#hl"/>
<use x="508.43" y="71.01" xlink:href="#hl"/>
<use x="508.43" y="71.01" xlink:href="#hd"/>
<path d="M504.93 71.01v32.80" stroke="currentColor" fill="none"/>
<path fill="currentColor"
	d="M532.23 109.01l63.00 0.00v-3.20l-63.00 -0.00"/>
<path fill="currentColor"
	d="M582.63 104.01l12.20 0.00v-3.20l-12.20 -0.00"/>
<use x="536.03" y="77.01" xlink:href="#hl"/>
<use x="536.03" y="77.01" xlink:href="#hd"/>
<path d="M532.53 77.01v31.00" stroke="currentColor" fill="none"/>
<use x="552.73" y="89.01" xlink:href="#hd"/>
<path d="M549.23 89.01v19.00" stroke="currentColor" fill="none"/>
<use x="569.43" y="89.01" xlink:href="#hd"/>
<path d="M565.93 89.01v19.00" stroke="currentColor" fill="none"/>
<use x="586.13" y="89.01" xlink:href="#hd"/>
<path d="M582.63 89.01v19.00" stroke="currentColor" fill="none"/>
<use x="598.33" y="86.01" xlink:href="#hd"/>
<path d="M594.83 86.01v22.00" stroke="currentColor" fill="none"/>
<path fill="currentColor"
	d="M618.13 117.11l58.50 7.70v-3.20l-58.50 -7.70"/>
<path fill="currentColor"
	d="M651.93 116.61l12.20 1.60v-3.20l-12.20 -1.60"/>
<use x="621.93" y="83.01" xlink:href="#hd"/>
<path d="M618.43 83.01v33.20" stroke="currentColor" fill="none"/>
<use x="638.73" y="95.01" xlink:href="#hd"/>
<path d="M635.23 95.01v23.40" stroke="currentColor" fill="none"/>
<use x="655.43" y="86.01" xlink:href="#hd"/>
<path d="M651.93 86.01v34.60" stroke="currentColor" fill="none"/>
<use x="667.63" y="101.01" xlink:href="#hd"/>
<path d="M664.13 101.01v21.20" stroke="currentColor" fill="none"/>
<use x="679.83" y="101.01" xlink:href="#hd"/>
<path d="M676.33 101.01v22.80" stroke="currentColor" fill="none"/>
<path stroke="currentColor" fill="none"
	d="M99.63 191.01v-24.00"/>
<path stroke="currentColor" fill="none"
	d="M96.63 191.01v-24.00"/>
<path stroke="currentColor" fill="none"
	d="M170.73 191.01v-24.00"/>
<path stroke="currentColor" fill="none"
	d="M255.33 191.01v-24.00"/>
<path stroke="currentColor" fill="none"
	d="M347.83 191.01v-24.00"/>
<path stroke="currentColor" fill="none"
	d="M425.43 191.01v-24.00"/>
<path stroke="currentColor" fill="none"
	d="M525.43 191.01v-24.00"/>
<path stroke="currentColor" fill="none" stroke-width="3"
	d="M614.73 191.01v-24.00"/>
<path stroke="currentColor" fill="none"
	d="M610.23 191.01v-24.00"/>
<use x="606.23" y="191.01" xlink:href="#rdots"/>
<path stroke="currentColor" fill="none" stroke-width="3"
	d="M693.43 191.01v-24.00"/>
<path stroke="currentColor" fill="none"
	d="M688.93 191.01v-24.00"/>
<path stroke="currentColor" fill="none"
	d="M13.33 191.01h681.60m-681.60 -6h681.60m-681.60 -6h681.60m-681.60 -6h681.60m-681.60 -6h681.60"/>
<text x="57.83" y="209.61">cine</text>
<text x="108.63" y="143.61">C</text>
<text x="357.43" y="143.61">F</text>
<text x="431.43" y="143.61">G7</text>
<text x="540.93" y="143.61">C</text>
<text x="631.63" y="143.61">C</text>
</g>
<g transform="scale(0.750)" stroke-width="0.70" font-family="Times" font-size="13.00">
<text x="529.43" y="143.41">1</text>
<path stroke="currentColor" fill="none"
	d="M525.43 132.01v20M525.43 132.01h82.80v20"/>
<text x="620.23" y="143.41">2</text>
<path stroke="currentColor" fill="none"
	d="M616.23 132.01v20M616.23 132.01h78.70v20"/>
<use x="25.33" y="191.01" xlink:href="#tclef"/>
<use x="49.83" y="170.01" xlink:href="#hd"/>
<path d="M46.33 170.01v20.00" stroke="currentColor" fill="none"/>
<path fill="currentColor"
	d="M46.33 190.01c0.6 -5.6 9.6 -9 5.6 -18.4
	c1.6 6 -1.3 11.6 -5.6 12.8
"/>
<use x="65.83" y="176.01" xlink:href="#hd"/>
<path d="M62.33 176.01v20.00" stroke="currentColor" fill="none"/>
<defs>
<path id="r8e" fill="currentColor" d="m 0 0
	c-1.5 1.5 -2.4 2 -3.6 2
	c2.4 -2.8 -2.8 -4 -2.8 -1.2
	c0 2.7 4.3 2.4 5.9 0.6"/>
<g id="r8">
	<path d="m3.3 -4l-3.4 9.6" stroke="currentColor" fill="none"/>
	<use x="3.4" y="-4" xlink:href="#r8e"/>
</g>
</defs>
<use x="85.43" y="179.01" xlink:href="#r8"/>
<path fill="currentColor"
	d="M108.33 186.51l49.00 5.70v-3.20l-49.00 -5.70"/>
<path fill="currentColor"
	d="M150.93 186.51l6.00 0.70v-3.20l-6.00 -0.70"/>
<use x="112.13" y="161.01" xlink:href="#hl"/>
<use x="112.13" y="155.01" xlink:href="#hl"/>
<use x="112.13" y="155.01" xlink:href="#hd"/>
<path d="M108.63 155.01v30.60" stroke="currentColor" fill="none"/>
<use x="127.13" y="161.01" xlink:href="#hl"/>
<use x="127.13" y="158.01" xlink:href="#hd"/>
<path d="M123.63 158.01v29.30" stroke="currentColor" fill="none"/>
<use x="142.13" y="161.01" xlink:href="#hl"/>
<use x="142.13" y="155.01" xlink:href="#hl"/>
<use x="142.13" y="155.01" xlink:href="#hd"/>
<circle fill="currentColor" cx="150.13" cy="152.01" r="1.2"/>
<path d="M138.63 155.01v34.10" stroke="currentColor" fill="none"/>
<use x="160.43" y="170.01" xlink:href="#hd"/>
<path d="M156.93 170.01v21.20" stroke="currentColor" fill="none"/>
<path fill="currentColor"
	d="M179.33 193.01l59.40 0.00v-3.20l-59.40 -0.00"/>
<path fill="currentColor"
	d="M194.33 188.01l33.10 0.00v-3.20l-33.10 -0.00"/>
<use x="183.23" y="170.01" xlink:href="#hd"/>
<path d="M179.73 170.01v22.00" stroke="currentColor" fill="none"/>
<use x="197.83" y="170.01" xlink:href="#hd"/>
<path d="M194.33 170.01v22.00" stroke="currentColor" fill="none"/>
<use x="208.83" y="167.01" xlink:href="#hd"/>
<path d="M205.33 167.01v25.00" stroke="currentColor" fill="none"/>
<use x="219.83" y="164.01" xlink:href="#hd"/>
<path d="M216.33 164.01v28.00" stroke="currentColor" fill="none"/>
<use x="230.93" y="170.01" xlink:href="#hd"/>
<path d="M227.43 170.01v22.00" stroke="currentColor" fill="none"/>
<use x="241.93" y="176.01" xlink:href="#hd"/>
<path d="M238.43 176.01v16.00" stroke="currentColor" fill="none"/>
<path fill="currentColor"
	d="M264.03 204.21l70.50 0.00v-3.20l-70.50 -0.00"/>
<path fill="currentColor"
	d="M278.93 199.21l55.20 0.00v-3.20l-55.20 -0.00"/>
<use x="267.83" y="185.01" xlink:href="#hd"/>
<path d="M264.33 185.01v18.20" stroke="currentColor" fill="none"/>
<use x="282.43" y="179.01" xlink:href="#hd"/>
<path d="M278.93 179.01v24.20" stroke="currentColor" fill="none"/>
<use x="293.53" y="173.01" xlink:href="#hd"/>
<path d="M290.03 173.01v30.20" stroke="currentColor" fill="none"/>
<use x="304.53" y="176.01" xlink:href="#hd"/>
<path d="M301.03 176.01v27.20" stroke="currentColor" fill="none"/>
<use x="315.53" y="173.01" xlink:href="#hd"/>
<path d="M312.03 173.01v30.20" stroke="currentColor" fill="none"/>
<use x="326.63" y="176.01" xlink:href="#hd"/>
<path d="M323.13 176.01v27.20" stroke="currentColor" fill="none"/>
<use x="337.63" y="179.01" xlink:href="#hd"/>
<path d="M334.13 179.01v24.20" stroke="currentColor" fill="none"/>
<path fill="currentColor"
	d="M363.53 153.81l55.50 0.00v3.20l-55.50 -0.00"/>
<path fill="currentColor"
	d="M407.63 158.81l11.00 0.00v3.20l-11.00 -0.00"/>
<use x="360.33" y="179.01" xlink:href="#hd"/>
<path d="M363.83 179.01v-24.20" stroke="currentColor" fill="none"/>
<use x="374.93" y="182.01" xlink:href="#hd"/>
<path d="M378.43 182.01v-27.20" stroke="currentColor" fill="none"/>
<use x="389.53" y="182.01" xlink:href="#hd"/>
<path d="M393.03 182.01v-27.20" stroke="currentColor" fill="none"/>
<use x="404.13" y="179.01" xlink:href="#hd"/>
<path d="M407.63 179.01v-24.20" stroke="currentColor" fill="none"/>
<use x="415.23" y="176.01" xlink:href="#hd"/>
<path d="M418.73 176.01v-21.20" stroke="currentColor" fill="none"/>
<path fill="currentColor"
	d="M434.13 207.21l77.90 0.00v-3.20l-77.90 -0.00"/>
<path fill="currentColor"
	d="M434.43 202.21l77.30 0.00v-3.20l-77.30 -0.00"/>
<use x="437.93" y="173.01" xlink:href="#hd"/>
<path d="M434.43 173.01v33.20" stroke="currentColor" fill="none"/>
<use x="448.93" y="170.01" xlink:href="#hd"/>
<path d="M445.43 170.01v36.20" stroke="currentColor" fill="none"/>
<use x="460.03" y="173.01" xlink:href="#hd"/>
<path d="M456.53 173.01v33.20" stroke="currentColor" fill="none"/>
<use x="471.03" y="176.01" xlink:href="#hd"/>
<path d="M467.53 176.01v30.20" stroke="currentColor" fill="none"/>
<use x="482.03" y="179.01" xlink:href="#hd"/>
<path d="M478.53 179.01v27.20" stroke="currentColor" fill="none"/>
<use x="493.13" y="182.01" xlink:href="#hd"/>
<path d="M489.63 182.01v24.20" stroke="currentColor" fill="none"/>
<use x="504.13" y="185.01" xlink:href="#hd"/>
<path d="M500.63 185.01v21.20" stroke="currentColor" fill="none"/>
<use x="515.23" y="179.01" xlink:href="#hd"/>
<path d="M511.73 179.01v27.20" stroke="currentColor" fill="none"/>
<path fill="currentColor"
	d="M540.53 200.81l52.00 -5.30v-3.20l-52.00 5.30"/>
<path fill="currentColor"
	d="M555.53 194.31l11.00 -1.10v-3.20l-11.00 1.10"/>
<use x="544.43" y="176.01" xlink:href="#hd"/>
<path d="M540.93 176.01v23.80" stroke="currentColor" fill="none"/>
<use x="559.03" y="176.01" xlink:href="#hd"/>
<path d="M555.53 176.01v22.30" stroke="currentColor" fill="none"/>
<use x="570.03" y="176.01" xlink:href="#hd"/>
<path d="M566.53 176.01v21.20" stroke="currentColor" fill="none"/>
<use x="581.13" y="176.01" xlink:href="#hd"/>
<path d="M577.63 176.01v20.10" stroke="currentColor" fill="none"/>
<use x="595.73" y="164.01" xlink:href="#hd"/>
<path d="M592.23 164.01v30.60" stroke="currentColor" fill="none"/>
<path fill="currentColor"
	d="M631.33 195.31l30.30 -6.20v-3.20l-30.30 6.20"/>
<use x="635.23" y="176.01" xlink:href="#hd"/>
<path d="M631.73 176.01v18.20" stroke="currentColor" fill="none"/>
<use x="649.83" y="161.01" xlink:href="#hl"/>
<use x="649.83" y="155.01" xlink:href="#hl"/>
<use x="649.83" y="155.01" xlink:href="#hd"/>
<path d="M646.33 155.01v36.20" stroke="currentColor" fill="none"/>
<use x="664.83" y="161.01" xlink:href="#hl"/>
<use x="664.83" y="155.01" xlink:href="#hl"/>
<use x="664.83" y="155.01" xlink:href="#hd"/>
<path d="M661.33 155.01v33.20" stroke="currentColor" fill="none"/>
<use x="679.43" y="179.01" xlink:href="#r8"/>
</g>
</svg>
