<?xml version="1.0" standalone="no"?>
<!DOCTYPE svg PUBLIC "-//W3C//DTD SVG 1.1//EN"
	"http://www.w3.org/Graphics/SVG/1.1/DTD/svg11.dtd">
<svg xmlns="http://www.w3.org/2000/svg" version="1.1"
	xmlns:xlink="http://www.w3.org/1999/xlink"
	xml:space='preserve' color="black"
	width="7.38in" height="1.60in" viewBox="0 0 531 116">
<title>data/results/biggest_11/abc/197.abc (197) tune 1</title>
<!-- Creator: abcm2ps-7.8.14 -->
<!-- CreationDate: Aug  9, 2015 23:50 -->
<!-- CommandLine: -g data/results/biggest_11/abc/197.abc -O /home/allanino/Dropbox/Trabalhos/folkme/svg/197.svg -->
<g transform="scale(0.750)" stroke-width="0.70" font-family="Times" font-size="20.00">
<text x="354.13" y="21.67" text-anchor="middle">Glust Lass Escholdlem</text>
</g>
<g transform="scale(0.750)" stroke-width="0.70" font-family="Times" font-size="15.00">
<text x="69.83" y="68.01">A</text>
<path stroke="currentColor" fill="none"
	d="M140.23 131.01v-24.00"/>
<path stroke="currentColor" fill="none"
	d="M220.53 131.01v-24.00"/>
<path stroke="currentColor" fill="none"
	d="M300.93 131.01v-24.00"/>
<path stroke="currentColor" fill="none"
	d="M381.33 131.01v-24.00"/>
<path stroke="currentColor" fill="none"
	d="M461.73 131.01v-24.00"/>
<path stroke="currentColor" fill="none"
	d="M535.23 131.01v-24.00"/>
<path stroke="currentColor" fill="none"
	d="M615.63 131.01v-24.00"/>
<path stroke="currentColor" fill="none" stroke-width="3"
	d="M693.43 131.01v-24.00"/>
<path stroke="currentColor" fill="none"
	d="M688.93 131.01v-24.00"/>
<defs>
<g id="rdots" fill="currentColor">
	<circle cx="0" cy="-9" r="1.2"/>
	<circle cx="0" cy="-15" r="1.2"/>
</g>
</defs>
<use x="684.93" y="131.01" xlink:href="#rdots"/>
<path stroke="currentColor" fill="none"
	d="M13.33 131.01h681.60m-681.60 -6h681.60m-681.60 -6h681.60m-681.60 -6h681.60m-681.60 -6h681.60"/>
</g>
<g transform="scale(0.750)" stroke-width="0.70" font-family="Helvetica" font-size="12.00">
<text x="73.93" y="86.61">B♭</text>
<text x="147.13" y="86.61">F7</text>
<text x="307.63" y="86.61">B♭</text>
<text x="471.33" y="86.61">F</text>
<text x="541.53" y="86.61">C7</text>
<text x="625.23" y="86.61">F</text>
<defs>
<path id="utclef" fill="currentColor" d="m-50 -90
	c-72 -41 -72 -158 52 -188
	c150 -10 220 188 90 256
	c-114 52 -275 0 -293 -136
	c-15 -181 93 -229 220 -334
	c88 -87 79 -133 62 -210
	c-51 33 -94 105 -89 186
	c17 267 36 374 49 574
	c6 96 -19 134 -77 135
	c-80 1 -126 -93 -61 -133
	c85 -41 133 101 31 105
	c23 17 92 37 90 -92
	c-10 -223 -39 -342 -50 -617
	c0 -90 0 -162 96 -232
	c56 72 63 230 22 289
	c-74 106 -257 168 -255 316
	c9 153 148 185 252 133
	c86 -65 29 -192 -80 -176
	c-71 12 -105 67 -59 124"/>
<use id="tclef" transform="scale(0.045)"
	xlink:href="#utclef"/>
</defs>
<use x="25.33" y="131.01" xlink:href="#tclef"/>
<defs>
<path id="uflat" fill="currentColor" d="
	m100 -746
	h32
	v734
	l-32 4
	m32 -332
	c46 -72 152 -90 208 -20
	c100 110 -120 326 -208 348
	m0 -28
	c54 0 200 -206 130 -290
	c-50 -60 -130 -4 -130 34"/>
<use id="ft0" transform="translate(-3.5,3.5) scale(0.018)"
	xlink:href="#uflat"/>
</defs>
<use x="40.33" y="119.01" xlink:href="#ft0"/>
<use x="45.83" y="110.01" xlink:href="#ft0"/>
<g font-family="serif" font-size="16" font-weight="bold" font-style="normal"
	transform="translate(61.83,131.01) scale(1.2,1)">
	<text y="-1" text-anchor="middle">4</text>
	<text y="-13" text-anchor="middle">2</text>
</g>
<path fill="currentColor"
	d="M76.03 132.21l47.00 -5.50v-3.20l-47.00 5.50"/>
<defs>
<ellipse id="hd" rx="4.1" ry="2.9"
	transform="rotate(-20)" fill="currentColor"/>
</defs>
<use x="79.83" y="113.01" xlink:href="#hd"/>
<path d="M76.33 113.01v18.20" stroke="currentColor" fill="none"/>
<use x="95.23" y="104.01" xlink:href="#hd"/>
<path d="M91.73 104.01v25.40" stroke="currentColor" fill="none"/>
<use x="110.73" y="107.01" xlink:href="#hd"/>
<path d="M107.23 107.01v20.60" stroke="currentColor" fill="none"/>
<defs>
<path id="hl" stroke="currentColor" d="m-6 0h12"/>
</defs>
<use x="126.13" y="101.01" xlink:href="#hl"/>
<use x="126.13" y="98.01" xlink:href="#hd"/>
<path d="M122.63 98.01v27.80" stroke="currentColor" fill="none"/>
<path fill="currentColor"
	d="M148.83 132.91l54.50 0.00v-3.20l-54.50 -0.00"/>
<path fill="currentColor"
	d="M180.03 127.91l11.50 0.00v-3.20l-11.50 -0.00"/>
<use x="152.73" y="101.01" xlink:href="#hl"/>
<use x="152.73" y="98.01" xlink:href="#hd"/>
<path d="M149.23 98.01v34.00" stroke="currentColor" fill="none"/>
<use x="168.13" y="116.01" xlink:href="#hd"/>
<path d="M164.63 116.01v16.00" stroke="currentColor" fill="none"/>
<use x="183.53" y="101.01" xlink:href="#hl"/>
<use x="183.53" y="101.01" xlink:href="#hd"/>
<path d="M180.03 101.01v31.00" stroke="currentColor" fill="none"/>
<use x="195.03" y="104.01" xlink:href="#hd"/>
<path d="M191.53 104.01v28.00" stroke="currentColor" fill="none"/>
<use x="206.53" y="107.01" xlink:href="#hd"/>
<path d="M203.03 107.01v25.00" stroke="currentColor" fill="none"/>
<path fill="currentColor"
	d="M229.23 131.21l54.50 0.00v-3.20l-54.50 -0.00"/>
<path fill="currentColor"
	d="M245.03 126.21l11.50 0.00v-3.20l-11.50 -0.00"/>
<use x="233.03" y="101.01" xlink:href="#hl"/>
<use x="233.03" y="101.01" xlink:href="#hd"/>
<path d="M229.53 101.01v29.20" stroke="currentColor" fill="none"/>
<use x="248.53" y="104.01" xlink:href="#hd"/>
<path d="M245.03 104.01v26.20" stroke="currentColor" fill="none"/>
<use x="260.03" y="107.01" xlink:href="#hd"/>
<path d="M256.53 107.01v23.20" stroke="currentColor" fill="none"/>
<use x="271.53" y="110.01" xlink:href="#hd"/>
<path d="M268.03 110.01v20.20" stroke="currentColor" fill="none"/>
<use x="286.93" y="107.01" xlink:href="#hd"/>
<path d="M283.43 107.01v23.20" stroke="currentColor" fill="none"/>
<path fill="currentColor"
	d="M309.63 132.91l54.50 0.00v-3.20l-54.50 -0.00"/>
<path fill="currentColor"
	d="M340.83 127.91l11.50 0.00v-3.20l-11.50 -0.00"/>
<use x="313.43" y="104.01" xlink:href="#hd"/>
<path d="M309.93 104.01v28.00" stroke="currentColor" fill="none"/>
<use x="328.93" y="107.01" xlink:href="#hd"/>
<path d="M325.43 107.01v25.00" stroke="currentColor" fill="none"/>
<use x="344.33" y="104.01" xlink:href="#hd"/>
<path d="M340.83 104.01v28.00" stroke="currentColor" fill="none"/>
<use x="355.83" y="107.01" xlink:href="#hd"/>
<path d="M352.33 107.01v25.00" stroke="currentColor" fill="none"/>
<use x="367.33" y="113.01" xlink:href="#hd"/>
<path d="M363.83 113.01v19.00" stroke="currentColor" fill="none"/>
<path fill="currentColor"
	d="M390.03 140.21l58.00 -5.00v-3.20l-58.00 5.00"/>
<path fill="currentColor"
	d="M405.83 133.81l11.50 -1.00v-3.20l-11.50 1.00"/>
<path fill="currentColor"
	d="M441.73 130.71l6.00 -0.50v-3.20l-6.00 0.50"/>
<use x="393.83" y="119.01" xlink:href="#hd"/>
<path d="M390.33 119.01v20.20" stroke="currentColor" fill="none"/>
<use x="409.33" y="113.01" xlink:href="#hd"/>
<path d="M405.83 113.01v24.80" stroke="currentColor" fill="none"/>
<use x="420.73" y="107.01" xlink:href="#hd"/>
<path d="M417.23 107.01v29.80" stroke="currentColor" fill="none"/>
<use x="432.23" y="101.01" xlink:href="#hl"/>
<use x="432.23" y="98.01" xlink:href="#hd"/>
<circle fill="currentColor" cx="440.23" cy="98.01" r="1.2"/>
<path d="M428.73 98.01v37.80" stroke="currentColor" fill="none"/>
<use x="451.23" y="113.01" xlink:href="#hd"/>
<path d="M447.73 113.01v21.20" stroke="currentColor" fill="none"/>
<path fill="currentColor"
	d="M470.43 135.21l47.60 -6.10v-3.20l-47.60 6.10"/>
<use x="474.23" y="116.01" xlink:href="#hd"/>
<path d="M470.73 116.01v18.20" stroke="currentColor" fill="none"/>
<use x="489.63" y="101.01" xlink:href="#hl"/>
<use x="489.63" y="101.01" xlink:href="#hd"/>
<path d="M486.13 101.01v31.20" stroke="currentColor" fill="none"/>
<use x="505.43" y="101.01" xlink:href="#hl"/>
<use x="505.43" y="101.01" xlink:href="#hd"/>
<path d="M501.93 101.01v29.20" stroke="currentColor" fill="none"/>
<use x="521.23" y="101.01" xlink:href="#hl"/>
<use x="521.23" y="101.01" xlink:href="#hd"/>
<path d="M517.73 101.01v27.20" stroke="currentColor" fill="none"/>
<path fill="currentColor"
	d="M543.93 135.21l54.50 -5.30v-3.20l-54.50 5.30"/>
<path fill="currentColor"
	d="M559.63 128.71l11.50 -1.10v-3.20l-11.50 1.10"/>
<use x="547.73" y="116.01" xlink:href="#hd"/>
<path d="M544.23 116.01v18.20" stroke="currentColor" fill="none"/>
<use x="563.13" y="110.01" xlink:href="#hd"/>
<path d="M559.63 110.01v22.70" stroke="currentColor" fill="none"/>
<use x="574.63" y="110.01" xlink:href="#hd"/>
<path d="M571.13 110.01v21.60" stroke="currentColor" fill="none"/>
<use x="586.13" y="110.01" xlink:href="#hd"/>
<path d="M582.63 110.01v20.50" stroke="currentColor" fill="none"/>
<use x="601.53" y="104.01" xlink:href="#hd"/>
<path d="M598.03 104.01v24.90" stroke="currentColor" fill="none"/>
<path fill="currentColor"
	d="M624.33 127.91l31.60 0.00v-3.20l-31.60 -0.00"/>
<use x="628.13" y="107.01" xlink:href="#hd"/>
<path d="M624.63 107.01v20.00" stroke="currentColor" fill="none"/>
<use x="643.53" y="107.01" xlink:href="#hd"/>
<path d="M640.03 107.01v20.00" stroke="currentColor" fill="none"/>
<use x="659.03" y="107.01" xlink:href="#hd"/>
<path d="M655.53 107.01v20.00" stroke="currentColor" fill="none"/>
<defs>
<path id="r8e" fill="currentColor" d="m 0 0
	c-1.5 1.5 -2.4 2 -3.6 2
	c2.4 -2.8 -2.8 -4 -2.8 -1.2
	c0 2.7 4.3 2.4 5.9 0.6"/>
<g id="r8">
	<path d="m3.3 -4l-3.4 9.6" stroke="currentColor" fill="none"/>
	<use x="3.4" y="-4" xlink:href="#r8e"/>
</g>
</defs>
<use x="674.43" y="119.01" xlink:href="#r8"/>
</g>
</svg>
