<?xml version="1.0" standalone="no"?>
<!DOCTYPE svg PUBLIC "-//W3C//DTD SVG 1.1//EN"
	"http://www.w3.org/Graphics/SVG/1.1/DTD/svg11.dtd">
<svg xmlns="http://www.w3.org/2000/svg" version="1.1"
	xmlns:xlink="http://www.w3.org/1999/xlink"
	xml:space='preserve' color="black"
	width="7.38in" height="4.58in" viewBox="0 0 531 330">
<title>data/results/biggest_11/abc/2.abc (2) tune 1</title>
<!-- Creator: abcm2ps-7.8.14 -->
<!-- CreationDate: Aug  9, 2015 23:50 -->
<!-- CommandLine: -g data/results/biggest_11/abc/2.abc -O /home/allanino/Dropbox/Trabalhos/folkme/svg/2.svg -->
<g transform="scale(0.750)" stroke-width="0.70" font-family="Times" font-size="20.00">
<text x="354.13" y="21.67" text-anchor="middle">Schottisch FC</text>
</g>
<g transform="scale(0.750)" stroke-width="0.70" font-family="Times" font-size="16.00">
<text x="354.13" y="41.30" text-anchor="middle">Hanny Christen. Bd.VIII Zug, Luzern, Uri I. S.140 (st09603) orig. C,F-Dur</text>
<text x="354.13" y="60.13" text-anchor="middle">Tänze auch Escholzmatt (Luzern)</text>
<path stroke="currentColor" fill="none"
	d="M158.23 147.67v-24.00"/>
<path stroke="currentColor" fill="none"
	d="M267.33 147.67v-24.00"/>
<path stroke="currentColor" fill="none"
	d="M367.03 147.67v-24.00"/>
<path stroke="currentColor" fill="none"
	d="M486.13 147.67v-24.00"/>
<path stroke="currentColor" fill="none"
	d="M595.23 147.67v-24.00"/>
<path stroke="currentColor" fill="none"
	d="M694.93 147.67v-24.00"/>
<path stroke="currentColor" fill="none"
	d="M13.33 147.67h681.60m-681.60 -6h681.60m-681.60 -6h681.60m-681.60 -6h681.60m-681.60 -6h681.60"/>
</g>
<g transform="scale(0.750)" stroke-width="0.70" font-family="Helvetica" font-size="12.00">
<text x="58.33" y="100.27">C</text>
<text x="164.43" y="100.27">G7</text>
<text x="376.03" y="100.27">C</text>
<text x="495.73" y="100.27">F</text>
<text x="537.03" y="100.27">G7</text>
<text x="604.23" y="100.27">C</text>
<defs>
<path id="utclef" fill="currentColor" d="m-50 -90
	c-72 -41 -72 -158 52 -188
	c150 -10 220 188 90 256
	c-114 52 -275 0 -293 -136
	c-15 -181 93 -229 220 -334
	c88 -87 79 -133 62 -210
	c-51 33 -94 105 -89 186
	c17 267 36 374 49 574
	c6 96 -19 134 -77 135
	c-80 1 -126 -93 -61 -133
	c85 -41 133 101 31 105
	c23 17 92 37 90 -92
	c-10 -223 -39 -342 -50 -617
	c0 -90 0 -162 96 -232
	c56 72 63 230 22 289
	c-74 106 -257 168 -255 316
	c9 153 148 185 252 133
	c86 -65 29 -192 -80 -176
	c-71 12 -105 67 -59 124"/>
<use id="tclef" transform="scale(0.045)"
	xlink:href="#utclef"/>
</defs>
<use x="25.33" y="147.67" xlink:href="#tclef"/>
<g font-family="serif" font-size="16" font-weight="bold" font-style="normal"
	transform="translate(43.83,147.67) scale(1.2,1)">
	<text y="-1" text-anchor="middle">4</text>
	<text y="-13" text-anchor="middle">2</text>
</g>
<path fill="currentColor"
	d="M58.03 155.57l77.20 0.00v-3.20l-77.20 -0.00"/>
<path fill="currentColor"
	d="M80.73 150.57l15.90 0.00v-3.20l-15.90 -0.00"/>
<defs>
<ellipse id="hd" rx="4.1" ry="2.9"
	transform="rotate(-20)" fill="currentColor"/>
</defs>
<use x="61.83" y="126.67" xlink:href="#hd"/>
<path d="M58.33 126.67v28.00" stroke="currentColor" fill="none"/>
<use x="84.23" y="132.67" xlink:href="#hd"/>
<path d="M80.73 132.67v22.00" stroke="currentColor" fill="none"/>
<use x="100.13" y="126.67" xlink:href="#hd"/>
<path d="M96.63 126.67v28.00" stroke="currentColor" fill="none"/>
<use x="115.93" y="129.67" xlink:href="#hd"/>
<path d="M112.43 129.67v25.00" stroke="currentColor" fill="none"/>
<use x="138.33" y="132.67" xlink:href="#hd"/>
<path d="M134.83 132.67v22.00" stroke="currentColor" fill="none"/>
<path fill="currentColor"
	d="M167.03 154.87l77.20 -8.20v-3.20l-77.20 8.20"/>
<path fill="currentColor"
	d="M212.13 145.17l15.90 -1.70v-3.20l-15.90 1.70"/>
<use x="170.83" y="135.67" xlink:href="#hd"/>
<path d="M167.33 135.67v18.20" stroke="currentColor" fill="none"/>
<use x="193.23" y="129.67" xlink:href="#hd"/>
<path d="M189.73 129.67v21.80" stroke="currentColor" fill="none"/>
<use x="215.63" y="123.67" xlink:href="#hd"/>
<path d="M212.13 123.67v25.50" stroke="currentColor" fill="none"/>
<use x="231.53" y="120.67" xlink:href="#hd"/>
<path d="M228.03 120.67v26.80" stroke="currentColor" fill="none"/>
<defs>
<path id="hl" stroke="currentColor" d="m-6 0h12"/>
</defs>
<use x="247.33" y="117.67" xlink:href="#hl"/>
<use x="247.33" y="117.67" xlink:href="#hd"/>
<path d="M243.83 117.67v28.10" stroke="currentColor" fill="none"/>
<path fill="currentColor"
	d="M276.03 138.67l67.90 0.00v-3.20l-67.90 -0.00"/>
<use x="279.83" y="117.67" xlink:href="#hl"/>
<use x="279.83" y="114.67" xlink:href="#hd"/>
<path d="M276.33 114.67v23.00" stroke="currentColor" fill="none"/>
<use x="302.23" y="120.67" xlink:href="#hd"/>
<path d="M298.73 120.67v17.00" stroke="currentColor" fill="none"/>
<use x="324.63" y="117.67" xlink:href="#hl"/>
<use x="324.63" y="117.67" xlink:href="#hd"/>
<path d="M321.13 117.67v20.00" stroke="currentColor" fill="none"/>
<use x="347.03" y="117.67" xlink:href="#hl"/>
<use x="347.03" y="114.67" xlink:href="#hd"/>
<path d="M343.53 114.67v23.00" stroke="currentColor" fill="none"/>
<path fill="currentColor"
	d="M375.73 149.67l93.10 0.00v-3.20l-93.10 -0.00"/>
<path fill="currentColor"
	d="M420.83 144.67l47.60 0.00v-3.20l-47.60 -0.00"/>
<use x="379.53" y="117.67" xlink:href="#hl"/>
<use x="379.53" y="111.67" xlink:href="#hl"/>
<use x="379.53" y="111.67" xlink:href="#hd"/>
<path d="M376.03 111.67v37.00" stroke="currentColor" fill="none"/>
<use x="401.93" y="126.67" xlink:href="#hd"/>
<path d="M398.43 126.67v22.00" stroke="currentColor" fill="none"/>
<use x="424.33" y="117.67" xlink:href="#hl"/>
<use x="424.33" y="117.67" xlink:href="#hd"/>
<path d="M420.83 117.67v31.00" stroke="currentColor" fill="none"/>
<use x="440.23" y="120.67" xlink:href="#hd"/>
<path d="M436.73 120.67v28.00" stroke="currentColor" fill="none"/>
<use x="456.03" y="123.67" xlink:href="#hd"/>
<path d="M452.53 123.67v25.00" stroke="currentColor" fill="none"/>
<use x="471.93" y="126.67" xlink:href="#hd"/>
<path d="M468.43 126.67v22.00" stroke="currentColor" fill="none"/>
<path fill="currentColor"
	d="M494.83 141.87l77.30 0.00v-3.20l-77.30 -0.00"/>
<path fill="currentColor"
	d="M540.03 136.87l15.90 0.00v-3.20l-15.90 -0.00"/>
<use x="498.63" y="117.67" xlink:href="#hl"/>
<use x="498.63" y="117.67" xlink:href="#hd"/>
<path d="M495.13 117.67v23.20" stroke="currentColor" fill="none"/>
<use x="521.03" y="117.67" xlink:href="#hl"/>
<use x="521.03" y="117.67" xlink:href="#hd"/>
<path d="M517.53 117.67v23.20" stroke="currentColor" fill="none"/>
<use x="543.53" y="117.67" xlink:href="#hl"/>
<use x="543.53" y="117.67" xlink:href="#hd"/>
<path d="M540.03 117.67v23.20" stroke="currentColor" fill="none"/>
<use x="559.43" y="117.67" xlink:href="#hl"/>
<use x="559.43" y="114.67" xlink:href="#hd"/>
<path d="M555.93 114.67v26.20" stroke="currentColor" fill="none"/>
<use x="575.33" y="117.67" xlink:href="#hl"/>
<use x="575.33" y="111.67" xlink:href="#hl"/>
<use x="575.33" y="111.67" xlink:href="#hd"/>
<path d="M571.83 111.67v29.20" stroke="currentColor" fill="none"/>
<path fill="currentColor"
	d="M603.93 138.67l67.90 0.00v-3.20l-67.90 -0.00"/>
<use x="607.83" y="117.67" xlink:href="#hl"/>
<use x="607.83" y="111.67" xlink:href="#hl"/>
<use x="607.83" y="111.67" xlink:href="#hd"/>
<path d="M604.33 111.67v26.00" stroke="currentColor" fill="none"/>
<use x="630.23" y="117.67" xlink:href="#hl"/>
<use x="630.23" y="114.67" xlink:href="#hd"/>
<path d="M626.73 114.67v23.00" stroke="currentColor" fill="none"/>
<use x="652.63" y="117.67" xlink:href="#hl"/>
<use x="652.63" y="117.67" xlink:href="#hd"/>
<path d="M649.13 117.67v20.00" stroke="currentColor" fill="none"/>
<use x="675.03" y="120.67" xlink:href="#hd"/>
<path d="M671.53 120.67v17.00" stroke="currentColor" fill="none"/>
<path stroke="currentColor" fill="none"
	d="M149.73 220.67v-24.00"/>
<path stroke="currentColor" fill="none"
	d="M280.23 220.67v-24.00"/>
<path stroke="currentColor" fill="none"
	d="M414.63 220.67v-24.00"/>
<path stroke="currentColor" fill="none"
	d="M549.03 220.67v-24.00"/>
<path stroke="currentColor" fill="none"
	d="M694.93 220.67v-24.00"/>
<path stroke="currentColor" fill="none"
	d="M13.33 220.67h681.60m-681.60 -6h681.60m-681.60 -6h681.60m-681.60 -6h681.60m-681.60 -6h681.60"/>
<text x="41.93" y="182.27">Dm</text>
<text x="94.73" y="182.27">C7</text>
<text x="162.13" y="182.27">F</text>
<text x="292.13" y="182.27">C</text>
<text x="423.63" y="182.27">G7</text>
<text x="560.93" y="182.27">C</text>
<use x="25.33" y="220.67" xlink:href="#tclef"/>
<path fill="currentColor"
	d="M46.03 220.87l83.20 0.00v-3.20l-83.20 -0.00"/>
<path fill="currentColor"
	d="M71.83 215.87l6.00 0.00v-3.20l-6.00 -0.00"/>
<path fill="currentColor"
	d="M122.83 215.87l6.00 0.00v-3.20l-6.00 -0.00"/>
<use x="49.83" y="196.67" xlink:href="#hd"/>
<circle fill="currentColor" cx="57.83" cy="193.67" r="1.2"/>
<path d="M46.33 196.67v23.20" stroke="currentColor" fill="none"/>
<use x="81.33" y="196.67" xlink:href="#hd"/>
<path d="M77.83 196.67v23.20" stroke="currentColor" fill="none"/>
<use x="100.83" y="199.67" xlink:href="#hd"/>
<circle fill="currentColor" cx="108.83" cy="199.67" r="1.2"/>
<path d="M97.33 199.67v20.20" stroke="currentColor" fill="none"/>
<use x="132.33" y="193.67" xlink:href="#hd"/>
<path d="M128.83 193.67v26.20" stroke="currentColor" fill="none"/>
<path fill="currentColor"
	d="M161.23 225.67l59.30 8.30v-3.20l-59.30 -8.30"/>
<path fill="currentColor"
	d="M161.63 220.67l58.70 8.20v-3.20l-58.70 -8.20"/>
<use x="165.13" y="193.67" xlink:href="#hd"/>
<path d="M161.63 193.67v31.00" stroke="currentColor" fill="none"/>
<use x="184.63" y="196.67" xlink:href="#hd"/>
<path d="M181.13 196.67v30.70" stroke="currentColor" fill="none"/>
<use x="204.23" y="205.67" xlink:href="#hd"/>
<path d="M200.73 205.67v24.50" stroke="currentColor" fill="none"/>
<use x="223.73" y="211.67" xlink:href="#hd"/>
<path d="M220.23 211.67v21.20" stroke="currentColor" fill="none"/>
<use x="245.53" y="205.67" xlink:href="#hd"/>
<path d="M242.03 205.67v20.00" stroke="currentColor" fill="none"/>
<path fill="currentColor"
	d="M291.83 222.67l95.10 0.00v-3.20l-95.10 -0.00"/>
<path fill="currentColor"
	d="M319.83 217.67l19.60 0.00v-3.20l-19.60 -0.00"/>
<use x="295.63" y="193.67" xlink:href="#hd"/>
<path d="M292.13 193.67v28.00" stroke="currentColor" fill="none"/>
<use x="323.33" y="199.67" xlink:href="#hd"/>
<path d="M319.83 199.67v22.00" stroke="currentColor" fill="none"/>
<use x="342.83" y="196.67" xlink:href="#hd"/>
<path d="M339.33 196.67v25.00" stroke="currentColor" fill="none"/>
<use x="362.43" y="193.67" xlink:href="#hd"/>
<path d="M358.93 193.67v28.00" stroke="currentColor" fill="none"/>
<use x="390.03" y="199.67" xlink:href="#hd"/>
<path d="M386.53 199.67v22.00" stroke="currentColor" fill="none"/>
<path fill="currentColor"
	d="M426.23 226.47l95.10 -5.60v-3.20l-95.10 5.60"/>
<path fill="currentColor"
	d="M454.23 219.87l19.60 -1.20v-3.20l-19.60 1.20"/>
<use x="430.03" y="202.67" xlink:href="#hd"/>
<path d="M426.53 202.67v22.80" stroke="currentColor" fill="none"/>
<use x="457.73" y="202.67" xlink:href="#hd"/>
<path d="M454.23 202.67v21.20" stroke="currentColor" fill="none"/>
<use x="477.23" y="199.67" xlink:href="#hd"/>
<path d="M473.73 199.67v23.00" stroke="currentColor" fill="none"/>
<use x="496.83" y="196.67" xlink:href="#hd"/>
<path d="M493.33 196.67v24.90" stroke="currentColor" fill="none"/>
<use x="524.53" y="193.67" xlink:href="#hd"/>
<path d="M521.03 193.67v26.30" stroke="currentColor" fill="none"/>
<path fill="currentColor"
	d="M560.63 222.67l106.60 0.00v-3.20l-106.60 -0.00"/>
<path fill="currentColor"
	d="M560.93 217.67l58.70 0.00v-3.20l-58.70 -0.00"/>
<use x="564.43" y="199.67" xlink:href="#hd"/>
<path d="M560.93 199.67v22.00" stroke="currentColor" fill="none"/>
<use x="584.03" y="190.67" xlink:href="#hl"/>
<use x="584.03" y="184.67" xlink:href="#hl"/>
<use x="584.03" y="184.67" xlink:href="#hd"/>
<path d="M580.53 184.67v37.00" stroke="currentColor" fill="none"/>
<use x="603.53" y="190.67" xlink:href="#hl"/>
<use x="603.53" y="187.67" xlink:href="#hd"/>
<path d="M600.03 187.67v34.00" stroke="currentColor" fill="none"/>
<use x="623.13" y="190.67" xlink:href="#hl"/>
<use x="623.13" y="190.67" xlink:href="#hd"/>
<path d="M619.63 190.67v31.00" stroke="currentColor" fill="none"/>
<use x="642.63" y="193.67" xlink:href="#hd"/>
<path d="M639.13 193.67v28.00" stroke="currentColor" fill="none"/>
<use x="670.33" y="199.67" xlink:href="#hd"/>
<path d="M666.83 199.67v22.00" stroke="currentColor" fill="none"/>
</g>
<g transform="scale(0.750)" stroke-width="0.70" font-family="Times" font-size="15.00">
<text x="326.03" y="260.67">D</text>
<path stroke="currentColor" fill="none"
	d="M130.53 331.67v-24.00"/>
<path stroke="currentColor" fill="none" stroke-width="3"
	d="M223.83 331.67v-24.00"/>
<path stroke="currentColor" fill="none"
	d="M219.33 331.67v-24.00"/>
<defs>
<g id="rdots" fill="currentColor">
	<circle cx="0" cy="-9" r="1.2"/>
	<circle cx="0" cy="-15" r="1.2"/>
</g>
</defs>
<use x="215.33" y="331.67" xlink:href="#rdots"/>
<path stroke="currentColor" fill="none"
	d="M325.03 331.67v-24.00"/>
<path stroke="currentColor" fill="none"
	d="M322.03 331.67v-24.00"/>
<path stroke="currentColor" fill="none"
	d="M434.43 331.67v-24.00"/>
<path stroke="currentColor" fill="none"
	d="M508.83 331.67v-24.00"/>
<path stroke="currentColor" fill="none"
	d="M601.73 331.67v-24.00"/>
<path stroke="currentColor" fill="none"
	d="M694.93 331.67v-24.00"/>
<path stroke="currentColor" fill="none"
	d="M13.33 331.67h681.60m-681.60 -6h681.60m-681.60 -6h681.60m-681.60 -6h681.60m-681.60 -6h681.60"/>
</g>
<g transform="scale(0.750)" stroke-width="0.70" font-family="Helvetica" font-size="12.00">
<text x="43.33" y="281.27">D7</text>
<text x="80.23" y="281.27">G7</text>
<text x="146.03" y="281.27">C</text>
<text x="240.83" y="281.27">C</text>
<text x="273.43" y="360.27">cinZ</text>
<text x="350.13" y="281.27">G</text>
<text x="514.83" y="281.27">D7</text>
<text x="610.43" y="281.27">G</text>
</g>
<g transform="scale(0.750)" stroke-width="0.70" font-family="Times" font-size="13.00">
<text x="134.53" y="281.07">1</text>
<path stroke="currentColor" fill="none"
	d="M130.53 269.67v20M130.53 269.67h86.80v20"/>
<text x="229.33" y="281.07">2</text>
<path stroke="currentColor" fill="none"
	d="M225.33 269.67v20M225.33 269.67h99.70v20"/>
<use x="25.33" y="331.67" xlink:href="#tclef"/>
<path fill="currentColor"
	d="M46.03 333.57l69.30 0.00v-3.20l-69.30 -0.00"/>
<path fill="currentColor"
	d="M101.63 328.57l13.30 0.00v-3.20l-13.30 -0.00"/>
<use x="49.83" y="313.67" xlink:href="#hd"/>
<path d="M46.33 313.67v19.00" stroke="currentColor" fill="none"/>
<use x="68.23" y="301.67" xlink:href="#hl"/>
<use x="68.23" y="295.67" xlink:href="#hl"/>
<use x="68.23" y="292.67" xlink:href="#hd"/>
<path d="M64.73 292.67v40.00" stroke="currentColor" fill="none"/>
<use x="86.73" y="304.67" xlink:href="#hd"/>
<path d="M83.23 304.67v28.00" stroke="currentColor" fill="none"/>
<use x="105.13" y="310.67" xlink:href="#hd"/>
<path d="M101.63 310.67v22.00" stroke="currentColor" fill="none"/>
<use x="118.53" y="307.67" xlink:href="#hd"/>
<path d="M115.03 307.67v25.00" stroke="currentColor" fill="none"/>
<path fill="currentColor"
	d="M145.63 334.57l56.00 0.00v-3.20l-56.00 -0.00"/>
<use x="149.53" y="304.67" xlink:href="#hd"/>
<path d="M146.03 304.67v29.00" stroke="currentColor" fill="none"/>
<use x="167.93" y="310.67" xlink:href="#hd"/>
<path d="M164.43 310.67v23.00" stroke="currentColor" fill="none"/>
<use x="186.43" y="316.67" xlink:href="#hd"/>
<path d="M182.93 316.67v17.00" stroke="currentColor" fill="none"/>
<use x="204.83" y="304.67" xlink:href="#hd"/>
<path d="M201.33 304.67v29.00" stroke="currentColor" fill="none"/>
<path fill="currentColor"
	d="M240.53 335.27l64.40 11.30v-3.20l-64.40 -11.30"/>
<path fill="currentColor"
	d="M277.93 336.87l13.30 2.30v-3.20l-13.30 -2.30"/>
<use x="244.33" y="301.67" xlink:href="#hl"/>
<use x="244.33" y="295.67" xlink:href="#hl"/>
<use x="244.33" y="295.67" xlink:href="#hd"/>
<path d="M240.83 295.67v38.70" stroke="currentColor" fill="none"/>
<use x="262.93" y="301.67" xlink:href="#hl"/>
<use x="262.93" y="295.67" xlink:href="#hl"/>
<use x="262.93" y="295.67" xlink:href="#hd"/>
<path d="M259.43 295.67v42.00" stroke="currentColor" fill="none"/>
<use x="281.43" y="319.67" xlink:href="#hd"/>
<path d="M277.93 319.67v21.20" stroke="currentColor" fill="none"/>
<use x="294.73" y="316.67" xlink:href="#hd"/>
<path d="M291.23 316.67v26.50" stroke="currentColor" fill="none"/>
<use x="308.03" y="325.67" xlink:href="#hd"/>
<path d="M304.53 325.67v19.90" stroke="currentColor" fill="none"/>
<defs>
<path id="usharp" fill="currentColor" d="
	m136 -702
	v890
	h32
	v-890
	m128 840
	h32
	v-888
	h-32
	m-232 286
	v116
	l338 -96
	v-116
	m-338 442
	v116
	l338 -98
	v-114"/>
<use id="sh0" transform="translate(-4,5) scale(0.018)"
	xlink:href="#usharp"/>
</defs>
<use x="336.03" y="307.67" xlink:href="#sh0"/>
<use x="354.03" y="313.67" xlink:href="#hd"/>
<path d="M350.53 313.67v20.00" stroke="currentColor" fill="none"/>
<path fill="currentColor"
	d="M378.53 341.97l40.70 -8.00v-3.20l-40.70 8.00"/>
<path fill="currentColor"
	d="M378.83 336.87l40.00 -7.90v-3.20l-40.00 7.90"/>
<use x="382.33" y="319.67" xlink:href="#hd"/>
<path d="M378.83 319.67v21.20" stroke="currentColor" fill="none"/>
<use x="395.63" y="313.67" xlink:href="#hd"/>
<path d="M392.13 313.67v24.60" stroke="currentColor" fill="none"/>
<use x="409.03" y="304.67" xlink:href="#hd"/>
<path d="M405.53 304.67v31.00" stroke="currentColor" fill="none"/>
<use x="422.33" y="301.67" xlink:href="#hl"/>
<use x="422.33" y="298.67" xlink:href="#hd"/>
<path d="M418.83 298.67v34.30" stroke="currentColor" fill="none"/>
<path fill="currentColor"
	d="M443.03 319.87l19.30 0.00v-3.20l-19.30 -0.00"/>
<use x="446.93" y="301.67" xlink:href="#hl"/>
<use x="446.93" y="295.67" xlink:href="#hl"/>
<use x="446.93" y="292.67" xlink:href="#hd"/>
<path d="M443.43 292.67v26.20" stroke="currentColor" fill="none"/>
<use x="465.53" y="301.67" xlink:href="#hl"/>
<use x="465.53" y="298.67" xlink:href="#hd"/>
<path d="M462.03 298.67v20.20" stroke="currentColor" fill="none"/>
<use x="485.83" y="304.67" xlink:href="#hd"/>
<path d="M482.33 304.67v20.00" stroke="currentColor" fill="none"/>
<use x="521.33" y="307.67" xlink:href="#hd"/>
<path d="M517.83 307.67v20.00" stroke="currentColor" fill="none"/>
<path fill="currentColor"
	d="M545.83 333.57l40.70 0.00v-3.20l-40.70 -0.00"/>
<path fill="currentColor"
	d="M546.13 328.57l40.00 0.00v-3.20l-40.00 -0.00"/>
<use x="549.63" y="313.67" xlink:href="#hd"/>
<path d="M546.13 313.67v19.00" stroke="currentColor" fill="none"/>
<use x="563.03" y="313.67" xlink:href="#hd"/>
<path d="M559.53 313.67v19.00" stroke="currentColor" fill="none"/>
<use x="576.33" y="307.67" xlink:href="#hd"/>
<path d="M572.83 307.67v25.00" stroke="currentColor" fill="none"/>
<use x="589.73" y="313.67" xlink:href="#hd"/>
<path d="M586.23 313.67v19.00" stroke="currentColor" fill="none"/>
<path fill="currentColor"
	d="M610.43 339.57l69.30 0.00v-3.20l-69.30 -0.00"/>
<path fill="currentColor"
	d="M666.03 334.57l13.30 0.00v-3.20l-13.30 -0.00"/>
<use x="614.23" y="310.67" xlink:href="#hd"/>
<path d="M610.73 310.67v28.00" stroke="currentColor" fill="none"/>
<use x="632.63" y="313.67" xlink:href="#hd"/>
<path d="M629.13 313.67v25.00" stroke="currentColor" fill="none"/>
<use x="651.13" y="319.67" xlink:href="#hd"/>
<path d="M647.63 319.67v19.00" stroke="currentColor" fill="none"/>
<use x="669.53" y="313.67" xlink:href="#hd"/>
<path d="M666.03 313.67v25.00" stroke="currentColor" fill="none"/>
<use x="682.93" y="310.67" xlink:href="#hd"/>
<path d="M679.43 310.67v28.00" stroke="currentColor" fill="none"/>
<path stroke="currentColor" fill="none"
	d="M157.43 417.07v-24.00"/>
<path stroke="currentColor" fill="none"
	d="M270.53 417.07v-24.00"/>
<path stroke="currentColor" fill="none"
	d="M426.73 417.07v-24.00"/>
<path stroke="currentColor" fill="none" stroke-width="3"
	d="M538.43 417.07v-24.00"/>
<path stroke="currentColor" fill="none"
	d="M533.93 417.07v-24.00"/>
<path stroke="currentColor" fill="none"
	d="M13.33 417.07h526.60m-526.60 -6h526.60m-526.60 -6h526.60m-526.60 -6h526.60m-526.60 -6h526.60"/>
</g>
<g transform="scale(0.750)" stroke-width="0.70" font-family="Helvetica" font-size="12.00">
<text x="165.03" y="378.67">D7</text>
<text x="437.03" y="378.67">G</text>
<text x="514.23" y="428.67">r.</text>
<use x="25.33" y="417.07" xlink:href="#tclef"/>
<use x="40.33" y="393.07" xlink:href="#sh0"/>
<path fill="currentColor"
	d="M54.53 424.27l77.10 0.00v-3.20l-77.10 -0.00"/>
<use x="58.33" y="399.07" xlink:href="#hd"/>
<path d="M54.83 399.07v24.20" stroke="currentColor" fill="none"/>
<use x="83.83" y="390.07" xlink:href="#hd"/>
<path d="M80.33 390.07v33.20" stroke="currentColor" fill="none"/>
<use x="109.23" y="405.07" xlink:href="#hd"/>
<path d="M105.73 405.07v18.20" stroke="currentColor" fill="none"/>
<use x="134.73" y="390.07" xlink:href="#hd"/>
<path d="M131.23 390.07v33.20" stroke="currentColor" fill="none"/>
<path fill="currentColor"
	d="M167.73 411.27l77.10 0.00v-3.20l-77.10 -0.00"/>
<use x="171.53" y="390.07" xlink:href="#hd"/>
<path d="M168.03 390.07v20.20" stroke="currentColor" fill="none"/>
<use x="197.03" y="393.07" xlink:href="#hd"/>
<path d="M193.53 393.07v17.20" stroke="currentColor" fill="none"/>
<use x="222.43" y="393.07" xlink:href="#hd"/>
<path d="M218.93 393.07v17.20" stroke="currentColor" fill="none"/>
<use x="247.93" y="387.07" xlink:href="#hl"/>
<use x="247.93" y="387.07" xlink:href="#hd"/>
<path d="M244.43 387.07v23.20" stroke="currentColor" fill="none"/>
<path fill="currentColor"
	d="M280.93 419.07l126.70 0.00v-3.20l-126.70 -0.00"/>
<path fill="currentColor"
	d="M281.23 414.07l126.00 0.00v-3.20l-126.00 -0.00"/>
<use x="284.73" y="387.07" xlink:href="#hl"/>
<use x="284.73" y="381.07" xlink:href="#hl"/>
<use x="284.73" y="381.07" xlink:href="#hd"/>
<path d="M281.23 381.07v37.00" stroke="currentColor" fill="none"/>
<use x="302.73" y="393.07" xlink:href="#hd"/>
<path d="M299.23 393.07v25.00" stroke="currentColor" fill="none"/>
<use x="320.73" y="387.07" xlink:href="#hl"/>
<use x="320.73" y="387.07" xlink:href="#hd"/>
<path d="M317.23 387.07v31.00" stroke="currentColor" fill="none"/>
<use x="338.73" y="399.07" xlink:href="#hd"/>
<path d="M335.23 399.07v19.00" stroke="currentColor" fill="none"/>
<use x="356.73" y="393.07" xlink:href="#hd"/>
<path d="M353.23 393.07v25.00" stroke="currentColor" fill="none"/>
<use x="374.73" y="399.07" xlink:href="#hd"/>
<path d="M371.23 399.07v19.00" stroke="currentColor" fill="none"/>
<use x="392.73" y="387.07" xlink:href="#hl"/>
<use x="392.73" y="381.07" xlink:href="#hl"/>
<use x="392.73" y="381.07" xlink:href="#hd"/>
<path d="M389.23 381.07v37.00" stroke="currentColor" fill="none"/>
<use x="410.73" y="393.07" xlink:href="#hd"/>
<path d="M407.23 393.07v25.00" stroke="currentColor" fill="none"/>
<path fill="currentColor"
	d="M437.03 411.27l77.10 0.00v-3.20l-77.10 -0.00"/>
<use x="440.83" y="390.07" xlink:href="#hd"/>
<path d="M437.33 390.07v20.20" stroke="currentColor" fill="none"/>
<use x="466.33" y="387.07" xlink:href="#hl"/>
<use x="466.33" y="384.07" xlink:href="#hd"/>
<path d="M462.83 384.07v26.20" stroke="currentColor" fill="none"/>
<use x="491.83" y="390.07" xlink:href="#hd"/>
<path d="M488.33 390.07v20.20" stroke="currentColor" fill="none"/>
<use x="517.33" y="393.07" xlink:href="#hd"/>
<path d="M513.83 393.07v17.20" stroke="currentColor" fill="none"/>
<defs>
<circle id="stc" fill="currentColor" cx="0" cy="-3" r="1.2"/>
</defs>
<use x="517.33" y="389.07" xlink:href="#stc"/>
</g>
</svg>
