<?xml version="1.0" standalone="no"?>
<!DOCTYPE svg PUBLIC "-//W3C//DTD SVG 1.1//EN"
	"http://www.w3.org/Graphics/SVG/1.1/DTD/svg11.dtd">
<svg xmlns="http://www.w3.org/2000/svg" version="1.1"
	xmlns:xlink="http://www.w3.org/1999/xlink"
	xml:space='preserve' color="black"
	width="7.38in" height="3.45in" viewBox="0 0 531 248">
<title>data/results/biggest_11/abc/342.abc (342) tune 1</title>
<!-- Creator: abcm2ps-7.8.14 -->
<!-- CreationDate: Aug  9, 2015 23:50 -->
<!-- CommandLine: -g data/results/biggest_11/abc/342.abc -O /home/allanino/Dropbox/Trabalhos/folkme/svg/342.svg -->
<g transform="scale(0.750)" stroke-width="0.70" font-family="Times" font-size="20.00">
<text x="354.13" y="21.67" text-anchor="middle">Miss Bazauchal come an daind i rian in</text>
<path stroke="currentColor" fill="none"
	d="M141.23 98.01v-24.00"/>
<path stroke="currentColor" fill="none"
	d="M220.03 98.01v-24.00"/>
<path stroke="currentColor" fill="none"
	d="M298.93 98.01v-24.00"/>
<path stroke="currentColor" fill="none"
	d="M367.23 98.01v-24.00"/>
<path stroke="currentColor" fill="none"
	d="M446.13 98.01v-24.00"/>
<path stroke="currentColor" fill="none"
	d="M524.93 98.01v-24.00"/>
<path stroke="currentColor" fill="none"
	d="M603.83 98.01v-24.00"/>
<path stroke="currentColor" fill="none"
	d="M694.93 98.01v-24.00"/>
<path stroke="currentColor" fill="none"
	d="M13.33 98.01h681.60m-681.60 -6h681.60m-681.60 -6h681.60m-681.60 -6h681.60m-681.60 -6h681.60"/>
<defs>
<path id="utclef" fill="currentColor" d="m-50 -90
	c-72 -41 -72 -158 52 -188
	c150 -10 220 188 90 256
	c-114 52 -275 0 -293 -136
	c-15 -181 93 -229 220 -334
	c88 -87 79 -133 62 -210
	c-51 33 -94 105 -89 186
	c17 267 36 374 49 574
	c6 96 -19 134 -77 135
	c-80 1 -126 -93 -61 -133
	c85 -41 133 101 31 105
	c23 17 92 37 90 -92
	c-10 -223 -39 -342 -50 -617
	c0 -90 0 -162 96 -232
	c56 72 63 230 22 289
	c-74 106 -257 168 -255 316
	c9 153 148 185 252 133
	c86 -65 29 -192 -80 -176
	c-71 12 -105 67 -59 124"/>
<use id="tclef" transform="scale(0.045)"
	xlink:href="#utclef"/>
</defs>
<use x="25.33" y="98.01" xlink:href="#tclef"/>
<defs>
<path id="usharp" fill="currentColor" d="
	m136 -702
	v890
	h32
	v-890
	m128 840
	h32
	v-888
	h-32
	m-232 286
	v116
	l338 -96
	v-116
	m-338 442
	v116
	l338 -98
	v-114"/>
<use id="sh0" transform="translate(-4,5) scale(0.018)"
	xlink:href="#usharp"/>
</defs>
<use x="40.33" y="74.01" xlink:href="#sh0"/>
<g font-family="serif" font-size="16" font-weight="bold" font-style="normal"
	transform="translate(56.33,98.01) scale(1.2,1)">
	<text y="-1" text-anchor="middle">8</text>
	<text y="-13" text-anchor="middle">6</text>
</g>
<defs>
<ellipse id="hd" rx="4.1" ry="2.9"
	transform="rotate(-20)" fill="currentColor"/>
</defs>
<use x="74.33" y="89.01" xlink:href="#hd"/>
<path d="M77.83 89.01v-20.00" stroke="currentColor" fill="none"/>
<use x="94.63" y="80.01" xlink:href="#hd"/>
<path d="M91.13 80.01v20.00" stroke="currentColor" fill="none"/>
<path fill="currentColor"
	d="M91.13 100.01c0.6 -5.6 9.6 -9 5.6 -18.4
	c1.6 6 -1.3 11.6 -5.6 12.8
"/>
<use x="109.23" y="80.01" xlink:href="#hd"/>
<path d="M105.73 80.01v20.00" stroke="currentColor" fill="none"/>
<use x="129.03" y="86.01" xlink:href="#hd"/>
<path d="M125.53 86.01v20.00" stroke="currentColor" fill="none"/>
<path fill="currentColor"
	d="M125.53 106.01c0.6 -5.6 9.6 -9 5.6 -18.4
	c1.6 6 -1.3 11.6 -5.6 12.8
"/>
<use x="153.73" y="83.01" xlink:href="#hd"/>
<path d="M150.23 83.01v20.00" stroke="currentColor" fill="none"/>
<use x="173.53" y="83.01" xlink:href="#hd"/>
<path d="M170.03 83.01v20.00" stroke="currentColor" fill="none"/>
<path fill="currentColor"
	d="M170.03 103.01c0.6 -5.6 9.6 -9 5.6 -18.4
	c1.6 6 -1.3 11.6 -5.6 12.8
"/>
<use x="188.13" y="80.01" xlink:href="#hd"/>
<path d="M184.63 80.01v20.00" stroke="currentColor" fill="none"/>
<use x="207.93" y="77.01" xlink:href="#hd"/>
<path d="M204.43 77.01v20.00" stroke="currentColor" fill="none"/>
<path fill="currentColor"
	d="M204.43 97.01c0.6 -5.6 9.6 -9 5.6 -18.4
	c1.6 6 -1.3 11.6 -5.6 12.8
"/>
<use x="232.53" y="80.01" xlink:href="#hd"/>
<path d="M229.03 80.01v20.00" stroke="currentColor" fill="none"/>
<use x="252.43" y="80.01" xlink:href="#hd"/>
<path d="M248.93 80.01v20.00" stroke="currentColor" fill="none"/>
<path fill="currentColor"
	d="M248.93 100.01c0.6 -5.6 9.6 -9 5.6 -18.4
	c1.6 6 -1.3 11.6 -5.6 12.8
"/>
<use x="266.93" y="77.01" xlink:href="#hd"/>
<path d="M263.43 77.01v20.00" stroke="currentColor" fill="none"/>
<use x="286.73" y="80.01" xlink:href="#hd"/>
<path d="M283.23 80.01v20.00" stroke="currentColor" fill="none"/>
<path fill="currentColor"
	d="M283.23 100.01c0.6 -5.6 9.6 -9 5.6 -18.4
	c1.6 6 -1.3 11.6 -5.6 12.8
"/>
<use x="311.43" y="74.01" xlink:href="#hd"/>
<circle fill="currentColor" cx="319.43" cy="71.01" r="1.2"/>
<path d="M307.93 74.01v20.00" stroke="currentColor" fill="none"/>
<use x="335.23" y="74.01" xlink:href="#hd"/>
<path d="M331.73 74.01v20.00" stroke="currentColor" fill="none"/>
<use x="355.13" y="71.01" xlink:href="#hd"/>
<path d="M351.63 71.01v20.00" stroke="currentColor" fill="none"/>
<path fill="currentColor"
	d="M351.63 91.01c0.6 -5.6 9.6 -9 5.6 -18.4
	c1.6 6 -1.3 11.6 -5.6 12.8
"/>
<defs>
<path id="hl" stroke="currentColor" d="m-6 0h12"/>
</defs>
<use x="379.73" y="68.01" xlink:href="#hl"/>
<use x="379.73" y="68.01" xlink:href="#hd"/>
<path d="M376.23 68.01v20.00" stroke="currentColor" fill="none"/>
<use x="399.53" y="74.01" xlink:href="#hd"/>
<path d="M396.03 74.01v20.00" stroke="currentColor" fill="none"/>
<path fill="currentColor"
	d="M396.03 94.01c0.6 -5.6 9.6 -9 5.6 -18.4
	c1.6 6 -1.3 11.6 -5.6 12.8
"/>
<use x="414.13" y="71.01" xlink:href="#hd"/>
<path d="M410.63 71.01v20.00" stroke="currentColor" fill="none"/>
<use x="433.93" y="77.01" xlink:href="#hd"/>
<path d="M430.43 77.01v20.00" stroke="currentColor" fill="none"/>
<path fill="currentColor"
	d="M430.43 97.01c0.6 -5.6 9.6 -9 5.6 -18.4
	c1.6 6 -1.3 11.6 -5.6 12.8
"/>
<use x="458.63" y="80.01" xlink:href="#hd"/>
<path d="M455.13 80.01v20.00" stroke="currentColor" fill="none"/>
<use x="478.43" y="80.01" xlink:href="#hd"/>
<path d="M474.93 80.01v20.00" stroke="currentColor" fill="none"/>
<path fill="currentColor"
	d="M474.93 100.01c0.6 -5.6 9.6 -9 5.6 -18.4
	c1.6 6 -1.3 11.6 -5.6 12.8
"/>
<use x="493.03" y="77.01" xlink:href="#hd"/>
<path d="M489.53 77.01v20.00" stroke="currentColor" fill="none"/>
<use x="512.83" y="80.01" xlink:href="#hd"/>
<path d="M509.33 80.01v20.00" stroke="currentColor" fill="none"/>
<path fill="currentColor"
	d="M509.33 100.01c0.6 -5.6 9.6 -9 5.6 -18.4
	c1.6 6 -1.3 11.6 -5.6 12.8
"/>
<use x="537.43" y="74.01" xlink:href="#hd"/>
<path d="M533.93 74.01v20.00" stroke="currentColor" fill="none"/>
<use x="557.23" y="80.01" xlink:href="#hd"/>
<path d="M553.73 80.01v20.00" stroke="currentColor" fill="none"/>
<path fill="currentColor"
	d="M553.73 100.01c0.6 -5.6 9.6 -9 5.6 -18.4
	c1.6 6 -1.3 11.6 -5.6 12.8
"/>
<use x="571.83" y="77.01" xlink:href="#hd"/>
<path d="M568.33 77.01v20.00" stroke="currentColor" fill="none"/>
<use x="591.63" y="80.01" xlink:href="#hd"/>
<path d="M588.13 80.01v20.00" stroke="currentColor" fill="none"/>
<path fill="currentColor"
	d="M588.13 100.01c0.6 -5.6 9.6 -9 5.6 -18.4
	c1.6 6 -1.3 11.6 -5.6 12.8
"/>
<path fill="currentColor"
	d="M619.43 63.81l67.20 0.00v3.20l-67.20 -0.00"/>
<use x="616.33" y="83.01" xlink:href="#hd"/>
<path d="M619.83 83.01v-18.20" stroke="currentColor" fill="none"/>
<use x="629.63" y="89.01" xlink:href="#hd"/>
<path d="M633.13 89.01v-24.20" stroke="currentColor" fill="none"/>
<use x="642.93" y="95.01" xlink:href="#hd"/>
<path d="M646.43 95.01v-30.20" stroke="currentColor" fill="none"/>
<use x="656.23" y="89.01" xlink:href="#hd"/>
<path d="M659.73 89.01v-24.20" stroke="currentColor" fill="none"/>
<use x="669.53" y="86.01" xlink:href="#hd"/>
<path d="M673.03 86.01v-21.20" stroke="currentColor" fill="none"/>
<use x="682.83" y="83.01" xlink:href="#hd"/>
<path d="M686.33 83.01v-18.20" stroke="currentColor" fill="none"/>
<path stroke="currentColor" fill="none"
	d="M210.63 168.01v-24.00"/>
<path stroke="currentColor" fill="none"
	d="M365.73 168.01v-24.00"/>
<path stroke="currentColor" fill="none"
	d="M543.93 168.01v-24.00"/>
<path stroke="currentColor" fill="none" stroke-width="3"
	d="M693.43 168.01v-24.00"/>
<path stroke="currentColor" fill="none"
	d="M688.93 168.01v-24.00"/>
<defs>
<g id="rdots" fill="currentColor">
	<circle cx="0" cy="-9" r="1.2"/>
	<circle cx="0" cy="-15" r="1.2"/>
</g>
</defs>
<use x="684.93" y="168.01" xlink:href="#rdots"/>
<path stroke="currentColor" fill="none"
	d="M13.33 168.01h681.60m-681.60 -6h681.60m-681.60 -6h681.60m-681.60 -6h681.60m-681.60 -6h681.60"/>
<use x="25.33" y="168.01" xlink:href="#tclef"/>
<use x="40.33" y="144.01" xlink:href="#sh0"/>
<use x="58.33" y="150.01" xlink:href="#hd"/>
<path d="M54.83 150.01v20.00" stroke="currentColor" fill="none"/>
<use x="104.83" y="150.01" xlink:href="#hd"/>
<path d="M101.33 150.01v20.00" stroke="currentColor" fill="none"/>
<path fill="currentColor"
	d="M101.33 170.01c0.6 -5.6 9.6 -9 5.6 -18.4
	c1.6 6 -1.3 11.6 -5.6 12.8
"/>
<use x="137.83" y="150.01" xlink:href="#hd"/>
<path d="M134.33 150.01v20.00" stroke="currentColor" fill="none"/>
<use x="184.33" y="153.01" xlink:href="#hd"/>
<path d="M180.83 153.01v20.00" stroke="currentColor" fill="none"/>
<path fill="currentColor"
	d="M180.83 173.01c0.6 -5.6 9.6 -9 5.6 -18.4
	c1.6 6 -1.3 11.6 -5.6 12.8
"/>
<use x="227.13" y="150.01" xlink:href="#hd"/>
<circle fill="currentColor" cx="235.13" cy="147.01" r="1.2"/>
<path d="M223.63 150.01v20.00" stroke="currentColor" fill="none"/>
<path fill="currentColor"
	d="M276.23 169.51l59.90 -5.00v-3.20l-59.90 5.00"/>
<use x="280.13" y="150.01" xlink:href="#hd"/>
<path d="M276.63 150.01v18.50" stroke="currentColor" fill="none"/>
<use x="309.73" y="147.01" xlink:href="#hd"/>
<path d="M306.23 147.01v19.00" stroke="currentColor" fill="none"/>
<use x="339.33" y="144.01" xlink:href="#hd"/>
<path d="M335.83 144.01v19.50" stroke="currentColor" fill="none"/>
<use x="382.13" y="150.01" xlink:href="#hd"/>
<path d="M378.63 150.01v20.00" stroke="currentColor" fill="none"/>
<path fill="currentColor"
	d="M424.83 178.21l89.60 0.00v-3.20l-89.60 -0.00"/>
<use x="428.73" y="150.01" xlink:href="#hd"/>
<path d="M425.23 150.01v27.20" stroke="currentColor" fill="none"/>
<use x="458.33" y="159.01" xlink:href="#hd"/>
<path d="M454.83 159.01v18.20" stroke="currentColor" fill="none"/>
<use x="487.93" y="150.01" xlink:href="#hd"/>
<path d="M484.43 150.01v27.20" stroke="currentColor" fill="none"/>
<use x="517.53" y="156.01" xlink:href="#hd"/>
<path d="M514.03 156.01v21.20" stroke="currentColor" fill="none"/>
<path fill="currentColor"
	d="M563.53 133.81l59.90 8.60v3.20l-59.90 -8.60"/>
<use x="560.33" y="153.01" xlink:href="#hd"/>
<path d="M563.83 153.01v-18.20" stroke="currentColor" fill="none"/>
<use x="590.03" y="159.01" xlink:href="#hd"/>
<path d="M593.53 159.01v-19.90" stroke="currentColor" fill="none"/>
<use x="619.63" y="165.01" xlink:href="#hd"/>
<path d="M623.13 165.01v-21.70" stroke="currentColor" fill="none"/>
<use x="652.53" y="162.01" xlink:href="#hd"/>
<circle fill="currentColor" cx="660.53" cy="159.01" r="1.2"/>
<path d="M656.03 162.01v-20.00" stroke="currentColor" fill="none"/>
<use x="64.83" y="238.01" xlink:href="#rdots"/>
<path stroke="currentColor" fill="none"
	d="M60.83 238.01v-24.00"/>
<path stroke="currentColor" fill="none" stroke-width="3"
	d="M56.33 238.01v-24.00"/>
<path stroke="currentColor" fill="none"
	d="M208.83 238.01v-24.00"/>
<path stroke="currentColor" fill="none"
	d="M366.83 238.01v-24.00"/>
<path stroke="currentColor" fill="none"
	d="M536.93 238.01v-24.00"/>
<path stroke="currentColor" fill="none"
	d="M694.93 238.01v-24.00"/>
<path stroke="currentColor" fill="none"
	d="M13.33 238.01h681.60m-681.60 -6h681.60m-681.60 -6h681.60m-681.60 -6h681.60m-681.60 -6h681.60"/>
<use x="25.33" y="238.01" xlink:href="#tclef"/>
<use x="40.33" y="214.01" xlink:href="#sh0"/>
<use x="81.53" y="223.01" xlink:href="#hd"/>
<circle fill="currentColor" cx="89.53" cy="223.01" r="1.2"/>
<path d="M78.03 223.01v20.00" stroke="currentColor" fill="none"/>
<path fill="currentColor"
	d="M130.23 211.01l57.30 0.00v3.20l-57.30 -0.00"/>
<use x="127.03" y="229.01" xlink:href="#hd"/>
<path d="M130.53 229.01v-17.00" stroke="currentColor" fill="none"/>
<use x="155.33" y="235.01" xlink:href="#hd"/>
<path d="M158.83 235.01v-23.00" stroke="currentColor" fill="none"/>
<use x="183.63" y="229.01" xlink:href="#hd"/>
<path d="M187.13 229.01v-17.00" stroke="currentColor" fill="none"/>
<use x="224.53" y="220.01" xlink:href="#hd"/>
<path d="M221.03 220.01v20.00" stroke="currentColor" fill="none"/>
<use x="268.93" y="226.01" xlink:href="#hd"/>
<path d="M265.43 226.01v20.00" stroke="currentColor" fill="none"/>
<path fill="currentColor"
	d="M265.43 246.01c0.6 -5.6 9.6 -9 5.6 -18.4
	c1.6 6 -1.3 11.6 -5.6 12.8
"/>
<use x="297.23" y="232.01" xlink:href="#hd"/>
<path d="M300.73 232.01v-20.00" stroke="currentColor" fill="none"/>
<use x="341.63" y="226.01" xlink:href="#hd"/>
<path d="M345.13 226.01v-20.00" stroke="currentColor" fill="none"/>
<path fill="currentColor"
	d="	M345.13 206.01c0.6 5.6 9.6 9 5.6 18.4
	c1.6 -6 -1.3 -11.6 -5.6 -12.8
"/>
<use x="382.53" y="223.01" xlink:href="#hd"/>
<path d="M379.03 223.01v20.00" stroke="currentColor" fill="none"/>
<path fill="currentColor"
	d="M423.13 248.21l85.50 -7.50v-3.20l-85.50 7.50"/>
<use x="426.93" y="229.01" xlink:href="#hd"/>
<path d="M423.43 229.01v18.20" stroke="currentColor" fill="none"/>
<use x="455.23" y="226.01" xlink:href="#hd"/>
<path d="M451.73 226.01v18.70" stroke="currentColor" fill="none"/>
<use x="483.53" y="223.01" xlink:href="#hd"/>
<path d="M480.03 223.01v19.30" stroke="currentColor" fill="none"/>
<use x="511.83" y="220.01" xlink:href="#hd"/>
<path d="M508.33 220.01v19.80" stroke="currentColor" fill="none"/>
<use x="552.63" y="217.01" xlink:href="#hd"/>
<path d="M549.13 217.01v20.00" stroke="currentColor" fill="none"/>
<use x="597.03" y="223.01" xlink:href="#hd"/>
<path d="M593.53 223.01v20.00" stroke="currentColor" fill="none"/>
<path fill="currentColor"
	d="M593.53 243.01c0.6 -5.6 9.6 -9 5.6 -18.4
	c1.6 6 -1.3 11.6 -5.6 12.8
"/>
<use x="625.33" y="229.01" xlink:href="#hd"/>
<path d="M628.83 229.01v-20.00" stroke="currentColor" fill="none"/>
<use x="669.83" y="214.01" xlink:href="#hd"/>
<path d="M666.33 214.01v20.00" stroke="currentColor" fill="none"/>
<path fill="currentColor"
	d="M666.33 234.01c0.6 -5.6 9.6 -9 5.6 -18.4
	c1.6 6 -1.3 11.6 -5.6 12.8
"/>
<path stroke="currentColor" fill="none"
	d="M207.53 308.01v-24.00"/>
<path stroke="currentColor" fill="none"
	d="M370.93 308.01v-24.00"/>
<path stroke="currentColor" fill="none"
	d="M534.23 308.01v-24.00"/>
<path stroke="currentColor" fill="none" stroke-width="3"
	d="M693.43 308.01v-24.00"/>
<path stroke="currentColor" fill="none"
	d="M688.93 308.01v-24.00"/>
<use x="684.93" y="308.01" xlink:href="#rdots"/>
<path stroke="currentColor" fill="none"
	d="M13.33 308.01h681.60m-681.60 -6h681.60m-681.60 -6h681.60m-681.60 -6h681.60m-681.60 -6h681.60"/>
<use x="25.33" y="308.01" xlink:href="#tclef"/>
<use x="40.33" y="284.01" xlink:href="#sh0"/>
<path fill="currentColor"
	d="M54.53 314.11l127.40 7.10v-3.20l-127.40 -7.10"/>
<use x="58.33" y="287.01" xlink:href="#hd"/>
<path d="M54.83 287.01v26.10" stroke="currentColor" fill="none"/>
<use x="83.63" y="290.01" xlink:href="#hd"/>
<path d="M80.13 290.01v24.50" stroke="currentColor" fill="none"/>
<use x="109.03" y="293.01" xlink:href="#hd"/>
<path d="M105.53 293.01v23.00" stroke="currentColor" fill="none"/>
<use x="134.33" y="293.01" xlink:href="#hd"/>
<path d="M130.83 293.01v24.40" stroke="currentColor" fill="none"/>
<use x="159.73" y="296.01" xlink:href="#hd"/>
<path d="M156.23 296.01v22.80" stroke="currentColor" fill="none"/>
<use x="185.03" y="302.01" xlink:href="#hd"/>
<path d="M181.53 302.01v18.20" stroke="currentColor" fill="none"/>
<path fill="currentColor"
	d="M224.83 277.41l127.40 -6.10v3.20l-127.40 6.10"/>
<use x="221.63" y="308.01" xlink:href="#hd"/>
<path d="M225.13 308.01v-29.60" stroke="currentColor" fill="none"/>
<use x="247.03" y="305.01" xlink:href="#hd"/>
<path d="M250.53 305.01v-27.80" stroke="currentColor" fill="none"/>
<use x="272.33" y="299.01" xlink:href="#hd"/>
<path d="M275.83 299.01v-23.00" stroke="currentColor" fill="none"/>
<use x="297.63" y="293.01" xlink:href="#hd"/>
<path d="M301.13 293.01v-18.20" stroke="currentColor" fill="none"/>
<use x="323.03" y="296.01" xlink:href="#hd"/>
<path d="M326.53 296.01v-22.40" stroke="currentColor" fill="none"/>
<use x="348.33" y="299.01" xlink:href="#hd"/>
<path d="M351.83 299.01v-26.60" stroke="currentColor" fill="none"/>
<path fill="currentColor"
	d="M388.13 276.81l127.40 0.00v3.20l-127.40 -0.00"/>
<use x="384.93" y="296.01" xlink:href="#hd"/>
<path d="M388.43 296.01v-18.20" stroke="currentColor" fill="none"/>
<use x="410.33" y="302.01" xlink:href="#hd"/>
<path d="M413.83 302.01v-24.20" stroke="currentColor" fill="none"/>
<use x="435.63" y="308.01" xlink:href="#hd"/>
<path d="M439.13 308.01v-30.20" stroke="currentColor" fill="none"/>
<use x="461.03" y="311.01" xlink:href="#hd"/>
<path d="M464.53 311.01v-33.20" stroke="currentColor" fill="none"/>
<use x="486.33" y="308.01" xlink:href="#hd"/>
<path d="M489.83 308.01v-30.20" stroke="currentColor" fill="none"/>
<use x="511.73" y="302.01" xlink:href="#hd"/>
<path d="M515.23 302.01v-24.20" stroke="currentColor" fill="none"/>
<path fill="currentColor"
	d="M551.43 287.01l51.40 0.00v3.20l-51.40 -0.00"/>
<use x="548.33" y="305.01" xlink:href="#hd"/>
<path d="M551.83 305.01v-17.00" stroke="currentColor" fill="none"/>
<use x="573.63" y="311.01" xlink:href="#hd"/>
<path d="M577.13 311.01v-23.00" stroke="currentColor" fill="none"/>
<use x="598.93" y="305.01" xlink:href="#hd"/>
<path d="M602.43 305.01v-17.00" stroke="currentColor" fill="none"/>
<use x="627.13" y="299.01" xlink:href="#hd"/>
<path d="M630.63 299.01v-20.00" stroke="currentColor" fill="none"/>
<use x="666.93" y="296.01" xlink:href="#hd"/>
<path d="M670.43 296.01v-20.00" stroke="currentColor" fill="none"/>
<path fill="currentColor"
	d="	M670.43 276.01c0.6 5.6 9.6 9 5.6 18.4
	c1.6 -6 -1.3 -11.6 -5.6 -12.8
"/>
</g>
</svg>
