<?xml version="1.0" standalone="no"?>
<!DOCTYPE svg PUBLIC "-//W3C//DTD SVG 1.1//EN"
	"http://www.w3.org/Graphics/SVG/1.1/DTD/svg11.dtd">
<svg xmlns="http://www.w3.org/2000/svg" version="1.1"
	xmlns:xlink="http://www.w3.org/1999/xlink"
	xml:space='preserve' color="black"
	width="7.38in" height="2.22in" viewBox="0 0 531 160">
<title>data/results/biggest_11/abc/201.abc (201) tune 1</title>
<!-- Creator: abcm2ps-7.8.14 -->
<!-- CreationDate: Aug  9, 2015 23:50 -->
<!-- CommandLine: -g data/results/biggest_11/abc/201.abc -O /home/allanino/Dropbox/Trabalhos/folkme/svg/201.svg -->
<g transform="scale(0.750)" stroke-width="0.70" font-family="Times" font-size="20.00">
<text x="354.13" y="21.67" text-anchor="middle">Walzer GC 10- chords</text>
<path stroke="currentColor" fill="none"
	d="M137.73 109.01v-24.00"/>
<path stroke="currentColor" fill="none"
	d="M197.93 109.01v-24.00"/>
<path stroke="currentColor" fill="none"
	d="M277.93 109.01v-24.00"/>
<defs>
<g id="rdots" fill="currentColor">
	<circle cx="0" cy="-9" r="1.2"/>
	<circle cx="0" cy="-15" r="1.2"/>
</g>
</defs>
<use x="357.63" y="109.01" xlink:href="#rdots"/>
<path stroke="currentColor" fill="none" stroke-width="3"
	d="M352.13 109.01v-24.00"/>
<path stroke="currentColor" fill="none" stroke-width="3"
	d="M346.13 109.01v-24.00"/>
<use x="340.63" y="109.01" xlink:href="#rdots"/>
<path stroke="currentColor" fill="none"
	d="M418.73 109.01v-24.00"/>
<path stroke="currentColor" fill="none"
	d="M478.93 109.01v-24.00"/>
<path stroke="currentColor" fill="none"
	d="M541.33 109.01v-24.00"/>
<path stroke="currentColor" fill="none"
	d="M601.43 109.01v-24.00"/>
<path stroke="currentColor" fill="none"
	d="M648.23 109.01v-24.00"/>
<path stroke="currentColor" fill="none"
	d="M694.93 109.01v-24.00"/>
<path stroke="currentColor" fill="none"
	d="M13.33 109.01h681.60m-681.60 -6h681.60m-681.60 -6h681.60m-681.60 -6h681.60m-681.60 -6h681.60"/>
</g>
<g transform="scale(0.750)" stroke-width="0.70" font-family="Helvetica" font-size="12.00">
<text x="70.53" y="62.61">G</text>
<text x="142.33" y="62.61">Am</text>
<text x="203.93" y="62.61">D7</text>
<text x="286.63" y="62.61">G</text>
<text x="364.73" y="62.61">D7</text>
<text x="427.43" y="62.61">G</text>
<text x="484.93" y="62.61">D7</text>
<text x="550.03" y="62.61">G</text>
<text x="607.53" y="62.61">D7</text>
<text x="656.93" y="62.61">G</text>
<defs>
<path id="utclef" fill="currentColor" d="m-50 -90
	c-72 -41 -72 -158 52 -188
	c150 -10 220 188 90 256
	c-114 52 -275 0 -293 -136
	c-15 -181 93 -229 220 -334
	c88 -87 79 -133 62 -210
	c-51 33 -94 105 -89 186
	c17 267 36 374 49 574
	c6 96 -19 134 -77 135
	c-80 1 -126 -93 -61 -133
	c85 -41 133 101 31 105
	c23 17 92 37 90 -92
	c-10 -223 -39 -342 -50 -617
	c0 -90 0 -162 96 -232
	c56 72 63 230 22 289
	c-74 106 -257 168 -255 316
	c9 153 148 185 252 133
	c86 -65 29 -192 -80 -176
	c-71 12 -105 67 -59 124"/>
<use id="tclef" transform="scale(0.045)"
	xlink:href="#utclef"/>
</defs>
<use x="25.33" y="109.01" xlink:href="#tclef"/>
<defs>
<path id="usharp" fill="currentColor" d="
	m136 -702
	v890
	h32
	v-890
	m128 840
	h32
	v-888
	h-32
	m-232 286
	v116
	l338 -96
	v-116
	m-338 442
	v116
	l338 -98
	v-114"/>
<use id="sh0" transform="translate(-4,5) scale(0.018)"
	xlink:href="#usharp"/>
</defs>
<use x="40.33" y="85.01" xlink:href="#sh0"/>
<g font-family="serif" font-size="16" font-weight="bold" font-style="normal"
	transform="translate(56.33,109.01) scale(1.2,1)">
	<text y="-1" text-anchor="middle">4</text>
	<text y="-13" text-anchor="middle">3</text>
</g>
<path fill="currentColor"
	d="M77.53 93.21l44.20 -6.50v3.20l-44.20 6.50"/>
<path fill="currentColor"
	d="M89.83 96.41l6.00 -0.90v3.20l-6.00 0.90"/>
<path fill="currentColor"
	d="M115.33 92.71l6.00 -0.90v3.20l-6.00 0.90"/>
<defs>
<path id="hl" stroke="currentColor" d="m-6 0h12"/>
</defs>
<use x="74.33" y="115.01" xlink:href="#hl"/>
<defs>
<ellipse id="hd" rx="4.1" ry="2.9"
	transform="rotate(-20)" fill="currentColor"/>
</defs>
<use x="74.33" y="118.01" xlink:href="#hd"/>
<circle fill="currentColor" cx="82.33" cy="118.01" r="1.2"/>
<path d="M77.83 118.01v-23.80" stroke="currentColor" fill="none"/>
<use x="92.33" y="115.01" xlink:href="#hl"/>
<use x="92.33" y="115.01" xlink:href="#hd"/>
<path d="M95.83 115.01v-23.50" stroke="currentColor" fill="none"/>
<use x="101.33" y="112.01" xlink:href="#hd"/>
<circle fill="currentColor" cx="109.33" cy="112.01" r="1.2"/>
<path d="M104.83 112.01v-21.80" stroke="currentColor" fill="none"/>
<use x="117.83" y="109.01" xlink:href="#hd"/>
<path d="M121.33 109.01v-21.20" stroke="currentColor" fill="none"/>
<use x="127.03" y="112.01" xlink:href="#hd"/>
<path d="M130.53 112.01v-20.00" stroke="currentColor" fill="none"/>
<use x="150.23" y="115.01" xlink:href="#hl"/>
<use x="150.23" y="115.01" xlink:href="#hd"/>
<path d="M153.73 115.01v-20.00" stroke="currentColor" fill="none"/>
<path fill="currentColor"
	d="M164.63 77.21l17.20 -5.50v3.20l-17.20 5.50"/>
<path fill="currentColor"
	d="M175.43 78.71l6.00 -1.90v3.20l-6.00 1.90"/>
<use x="161.43" y="109.01" xlink:href="#hd"/>
<circle fill="currentColor" cx="169.43" cy="106.01" r="1.2"/>
<path d="M164.93 109.01v-30.90" stroke="currentColor" fill="none"/>
<use x="177.93" y="94.01" xlink:href="#hd"/>
<path d="M181.43 94.01v-21.20" stroke="currentColor" fill="none"/>
<use x="187.13" y="100.01" xlink:href="#hd"/>
<path d="M190.63 100.01v-20.00" stroke="currentColor" fill="none"/>
<path fill="currentColor"
	d="M213.53 90.81l58.70 0.00v3.20l-58.70 -0.00"/>
<path fill="currentColor"
	d="M265.93 95.81l6.00 0.00v3.20l-6.00 -0.00"/>
<use x="210.43" y="112.01" xlink:href="#hd"/>
<path d="M213.93 112.01v-20.20" stroke="currentColor" fill="none"/>
<use x="220.13" y="115.01" xlink:href="#hl"/>
<use x="220.13" y="115.01" xlink:href="#hd"/>
<path d="M223.63 115.01v-23.20" stroke="currentColor" fill="none"/>
<use x="231.03" y="115.01" xlink:href="#hl"/>
<use x="231.03" y="118.01" xlink:href="#hd"/>
<path d="M234.53 118.01v-26.20" stroke="currentColor" fill="none"/>
<use x="240.73" y="112.01" xlink:href="#hd"/>
<path d="M244.23 112.01v-20.20" stroke="currentColor" fill="none"/>
<use x="250.43" y="115.01" xlink:href="#hl"/>
<use x="250.43" y="115.01" xlink:href="#hd"/>
<circle fill="currentColor" cx="258.43" cy="112.01" r="1.2"/>
<path d="M253.93 115.01v-23.20" stroke="currentColor" fill="none"/>
<use x="268.43" y="115.01" xlink:href="#hl"/>
<use x="268.43" y="121.01" xlink:href="#hl"/>
<use x="268.43" y="121.01" xlink:href="#hd"/>
<path d="M271.93 121.01v-29.20" stroke="currentColor" fill="none"/>
<path fill="currentColor"
	d="M293.63 95.11l18.70 -2.30v3.20l-18.70 2.30"/>
<path fill="currentColor"
	d="M305.93 98.51l6.00 -0.70v3.20l-6.00 0.70"/>
<use x="290.43" y="115.01" xlink:href="#hl"/>
<use x="290.43" y="118.01" xlink:href="#hd"/>
<circle fill="currentColor" cx="298.43" cy="118.01" r="1.2"/>
<path d="M293.93 118.01v-22.00" stroke="currentColor" fill="none"/>
<use x="308.43" y="115.01" xlink:href="#hl"/>
<use x="308.43" y="115.01" xlink:href="#hd"/>
<path d="M311.93 115.01v-21.20" stroke="currentColor" fill="none"/>
<use x="318.93" y="115.01" xlink:href="#hl"/>
<use x="318.93" y="118.01" xlink:href="#hd"/>
<path d="M322.43 118.01v-21.00" stroke="currentColor" fill="none"/>
<defs>
<path id="r4" fill="currentColor" d="m-1 -8.5
	l3.6 5.1 -2.1 5.2 2.2 4.3
	c-2.6 -2.3 -5.1 0 -2.4 2.6
	c-4.8 -3 -1.5 -6.9 1.4 -4.1
	l-3.1 -4.5 1.9 -5.1 -1.5 -3.5"/>
</defs>
<use x="330.13" y="97.01" xlink:href="#r4"/>
<use x="371.13" y="112.01" xlink:href="#hd"/>
<path d="M374.63 112.01v-20.00" stroke="currentColor" fill="none"/>
<path fill="currentColor"
	d="M385.53 84.61l17.20 2.30v3.20l-17.20 -2.30"/>
<path fill="currentColor"
	d="M396.33 91.01l6.00 0.80v3.20l-6.00 -0.80"/>
<use x="382.33" y="106.01" xlink:href="#hd"/>
<circle fill="currentColor" cx="390.33" cy="106.01" r="1.2"/>
<path d="M385.83 106.01v-20.40" stroke="currentColor" fill="none"/>
<use x="398.83" y="109.01" xlink:href="#hd"/>
<path d="M402.33 109.01v-21.20" stroke="currentColor" fill="none"/>
<use x="408.03" y="106.01" xlink:href="#hd"/>
<path d="M411.53 106.01v-20.00" stroke="currentColor" fill="none"/>
<path fill="currentColor"
	d="M434.43 75.61l17.20 2.30v3.20l-17.20 -2.30"/>
<path fill="currentColor"
	d="M445.23 82.01l6.00 0.80v3.20l-6.00 -0.80"/>
<use x="431.23" y="97.01" xlink:href="#hd"/>
<circle fill="currentColor" cx="439.23" cy="94.01" r="1.2"/>
<path d="M434.73 97.01v-20.40" stroke="currentColor" fill="none"/>
<use x="447.73" y="100.01" xlink:href="#hd"/>
<path d="M451.23 100.01v-21.20" stroke="currentColor" fill="none"/>
<use x="456.93" y="103.01" xlink:href="#hd"/>
<path d="M460.43 103.01v-20.00" stroke="currentColor" fill="none"/>
<use x="468.13" y="112.01" xlink:href="#hd"/>
<path d="M471.63 112.01v-20.00" stroke="currentColor" fill="none"/>
<path fill="currentColor"
	d="M494.53 82.01l29.80 0.00v3.20l-29.80 -0.00"/>
<use x="491.43" y="100.01" xlink:href="#hd"/>
<path d="M494.93 100.01v-17.00" stroke="currentColor" fill="none"/>
<use x="501.13" y="103.01" xlink:href="#hd"/>
<path d="M504.63 103.01v-20.00" stroke="currentColor" fill="none"/>
<use x="510.83" y="106.01" xlink:href="#hd"/>
<path d="M514.33 106.01v-23.00" stroke="currentColor" fill="none"/>
<use x="520.53" y="103.01" xlink:href="#hd"/>
<path d="M524.03 103.01v-20.00" stroke="currentColor" fill="none"/>
<use x="530.53" y="97.01" xlink:href="#hd"/>
<path d="M534.03 97.01v-20.00" stroke="currentColor" fill="none"/>
<path fill="currentColor"
	d="M557.03 78.31l17.20 -3.60v3.20l-17.20 3.60"/>
<path fill="currentColor"
	d="M567.83 81.11l6.00 -1.30v3.20l-6.00 1.30"/>
<use x="553.83" y="103.01" xlink:href="#hd"/>
<circle fill="currentColor" cx="561.83" cy="100.01" r="1.2"/>
<path d="M557.33 103.01v-23.70" stroke="currentColor" fill="none"/>
<use x="570.33" y="97.01" xlink:href="#hd"/>
<path d="M573.83 97.01v-21.20" stroke="currentColor" fill="none"/>
<use x="579.53" y="112.01" xlink:href="#hd"/>
<path d="M583.03 112.01v-20.00" stroke="currentColor" fill="none"/>
<use x="590.73" y="103.01" xlink:href="#hd"/>
<path d="M594.23 103.01v-20.00" stroke="currentColor" fill="none"/>
<path fill="currentColor"
	d="M617.13 83.61l10.40 -2.90v3.20l-10.40 2.90"/>
<use x="613.93" y="106.01" xlink:href="#hd"/>
<path d="M617.43 106.01v-21.50" stroke="currentColor" fill="none"/>
<use x="623.73" y="100.01" xlink:href="#hd"/>
<path d="M627.23 100.01v-18.20" stroke="currentColor" fill="none"/>
<defs>
<path id="Hd" fill="currentColor" d="m3 -1.6
	c-1 -1.8 -7 1.4 -6 3.2
	c1 1.8 7 -1.4 6 -3.2
	m0.5 -0.3
	c2 3.8 -5 7.6 -7 3.8
	c-2 -3.8 5 -7.6 7 -3.8"/>
</defs>
<use x="635.63" y="91.01" xlink:href="#Hd"/>
<path d="M632.13 91.01v20.00" stroke="currentColor" fill="none"/>
<path fill="currentColor"
	d="M663.83 81.61l10.40 -3.90v3.20l-10.40 3.90"/>
<use x="660.73" y="112.01" xlink:href="#hd"/>
<path d="M664.23 112.01v-29.50" stroke="currentColor" fill="none"/>
<use x="670.43" y="97.01" xlink:href="#hd"/>
<path d="M673.93 97.01v-18.20" stroke="currentColor" fill="none"/>
<use x="682.43" y="91.01" xlink:href="#Hd"/>
<path d="M678.93 91.01v20.00" stroke="currentColor" fill="none"/>
<path stroke="currentColor" fill="none"
	d="M208.33 190.01v-24.00"/>
<path stroke="currentColor" fill="none" stroke-width="3"
	d="M332.93 190.01v-24.00"/>
<path stroke="currentColor" fill="none"
	d="M328.43 190.01v-24.00"/>
<use x="324.43" y="190.01" xlink:href="#rdots"/>
<path stroke="currentColor" fill="none"
	d="M13.33 190.01h321.10m-321.10 -6h321.10m-321.10 -6h321.10m-321.10 -6h321.10m-321.10 -6h321.10"/>
<text x="51.83" y="143.61">D7</text>
<text x="218.63" y="143.61">G</text>
<use x="25.33" y="190.01" xlink:href="#tclef"/>
<use x="40.33" y="166.01" xlink:href="#sh0"/>
<path fill="currentColor"
	d="M61.53 152.81l128.00 8.30v3.20l-128.00 -8.30"/>
<use x="58.33" y="172.01" xlink:href="#hd"/>
<path d="M61.83 172.01v-18.20" stroke="currentColor" fill="none"/>
<use x="83.83" y="181.01" xlink:href="#hd"/>
<path d="M87.33 181.01v-25.50" stroke="currentColor" fill="none"/>
<use x="109.23" y="187.01" xlink:href="#hd"/>
<path d="M112.73 187.01v-29.90" stroke="currentColor" fill="none"/>
<use x="134.73" y="193.01" xlink:href="#hd"/>
<path d="M138.23 193.01v-34.20" stroke="currentColor" fill="none"/>
<use x="160.23" y="181.01" xlink:href="#hd"/>
<path d="M163.73 181.01v-20.60" stroke="currentColor" fill="none"/>
<use x="185.73" y="193.01" xlink:href="#hd"/>
<path d="M189.23 193.01v-30.90" stroke="currentColor" fill="none"/>
<use x="222.43" y="184.01" xlink:href="#hd"/>
<path d="M225.93 184.01v-20.00" stroke="currentColor" fill="none"/>
<use x="262.43" y="178.01" xlink:href="#r4"/>
<use x="302.43" y="178.01" xlink:href="#r4"/>
</g>
</svg>
