<?xml version="1.0" standalone="no"?>
<!DOCTYPE svg PUBLIC "-//W3C//DTD SVG 1.1//EN"
	"http://www.w3.org/Graphics/SVG/1.1/DTD/svg11.dtd">
<svg xmlns="http://www.w3.org/2000/svg" version="1.1"
	xmlns:xlink="http://www.w3.org/1999/xlink"
	xml:space='preserve' color="black"
	width="7.38in" height="2.72in" viewBox="0 0 531 196">
<title>data/results/biggest_11/abc/203.abc (203) tune 1</title>
<!-- Creator: abcm2ps-7.8.14 -->
<!-- CreationDate: Aug  9, 2015 23:50 -->
<!-- CommandLine: -g data/results/biggest_11/abc/203.abc -O /home/allanino/Dropbox/Trabalhos/folkme/svg/203.svg -->
<g transform="scale(0.750)" stroke-width="0.70" font-family="Times" font-size="20.00">
<text x="354.13" y="21.67" text-anchor="middle">Chamer-Schorzmmiman</text>
<path stroke="currentColor" fill="none"
	d="M144.33 98.01v-24.00"/>
<path stroke="currentColor" fill="none"
	d="M213.13 98.01v-24.00"/>
<path stroke="currentColor" fill="none"
	d="M210.13 98.01v-24.00"/>
<path stroke="currentColor" fill="none"
	d="M295.63 98.01v-24.00"/>
<path stroke="currentColor" fill="none"
	d="M378.13 98.01v-24.00"/>
<path stroke="currentColor" fill="none"
	d="M445.13 98.01v-24.00"/>
<path stroke="currentColor" fill="none"
	d="M512.43 98.01v-24.00"/>
<path stroke="currentColor" fill="none"
	d="M595.03 98.01v-24.00"/>
<path stroke="currentColor" fill="none" stroke-width="3"
	d="M693.43 98.01v-24.00"/>
<path stroke="currentColor" fill="none"
	d="M688.93 98.01v-24.00"/>
<defs>
<g id="rdots" fill="currentColor">
	<circle cx="0" cy="-9" r="1.2"/>
	<circle cx="0" cy="-15" r="1.2"/>
</g>
</defs>
<use x="684.93" y="98.01" xlink:href="#rdots"/>
<path stroke="currentColor" fill="none"
	d="M13.33 98.01h681.60m-681.60 -6h681.60m-681.60 -6h681.60m-681.60 -6h681.60m-681.60 -6h681.60"/>
<defs>
<path id="utclef" fill="currentColor" d="m-50 -90
	c-72 -41 -72 -158 52 -188
	c150 -10 220 188 90 256
	c-114 52 -275 0 -293 -136
	c-15 -181 93 -229 220 -334
	c88 -87 79 -133 62 -210
	c-51 33 -94 105 -89 186
	c17 267 36 374 49 574
	c6 96 -19 134 -77 135
	c-80 1 -126 -93 -61 -133
	c85 -41 133 101 31 105
	c23 17 92 37 90 -92
	c-10 -223 -39 -342 -50 -617
	c0 -90 0 -162 96 -232
	c56 72 63 230 22 289
	c-74 106 -257 168 -255 316
	c9 153 148 185 252 133
	c86 -65 29 -192 -80 -176
	c-71 12 -105 67 -59 124"/>
<use id="tclef" transform="scale(0.045)"
	xlink:href="#utclef"/>
</defs>
<use x="25.33" y="98.01" xlink:href="#tclef"/>
<defs>
<path id="usharp" fill="currentColor" d="
	m136 -702
	v890
	h32
	v-890
	m128 840
	h32
	v-888
	h-32
	m-232 286
	v116
	l338 -96
	v-116
	m-338 442
	v116
	l338 -98
	v-114"/>
<use id="sh0" transform="translate(-4,5) scale(0.018)"
	xlink:href="#usharp"/>
</defs>
<use x="40.33" y="74.01" xlink:href="#sh0"/>
<g font-family="serif" font-size="16" font-weight="bold" font-style="normal"
	transform="translate(56.33,98.01) scale(1.2,1)">
	<text y="-1" text-anchor="middle">8</text>
	<text y="-13" text-anchor="middle">6</text>
</g>
<path fill="currentColor"
	d="M70.53 111.21l59.60 0.00v-3.20l-59.60 -0.00"/>
<defs>
<ellipse id="hd" rx="4.1" ry="2.9"
	transform="rotate(-20)" fill="currentColor"/>
</defs>
<use x="74.33" y="80.01" xlink:href="#hd"/>
<path d="M70.83 80.01v30.20" stroke="currentColor" fill="none"/>
<use x="86.13" y="86.01" xlink:href="#hd"/>
<path d="M82.63 86.01v24.20" stroke="currentColor" fill="none"/>
<use x="97.93" y="80.01" xlink:href="#hd"/>
<path d="M94.43 80.01v30.20" stroke="currentColor" fill="none"/>
<use x="109.73" y="80.01" xlink:href="#hd"/>
<path d="M106.23 80.01v30.20" stroke="currentColor" fill="none"/>
<use x="121.43" y="92.01" xlink:href="#hd"/>
<path d="M117.93 92.01v18.20" stroke="currentColor" fill="none"/>
<use x="133.23" y="92.01" xlink:href="#hd"/>
<path d="M129.73 92.01v18.20" stroke="currentColor" fill="none"/>
<path fill="currentColor"
	d="M153.03 104.21l24.30 4.10v-3.20l-24.30 -4.10"/>
<use x="156.83" y="83.01" xlink:href="#hd"/>
<path d="M153.33 83.01v20.20" stroke="currentColor" fill="none"/>
<use x="168.63" y="86.01" xlink:href="#hd"/>
<path d="M165.13 86.01v19.20" stroke="currentColor" fill="none"/>
<use x="180.43" y="89.01" xlink:href="#hd"/>
<path d="M176.93 89.01v18.20" stroke="currentColor" fill="none"/>
<defs>
<path id="hl" stroke="currentColor" d="m-6 0h12"/>
</defs>
<use x="193.13" y="68.01" xlink:href="#hl"/>
<use x="193.13" y="68.01" xlink:href="#hd"/>
<circle fill="currentColor" cx="201.13" cy="65.01" r="1.2"/>
<path d="M189.63 68.01v20.00" stroke="currentColor" fill="none"/>
<path fill="currentColor"
	d="M228.73 71.01l59.60 0.00v3.20l-59.60 -0.00"/>
<use x="225.63" y="95.01" xlink:href="#hd"/>
<path d="M229.13 95.01v-23.00" stroke="currentColor" fill="none"/>
<use x="237.43" y="89.01" xlink:href="#hd"/>
<path d="M240.93 89.01v-17.00" stroke="currentColor" fill="none"/>
<use x="249.23" y="95.01" xlink:href="#hd"/>
<path d="M252.73 95.01v-23.00" stroke="currentColor" fill="none"/>
<use x="260.93" y="101.01" xlink:href="#hd"/>
<path d="M264.43 101.01v-29.00" stroke="currentColor" fill="none"/>
<use x="272.73" y="95.01" xlink:href="#hd"/>
<path d="M276.23 95.01v-23.00" stroke="currentColor" fill="none"/>
<use x="284.53" y="89.01" xlink:href="#hd"/>
<path d="M288.03 89.01v-17.00" stroke="currentColor" fill="none"/>
<path fill="currentColor"
	d="M304.33 98.21l59.60 0.00v-3.20l-59.60 -0.00"/>
<use x="308.13" y="80.01" xlink:href="#hd"/>
<path d="M304.63 80.01v17.20" stroke="currentColor" fill="none"/>
<use x="319.93" y="77.01" xlink:href="#hd"/>
<path d="M316.43 77.01v20.20" stroke="currentColor" fill="none"/>
<use x="331.73" y="74.01" xlink:href="#hd"/>
<path d="M328.23 74.01v23.20" stroke="currentColor" fill="none"/>
<use x="343.53" y="71.01" xlink:href="#hd"/>
<path d="M340.03 71.01v26.20" stroke="currentColor" fill="none"/>
<use x="355.33" y="74.01" xlink:href="#hd"/>
<path d="M351.83 74.01v23.20" stroke="currentColor" fill="none"/>
<use x="367.03" y="77.01" xlink:href="#hd"/>
<path d="M363.53 77.01v20.20" stroke="currentColor" fill="none"/>
<use x="390.63" y="80.01" xlink:href="#hd"/>
<circle fill="currentColor" cx="398.63" cy="77.01" r="1.2"/>
<path d="M387.13 80.01v20.00" stroke="currentColor" fill="none"/>
<path fill="currentColor"
	d="M413.63 66.81l24.30 0.00v3.20l-24.30 -0.00"/>
<use x="410.43" y="86.01" xlink:href="#hd"/>
<path d="M413.93 86.01v-18.20" stroke="currentColor" fill="none"/>
<use x="422.23" y="86.01" xlink:href="#hd"/>
<path d="M425.73 86.01v-18.20" stroke="currentColor" fill="none"/>
<use x="434.03" y="89.01" xlink:href="#hd"/>
<path d="M437.53 89.01v-21.20" stroke="currentColor" fill="none"/>
<path fill="currentColor"
	d="M460.83 76.81l24.30 -4.10v3.20l-24.30 4.10"/>
<use x="457.63" y="98.01" xlink:href="#hd"/>
<path d="M461.13 98.01v-20.20" stroke="currentColor" fill="none"/>
<use x="469.43" y="95.01" xlink:href="#hd"/>
<path d="M472.93 95.01v-19.20" stroke="currentColor" fill="none"/>
<use x="481.23" y="92.01" xlink:href="#hd"/>
<path d="M484.73 92.01v-18.20" stroke="currentColor" fill="none"/>
<use x="493.93" y="98.01" xlink:href="#hd"/>
<circle fill="currentColor" cx="501.93" cy="95.01" r="1.2"/>
<path d="M497.43 98.01v-20.00" stroke="currentColor" fill="none"/>
<path fill="currentColor"
	d="M528.13 62.51l59.60 6.20v3.20l-59.60 -6.20"/>
<use x="524.93" y="86.01" xlink:href="#hd"/>
<path d="M528.43 86.01v-22.40" stroke="currentColor" fill="none"/>
<use x="536.73" y="83.01" xlink:href="#hd"/>
<path d="M540.23 83.01v-18.20" stroke="currentColor" fill="none"/>
<use x="548.53" y="86.01" xlink:href="#hd"/>
<path d="M552.03 86.01v-20.00" stroke="currentColor" fill="none"/>
<use x="560.33" y="89.01" xlink:href="#hd"/>
<path d="M563.83 89.01v-21.80" stroke="currentColor" fill="none"/>
<use x="572.13" y="92.01" xlink:href="#hd"/>
<path d="M575.63 92.01v-23.50" stroke="currentColor" fill="none"/>
<use x="583.93" y="98.01" xlink:href="#hd"/>
<path d="M587.43 98.01v-28.30" stroke="currentColor" fill="none"/>
<path fill="currentColor"
	d="M610.63 75.91l59.60 -6.20v3.20l-59.60 6.20"/>
<use x="607.53" y="101.01" xlink:href="#hd"/>
<path d="M611.03 101.01v-24.10" stroke="currentColor" fill="none"/>
<use x="619.33" y="101.01" xlink:href="#hd"/>
<path d="M622.83 101.01v-25.30" stroke="currentColor" fill="none"/>
<use x="631.03" y="98.01" xlink:href="#hd"/>
<path d="M634.53 98.01v-23.50" stroke="currentColor" fill="none"/>
<use x="642.83" y="95.01" xlink:href="#hd"/>
<path d="M646.33 95.01v-21.80" stroke="currentColor" fill="none"/>
<use x="654.63" y="92.01" xlink:href="#hd"/>
<path d="M658.13 92.01v-20.00" stroke="currentColor" fill="none"/>
<use x="666.43" y="89.01" xlink:href="#hd"/>
<path d="M669.93 89.01v-18.20" stroke="currentColor" fill="none"/>
<use x="64.83" y="168.01" xlink:href="#rdots"/>
<path stroke="currentColor" fill="none"
	d="M60.83 168.01v-24.00"/>
<path stroke="currentColor" fill="none" stroke-width="3"
	d="M56.33 168.01v-24.00"/>
<path stroke="currentColor" fill="none"
	d="M219.63 168.01v-24.00"/>
<path stroke="currentColor" fill="none"
	d="M384.43 168.01v-24.00"/>
<path stroke="currentColor" fill="none"
	d="M538.23 168.01v-24.00"/>
<path stroke="currentColor" fill="none"
	d="M694.93 168.01v-24.00"/>
<path stroke="currentColor" fill="none"
	d="M13.33 168.01h681.60m-681.60 -6h681.60m-681.60 -6h681.60m-681.60 -6h681.60m-681.60 -6h681.60"/>
<use x="25.33" y="168.01" xlink:href="#tclef"/>
<use x="40.33" y="144.01" xlink:href="#sh0"/>
<use x="80.03" y="150.01" xlink:href="#hd"/>
<path d="M76.53 150.01v20.00" stroke="currentColor" fill="none"/>
<path fill="currentColor"
	d="M116.33 175.21l77.40 0.00v-3.20l-77.40 -0.00"/>
<use x="120.23" y="150.01" xlink:href="#hd"/>
<path d="M116.73 150.01v24.20" stroke="currentColor" fill="none"/>
<use x="145.73" y="147.01" xlink:href="#hd"/>
<path d="M142.23 147.01v27.20" stroke="currentColor" fill="none"/>
<use x="171.33" y="150.01" xlink:href="#hd"/>
<path d="M167.83 150.01v24.20" stroke="currentColor" fill="none"/>
<use x="196.93" y="156.01" xlink:href="#hd"/>
<path d="M193.43 156.01v18.20" stroke="currentColor" fill="none"/>
<path fill="currentColor"
	d="M237.03 141.01l128.50 0.00v3.20l-128.50 -0.00"/>
<use x="233.83" y="159.01" xlink:href="#hd"/>
<path d="M237.33 159.01v-17.00" stroke="currentColor" fill="none"/>
<use x="259.43" y="165.01" xlink:href="#hd"/>
<path d="M262.93 165.01v-23.00" stroke="currentColor" fill="none"/>
<use x="285.03" y="171.01" xlink:href="#hd"/>
<path d="M288.53 171.01v-29.00" stroke="currentColor" fill="none"/>
<use x="310.53" y="171.01" xlink:href="#hd"/>
<path d="M314.03 171.01v-29.00" stroke="currentColor" fill="none"/>
<use x="336.13" y="168.01" xlink:href="#hd"/>
<path d="M339.63 168.01v-26.00" stroke="currentColor" fill="none"/>
<use x="361.73" y="171.01" xlink:href="#hd"/>
<path d="M365.23 171.01v-29.00" stroke="currentColor" fill="none"/>
<use x="398.63" y="156.01" xlink:href="#hd"/>
<path d="M402.13 156.01v-20.00" stroke="currentColor" fill="none"/>
<path fill="currentColor"
	d="M441.93 133.41l77.40 -3.90v3.20l-77.40 3.90"/>
<use x="438.83" y="162.01" xlink:href="#hd"/>
<path d="M442.33 162.01v-27.60" stroke="currentColor" fill="none"/>
<use x="464.43" y="156.01" xlink:href="#hd"/>
<path d="M467.93 156.01v-22.90" stroke="currentColor" fill="none"/>
<use x="489.93" y="150.01" xlink:href="#hd"/>
<path d="M493.43 150.01v-18.20" stroke="currentColor" fill="none"/>
<use x="515.53" y="156.01" xlink:href="#hd"/>
<path d="M519.03 156.01v-25.50" stroke="currentColor" fill="none"/>
<path fill="currentColor"
	d="M555.63 139.71l51.80 8.30v3.20l-51.80 -8.30"/>
<use x="552.43" y="159.01" xlink:href="#hd"/>
<path d="M555.93 159.01v-18.20" stroke="currentColor" fill="none"/>
<use x="578.03" y="165.01" xlink:href="#hd"/>
<path d="M581.53 165.01v-20.10" stroke="currentColor" fill="none"/>
<use x="603.63" y="171.01" xlink:href="#hd"/>
<path d="M607.13 171.01v-22.00" stroke="currentColor" fill="none"/>
<use x="632.03" y="159.01" xlink:href="#hd"/>
<path d="M635.53 159.01v-20.00" stroke="currentColor" fill="none"/>
<use x="672.23" y="150.01" xlink:href="#hd"/>
<path d="M668.73 150.01v20.00" stroke="currentColor" fill="none"/>
<path fill="currentColor"
	d="M668.73 170.01c0.6 -5.6 9.6 -9 5.6 -18.4
	c1.6 6 -1.3 11.6 -5.6 12.8
"/>
<path stroke="currentColor" fill="none"
	d="M196.03 238.01v-24.00"/>
<path stroke="currentColor" fill="none"
	d="M363.43 238.01v-24.00"/>
<path stroke="currentColor" fill="none"
	d="M530.83 238.01v-24.00"/>
<path stroke="currentColor" fill="none" stroke-width="3"
	d="M693.43 238.01v-24.00"/>
<path stroke="currentColor" fill="none"
	d="M688.93 238.01v-24.00"/>
<use x="684.93" y="238.01" xlink:href="#rdots"/>
<path stroke="currentColor" fill="none"
	d="M13.33 238.01h681.60m-681.60 -6h681.60m-681.60 -6h681.60m-681.60 -6h681.60m-681.60 -6h681.60"/>
<use x="25.33" y="238.01" xlink:href="#tclef"/>
<use x="40.33" y="214.01" xlink:href="#sh0"/>
<use x="58.33" y="220.01" xlink:href="#hd"/>
<path d="M54.83 220.01v20.00" stroke="currentColor" fill="none"/>
<path fill="currentColor"
	d="M98.23 206.81l78.60 0.00v3.20l-78.60 -0.00"/>
<use x="95.03" y="226.01" xlink:href="#hd"/>
<path d="M98.53 226.01v-18.20" stroke="currentColor" fill="none"/>
<use x="121.03" y="226.01" xlink:href="#hd"/>
<path d="M124.53 226.01v-18.20" stroke="currentColor" fill="none"/>
<use x="147.03" y="229.01" xlink:href="#hd"/>
<path d="M150.53 229.01v-21.20" stroke="currentColor" fill="none"/>
<use x="172.93" y="232.01" xlink:href="#hd"/>
<path d="M176.43 232.01v-24.20" stroke="currentColor" fill="none"/>
<path fill="currentColor"
	d="M213.63 197.81l130.60 11.80v3.20l-130.60 -11.80"/>
<use x="210.53" y="217.01" xlink:href="#hd"/>
<path d="M214.03 217.01v-18.20" stroke="currentColor" fill="none"/>
<use x="236.43" y="220.01" xlink:href="#hd"/>
<path d="M239.93 220.01v-18.80" stroke="currentColor" fill="none"/>
<use x="262.43" y="226.01" xlink:href="#hd"/>
<path d="M265.93 226.01v-22.50" stroke="currentColor" fill="none"/>
<use x="288.43" y="229.01" xlink:href="#hd"/>
<path d="M291.93 229.01v-23.10" stroke="currentColor" fill="none"/>
<use x="314.43" y="235.01" xlink:href="#hd"/>
<path d="M317.93 235.01v-26.80" stroke="currentColor" fill="none"/>
<use x="340.33" y="241.01" xlink:href="#hd"/>
<path d="M343.83 241.01v-30.40" stroke="currentColor" fill="none"/>
<path fill="currentColor"
	d="M381.03 200.81l130.60 0.00v3.20l-130.60 -0.00"/>
<use x="377.93" y="232.01" xlink:href="#hd"/>
<path d="M381.43 232.01v-30.20" stroke="currentColor" fill="none"/>
<use x="403.83" y="229.01" xlink:href="#hd"/>
<path d="M407.33 229.01v-27.20" stroke="currentColor" fill="none"/>
<use x="429.83" y="226.01" xlink:href="#hd"/>
<path d="M433.33 226.01v-24.20" stroke="currentColor" fill="none"/>
<use x="455.83" y="220.01" xlink:href="#hd"/>
<path d="M459.33 220.01v-18.20" stroke="currentColor" fill="none"/>
<use x="481.83" y="226.01" xlink:href="#hd"/>
<path d="M485.33 226.01v-24.20" stroke="currentColor" fill="none"/>
<use x="507.73" y="232.01" xlink:href="#hd"/>
<path d="M511.23 232.01v-30.20" stroke="currentColor" fill="none"/>
<path fill="currentColor"
	d="M548.43 217.01l52.60 0.00v3.20l-52.60 -0.00"/>
<use x="545.23" y="238.01" xlink:href="#hd"/>
<path d="M548.73 238.01v-20.00" stroke="currentColor" fill="none"/>
<use x="571.23" y="235.01" xlink:href="#hd"/>
<path d="M574.73 235.01v-17.00" stroke="currentColor" fill="none"/>
<use x="597.23" y="238.01" xlink:href="#hd"/>
<path d="M600.73 238.01v-20.00" stroke="currentColor" fill="none"/>
<use x="626.13" y="238.01" xlink:href="#hd"/>
<path d="M629.63 238.01v-20.00" stroke="currentColor" fill="none"/>
<use x="666.93" y="241.01" xlink:href="#hd"/>
<path d="M670.43 241.01v-20.00" stroke="currentColor" fill="none"/>
<path fill="currentColor"
	d="	M670.43 221.01c0.6 5.6 9.6 9 5.6 18.4
	c1.6 -6 -1.3 -11.6 -5.6 -12.8
"/>
</g>
</svg>
