<?xml version="1.0" standalone="no"?>
<!DOCTYPE svg PUBLIC "-//W3C//DTD SVG 1.1//EN"
	"http://www.w3.org/Graphics/SVG/1.1/DTD/svg11.dtd">
<svg xmlns="http://www.w3.org/2000/svg" version="1.1"
	xmlns:xlink="http://www.w3.org/1999/xlink"
	xml:space='preserve' color="black"
	width="7.38in" height="4.18in" viewBox="0 0 531 301">
<title>data/results/biggest_11/abc/208.abc (208) tune 1</title>
<!-- Creator: abcm2ps-7.8.14 -->
<!-- CreationDate: Aug  9, 2015 23:50 -->
<!-- CommandLine: -g data/results/biggest_11/abc/208.abc -O /home/allanino/Dropbox/Trabalhos/folkme/svg/208.svg -->
<g transform="scale(0.750)" stroke-width="0.70" font-family="Times" font-size="20.00">
<text x="354.13" y="21.67" text-anchor="middle">Faruy&apos;s Jig</text>
<path stroke="currentColor" fill="none"
	d="M138.83 98.01v-24.00"/>
<path stroke="currentColor" fill="none"
	d="M200.73 98.01v-24.00"/>
<path stroke="currentColor" fill="none"
	d="M284.93 98.01v-24.00"/>
<path stroke="currentColor" fill="none"
	d="M369.83 98.01v-24.00"/>
<path stroke="currentColor" fill="none"
	d="M451.33 98.01v-24.00"/>
<path stroke="currentColor" fill="none"
	d="M528.63 98.01v-24.00"/>
<path stroke="currentColor" fill="none"
	d="M606.33 98.01v-24.00"/>
<path stroke="currentColor" fill="none" stroke-width="3"
	d="M693.43 98.01v-24.00"/>
<path stroke="currentColor" fill="none"
	d="M688.93 98.01v-24.00"/>
<defs>
<g id="rdots" fill="currentColor">
	<circle cx="0" cy="-9" r="1.2"/>
	<circle cx="0" cy="-15" r="1.2"/>
</g>
</defs>
<use x="684.93" y="98.01" xlink:href="#rdots"/>
<path stroke="currentColor" fill="none"
	d="M13.33 98.01h681.60m-681.60 -6h681.60m-681.60 -6h681.60m-681.60 -6h681.60m-681.60 -6h681.60"/>
<defs>
<path id="utclef" fill="currentColor" d="m-50 -90
	c-72 -41 -72 -158 52 -188
	c150 -10 220 188 90 256
	c-114 52 -275 0 -293 -136
	c-15 -181 93 -229 220 -334
	c88 -87 79 -133 62 -210
	c-51 33 -94 105 -89 186
	c17 267 36 374 49 574
	c6 96 -19 134 -77 135
	c-80 1 -126 -93 -61 -133
	c85 -41 133 101 31 105
	c23 17 92 37 90 -92
	c-10 -223 -39 -342 -50 -617
	c0 -90 0 -162 96 -232
	c56 72 63 230 22 289
	c-74 106 -257 168 -255 316
	c9 153 148 185 252 133
	c86 -65 29 -192 -80 -176
	c-71 12 -105 67 -59 124"/>
<use id="tclef" transform="scale(0.045)"
	xlink:href="#utclef"/>
</defs>
<use x="25.33" y="98.01" xlink:href="#tclef"/>
<defs>
<path id="usharp" fill="currentColor" d="
	m136 -702
	v890
	h32
	v-890
	m128 840
	h32
	v-888
	h-32
	m-232 286
	v116
	l338 -96
	v-116
	m-338 442
	v116
	l338 -98
	v-114"/>
<use id="sh0" transform="translate(-4,5) scale(0.018)"
	xlink:href="#usharp"/>
</defs>
<use x="40.33" y="74.01" xlink:href="#sh0"/>
<use x="45.83" y="83.01" xlink:href="#sh0"/>
<g font-family="serif" font-size="16" font-weight="bold" font-style="normal"
	transform="translate(61.83,98.01) scale(1.2,1)">
	<text y="-1" text-anchor="middle">8</text>
	<text y="-13" text-anchor="middle">6</text>
</g>
<defs>
<ellipse id="hd" rx="4.1" ry="2.9"
	transform="rotate(-20)" fill="currentColor"/>
</defs>
<use x="79.83" y="74.01" xlink:href="#hd"/>
<path d="M76.33 74.01v20.00" stroke="currentColor" fill="none"/>
<use x="97.03" y="77.01" xlink:href="#hd"/>
<path d="M93.53 77.01v20.00" stroke="currentColor" fill="none"/>
<path fill="currentColor"
	d="M93.53 97.01c0.6 -5.6 9.6 -9 5.6 -18.4
	c1.6 6 -1.3 11.6 -5.6 12.8
"/>
<use x="110.23" y="80.01" xlink:href="#hd"/>
<path d="M106.73 80.01v20.00" stroke="currentColor" fill="none"/>
<use x="127.43" y="83.01" xlink:href="#hd"/>
<path d="M123.93 83.01v20.00" stroke="currentColor" fill="none"/>
<path fill="currentColor"
	d="M123.93 103.01c0.6 -5.6 9.6 -9 5.6 -18.4
	c1.6 6 -1.3 11.6 -5.6 12.8
"/>
<use x="151.33" y="80.01" xlink:href="#hd"/>
<path d="M147.83 80.01v20.00" stroke="currentColor" fill="none"/>
<use x="168.53" y="83.01" xlink:href="#hd"/>
<path d="M165.03 83.01v20.00" stroke="currentColor" fill="none"/>
<path fill="currentColor"
	d="M165.03 103.01c0.6 -5.6 9.6 -9 5.6 -18.4
	c1.6 6 -1.3 11.6 -5.6 12.8
"/>
<use x="181.73" y="86.01" xlink:href="#hd"/>
<circle fill="currentColor" cx="189.73" cy="83.01" r="1.2"/>
<path d="M178.23 86.01v20.00" stroke="currentColor" fill="none"/>
<path fill="currentColor"
	d="M216.33 66.81l25.10 0.00v3.20l-25.10 -0.00"/>
<use x="213.23" y="89.01" xlink:href="#hd"/>
<path d="M216.73 89.01v-21.20" stroke="currentColor" fill="none"/>
<use x="225.43" y="86.01" xlink:href="#hd"/>
<path d="M228.93 86.01v-18.20" stroke="currentColor" fill="none"/>
<use x="237.53" y="89.01" xlink:href="#hd"/>
<path d="M241.03 89.01v-21.20" stroke="currentColor" fill="none"/>
<use x="250.73" y="98.01" xlink:href="#hd"/>
<path d="M254.23 98.01v-20.00" stroke="currentColor" fill="none"/>
<use x="267.93" y="92.01" xlink:href="#hd"/>
<path d="M271.43 92.01v-20.00" stroke="currentColor" fill="none"/>
<path fill="currentColor"
	d="	M271.43 72.01c0.6 5.6 9.6 9 5.6 18.4
	c1.6 -6 -1.3 -11.6 -5.6 -12.8
"/>
<path fill="currentColor"
	d="M300.63 66.81l61.70 0.00v3.20l-61.70 -0.00"/>
<use x="297.43" y="89.01" xlink:href="#hd"/>
<path d="M300.93 89.01v-21.20" stroke="currentColor" fill="none"/>
<use x="309.63" y="86.01" xlink:href="#hd"/>
<path d="M313.13 86.01v-18.20" stroke="currentColor" fill="none"/>
<use x="321.83" y="89.01" xlink:href="#hd"/>
<path d="M325.33 89.01v-21.20" stroke="currentColor" fill="none"/>
<use x="334.03" y="89.01" xlink:href="#hd"/>
<path d="M337.53 89.01v-21.20" stroke="currentColor" fill="none"/>
<use x="346.23" y="95.01" xlink:href="#hd"/>
<path d="M349.73 95.01v-27.20" stroke="currentColor" fill="none"/>
<use x="358.43" y="101.01" xlink:href="#hd"/>
<path d="M361.93 101.01v-33.20" stroke="currentColor" fill="none"/>
<use x="382.33" y="95.01" xlink:href="#hd"/>
<path d="M385.83 95.01v-20.00" stroke="currentColor" fill="none"/>
<use x="399.53" y="89.01" xlink:href="#hd"/>
<path d="M403.03 89.01v-20.00" stroke="currentColor" fill="none"/>
<path fill="currentColor"
	d="	M403.03 69.01c0.6 5.6 9.6 9 5.6 18.4
	c1.6 -6 -1.3 -11.6 -5.6 -12.8
"/>
<use x="418.53" y="80.01" xlink:href="#hd"/>
<path d="M415.03 80.01v20.00" stroke="currentColor" fill="none"/>
<use x="434.33" y="89.01" xlink:href="#hd"/>
<path d="M437.83 89.01v-20.00" stroke="currentColor" fill="none"/>
<path fill="currentColor"
	d="	M437.83 69.01c0.6 5.6 9.6 9 5.6 18.4
	c1.6 -6 -1.3 -11.6 -5.6 -12.8
"/>
<use x="463.83" y="86.01" xlink:href="#hd"/>
<path d="M467.33 86.01v-20.00" stroke="currentColor" fill="none"/>
<use x="481.03" y="89.01" xlink:href="#hd"/>
<path d="M484.53 89.01v-20.00" stroke="currentColor" fill="none"/>
<path fill="currentColor"
	d="	M484.53 69.01c0.6 5.6 9.6 9 5.6 18.4
	c1.6 -6 -1.3 -11.6 -5.6 -12.8
"/>
<use x="500.03" y="80.01" xlink:href="#hd"/>
<path d="M496.53 80.01v20.00" stroke="currentColor" fill="none"/>
<use x="517.23" y="83.01" xlink:href="#hd"/>
<path d="M513.73 83.01v20.00" stroke="currentColor" fill="none"/>
<path fill="currentColor"
	d="M513.73 103.01c0.6 -5.6 9.6 -9 5.6 -18.4
	c1.6 6 -1.3 11.6 -5.6 12.8
"/>
<use x="541.13" y="80.01" xlink:href="#hd"/>
<path d="M537.63 80.01v20.00" stroke="currentColor" fill="none"/>
<path fill="currentColor"
	d="M554.53 98.21l37.30 0.00v-3.20l-37.30 -0.00"/>
<use x="558.33" y="77.01" xlink:href="#hd"/>
<path d="M554.83 77.01v20.20" stroke="currentColor" fill="none"/>
<use x="570.53" y="74.01" xlink:href="#hd"/>
<path d="M567.03 74.01v23.20" stroke="currentColor" fill="none"/>
<use x="582.73" y="77.01" xlink:href="#hd"/>
<path d="M579.23 77.01v20.20" stroke="currentColor" fill="none"/>
<use x="594.93" y="80.01" xlink:href="#hd"/>
<path d="M591.43 80.01v17.20" stroke="currentColor" fill="none"/>
<use x="618.83" y="74.01" xlink:href="#hd"/>
<path d="M615.33 74.01v20.00" stroke="currentColor" fill="none"/>
<use x="636.03" y="77.01" xlink:href="#hd"/>
<path d="M632.53 77.01v20.00" stroke="currentColor" fill="none"/>
<path fill="currentColor"
	d="M632.53 97.01c0.6 -5.6 9.6 -9 5.6 -18.4
	c1.6 6 -1.3 11.6 -5.6 12.8
"/>
<use x="649.23" y="80.01" xlink:href="#hd"/>
<path d="M645.73 80.01v20.00" stroke="currentColor" fill="none"/>
<use x="666.43" y="86.01" xlink:href="#hd"/>
<path d="M662.93 86.01v20.00" stroke="currentColor" fill="none"/>
<path fill="currentColor"
	d="M662.93 106.01c0.6 -5.6 9.6 -9 5.6 -18.4
	c1.6 6 -1.3 11.6 -5.6 12.8
"/>
<use x="70.33" y="168.01" xlink:href="#rdots"/>
<path stroke="currentColor" fill="none"
	d="M66.33 168.01v-24.00"/>
<path stroke="currentColor" fill="none" stroke-width="3"
	d="M61.83 168.01v-24.00"/>
<path stroke="currentColor" fill="none"
	d="M205.83 168.01v-24.00"/>
<path stroke="currentColor" fill="none"
	d="M369.93 168.01v-24.00"/>
<path stroke="currentColor" fill="none"
	d="M534.03 168.01v-24.00"/>
<path stroke="currentColor" fill="none"
	d="M694.93 168.01v-24.00"/>
<path stroke="currentColor" fill="none"
	d="M13.33 168.01h681.60m-681.60 -6h681.60m-681.60 -6h681.60m-681.60 -6h681.60m-681.60 -6h681.60"/>
<use x="25.33" y="168.01" xlink:href="#tclef"/>
<use x="40.33" y="144.01" xlink:href="#sh0"/>
<use x="45.83" y="153.01" xlink:href="#sh0"/>
<use x="87.33" y="153.01" xlink:href="#hd"/>
<path d="M83.83 153.01v20.00" stroke="currentColor" fill="none"/>
<use x="132.53" y="147.01" xlink:href="#hd"/>
<path d="M129.03 147.01v20.00" stroke="currentColor" fill="none"/>
<path fill="currentColor"
	d="M129.03 167.01c0.6 -5.6 9.6 -9 5.6 -18.4
	c1.6 6 -1.3 11.6 -5.6 12.8
"/>
<use x="164.63" y="147.01" xlink:href="#hd"/>
<circle fill="currentColor" cx="172.63" cy="147.01" r="1.2"/>
<path d="M161.13 147.01v20.00" stroke="currentColor" fill="none"/>
<use x="221.83" y="147.01" xlink:href="#hd"/>
<path d="M218.33 147.01v20.00" stroke="currentColor" fill="none"/>
<use x="267.03" y="141.01" xlink:href="#hd"/>
<path d="M263.53 141.01v20.00" stroke="currentColor" fill="none"/>
<path fill="currentColor"
	d="M263.53 161.01c0.6 -5.6 9.6 -9 5.6 -18.4
	c1.6 6 -1.3 11.6 -5.6 12.8
"/>
<use x="299.03" y="144.01" xlink:href="#hd"/>
<path d="M295.53 144.01v20.00" stroke="currentColor" fill="none"/>
<use x="344.33" y="147.01" xlink:href="#hd"/>
<path d="M340.83 147.01v20.00" stroke="currentColor" fill="none"/>
<path fill="currentColor"
	d="M340.83 167.01c0.6 -5.6 9.6 -9 5.6 -18.4
	c1.6 6 -1.3 11.6 -5.6 12.8
"/>
<use x="385.93" y="150.01" xlink:href="#hd"/>
<path d="M382.43 150.01v20.00" stroke="currentColor" fill="none"/>
<use x="431.13" y="150.01" xlink:href="#hd"/>
<path d="M427.63 150.01v20.00" stroke="currentColor" fill="none"/>
<path fill="currentColor"
	d="M427.63 170.01c0.6 -5.6 9.6 -9 5.6 -18.4
	c1.6 6 -1.3 11.6 -5.6 12.8
"/>
<use x="463.13" y="156.01" xlink:href="#hd"/>
<path d="M459.63 156.01v20.00" stroke="currentColor" fill="none"/>
<use x="508.43" y="150.01" xlink:href="#hd"/>
<path d="M504.93 150.01v20.00" stroke="currentColor" fill="none"/>
<path fill="currentColor"
	d="M504.93 170.01c0.6 -5.6 9.6 -9 5.6 -18.4
	c1.6 6 -1.3 11.6 -5.6 12.8
"/>
<use x="550.03" y="153.01" xlink:href="#hd"/>
<path d="M546.53 153.01v20.00" stroke="currentColor" fill="none"/>
<use x="595.23" y="156.01" xlink:href="#hd"/>
<path d="M591.73 156.01v20.00" stroke="currentColor" fill="none"/>
<path fill="currentColor"
	d="M591.73 176.01c0.6 -5.6 9.6 -9 5.6 -18.4
	c1.6 6 -1.3 11.6 -5.6 12.8
"/>
<use x="624.03" y="159.01" xlink:href="#hd"/>
<path d="M627.53 159.01v-20.00" stroke="currentColor" fill="none"/>
<use x="669.33" y="156.01" xlink:href="#hd"/>
<path d="M672.83 156.01v-20.00" stroke="currentColor" fill="none"/>
<path fill="currentColor"
	d="	M672.83 136.01c0.6 5.6 9.6 9 5.6 18.4
	c1.6 -6 -1.3 -11.6 -5.6 -12.8
"/>
<path stroke="currentColor" fill="none"
	d="M158.33 238.01v-24.00"/>
<path stroke="currentColor" fill="none"
	d="M270.43 238.01v-24.00"/>
<path stroke="currentColor" fill="none"
	d="M342.13 238.01v-24.00"/>
<path stroke="currentColor" fill="none"
	d="M462.53 238.01v-24.00"/>
<path stroke="currentColor" fill="none"
	d="M582.83 238.01v-24.00"/>
<path stroke="currentColor" fill="none"
	d="M694.93 238.01v-24.00"/>
<path stroke="currentColor" fill="none"
	d="M13.33 238.01h681.60m-681.60 -6h681.60m-681.60 -6h681.60m-681.60 -6h681.60m-681.60 -6h681.60"/>
<use x="25.33" y="238.01" xlink:href="#tclef"/>
<use x="40.33" y="214.01" xlink:href="#sh0"/>
<use x="45.83" y="223.01" xlink:href="#sh0"/>
<use x="63.83" y="229.01" xlink:href="#hd"/>
<path d="M67.33 229.01v-20.00" stroke="currentColor" fill="none"/>
<use x="92.23" y="229.01" xlink:href="#hd"/>
<path d="M95.73 229.01v-20.00" stroke="currentColor" fill="none"/>
<path fill="currentColor"
	d="	M95.73 209.01c0.6 5.6 9.6 9 5.6 18.4
	c1.6 -6 -1.3 -11.6 -5.6 -12.8
"/>
<use x="113.03" y="229.01" xlink:href="#hd"/>
<path d="M116.53 229.01v-20.00" stroke="currentColor" fill="none"/>
<use x="141.33" y="226.01" xlink:href="#hd"/>
<path d="M144.83 226.01v-20.00" stroke="currentColor" fill="none"/>
<path fill="currentColor"
	d="	M144.83 206.01c0.6 5.6 9.6 9 5.6 18.4
	c1.6 -6 -1.3 -11.6 -5.6 -12.8
"/>
<use x="170.83" y="220.01" xlink:href="#hd"/>
<path d="M167.33 220.01v20.00" stroke="currentColor" fill="none"/>
<path fill="currentColor"
	d="M195.33 238.21l55.60 0.00v-3.20l-55.60 -0.00"/>
<use x="199.23" y="220.01" xlink:href="#hd"/>
<path d="M195.73 220.01v17.20" stroke="currentColor" fill="none"/>
<use x="217.53" y="220.01" xlink:href="#hd"/>
<path d="M214.03 220.01v17.20" stroke="currentColor" fill="none"/>
<use x="235.73" y="217.01" xlink:href="#hd"/>
<path d="M232.23 217.01v20.20" stroke="currentColor" fill="none"/>
<use x="254.03" y="214.01" xlink:href="#hd"/>
<path d="M250.53 214.01v23.20" stroke="currentColor" fill="none"/>
<use x="282.93" y="214.01" xlink:href="#hd"/>
<circle fill="currentColor" cx="290.93" cy="211.01" r="1.2"/>
<path d="M279.43 214.01v20.00" stroke="currentColor" fill="none"/>
<defs>
<path id="hl" stroke="currentColor" d="m-6 0h12"/>
</defs>
<use x="315.63" y="208.01" xlink:href="#hl"/>
<use x="315.63" y="205.01" xlink:href="#hd"/>
<circle fill="currentColor" cx="323.63" cy="205.01" r="1.2"/>
<path d="M312.13 205.01v21.00" stroke="currentColor" fill="none"/>
<path fill="currentColor"
	d="M350.83 232.21l92.10 0.00v-3.20l-92.10 -0.00"/>
<use x="354.63" y="208.01" xlink:href="#hl"/>
<use x="354.63" y="208.01" xlink:href="#hd"/>
<path d="M351.13 208.01v23.20" stroke="currentColor" fill="none"/>
<use x="372.93" y="211.01" xlink:href="#hd"/>
<path d="M369.43 211.01v20.20" stroke="currentColor" fill="none"/>
<use x="391.23" y="214.01" xlink:href="#hd"/>
<path d="M387.73 214.01v17.20" stroke="currentColor" fill="none"/>
<use x="409.53" y="211.01" xlink:href="#hd"/>
<path d="M406.03 211.01v20.20" stroke="currentColor" fill="none"/>
<use x="427.83" y="214.01" xlink:href="#hd"/>
<path d="M424.33 214.01v17.20" stroke="currentColor" fill="none"/>
<use x="446.13" y="211.01" xlink:href="#hd"/>
<path d="M442.63 211.01v20.20" stroke="currentColor" fill="none"/>
<path fill="currentColor"
	d="M471.13 236.81l92.10 8.50v-3.20l-92.10 -8.50"/>
<use x="475.03" y="208.01" xlink:href="#hl"/>
<use x="475.03" y="208.01" xlink:href="#hd"/>
<path d="M471.53 208.01v27.80" stroke="currentColor" fill="none"/>
<use x="493.23" y="211.01" xlink:href="#hd"/>
<path d="M489.73 211.01v26.50" stroke="currentColor" fill="none"/>
<use x="511.53" y="214.01" xlink:href="#hd"/>
<path d="M508.03 214.01v25.20" stroke="currentColor" fill="none"/>
<use x="529.83" y="217.01" xlink:href="#hd"/>
<path d="M526.33 217.01v23.80" stroke="currentColor" fill="none"/>
<use x="548.13" y="220.01" xlink:href="#hd"/>
<path d="M544.63 220.01v22.50" stroke="currentColor" fill="none"/>
<use x="566.43" y="226.01" xlink:href="#hd"/>
<path d="M562.93 226.01v18.20" stroke="currentColor" fill="none"/>
<use x="595.33" y="223.01" xlink:href="#hd"/>
<path d="M591.83 223.01v20.00" stroke="currentColor" fill="none"/>
<path fill="currentColor"
	d="M619.83 243.31l55.60 4.90v-3.20l-55.60 -4.90"/>
<use x="623.63" y="220.01" xlink:href="#hd"/>
<path d="M620.13 220.01v22.30" stroke="currentColor" fill="none"/>
<use x="641.93" y="217.01" xlink:href="#hd"/>
<path d="M638.43 217.01v26.90" stroke="currentColor" fill="none"/>
<use x="660.23" y="223.01" xlink:href="#hd"/>
<path d="M656.73 223.01v22.60" stroke="currentColor" fill="none"/>
<use x="678.53" y="229.01" xlink:href="#hd"/>
<path d="M675.03 229.01v18.20" stroke="currentColor" fill="none"/>
<path stroke="currentColor" fill="none"
	d="M217.03 308.01v-24.00"/>
<path stroke="currentColor" fill="none"
	d="M374.33 308.01v-24.00"/>
<path stroke="currentColor" fill="none"
	d="M571.33 308.01v-24.00"/>
<path stroke="currentColor" fill="none" stroke-width="3"
	d="M693.43 308.01v-24.00"/>
<path stroke="currentColor" fill="none"
	d="M688.93 308.01v-24.00"/>
<use x="684.93" y="308.01" xlink:href="#rdots"/>
<path stroke="currentColor" fill="none"
	d="M13.33 308.01h681.60m-681.60 -6h681.60m-681.60 -6h681.60m-681.60 -6h681.60m-681.60 -6h681.60"/>
<use x="25.33" y="308.01" xlink:href="#tclef"/>
<use x="40.33" y="284.01" xlink:href="#sh0"/>
<use x="45.83" y="293.01" xlink:href="#sh0"/>
<use x="63.83" y="290.01" xlink:href="#hd"/>
<circle fill="currentColor" cx="71.83" cy="287.01" r="1.2"/>
<path d="M60.33 290.01v20.00" stroke="currentColor" fill="none"/>
<path fill="currentColor"
	d="M118.53 313.41l66.20 5.10v-3.20l-66.20 -5.10"/>
<use x="122.43" y="293.01" xlink:href="#hd"/>
<path d="M118.93 293.01v19.50" stroke="currentColor" fill="none"/>
<use x="155.13" y="296.01" xlink:href="#hd"/>
<path d="M151.63 296.01v19.00" stroke="currentColor" fill="none"/>
<use x="187.93" y="299.01" xlink:href="#hd"/>
<path d="M184.43 299.01v18.50" stroke="currentColor" fill="none"/>
<use x="235.23" y="287.01" xlink:href="#hd"/>
<circle fill="currentColor" cx="243.23" cy="287.01" r="1.2"/>
<path d="M231.73 287.01v20.00" stroke="currentColor" fill="none"/>
<use x="293.73" y="293.01" xlink:href="#hd"/>
<path d="M290.23 293.01v20.00" stroke="currentColor" fill="none"/>
<use x="345.23" y="293.01" xlink:href="#hd"/>
<path d="M341.73 293.01v20.00" stroke="currentColor" fill="none"/>
<path fill="currentColor"
	d="M341.73 313.01c0.6 -5.6 9.6 -9 5.6 -18.4
	c1.6 6 -1.3 11.6 -5.6 12.8
"/>
<use x="392.53" y="296.01" xlink:href="#hd"/>
<path d="M396.03 296.01v-20.00" stroke="currentColor" fill="none"/>
<path fill="currentColor"
	d="M447.13 276.81l98.90 0.00v3.20l-98.90 -0.00"/>
<use x="443.93" y="299.01" xlink:href="#hd"/>
<path d="M447.43 299.01v-21.20" stroke="currentColor" fill="none"/>
<use x="476.73" y="296.01" xlink:href="#hd"/>
<path d="M480.23 296.01v-18.20" stroke="currentColor" fill="none"/>
<use x="509.43" y="299.01" xlink:href="#hd"/>
<path d="M512.93 299.01v-21.20" stroke="currentColor" fill="none"/>
<use x="542.23" y="302.01" xlink:href="#hd"/>
<path d="M545.73 302.01v-24.20" stroke="currentColor" fill="none"/>
<use x="589.53" y="305.01" xlink:href="#hd"/>
<circle fill="currentColor" cx="597.53" cy="305.01" r="1.2"/>
<path d="M593.03 305.01v-20.00" stroke="currentColor" fill="none"/>
<use x="648.13" y="299.01" xlink:href="#hd"/>
<circle fill="currentColor" cx="656.13" cy="299.01" r="1.2"/>
<path d="M651.63 299.01v-20.00" stroke="currentColor" fill="none"/>
<use x="70.33" y="378.01" xlink:href="#rdots"/>
<path stroke="currentColor" fill="none"
	d="M66.33 378.01v-24.00"/>
<path stroke="currentColor" fill="none" stroke-width="3"
	d="M61.83 378.01v-24.00"/>
<path stroke="currentColor" fill="none"
	d="M130.33 378.01v-24.00"/>
<path stroke="currentColor" fill="none"
	d="M185.23 378.01v-24.00"/>
<path stroke="currentColor" fill="none"
	d="M258.43 378.01v-24.00"/>
<path stroke="currentColor" fill="none"
	d="M312.13 378.01v-24.00"/>
<path stroke="currentColor" fill="none"
	d="M371.13 378.01v-24.00"/>
<path stroke="currentColor" fill="none"
	d="M432.23 378.01v-24.00"/>
<path stroke="currentColor" fill="none"
	d="M505.43 378.01v-24.00"/>
<path stroke="currentColor" fill="none"
	d="M571.83 378.01v-24.00"/>
<path stroke="currentColor" fill="none"
	d="M630.83 378.01v-24.00"/>
<path stroke="currentColor" fill="none" stroke-width="3"
	d="M693.43 378.01v-24.00"/>
<path stroke="currentColor" fill="none"
	d="M688.93 378.01v-24.00"/>
<use x="684.93" y="378.01" xlink:href="#rdots"/>
<path stroke="currentColor" fill="none"
	d="M13.33 378.01h681.60m-681.60 -6h681.60m-681.60 -6h681.60m-681.60 -6h681.60m-681.60 -6h681.60"/>
<use x="25.33" y="378.01" xlink:href="#tclef"/>
<use x="40.33" y="354.01" xlink:href="#sh0"/>
<use x="45.83" y="363.01" xlink:href="#sh0"/>
<use x="83.83" y="351.01" xlink:href="#hd"/>
<path d="M80.33 351.01v20.00" stroke="currentColor" fill="none"/>
<use x="96.73" y="348.01" xlink:href="#hl"/>
<use x="96.73" y="348.01" xlink:href="#hd"/>
<path d="M93.23 348.01v20.00" stroke="currentColor" fill="none"/>
<path fill="currentColor"
	d="M93.23 368.01c0.6 -5.6 9.6 -9 5.6 -18.4
	c1.6 6 -1.3 11.6 -5.6 12.8
"/>
<use x="107.43" y="354.01" xlink:href="#hd"/>
<path d="M103.93 354.01v20.00" stroke="currentColor" fill="none"/>
<use x="120.43" y="351.01" xlink:href="#hd"/>
<path d="M116.93 351.01v20.00" stroke="currentColor" fill="none"/>
<path fill="currentColor"
	d="M116.93 371.01c0.6 -5.6 9.6 -9 5.6 -18.4
	c1.6 6 -1.3 11.6 -5.6 12.8
"/>
<use x="142.83" y="348.01" xlink:href="#hl"/>
<use x="142.83" y="348.01" xlink:href="#hd"/>
<path d="M139.33 348.01v20.00" stroke="currentColor" fill="none"/>
<use x="156.63" y="348.01" xlink:href="#hl"/>
<use x="156.63" y="345.01" xlink:href="#hd"/>
<path d="M153.13 345.01v21.00" stroke="currentColor" fill="none"/>
<path fill="currentColor"
	d="M153.13 366.01c0.6 -5.6 9.6 -9 5.6 -18.4
	c1.6 6 -1.3 11.6 -5.6 12.8
"/>
<use x="168.23" y="348.01" xlink:href="#hl"/>
<use x="168.23" y="348.01" xlink:href="#hd"/>
<circle fill="currentColor" cx="176.23" cy="345.01" r="1.2"/>
<path d="M164.73 348.01v20.00" stroke="currentColor" fill="none"/>
<path fill="currentColor"
	d="M193.83 375.01l51.50 0.00v-3.20l-51.50 -0.00"/>
<use x="197.73" y="354.01" xlink:href="#hd"/>
<path d="M194.23 354.01v20.00" stroke="currentColor" fill="none"/>
<use x="207.83" y="351.01" xlink:href="#hd"/>
<path d="M204.33 351.01v23.00" stroke="currentColor" fill="none"/>
<use x="218.03" y="348.01" xlink:href="#hl"/>
<use x="218.03" y="348.01" xlink:href="#hd"/>
<path d="M214.53 348.01v26.00" stroke="currentColor" fill="none"/>
<use x="228.23" y="357.01" xlink:href="#hd"/>
<path d="M224.73 357.01v17.00" stroke="currentColor" fill="none"/>
<use x="238.33" y="354.01" xlink:href="#hd"/>
<path d="M234.83 354.01v20.00" stroke="currentColor" fill="none"/>
<use x="248.53" y="348.01" xlink:href="#hl"/>
<use x="248.53" y="348.01" xlink:href="#hd"/>
<path d="M245.03 348.01v26.00" stroke="currentColor" fill="none"/>
<use x="270.93" y="354.01" xlink:href="#hd"/>
<circle fill="currentColor" cx="278.93" cy="351.01" r="1.2"/>
<path d="M267.43 354.01v20.00" stroke="currentColor" fill="none"/>
<use x="289.33" y="357.01" xlink:href="#hd"/>
<path d="M285.83 357.01v20.00" stroke="currentColor" fill="none"/>
<use x="302.23" y="351.01" xlink:href="#hd"/>
<path d="M298.73 351.01v20.00" stroke="currentColor" fill="none"/>
<path fill="currentColor"
	d="M298.73 371.01c0.6 -5.6 9.6 -9 5.6 -18.4
	c1.6 6 -1.3 11.6 -5.6 12.8
"/>
<use x="324.63" y="348.01" xlink:href="#hl"/>
<use x="324.63" y="348.01" xlink:href="#hd"/>
<path d="M321.13 348.01v20.00" stroke="currentColor" fill="none"/>
<use x="337.63" y="357.01" xlink:href="#hd"/>
<path d="M334.13 357.01v20.00" stroke="currentColor" fill="none"/>
<path fill="currentColor"
	d="M334.13 377.01c0.6 -5.6 9.6 -9 5.6 -18.4
	c1.6 6 -1.3 11.6 -5.6 12.8
"/>
<use x="348.33" y="348.01" xlink:href="#hl"/>
<use x="348.33" y="348.01" xlink:href="#hd"/>
<path d="M344.83 348.01v20.00" stroke="currentColor" fill="none"/>
<use x="361.23" y="357.01" xlink:href="#hd"/>
<path d="M357.73 357.01v20.00" stroke="currentColor" fill="none"/>
<path fill="currentColor"
	d="M357.73 377.01c0.6 -5.6 9.6 -9 5.6 -18.4
	c1.6 6 -1.3 11.6 -5.6 12.8
"/>
<use x="383.63" y="354.01" xlink:href="#hd"/>
<circle fill="currentColor" cx="391.63" cy="351.01" r="1.2"/>
<path d="M380.13 354.01v20.00" stroke="currentColor" fill="none"/>
<path fill="currentColor"
	d="M398.23 381.41l21.00 3.90v-3.20l-21.00 -3.90"/>
<use x="402.03" y="360.01" xlink:href="#hd"/>
<path d="M398.53 360.01v20.40" stroke="currentColor" fill="none"/>
<use x="412.23" y="363.01" xlink:href="#hd"/>
<path d="M408.73 363.01v19.30" stroke="currentColor" fill="none"/>
<use x="422.33" y="366.01" xlink:href="#hd"/>
<path d="M418.83 366.01v18.20" stroke="currentColor" fill="none"/>
<path fill="currentColor"
	d="M440.93 388.21l51.50 0.00v-3.20l-51.50 -0.00"/>
<use x="444.73" y="369.01" xlink:href="#hd"/>
<path d="M441.23 369.01v18.20" stroke="currentColor" fill="none"/>
<use x="454.93" y="363.01" xlink:href="#hd"/>
<path d="M451.43 363.01v24.20" stroke="currentColor" fill="none"/>
<use x="465.03" y="357.01" xlink:href="#hd"/>
<path d="M461.53 357.01v30.20" stroke="currentColor" fill="none"/>
<use x="475.23" y="360.01" xlink:href="#hd"/>
<path d="M471.73 360.01v27.20" stroke="currentColor" fill="none"/>
<use x="485.43" y="354.01" xlink:href="#hd"/>
<path d="M481.93 354.01v33.20" stroke="currentColor" fill="none"/>
<use x="495.53" y="360.01" xlink:href="#hd"/>
<path d="M492.03 360.01v27.20" stroke="currentColor" fill="none"/>
<path fill="currentColor"
	d="M514.13 387.41l21.00 -4.40v-3.20l-21.00 4.40"/>
<use x="517.93" y="363.01" xlink:href="#hd"/>
<path d="M514.43 363.01v23.30" stroke="currentColor" fill="none"/>
<use x="528.13" y="366.01" xlink:href="#hd"/>
<path d="M524.63 366.01v18.20" stroke="currentColor" fill="none"/>
<use x="538.23" y="351.01" xlink:href="#hd"/>
<path d="M534.73 351.01v31.10" stroke="currentColor" fill="none"/>
<use x="548.93" y="354.01" xlink:href="#hd"/>
<path d="M545.43 354.01v20.00" stroke="currentColor" fill="none"/>
<use x="561.93" y="354.01" xlink:href="#hd"/>
<path d="M558.43 354.01v20.00" stroke="currentColor" fill="none"/>
<path fill="currentColor"
	d="M558.43 374.01c0.6 -5.6 9.6 -9 5.6 -18.4
	c1.6 6 -1.3 11.6 -5.6 12.8
"/>
<use x="584.33" y="357.01" xlink:href="#hd"/>
<path d="M580.83 357.01v20.00" stroke="currentColor" fill="none"/>
<use x="597.23" y="363.01" xlink:href="#hd"/>
<path d="M593.73 363.01v20.00" stroke="currentColor" fill="none"/>
<path fill="currentColor"
	d="M593.73 383.01c0.6 -5.6 9.6 -9 5.6 -18.4
	c1.6 6 -1.3 11.6 -5.6 12.8
"/>
<use x="607.93" y="360.01" xlink:href="#hd"/>
<path d="M604.43 360.01v20.00" stroke="currentColor" fill="none"/>
<use x="620.93" y="363.01" xlink:href="#hd"/>
<path d="M617.43 363.01v20.00" stroke="currentColor" fill="none"/>
<path fill="currentColor"
	d="M617.43 383.01c0.6 -5.6 9.6 -9 5.6 -18.4
	c1.6 6 -1.3 11.6 -5.6 12.8
"/>
<use x="643.33" y="366.01" xlink:href="#hd"/>
<path d="M639.83 366.01v20.00" stroke="currentColor" fill="none"/>
<use x="656.23" y="348.01" xlink:href="#hl"/>
<use x="656.23" y="345.01" xlink:href="#hd"/>
<path d="M652.73 345.01v21.00" stroke="currentColor" fill="none"/>
<path fill="currentColor"
	d="M652.73 366.01c0.6 -5.6 9.6 -9 5.6 -18.4
	c1.6 6 -1.3 11.6 -5.6 12.8
"/>
<use x="666.93" y="351.01" xlink:href="#hd"/>
<circle fill="currentColor" cx="674.93" cy="351.01" r="1.2"/>
<path d="M663.43 351.01v20.00" stroke="currentColor" fill="none"/>
</g>
</svg>
