<?xml version="1.0" standalone="no"?>
<!DOCTYPE svg PUBLIC "-//W3C//DTD SVG 1.1//EN"
	"http://www.w3.org/Graphics/SVG/1.1/DTD/svg11.dtd">
<svg xmlns="http://www.w3.org/2000/svg" version="1.1"
	xmlns:xlink="http://www.w3.org/1999/xlink"
	xml:space='preserve' color="black"
	width="7.38in" height="1.75in" viewBox="0 0 531 126">
<title>data/results/biggest_11/abc/209.abc (209) tune 1</title>
<!-- Creator: abcm2ps-7.8.14 -->
<!-- CreationDate: Aug  9, 2015 23:50 -->
<!-- CommandLine: -g data/results/biggest_11/abc/209.abc -O /home/allanino/Dropbox/Trabalhos/folkme/svg/209.svg -->
<g transform="scale(0.750)" stroke-width="0.70" font-family="Times" font-size="20.00">
<text x="354.13" y="21.67" text-anchor="middle">Ländler FBb chords</text>
</g>
<g transform="scale(0.750)" stroke-width="0.70" font-family="Times" font-size="16.00">
<text x="354.13" y="41.30" text-anchor="middle">Hanny Christen. Bd.VIII Zug, Luzern, Uri I. S.217 (wz09603) orig. F,Bb-Dur</text>
<text x="354.13" y="60.13" text-anchor="middle">Tänze aus Kriens (Luzern), Josef Odermatt u. Breran saie (Bern) S.174ff (manen, uritengan (manen 3 (79)</text>
<defs>
<g id="rdots" fill="currentColor">
	<circle cx="0" cy="-9" r="1.2"/>
	<circle cx="0" cy="-15" r="1.2"/>
</g>
</defs>
<use x="104.43" y="144.67" xlink:href="#rdots"/>
<path stroke="currentColor" fill="none"
	d="M100.43 144.67v-24.00"/>
<path stroke="currentColor" fill="none" stroke-width="3"
	d="M95.93 144.67v-24.00"/>
<path stroke="currentColor" fill="none"
	d="M163.63 144.67v-24.00"/>
<path stroke="currentColor" fill="none"
	d="M236.83 144.67v-24.00"/>
<path stroke="currentColor" fill="none"
	d="M310.33 144.67v-24.00"/>
<path stroke="currentColor" fill="none"
	d="M368.43 144.67v-24.00"/>
<path stroke="currentColor" fill="none"
	d="M449.53 144.67v-24.00"/>
<path stroke="currentColor" fill="none"
	d="M516.93 144.67v-24.00"/>
<path stroke="currentColor" fill="none"
	d="M613.53 144.67v-24.00"/>
<path stroke="currentColor" fill="none" stroke-width="3"
	d="M693.43 144.67v-24.00"/>
<path stroke="currentColor" fill="none"
	d="M688.93 144.67v-24.00"/>
<use x="684.93" y="144.67" xlink:href="#rdots"/>
<path stroke="currentColor" fill="none"
	d="M13.33 144.67h681.60m-681.60 -6h681.60m-681.60 -6h681.60m-681.60 -6h681.60m-681.60 -6h681.60"/>
</g>
<g transform="scale(0.750)" stroke-width="0.70" font-family="Helvetica" font-size="12.00">
<text x="115.03" y="100.27">F</text>
<text x="169.93" y="100.27">C7</text>
<text x="319.93" y="100.27">F</text>
<text x="455.83" y="100.27">C7</text>
<text x="623.13" y="100.27">F</text>
<defs>
<path id="utclef" fill="currentColor" d="m-50 -90
	c-72 -41 -72 -158 52 -188
	c150 -10 220 188 90 256
	c-114 52 -275 0 -293 -136
	c-15 -181 93 -229 220 -334
	c88 -87 79 -133 62 -210
	c-51 33 -94 105 -89 186
	c17 267 36 374 49 574
	c6 96 -19 134 -77 135
	c-80 1 -126 -93 -61 -133
	c85 -41 133 101 31 105
	c23 17 92 37 90 -92
	c-10 -223 -39 -342 -50 -617
	c0 -90 0 -162 96 -232
	c56 72 63 230 22 289
	c-74 106 -257 168 -255 316
	c9 153 148 185 252 133
	c86 -65 29 -192 -80 -176
	c-71 12 -105 67 -59 124"/>
<use id="tclef" transform="scale(0.045)"
	xlink:href="#utclef"/>
</defs>
<use x="25.33" y="144.67" xlink:href="#tclef"/>
<defs>
<path id="uflat" fill="currentColor" d="
	m100 -746
	h32
	v734
	l-32 4
	m32 -332
	c46 -72 152 -90 208 -20
	c100 110 -120 326 -208 348
	m0 -28
	c54 0 200 -206 130 -290
	c-50 -60 -130 -4 -130 34"/>
<use id="ft0" transform="translate(-3.5,3.5) scale(0.018)"
	xlink:href="#uflat"/>
</defs>
<use x="40.33" y="132.67" xlink:href="#ft0"/>
<g font-family="serif" font-size="16" font-weight="bold" font-style="normal"
	transform="translate(56.33,144.67) scale(1.2,1)">
	<text y="-1" text-anchor="middle">4</text>
	<text y="-13" text-anchor="middle">2</text>
</g>
<path fill="currentColor"
	d="M70.53 157.97l11.30 -3.00v-3.20l-11.30 3.00"/>
<path fill="currentColor"
	d="M70.83 152.87l10.60 -2.80v-3.20l-10.60 2.80"/>
<defs>
<ellipse id="hd" rx="4.1" ry="2.9"
	transform="rotate(-20)" fill="currentColor"/>
</defs>
<use x="74.33" y="135.67" xlink:href="#hd"/>
<path d="M70.83 135.67v21.20" stroke="currentColor" fill="none"/>
<use x="84.93" y="129.67" xlink:href="#hd"/>
<path d="M81.43 129.67v24.40" stroke="currentColor" fill="none"/>
<use x="117.93" y="120.67" xlink:href="#hd"/>
<path d="M114.43 120.67v20.00" stroke="currentColor" fill="none"/>
<path fill="currentColor"
	d="M133.53 136.57l14.30 3.30v-3.20l-14.30 -3.30"/>
<defs>
<path id="hl" stroke="currentColor" d="m-6 0h12"/>
</defs>
<use x="137.33" y="114.67" xlink:href="#hl"/>
<use x="137.33" y="114.67" xlink:href="#hd"/>
<path d="M133.83 114.67v21.00" stroke="currentColor" fill="none"/>
<use x="150.93" y="120.67" xlink:href="#hd"/>
<path d="M147.43 120.67v18.20" stroke="currentColor" fill="none"/>
<path fill="currentColor"
	d="M172.23 145.87l33.60 -3.80v-3.20l-33.60 3.80"/>
<path fill="currentColor"
	d="M172.63 140.87l32.90 -3.70v-3.20l-32.90 3.70"/>
<use x="176.13" y="123.67" xlink:href="#hd"/>
<path d="M172.63 123.67v21.20" stroke="currentColor" fill="none"/>
<use x="186.73" y="114.67" xlink:href="#hl"/>
<use x="186.73" y="111.67" xlink:href="#hd"/>
<path d="M183.23 111.67v32.00" stroke="currentColor" fill="none"/>
<use x="197.83" y="114.67" xlink:href="#hl"/>
<use x="197.83" y="111.67" xlink:href="#hd"/>
<path d="M194.33 111.67v30.80" stroke="currentColor" fill="none"/>
<use x="209.03" y="114.67" xlink:href="#hl"/>
<use x="209.03" y="114.67" xlink:href="#hd"/>
<path d="M205.53 114.67v26.50" stroke="currentColor" fill="none"/>
<use x="220.43" y="117.67" xlink:href="#hd"/>
<path d="M216.93 117.67v20.00" stroke="currentColor" fill="none"/>
<path fill="currentColor"
	d="M245.43 152.67l49.10 0.00v-3.20l-49.10 -0.00"/>
<path fill="currentColor"
	d="M273.03 147.67l10.60 0.00v-3.20l-10.60 -0.00"/>
<use x="249.33" y="129.67" xlink:href="#hd"/>
<path d="M245.83 129.67v22.00" stroke="currentColor" fill="none"/>
<use x="262.93" y="126.67" xlink:href="#hd"/>
<path d="M259.43 126.67v25.00" stroke="currentColor" fill="none"/>
<use x="276.53" y="129.67" xlink:href="#hd"/>
<path d="M273.03 129.67v22.00" stroke="currentColor" fill="none"/>
<use x="287.13" y="132.67" xlink:href="#hd"/>
<path d="M283.63 132.67v19.00" stroke="currentColor" fill="none"/>
<use x="297.63" y="135.67" xlink:href="#hd"/>
<path d="M294.13 135.67v16.00" stroke="currentColor" fill="none"/>
<path fill="currentColor"
	d="M319.03 141.57l18.50 -3.70v-3.20l-18.50 3.70"/>
<path fill="currentColor"
	d="M331.13 134.07l6.00 -1.20v-3.20l-6.00 1.20"/>
<use x="322.83" y="120.67" xlink:href="#hd"/>
<circle fill="currentColor" cx="330.83" cy="117.67" r="1.2"/>
<path d="M319.33 120.67v19.80" stroke="currentColor" fill="none"/>
<use x="340.63" y="114.67" xlink:href="#hl"/>
<use x="340.63" y="114.67" xlink:href="#hd"/>
<path d="M337.13 114.67v22.20" stroke="currentColor" fill="none"/>
<use x="352.03" y="129.67" xlink:href="#hd"/>
<path d="M348.53 129.67v20.00" stroke="currentColor" fill="none"/>
<path fill="currentColor"
	d="M377.13 152.67l56.60 0.00v-3.20l-56.60 -0.00"/>
<path fill="currentColor"
	d="M377.43 147.67l10.60 0.00v-3.20l-10.60 -0.00"/>
<path fill="currentColor"
	d="M412.23 147.67l10.60 0.00v-3.20l-10.60 -0.00"/>
<use x="380.93" y="129.67" xlink:href="#hd"/>
<path d="M377.43 129.67v22.00" stroke="currentColor" fill="none"/>
<use x="391.53" y="132.67" xlink:href="#hd"/>
<path d="M388.03 132.67v19.00" stroke="currentColor" fill="none"/>
<use x="402.13" y="135.67" xlink:href="#hd"/>
<path d="M398.63 135.67v16.00" stroke="currentColor" fill="none"/>
<use x="415.73" y="129.67" xlink:href="#hd"/>
<path d="M412.23 129.67v22.00" stroke="currentColor" fill="none"/>
<use x="426.33" y="132.67" xlink:href="#hd"/>
<path d="M422.83 132.67v19.00" stroke="currentColor" fill="none"/>
<use x="436.83" y="135.67" xlink:href="#hd"/>
<path d="M433.33 135.67v16.00" stroke="currentColor" fill="none"/>
<path fill="currentColor"
	d="M465.13 114.47l45.70 0.00v3.20l-45.70 -0.00"/>
<path fill="currentColor"
	d="M504.53 119.47l6.00 0.00v3.20l-6.00 -0.00"/>
<use x="462.03" y="138.67" xlink:href="#hd"/>
<path d="M465.53 138.67v-23.20" stroke="currentColor" fill="none"/>
<use x="475.63" y="141.67" xlink:href="#hd"/>
<path d="M479.13 141.67v-26.20" stroke="currentColor" fill="none"/>
<use x="489.23" y="144.67" xlink:href="#hd"/>
<circle fill="currentColor" cx="497.23" cy="141.67" r="1.2"/>
<path d="M492.73 144.67v-29.20" stroke="currentColor" fill="none"/>
<use x="507.03" y="138.67" xlink:href="#hd"/>
<path d="M510.53 138.67v-23.20" stroke="currentColor" fill="none"/>
<path fill="currentColor"
	d="M532.63 104.47l74.80 0.00v3.20l-74.80 -0.00"/>
<path fill="currentColor"
	d="M532.93 109.47l74.10 0.00v3.20l-74.10 -0.00"/>
<use x="529.43" y="129.67" xlink:href="#hd"/>
<path d="M532.93 129.67v-24.20" stroke="currentColor" fill="none"/>
<use x="540.03" y="126.67" xlink:href="#hd"/>
<path d="M543.53 126.67v-21.20" stroke="currentColor" fill="none"/>
<use x="550.63" y="129.67" xlink:href="#hd"/>
<path d="M554.13 129.67v-24.20" stroke="currentColor" fill="none"/>
<use x="561.23" y="144.67" xlink:href="#hd"/>
<path d="M564.73 144.67v-39.20" stroke="currentColor" fill="none"/>
<use x="571.83" y="138.67" xlink:href="#hd"/>
<path d="M575.33 138.67v-33.20" stroke="currentColor" fill="none"/>
<use x="582.43" y="126.67" xlink:href="#hd"/>
<path d="M585.93 126.67v-21.20" stroke="currentColor" fill="none"/>
<use x="593.03" y="129.67" xlink:href="#hd"/>
<path d="M596.53 129.67v-24.20" stroke="currentColor" fill="none"/>
<use x="603.63" y="144.67" xlink:href="#hd"/>
<path d="M607.13 144.67v-39.20" stroke="currentColor" fill="none"/>
<path fill="currentColor"
	d="M622.23 160.97l35.50 -7.40v-3.20l-35.50 7.40"/>
<path fill="currentColor"
	d="M636.13 153.07l10.60 -2.20v-3.20l-10.60 2.20"/>
<use x="626.03" y="141.67" xlink:href="#hd"/>
<path d="M622.53 141.67v18.20" stroke="currentColor" fill="none"/>
<use x="639.63" y="135.67" xlink:href="#hd"/>
<path d="M636.13 135.67v21.40" stroke="currentColor" fill="none"/>
<use x="650.23" y="129.67" xlink:href="#hd"/>
<path d="M646.73 129.67v25.20" stroke="currentColor" fill="none"/>
<use x="660.83" y="120.67" xlink:href="#hd"/>
<path d="M657.33 120.67v32.00" stroke="currentColor" fill="none"/>
<defs>
<path id="r8e" fill="currentColor" d="m 0 0
	c-1.5 1.5 -2.4 2 -3.6 2
	c2.4 -2.8 -2.8 -4 -2.8 -1.2
	c0 2.7 4.3 2.4 5.9 0.6"/>
<g id="r8">
	<path d="m3.3 -4l-3.4 9.6" stroke="currentColor" fill="none"/>
	<use x="3.4" y="-4" xlink:href="#r8e"/>
</g>
</defs>
<use x="674.43" y="132.67" xlink:href="#r8"/>
</g>
</svg>
