<?xml version="1.0" standalone="no"?>
<!DOCTYPE svg PUBLIC "-//W3C//DTD SVG 1.1//EN"
	"http://www.w3.org/Graphics/SVG/1.1/DTD/svg11.dtd">
<svg xmlns="http://www.w3.org/2000/svg" version="1.1"
	xmlns:xlink="http://www.w3.org/1999/xlink"
	xml:space='preserve' color="black"
	width="7.38in" height="3.04in" viewBox="0 0 531 219">
<title>data/results/biggest_11/abc/211.abc (211) tune 1</title>
<!-- Creator: abcm2ps-7.8.14 -->
<!-- CreationDate: Aug  9, 2015 23:50 -->
<!-- CommandLine: -g data/results/biggest_11/abc/211.abc -O /home/allanino/Dropbox/Trabalhos/folkme/svg/211.svg -->
<g transform="scale(0.750)" stroke-width="0.70" font-family="Times" font-size="20.00">
<text x="354.13" y="21.67" text-anchor="middle">Mazurka FB</text>
<path stroke="currentColor" fill="none"
	d="M117.03 121.01v-24.00"/>
<path stroke="currentColor" fill="none"
	d="M173.13 121.01v-24.00"/>
<path stroke="currentColor" fill="none"
	d="M240.93 121.01v-24.00"/>
<path stroke="currentColor" fill="none"
	d="M314.23 121.01v-24.00"/>
<path stroke="currentColor" fill="none"
	d="M374.33 121.01v-24.00"/>
<path stroke="currentColor" fill="none"
	d="M431.53 121.01v-24.00"/>
<path stroke="currentColor" fill="none"
	d="M499.33 121.01v-24.00"/>
<path stroke="currentColor" fill="none" stroke-width="3"
	d="M561.73 121.01v-24.00"/>
<path stroke="currentColor" fill="none"
	d="M557.23 121.01v-24.00"/>
<defs>
<g id="rdots" fill="currentColor">
	<circle cx="0" cy="-9" r="1.2"/>
	<circle cx="0" cy="-15" r="1.2"/>
</g>
</defs>
<use x="553.23" y="121.01" xlink:href="#rdots"/>
<use x="626.13" y="121.01" xlink:href="#rdots"/>
<path stroke="currentColor" fill="none"
	d="M622.13 121.01v-24.00"/>
<path stroke="currentColor" fill="none" stroke-width="3"
	d="M617.63 121.01v-24.00"/>
<path stroke="currentColor" fill="none"
	d="M694.93 121.01v-24.00"/>
<path stroke="currentColor" fill="none"
	d="M13.33 121.01h681.60m-681.60 -6h681.60m-681.60 -6h681.60m-681.60 -6h681.60m-681.60 -6h681.60"/>
</g>
<g transform="scale(0.750)" stroke-width="0.70" font-family="Helvetica" font-size="12.00">
<text x="61.83" y="79.61">F</text>
<text x="121.43" y="79.61">C7</text>
<text x="248.53" y="79.61">F</text>
<text x="377.03" y="79.61">Gm</text>
<text x="435.63" y="79.61">G7</text>
<text x="511.83" y="79.61">C</text>
<text x="576.33" y="79.61">F</text>
<text x="634.73" y="79.61">F</text>
</g>
<g transform="scale(0.750)" stroke-width="0.70" font-family="Times" font-size="13.00">
<text x="503.33" y="64.41">1</text>
<path stroke="currentColor" fill="none"
	d="M499.33 53.01v20M499.33 53.01h55.90v20"/>
<text x="567.23" y="64.41">2</text>
<path stroke="currentColor" fill="none"
	d="M563.23 53.01v20M563.23 53.01h51.90v20"/>
<defs>
<path id="utclef" fill="currentColor" d="m-50 -90
	c-72 -41 -72 -158 52 -188
	c150 -10 220 188 90 256
	c-114 52 -275 0 -293 -136
	c-15 -181 93 -229 220 -334
	c88 -87 79 -133 62 -210
	c-51 33 -94 105 -89 186
	c17 267 36 374 49 574
	c6 96 -19 134 -77 135
	c-80 1 -126 -93 -61 -133
	c85 -41 133 101 31 105
	c23 17 92 37 90 -92
	c-10 -223 -39 -342 -50 -617
	c0 -90 0 -162 96 -232
	c56 72 63 230 22 289
	c-74 106 -257 168 -255 316
	c9 153 148 185 252 133
	c86 -65 29 -192 -80 -176
	c-71 12 -105 67 -59 124"/>
<use id="tclef" transform="scale(0.045)"
	xlink:href="#utclef"/>
</defs>
<use x="21.83" y="121.01" xlink:href="#tclef"/>
<defs>
<path id="uflat" fill="currentColor" d="
	m100 -746
	h32
	v734
	l-32 4
	m32 -332
	c46 -72 152 -90 208 -20
	c100 110 -120 326 -208 348
	m0 -28
	c54 0 200 -206 130 -290
	c-50 -60 -130 -4 -130 34"/>
<use id="ft0" transform="translate(-3.5,3.5) scale(0.018)"
	xlink:href="#uflat"/>
</defs>
<use x="36.13" y="109.01" xlink:href="#ft0"/>
<g font-family="serif" font-size="16" font-weight="bold" font-style="normal"
	transform="translate(49.63,121.01) scale(1.2,1)">
	<text y="-1" text-anchor="middle">4</text>
	<text y="-13" text-anchor="middle">3</text>
</g>
<path fill="currentColor"
	d="M67.93 97.51l10.40 -2.00v3.20l-10.40 2.00"/>
<defs>
<ellipse id="hd" rx="4.1" ry="2.9"
	transform="rotate(-20)" fill="currentColor"/>
</defs>
<use x="64.73" y="118.01" xlink:href="#hd"/>
<path d="M68.23 118.01v-19.60" stroke="currentColor" fill="none"/>
<use x="74.53" y="115.01" xlink:href="#hd"/>
<path d="M78.03 115.01v-18.40" stroke="currentColor" fill="none"/>
<use x="85.33" y="112.01" xlink:href="#hd"/>
<circle fill="currentColor" cx="93.33" cy="112.01" r="1.2"/>
<path d="M88.83 112.01v-20.00" stroke="currentColor" fill="none"/>
<use x="102.73" y="112.01" xlink:href="#hd"/>
<path d="M106.23 112.01v-20.00" stroke="currentColor" fill="none"/>
<path fill="currentColor"
	d="	M106.23 92.01c0.6 5.6 9.6 9 5.6 18.4
	c1.6 -6 -1.3 -11.6 -5.6 -12.8
"/>
<path fill="currentColor"
	d="M123.73 126.51l10.40 2.00v-3.20l-10.40 -2.00"/>
<use x="127.53" y="106.01" xlink:href="#hd"/>
<path d="M124.03 106.01v19.60" stroke="currentColor" fill="none"/>
<use x="137.33" y="109.01" xlink:href="#hd"/>
<path d="M133.83 109.01v18.40" stroke="currentColor" fill="none"/>
<use x="147.03" y="115.01" xlink:href="#hd"/>
<circle fill="currentColor" cx="155.03" cy="112.01" r="1.2"/>
<path d="M150.53 115.01v-20.00" stroke="currentColor" fill="none"/>
<use x="164.43" y="106.01" xlink:href="#hd"/>
<path d="M160.93 106.01v20.00" stroke="currentColor" fill="none"/>
<path fill="currentColor"
	d="M160.93 126.01c0.6 -5.6 9.6 -9 5.6 -18.4
	c1.6 6 -1.3 11.6 -5.6 12.8
"/>
<path fill="currentColor"
	d="M179.83 133.01l49.30 7.20v-3.20l-49.30 -7.20"/>
<use x="183.63" y="100.01" xlink:href="#hd"/>
<path d="M180.13 100.01v32.10" stroke="currentColor" fill="none"/>
<use x="193.33" y="103.01" xlink:href="#hd"/>
<path d="M189.83 103.01v30.50" stroke="currentColor" fill="none"/>
<use x="203.13" y="106.01" xlink:href="#hd"/>
<path d="M199.63 106.01v28.90" stroke="currentColor" fill="none"/>
<use x="212.83" y="100.01" xlink:href="#hd"/>
<path d="M209.33 100.01v36.40" stroke="currentColor" fill="none"/>
<use x="222.53" y="109.01" xlink:href="#hd"/>
<path d="M219.03 109.01v28.80" stroke="currentColor" fill="none"/>
<use x="232.23" y="121.01" xlink:href="#hd"/>
<path d="M228.73 121.01v18.20" stroke="currentColor" fill="none"/>
<path fill="currentColor"
	d="M247.63 137.21l54.80 0.00v-3.20l-54.80 -0.00"/>
<use x="251.43" y="118.01" xlink:href="#hd"/>
<path d="M247.93 118.01v18.20" stroke="currentColor" fill="none"/>
<use x="261.23" y="103.01" xlink:href="#hd"/>
<path d="M257.73 103.01v33.20" stroke="currentColor" fill="none"/>
<use x="270.93" y="106.01" xlink:href="#hd"/>
<path d="M267.43 106.01v30.20" stroke="currentColor" fill="none"/>
<use x="286.13" y="109.01" xlink:href="#hd"/>
<defs>
<path id="unat" fill="currentColor" d="
	m96 -750
	h-32
	v716
	l32 -8
	l182 -54
	v282
	h32
	v-706
	l-34 10
	l-180 50
	v-290
	m0 592
	v-190
	l182 -52
	v188"/>
<use id="nt0" transform="translate(-3,5) scale(0.018)"
	xlink:href="#unat"/>
</defs>
<use x="277.13" y="109.01" xlink:href="#nt0"/>
<path d="M282.63 109.01v27.20" stroke="currentColor" fill="none"/>
<use x="295.83" y="106.01" xlink:href="#hd"/>
<path d="M292.33 106.01v30.20" stroke="currentColor" fill="none"/>
<use x="305.53" y="112.01" xlink:href="#hd"/>
<path d="M302.03 112.01v24.20" stroke="currentColor" fill="none"/>
<defs>
<path id="hl" stroke="currentColor" d="m-6 0h12"/>
</defs>
<use x="324.73" y="91.01" xlink:href="#hl"/>
<use x="324.73" y="91.01" xlink:href="#hd"/>
<circle fill="currentColor" cx="332.73" cy="88.01" r="1.2"/>
<path d="M321.23 91.01v20.00" stroke="currentColor" fill="none"/>
<path fill="currentColor"
	d="M342.43 113.31l20.10 -3.40v-3.20l-20.10 3.40"/>
<use x="346.23" y="94.01" xlink:href="#hd"/>
<defs>
<path id="usharp" fill="currentColor" d="
	m136 -702
	v890
	h32
	v-890
	m128 840
	h32
	v-888
	h-32
	m-232 286
	v116
	l338 -96
	v-116
	m-338 442
	v116
	l338 -98
	v-114"/>
<use id="sh0" transform="translate(-4,5) scale(0.018)"
	xlink:href="#usharp"/>
</defs>
<use x="337.23" y="94.01" xlink:href="#sh0"/>
<path d="M342.73 94.01v18.20" stroke="currentColor" fill="none"/>
<use x="356.03" y="91.01" xlink:href="#hl"/>
<use x="356.03" y="91.01" xlink:href="#hd"/>
<path d="M352.53 91.01v19.50" stroke="currentColor" fill="none"/>
<use x="365.73" y="91.01" xlink:href="#hl"/>
<use x="365.73" y="88.01" xlink:href="#hd"/>
<path d="M362.23 88.01v20.90" stroke="currentColor" fill="none"/>
<path fill="currentColor"
	d="M381.03 112.01l10.40 0.00v-3.20l-10.40 -0.00"/>
<use x="384.93" y="91.01" xlink:href="#hl"/>
<use x="384.93" y="91.01" xlink:href="#hd"/>
<path d="M381.43 91.01v20.00" stroke="currentColor" fill="none"/>
<use x="394.63" y="91.01" xlink:href="#hl"/>
<use x="394.63" y="91.01" xlink:href="#hd"/>
<path d="M391.13 91.01v20.00" stroke="currentColor" fill="none"/>
<use x="405.43" y="103.01" xlink:href="#hd"/>
<circle fill="currentColor" cx="413.43" cy="100.01" r="1.2"/>
<path d="M401.93 103.01v20.00" stroke="currentColor" fill="none"/>
<use x="422.83" y="91.01" xlink:href="#hl"/>
<use x="422.83" y="91.01" xlink:href="#hd"/>
<path d="M419.33 91.01v20.00" stroke="currentColor" fill="none"/>
<path fill="currentColor"
	d="M419.33 111.01c0.6 -5.6 9.6 -9 5.6 -18.4
	c1.6 6 -1.3 11.6 -5.6 12.8
"/>
<path fill="currentColor"
	d="M438.23 121.21l49.30 0.00v-3.20l-49.30 -0.00"/>
<use x="442.03" y="97.01" xlink:href="#hd"/>
<path d="M438.53 97.01v23.20" stroke="currentColor" fill="none"/>
<use x="451.73" y="91.01" xlink:href="#hl"/>
<use x="451.73" y="91.01" xlink:href="#hd"/>
<path d="M448.23 91.01v29.20" stroke="currentColor" fill="none"/>
<use x="461.53" y="94.01" xlink:href="#hd"/>
<path d="M458.03 94.01v26.20" stroke="currentColor" fill="none"/>
<use x="471.23" y="97.01" xlink:href="#hd"/>
<path d="M467.73 97.01v23.20" stroke="currentColor" fill="none"/>
<use x="480.93" y="100.01" xlink:href="#hd"/>
<path d="M477.43 100.01v20.20" stroke="currentColor" fill="none"/>
<use x="490.73" y="103.01" xlink:href="#hd"/>
<path d="M487.23 103.01v17.20" stroke="currentColor" fill="none"/>
<use x="515.33" y="106.01" xlink:href="#hd"/>
<path d="M511.83 106.01v20.00" stroke="currentColor" fill="none"/>
<defs>
<path id="r4" fill="currentColor" d="m-1 -8.5
	l3.6 5.1 -2.1 5.2 2.2 4.3
	c-2.6 -2.3 -5.1 0 -2.4 2.6
	c-4.8 -3 -1.5 -6.9 1.4 -4.1
	l-3.1 -4.5 1.9 -5.1 -1.5 -3.5"/>
</defs>
<use x="530.63" y="109.01" xlink:href="#r4"/>
<use x="545.93" y="109.01" xlink:href="#r4"/>
<use x="579.23" y="97.01" xlink:href="#hd"/>
<path d="M575.73 97.01v20.00" stroke="currentColor" fill="none"/>
<use x="594.53" y="109.01" xlink:href="#r4"/>
<use x="609.83" y="106.01" xlink:href="#hd"/>
<path d="M606.33 106.01v20.00" stroke="currentColor" fill="none"/>
<path fill="currentColor"
	d="M633.83 123.91l49.30 0.00v-3.20l-49.30 -0.00"/>
<use x="637.63" y="91.01" xlink:href="#hl"/>
<use x="637.63" y="91.01" xlink:href="#hd"/>
<path d="M634.13 91.01v32.00" stroke="currentColor" fill="none"/>
<use x="647.33" y="106.01" xlink:href="#hd"/>
<path d="M643.83 106.01v17.00" stroke="currentColor" fill="none"/>
<use x="657.13" y="97.01" xlink:href="#hd"/>
<path d="M653.63 97.01v26.00" stroke="currentColor" fill="none"/>
<use x="666.83" y="91.01" xlink:href="#hl"/>
<use x="666.83" y="91.01" xlink:href="#hd"/>
<path d="M663.33 91.01v32.00" stroke="currentColor" fill="none"/>
<use x="676.53" y="94.01" xlink:href="#hd"/>
<path d="M673.03 94.01v29.00" stroke="currentColor" fill="none"/>
<use x="686.33" y="97.01" xlink:href="#hd"/>
<path d="M682.83 97.01v26.00" stroke="currentColor" fill="none"/>
<path stroke="currentColor" fill="none"
	d="M180.63 194.01v-24.00"/>
<path stroke="currentColor" fill="none"
	d="M315.53 194.01v-24.00"/>
<path stroke="currentColor" fill="none"
	d="M450.43 194.01v-24.00"/>
<path stroke="currentColor" fill="none"
	d="M560.13 194.01v-24.00"/>
<path stroke="currentColor" fill="none"
	d="M694.93 194.01v-24.00"/>
<path stroke="currentColor" fill="none"
	d="M13.33 194.01h681.60m-681.60 -6h681.60m-681.60 -6h681.60m-681.60 -6h681.60m-681.60 -6h681.60"/>
</g>
<g transform="scale(0.750)" stroke-width="0.70" font-family="Helvetica" font-size="12.00">
<text x="52.13" y="155.61">C7</text>
<text x="325.13" y="155.61">F</text>
<text x="457.03" y="155.61">B♭</text>
<text x="566.43" y="155.61">C7</text>
<use x="25.33" y="194.01" xlink:href="#tclef"/>
<use x="40.33" y="182.01" xlink:href="#ft0"/>
<path fill="currentColor"
	d="M54.53 195.51l104.50 11.70v-3.20l-104.50 -11.70"/>
<use x="58.33" y="173.01" xlink:href="#hd"/>
<path d="M54.83 173.01v21.60" stroke="currentColor" fill="none"/>
<use x="79.13" y="176.01" xlink:href="#hd"/>
<path d="M75.63 176.01v20.90" stroke="currentColor" fill="none"/>
<use x="99.83" y="179.01" xlink:href="#hd"/>
<path d="M96.33 179.01v20.20" stroke="currentColor" fill="none"/>
<use x="120.63" y="182.01" xlink:href="#hd"/>
<path d="M117.13 182.01v19.50" stroke="currentColor" fill="none"/>
<use x="141.43" y="185.01" xlink:href="#hd"/>
<path d="M137.93 185.01v18.90" stroke="currentColor" fill="none"/>
<use x="162.13" y="188.01" xlink:href="#hd"/>
<path d="M158.63 188.01v18.20" stroke="currentColor" fill="none"/>
<path fill="currentColor"
	d="M189.33 204.21l104.50 9.00v-3.20l-104.50 -9.00"/>
<use x="193.13" y="179.01" xlink:href="#hd"/>
<path d="M189.63 179.01v24.30" stroke="currentColor" fill="none"/>
<use x="213.93" y="173.01" xlink:href="#hd"/>
<path d="M210.43 173.01v32.00" stroke="currentColor" fill="none"/>
<use x="234.73" y="173.01" xlink:href="#hd"/>
<path d="M231.23 173.01v33.80" stroke="currentColor" fill="none"/>
<use x="255.43" y="179.01" xlink:href="#hd"/>
<path d="M251.93 179.01v29.60" stroke="currentColor" fill="none"/>
<use x="276.23" y="188.01" xlink:href="#hd"/>
<path d="M272.73 188.01v22.40" stroke="currentColor" fill="none"/>
<use x="297.03" y="194.01" xlink:href="#hd"/>
<path d="M293.53 194.01v18.20" stroke="currentColor" fill="none"/>
<path fill="currentColor"
	d="M324.13 210.21l104.60 -13.80v-3.20l-104.60 13.80"/>
<use x="328.03" y="191.01" xlink:href="#hd"/>
<path d="M324.53 191.01v18.20" stroke="currentColor" fill="none"/>
<use x="348.83" y="185.01" xlink:href="#hd"/>
<path d="M345.33 185.01v21.50" stroke="currentColor" fill="none"/>
<use x="369.53" y="179.01" xlink:href="#hd"/>
<path d="M366.03 179.01v24.70" stroke="currentColor" fill="none"/>
<use x="390.33" y="170.01" xlink:href="#hd"/>
<path d="M386.83 170.01v31.00" stroke="currentColor" fill="none"/>
<use x="411.13" y="164.01" xlink:href="#hl"/>
<use x="411.13" y="164.01" xlink:href="#hd"/>
<path d="M407.63 164.01v34.20" stroke="currentColor" fill="none"/>
<use x="431.93" y="164.01" xlink:href="#hl"/>
<use x="431.93" y="158.01" xlink:href="#hl"/>
<use x="431.93" y="158.01" xlink:href="#hd"/>
<path d="M428.43 158.01v37.50" stroke="currentColor" fill="none"/>
<use x="462.93" y="167.01" xlink:href="#hd"/>
<circle fill="currentColor" cx="470.93" cy="167.01" r="1.2"/>
<path d="M459.43 167.01v20.00" stroke="currentColor" fill="none"/>
<path fill="currentColor"
	d="M496.23 190.61l42.20 4.70v-3.20l-42.20 -4.70"/>
<use x="500.03" y="170.01" xlink:href="#hd"/>
<path d="M496.53 170.01v19.70" stroke="currentColor" fill="none"/>
<use x="520.83" y="173.01" xlink:href="#hd"/>
<path d="M517.33 173.01v19.00" stroke="currentColor" fill="none"/>
<use x="541.53" y="176.01" xlink:href="#hd"/>
<path d="M538.03 176.01v18.30" stroke="currentColor" fill="none"/>
<path fill="currentColor"
	d="M568.73 197.01l104.50 0.00v-3.20l-104.50 -0.00"/>
<use x="572.63" y="176.01" xlink:href="#hd"/>
<path d="M569.13 176.01v20.00" stroke="currentColor" fill="none"/>
<use x="593.33" y="179.01" xlink:href="#hd"/>
<path d="M589.83 179.01v17.00" stroke="currentColor" fill="none"/>
<use x="614.13" y="173.01" xlink:href="#hd"/>
<path d="M610.63 173.01v23.00" stroke="currentColor" fill="none"/>
<use x="634.93" y="167.01" xlink:href="#hd"/>
<path d="M631.43 167.01v29.00" stroke="currentColor" fill="none"/>
<use x="655.63" y="179.01" xlink:href="#hd"/>
<path d="M652.13 179.01v17.00" stroke="currentColor" fill="none"/>
<use x="676.43" y="173.01" xlink:href="#hd"/>
<path d="M672.93 173.01v23.00" stroke="currentColor" fill="none"/>
<path stroke="currentColor" fill="none" stroke-width="3"
	d="M168.83 269.01v-24.00"/>
<path stroke="currentColor" fill="none"
	d="M164.33 269.01v-24.00"/>
<use x="160.33" y="269.01" xlink:href="#rdots"/>
<use x="279.13" y="269.01" xlink:href="#rdots"/>
<path stroke="currentColor" fill="none"
	d="M275.13 269.01v-24.00"/>
<path stroke="currentColor" fill="none" stroke-width="3"
	d="M270.63 269.01v-24.00"/>
<path stroke="currentColor" fill="none"
	d="M366.73 269.01v-24.00"/>
<path stroke="currentColor" fill="none"
	d="M485.13 269.01v-24.00"/>
<path stroke="currentColor" fill="none"
	d="M603.83 269.01v-24.00"/>
<path stroke="currentColor" fill="none" stroke-width="3"
	d="M693.43 269.01v-24.00"/>
<path stroke="currentColor" fill="none"
	d="M688.93 269.01v-24.00"/>
<use x="684.93" y="269.01" xlink:href="#rdots"/>
<path stroke="currentColor" fill="none"
	d="M13.33 269.01h681.60m-681.60 -6h681.60m-681.60 -6h681.60m-681.60 -6h681.60m-681.60 -6h681.60"/>
<text x="73.93" y="232.61">F</text>
<text x="186.33" y="232.61">F</text>
<text x="286.73" y="232.61">B♭</text>
<text x="494.63" y="232.61">F</text>
</g>
<g transform="scale(0.750)" stroke-width="0.70" font-family="Times" font-size="13.00">
<text x="61.83" y="230.41">1</text>
<path stroke="currentColor" fill="none"
	d="M57.83 219.01v20M57.83 219.01h104.50v20"/>
<text x="174.33" y="230.41">2</text>
<path stroke="currentColor" fill="none"
	d="M170.33 219.01v20M170.33 219.01h97.80v20"/>
<use x="25.33" y="269.01" xlink:href="#tclef"/>
<use x="40.33" y="257.01" xlink:href="#ft0"/>
<use x="76.83" y="245.01" xlink:href="#hd"/>
<path d="M73.33 245.01v20.00" stroke="currentColor" fill="none"/>
<use x="104.33" y="257.01" xlink:href="#r4"/>
<path fill="currentColor"
	d="M128.03 268.31l18.60 2.30v-3.20l-18.60 -2.30"/>
<use x="131.93" y="248.01" xlink:href="#hd"/>
<path d="M128.43 248.01v19.40" stroke="currentColor" fill="none"/>
<use x="149.83" y="251.01" xlink:href="#hd"/>
<path d="M146.33 251.01v18.60" stroke="currentColor" fill="none"/>
<use x="189.33" y="245.01" xlink:href="#hd"/>
<path d="M185.83 245.01v20.00" stroke="currentColor" fill="none"/>
<use x="216.83" y="257.01" xlink:href="#r4"/>
<path fill="currentColor"
	d="M244.83 244.81l18.60 0.00v3.20l-18.60 -0.00"/>
<use x="241.73" y="266.01" xlink:href="#hd"/>
<path d="M245.23 266.01v-20.20" stroke="currentColor" fill="none"/>
<use x="259.63" y="266.01" xlink:href="#hd"/>
<path d="M263.13 266.01v-20.20" stroke="currentColor" fill="none"/>
<use x="292.63" y="245.01" xlink:href="#hd"/>
<circle fill="currentColor" cx="300.63" cy="242.01" r="1.2"/>
<path d="M289.13 245.01v20.00" stroke="currentColor" fill="none"/>
<use x="324.73" y="245.01" xlink:href="#hd"/>
<path d="M321.23 245.01v20.00" stroke="currentColor" fill="none"/>
<path fill="currentColor"
	d="M321.23 265.01c0.6 -5.6 9.6 -9 5.6 -18.4
	c1.6 6 -1.3 11.6 -5.6 12.8
"/>
<use x="344.43" y="239.01" xlink:href="#hl"/>
<use x="344.43" y="236.01" xlink:href="#hd"/>
<path d="M340.93 236.01v21.00" stroke="currentColor" fill="none"/>
<path fill="currentColor"
	d="M375.43 259.31l90.40 10.90v-3.20l-90.40 -10.90"/>
<use x="379.23" y="239.01" xlink:href="#hl"/>
<use x="379.23" y="236.01" xlink:href="#hd"/>
<path d="M375.73 236.01v22.40" stroke="currentColor" fill="none"/>
<use x="397.33" y="239.01" xlink:href="#hl"/>
<use x="397.33" y="239.01" xlink:href="#hd"/>
<path d="M393.83 239.01v21.50" stroke="currentColor" fill="none"/>
<use x="415.23" y="242.01" xlink:href="#hd"/>
<path d="M411.73 242.01v20.70" stroke="currentColor" fill="none"/>
<use x="433.23" y="245.01" xlink:href="#hd"/>
<path d="M429.73 245.01v19.90" stroke="currentColor" fill="none"/>
<use x="451.13" y="248.01" xlink:href="#hd"/>
<path d="M447.63 248.01v19.00" stroke="currentColor" fill="none"/>
<use x="469.03" y="251.01" xlink:href="#hd"/>
<path d="M465.53 251.01v18.20" stroke="currentColor" fill="none"/>
<path fill="currentColor"
	d="M493.73 273.21l90.80 -7.30v-3.20l-90.80 7.30"/>
<use x="497.63" y="254.01" xlink:href="#hd"/>
<path d="M494.13 254.01v18.20" stroke="currentColor" fill="none"/>
<use x="515.53" y="245.01" xlink:href="#hd"/>
<path d="M512.03 245.01v25.80" stroke="currentColor" fill="none"/>
<use x="533.43" y="239.01" xlink:href="#hl"/>
<use x="533.43" y="239.01" xlink:href="#hd"/>
<path d="M529.93 239.01v30.30" stroke="currentColor" fill="none"/>
<use x="551.53" y="239.01" xlink:href="#hl"/>
<use x="551.53" y="233.01" xlink:href="#hl"/>
<use x="551.53" y="233.01" xlink:href="#hd"/>
<path d="M548.03 233.01v34.90" stroke="currentColor" fill="none"/>
<use x="569.63" y="239.01" xlink:href="#hl"/>
<use x="569.63" y="236.01" xlink:href="#hd"/>
<path d="M566.13 236.01v30.40" stroke="currentColor" fill="none"/>
<use x="587.73" y="239.01" xlink:href="#hl"/>
<use x="587.73" y="239.01" xlink:href="#hd"/>
<path d="M584.23 239.01v26.00" stroke="currentColor" fill="none"/>
<use x="616.33" y="245.01" xlink:href="#hd"/>
<path d="M612.83 245.01v20.00" stroke="currentColor" fill="none"/>
<use x="643.83" y="257.01" xlink:href="#r4"/>
<use x="671.33" y="257.01" xlink:href="#r4"/>
</g>
</svg>
