<?xml version="1.0" standalone="no"?>
<!DOCTYPE svg PUBLIC "-//W3C//DTD SVG 1.1//EN"
	"http://www.w3.org/Graphics/SVG/1.1/DTD/svg11.dtd">
<svg xmlns="http://www.w3.org/2000/svg" version="1.1"
	xmlns:xlink="http://www.w3.org/1999/xlink"
	xml:space='preserve' color="black"
	width="7.38in" height="2.24in" viewBox="0 0 531 161">
<title>data/results/biggest_11/abc/213.abc (213) tune 1</title>
<!-- Creator: abcm2ps-7.8.14 -->
<!-- CreationDate: Aug  9, 2015 23:50 -->
<!-- CommandLine: -g data/results/biggest_11/abc/213.abc -O /home/allanino/Dropbox/Trabalhos/folkme/svg/213.svg -->
<g transform="scale(0.750)" stroke-width="0.70" font-family="Times" font-size="20.00">
<text x="354.13" y="21.67" text-anchor="middle">Mazurka FC chords</text>
</g>
<g transform="scale(0.750)" stroke-width="0.70" font-family="Times" font-size="16.00">
<text x="354.13" y="41.30" text-anchor="middle">Hanny Christen. Bd.VIII Zug, Luzern, Uri I. S.336 (mz11461) orig. F,Bb-Dur</text>
<text x="354.13" y="60.13" text-anchor="middle">Tänze aus Altdorf (Uri)</text>
</g>
<g transform="scale(0.750)" stroke-width="0.70" font-family="Times" font-size="15.00">
<text x="64.33" y="105.67">C</text>
<path stroke="currentColor" fill="none"
	d="M165.93 191.67v-24.00"/>
<path stroke="currentColor" fill="none"
	d="M237.03 191.67v-24.00"/>
<path stroke="currentColor" fill="none"
	d="M234.03 191.67v-24.00"/>
<path stroke="currentColor" fill="none"
	d="M307.43 191.67v-24.00"/>
<path stroke="currentColor" fill="none"
	d="M372.03 191.67v-24.00"/>
<path stroke="currentColor" fill="none"
	d="M442.43 191.67v-24.00"/>
<path stroke="currentColor" fill="none"
	d="M526.73 191.67v-24.00"/>
<path stroke="currentColor" fill="none"
	d="M620.83 191.67v-24.00"/>
<path stroke="currentColor" fill="none" stroke-width="3"
	d="M693.43 191.67v-24.00"/>
<path stroke="currentColor" fill="none"
	d="M688.93 191.67v-24.00"/>
<defs>
<g id="rdots" fill="currentColor">
	<circle cx="0" cy="-9" r="1.2"/>
	<circle cx="0" cy="-15" r="1.2"/>
</g>
</defs>
<use x="684.93" y="191.67" xlink:href="#rdots"/>
<path stroke="currentColor" fill="none"
	d="M13.33 191.67h681.60m-681.60 -6h681.60m-681.60 -6h681.60m-681.60 -6h681.60m-681.60 -6h681.60"/>
</g>
<g transform="scale(0.750)" stroke-width="0.70" font-family="Helvetica" font-size="12.00">
<text x="71.43" y="124.27">F</text>
<text x="68.13" y="136.27">C7</text>
<text x="175.53" y="136.27">F</text>
<text x="246.53" y="136.27">F</text>
<text x="313.83" y="136.27">C7</text>
<text x="452.03" y="136.27">F</text>
<text x="533.03" y="136.27">C7</text>
<text x="630.43" y="136.27">F</text>
<defs>
<path id="utclef" fill="currentColor" d="m-50 -90
	c-72 -41 -72 -158 52 -188
	c150 -10 220 188 90 256
	c-114 52 -275 0 -293 -136
	c-15 -181 93 -229 220 -334
	c88 -87 79 -133 62 -210
	c-51 33 -94 105 -89 186
	c17 267 36 374 49 574
	c6 96 -19 134 -77 135
	c-80 1 -126 -93 -61 -133
	c85 -41 133 101 31 105
	c23 17 92 37 90 -92
	c-10 -223 -39 -342 -50 -617
	c0 -90 0 -162 96 -232
	c56 72 63 230 22 289
	c-74 106 -257 168 -255 316
	c9 153 148 185 252 133
	c86 -65 29 -192 -80 -176
	c-71 12 -105 67 -59 124"/>
<use id="tclef" transform="scale(0.045)"
	xlink:href="#utclef"/>
</defs>
<use x="25.33" y="191.67" xlink:href="#tclef"/>
<defs>
<path id="uflat" fill="currentColor" d="
	m100 -746
	h32
	v734
	l-32 4
	m32 -332
	c46 -72 152 -90 208 -20
	c100 110 -120 326 -208 348
	m0 -28
	c54 0 200 -206 130 -290
	c-50 -60 -130 -4 -130 34"/>
<use id="ft0" transform="translate(-3.5,3.5) scale(0.018)"
	xlink:href="#uflat"/>
</defs>
<use x="40.33" y="179.67" xlink:href="#ft0"/>
<g font-family="serif" font-size="16" font-weight="bold" font-style="normal"
	transform="translate(56.33,191.67) scale(1.2,1)">
	<text y="-1" text-anchor="middle">4</text>
	<text y="-13" text-anchor="middle">3</text>
</g>
<defs>
<path id="hl" stroke="currentColor" d="m-6 0h12"/>
</defs>
<use x="74.33" y="161.67" xlink:href="#hl"/>
<defs>
<ellipse id="hd" rx="4.1" ry="2.9"
	transform="rotate(-20)" fill="currentColor"/>
</defs>
<use x="74.33" y="158.67" xlink:href="#hd"/>
<path d="M70.83 158.67v21.00" stroke="currentColor" fill="none"/>
<use x="94.83" y="170.67" xlink:href="#hd"/>
<path d="M91.33 170.67v20.00" stroke="currentColor" fill="none"/>
<path fill="currentColor"
	d="M91.33 190.67c0.6 -5.6 9.6 -9 5.6 -18.4
	c1.6 6 -1.3 11.6 -5.6 12.8
"/>
<use x="109.93" y="176.67" xlink:href="#hd"/>
<path d="M106.43 176.67v20.00" stroke="currentColor" fill="none"/>
<use x="130.43" y="161.67" xlink:href="#hl"/>
<use x="130.43" y="155.67" xlink:href="#hl"/>
<use x="130.43" y="155.67" xlink:href="#hd"/>
<path d="M126.93 155.67v24.00" stroke="currentColor" fill="none"/>
<use x="149.13" y="191.67" xlink:href="#hd"/>
<path d="M152.63 191.67v-20.00" stroke="currentColor" fill="none"/>
<use x="178.43" y="167.67" xlink:href="#hd"/>
<path d="M174.93 167.67v20.00" stroke="currentColor" fill="none"/>
<use x="199.03" y="161.67" xlink:href="#hl"/>
<use x="199.03" y="161.67" xlink:href="#hd"/>
<path d="M195.53 161.67v20.00" stroke="currentColor" fill="none"/>
<defs>
<path id="r4" fill="currentColor" d="m-1 -8.5
	l3.6 5.1 -2.1 5.2 2.2 4.3
	c-2.6 -2.3 -5.1 0 -2.4 2.6
	c-4.8 -3 -1.5 -6.9 1.4 -4.1
	l-3.1 -4.5 1.9 -5.1 -1.5 -3.5"/>
</defs>
<use x="219.53" y="179.67" xlink:href="#r4"/>
<use x="249.53" y="161.67" xlink:href="#hl"/>
<use x="249.53" y="161.67" xlink:href="#hd"/>
<path d="M246.03 161.67v20.00" stroke="currentColor" fill="none"/>
<use x="270.03" y="164.67" xlink:href="#hd"/>
<path d="M266.53 164.67v20.00" stroke="currentColor" fill="none"/>
<use x="290.53" y="167.67" xlink:href="#hd"/>
<path d="M287.03 167.67v20.00" stroke="currentColor" fill="none"/>
<path fill="currentColor"
	d="M316.13 189.97l14.40 -4.40v-3.20l-14.40 4.40"/>
<use x="319.93" y="170.67" xlink:href="#hd"/>
<path d="M316.43 170.67v18.20" stroke="currentColor" fill="none"/>
<use x="333.63" y="161.67" xlink:href="#hl"/>
<use x="333.63" y="158.67" xlink:href="#hd"/>
<path d="M330.13 158.67v26.00" stroke="currentColor" fill="none"/>
<defs>
<path id="Hd" fill="currentColor" d="m3 -1.6
	c-1 -1.8 -7 1.4 -6 3.2
	c1 1.8 7 -1.4 6 -3.2
	m0.5 -0.3
	c2 3.8 -5 7.6 -7 3.8
	c-2 -3.8 5 -7.6 7 -3.8"/>
</defs>
<use x="348.83" y="170.67" xlink:href="#Hd"/>
<path d="M345.33 170.67v20.00" stroke="currentColor" fill="none"/>
<use x="384.53" y="161.67" xlink:href="#hl"/>
<use x="384.53" y="158.67" xlink:href="#hd"/>
<path d="M381.03 158.67v21.00" stroke="currentColor" fill="none"/>
<use x="405.03" y="170.67" xlink:href="#hd"/>
<path d="M401.53 170.67v20.00" stroke="currentColor" fill="none"/>
<use x="425.53" y="161.67" xlink:href="#hl"/>
<use x="425.53" y="158.67" xlink:href="#hd"/>
<path d="M422.03 158.67v21.00" stroke="currentColor" fill="none"/>
<path fill="currentColor"
	d="M451.13 194.57l41.80 0.00v-3.20l-41.80 -0.00"/>
<use x="454.93" y="164.67" xlink:href="#hd"/>
<path d="M451.43 164.67v29.00" stroke="currentColor" fill="none"/>
<use x="468.63" y="167.67" xlink:href="#hd"/>
<path d="M465.13 167.67v26.00" stroke="currentColor" fill="none"/>
<use x="482.43" y="176.67" xlink:href="#hd"/>
<path d="M478.93 176.67v17.00" stroke="currentColor" fill="none"/>
<use x="496.13" y="167.67" xlink:href="#hd"/>
<path d="M492.63 167.67v26.00" stroke="currentColor" fill="none"/>
<use x="509.83" y="182.67" xlink:href="#hd"/>
<path d="M513.33 182.67v-20.00" stroke="currentColor" fill="none"/>
<path fill="currentColor"
	d="M535.33 182.57l69.90 0.00v-3.20l-69.90 -0.00"/>
<use x="539.23" y="161.67" xlink:href="#hl"/>
<use x="539.23" y="158.67" xlink:href="#hd"/>
<path d="M535.73 158.67v23.00" stroke="currentColor" fill="none"/>
<use x="553.23" y="161.67" xlink:href="#hl"/>
<use x="553.23" y="161.67" xlink:href="#hd"/>
<path d="M549.73 161.67v20.00" stroke="currentColor" fill="none"/>
<use x="566.93" y="164.67" xlink:href="#hd"/>
<path d="M563.43 164.67v17.00" stroke="currentColor" fill="none"/>
<use x="580.63" y="161.67" xlink:href="#hl"/>
<use x="580.63" y="158.67" xlink:href="#hd"/>
<path d="M577.13 158.67v23.00" stroke="currentColor" fill="none"/>
<use x="594.63" y="161.67" xlink:href="#hl"/>
<use x="594.63" y="161.67" xlink:href="#hd"/>
<path d="M591.13 161.67v20.00" stroke="currentColor" fill="none"/>
<use x="608.33" y="164.67" xlink:href="#hd"/>
<path d="M604.83 164.67v17.00" stroke="currentColor" fill="none"/>
<use x="633.33" y="167.67" xlink:href="#hd"/>
<path d="M629.83 167.67v20.00" stroke="currentColor" fill="none"/>
<use x="653.93" y="167.67" xlink:href="#hd"/>
<path d="M650.43 167.67v20.00" stroke="currentColor" fill="none"/>
<use x="674.43" y="179.67" xlink:href="#r4"/>
<text font-family="serif" font-size="16" font-weight="bold" font-style="italic"
	x="70.33" y="150.67">tr</text>
</g>
</svg>
