<?xml version="1.0" standalone="no"?>
<!DOCTYPE svg PUBLIC "-//W3C//DTD SVG 1.1//EN"
	"http://www.w3.org/Graphics/SVG/1.1/DTD/svg11.dtd">
<svg xmlns="http://www.w3.org/2000/svg" version="1.1"
	xmlns:xlink="http://www.w3.org/1999/xlink"
	xml:space='preserve' color="black"
	width="7.38in" height="2.59in" viewBox="0 0 531 187">
<title>data/results/biggest_11/abc/215.abc (215) tune 1</title>
<!-- Creator: abcm2ps-7.8.14 -->
<!-- CreationDate: Aug  9, 2015 23:50 -->
<!-- CommandLine: -g data/results/biggest_11/abc/215.abc -O /home/allanino/Dropbox/Trabalhos/folkme/svg/215.svg -->
<g transform="scale(0.750)" stroke-width="0.70" font-family="Times" font-size="20.00">
<text x="354.13" y="21.67" text-anchor="middle">Ländler  F chords</text>
</g>
<g transform="scale(0.750)" stroke-width="0.70" font-family="Times" font-size="16.00">
<text x="354.13" y="41.30" text-anchor="middle">Hanny Christen. Bd.VIII Zug, Luzern, Uri I. S.218 (wz09607) orig. F,Bb-Dur</text>
<text x="354.13" y="60.13" text-anchor="middle">Tänze aus Vitznau (Luzern)</text>
<path stroke="currentColor" fill="none"
	d="M138.73 150.67v-24.00"/>
<path stroke="currentColor" fill="none"
	d="M182.13 150.67v-24.00"/>
<path stroke="currentColor" fill="none"
	d="M259.03 150.67v-24.00"/>
<path stroke="currentColor" fill="none"
	d="M352.33 150.67v-24.00"/>
<path stroke="currentColor" fill="none"
	d="M438.23 150.67v-24.00"/>
<path stroke="currentColor" fill="none"
	d="M523.93 150.67v-24.00"/>
<path stroke="currentColor" fill="none"
	d="M618.03 150.67v-24.00"/>
<path stroke="currentColor" fill="none"
	d="M694.93 150.67v-24.00"/>
<path stroke="currentColor" fill="none"
	d="M13.33 150.67h681.60m-681.60 -6h681.60m-681.60 -6h681.60m-681.60 -6h681.60m-681.60 -6h681.60"/>
</g>
<g transform="scale(0.750)" stroke-width="0.70" font-family="Helvetica" font-size="12.00">
<text x="71.43" y="100.27">F</text>
<text x="145.53" y="100.27">C7</text>
<text x="268.53" y="100.27">F</text>
<text x="442.83" y="100.27">Gm</text>
<text x="530.23" y="100.27">C7</text>
<text x="627.63" y="100.27">F</text>
<defs>
<path id="utclef" fill="currentColor" d="m-50 -90
	c-72 -41 -72 -158 52 -188
	c150 -10 220 188 90 256
	c-114 52 -275 0 -293 -136
	c-15 -181 93 -229 220 -334
	c88 -87 79 -133 62 -210
	c-51 33 -94 105 -89 186
	c17 267 36 374 49 574
	c6 96 -19 134 -77 135
	c-80 1 -126 -93 -61 -133
	c85 -41 133 101 31 105
	c23 17 92 37 90 -92
	c-10 -223 -39 -342 -50 -617
	c0 -90 0 -162 96 -232
	c56 72 63 230 22 289
	c-74 106 -257 168 -255 316
	c9 153 148 185 252 133
	c86 -65 29 -192 -80 -176
	c-71 12 -105 67 -59 124"/>
<use id="tclef" transform="scale(0.045)"
	xlink:href="#utclef"/>
</defs>
<use x="25.33" y="150.67" xlink:href="#tclef"/>
<defs>
<path id="uflat" fill="currentColor" d="
	m100 -746
	h32
	v734
	l-32 4
	m32 -332
	c46 -72 152 -90 208 -20
	c100 110 -120 326 -208 348
	m0 -28
	c54 0 200 -206 130 -290
	c-50 -60 -130 -4 -130 34"/>
<use id="ft0" transform="translate(-3.5,3.5) scale(0.018)"
	xlink:href="#uflat"/>
</defs>
<use x="40.33" y="138.67" xlink:href="#ft0"/>
<g font-family="serif" font-size="16" font-weight="bold" font-style="normal"
	transform="translate(56.33,150.67) scale(1.2,1)">
	<text y="-1" text-anchor="middle">4</text>
	<text y="-13" text-anchor="middle">3</text>
</g>
<defs>
<path id="r4" fill="currentColor" d="m-1 -8.5
	l3.6 5.1 -2.1 5.2 2.2 4.3
	c-2.6 -2.3 -5.1 0 -2.4 2.6
	c-4.8 -3 -1.5 -6.9 1.4 -4.1
	l-3.1 -4.5 1.9 -5.1 -1.5 -3.5"/>
</defs>
<use x="74.33" y="138.67" xlink:href="#r4"/>
<defs>
<path id="hl" stroke="currentColor" d="m-6 0h12"/>
</defs>
<use x="97.23" y="120.67" xlink:href="#hl"/>
<defs>
<ellipse id="hd" rx="4.1" ry="2.9"
	transform="rotate(-20)" fill="currentColor"/>
</defs>
<use x="97.23" y="120.67" xlink:href="#hd"/>
<path d="M93.73 120.67v20.00" stroke="currentColor" fill="none"/>
<use x="120.03" y="126.67" xlink:href="#hd"/>
<path d="M116.53 126.67v20.00" stroke="currentColor" fill="none"/>
<defs>
<path id="Hd" fill="currentColor" d="m3 -1.6
	c-1 -1.8 -7 1.4 -6 3.2
	c1 1.8 7 -1.4 6 -3.2
	m0.5 -0.3
	c2 3.8 -5 7.6 -7 3.8
	c-2 -3.8 5 -7.6 7 -3.8"/>
</defs>
<use x="151.73" y="129.67" xlink:href="#Hd"/>
<circle fill="currentColor" cx="160.73" cy="129.67" r="1.2"/>
<path d="M148.23 129.67v20.00" stroke="currentColor" fill="none"/>
<use x="194.63" y="120.67" xlink:href="#hl"/>
<use x="194.63" y="117.67" xlink:href="#hd"/>
<path d="M191.13 117.67v21.00" stroke="currentColor" fill="none"/>
<use x="217.53" y="129.67" xlink:href="#hd"/>
<path d="M214.03 129.67v20.00" stroke="currentColor" fill="none"/>
<use x="240.33" y="135.67" xlink:href="#hd"/>
<path d="M236.83 135.67v20.00" stroke="currentColor" fill="none"/>
<path fill="currentColor"
	d="M267.63 141.97l46.30 3.90v-3.20l-46.30 -3.90"/>
<use x="271.53" y="120.67" xlink:href="#hl"/>
<use x="271.53" y="114.67" xlink:href="#hl"/>
<use x="271.53" y="111.67" xlink:href="#hd"/>
<path d="M268.03 111.67v29.30" stroke="currentColor" fill="none"/>
<use x="286.83" y="120.67" xlink:href="#hl"/>
<use x="286.83" y="114.67" xlink:href="#hl"/>
<use x="286.83" y="114.67" xlink:href="#hd"/>
<path d="M283.33 114.67v27.60" stroke="currentColor" fill="none"/>
<use x="302.13" y="120.67" xlink:href="#hl"/>
<use x="302.13" y="120.67" xlink:href="#hd"/>
<path d="M298.63 120.67v22.90" stroke="currentColor" fill="none"/>
<use x="317.13" y="126.67" xlink:href="#hd"/>
<path d="M313.63 126.67v18.20" stroke="currentColor" fill="none"/>
<use x="333.73" y="135.67" xlink:href="#hd"/>
<path d="M330.23 135.67v20.00" stroke="currentColor" fill="none"/>
<path fill="currentColor"
	d="M361.03 149.77l15.70 5.20v-3.20l-15.70 -5.20"/>
<use x="364.83" y="120.67" xlink:href="#hl"/>
<use x="364.83" y="120.67" xlink:href="#hd"/>
<path d="M361.33 120.67v28.20" stroke="currentColor" fill="none"/>
<use x="379.93" y="135.67" xlink:href="#hd"/>
<path d="M376.43 135.67v18.20" stroke="currentColor" fill="none"/>
<use x="396.53" y="120.67" xlink:href="#hl"/>
<use x="396.53" y="117.67" xlink:href="#hd"/>
<path d="M393.03 117.67v21.00" stroke="currentColor" fill="none"/>
<use x="419.63" y="120.67" xlink:href="#hl"/>
<use x="419.63" y="120.67" xlink:href="#hd"/>
<path d="M416.13 120.67v20.00" stroke="currentColor" fill="none"/>
<path fill="currentColor"
	d="M446.93 151.97l15.70 -5.10v-3.20l-15.70 5.10"/>
<use x="450.73" y="132.67" xlink:href="#hd"/>
<path d="M447.23 132.67v18.20" stroke="currentColor" fill="none"/>
<use x="465.83" y="120.67" xlink:href="#hl"/>
<use x="465.83" y="117.67" xlink:href="#hd"/>
<path d="M462.33 117.67v28.30" stroke="currentColor" fill="none"/>
<use x="482.43" y="123.67" xlink:href="#hd"/>
<path d="M478.93 123.67v20.00" stroke="currentColor" fill="none"/>
<use x="505.23" y="123.67" xlink:href="#hd"/>
<path d="M501.73 123.67v20.00" stroke="currentColor" fill="none"/>
<use x="536.43" y="129.67" xlink:href="#hd"/>
<path d="M532.93 129.67v20.00" stroke="currentColor" fill="none"/>
<path fill="currentColor"
	d="M555.43 158.47l45.90 5.40v-3.20l-45.90 -5.40"/>
<use x="559.23" y="132.67" xlink:href="#hd"/>
<path d="M555.73 132.67v24.80" stroke="currentColor" fill="none"/>
<use x="574.33" y="135.67" xlink:href="#hd"/>
<path d="M570.83 135.67v23.60" stroke="currentColor" fill="none"/>
<use x="589.43" y="138.67" xlink:href="#hd"/>
<path d="M585.93 138.67v22.40" stroke="currentColor" fill="none"/>
<use x="604.43" y="144.67" xlink:href="#hd"/>
<path d="M600.93 144.67v18.20" stroke="currentColor" fill="none"/>
<use x="630.53" y="138.67" xlink:href="#hd"/>
<path d="M634.03 138.67v-20.00" stroke="currentColor" fill="none"/>
<use x="653.43" y="141.67" xlink:href="#hd"/>
<path d="M656.93 141.67v-20.00" stroke="currentColor" fill="none"/>
<use x="676.33" y="147.67" xlink:href="#hd"/>
<path d="M679.83 147.67v-20.00" stroke="currentColor" fill="none"/>
<path stroke="currentColor" fill="none"
	d="M149.13 225.67v-24.00"/>
<path stroke="currentColor" fill="none"
	d="M258.93 225.67v-24.00"/>
<path stroke="currentColor" fill="none"
	d="M362.13 225.67v-24.00"/>
<path stroke="currentColor" fill="none" stroke-width="3"
	d="M464.33 225.67v-24.00"/>
<path stroke="currentColor" fill="none"
	d="M459.83 225.67v-24.00"/>
<defs>
<g id="rdots" fill="currentColor">
	<circle cx="0" cy="-9" r="1.2"/>
	<circle cx="0" cy="-15" r="1.2"/>
</g>
</defs>
<use x="455.83" y="225.67" xlink:href="#rdots"/>
<path stroke="currentColor" fill="none"
	d="M591.43 225.67v-24.00"/>
<path stroke="currentColor" fill="none" stroke-width="3"
	d="M693.43 225.67v-24.00"/>
<path stroke="currentColor" fill="none"
	d="M688.93 225.67v-24.00"/>
<path stroke="currentColor" fill="none"
	d="M13.33 225.67h681.60m-681.60 -6h681.60m-681.60 -6h681.60m-681.60 -6h681.60m-681.60 -6h681.60"/>
<text x="164.63" y="189.27">C</text>
<text x="265.83" y="189.27">F7</text>
<text x="368.83" y="189.27">B♭</text>
<text x="601.03" y="189.27">F</text>
</g>
<g transform="scale(0.750)" stroke-width="0.70" font-family="Times" font-size="13.00">
<text x="153.13" y="187.07">1</text>
<path stroke="currentColor" fill="none"
	d="M149.13 175.67v20M149.13 175.67h308.70v20"/>
<text x="469.83" y="187.07">2</text>
<path stroke="currentColor" fill="none"
	d="M465.83 175.67v20M465.83 175.67h229.10v20"/>
<use x="25.33" y="225.67" xlink:href="#tclef"/>
<use x="40.33" y="213.67" xlink:href="#ft0"/>
<use x="58.33" y="231.67" xlink:href="#hl"/>
<use x="58.33" y="231.67" xlink:href="#hd"/>
<path d="M61.83 231.67v-20.00" stroke="currentColor" fill="none"/>
<use x="90.73" y="222.67" xlink:href="#hd"/>
<path d="M94.23 222.67v-20.00" stroke="currentColor" fill="none"/>
<use x="123.13" y="216.67" xlink:href="#hd"/>
<path d="M126.63 216.67v-20.00" stroke="currentColor" fill="none"/>
<use x="168.13" y="219.67" xlink:href="#hd"/>
<path d="M171.63 219.67v-20.00" stroke="currentColor" fill="none"/>
<use x="200.53" y="213.67" xlink:href="#r4"/>
<use x="232.93" y="204.67" xlink:href="#hd"/>
<path d="M229.43 204.67v20.00" stroke="currentColor" fill="none"/>
<use x="271.43" y="204.67" xlink:href="#hd"/>
<path d="M267.93 204.67v20.00" stroke="currentColor" fill="none"/>
<use x="303.73" y="207.67" xlink:href="#hd"/>
<path d="M300.23 207.67v20.00" stroke="currentColor" fill="none"/>
<use x="336.13" y="204.67" xlink:href="#hd"/>
<path d="M332.63 204.67v20.00" stroke="currentColor" fill="none"/>
<use x="374.63" y="204.67" xlink:href="#hd"/>
<path d="M371.13 204.67v20.00" stroke="currentColor" fill="none"/>
<use x="407.03" y="207.67" xlink:href="#hd"/>
<path d="M403.53 207.67v20.00" stroke="currentColor" fill="none"/>
<use x="439.43" y="207.67" xlink:href="#hd"/>
<path d="M435.93 207.67v20.00" stroke="currentColor" fill="none"/>
<use x="478.33" y="213.67" xlink:href="#hd"/>
<path d="M474.83 213.67v20.00" stroke="currentColor" fill="none"/>
<path fill="currentColor"
	d="M506.93 225.87l62.90 0.00v-3.20l-62.90 -0.00"/>
<use x="510.73" y="204.67" xlink:href="#hd"/>
<path d="M507.23 204.67v20.20" stroke="currentColor" fill="none"/>
<use x="531.43" y="207.67" xlink:href="#hd"/>
<path d="M527.93 207.67v17.20" stroke="currentColor" fill="none"/>
<use x="552.23" y="204.67" xlink:href="#hd"/>
<path d="M548.73 204.67v20.20" stroke="currentColor" fill="none"/>
<use x="572.93" y="201.67" xlink:href="#hd"/>
<path d="M569.43 201.67v23.20" stroke="currentColor" fill="none"/>
<use x="603.93" y="201.67" xlink:href="#hd"/>
<path d="M600.43 201.67v20.00" stroke="currentColor" fill="none"/>
<use x="636.33" y="213.67" xlink:href="#r4"/>
<use x="668.73" y="213.67" xlink:href="#r4"/>
</g>
</svg>
