<?xml version="1.0" standalone="no"?>
<!DOCTYPE svg PUBLIC "-//W3C//DTD SVG 1.1//EN"
	"http://www.w3.org/Graphics/SVG/1.1/DTD/svg11.dtd">
<svg xmlns="http://www.w3.org/2000/svg" version="1.1"
	xmlns:xlink="http://www.w3.org/1999/xlink"
	xml:space='preserve' color="black"
	width="7.38in" height="3.56in" viewBox="0 0 531 257">
<title>data/results/biggest_11/abc/216.abc (216) tune 1</title>
<!-- Creator: abcm2ps-7.8.14 -->
<!-- CreationDate: Aug  9, 2015 23:50 -->
<!-- CommandLine: -g data/results/biggest_11/abc/216.abc -O /home/allanino/Dropbox/Trabalhos/folkme/svg/216.svg -->
<g transform="scale(0.750)" stroke-width="0.70" font-family="Times" font-size="20.00">
<text x="354.13" y="21.67" text-anchor="middle">Buglebour Volediling</text>
<path stroke="currentColor" fill="none"
	d="M245.63 98.01v-24.00"/>
<path stroke="currentColor" fill="none"
	d="M393.13 98.01v-24.00"/>
<path stroke="currentColor" fill="none"
	d="M524.13 98.01v-24.00"/>
<path stroke="currentColor" fill="none"
	d="M694.93 98.01v-24.00"/>
<path stroke="currentColor" fill="none"
	d="M13.33 98.01h681.60m-681.60 -6h681.60m-681.60 -6h681.60m-681.60 -6h681.60m-681.60 -6h681.60"/>
<path stroke="currentColor" fill="none"
	d="M151.53 69.01v-3l41.30 -0.00v3"/>
<rect x="165.13" y="60.01" width="14.00" height="12" fill="white"/>
<text font-family="serif" font-size="12" font-style="italic" font-weight="normal"
	x="172.13" y="70.01" text-anchor="middle">3</text>
<defs>
<path id="utclef" fill="currentColor" d="m-50 -90
	c-72 -41 -72 -158 52 -188
	c150 -10 220 188 90 256
	c-114 52 -275 0 -293 -136
	c-15 -181 93 -229 220 -334
	c88 -87 79 -133 62 -210
	c-51 33 -94 105 -89 186
	c17 267 36 374 49 574
	c6 96 -19 134 -77 135
	c-80 1 -126 -93 -61 -133
	c85 -41 133 101 31 105
	c23 17 92 37 90 -92
	c-10 -223 -39 -342 -50 -617
	c0 -90 0 -162 96 -232
	c56 72 63 230 22 289
	c-74 106 -257 168 -255 316
	c9 153 148 185 252 133
	c86 -65 29 -192 -80 -176
	c-71 12 -105 67 -59 124"/>
<use id="tclef" transform="scale(0.045)"
	xlink:href="#utclef"/>
</defs>
<use x="25.33" y="98.01" xlink:href="#tclef"/>
<defs>
<path id="usharp" fill="currentColor" d="
	m136 -702
	v890
	h32
	v-890
	m128 840
	h32
	v-888
	h-32
	m-232 286
	v116
	l338 -96
	v-116
	m-338 442
	v116
	l338 -98
	v-114"/>
<use id="sh0" transform="translate(-4,5) scale(0.018)"
	xlink:href="#usharp"/>
</defs>
<use x="40.33" y="74.01" xlink:href="#sh0"/>
<use x="45.83" y="83.01" xlink:href="#sh0"/>
<defs>
<path id="csig" fill="currentColor" d="
	m1 -17.3
	c0.9 0 2.3 0.7 2.4 2.2
	c-1.2 -2 -3.6 0.1 -1.6 1.7
	c2 1 3.8 -3.5 -0.8 -4.7
	c-2 -0.4 -6.4 1.3 -5.8 7
	c0.4 6.4 7.9 6.8 9.1 0.7
	c-2.3 5.6 -6.7 5.1 -6.8 0
	c-0.5 -4.4 0.7 -7.5 3.5 -6.9"/>
<g id="ctsig">
	<use xlink:href="#csig"/>
	<path d="m0 -4v-16" stroke="currentColor"/>
</g>
</defs>
<use x="61.83" y="98.01" xlink:href="#ctsig"/>
<defs>
<ellipse id="hd" rx="4.1" ry="2.9"
	transform="rotate(-20)" fill="currentColor"/>
</defs>
<use x="79.83" y="80.01" xlink:href="#hd"/>
<path d="M76.33 80.01v20.00" stroke="currentColor" fill="none"/>
<path fill="currentColor"
	d="M109.23 108.21l114.30 0.00v-3.20l-114.30 -0.00"/>
<use x="113.03" y="83.01" xlink:href="#hd"/>
<path d="M109.53 83.01v24.20" stroke="currentColor" fill="none"/>
<use x="134.23" y="89.01" xlink:href="#hd"/>
<path d="M130.73 89.01v18.20" stroke="currentColor" fill="none"/>
<use x="155.53" y="86.01" xlink:href="#hd"/>
<path d="M152.03 86.01v21.20" stroke="currentColor" fill="none"/>
<use x="172.13" y="83.01" xlink:href="#hd"/>
<path d="M168.63 83.01v24.20" stroke="currentColor" fill="none"/>
<use x="188.83" y="80.01" xlink:href="#hd"/>
<path d="M185.33 80.01v27.20" stroke="currentColor" fill="none"/>
<use x="205.43" y="77.01" xlink:href="#hd"/>
<path d="M201.93 77.01v30.20" stroke="currentColor" fill="none"/>
<use x="226.63" y="80.01" xlink:href="#hd"/>
<path d="M223.13 80.01v27.20" stroke="currentColor" fill="none"/>
<use x="258.13" y="89.01" xlink:href="#hd"/>
<path d="M261.63 89.01v-20.00" stroke="currentColor" fill="none"/>
<path fill="currentColor"
	d="M287.53 105.31l21.90 -4.00v-3.20l-21.90 4.00"/>
<use x="291.33" y="86.01" xlink:href="#hd"/>
<path d="M287.83 86.01v18.20" stroke="currentColor" fill="none"/>
<use x="312.63" y="80.01" xlink:href="#hd"/>
<path d="M309.13 80.01v20.40" stroke="currentColor" fill="none"/>
<use x="336.23" y="77.01" xlink:href="#hd"/>
<circle fill="currentColor" cx="344.23" cy="77.01" r="1.2"/>
<path d="M332.73 77.01v20.00" stroke="currentColor" fill="none"/>
<use x="374.13" y="74.01" xlink:href="#hd"/>
<path d="M370.63 74.01v20.00" stroke="currentColor" fill="none"/>
<path fill="currentColor"
	d="M370.63 94.01c0.6 -5.6 9.6 -9 5.6 -18.4
	c1.6 6 -1.3 11.6 -5.6 12.8
"/>
<use x="405.63" y="71.01" xlink:href="#hd"/>
<circle fill="currentColor" cx="413.63" cy="71.01" r="1.2"/>
<path d="M402.13 71.01v20.00" stroke="currentColor" fill="none"/>
<defs>
<path id="hl" stroke="currentColor" d="m-6 0h12"/>
</defs>
<use x="443.63" y="68.01" xlink:href="#hl"/>
<use x="443.63" y="68.01" xlink:href="#hd"/>
<path d="M440.13 68.01v20.00" stroke="currentColor" fill="none"/>
<path fill="currentColor"
	d="M440.13 88.01c0.6 -5.6 9.6 -9 5.6 -18.4
	c1.6 6 -1.3 11.6 -5.6 12.8
"/>
<use x="467.13" y="71.01" xlink:href="#hd"/>
<circle fill="currentColor" cx="475.13" cy="71.01" r="1.2"/>
<path d="M463.63 71.01v20.00" stroke="currentColor" fill="none"/>
<use x="505.13" y="77.01" xlink:href="#hd"/>
<path d="M501.63 77.01v20.00" stroke="currentColor" fill="none"/>
<path fill="currentColor"
	d="M501.63 97.01c0.6 -5.6 9.6 -9 5.6 -18.4
	c1.6 6 -1.3 11.6 -5.6 12.8
"/>
<path fill="currentColor"
	d="M532.73 105.21l64.40 0.00v-3.20l-64.40 -0.00"/>
<use x="536.63" y="80.01" xlink:href="#hd"/>
<path d="M533.13 80.01v24.20" stroke="currentColor" fill="none"/>
<use x="557.83" y="77.01" xlink:href="#hd"/>
<path d="M554.33 77.01v27.20" stroke="currentColor" fill="none"/>
<use x="579.03" y="80.01" xlink:href="#hd"/>
<path d="M575.53 80.01v24.20" stroke="currentColor" fill="none"/>
<use x="600.33" y="86.01" xlink:href="#hd"/>
<path d="M596.83 86.01v18.20" stroke="currentColor" fill="none"/>
<use x="621.53" y="89.01" xlink:href="#hd"/>
<path d="M625.03 89.01v-20.00" stroke="currentColor" fill="none"/>
<path fill="currentColor"
	d="M657.93 74.71l21.90 -2.40v3.20l-21.90 2.40"/>
<use x="654.73" y="95.01" xlink:href="#hd"/>
<path d="M658.23 95.01v-19.30" stroke="currentColor" fill="none"/>
<use x="676.03" y="92.01" xlink:href="#hd"/>
<path d="M679.53 92.01v-18.70" stroke="currentColor" fill="none"/>
<defs>
<path id="grm" fill="currentColor" d="
	m-5 -2.5
	c5 -8.5 5.5 4.5 10 -2
	c-5 8.5 -5.5 -4.5 -10 2"/>
</defs>
<use x="336.23" y="71.01" xlink:href="#grm"/>
<use x="405.63" y="65.01" xlink:href="#grm"/>
<use x="467.13" y="65.01" xlink:href="#grm"/>
<path stroke="currentColor" fill="none"
	d="M213.13 168.01v-24.00"/>
<path stroke="currentColor" fill="none"
	d="M357.83 168.01v-24.00"/>
<path stroke="currentColor" fill="none"
	d="M533.23 168.01v-24.00"/>
<path stroke="currentColor" fill="none" stroke-width="3"
	d="M693.43 168.01v-24.00"/>
<path stroke="currentColor" fill="none"
	d="M688.93 168.01v-24.00"/>
<defs>
<g id="rdots" fill="currentColor">
	<circle cx="0" cy="-9" r="1.2"/>
	<circle cx="0" cy="-15" r="1.2"/>
</g>
</defs>
<use x="684.93" y="168.01" xlink:href="#rdots"/>
<path stroke="currentColor" fill="none"
	d="M13.33 168.01h681.60m-681.60 -6h681.60m-681.60 -6h681.60m-681.60 -6h681.60m-681.60 -6h681.60"/>
<path stroke="currentColor" fill="none"
	d="M366.33 139.01v-3l39.00 -0.00v3"/>
<rect x="378.83" y="130.01" width="14.00" height="12" fill="white"/>
<text font-family="serif" font-size="12" font-style="italic" font-weight="normal"
	x="385.83" y="140.01" text-anchor="middle">3</text>
<use x="25.33" y="168.01" xlink:href="#tclef"/>
<use x="40.33" y="144.01" xlink:href="#sh0"/>
<use x="45.83" y="153.01" xlink:href="#sh0"/>
<path fill="currentColor"
	d="M60.03 178.21l59.90 -6.10v-3.20l-59.90 6.10"/>
<use x="63.83" y="159.01" xlink:href="#hd"/>
<path d="M60.33 159.01v18.20" stroke="currentColor" fill="none"/>
<use x="83.63" y="156.01" xlink:href="#hd"/>
<path d="M80.13 156.01v19.20" stroke="currentColor" fill="none"/>
<use x="103.33" y="150.01" xlink:href="#hd"/>
<path d="M99.83 150.01v23.20" stroke="currentColor" fill="none"/>
<use x="123.13" y="147.01" xlink:href="#hd"/>
<path d="M119.63 147.01v24.20" stroke="currentColor" fill="none"/>
<use x="145.03" y="144.01" xlink:href="#hd"/>
<path d="M141.53 144.01v20.00" stroke="currentColor" fill="none"/>
<path fill="currentColor"
	d="M171.93 167.31l20.40 2.40v-3.20l-20.40 -2.40"/>
<use x="175.73" y="147.01" xlink:href="#hd"/>
<path d="M172.23 147.01v19.30" stroke="currentColor" fill="none"/>
<use x="195.53" y="150.01" xlink:href="#hd"/>
<path d="M192.03 150.01v18.70" stroke="currentColor" fill="none"/>
<use x="225.63" y="156.01" xlink:href="#hd"/>
<circle fill="currentColor" cx="233.63" cy="153.01" r="1.2"/>
<path d="M229.13 156.01v-20.00" stroke="currentColor" fill="none"/>
<path fill="currentColor"
	d="M257.33 178.21l79.70 0.00v-3.20l-79.70 -0.00"/>
<use x="261.13" y="159.01" xlink:href="#hd"/>
<path d="M257.63 159.01v18.20" stroke="currentColor" fill="none"/>
<use x="280.83" y="156.01" xlink:href="#hd"/>
<path d="M277.33 156.01v21.20" stroke="currentColor" fill="none"/>
<use x="300.63" y="153.01" xlink:href="#hd"/>
<path d="M297.13 153.01v24.20" stroke="currentColor" fill="none"/>
<use x="320.43" y="150.01" xlink:href="#hd"/>
<path d="M316.93 150.01v27.20" stroke="currentColor" fill="none"/>
<use x="340.13" y="156.01" xlink:href="#hd"/>
<path d="M336.63 156.01v21.20" stroke="currentColor" fill="none"/>
<path fill="currentColor"
	d="M366.43 175.21l146.00 0.00v-3.20l-146.00 -0.00"/>
<use x="370.33" y="156.01" xlink:href="#hd"/>
<path d="M366.83 156.01v18.20" stroke="currentColor" fill="none"/>
<use x="385.83" y="153.01" xlink:href="#hd"/>
<path d="M382.33 153.01v21.20" stroke="currentColor" fill="none"/>
<use x="401.33" y="150.01" xlink:href="#hd"/>
<path d="M397.83 150.01v24.20" stroke="currentColor" fill="none"/>
<use x="416.83" y="147.01" xlink:href="#hd"/>
<path d="M413.33 147.01v27.20" stroke="currentColor" fill="none"/>
<use x="436.63" y="144.01" xlink:href="#hd"/>
<path d="M433.13 144.01v30.20" stroke="currentColor" fill="none"/>
<use x="456.33" y="141.01" xlink:href="#hd"/>
<path d="M452.83 141.01v33.20" stroke="currentColor" fill="none"/>
<use x="476.13" y="144.01" xlink:href="#hd"/>
<path d="M472.63 144.01v30.20" stroke="currentColor" fill="none"/>
<use x="495.83" y="141.01" xlink:href="#hd"/>
<path d="M492.33 141.01v33.20" stroke="currentColor" fill="none"/>
<use x="515.63" y="147.01" xlink:href="#hd"/>
<path d="M512.13 147.01v27.20" stroke="currentColor" fill="none"/>
<path fill="currentColor"
	d="M548.93 130.81l99.50 9.40v3.20l-99.50 -9.40"/>
<use x="545.73" y="150.01" xlink:href="#hd"/>
<path d="M549.23 150.01v-18.20" stroke="currentColor" fill="none"/>
<use x="565.53" y="156.01" xlink:href="#hd"/>
<path d="M569.03 156.01v-22.30" stroke="currentColor" fill="none"/>
<use x="585.23" y="159.01" xlink:href="#hd"/>
<path d="M588.73 159.01v-23.40" stroke="currentColor" fill="none"/>
<use x="605.03" y="162.01" xlink:href="#hd"/>
<path d="M608.53 162.01v-24.60" stroke="currentColor" fill="none"/>
<use x="624.73" y="165.01" xlink:href="#hd"/>
<path d="M628.23 165.01v-25.70" stroke="currentColor" fill="none"/>
<use x="644.53" y="171.01" xlink:href="#hd"/>
<path d="M648.03 171.01v-29.80" stroke="currentColor" fill="none"/>
<use x="666.43" y="171.01" xlink:href="#hd"/>
<path d="M669.93 171.01v-20.00" stroke="currentColor" fill="none"/>
<use x="225.63" y="132.01" xlink:href="#grm"/>
<use x="70.33" y="243.01" xlink:href="#rdots"/>
<path stroke="currentColor" fill="none"
	d="M66.33 243.01v-24.00"/>
<path stroke="currentColor" fill="none" stroke-width="3"
	d="M61.83 243.01v-24.00"/>
<path stroke="currentColor" fill="none"
	d="M194.33 243.01v-24.00"/>
<path stroke="currentColor" fill="none"
	d="M317.33 243.01v-24.00"/>
<path stroke="currentColor" fill="none"
	d="M446.33 243.01v-24.00"/>
<path stroke="currentColor" fill="none" stroke-width="3"
	d="M575.53 243.01v-24.00"/>
<path stroke="currentColor" fill="none"
	d="M571.03 243.01v-24.00"/>
<use x="567.03" y="243.01" xlink:href="#rdots"/>
<path stroke="currentColor" fill="none"
	d="M694.93 243.01v-24.00"/>
<path stroke="currentColor" fill="none"
	d="M691.93 243.01v-24.00"/>
<path stroke="currentColor" fill="none"
	d="M13.33 243.01h681.60m-681.60 -6h681.60m-681.60 -6h681.60m-681.60 -6h681.60m-681.60 -6h681.60"/>
<path stroke="currentColor" fill="none"
	d="M353.73 214.01v-3l30.60 -0.00v3"/>
<rect x="362.03" y="205.01" width="14.00" height="12" fill="white"/>
<text font-family="serif" font-size="12" font-style="italic" font-weight="normal"
	x="369.03" y="215.01" text-anchor="middle">3</text>
</g>
<g transform="scale(0.750)" stroke-width="0.70" font-family="Times" font-size="13.00">
<text x="450.33" y="204.41">1</text>
<path stroke="currentColor" fill="none"
	d="M446.33 193.01v20M446.33 193.01h122.80v20"/>
<text x="581.03" y="204.41">2</text>
<path stroke="currentColor" fill="none"
	d="M577.03 193.01v20M577.03 193.01h117.90v20"/>
<use x="25.33" y="243.01" xlink:href="#tclef"/>
<use x="40.33" y="219.01" xlink:href="#sh0"/>
<use x="45.83" y="228.01" xlink:href="#sh0"/>
<path fill="currentColor"
	d="M80.03 253.21l98.40 0.00v-3.20l-98.40 -0.00"/>
<use x="83.83" y="234.01" xlink:href="#hd"/>
<path d="M80.33 234.01v18.20" stroke="currentColor" fill="none"/>
<use x="97.83" y="225.01" xlink:href="#hd"/>
<path d="M94.33 225.01v27.20" stroke="currentColor" fill="none"/>
<use x="111.73" y="225.01" xlink:href="#hd"/>
<path d="M108.23 225.01v27.20" stroke="currentColor" fill="none"/>
<use x="125.73" y="228.01" xlink:href="#hd"/>
<path d="M122.23 228.01v24.20" stroke="currentColor" fill="none"/>
<use x="139.73" y="225.01" xlink:href="#hd"/>
<path d="M136.23 225.01v27.20" stroke="currentColor" fill="none"/>
<use x="153.63" y="222.01" xlink:href="#hd"/>
<path d="M150.13 222.01v30.20" stroke="currentColor" fill="none"/>
<use x="167.63" y="219.01" xlink:href="#hd"/>
<path d="M164.13 219.01v33.20" stroke="currentColor" fill="none"/>
<use x="181.63" y="225.01" xlink:href="#hd"/>
<path d="M178.13 225.01v27.20" stroke="currentColor" fill="none"/>
<path fill="currentColor"
	d="M202.93 253.21l98.40 0.00v-3.20l-98.40 -0.00"/>
<use x="206.83" y="234.01" xlink:href="#hd"/>
<path d="M203.33 234.01v18.20" stroke="currentColor" fill="none"/>
<use x="220.83" y="225.01" xlink:href="#hd"/>
<path d="M217.33 225.01v27.20" stroke="currentColor" fill="none"/>
<use x="234.73" y="219.01" xlink:href="#hd"/>
<path d="M231.23 219.01v33.20" stroke="currentColor" fill="none"/>
<use x="248.73" y="225.01" xlink:href="#hd"/>
<path d="M245.23 225.01v27.20" stroke="currentColor" fill="none"/>
<use x="262.63" y="216.01" xlink:href="#hd"/>
<path d="M259.13 216.01v36.20" stroke="currentColor" fill="none"/>
<use x="276.63" y="222.01" xlink:href="#hd"/>
<path d="M273.13 222.01v30.20" stroke="currentColor" fill="none"/>
<use x="290.63" y="219.01" xlink:href="#hd"/>
<path d="M287.13 219.01v33.20" stroke="currentColor" fill="none"/>
<use x="304.53" y="225.01" xlink:href="#hd"/>
<path d="M301.03 225.01v27.20" stroke="currentColor" fill="none"/>
<path fill="currentColor"
	d="M325.93 253.21l104.40 0.00v-3.20l-104.40 -0.00"/>
<use x="329.83" y="222.01" xlink:href="#hd"/>
<path d="M326.33 222.01v30.20" stroke="currentColor" fill="none"/>
<use x="343.73" y="234.01" xlink:href="#hd"/>
<path d="M340.23 234.01v18.20" stroke="currentColor" fill="none"/>
<use x="357.73" y="231.01" xlink:href="#hd"/>
<path d="M354.23 231.01v21.20" stroke="currentColor" fill="none"/>
<use x="369.03" y="228.01" xlink:href="#hd"/>
<path d="M365.53 228.01v24.20" stroke="currentColor" fill="none"/>
<use x="380.33" y="225.01" xlink:href="#hd"/>
<path d="M376.83 225.01v27.20" stroke="currentColor" fill="none"/>
<use x="391.63" y="222.01" xlink:href="#hd"/>
<path d="M388.13 222.01v30.20" stroke="currentColor" fill="none"/>
<use x="405.63" y="219.01" xlink:href="#hd"/>
<path d="M402.13 219.01v33.20" stroke="currentColor" fill="none"/>
<use x="419.63" y="216.01" xlink:href="#hd"/>
<path d="M416.13 216.01v36.20" stroke="currentColor" fill="none"/>
<use x="433.53" y="222.01" xlink:href="#hd"/>
<path d="M430.03 222.01v30.20" stroke="currentColor" fill="none"/>
<path fill="currentColor"
	d="M454.93 246.01l98.40 0.00v-3.20l-98.40 -0.00"/>
<use x="458.83" y="219.01" xlink:href="#hd"/>
<path d="M455.33 219.01v26.00" stroke="currentColor" fill="none"/>
<use x="472.73" y="225.01" xlink:href="#hd"/>
<path d="M469.23 225.01v20.00" stroke="currentColor" fill="none"/>
<use x="486.73" y="222.01" xlink:href="#hd"/>
<path d="M483.23 222.01v23.00" stroke="currentColor" fill="none"/>
<use x="500.73" y="228.01" xlink:href="#hd"/>
<path d="M497.23 228.01v17.00" stroke="currentColor" fill="none"/>
<use x="514.63" y="225.01" xlink:href="#hd"/>
<path d="M511.13 225.01v20.00" stroke="currentColor" fill="none"/>
<use x="528.63" y="222.01" xlink:href="#hd"/>
<path d="M525.13 222.01v23.00" stroke="currentColor" fill="none"/>
<use x="542.63" y="219.01" xlink:href="#hd"/>
<path d="M539.13 219.01v26.00" stroke="currentColor" fill="none"/>
<use x="556.53" y="216.01" xlink:href="#hd"/>
<path d="M553.03 216.01v29.00" stroke="currentColor" fill="none"/>
<path fill="currentColor"
	d="M585.73 246.01l42.60 0.00v-3.20l-42.60 -0.00"/>
<use x="589.53" y="219.01" xlink:href="#hd"/>
<path d="M586.03 219.01v26.00" stroke="currentColor" fill="none"/>
<use x="603.53" y="225.01" xlink:href="#hd"/>
<path d="M600.03 225.01v20.00" stroke="currentColor" fill="none"/>
<use x="617.53" y="222.01" xlink:href="#hd"/>
<path d="M614.03 222.01v23.00" stroke="currentColor" fill="none"/>
<use x="631.43" y="228.01" xlink:href="#hd"/>
<path d="M627.93 228.01v17.00" stroke="currentColor" fill="none"/>
<use x="646.73" y="225.01" xlink:href="#hd"/>
<path d="M643.23 225.01v20.00" stroke="currentColor" fill="none"/>
<path fill="currentColor"
	d="M663.73 241.31l14.60 -3.40v-3.20l-14.60 3.40"/>
<use x="667.63" y="222.01" xlink:href="#hd"/>
<path d="M664.13 222.01v18.20" stroke="currentColor" fill="none"/>
<use x="681.53" y="216.01" xlink:href="#hd"/>
<path d="M678.03 216.01v21.00" stroke="currentColor" fill="none"/>
<use x="70.33" y="319.01" xlink:href="#rdots"/>
<path stroke="currentColor" fill="none"
	d="M66.33 319.01v-24.00"/>
<path stroke="currentColor" fill="none" stroke-width="3"
	d="M61.83 319.01v-24.00"/>
<path stroke="currentColor" fill="none"
	d="M169.33 319.01v-24.00"/>
<path stroke="currentColor" fill="none"
	d="M281.33 319.01v-24.00"/>
<path stroke="currentColor" fill="none"
	d="M378.23 319.01v-24.00"/>
<path stroke="currentColor" fill="none" stroke-width="3"
	d="M497.63 319.01v-24.00"/>
<path stroke="currentColor" fill="none"
	d="M493.13 319.01v-24.00"/>
<use x="489.13" y="319.01" xlink:href="#rdots"/>
<path stroke="currentColor" fill="none"
	d="M582.03 319.01v-24.00"/>
<path stroke="currentColor" fill="none"
	d="M694.93 319.01v-24.00"/>
<path stroke="currentColor" fill="none"
	d="M691.93 319.01v-24.00"/>
<path stroke="currentColor" fill="none"
	d="M13.33 319.01h681.60m-681.60 -6h681.60m-681.60 -6h681.60m-681.60 -6h681.60m-681.60 -6h681.60"/>
<text x="285.33" y="279.41">1</text>
<path stroke="currentColor" fill="none"
	d="M281.33 268.01v20M281.33 268.01h209.80v20"/>
<text x="503.13" y="279.41">2</text>
<path stroke="currentColor" fill="none"
	d="M499.13 268.01v20M499.13 268.01h195.80v20"/>
<use x="25.33" y="319.01" xlink:href="#tclef"/>
<use x="40.33" y="295.01" xlink:href="#sh0"/>
<use x="45.83" y="304.01" xlink:href="#sh0"/>
<path fill="currentColor"
	d="M80.03 322.01l38.30 0.00v-3.20l-38.30 -0.00"/>
<use x="83.83" y="295.01" xlink:href="#hd"/>
<path d="M80.33 295.01v26.00" stroke="currentColor" fill="none"/>
<use x="96.43" y="301.01" xlink:href="#hd"/>
<path d="M92.93 301.01v20.00" stroke="currentColor" fill="none"/>
<use x="108.93" y="298.01" xlink:href="#hd"/>
<path d="M105.43 298.01v23.00" stroke="currentColor" fill="none"/>
<use x="121.53" y="304.01" xlink:href="#hd"/>
<path d="M118.03 304.01v17.00" stroke="currentColor" fill="none"/>
<use x="135.13" y="301.01" xlink:href="#hd"/>
<circle fill="currentColor" cx="143.13" cy="298.01" r="1.2"/>
<path d="M131.63 301.01v20.00" stroke="currentColor" fill="none"/>
<use x="157.73" y="304.01" xlink:href="#hd"/>
<path d="M154.23 304.01v20.00" stroke="currentColor" fill="none"/>
<path fill="currentColor"
	d="M154.23 324.01c0.6 -5.6 9.6 -9 5.6 -18.4
	c1.6 6 -1.3 11.6 -5.6 12.8
"/>
<path fill="currentColor"
	d="M178.03 329.21l88.60 0.00v-3.20l-88.60 -0.00"/>
<use x="181.83" y="310.01" xlink:href="#hd"/>
<path d="M178.33 310.01v18.20" stroke="currentColor" fill="none"/>
<use x="194.43" y="304.01" xlink:href="#hd"/>
<path d="M190.93 304.01v24.20" stroke="currentColor" fill="none"/>
<use x="206.93" y="301.01" xlink:href="#hd"/>
<path d="M203.43 301.01v27.20" stroke="currentColor" fill="none"/>
<use x="219.53" y="298.01" xlink:href="#hd"/>
<path d="M216.03 298.01v30.20" stroke="currentColor" fill="none"/>
<use x="232.03" y="295.01" xlink:href="#hd"/>
<path d="M228.53 295.01v33.20" stroke="currentColor" fill="none"/>
<use x="244.63" y="301.01" xlink:href="#hd"/>
<path d="M241.13 301.01v27.20" stroke="currentColor" fill="none"/>
<use x="257.13" y="298.01" xlink:href="#hd"/>
<path d="M253.63 298.01v30.20" stroke="currentColor" fill="none"/>
<use x="269.73" y="304.01" xlink:href="#hd"/>
<path d="M266.23 304.01v24.20" stroke="currentColor" fill="none"/>
<use x="293.83" y="295.01" xlink:href="#hd"/>
<circle fill="currentColor" cx="301.83" cy="292.01" r="1.2"/>
<path d="M290.33 295.01v20.00" stroke="currentColor" fill="none"/>
<path fill="currentColor"
	d="M312.53 319.21l50.90 0.00v-3.20l-50.90 -0.00"/>
<use x="316.43" y="298.01" xlink:href="#hd"/>
<path d="M312.93 298.01v20.20" stroke="currentColor" fill="none"/>
<use x="328.93" y="295.01" xlink:href="#hd"/>
<path d="M325.43 295.01v23.20" stroke="currentColor" fill="none"/>
<use x="341.53" y="298.01" xlink:href="#hd"/>
<path d="M338.03 298.01v20.20" stroke="currentColor" fill="none"/>
<use x="354.03" y="301.01" xlink:href="#hd"/>
<path d="M350.53 301.01v17.20" stroke="currentColor" fill="none"/>
<use x="366.63" y="295.01" xlink:href="#hd"/>
<path d="M363.13 295.01v23.20" stroke="currentColor" fill="none"/>
<path fill="currentColor"
	d="M386.93 326.21l88.60 0.00v-3.20l-88.60 -0.00"/>
<use x="390.73" y="298.01" xlink:href="#hd"/>
<path d="M387.23 298.01v27.20" stroke="currentColor" fill="none"/>
<use x="403.33" y="292.01" xlink:href="#hd"/>
<path d="M399.83 292.01v33.20" stroke="currentColor" fill="none"/>
<use x="415.83" y="295.01" xlink:href="#hd"/>
<path d="M412.33 295.01v30.20" stroke="currentColor" fill="none"/>
<use x="428.43" y="301.01" xlink:href="#hd"/>
<path d="M424.93 301.01v24.20" stroke="currentColor" fill="none"/>
<use x="440.93" y="298.01" xlink:href="#hd"/>
<path d="M437.43 298.01v27.20" stroke="currentColor" fill="none"/>
<use x="453.53" y="301.01" xlink:href="#hd"/>
<path d="M450.03 301.01v24.20" stroke="currentColor" fill="none"/>
<use x="466.03" y="304.01" xlink:href="#hd"/>
<path d="M462.53 304.01v21.20" stroke="currentColor" fill="none"/>
<use x="478.63" y="307.01" xlink:href="#hd"/>
<path d="M475.13 307.01v18.20" stroke="currentColor" fill="none"/>
<use x="511.63" y="295.01" xlink:href="#hd"/>
<circle fill="currentColor" cx="519.63" cy="292.01" r="1.2"/>
<path d="M508.13 295.01v20.00" stroke="currentColor" fill="none"/>
<use x="534.23" y="289.01" xlink:href="#hl"/>
<use x="534.23" y="289.01" xlink:href="#hd"/>
<path d="M530.73 289.01v20.00" stroke="currentColor" fill="none"/>
<path fill="currentColor"
	d="M530.73 309.01c0.6 -5.6 9.6 -9 5.6 -18.4
	c1.6 6 -1.3 11.6 -5.6 12.8
"/>
<use x="547.83" y="292.01" xlink:href="#hd"/>
<circle fill="currentColor" cx="555.83" cy="292.01" r="1.2"/>
<path d="M544.33 292.01v20.00" stroke="currentColor" fill="none"/>
<use x="570.43" y="298.01" xlink:href="#hd"/>
<path d="M566.93 298.01v20.00" stroke="currentColor" fill="none"/>
<path fill="currentColor"
	d="M566.93 318.01c0.6 -5.6 9.6 -9 5.6 -18.4
	c1.6 6 -1.3 11.6 -5.6 12.8
"/>
<path fill="currentColor"
	d="M590.63 326.21l88.60 0.00v-3.20l-88.60 -0.00"/>
<use x="594.53" y="295.01" xlink:href="#hd"/>
<path d="M591.03 295.01v30.20" stroke="currentColor" fill="none"/>
<use x="607.03" y="292.01" xlink:href="#hd"/>
<path d="M603.53 292.01v33.20" stroke="currentColor" fill="none"/>
<use x="619.63" y="289.01" xlink:href="#hl"/>
<use x="619.63" y="289.01" xlink:href="#hd"/>
<path d="M616.13 289.01v36.20" stroke="currentColor" fill="none"/>
<use x="632.23" y="295.01" xlink:href="#hd"/>
<path d="M628.73 295.01v30.20" stroke="currentColor" fill="none"/>
<use x="644.73" y="292.01" xlink:href="#hd"/>
<path d="M641.23 292.01v33.20" stroke="currentColor" fill="none"/>
<use x="657.33" y="298.01" xlink:href="#hd"/>
<path d="M653.83 298.01v27.20" stroke="currentColor" fill="none"/>
<use x="669.83" y="301.01" xlink:href="#hd"/>
<path d="M666.33 301.01v24.20" stroke="currentColor" fill="none"/>
<use x="682.43" y="307.01" xlink:href="#hd"/>
<path d="M678.93 307.01v18.20" stroke="currentColor" fill="none"/>
<use x="293.83" y="289.01" xlink:href="#grm"/>
<use x="511.63" y="289.01" xlink:href="#grm"/>
<use x="547.83" y="286.01" xlink:href="#grm"/>
</g>
</svg>
