<?xml version="1.0" standalone="no"?>
<!DOCTYPE svg PUBLIC "-//W3C//DTD SVG 1.1//EN"
	"http://www.w3.org/Graphics/SVG/1.1/DTD/svg11.dtd">
<svg xmlns="http://www.w3.org/2000/svg" version="1.1"
	xmlns:xlink="http://www.w3.org/1999/xlink"
	xml:space='preserve' color="black"
	width="7.38in" height="2.31in" viewBox="0 0 531 166">
<title>data/results/biggest_11/abc/219.abc (219) tune 1</title>
<!-- Creator: abcm2ps-7.8.14 -->
<!-- CreationDate: Aug  9, 2015 23:50 -->
<!-- CommandLine: -g data/results/biggest_11/abc/219.abc -O /home/allanino/Dropbox/Trabalhos/folkme/svg/219.svg -->
<g transform="scale(0.750)" stroke-width="0.70" font-family="Times" font-size="20.00">
<text x="354.13" y="21.67" text-anchor="middle">Ländler F 5-</text>
</g>
<g transform="scale(0.750)" stroke-width="0.70" font-family="Times" font-size="16.00">
<text x="354.13" y="41.30" text-anchor="middle">Hanny Christen. Bd.3 Appenzell. S.29 (TR03002) orig. C- &amp; g-Dur</text>
<path stroke="currentColor" fill="none"
	d="M191.63 117.84v-24.00"/>
<path stroke="currentColor" fill="none"
	d="M286.13 117.84v-24.00"/>
<path stroke="currentColor" fill="none"
	d="M405.93 117.84v-24.00"/>
<path stroke="currentColor" fill="none"
	d="M538.93 117.84v-24.00"/>
<path stroke="currentColor" fill="none"
	d="M694.93 117.84v-24.00"/>
<path stroke="currentColor" fill="none"
	d="M13.33 117.84h681.60m-681.60 -6h681.60m-681.60 -6h681.60m-681.60 -6h681.60m-681.60 -6h681.60"/>
</g>
<g transform="scale(0.750)" stroke-width="0.70" font-family="Helvetica" font-size="12.00">
<text x="79.43" y="81.44">B♭</text>
<text x="199.53" y="81.44">F7</text>
<text x="413.53" y="81.44">B♭</text>
<defs>
<path id="utclef" fill="currentColor" d="m-50 -90
	c-72 -41 -72 -158 52 -188
	c150 -10 220 188 90 256
	c-114 52 -275 0 -293 -136
	c-15 -181 93 -229 220 -334
	c88 -87 79 -133 62 -210
	c-51 33 -94 105 -89 186
	c17 267 36 374 49 574
	c6 96 -19 134 -77 135
	c-80 1 -126 -93 -61 -133
	c85 -41 133 101 31 105
	c23 17 92 37 90 -92
	c-10 -223 -39 -342 -50 -617
	c0 -90 0 -162 96 -232
	c56 72 63 230 22 289
	c-74 106 -257 168 -255 316
	c9 153 148 185 252 133
	c86 -65 29 -192 -80 -176
	c-71 12 -105 67 -59 124"/>
<use id="tclef" transform="scale(0.045)"
	xlink:href="#utclef"/>
</defs>
<use x="25.33" y="117.84" xlink:href="#tclef"/>
<defs>
<path id="uflat" fill="currentColor" d="
	m100 -746
	h32
	v734
	l-32 4
	m32 -332
	c46 -72 152 -90 208 -20
	c100 110 -120 326 -208 348
	m0 -28
	c54 0 200 -206 130 -290
	c-50 -60 -130 -4 -130 34"/>
<use id="ft0" transform="translate(-3.5,3.5) scale(0.018)"
	xlink:href="#uflat"/>
</defs>
<use x="40.33" y="105.84" xlink:href="#ft0"/>
<use x="45.83" y="96.84" xlink:href="#ft0"/>
<use x="51.33" y="108.84" xlink:href="#ft0"/>
<g font-family="serif" font-size="16" font-weight="bold" font-style="normal"
	transform="translate(67.33,117.84) scale(1.2,1)">
	<text y="-1" text-anchor="middle">4</text>
	<text y="-13" text-anchor="middle">3</text>
</g>
<defs>
<ellipse id="hd" rx="4.1" ry="2.9"
	transform="rotate(-20)" fill="currentColor"/>
</defs>
<use x="85.33" y="114.84" xlink:href="#hd"/>
<path d="M88.83 114.84v-20.00" stroke="currentColor" fill="none"/>
<use x="123.33" y="114.84" xlink:href="#hd"/>
<path d="M126.83 114.84v-20.00" stroke="currentColor" fill="none"/>
<use x="161.23" y="114.84" xlink:href="#hd"/>
<path d="M164.73 114.84v-20.00" stroke="currentColor" fill="none"/>
<use x="205.13" y="114.84" xlink:href="#hd"/>
<path d="M208.63 114.84v-20.00" stroke="currentColor" fill="none"/>
<defs>
<path id="Hd" fill="currentColor" d="m3 -1.6
	c-1 -1.8 -7 1.4 -6 3.2
	c1 1.8 7 -1.4 6 -3.2
	m0.5 -0.3
	c2 3.8 -5 7.6 -7 3.8
	c-2 -3.8 5 -7.6 7 -3.8"/>
</defs>
<use x="243.13" y="117.84" xlink:href="#Hd"/>
<path d="M246.63 117.84v-20.00" stroke="currentColor" fill="none"/>
<use x="299.63" y="114.84" xlink:href="#hd"/>
<path d="M303.13 114.84v-20.00" stroke="currentColor" fill="none"/>
<use x="337.53" y="114.84" xlink:href="#hd"/>
<path d="M341.03 114.84v-20.00" stroke="currentColor" fill="none"/>
<use x="375.53" y="96.84" xlink:href="#hd"/>
<path d="M372.03 96.84v20.00" stroke="currentColor" fill="none"/>
<path fill="currentColor"
	d="M422.63 99.74l24.90 -4.10v3.20l-24.90 4.10"/>
<use x="419.43" y="120.84" xlink:href="#hd"/>
<path d="M422.93 120.84v-20.20" stroke="currentColor" fill="none"/>
<use x="443.63" y="114.84" xlink:href="#hd"/>
<path d="M447.13 114.84v-18.20" stroke="currentColor" fill="none"/>
<use x="470.53" y="105.84" xlink:href="#hd"/>
<path d="M467.03 105.84v20.00" stroke="currentColor" fill="none"/>
<use x="508.53" y="105.84" xlink:href="#hd"/>
<path d="M505.03 105.84v20.00" stroke="currentColor" fill="none"/>
<path fill="currentColor"
	d="M555.53 93.34l121.70 -6.70v3.20l-121.70 6.70"/>
<use x="552.43" y="120.84" xlink:href="#hd"/>
<path d="M555.93 120.84v-26.60" stroke="currentColor" fill="none"/>
<use x="576.63" y="117.84" xlink:href="#hd"/>
<path d="M580.13 117.84v-24.90" stroke="currentColor" fill="none"/>
<use x="600.83" y="114.84" xlink:href="#hd"/>
<path d="M604.33 114.84v-23.20" stroke="currentColor" fill="none"/>
<use x="625.03" y="111.84" xlink:href="#hd"/>
<path d="M628.53 111.84v-21.50" stroke="currentColor" fill="none"/>
<use x="649.23" y="114.84" xlink:href="#hd"/>
<path d="M652.73 114.84v-25.90" stroke="currentColor" fill="none"/>
<use x="673.43" y="105.84" xlink:href="#hd"/>
<path d="M676.93 105.84v-18.20" stroke="currentColor" fill="none"/>
<path stroke="currentColor" fill="none"
	d="M110.53 198.84v-24.00"/>
<path stroke="currentColor" fill="none"
	d="M164.23 198.84v-24.00"/>
<path stroke="currentColor" fill="none"
	d="M225.43 198.84v-24.00"/>
<path stroke="currentColor" fill="none"
	d="M287.73 198.84v-24.00"/>
<path stroke="currentColor" fill="none"
	d="M338.53 198.84v-24.00"/>
<path stroke="currentColor" fill="none"
	d="M392.23 198.84v-24.00"/>
<path stroke="currentColor" fill="none"
	d="M453.43 198.84v-24.00"/>
<path stroke="currentColor" fill="none"
	d="M516.13 198.84v-24.00"/>
<path stroke="currentColor" fill="none"
	d="M578.43 198.84v-24.00"/>
<path stroke="currentColor" fill="none"
	d="M633.23 198.84v-24.00"/>
<path stroke="currentColor" fill="none" stroke-width="3"
	d="M693.43 198.84v-24.00"/>
<path stroke="currentColor" fill="none"
	d="M688.93 198.84v-24.00"/>
<defs>
<g id="rdots" fill="currentColor">
	<circle cx="0" cy="-9" r="1.2"/>
	<circle cx="0" cy="-15" r="1.2"/>
</g>
</defs>
<use x="684.93" y="198.84" xlink:href="#rdots"/>
<path stroke="currentColor" fill="none"
	d="M13.33 198.84h681.60m-681.60 -6h681.60m-681.60 -6h681.60m-681.60 -6h681.60m-681.60 -6h681.60"/>
<text x="63.73" y="152.44">E♭</text>
<text x="117.43" y="152.44">F7</text>
<text x="170.93" y="152.44">B♭</text>
<text x="294.73" y="152.44">F7</text>
<text x="398.83" y="152.44">B♭</text>
<text x="523.03" y="152.44">E♭</text>
<text x="585.33" y="152.44">F7</text>
<text x="639.83" y="152.44">B♭</text>
<use x="25.33" y="198.84" xlink:href="#tclef"/>
<use x="40.33" y="186.84" xlink:href="#ft0"/>
<use x="45.83" y="177.84" xlink:href="#ft0"/>
<use x="51.33" y="189.84" xlink:href="#ft0"/>
<use x="69.33" y="198.84" xlink:href="#hd"/>
<path d="M72.83 198.84v-20.00" stroke="currentColor" fill="none"/>
<use x="83.73" y="192.84" xlink:href="#hd"/>
<path d="M87.23 192.84v-20.00" stroke="currentColor" fill="none"/>
<use x="98.03" y="192.84" xlink:href="#hd"/>
<path d="M101.53 192.84v-20.00" stroke="currentColor" fill="none"/>
<use x="123.03" y="195.84" xlink:href="#hd"/>
<path d="M126.53 195.84v-20.00" stroke="currentColor" fill="none"/>
<use x="138.43" y="177.84" xlink:href="#hd"/>
<path d="M134.93 177.84v20.00" stroke="currentColor" fill="none"/>
<use x="151.73" y="192.84" xlink:href="#hd"/>
<path d="M155.23 192.84v-20.00" stroke="currentColor" fill="none"/>
<path fill="currentColor"
	d="M179.93 165.64l11.20 -4.20v3.20l-11.20 4.20"/>
<use x="176.73" y="195.84" xlink:href="#hd"/>
<path d="M180.23 195.84v-29.30" stroke="currentColor" fill="none"/>
<use x="187.33" y="180.84" xlink:href="#hd"/>
<path d="M190.83 180.84v-18.20" stroke="currentColor" fill="none"/>
<use x="198.63" y="186.84" xlink:href="#hd"/>
<path d="M202.13 186.84v-20.00" stroke="currentColor" fill="none"/>
<use x="213.03" y="186.84" xlink:href="#hd"/>
<path d="M216.53 186.84v-20.00" stroke="currentColor" fill="none"/>
<path fill="currentColor"
	d="M241.13 176.54l11.20 3.00v3.20l-11.20 -3.00"/>
<use x="237.93" y="195.84" xlink:href="#hd"/>
<path d="M241.43 195.84v-18.20" stroke="currentColor" fill="none"/>
<use x="248.53" y="201.84" xlink:href="#hd"/>
<path d="M252.03 201.84v-21.40" stroke="currentColor" fill="none"/>
<use x="260.93" y="186.84" xlink:href="#hd"/>
<path d="M257.43 186.84v20.00" stroke="currentColor" fill="none"/>
<use x="275.23" y="180.84" xlink:href="#hd"/>
<path d="M271.73 180.84v20.00" stroke="currentColor" fill="none"/>
<path fill="currentColor"
	d="M296.43 209.14l11.20 -3.00v-3.20l-11.20 3.00"/>
<use x="300.23" y="189.84" xlink:href="#hd"/>
<path d="M296.73 189.84v18.20" stroke="currentColor" fill="none"/>
<use x="310.83" y="183.84" xlink:href="#hd"/>
<path d="M307.33 183.84v21.40" stroke="currentColor" fill="none"/>
<use x="322.33" y="177.84" xlink:href="#Hd"/>
<path d="M318.83 177.84v20.00" stroke="currentColor" fill="none"/>
<use x="351.03" y="195.84" xlink:href="#hd"/>
<path d="M354.53 195.84v-20.00" stroke="currentColor" fill="none"/>
<use x="365.33" y="192.84" xlink:href="#hd"/>
<path d="M368.83 192.84v-20.00" stroke="currentColor" fill="none"/>
<use x="379.73" y="195.84" xlink:href="#hd"/>
<path d="M383.23 195.84v-20.00" stroke="currentColor" fill="none"/>
<path fill="currentColor"
	d="M407.83 171.64l11.20 -4.20v3.20l-11.20 4.20"/>
<use x="404.73" y="201.84" xlink:href="#hd"/>
<path d="M408.23 201.84v-29.30" stroke="currentColor" fill="none"/>
<use x="415.23" y="186.84" xlink:href="#hd"/>
<path d="M418.73 186.84v-18.20" stroke="currentColor" fill="none"/>
<use x="426.53" y="186.84" xlink:href="#hd"/>
<path d="M430.03 186.84v-20.00" stroke="currentColor" fill="none"/>
<defs>
<path id="r4" fill="currentColor" d="m-1 -8.5
	l3.6 5.1 -2.1 5.2 2.2 4.3
	c-2.6 -2.3 -5.1 0 -2.4 2.6
	c-4.8 -3 -1.5 -6.9 1.4 -4.1
	l-3.1 -4.5 1.9 -5.1 -1.5 -3.5"/>
</defs>
<use x="440.93" y="186.84" xlink:href="#r4"/>
<use x="465.93" y="186.84" xlink:href="#hd"/>
<circle fill="currentColor" cx="473.93" cy="183.84" r="1.2"/>
<path d="M469.43 186.84v-20.00" stroke="currentColor" fill="none"/>
<path fill="currentColor"
	d="M488.13 169.84l21.80 -4.40v3.20l-21.80 4.40"/>
<use x="484.93" y="201.84" xlink:href="#hd"/>
<path d="M488.43 201.84v-31.10" stroke="currentColor" fill="none"/>
<use x="495.53" y="186.84" xlink:href="#hd"/>
<path d="M499.03 186.84v-18.20" stroke="currentColor" fill="none"/>
<use x="506.13" y="189.84" xlink:href="#hd"/>
<path d="M509.63 189.84v-23.30" stroke="currentColor" fill="none"/>
<path fill="currentColor"
	d="M531.83 173.34l11.20 2.00v3.20l-11.20 -2.00"/>
<use x="528.63" y="192.84" xlink:href="#hd"/>
<path d="M532.13 192.84v-18.50" stroke="currentColor" fill="none"/>
<use x="539.23" y="195.84" xlink:href="#hd"/>
<path d="M542.73 195.84v-19.50" stroke="currentColor" fill="none"/>
<use x="550.53" y="198.84" xlink:href="#hd"/>
<path d="M554.03 198.84v-20.00" stroke="currentColor" fill="none"/>
<use x="565.93" y="177.84" xlink:href="#hd"/>
<path d="M562.43 177.84v20.00" stroke="currentColor" fill="none"/>
<use x="590.93" y="195.84" xlink:href="#hd"/>
<path d="M594.43 195.84v-20.00" stroke="currentColor" fill="none"/>
<use x="606.43" y="180.84" xlink:href="#hd"/>
<path d="M602.93 180.84v20.00" stroke="currentColor" fill="none"/>
<use x="620.73" y="177.84" xlink:href="#hd"/>
<path d="M617.23 177.84v20.00" stroke="currentColor" fill="none"/>
<use x="645.73" y="186.84" xlink:href="#hd"/>
<path d="M642.23 186.84v20.00" stroke="currentColor" fill="none"/>
<use x="660.03" y="186.84" xlink:href="#r4"/>
<use x="674.43" y="186.84" xlink:href="#r4"/>
</g>
</svg>
