<?xml version="1.0" standalone="no"?>
<!DOCTYPE svg PUBLIC "-//W3C//DTD SVG 1.1//EN"
	"http://www.w3.org/Graphics/SVG/1.1/DTD/svg11.dtd">
<svg xmlns="http://www.w3.org/2000/svg" version="1.1"
	xmlns:xlink="http://www.w3.org/1999/xlink"
	xml:space='preserve' color="black"
	width="7.38in" height="3.55in" viewBox="0 0 531 256">
<title>data/results/biggest_11/abc/220.abc (220) tune 1</title>
<!-- Creator: abcm2ps-7.8.14 -->
<!-- CreationDate: Aug  9, 2015 23:50 -->
<!-- CommandLine: -g data/results/biggest_11/abc/220.abc -O /home/allanino/Dropbox/Trabalhos/folkme/svg/220.svg -->
<g transform="scale(0.750)" stroke-width="0.70" font-family="Times" font-size="20.00">
<text x="354.13" y="21.67" text-anchor="middle">The Prumlen Nuffs</text>
<path stroke="currentColor" fill="none"
	d="M222.63 98.01v-24.00"/>
<path stroke="currentColor" fill="none"
	d="M390.03 98.01v-24.00"/>
<path stroke="currentColor" fill="none"
	d="M527.43 98.01v-24.00"/>
<path stroke="currentColor" fill="none"
	d="M694.93 98.01v-24.00"/>
<path stroke="currentColor" fill="none"
	d="M13.33 98.01h681.60m-681.60 -6h681.60m-681.60 -6h681.60m-681.60 -6h681.60m-681.60 -6h681.60"/>
<defs>
<path id="utclef" fill="currentColor" d="m-50 -90
	c-72 -41 -72 -158 52 -188
	c150 -10 220 188 90 256
	c-114 52 -275 0 -293 -136
	c-15 -181 93 -229 220 -334
	c88 -87 79 -133 62 -210
	c-51 33 -94 105 -89 186
	c17 267 36 374 49 574
	c6 96 -19 134 -77 135
	c-80 1 -126 -93 -61 -133
	c85 -41 133 101 31 105
	c23 17 92 37 90 -92
	c-10 -223 -39 -342 -50 -617
	c0 -90 0 -162 96 -232
	c56 72 63 230 22 289
	c-74 106 -257 168 -255 316
	c9 153 148 185 252 133
	c86 -65 29 -192 -80 -176
	c-71 12 -105 67 -59 124"/>
<use id="tclef" transform="scale(0.045)"
	xlink:href="#utclef"/>
</defs>
<use x="25.33" y="98.01" xlink:href="#tclef"/>
<defs>
<path id="usharp" fill="currentColor" d="
	m136 -702
	v890
	h32
	v-890
	m128 840
	h32
	v-888
	h-32
	m-232 286
	v116
	l338 -96
	v-116
	m-338 442
	v116
	l338 -98
	v-114"/>
<use id="sh0" transform="translate(-4,5) scale(0.018)"
	xlink:href="#usharp"/>
</defs>
<use x="40.33" y="74.01" xlink:href="#sh0"/>
<defs>
<path id="csig" fill="currentColor" d="
	m1 -17.3
	c0.9 0 2.3 0.7 2.4 2.2
	c-1.2 -2 -3.6 0.1 -1.6 1.7
	c2 1 3.8 -3.5 -0.8 -4.7
	c-2 -0.4 -6.4 1.3 -5.8 7
	c0.4 6.4 7.9 6.8 9.1 0.7
	c-2.3 5.6 -6.7 5.1 -6.8 0
	c-0.5 -4.4 0.7 -7.5 3.5 -6.9"/>
<g id="ctsig">
	<use xlink:href="#csig"/>
	<path d="m0 -4v-16" stroke="currentColor"/>
</g>
</defs>
<use x="56.33" y="98.01" xlink:href="#ctsig"/>
<path fill="currentColor"
	d="M77.53 70.61l20.30 -3.90v3.20l-20.30 3.90"/>
<defs>
<ellipse id="hd" rx="4.1" ry="2.9"
	transform="rotate(-20)" fill="currentColor"/>
</defs>
<use x="74.33" y="92.01" xlink:href="#hd"/>
<path d="M77.83 92.01v-20.50" stroke="currentColor" fill="none"/>
<use x="93.93" y="86.01" xlink:href="#hd"/>
<path d="M97.43 86.01v-18.20" stroke="currentColor" fill="none"/>
<use x="115.73" y="89.01" xlink:href="#hd"/>
<path d="M119.23 89.01v-20.00" stroke="currentColor" fill="none"/>
<path fill="currentColor"
	d="M149.43 65.11l59.50 5.00v3.20l-59.50 -5.00"/>
<use x="146.23" y="89.01" xlink:href="#hd"/>
<path d="M149.73 89.01v-22.80" stroke="currentColor" fill="none"/>
<use x="165.83" y="86.01" xlink:href="#hd"/>
<path d="M169.33 86.01v-18.20" stroke="currentColor" fill="none"/>
<use x="185.53" y="92.01" xlink:href="#hd"/>
<path d="M189.03 92.01v-22.60" stroke="currentColor" fill="none"/>
<use x="205.13" y="98.01" xlink:href="#hd"/>
<path d="M208.63 98.01v-26.90" stroke="currentColor" fill="none"/>
<path fill="currentColor"
	d="M238.33 63.81l138.00 0.00v3.20l-138.00 -0.00"/>
<use x="235.13" y="101.01" xlink:href="#hd"/>
<path d="M238.63 101.01v-36.20" stroke="currentColor" fill="none"/>
<use x="254.73" y="92.01" xlink:href="#hd"/>
<path d="M258.23 92.01v-27.20" stroke="currentColor" fill="none"/>
<use x="274.33" y="86.01" xlink:href="#hd"/>
<path d="M277.83 86.01v-21.20" stroke="currentColor" fill="none"/>
<use x="294.03" y="92.01" xlink:href="#hd"/>
<path d="M297.53 92.01v-27.20" stroke="currentColor" fill="none"/>
<use x="313.63" y="83.01" xlink:href="#hd"/>
<path d="M317.13 83.01v-18.20" stroke="currentColor" fill="none"/>
<use x="333.23" y="89.01" xlink:href="#hd"/>
<path d="M336.73 89.01v-24.20" stroke="currentColor" fill="none"/>
<use x="352.83" y="86.01" xlink:href="#hd"/>
<path d="M356.33 86.01v-21.20" stroke="currentColor" fill="none"/>
<use x="372.53" y="89.01" xlink:href="#hd"/>
<path d="M376.03 89.01v-24.20" stroke="currentColor" fill="none"/>
<use x="402.53" y="92.01" xlink:href="#hd"/>
<path d="M406.03 92.01v-20.00" stroke="currentColor" fill="none"/>
<path fill="currentColor"
	d="M436.23 66.71l20.30 3.90v3.20l-20.30 -3.90"/>
<use x="433.03" y="86.01" xlink:href="#hd"/>
<path d="M436.53 86.01v-18.20" stroke="currentColor" fill="none"/>
<use x="452.63" y="92.01" xlink:href="#hd"/>
<path d="M456.13 92.01v-20.50" stroke="currentColor" fill="none"/>
<use x="474.43" y="89.01" xlink:href="#hd"/>
<circle fill="currentColor" cx="482.43" cy="89.01" r="1.2"/>
<path d="M477.93 89.01v-20.00" stroke="currentColor" fill="none"/>
<use x="509.53" y="86.01" xlink:href="#hd"/>
<path d="M513.03 86.01v-20.00" stroke="currentColor" fill="none"/>
<path fill="currentColor"
	d="	M513.03 66.01c0.6 5.6 9.6 9 5.6 18.4
	c1.6 -6 -1.3 -11.6 -5.6 -12.8
"/>
<path fill="currentColor"
	d="M536.03 96.41l138.20 8.80v-3.20l-138.20 -8.80"/>
<use x="539.93" y="71.01" xlink:href="#hd"/>
<path d="M536.43 71.01v24.40" stroke="currentColor" fill="none"/>
<defs>
<path id="hl" stroke="currentColor" d="m-6 0h12"/>
</defs>
<use x="559.53" y="68.01" xlink:href="#hl"/>
<use x="559.53" y="68.01" xlink:href="#hd"/>
<path d="M556.03 68.01v28.70" stroke="currentColor" fill="none"/>
<use x="579.23" y="68.01" xlink:href="#hl"/>
<use x="579.23" y="65.01" xlink:href="#hd"/>
<path d="M575.73 65.01v32.90" stroke="currentColor" fill="none"/>
<use x="598.93" y="68.01" xlink:href="#hl"/>
<use x="598.93" y="68.01" xlink:href="#hd"/>
<path d="M595.43 68.01v31.20" stroke="currentColor" fill="none"/>
<use x="618.53" y="71.01" xlink:href="#hd"/>
<path d="M615.03 71.01v29.40" stroke="currentColor" fill="none"/>
<use x="638.13" y="77.01" xlink:href="#hd"/>
<path d="M634.63 77.01v24.70" stroke="currentColor" fill="none"/>
<use x="657.83" y="80.01" xlink:href="#hd"/>
<path d="M654.33 80.01v22.90" stroke="currentColor" fill="none"/>
<use x="677.43" y="86.01" xlink:href="#hd"/>
<path d="M673.93 86.01v18.20" stroke="currentColor" fill="none"/>
<defs>
<path id="grm" fill="currentColor" d="
	m-5 -2.5
	c5 -8.5 5.5 4.5 10 -2
	c-5 8.5 -5.5 -4.5 -10 2"/>
</defs>
<use x="115.73" y="65.01" xlink:href="#grm"/>
<use x="474.43" y="65.01" xlink:href="#grm"/>
<path stroke="currentColor" fill="none"
	d="M161.43 173.01v-24.00"/>
<path stroke="currentColor" fill="none"
	d="M289.73 173.01v-24.00"/>
<path stroke="currentColor" fill="none"
	d="M423.63 173.01v-24.00"/>
<path stroke="currentColor" fill="none" stroke-width="3"
	d="M557.03 173.01v-24.00"/>
<path stroke="currentColor" fill="none"
	d="M552.53 173.01v-24.00"/>
<defs>
<g id="rdots" fill="currentColor">
	<circle cx="0" cy="-9" r="1.2"/>
	<circle cx="0" cy="-15" r="1.2"/>
</g>
</defs>
<use x="548.53" y="173.01" xlink:href="#rdots"/>
<path stroke="currentColor" fill="none"
	d="M694.93 173.01v-24.00"/>
<path stroke="currentColor" fill="none"
	d="M691.93 173.01v-24.00"/>
<path stroke="currentColor" fill="none"
	d="M13.33 173.01h681.60m-681.60 -6h681.60m-681.60 -6h681.60m-681.60 -6h681.60m-681.60 -6h681.60"/>
<text font-family="serif" font-size="12" font-style="italic" font-weight="normal"
	x="668.53" y="194.31" text-anchor="middle">3</text>
</g>
<g transform="scale(0.750)" stroke-width="0.70" font-family="Times" font-size="13.00">
<text x="427.63" y="134.41">1</text>
<path stroke="currentColor" fill="none"
	d="M423.63 123.01v20M423.63 123.01h126.90v20"/>
<text x="562.53" y="134.41">2</text>
<path stroke="currentColor" fill="none"
	d="M558.53 123.01v20M558.53 123.01h136.40v20"/>
<use x="25.33" y="173.01" xlink:href="#tclef"/>
<use x="40.33" y="149.01" xlink:href="#sh0"/>
<use x="58.33" y="146.01" xlink:href="#hd"/>
<circle fill="currentColor" cx="66.33" cy="146.01" r="1.2"/>
<path d="M54.83 146.01v20.00" stroke="currentColor" fill="none"/>
<path fill="currentColor"
	d="M82.03 170.01l62.40 0.00v-3.20l-62.40 -0.00"/>
<use x="85.83" y="143.01" xlink:href="#hl"/>
<use x="85.83" y="143.01" xlink:href="#hd"/>
<path d="M82.33 143.01v26.00" stroke="currentColor" fill="none"/>
<use x="101.43" y="143.01" xlink:href="#hl"/>
<use x="101.43" y="140.01" xlink:href="#hd"/>
<path d="M97.93 140.01v29.00" stroke="currentColor" fill="none"/>
<use x="116.83" y="146.01" xlink:href="#hd"/>
<path d="M113.33 146.01v23.00" stroke="currentColor" fill="none"/>
<use x="132.23" y="152.01" xlink:href="#hd"/>
<path d="M128.73 152.01v17.00" stroke="currentColor" fill="none"/>
<use x="147.53" y="146.01" xlink:href="#hd"/>
<path d="M144.03 146.01v23.00" stroke="currentColor" fill="none"/>
<path fill="currentColor"
	d="M170.13 183.71l46.80 3.70v-3.20l-46.80 -3.70"/>
<use x="173.93" y="155.01" xlink:href="#hd"/>
<path d="M170.43 155.01v27.80" stroke="currentColor" fill="none"/>
<use x="189.33" y="161.01" xlink:href="#hd"/>
<path d="M185.83 161.01v23.00" stroke="currentColor" fill="none"/>
<use x="204.73" y="167.01" xlink:href="#hd"/>
<path d="M201.23 167.01v18.20" stroke="currentColor" fill="none"/>
<use x="220.03" y="161.01" xlink:href="#hd"/>
<path d="M216.53 161.01v25.40" stroke="currentColor" fill="none"/>
<use x="237.03" y="155.01" xlink:href="#hd"/>
<path d="M233.53 155.01v20.00" stroke="currentColor" fill="none"/>
<path fill="currentColor"
	d="M256.63 167.81l16.10 3.50v-3.20l-16.10 -3.50"/>
<use x="260.43" y="146.01" xlink:href="#hd"/>
<path d="M256.93 146.01v20.80" stroke="currentColor" fill="none"/>
<use x="275.83" y="152.01" xlink:href="#hd"/>
<path d="M272.33 152.01v18.20" stroke="currentColor" fill="none"/>
<path fill="currentColor"
	d="M305.33 135.81l108.30 0.00v3.20l-108.30 -0.00"/>
<use x="302.23" y="155.01" xlink:href="#hd"/>
<path d="M305.73 155.01v-18.20" stroke="currentColor" fill="none"/>
<use x="317.53" y="161.01" xlink:href="#hd"/>
<path d="M321.03 161.01v-24.20" stroke="currentColor" fill="none"/>
<use x="332.93" y="164.01" xlink:href="#hd"/>
<path d="M336.43 164.01v-27.20" stroke="currentColor" fill="none"/>
<use x="348.33" y="170.01" xlink:href="#hd"/>
<path d="M351.83 170.01v-33.20" stroke="currentColor" fill="none"/>
<use x="363.73" y="167.01" xlink:href="#hd"/>
<path d="M367.23 167.01v-30.20" stroke="currentColor" fill="none"/>
<use x="379.03" y="161.01" xlink:href="#hd"/>
<path d="M382.53 161.01v-24.20" stroke="currentColor" fill="none"/>
<use x="394.43" y="164.01" xlink:href="#hd"/>
<path d="M397.93 164.01v-27.20" stroke="currentColor" fill="none"/>
<use x="409.83" y="167.01" xlink:href="#hd"/>
<path d="M413.33 167.01v-30.20" stroke="currentColor" fill="none"/>
<path fill="currentColor"
	d="M439.33 152.61l16.10 -2.30v3.20l-16.10 2.30"/>
<use x="436.13" y="173.01" xlink:href="#hd"/>
<path d="M439.63 173.01v-19.40" stroke="currentColor" fill="none"/>
<use x="451.53" y="170.01" xlink:href="#hd"/>
<path d="M455.03 170.01v-18.60" stroke="currentColor" fill="none"/>
<use x="468.53" y="170.01" xlink:href="#hd"/>
<path d="M472.03 170.01v-20.00" stroke="currentColor" fill="none"/>
<path fill="currentColor"
	d="M495.13 152.01l46.80 0.00v3.20l-46.80 -0.00"/>
<use x="491.93" y="176.01" xlink:href="#hd"/>
<path d="M495.43 176.01v-23.00" stroke="currentColor" fill="none"/>
<use x="507.33" y="173.01" xlink:href="#hd"/>
<path d="M510.83 173.01v-20.00" stroke="currentColor" fill="none"/>
<use x="522.73" y="170.01" xlink:href="#hd"/>
<path d="M526.23 170.01v-17.00" stroke="currentColor" fill="none"/>
<use x="538.03" y="176.01" xlink:href="#hd"/>
<path d="M541.53 176.01v-23.00" stroke="currentColor" fill="none"/>
<path fill="currentColor"
	d="M574.23 146.01l46.80 -10.30v3.20l-46.80 10.30"/>
<use x="571.03" y="173.01" xlink:href="#hd"/>
<path d="M574.53 173.01v-26.10" stroke="currentColor" fill="none"/>
<use x="586.43" y="167.01" xlink:href="#hd"/>
<path d="M589.93 167.01v-23.50" stroke="currentColor" fill="none"/>
<use x="601.83" y="161.01" xlink:href="#hd"/>
<path d="M605.33 161.01v-20.80" stroke="currentColor" fill="none"/>
<use x="617.13" y="155.01" xlink:href="#hd"/>
<path d="M620.63 155.01v-18.20" stroke="currentColor" fill="none"/>
<use x="634.43" y="146.01" xlink:href="#hd"/>
<path d="M630.93 146.01v20.00" stroke="currentColor" fill="none"/>
<path fill="currentColor"
	d="M654.03 180.31l25.20 -4.10v-3.20l-25.20 4.10"/>
<use x="657.93" y="161.01" xlink:href="#hd"/>
<path d="M654.43 161.01v18.20" stroke="currentColor" fill="none"/>
<use x="670.13" y="158.01" xlink:href="#hd"/>
<path d="M666.63 158.01v19.20" stroke="currentColor" fill="none"/>
<use x="682.43" y="155.01" xlink:href="#hd"/>
<path d="M678.93 155.01v20.20" stroke="currentColor" fill="none"/>
<use x="58.33" y="140.01" xlink:href="#grm"/>
<use x="468.53" y="146.01" xlink:href="#grm"/>
<use x="64.83" y="243.01" xlink:href="#rdots"/>
<path stroke="currentColor" fill="none"
	d="M60.83 243.01v-24.00"/>
<path stroke="currentColor" fill="none" stroke-width="3"
	d="M56.33 243.01v-24.00"/>
<path stroke="currentColor" fill="none"
	d="M224.13 243.01v-24.00"/>
<path stroke="currentColor" fill="none"
	d="M391.03 243.01v-24.00"/>
<path stroke="currentColor" fill="none"
	d="M536.73 243.01v-24.00"/>
<path stroke="currentColor" fill="none"
	d="M694.93 243.01v-24.00"/>
<path stroke="currentColor" fill="none"
	d="M13.33 243.01h681.60m-681.60 -6h681.60m-681.60 -6h681.60m-681.60 -6h681.60m-681.60 -6h681.60"/>
<use x="25.33" y="243.01" xlink:href="#tclef"/>
<use x="40.33" y="219.01" xlink:href="#sh0"/>
<path fill="currentColor"
	d="M74.53 247.71l20.20 5.60v-3.20l-20.20 -5.60"/>
<use x="78.33" y="222.01" xlink:href="#hd"/>
<path d="M74.83 222.01v24.80" stroke="currentColor" fill="none"/>
<use x="97.93" y="234.01" xlink:href="#hd"/>
<path d="M94.43 234.01v18.20" stroke="currentColor" fill="none"/>
<use x="117.43" y="234.01" xlink:href="#hd"/>
<path d="M120.93 234.01v-20.00" stroke="currentColor" fill="none"/>
<path fill="currentColor"
	d="M144.23 247.21l59.40 6.10v-3.20l-59.40 -6.10"/>
<use x="148.03" y="222.01" xlink:href="#hd"/>
<path d="M144.53 222.01v24.20" stroke="currentColor" fill="none"/>
<use x="167.63" y="225.01" xlink:href="#hd"/>
<path d="M164.13 225.01v23.20" stroke="currentColor" fill="none"/>
<use x="187.13" y="231.01" xlink:href="#hd"/>
<path d="M183.63 231.01v19.20" stroke="currentColor" fill="none"/>
<use x="206.73" y="234.01" xlink:href="#hd"/>
<path d="M203.23 234.01v18.20" stroke="currentColor" fill="none"/>
<path fill="currentColor"
	d="M239.83 211.81l137.60 0.00v3.20l-137.60 -0.00"/>
<use x="236.63" y="231.01" xlink:href="#hd"/>
<path d="M240.13 231.01v-18.20" stroke="currentColor" fill="none"/>
<use x="256.23" y="243.01" xlink:href="#hd"/>
<path d="M259.73 243.01v-30.20" stroke="currentColor" fill="none"/>
<use x="275.83" y="237.01" xlink:href="#hd"/>
<path d="M279.33 237.01v-24.20" stroke="currentColor" fill="none"/>
<use x="295.33" y="234.01" xlink:href="#hd"/>
<path d="M298.83 234.01v-21.20" stroke="currentColor" fill="none"/>
<use x="314.93" y="243.01" xlink:href="#hd"/>
<path d="M318.43 243.01v-30.20" stroke="currentColor" fill="none"/>
<use x="334.43" y="237.01" xlink:href="#hd"/>
<path d="M337.93 237.01v-24.20" stroke="currentColor" fill="none"/>
<use x="354.03" y="240.01" xlink:href="#hd"/>
<path d="M357.53 240.01v-27.20" stroke="currentColor" fill="none"/>
<use x="373.53" y="237.01" xlink:href="#hd"/>
<path d="M377.03 237.01v-24.20" stroke="currentColor" fill="none"/>
<path fill="currentColor"
	d="M406.73 222.01l59.40 0.00v3.20l-59.40 -0.00"/>
<use x="403.53" y="243.01" xlink:href="#hd"/>
<path d="M407.03 243.01v-20.00" stroke="currentColor" fill="none"/>
<use x="423.13" y="246.01" xlink:href="#hd"/>
<path d="M426.63 246.01v-23.00" stroke="currentColor" fill="none"/>
<use x="442.63" y="243.01" xlink:href="#hd"/>
<path d="M446.13 243.01v-20.00" stroke="currentColor" fill="none"/>
<use x="462.23" y="240.01" xlink:href="#hd"/>
<path d="M465.73 240.01v-17.00" stroke="currentColor" fill="none"/>
<use x="483.93" y="237.01" xlink:href="#hd"/>
<circle fill="currentColor" cx="491.93" cy="234.01" r="1.2"/>
<path d="M487.43 237.01v-20.00" stroke="currentColor" fill="none"/>
<use x="518.93" y="231.01" xlink:href="#hd"/>
<path d="M522.43 231.01v-20.00" stroke="currentColor" fill="none"/>
<path fill="currentColor"
	d="	M522.43 211.01c0.6 5.6 9.6 9 5.6 18.4
	c1.6 -6 -1.3 -11.6 -5.6 -12.8
"/>
<path fill="currentColor"
	d="M545.33 253.21l59.40 0.00v-3.20l-59.40 -0.00"/>
<use x="549.23" y="225.01" xlink:href="#hd"/>
<path d="M545.73 225.01v27.20" stroke="currentColor" fill="none"/>
<use x="568.73" y="231.01" xlink:href="#hd"/>
<path d="M565.23 231.01v21.20" stroke="currentColor" fill="none"/>
<use x="588.33" y="234.01" xlink:href="#hd"/>
<path d="M584.83 234.01v18.20" stroke="currentColor" fill="none"/>
<use x="607.93" y="231.01" xlink:href="#hd"/>
<path d="M604.43 231.01v21.20" stroke="currentColor" fill="none"/>
<use x="627.43" y="234.01" xlink:href="#hd"/>
<path d="M630.93 234.01v-20.00" stroke="currentColor" fill="none"/>
<path fill="currentColor"
	d="M661.03 216.71l20.20 -2.40v3.20l-20.20 2.40"/>
<use x="657.93" y="237.01" xlink:href="#hd"/>
<path d="M661.43 237.01v-19.40" stroke="currentColor" fill="none"/>
<use x="677.43" y="234.01" xlink:href="#hd"/>
<path d="M680.93 234.01v-18.60" stroke="currentColor" fill="none"/>
<use x="117.43" y="210.01" xlink:href="#grm"/>
<use x="483.93" y="213.01" xlink:href="#grm"/>
<path stroke="currentColor" fill="none"
	d="M272.93 318.01v-24.00"/>
<path stroke="currentColor" fill="none" stroke-width="3"
	d="M454.03 318.01v-24.00"/>
<path stroke="currentColor" fill="none"
	d="M449.53 318.01v-24.00"/>
<use x="445.53" y="318.01" xlink:href="#rdots"/>
<path stroke="currentColor" fill="none"
	d="M694.93 318.01v-24.00"/>
<path stroke="currentColor" fill="none"
	d="M691.93 318.01v-24.00"/>
<path stroke="currentColor" fill="none"
	d="M13.33 318.01h681.60m-681.60 -6h681.60m-681.60 -6h681.60m-681.60 -6h681.60m-681.60 -6h681.60"/>
<text x="276.93" y="279.41">1</text>
<path stroke="currentColor" fill="none"
	d="M272.93 268.01v20M272.93 268.01h174.70v20"/>
<text x="459.53" y="279.41">2</text>
<path stroke="currentColor" fill="none"
	d="M455.53 268.01v20M455.53 268.01h239.40v20"/>
<use x="25.33" y="318.01" xlink:href="#tclef"/>
<use x="40.33" y="294.01" xlink:href="#sh0"/>
<path fill="currentColor"
	d="M61.53 286.21l29.00 2.50v3.20l-29.00 -2.50"/>
<use x="58.33" y="306.01" xlink:href="#hd"/>
<path d="M61.83 306.01v-18.70" stroke="currentColor" fill="none"/>
<use x="86.63" y="309.01" xlink:href="#hd"/>
<path d="M90.13 309.01v-19.30" stroke="currentColor" fill="none"/>
<use x="118.13" y="309.01" xlink:href="#hd"/>
<path d="M121.63 309.01v-20.00" stroke="currentColor" fill="none"/>
<path fill="currentColor"
	d="M165.83 283.81l85.70 0.00v3.20l-85.70 -0.00"/>
<use x="162.73" y="303.01" xlink:href="#hd"/>
<path d="M166.23 303.01v-18.20" stroke="currentColor" fill="none"/>
<use x="191.03" y="309.01" xlink:href="#hd"/>
<path d="M194.53 309.01v-24.20" stroke="currentColor" fill="none"/>
<use x="219.33" y="309.01" xlink:href="#hd"/>
<path d="M222.83 309.01v-24.20" stroke="currentColor" fill="none"/>
<use x="247.73" y="306.01" xlink:href="#hd"/>
<path d="M251.23 306.01v-21.20" stroke="currentColor" fill="none"/>
<path fill="currentColor"
	d="M284.83 328.21l85.70 0.00v-3.20l-85.70 -0.00"/>
<use x="288.63" y="300.01" xlink:href="#hd"/>
<path d="M285.13 300.01v27.20" stroke="currentColor" fill="none"/>
<use x="317.03" y="306.01" xlink:href="#hd"/>
<path d="M313.53 306.01v21.20" stroke="currentColor" fill="none"/>
<use x="345.33" y="309.01" xlink:href="#hd"/>
<path d="M341.83 309.01v18.20" stroke="currentColor" fill="none"/>
<use x="373.73" y="306.01" xlink:href="#hd"/>
<path d="M370.23 306.01v21.20" stroke="currentColor" fill="none"/>
<defs>
<path id="Hd" fill="currentColor" d="m3 -1.6
	c-1 -1.8 -7 1.4 -6 3.2
	c1 1.8 7 -1.4 6 -3.2
	m0.5 -0.3
	c2 3.8 -5 7.6 -7 3.8
	c-2 -3.8 5 -7.6 7 -3.8"/>
</defs>
<use x="405.23" y="303.01" xlink:href="#Hd"/>
<path d="M401.73 303.01v20.00" stroke="currentColor" fill="none"/>
<path fill="currentColor"
	d="M467.53 328.21l199.10 0.00v-3.20l-199.10 -0.00"/>
<use x="471.33" y="300.01" xlink:href="#hd"/>
<path d="M467.83 300.01v27.20" stroke="currentColor" fill="none"/>
<use x="499.63" y="306.01" xlink:href="#hd"/>
<path d="M496.13 306.01v21.20" stroke="currentColor" fill="none"/>
<use x="528.03" y="309.01" xlink:href="#hd"/>
<path d="M524.53 309.01v18.20" stroke="currentColor" fill="none"/>
<use x="556.33" y="306.01" xlink:href="#hd"/>
<path d="M552.83 306.01v21.20" stroke="currentColor" fill="none"/>
<use x="584.73" y="297.01" xlink:href="#hd"/>
<path d="M581.23 297.01v30.20" stroke="currentColor" fill="none"/>
<use x="613.03" y="300.01" xlink:href="#hd"/>
<path d="M609.53 300.01v27.20" stroke="currentColor" fill="none"/>
<use x="641.43" y="300.01" xlink:href="#hd"/>
<path d="M637.93 300.01v27.20" stroke="currentColor" fill="none"/>
<use x="669.73" y="306.01" xlink:href="#hd"/>
<path d="M666.23 306.01v21.20" stroke="currentColor" fill="none"/>
<use x="118.13" y="285.01" xlink:href="#grm"/>
</g>
</svg>
