<?xml version="1.0" standalone="no"?>
<!DOCTYPE svg PUBLIC "-//W3C//DTD SVG 1.1//EN"
	"http://www.w3.org/Graphics/SVG/1.1/DTD/svg11.dtd">
<svg xmlns="http://www.w3.org/2000/svg" version="1.1"
	xmlns:xlink="http://www.w3.org/1999/xlink"
	xml:space='preserve' color="black"
	width="7.38in" height="2.32in" viewBox="0 0 531 167">
<title>data/results/biggest_11/abc/223.abc (223) tune 1</title>
<!-- Creator: abcm2ps-7.8.14 -->
<!-- CreationDate: Aug  9, 2015 23:50 -->
<!-- CommandLine: -g data/results/biggest_11/abc/223.abc -O /home/allanino/Dropbox/Trabalhos/folkme/svg/223.svg -->
<g transform="scale(0.750)" stroke-width="0.70" font-family="Times" font-size="20.00">
<text x="354.13" y="21.67" text-anchor="middle">Polka CF  chords Anm</text>
<path stroke="currentColor" fill="none"
	d="M146.83 116.91v-24.00"/>
<path stroke="currentColor" fill="none"
	d="M234.73 116.91v-24.00"/>
<path stroke="currentColor" fill="none"
	d="M306.43 116.91v-24.00"/>
<path stroke="currentColor" fill="none"
	d="M378.33 116.91v-24.00"/>
<path stroke="currentColor" fill="none"
	d="M449.93 116.91v-24.00"/>
<path stroke="currentColor" fill="none"
	d="M529.53 116.91v-24.00"/>
<path stroke="currentColor" fill="none"
	d="M607.13 116.91v-24.00"/>
<path stroke="currentColor" fill="none" stroke-width="3"
	d="M693.43 116.91v-24.00"/>
<path stroke="currentColor" fill="none"
	d="M688.93 116.91v-24.00"/>
<defs>
<g id="rdots" fill="currentColor">
	<circle cx="0" cy="-9" r="1.2"/>
	<circle cx="0" cy="-15" r="1.2"/>
</g>
</defs>
<use x="684.93" y="116.91" xlink:href="#rdots"/>
<path stroke="currentColor" fill="none"
	d="M13.33 116.91h681.60m-681.60 -6h681.60m-681.60 -6h681.60m-681.60 -6h681.60m-681.60 -6h681.60"/>
<path fill="currentColor"
	d="M61.83 87.91c2.47 -4.47 13.22 -7.35 15.69 -4.20
	l0.00 -0.22c-2.94 -4.93 -12.75 -2.06 -15.69 4.42"/>
<path stroke="currentColor" fill="none"
	d="M57.83 77.01v-3l26.70 -0.00v3"/>
<rect x="64.13" y="68.01" width="14.00" height="12" fill="white"/>
<text font-family="serif" font-size="12" font-style="italic" font-weight="normal"
	x="71.13" y="78.01" text-anchor="middle">3</text>
<path stroke="currentColor" fill="none"
	d="M85.83 75.91v-3l26.70 -0.00v3"/>
<rect x="92.23" y="66.91" width="14.00" height="12" fill="white"/>
<text font-family="serif" font-size="12" font-style="italic" font-weight="normal"
	x="99.23" y="76.91" text-anchor="middle">3</text>
<path fill="currentColor"
	d="M120.93 80.71c1.91 -3.10 10.20 -0.22 12.11 4.20
	l0.00 -0.21c-2.27 -6.21 -9.84 -9.09 -12.11 -3.99"/>
<path fill="currentColor"
	d="M162.33 74.71c3.81 -3.27 20.39 -0.39 24.20 4.20
	l0.00 -0.22c-4.54 -6.36 -19.66 -9.24 -24.20 -3.98"/>
<path fill="currentColor"
	d="M212.93 84.91c1.31 -4.37 7.03 -7.25 8.34 -4.20
	l0.00 -0.21c-1.56 -4.84 -6.78 -1.97 -8.34 4.41"/>
</g>
<g transform="scale(0.750)" stroke-width="0.70" font-family="Helvetica" font-size="12.00">
<text x="58.33" y="64.61">C</text>
<text x="114.93" y="64.61">F</text>
<text x="155.83" y="64.61">C</text>
<text x="312.43" y="64.61">G7</text>
<text x="346.43" y="138.51">d</text>
<text x="365.23" y="140.51">h</text>
<text x="387.33" y="64.61">C</text>
<text x="503.33" y="132.51">f#</text>
<text x="535.63" y="64.61">G7</text>
<text x="539.43" y="140.51">d</text>
<text x="557.93" y="140.51">a</text>
<text x="622.63" y="64.61">C</text>
</g>
<g transform="scale(0.750)" stroke-width="0.70" font-family="Times" font-size="13.00">
<text x="611.13" y="64.41">1</text>
<path stroke="currentColor" fill="none"
	d="M607.13 53.01v20M607.13 53.01h79.80v20"/>
<defs>
<path id="utclef" fill="currentColor" d="m-50 -90
	c-72 -41 -72 -158 52 -188
	c150 -10 220 188 90 256
	c-114 52 -275 0 -293 -136
	c-15 -181 93 -229 220 -334
	c88 -87 79 -133 62 -210
	c-51 33 -94 105 -89 186
	c17 267 36 374 49 574
	c6 96 -19 134 -77 135
	c-80 1 -126 -93 -61 -133
	c85 -41 133 101 31 105
	c23 17 92 37 90 -92
	c-10 -223 -39 -342 -50 -617
	c0 -90 0 -162 96 -232
	c56 72 63 230 22 289
	c-74 106 -257 168 -255 316
	c9 153 148 185 252 133
	c86 -65 29 -192 -80 -176
	c-71 12 -105 67 -59 124"/>
<use id="tclef" transform="scale(0.045)"
	xlink:href="#utclef"/>
</defs>
<use x="25.33" y="116.91" xlink:href="#tclef"/>
<g font-family="serif" font-size="16" font-weight="bold" font-style="normal"
	transform="translate(43.83,116.91) scale(1.2,1)">
	<text y="-1" text-anchor="middle">4</text>
	<text y="-13" text-anchor="middle">2</text>
</g>
<path fill="currentColor"
	d="M58.03 118.81l71.90 0.00v-3.20l-71.90 -0.00"/>
<path fill="currentColor"
	d="M58.33 113.81l46.70 0.00v-3.20l-46.70 -0.00"/>
<defs>
<ellipse id="hd" rx="4.1" ry="2.9"
	transform="rotate(-20)" fill="currentColor"/>
</defs>
<use x="61.83" y="95.91" xlink:href="#hd"/>
<path d="M58.33 95.91v22.00" stroke="currentColor" fill="none"/>
<use x="71.13" y="98.91" xlink:href="#hd"/>
<path d="M67.63 98.91v19.00" stroke="currentColor" fill="none"/>
<use x="80.53" y="89.91" xlink:href="#hd"/>
<path d="M77.03 89.91v28.00" stroke="currentColor" fill="none"/>
<use x="89.83" y="89.91" xlink:href="#hd"/>
<path d="M86.33 89.91v28.00" stroke="currentColor" fill="none"/>
<defs>
<path id="hl" stroke="currentColor" d="m-6 0h12"/>
</defs>
<use x="99.23" y="86.91" xlink:href="#hl"/>
<use x="99.23" y="86.91" xlink:href="#hd"/>
<path d="M95.73 86.91v31.00" stroke="currentColor" fill="none"/>
<use x="108.53" y="89.91" xlink:href="#hd"/>
<path d="M105.03 89.91v28.00" stroke="currentColor" fill="none"/>
<use x="117.93" y="86.91" xlink:href="#hl"/>
<use x="117.93" y="86.91" xlink:href="#hd"/>
<path d="M114.43 86.91v31.00" stroke="currentColor" fill="none"/>
<use x="133.03" y="92.91" xlink:href="#hd"/>
<path d="M129.53 92.91v25.00" stroke="currentColor" fill="none"/>
<path fill="currentColor"
	d="M155.53 117.11l65.70 0.00v-3.20l-65.70 -0.00"/>
<path fill="currentColor"
	d="M171.33 112.11l11.70 0.00v-3.20l-11.70 -0.00"/>
<path fill="currentColor"
	d="M209.43 112.11l11.30 0.00v-3.20l-11.30 -0.00"/>
<use x="159.33" y="86.91" xlink:href="#hl"/>
<use x="159.33" y="80.91" xlink:href="#hl"/>
<use x="159.33" y="80.91" xlink:href="#hd"/>
<path d="M155.83 80.91v35.20" stroke="currentColor" fill="none"/>
<use x="174.83" y="86.91" xlink:href="#hl"/>
<use x="174.83" y="83.91" xlink:href="#hd"/>
<path d="M171.33 83.91v32.20" stroke="currentColor" fill="none"/>
<use x="186.53" y="86.91" xlink:href="#hl"/>
<use x="186.53" y="86.91" xlink:href="#hd"/>
<path d="M183.03 86.91v29.20" stroke="currentColor" fill="none"/>
<use x="197.83" y="89.91" xlink:href="#hd"/>
<path d="M194.33 89.91v26.20" stroke="currentColor" fill="none"/>
<use x="212.93" y="92.91" xlink:href="#hd"/>
<path d="M209.43 92.91v23.20" stroke="currentColor" fill="none"/>
<use x="224.33" y="86.91" xlink:href="#hl"/>
<use x="224.33" y="86.91" xlink:href="#hd"/>
<path d="M220.83 86.91v29.20" stroke="currentColor" fill="none"/>
<path fill="currentColor"
	d="M243.43 113.81l46.00 0.00v-3.20l-46.00 -0.00"/>
<use x="247.23" y="89.91" xlink:href="#hd"/>
<path d="M243.73 89.91v23.00" stroke="currentColor" fill="none"/>
<use x="262.33" y="89.91" xlink:href="#hd"/>
<path d="M258.83 89.91v23.00" stroke="currentColor" fill="none"/>
<use x="277.43" y="89.91" xlink:href="#hd"/>
<path d="M273.93 89.91v23.00" stroke="currentColor" fill="none"/>
<use x="292.63" y="95.91" xlink:href="#hd"/>
<path d="M289.13 95.91v17.00" stroke="currentColor" fill="none"/>
<path fill="currentColor"
	d="M315.03 120.31l49.70 6.80v-3.20l-49.70 -6.80"/>
<path fill="currentColor"
	d="M358.33 121.31l6.00 0.80v-3.20l-6.00 -0.80"/>
<use x="318.93" y="92.91" xlink:href="#hd"/>
<path d="M315.43 92.91v26.50" stroke="currentColor" fill="none"/>
<use x="334.03" y="86.91" xlink:href="#hl"/>
<use x="334.03" y="83.91" xlink:href="#hd"/>
<path d="M330.53 83.91v37.50" stroke="currentColor" fill="none"/>
<use x="349.13" y="98.91" xlink:href="#hd"/>
<circle fill="currentColor" cx="357.13" cy="95.91" r="1.2"/>
<path d="M345.63 98.91v24.60" stroke="currentColor" fill="none"/>
<use x="367.83" y="104.91" xlink:href="#hd"/>
<path d="M364.33 104.91v21.20" stroke="currentColor" fill="none"/>
<path fill="currentColor"
	d="M386.93 119.81l46.00 0.00v-3.20l-46.00 -0.00"/>
<use x="390.83" y="101.91" xlink:href="#hd"/>
<path d="M387.33 101.91v17.00" stroke="currentColor" fill="none"/>
<use x="405.93" y="89.91" xlink:href="#hd"/>
<path d="M402.43 89.91v29.00" stroke="currentColor" fill="none"/>
<use x="421.03" y="95.91" xlink:href="#hd"/>
<path d="M417.53 95.91v23.00" stroke="currentColor" fill="none"/>
<use x="436.13" y="101.91" xlink:href="#hd"/>
<path d="M432.63 101.91v17.00" stroke="currentColor" fill="none"/>
<path fill="currentColor"
	d="M458.63 118.81l57.30 0.00v-3.20l-57.30 -0.00"/>
<path fill="currentColor"
	d="M504.23 113.81l11.30 0.00v-3.20l-11.30 -0.00"/>
<use x="462.43" y="101.91" xlink:href="#hd"/>
<path d="M458.93 101.91v16.00" stroke="currentColor" fill="none"/>
<use x="477.53" y="101.91" xlink:href="#hd"/>
<path d="M474.03 101.91v16.00" stroke="currentColor" fill="none"/>
<use x="492.63" y="95.91" xlink:href="#hd"/>
<path d="M489.13 95.91v22.00" stroke="currentColor" fill="none"/>
<use x="507.73" y="92.91" xlink:href="#hd"/>
<path d="M504.23 92.91v25.00" stroke="currentColor" fill="none"/>
<use x="519.13" y="95.91" xlink:href="#hd"/>
<path d="M515.63 95.91v22.00" stroke="currentColor" fill="none"/>
<path fill="currentColor"
	d="M538.23 127.11l52.00 0.00v-3.20l-52.00 -0.00"/>
<use x="542.03" y="98.91" xlink:href="#hd"/>
<path d="M538.53 98.91v27.20" stroke="currentColor" fill="none"/>
<use x="560.23" y="107.91" xlink:href="#hd"/>
<path d="M556.73 107.91v18.20" stroke="currentColor" fill="none"/>
<use x="578.23" y="101.91" xlink:href="#hd"/>
<defs>
<path id="usharp" fill="currentColor" d="
	m136 -702
	v890
	h32
	v-890
	m128 840
	h32
	v-888
	h-32
	m-232 286
	v116
	l338 -96
	v-116
	m-338 442
	v116
	l338 -98
	v-114"/>
<use id="sh0" transform="translate(-4,5) scale(0.018)"
	xlink:href="#usharp"/>
</defs>
<use x="569.23" y="101.91" xlink:href="#sh0"/>
<path d="M574.73 101.91v24.20" stroke="currentColor" fill="none"/>
<use x="593.33" y="98.91" xlink:href="#hd"/>
<path d="M589.83 98.91v27.20" stroke="currentColor" fill="none"/>
<use x="626.13" y="86.91" xlink:href="#hl"/>
<use x="626.13" y="80.91" xlink:href="#hl"/>
<use x="626.13" y="80.91" xlink:href="#hd"/>
<path d="M622.63 80.91v24.00" stroke="currentColor" fill="none"/>
<defs>
<path id="r8e" fill="currentColor" d="m 0 0
	c-1.5 1.5 -2.4 2 -3.6 2
	c2.4 -2.8 -2.8 -4 -2.8 -1.2
	c0 2.7 4.3 2.4 5.9 0.6"/>
<g id="r8">
	<path d="m3.3 -4l-3.4 9.6" stroke="currentColor" fill="none"/>
	<use x="3.4" y="-4" xlink:href="#r8e"/>
</g>
</defs>
<use x="646.53" y="104.91" xlink:href="#r8"/>
<path fill="currentColor"
	d="M659.23 118.11l12.00 -2.10v-3.20l-12.00 2.10"/>
<path fill="currentColor"
	d="M659.63 113.11l11.30 -2.00v-3.20l-11.30 2.00"/>
<use x="663.13" y="95.91" xlink:href="#hd"/>
<path d="M659.63 95.91v21.20" stroke="currentColor" fill="none"/>
<use x="674.43" y="92.91" xlink:href="#hd"/>
<path d="M670.93 92.91v22.20" stroke="currentColor" fill="none"/>
<defs>
<circle id="stc" fill="currentColor" cx="0" cy="-3" r="1.2"/>
</defs>
<use x="197.83" y="85.91" xlink:href="#stc"/>
<use x="247.23" y="85.91" xlink:href="#stc"/>
<use x="262.33" y="85.91" xlink:href="#stc"/>
<use x="277.43" y="85.91" xlink:href="#stc"/>
<use x="292.63" y="91.91" xlink:href="#stc"/>
<use x="161.53" y="199.30" xlink:href="#rdots"/>
<path stroke="currentColor" fill="none"
	d="M157.53 199.30v-24.00"/>
<path stroke="currentColor" fill="none" stroke-width="3"
	d="M153.03 199.30v-24.00"/>
<path stroke="currentColor" fill="none"
	d="M298.03 199.30v-24.00"/>
<path stroke="currentColor" fill="none"
	d="M414.13 199.30v-24.00"/>
<path stroke="currentColor" fill="none"
	d="M554.53 199.30v-24.00"/>
<path stroke="currentColor" fill="none" stroke-width="3"
	d="M693.43 199.30v-24.00"/>
<path stroke="currentColor" fill="none"
	d="M688.93 199.30v-24.00"/>
<use x="684.93" y="199.30" xlink:href="#rdots"/>
<path stroke="currentColor" fill="none"
	d="M13.33 199.30h681.60m-681.60 -6h681.60m-681.60 -6h681.60m-681.60 -6h681.60m-681.60 -6h681.60"/>
</g>
<g transform="scale(0.750)" stroke-width="0.70" font-family="Helvetica" font-size="12.00">
<text x="176.53" y="160.90">C</text>
<text x="565.63" y="160.90">G7</text>
<text x="658.83" y="212.90">fine</text>
</g>
<g transform="scale(0.750)" stroke-width="0.70" font-family="Times" font-size="13.00">
<text x="49.33" y="160.70">2</text>
<path stroke="currentColor" fill="none"
	d="M45.33 149.30v20M45.33 149.30h105.20v20"/>
<use x="25.33" y="199.30" xlink:href="#tclef"/>
<use x="62.83" y="172.30" xlink:href="#hd"/>
<circle fill="currentColor" cx="70.83" cy="172.30" r="1.2"/>
<path d="M59.33 172.30v20.00" stroke="currentColor" fill="none"/>
<path fill="currentColor"
	d="M115.53 194.50l23.00 -2.40v-3.20l-23.00 2.40"/>
<path fill="currentColor"
	d="M115.83 189.50l22.30 -2.40v-3.20l-22.30 2.40"/>
<use x="119.33" y="172.30" xlink:href="#hd"/>
<path d="M115.83 172.30v21.20" stroke="currentColor" fill="none"/>
<use x="141.63" y="169.30" xlink:href="#hl"/>
<use x="141.63" y="169.30" xlink:href="#hd"/>
<path d="M138.13 169.30v21.80" stroke="currentColor" fill="none"/>
<path fill="currentColor"
	d="M176.23 207.30l90.50 0.00v-3.20l-90.50 -0.00"/>
<path fill="currentColor"
	d="M206.53 202.30l6.00 0.00v-3.20l-6.00 -0.00"/>
<use x="180.03" y="172.30" xlink:href="#hd"/>
<circle fill="currentColor" cx="188.03" cy="172.30" r="1.2"/>
<path d="M176.53 172.30v34.00" stroke="currentColor" fill="none"/>
<use x="216.03" y="184.30" xlink:href="#hd"/>
<path d="M212.53 184.30v22.00" stroke="currentColor" fill="none"/>
<use x="238.33" y="184.30" xlink:href="#hd"/>
<path d="M234.83 184.30v22.00" stroke="currentColor" fill="none"/>
<use x="269.93" y="178.30" xlink:href="#hd"/>
<path d="M266.43 178.30v28.00" stroke="currentColor" fill="none"/>
<use x="315.53" y="172.30" xlink:href="#hd"/>
<circle fill="currentColor" cx="323.53" cy="172.30" r="1.2"/>
<path d="M312.03 172.30v20.00" stroke="currentColor" fill="none"/>
<path fill="currentColor"
	d="M368.13 192.10l23.00 2.40v-3.20l-23.00 -2.40"/>
<path fill="currentColor"
	d="M368.53 187.10l22.30 2.40v-3.20l-22.30 -2.40"/>
<use x="372.03" y="169.30" xlink:href="#hl"/>
<use x="372.03" y="169.30" xlink:href="#hd"/>
<path d="M368.53 169.30v21.80" stroke="currentColor" fill="none"/>
<use x="394.33" y="172.30" xlink:href="#hd"/>
<path d="M390.83 172.30v21.20" stroke="currentColor" fill="none"/>
<path fill="currentColor"
	d="M427.83 199.50l95.40 0.00v-3.20l-95.40 -0.00"/>
<use x="431.73" y="178.30" xlink:href="#hd"/>
<path d="M428.23 178.30v20.20" stroke="currentColor" fill="none"/>
<use x="463.33" y="178.30" xlink:href="#hd"/>
<path d="M459.83 178.30v20.20" stroke="currentColor" fill="none"/>
<use x="494.93" y="181.30" xlink:href="#hd"/>
<path d="M491.43 181.30v17.20" stroke="currentColor" fill="none"/>
<use x="526.43" y="178.30" xlink:href="#hd"/>
<path d="M522.93 178.30v20.20" stroke="currentColor" fill="none"/>
<path fill="currentColor"
	d="M568.23 203.50l63.90 5.90v-3.20l-63.90 -5.90"/>
<use x="572.13" y="175.30" xlink:href="#hd"/>
<path d="M568.63 175.30v27.30" stroke="currentColor" fill="none"/>
<use x="603.73" y="187.30" xlink:href="#hd"/>
<path d="M600.23 187.30v18.20" stroke="currentColor" fill="none"/>
<use x="635.23" y="187.30" xlink:href="#hd"/>
<path d="M631.73 187.30v21.10" stroke="currentColor" fill="none"/>
<use x="666.83" y="187.30" xlink:href="#r8"/>
</g>
</svg>
