<?xml version="1.0" standalone="no"?>
<!DOCTYPE svg PUBLIC "-//W3C//DTD SVG 1.1//EN"
	"http://www.w3.org/Graphics/SVG/1.1/DTD/svg11.dtd">
<svg xmlns="http://www.w3.org/2000/svg" version="1.1"
	xmlns:xlink="http://www.w3.org/1999/xlink"
	xml:space='preserve' color="black"
	width="7.38in" height="2.83in" viewBox="0 0 531 204">
<title>data/results/biggest_11/abc/229.abc (229) tune 1</title>
<!-- Creator: abcm2ps-7.8.14 -->
<!-- CreationDate: Aug  9, 2015 23:50 -->
<!-- CommandLine: -g data/results/biggest_11/abc/229.abc -O /home/allanino/Dropbox/Trabalhos/folkme/svg/229.svg -->
<g transform="scale(0.750)" stroke-width="0.70" font-family="Times" font-size="20.00">
<text x="354.13" y="21.67" text-anchor="middle">The Marquhia Reel</text>
<path stroke="currentColor" fill="none"
	d="M229.03 98.01v-24.00"/>
<path stroke="currentColor" fill="none"
	d="M384.33 98.01v-24.00"/>
<path stroke="currentColor" fill="none"
	d="M539.63 98.01v-24.00"/>
<path stroke="currentColor" fill="none"
	d="M694.93 98.01v-24.00"/>
<path stroke="currentColor" fill="none"
	d="M13.33 98.01h681.60m-681.60 -6h681.60m-681.60 -6h681.60m-681.60 -6h681.60m-681.60 -6h681.60"/>
<defs>
<path id="utclef" fill="currentColor" d="m-50 -90
	c-72 -41 -72 -158 52 -188
	c150 -10 220 188 90 256
	c-114 52 -275 0 -293 -136
	c-15 -181 93 -229 220 -334
	c88 -87 79 -133 62 -210
	c-51 33 -94 105 -89 186
	c17 267 36 374 49 574
	c6 96 -19 134 -77 135
	c-80 1 -126 -93 -61 -133
	c85 -41 133 101 31 105
	c23 17 92 37 90 -92
	c-10 -223 -39 -342 -50 -617
	c0 -90 0 -162 96 -232
	c56 72 63 230 22 289
	c-74 106 -257 168 -255 316
	c9 153 148 185 252 133
	c86 -65 29 -192 -80 -176
	c-71 12 -105 67 -59 124"/>
<use id="tclef" transform="scale(0.045)"
	xlink:href="#utclef"/>
</defs>
<use x="25.33" y="98.01" xlink:href="#tclef"/>
<defs>
<path id="usharp" fill="currentColor" d="
	m136 -702
	v890
	h32
	v-890
	m128 840
	h32
	v-888
	h-32
	m-232 286
	v116
	l338 -96
	v-116
	m-338 442
	v116
	l338 -98
	v-114"/>
<use id="sh0" transform="translate(-4,5) scale(0.018)"
	xlink:href="#usharp"/>
</defs>
<use x="40.33" y="74.01" xlink:href="#sh0"/>
<use x="45.83" y="83.01" xlink:href="#sh0"/>
<defs>
<path id="csig" fill="currentColor" d="
	m1 -17.3
	c0.9 0 2.3 0.7 2.4 2.2
	c-1.2 -2 -3.6 0.1 -1.6 1.7
	c2 1 3.8 -3.5 -0.8 -4.7
	c-2 -0.4 -6.4 1.3 -5.8 7
	c0.4 6.4 7.9 6.8 9.1 0.7
	c-2.3 5.6 -6.7 5.1 -6.8 0
	c-0.5 -4.4 0.7 -7.5 3.5 -6.9"/>
<g id="ctsig">
	<use xlink:href="#csig"/>
	<path d="m0 -4v-16" stroke="currentColor"/>
</g>
</defs>
<use x="61.83" y="98.01" xlink:href="#ctsig"/>
<path fill="currentColor"
	d="M83.03 60.81l133.00 0.00v3.20l-133.00 -0.00"/>
<defs>
<ellipse id="hd" rx="4.1" ry="2.9"
	transform="rotate(-20)" fill="currentColor"/>
</defs>
<use x="79.83" y="101.01" xlink:href="#hd"/>
<path d="M83.33 101.01v-39.20" stroke="currentColor" fill="none"/>
<use x="98.73" y="95.01" xlink:href="#hd"/>
<path d="M102.23 95.01v-33.20" stroke="currentColor" fill="none"/>
<use x="117.63" y="89.01" xlink:href="#hd"/>
<path d="M121.13 89.01v-27.20" stroke="currentColor" fill="none"/>
<use x="136.53" y="83.01" xlink:href="#hd"/>
<path d="M140.03 83.01v-21.20" stroke="currentColor" fill="none"/>
<use x="155.43" y="80.01" xlink:href="#hd"/>
<path d="M158.93 80.01v-18.20" stroke="currentColor" fill="none"/>
<use x="174.33" y="83.01" xlink:href="#hd"/>
<path d="M177.83 83.01v-21.20" stroke="currentColor" fill="none"/>
<use x="193.23" y="86.01" xlink:href="#hd"/>
<path d="M196.73 86.01v-24.20" stroke="currentColor" fill="none"/>
<use x="212.13" y="89.01" xlink:href="#hd"/>
<path d="M215.63 89.01v-27.20" stroke="currentColor" fill="none"/>
<path fill="currentColor"
	d="M244.73 71.01l57.40 0.00v3.20l-57.40 -0.00"/>
<use x="241.53" y="95.01" xlink:href="#hd"/>
<path d="M245.03 95.01v-23.00" stroke="currentColor" fill="none"/>
<use x="260.43" y="89.01" xlink:href="#hd"/>
<path d="M263.93 89.01v-17.00" stroke="currentColor" fill="none"/>
<use x="279.33" y="101.01" xlink:href="#hd"/>
<path d="M282.83 101.01v-29.00" stroke="currentColor" fill="none"/>
<use x="298.23" y="95.01" xlink:href="#hd"/>
<path d="M301.73 95.01v-23.00" stroke="currentColor" fill="none"/>
<use x="319.13" y="89.01" xlink:href="#hd"/>
<path d="M322.63 89.01v-20.00" stroke="currentColor" fill="none"/>
<path fill="currentColor"
	d="M351.73 73.51l19.60 -3.80v3.20l-19.60 3.80"/>
<use x="348.53" y="95.01" xlink:href="#hd"/>
<path d="M352.03 95.01v-20.50" stroke="currentColor" fill="none"/>
<use x="367.43" y="89.01" xlink:href="#hd"/>
<path d="M370.93 89.01v-18.20" stroke="currentColor" fill="none"/>
<path fill="currentColor"
	d="M393.03 99.31l19.60 -3.80v-3.20l-19.60 3.80"/>
<use x="396.83" y="80.01" xlink:href="#hd"/>
<path d="M393.33 80.01v18.20" stroke="currentColor" fill="none"/>
<use x="415.73" y="74.01" xlink:href="#hd"/>
<path d="M412.23 74.01v20.50" stroke="currentColor" fill="none"/>
<use x="436.63" y="74.01" xlink:href="#hd"/>
<path d="M433.13 74.01v20.00" stroke="currentColor" fill="none"/>
<path fill="currentColor"
	d="M462.23 102.51l57.40 5.70v-3.20l-57.40 -5.70"/>
<use x="466.03" y="77.01" xlink:href="#hd"/>
<path d="M462.53 77.01v24.60" stroke="currentColor" fill="none"/>
<use x="484.93" y="80.01" xlink:href="#hd"/>
<path d="M481.43 80.01v23.40" stroke="currentColor" fill="none"/>
<use x="503.83" y="83.01" xlink:href="#hd"/>
<path d="M500.33 83.01v22.30" stroke="currentColor" fill="none"/>
<use x="522.73" y="89.01" xlink:href="#hd"/>
<path d="M519.23 89.01v18.20" stroke="currentColor" fill="none"/>
<path fill="currentColor"
	d="M555.33 66.81l57.40 6.70v3.20l-57.40 -6.70"/>
<use x="552.13" y="86.01" xlink:href="#hd"/>
<path d="M555.63 86.01v-18.20" stroke="currentColor" fill="none"/>
<use x="571.03" y="92.01" xlink:href="#hd"/>
<path d="M574.53 92.01v-22.00" stroke="currentColor" fill="none"/>
<use x="589.93" y="95.01" xlink:href="#hd"/>
<path d="M593.43 95.01v-22.80" stroke="currentColor" fill="none"/>
<use x="608.83" y="101.01" xlink:href="#hd"/>
<path d="M612.33 101.01v-26.60" stroke="currentColor" fill="none"/>
<use x="629.73" y="98.01" xlink:href="#hd"/>
<path d="M633.23 98.01v-20.00" stroke="currentColor" fill="none"/>
<path fill="currentColor"
	d="M662.33 80.71l19.60 -2.40v3.20l-19.60 2.40"/>
<use x="659.13" y="101.01" xlink:href="#hd"/>
<path d="M662.63 101.01v-19.40" stroke="currentColor" fill="none"/>
<use x="678.03" y="98.01" xlink:href="#hd"/>
<path d="M681.53 98.01v-18.60" stroke="currentColor" fill="none"/>
<defs>
<path id="grm" fill="currentColor" d="
	m-5 -2.5
	c5 -8.5 5.5 4.5 10 -2
	c-5 8.5 -5.5 -4.5 -10 2"/>
</defs>
<use x="436.63" y="68.01" xlink:href="#grm"/>
<path stroke="currentColor" fill="none"
	d="M166.03 173.01v-24.00"/>
<path stroke="currentColor" fill="none"
	d="M296.23 173.01v-24.00"/>
<path stroke="currentColor" fill="none"
	d="M429.33 173.01v-24.00"/>
<path stroke="currentColor" fill="none" stroke-width="3"
	d="M559.83 173.01v-24.00"/>
<path stroke="currentColor" fill="none"
	d="M555.33 173.01v-24.00"/>
<defs>
<g id="rdots" fill="currentColor">
	<circle cx="0" cy="-9" r="1.2"/>
	<circle cx="0" cy="-15" r="1.2"/>
</g>
</defs>
<use x="551.33" y="173.01" xlink:href="#rdots"/>
<path stroke="currentColor" fill="none"
	d="M694.93 173.01v-24.00"/>
<path stroke="currentColor" fill="none"
	d="M691.93 173.01v-24.00"/>
<path stroke="currentColor" fill="none"
	d="M13.33 173.01h681.60m-681.60 -6h681.60m-681.60 -6h681.60m-681.60 -6h681.60m-681.60 -6h681.60"/>
</g>
<g transform="scale(0.750)" stroke-width="0.70" font-family="Times" font-size="13.00">
<text x="433.33" y="134.41">1</text>
<path stroke="currentColor" fill="none"
	d="M429.33 123.01v20M429.33 123.01h123.90v20"/>
<text x="565.33" y="134.41">2</text>
<path stroke="currentColor" fill="none"
	d="M561.33 123.01v20M561.33 123.01h133.60v20"/>
<use x="25.33" y="173.01" xlink:href="#tclef"/>
<use x="40.33" y="149.01" xlink:href="#sh0"/>
<use x="45.83" y="158.01" xlink:href="#sh0"/>
<use x="63.83" y="170.01" xlink:href="#hd"/>
<circle fill="currentColor" cx="71.83" cy="170.01" r="1.2"/>
<path d="M67.33 170.01v-20.00" stroke="currentColor" fill="none"/>
<path fill="currentColor"
	d="M94.33 146.01l61.80 0.00v3.20l-61.80 -0.00"/>
<use x="91.23" y="164.01" xlink:href="#hd"/>
<path d="M94.73 164.01v-17.00" stroke="currentColor" fill="none"/>
<use x="106.43" y="167.01" xlink:href="#hd"/>
<path d="M109.93 167.01v-20.00" stroke="currentColor" fill="none"/>
<use x="121.73" y="173.01" xlink:href="#hd"/>
<path d="M125.23 173.01v-26.00" stroke="currentColor" fill="none"/>
<use x="137.03" y="176.01" xlink:href="#hd"/>
<path d="M140.53 176.01v-29.00" stroke="currentColor" fill="none"/>
<use x="152.23" y="170.01" xlink:href="#hd"/>
<path d="M155.73 170.01v-23.00" stroke="currentColor" fill="none"/>
<path fill="currentColor"
	d="M181.73 144.71l15.90 4.90v3.20l-15.90 -4.90"/>
<use x="178.53" y="164.01" xlink:href="#hd"/>
<path d="M182.03 164.01v-18.20" stroke="currentColor" fill="none"/>
<use x="193.83" y="176.01" xlink:href="#hd"/>
<path d="M197.33 176.01v-25.50" stroke="currentColor" fill="none"/>
<use x="210.63" y="176.01" xlink:href="#hd"/>
<path d="M214.13 176.01v-20.00" stroke="currentColor" fill="none"/>
<path fill="currentColor"
	d="M237.03 144.31l49.20 -5.60v3.20l-49.20 5.60"/>
<use x="233.83" y="170.01" xlink:href="#hd"/>
<path d="M237.33 170.01v-24.70" stroke="currentColor" fill="none"/>
<use x="249.13" y="167.01" xlink:href="#hd"/>
<path d="M252.63 167.01v-23.40" stroke="currentColor" fill="none"/>
<use x="264.43" y="164.01" xlink:href="#hd"/>
<path d="M267.93 164.01v-22.20" stroke="currentColor" fill="none"/>
<use x="282.43" y="158.01" xlink:href="#hd"/>
<defs>
<path id="unat" fill="currentColor" d="
	m96 -750
	h-32
	v716
	l32 -8
	l182 -54
	v282
	h32
	v-706
	l-34 10
	l-180 50
	v-290
	m0 592
	v-190
	l182 -52
	v188"/>
<use id="nt0" transform="translate(-3,5) scale(0.018)"
	xlink:href="#unat"/>
</defs>
<use x="273.43" y="158.01" xlink:href="#nt0"/>
<path d="M285.93 158.01v-18.20" stroke="currentColor" fill="none"/>
<path fill="currentColor"
	d="M311.83 138.81l107.60 0.00v3.20l-107.60 -0.00"/>
<use x="308.73" y="161.01" xlink:href="#hd"/>
<path d="M312.23 161.01v-21.20" stroke="currentColor" fill="none"/>
<use x="323.93" y="167.01" xlink:href="#hd"/>
<path d="M327.43 167.01v-27.20" stroke="currentColor" fill="none"/>
<use x="339.23" y="173.01" xlink:href="#hd"/>
<path d="M342.73 173.01v-33.20" stroke="currentColor" fill="none"/>
<use x="354.53" y="170.01" xlink:href="#hd"/>
<path d="M358.03 170.01v-30.20" stroke="currentColor" fill="none"/>
<use x="369.73" y="167.01" xlink:href="#hd"/>
<path d="M373.23 167.01v-27.20" stroke="currentColor" fill="none"/>
<use x="385.03" y="164.01" xlink:href="#hd"/>
<path d="M388.53 164.01v-24.20" stroke="currentColor" fill="none"/>
<use x="400.33" y="161.01" xlink:href="#hd"/>
<path d="M403.83 161.01v-21.20" stroke="currentColor" fill="none"/>
<use x="415.63" y="158.01" xlink:href="#hd"/>
<path d="M419.13 158.01v-18.20" stroke="currentColor" fill="none"/>
<path fill="currentColor"
	d="M438.03 183.21l46.50 0.00v-3.20l-46.50 -0.00"/>
<use x="441.83" y="164.01" xlink:href="#hd"/>
<path d="M438.33 164.01v18.20" stroke="currentColor" fill="none"/>
<use x="457.13" y="155.01" xlink:href="#hd"/>
<path d="M453.63 155.01v27.20" stroke="currentColor" fill="none"/>
<use x="472.43" y="155.01" xlink:href="#hd"/>
<path d="M468.93 155.01v27.20" stroke="currentColor" fill="none"/>
<use x="487.73" y="158.01" xlink:href="#hd"/>
<path d="M484.23 158.01v24.20" stroke="currentColor" fill="none"/>
<use x="504.53" y="155.01" xlink:href="#hd"/>
<path d="M501.03 155.01v20.00" stroke="currentColor" fill="none"/>
<path fill="currentColor"
	d="M528.73 144.41l15.90 2.20v3.20l-15.90 -2.20"/>
<use x="525.53" y="164.01" xlink:href="#hd"/>
<path d="M529.03 164.01v-18.60" stroke="currentColor" fill="none"/>
<use x="540.83" y="167.01" xlink:href="#hd"/>
<path d="M544.33 167.01v-19.40" stroke="currentColor" fill="none"/>
<path fill="currentColor"
	d="M569.93 183.21l107.60 0.00v-3.20l-107.60 -0.00"/>
<use x="573.83" y="164.01" xlink:href="#hd"/>
<path d="M570.33 164.01v18.20" stroke="currentColor" fill="none"/>
<use x="589.03" y="155.01" xlink:href="#hd"/>
<path d="M585.53 155.01v27.20" stroke="currentColor" fill="none"/>
<use x="604.33" y="155.01" xlink:href="#hd"/>
<path d="M600.83 155.01v27.20" stroke="currentColor" fill="none"/>
<use x="619.63" y="158.01" xlink:href="#hd"/>
<path d="M616.13 158.01v24.20" stroke="currentColor" fill="none"/>
<use x="634.83" y="155.01" xlink:href="#hd"/>
<path d="M631.33 155.01v27.20" stroke="currentColor" fill="none"/>
<use x="650.13" y="149.01" xlink:href="#hd"/>
<path d="M646.63 149.01v33.20" stroke="currentColor" fill="none"/>
<use x="665.43" y="152.01" xlink:href="#hd"/>
<path d="M661.93 152.01v30.20" stroke="currentColor" fill="none"/>
<use x="680.73" y="155.01" xlink:href="#hd"/>
<path d="M677.23 155.01v27.20" stroke="currentColor" fill="none"/>
<use x="63.83" y="146.01" xlink:href="#grm"/>
<use x="210.63" y="147.01" xlink:href="#grm"/>
<use x="70.33" y="249.01" xlink:href="#rdots"/>
<path stroke="currentColor" fill="none"
	d="M66.33 249.01v-24.00"/>
<path stroke="currentColor" fill="none" stroke-width="3"
	d="M61.83 249.01v-24.00"/>
<path stroke="currentColor" fill="none"
	d="M165.73 249.01v-24.00"/>
<path stroke="currentColor" fill="none"
	d="M273.53 249.01v-24.00"/>
<path stroke="currentColor" fill="none"
	d="M366.73 249.01v-24.00"/>
<path stroke="currentColor" fill="none" stroke-width="3"
	d="M482.33 249.01v-24.00"/>
<path stroke="currentColor" fill="none"
	d="M477.83 249.01v-24.00"/>
<use x="473.83" y="249.01" xlink:href="#rdots"/>
<path stroke="currentColor" fill="none"
	d="M591.63 249.01v-24.00"/>
<path stroke="currentColor" fill="none"
	d="M694.93 249.01v-24.00"/>
<path stroke="currentColor" fill="none"
	d="M691.93 249.01v-24.00"/>
<path stroke="currentColor" fill="none"
	d="M13.33 249.01h681.60m-681.60 -6h681.60m-681.60 -6h681.60m-681.60 -6h681.60m-681.60 -6h681.60"/>
<text x="277.53" y="209.41">1</text>
<path stroke="currentColor" fill="none"
	d="M273.53 198.01v20M273.53 198.01h202.40v20"/>
<text x="487.83" y="209.41">2</text>
<path stroke="currentColor" fill="none"
	d="M483.83 198.01v20M483.83 198.01h211.10v20"/>
<use x="25.33" y="249.01" xlink:href="#tclef"/>
<use x="40.33" y="225.01" xlink:href="#sh0"/>
<use x="45.83" y="234.01" xlink:href="#sh0"/>
<defs>
<path id="hl" stroke="currentColor" d="m-6 0h12"/>
</defs>
<use x="83.83" y="219.01" xlink:href="#hl"/>
<use x="83.83" y="219.01" xlink:href="#hd"/>
<circle fill="currentColor" cx="91.83" cy="216.01" r="1.2"/>
<path d="M80.33 219.01v20.00" stroke="currentColor" fill="none"/>
<path fill="currentColor"
	d="M102.13 246.21l49.20 5.40v-3.20l-49.20 -5.40"/>
<use x="105.93" y="219.01" xlink:href="#hl"/>
<use x="105.93" y="216.01" xlink:href="#hd"/>
<path d="M102.43 216.01v29.20" stroke="currentColor" fill="none"/>
<use x="118.43" y="219.01" xlink:href="#hl"/>
<use x="118.43" y="219.01" xlink:href="#hd"/>
<path d="M114.93 219.01v27.60" stroke="currentColor" fill="none"/>
<use x="130.43" y="225.01" xlink:href="#hd"/>
<path d="M126.93 225.01v22.90" stroke="currentColor" fill="none"/>
<use x="142.53" y="231.01" xlink:href="#hd"/>
<path d="M139.03 231.01v18.20" stroke="currentColor" fill="none"/>
<use x="154.53" y="225.01" xlink:href="#hd"/>
<path d="M151.03 225.01v25.50" stroke="currentColor" fill="none"/>
<path fill="currentColor"
	d="M174.33 249.21l84.80 0.00v-3.20l-84.80 -0.00"/>
<use x="178.23" y="219.01" xlink:href="#hl"/>
<use x="178.23" y="219.01" xlink:href="#hd"/>
<path d="M174.73 219.01v29.20" stroke="currentColor" fill="none"/>
<use x="190.23" y="222.01" xlink:href="#hd"/>
<path d="M186.73 222.01v26.20" stroke="currentColor" fill="none"/>
<use x="202.23" y="219.01" xlink:href="#hl"/>
<use x="202.23" y="216.01" xlink:href="#hd"/>
<path d="M198.73 216.01v32.20" stroke="currentColor" fill="none"/>
<use x="214.23" y="222.01" xlink:href="#hd"/>
<path d="M210.73 222.01v26.20" stroke="currentColor" fill="none"/>
<use x="226.23" y="225.01" xlink:href="#hd"/>
<path d="M222.73 225.01v23.20" stroke="currentColor" fill="none"/>
<use x="238.23" y="231.01" xlink:href="#hd"/>
<path d="M234.73 231.01v17.20" stroke="currentColor" fill="none"/>
<use x="250.33" y="231.01" xlink:href="#hd"/>
<path d="M246.83 231.01v17.20" stroke="currentColor" fill="none"/>
<use x="262.33" y="225.01" xlink:href="#hd"/>
<path d="M258.83 225.01v23.20" stroke="currentColor" fill="none"/>
<use x="286.03" y="219.01" xlink:href="#hl"/>
<use x="286.03" y="219.01" xlink:href="#hd"/>
<path d="M282.53 219.01v20.00" stroke="currentColor" fill="none"/>
<path fill="currentColor"
	d="M299.33 246.01l36.70 0.00v-3.20l-36.70 -0.00"/>
<use x="303.13" y="228.01" xlink:href="#hd"/>
<path d="M299.63 228.01v17.00" stroke="currentColor" fill="none"/>
<use x="315.23" y="222.01" xlink:href="#hd"/>
<path d="M311.73 222.01v23.00" stroke="currentColor" fill="none"/>
<use x="327.23" y="219.01" xlink:href="#hl"/>
<use x="327.23" y="219.01" xlink:href="#hd"/>
<path d="M323.73 219.01v26.00" stroke="currentColor" fill="none"/>
<use x="339.23" y="225.01" xlink:href="#hd"/>
<path d="M335.73 225.01v20.00" stroke="currentColor" fill="none"/>
<use x="352.23" y="225.01" xlink:href="#hd"/>
<path d="M348.73 225.01v20.00" stroke="currentColor" fill="none"/>
<path fill="currentColor"
	d="M382.43 208.81l84.80 0.00v3.20l-84.80 -0.00"/>
<use x="379.23" y="228.01" xlink:href="#hd"/>
<path d="M382.73 228.01v-18.20" stroke="currentColor" fill="none"/>
<use x="391.23" y="237.01" xlink:href="#hd"/>
<path d="M394.73 237.01v-27.20" stroke="currentColor" fill="none"/>
<use x="403.23" y="231.01" xlink:href="#hd"/>
<path d="M406.73 231.01v-21.20" stroke="currentColor" fill="none"/>
<use x="415.33" y="237.01" xlink:href="#hd"/>
<path d="M418.83 237.01v-27.20" stroke="currentColor" fill="none"/>
<use x="427.33" y="240.01" xlink:href="#hd"/>
<path d="M430.83 240.01v-30.20" stroke="currentColor" fill="none"/>
<use x="439.33" y="243.01" xlink:href="#hd"/>
<path d="M442.83 243.01v-33.20" stroke="currentColor" fill="none"/>
<use x="451.33" y="246.01" xlink:href="#hd"/>
<path d="M454.83 246.01v-36.20" stroke="currentColor" fill="none"/>
<use x="463.33" y="243.01" xlink:href="#hd"/>
<path d="M466.83 243.01v-33.20" stroke="currentColor" fill="none"/>
<path fill="currentColor"
	d="M492.53 256.21l84.80 0.00v-3.20l-84.80 -0.00"/>
<use x="496.33" y="231.01" xlink:href="#hd"/>
<path d="M492.83 231.01v24.20" stroke="currentColor" fill="none"/>
<use x="508.33" y="228.01" xlink:href="#hd"/>
<path d="M504.83 228.01v27.20" stroke="currentColor" fill="none"/>
<use x="520.43" y="231.01" xlink:href="#hd"/>
<path d="M516.93 231.01v24.20" stroke="currentColor" fill="none"/>
<use x="532.43" y="234.01" xlink:href="#hd"/>
<path d="M528.93 234.01v21.20" stroke="currentColor" fill="none"/>
<use x="544.43" y="237.01" xlink:href="#hd"/>
<path d="M540.93 237.01v18.20" stroke="currentColor" fill="none"/>
<use x="556.43" y="234.01" xlink:href="#hd"/>
<path d="M552.93 234.01v21.20" stroke="currentColor" fill="none"/>
<use x="568.43" y="231.01" xlink:href="#hd"/>
<path d="M564.93 231.01v24.20" stroke="currentColor" fill="none"/>
<use x="580.53" y="228.01" xlink:href="#hd"/>
<path d="M577.03 228.01v27.20" stroke="currentColor" fill="none"/>
<path fill="currentColor"
	d="M600.33 259.21l36.70 0.00v-3.20l-36.70 -0.00"/>
<use x="604.13" y="231.01" xlink:href="#hd"/>
<path d="M600.63 231.01v27.20" stroke="currentColor" fill="none"/>
<use x="616.13" y="237.01" xlink:href="#hd"/>
<path d="M612.63 237.01v21.20" stroke="currentColor" fill="none"/>
<use x="628.23" y="234.01" xlink:href="#hd"/>
<path d="M624.73 234.01v24.20" stroke="currentColor" fill="none"/>
<use x="640.23" y="240.01" xlink:href="#hd"/>
<path d="M636.73 240.01v18.20" stroke="currentColor" fill="none"/>
<use x="653.23" y="231.01" xlink:href="#hd"/>
<path d="M649.73 231.01v20.00" stroke="currentColor" fill="none"/>
<path fill="currentColor"
	d="M666.53 256.11l12.70 3.20v-3.20l-12.70 -3.20"/>
<use x="670.43" y="234.01" xlink:href="#hd"/>
<path d="M666.93 234.01v21.20" stroke="currentColor" fill="none"/>
<use x="682.43" y="240.01" xlink:href="#hd"/>
<path d="M678.93 240.01v18.20" stroke="currentColor" fill="none"/>
<use x="83.83" y="213.01" xlink:href="#grm"/>
<use x="352.23" y="219.01" xlink:href="#grm"/>
</g>
</svg>
