<?xml version="1.0" standalone="no"?>
<!DOCTYPE svg PUBLIC "-//W3C//DTD SVG 1.1//EN"
	"http://www.w3.org/Graphics/SVG/1.1/DTD/svg11.dtd">
<svg xmlns="http://www.w3.org/2000/svg" version="1.1"
	xmlns:xlink="http://www.w3.org/1999/xlink"
	xml:space='preserve' color="black"
	width="7.38in" height="2.77in" viewBox="0 0 531 200">
<title>data/results/biggest_11/abc/23.abc (23) tune 1</title>
<!-- Creator: abcm2ps-7.8.14 -->
<!-- CreationDate: Aug  9, 2015 23:50 -->
<!-- CommandLine: -g data/results/biggest_11/abc/23.abc -O /home/allanino/Dropbox/Trabalhos/folkme/svg/23.svg -->
<g transform="scale(0.750)" stroke-width="0.70" font-family="Times" font-size="20.00">
<text x="354.13" y="21.67" text-anchor="middle">The Midf way Bray</text>
<path stroke="currentColor" fill="none"
	d="M234.63 98.01v-24.00"/>
<path stroke="currentColor" fill="none"
	d="M410.03 98.01v-24.00"/>
<path stroke="currentColor" fill="none"
	d="M552.53 98.01v-24.00"/>
<path stroke="currentColor" fill="none"
	d="M694.93 98.01v-24.00"/>
<path stroke="currentColor" fill="none"
	d="M13.33 98.01h681.60m-681.60 -6h681.60m-681.60 -6h681.60m-681.60 -6h681.60m-681.60 -6h681.60"/>
<defs>
<path id="utclef" fill="currentColor" d="m-50 -90
	c-72 -41 -72 -158 52 -188
	c150 -10 220 188 90 256
	c-114 52 -275 0 -293 -136
	c-15 -181 93 -229 220 -334
	c88 -87 79 -133 62 -210
	c-51 33 -94 105 -89 186
	c17 267 36 374 49 574
	c6 96 -19 134 -77 135
	c-80 1 -126 -93 -61 -133
	c85 -41 133 101 31 105
	c23 17 92 37 90 -92
	c-10 -223 -39 -342 -50 -617
	c0 -90 0 -162 96 -232
	c56 72 63 230 22 289
	c-74 106 -257 168 -255 316
	c9 153 148 185 252 133
	c86 -65 29 -192 -80 -176
	c-71 12 -105 67 -59 124"/>
<use id="tclef" transform="scale(0.045)"
	xlink:href="#utclef"/>
</defs>
<use x="25.33" y="98.01" xlink:href="#tclef"/>
<defs>
<path id="usharp" fill="currentColor" d="
	m136 -702
	v890
	h32
	v-890
	m128 840
	h32
	v-888
	h-32
	m-232 286
	v116
	l338 -96
	v-116
	m-338 442
	v116
	l338 -98
	v-114"/>
<use id="sh0" transform="translate(-4,5) scale(0.018)"
	xlink:href="#usharp"/>
</defs>
<use x="40.33" y="74.01" xlink:href="#sh0"/>
<g font-family="serif" font-size="16" font-weight="bold" font-style="normal"
	transform="translate(56.33,98.01) scale(1.2,1)">
	<text y="-1" text-anchor="middle">8</text>
	<text y="-13" text-anchor="middle">6</text>
</g>
<path fill="currentColor"
	d="M77.53 66.81l136.80 0.00v3.20l-136.80 -0.00"/>
<defs>
<ellipse id="hd" rx="4.1" ry="2.9"
	transform="rotate(-20)" fill="currentColor"/>
</defs>
<use x="74.33" y="89.01" xlink:href="#hd"/>
<path d="M77.83 89.01v-21.20" stroke="currentColor" fill="none"/>
<use x="101.53" y="86.01" xlink:href="#hd"/>
<path d="M105.03 86.01v-18.20" stroke="currentColor" fill="none"/>
<use x="128.73" y="92.01" xlink:href="#hd"/>
<path d="M132.23 92.01v-24.20" stroke="currentColor" fill="none"/>
<use x="156.03" y="98.01" xlink:href="#hd"/>
<path d="M159.53 98.01v-30.20" stroke="currentColor" fill="none"/>
<use x="183.23" y="89.01" xlink:href="#hd"/>
<path d="M186.73 89.01v-21.20" stroke="currentColor" fill="none"/>
<use x="210.43" y="92.01" xlink:href="#hd"/>
<path d="M213.93 92.01v-24.20" stroke="currentColor" fill="none"/>
<path fill="currentColor"
	d="M252.93 68.41l136.80 -7.60v3.20l-136.80 7.60"/>
<use x="249.73" y="98.01" xlink:href="#hd"/>
<path d="M253.23 98.01v-28.70" stroke="currentColor" fill="none"/>
<use x="277.03" y="89.01" xlink:href="#hd"/>
<path d="M280.53 89.01v-21.20" stroke="currentColor" fill="none"/>
<use x="304.23" y="89.01" xlink:href="#hd"/>
<path d="M307.73 89.01v-22.70" stroke="currentColor" fill="none"/>
<use x="331.43" y="89.01" xlink:href="#hd"/>
<path d="M334.93 89.01v-24.20" stroke="currentColor" fill="none"/>
<use x="358.63" y="86.01" xlink:href="#hd"/>
<path d="M362.13 86.01v-22.70" stroke="currentColor" fill="none"/>
<use x="385.83" y="80.01" xlink:href="#hd"/>
<path d="M389.33 80.01v-18.20" stroke="currentColor" fill="none"/>
<use x="425.23" y="77.01" xlink:href="#hd"/>
<circle fill="currentColor" cx="433.23" cy="77.01" r="1.2"/>
<path d="M421.73 77.01v20.00" stroke="currentColor" fill="none"/>
<path fill="currentColor"
	d="M470.03 100.71l55.10 4.60v-3.20l-55.10 -4.60"/>
<use x="473.83" y="77.01" xlink:href="#hd"/>
<path d="M470.33 77.01v22.70" stroke="currentColor" fill="none"/>
<use x="501.03" y="80.01" xlink:href="#hd"/>
<path d="M497.53 80.01v21.90" stroke="currentColor" fill="none"/>
<use x="528.33" y="86.01" xlink:href="#hd"/>
<path d="M524.83 86.01v18.20" stroke="currentColor" fill="none"/>
<use x="567.63" y="89.01" xlink:href="#hd"/>
<circle fill="currentColor" cx="575.63" cy="89.01" r="1.2"/>
<path d="M571.13 89.01v-20.00" stroke="currentColor" fill="none"/>
<path fill="currentColor"
	d="M619.43 74.31l55.10 -4.60v3.20l-55.10 4.60"/>
<use x="616.33" y="98.01" xlink:href="#hd"/>
<path d="M619.83 98.01v-22.70" stroke="currentColor" fill="none"/>
<use x="643.53" y="92.01" xlink:href="#hd"/>
<path d="M647.03 92.01v-18.90" stroke="currentColor" fill="none"/>
<use x="670.73" y="89.01" xlink:href="#hd"/>
<path d="M674.23 89.01v-18.20" stroke="currentColor" fill="none"/>
<defs>
<path id="grm" fill="currentColor" d="
	m-5 -2.5
	c5 -8.5 5.5 4.5 10 -2
	c-5 8.5 -5.5 -4.5 -10 2"/>
</defs>
<use x="425.23" y="71.01" xlink:href="#grm"/>
<use x="567.63" y="65.01" xlink:href="#grm"/>
<path stroke="currentColor" fill="none"
	d="M175.93 173.01v-24.00"/>
<path stroke="currentColor" fill="none"
	d="M305.93 173.01v-24.00"/>
<path stroke="currentColor" fill="none"
	d="M436.03 173.01v-24.00"/>
<path stroke="currentColor" fill="none" stroke-width="3"
	d="M569.73 173.01v-24.00"/>
<path stroke="currentColor" fill="none"
	d="M565.23 173.01v-24.00"/>
<defs>
<g id="rdots" fill="currentColor">
	<circle cx="0" cy="-9" r="1.2"/>
	<circle cx="0" cy="-15" r="1.2"/>
</g>
</defs>
<use x="561.23" y="173.01" xlink:href="#rdots"/>
<path stroke="currentColor" fill="none"
	d="M694.93 173.01v-24.00"/>
<path stroke="currentColor" fill="none"
	d="M691.93 173.01v-24.00"/>
<path stroke="currentColor" fill="none"
	d="M13.33 173.01h681.60m-681.60 -6h681.60m-681.60 -6h681.60m-681.60 -6h681.60m-681.60 -6h681.60"/>
</g>
<g transform="scale(0.750)" stroke-width="0.70" font-family="Times" font-size="13.00">
<text x="440.03" y="134.41">1</text>
<path stroke="currentColor" fill="none"
	d="M436.03 123.01v20M436.03 123.01h127.30v20"/>
<text x="575.23" y="134.41">2</text>
<path stroke="currentColor" fill="none"
	d="M571.23 123.01v20M571.23 123.01h123.70v20"/>
<use x="25.33" y="173.01" xlink:href="#tclef"/>
<use x="40.33" y="149.01" xlink:href="#sh0"/>
<path fill="currentColor"
	d="M61.53 141.81l100.40 0.00v3.20l-100.40 -0.00"/>
<use x="58.33" y="161.01" xlink:href="#hd"/>
<path d="M61.83 161.01v-18.20" stroke="currentColor" fill="none"/>
<use x="78.23" y="164.01" xlink:href="#hd"/>
<path d="M81.73 164.01v-21.20" stroke="currentColor" fill="none"/>
<use x="98.23" y="167.01" xlink:href="#hd"/>
<path d="M101.73 167.01v-24.20" stroke="currentColor" fill="none"/>
<use x="118.13" y="164.01" xlink:href="#hd"/>
<path d="M121.63 164.01v-21.20" stroke="currentColor" fill="none"/>
<use x="138.13" y="167.01" xlink:href="#hd"/>
<path d="M141.63 167.01v-24.20" stroke="currentColor" fill="none"/>
<use x="158.03" y="173.01" xlink:href="#hd"/>
<path d="M161.53 173.01v-30.20" stroke="currentColor" fill="none"/>
<path fill="currentColor"
	d="M191.53 148.81l100.40 0.00v3.20l-100.40 -0.00"/>
<use x="188.43" y="167.01" xlink:href="#hd"/>
<path d="M191.93 167.01v-17.20" stroke="currentColor" fill="none"/>
<use x="208.33" y="173.01" xlink:href="#hd"/>
<path d="M211.83 173.01v-23.20" stroke="currentColor" fill="none"/>
<use x="228.23" y="176.01" xlink:href="#hd"/>
<path d="M231.73 176.01v-26.20" stroke="currentColor" fill="none"/>
<use x="248.23" y="173.01" xlink:href="#hd"/>
<path d="M251.73 173.01v-23.20" stroke="currentColor" fill="none"/>
<use x="268.13" y="176.01" xlink:href="#hd"/>
<path d="M271.63 176.01v-26.20" stroke="currentColor" fill="none"/>
<use x="288.13" y="176.01" xlink:href="#hd"/>
<path d="M291.63 176.01v-26.20" stroke="currentColor" fill="none"/>
<path fill="currentColor"
	d="M321.63 141.81l100.40 0.00v3.20l-100.40 -0.00"/>
<use x="318.43" y="173.01" xlink:href="#hd"/>
<path d="M321.93 173.01v-30.20" stroke="currentColor" fill="none"/>
<use x="338.43" y="161.01" xlink:href="#hd"/>
<path d="M341.93 161.01v-18.20" stroke="currentColor" fill="none"/>
<use x="358.33" y="164.01" xlink:href="#hd"/>
<path d="M361.83 164.01v-21.20" stroke="currentColor" fill="none"/>
<use x="378.23" y="167.01" xlink:href="#hd"/>
<path d="M381.73 167.01v-24.20" stroke="currentColor" fill="none"/>
<use x="398.23" y="173.01" xlink:href="#hd"/>
<path d="M401.73 173.01v-30.20" stroke="currentColor" fill="none"/>
<use x="418.13" y="173.01" xlink:href="#hd"/>
<path d="M421.63 173.01v-30.20" stroke="currentColor" fill="none"/>
<use x="448.53" y="164.01" xlink:href="#hd"/>
<path d="M452.03 164.01v-20.00" stroke="currentColor" fill="none"/>
<path fill="currentColor"
	d="	M452.03 144.01c0.6 5.6 9.6 9 5.6 18.4
	c1.6 -6 -1.3 -11.6 -5.6 -12.8
"/>
<path fill="currentColor"
	d="M474.13 141.81l80.50 0.00v3.20l-80.50 -0.00"/>
<use x="470.93" y="167.01" xlink:href="#hd"/>
<path d="M474.43 167.01v-24.20" stroke="currentColor" fill="none"/>
<use x="490.93" y="164.01" xlink:href="#hd"/>
<path d="M494.43 164.01v-21.20" stroke="currentColor" fill="none"/>
<use x="510.83" y="161.01" xlink:href="#hd"/>
<path d="M514.33 161.01v-18.20" stroke="currentColor" fill="none"/>
<use x="530.83" y="167.01" xlink:href="#hd"/>
<path d="M534.33 167.01v-24.20" stroke="currentColor" fill="none"/>
<use x="550.73" y="173.01" xlink:href="#hd"/>
<path d="M554.23 173.01v-30.20" stroke="currentColor" fill="none"/>
<path fill="currentColor"
	d="M586.93 144.81l40.60 4.30v3.20l-40.60 -4.30"/>
<use x="583.73" y="164.01" xlink:href="#hd"/>
<path d="M587.23 164.01v-18.20" stroke="currentColor" fill="none"/>
<use x="603.73" y="167.01" xlink:href="#hd"/>
<path d="M607.23 167.01v-19.10" stroke="currentColor" fill="none"/>
<use x="623.63" y="173.01" xlink:href="#hd"/>
<path d="M627.13 173.01v-23.00" stroke="currentColor" fill="none"/>
<use x="645.73" y="173.01" xlink:href="#hd"/>
<path d="M649.23 173.01v-20.00" stroke="currentColor" fill="none"/>
<use x="676.93" y="158.01" xlink:href="#hd"/>
<path d="M673.43 158.01v20.00" stroke="currentColor" fill="none"/>
<path fill="currentColor"
	d="M673.43 178.01c0.6 -5.6 9.6 -9 5.6 -18.4
	c1.6 6 -1.3 11.6 -5.6 12.8
"/>
<use x="64.83" y="243.01" xlink:href="#rdots"/>
<path stroke="currentColor" fill="none"
	d="M60.83 243.01v-24.00"/>
<path stroke="currentColor" fill="none" stroke-width="3"
	d="M56.33 243.01v-24.00"/>
<path stroke="currentColor" fill="none"
	d="M141.33 243.01v-24.00"/>
<path stroke="currentColor" fill="none"
	d="M223.03 243.01v-24.00"/>
<path stroke="currentColor" fill="none"
	d="M304.63 243.01v-24.00"/>
<path stroke="currentColor" fill="none"
	d="M372.43 243.01v-24.00"/>
<path stroke="currentColor" fill="none"
	d="M454.13 243.01v-24.00"/>
<path stroke="currentColor" fill="none"
	d="M520.73 243.01v-24.00"/>
<path stroke="currentColor" fill="none"
	d="M602.43 243.01v-24.00"/>
<path stroke="currentColor" fill="none" stroke-width="3"
	d="M693.43 243.01v-24.00"/>
<path stroke="currentColor" fill="none"
	d="M688.93 243.01v-24.00"/>
<use x="684.93" y="243.01" xlink:href="#rdots"/>
<path stroke="currentColor" fill="none"
	d="M13.33 243.01h681.60m-681.60 -6h681.60m-681.60 -6h681.60m-681.60 -6h681.60m-681.60 -6h681.60"/>
<use x="25.33" y="243.01" xlink:href="#tclef"/>
<use x="40.33" y="219.01" xlink:href="#sh0"/>
<path fill="currentColor"
	d="M74.53 250.21l24.00 0.00v-3.20l-24.00 -0.00"/>
<use x="78.33" y="225.01" xlink:href="#hd"/>
<path d="M74.83 225.01v24.20" stroke="currentColor" fill="none"/>
<use x="89.93" y="231.01" xlink:href="#hd"/>
<path d="M86.43 231.01v18.20" stroke="currentColor" fill="none"/>
<use x="101.63" y="225.01" xlink:href="#hd"/>
<path d="M98.13 225.01v24.20" stroke="currentColor" fill="none"/>
<use x="114.13" y="222.01" xlink:href="#hd"/>
<path d="M110.63 222.01v20.00" stroke="currentColor" fill="none"/>
<use x="130.33" y="225.01" xlink:href="#hd"/>
<path d="M126.83 225.01v20.00" stroke="currentColor" fill="none"/>
<path fill="currentColor"
	d="M126.83 245.01c0.6 -5.6 9.6 -9 5.6 -18.4
	c1.6 6 -1.3 11.6 -5.6 12.8
"/>
<path fill="currentColor"
	d="M149.93 256.21l58.90 0.00v-3.20l-58.90 -0.00"/>
<use x="153.83" y="225.01" xlink:href="#hd"/>
<path d="M150.33 225.01v30.20" stroke="currentColor" fill="none"/>
<use x="165.43" y="231.01" xlink:href="#hd"/>
<path d="M161.93 231.01v24.20" stroke="currentColor" fill="none"/>
<use x="177.13" y="237.01" xlink:href="#hd"/>
<path d="M173.63 237.01v18.20" stroke="currentColor" fill="none"/>
<use x="188.73" y="234.01" xlink:href="#hd"/>
<path d="M185.23 234.01v21.20" stroke="currentColor" fill="none"/>
<use x="200.43" y="231.01" xlink:href="#hd"/>
<path d="M196.93 231.01v24.20" stroke="currentColor" fill="none"/>
<use x="212.03" y="228.01" xlink:href="#hd"/>
<path d="M208.53 228.01v27.20" stroke="currentColor" fill="none"/>
<path fill="currentColor"
	d="M231.63 256.21l58.90 0.00v-3.20l-58.90 -0.00"/>
<use x="235.53" y="225.01" xlink:href="#hd"/>
<path d="M232.03 225.01v30.20" stroke="currentColor" fill="none"/>
<use x="247.13" y="231.01" xlink:href="#hd"/>
<path d="M243.63 231.01v24.20" stroke="currentColor" fill="none"/>
<use x="258.73" y="231.01" xlink:href="#hd"/>
<path d="M255.23 231.01v24.20" stroke="currentColor" fill="none"/>
<use x="270.43" y="237.01" xlink:href="#hd"/>
<path d="M266.93 237.01v18.20" stroke="currentColor" fill="none"/>
<use x="282.03" y="231.01" xlink:href="#hd"/>
<path d="M278.53 231.01v24.20" stroke="currentColor" fill="none"/>
<use x="293.73" y="225.01" xlink:href="#hd"/>
<path d="M290.23 225.01v30.20" stroke="currentColor" fill="none"/>
<use x="317.13" y="222.01" xlink:href="#hd"/>
<circle fill="currentColor" cx="325.13" cy="222.01" r="1.2"/>
<path d="M313.63 222.01v20.00" stroke="currentColor" fill="none"/>
<path fill="currentColor"
	d="M334.33 243.21l24.00 0.00v-3.20l-24.00 -0.00"/>
<use x="338.13" y="222.01" xlink:href="#hd"/>
<path d="M334.63 222.01v20.20" stroke="currentColor" fill="none"/>
<use x="349.83" y="225.01" xlink:href="#hd"/>
<path d="M346.33 225.01v17.20" stroke="currentColor" fill="none"/>
<use x="361.43" y="222.01" xlink:href="#hd"/>
<path d="M357.93 222.01v20.20" stroke="currentColor" fill="none"/>
<path fill="currentColor"
	d="M381.03 250.21l58.90 0.00v-3.20l-58.90 -0.00"/>
<use x="384.93" y="216.01" xlink:href="#hd"/>
<path d="M381.43 216.01v33.20" stroke="currentColor" fill="none"/>
<use x="396.53" y="225.01" xlink:href="#hd"/>
<path d="M393.03 225.01v24.20" stroke="currentColor" fill="none"/>
<use x="408.23" y="231.01" xlink:href="#hd"/>
<path d="M404.73 231.01v18.20" stroke="currentColor" fill="none"/>
<use x="419.83" y="222.01" xlink:href="#hd"/>
<path d="M416.33 222.01v27.20" stroke="currentColor" fill="none"/>
<use x="431.43" y="219.01" xlink:href="#hd"/>
<path d="M427.93 219.01v30.20" stroke="currentColor" fill="none"/>
<use x="443.13" y="216.01" xlink:href="#hd"/>
<path d="M439.63 216.01v33.20" stroke="currentColor" fill="none"/>
<path fill="currentColor"
	d="M462.73 237.51l24.00 3.80v-3.20l-24.00 -3.80"/>
<defs>
<path id="hl" stroke="currentColor" d="m-6 0h12"/>
</defs>
<use x="466.63" y="213.01" xlink:href="#hl"/>
<use x="466.63" y="213.01" xlink:href="#hd"/>
<path d="M463.13 213.01v23.50" stroke="currentColor" fill="none"/>
<use x="478.23" y="216.01" xlink:href="#hd"/>
<path d="M474.73 216.01v22.40" stroke="currentColor" fill="none"/>
<use x="489.83" y="222.01" xlink:href="#hd"/>
<path d="M486.33 222.01v18.20" stroke="currentColor" fill="none"/>
<use x="502.43" y="216.01" xlink:href="#hd"/>
<circle fill="currentColor" cx="510.43" cy="216.01" r="1.2"/>
<path d="M498.93 216.01v20.00" stroke="currentColor" fill="none"/>
<path fill="currentColor"
	d="M529.43 256.21l58.90 0.00v-3.20l-58.90 -0.00"/>
<use x="533.23" y="222.01" xlink:href="#hd"/>
<path d="M529.73 222.01v33.20" stroke="currentColor" fill="none"/>
<use x="544.83" y="225.01" xlink:href="#hd"/>
<path d="M541.33 225.01v30.20" stroke="currentColor" fill="none"/>
<use x="556.53" y="231.01" xlink:href="#hd"/>
<path d="M553.03 231.01v24.20" stroke="currentColor" fill="none"/>
<use x="568.13" y="225.01" xlink:href="#hd"/>
<path d="M564.63 225.01v30.20" stroke="currentColor" fill="none"/>
<use x="579.83" y="231.01" xlink:href="#hd"/>
<path d="M576.33 231.01v24.20" stroke="currentColor" fill="none"/>
<use x="591.43" y="237.01" xlink:href="#hd"/>
<path d="M587.93 237.01v18.20" stroke="currentColor" fill="none"/>
<path fill="currentColor"
	d="M618.03 216.01l24.00 0.00v3.20l-24.00 -0.00"/>
<use x="614.93" y="243.01" xlink:href="#hd"/>
<path d="M618.43 243.01v-26.00" stroke="currentColor" fill="none"/>
<use x="626.53" y="234.01" xlink:href="#hd"/>
<path d="M630.03 234.01v-17.00" stroke="currentColor" fill="none"/>
<use x="638.23" y="240.01" xlink:href="#hd"/>
<path d="M641.73 240.01v-23.00" stroke="currentColor" fill="none"/>
<use x="650.73" y="237.01" xlink:href="#hd"/>
<path d="M654.23 237.01v-20.00" stroke="currentColor" fill="none"/>
<use x="666.93" y="234.01" xlink:href="#hd"/>
<path d="M670.43 234.01v-20.00" stroke="currentColor" fill="none"/>
<path fill="currentColor"
	d="	M670.43 214.01c0.6 5.6 9.6 9 5.6 18.4
	c1.6 -6 -1.3 -11.6 -5.6 -12.8
"/>
<use x="317.13" y="216.01" xlink:href="#grm"/>
<use x="502.43" y="210.01" xlink:href="#grm"/>
</g>
</svg>
