<?xml version="1.0" standalone="no"?>
<!DOCTYPE svg PUBLIC "-//W3C//DTD SVG 1.1//EN"
	"http://www.w3.org/Graphics/SVG/1.1/DTD/svg11.dtd">
<svg xmlns="http://www.w3.org/2000/svg" version="1.1"
	xmlns:xlink="http://www.w3.org/1999/xlink"
	xml:space='preserve' color="black"
	width="7.38in" height="1.52in" viewBox="0 0 531 109">
<title>data/results/biggest_11/abc/230.abc (230) tune 1</title>
<!-- Creator: abcm2ps-7.8.14 -->
<!-- CreationDate: Aug  9, 2015 23:50 -->
<!-- CommandLine: -g data/results/biggest_11/abc/230.abc -O /home/allanino/Dropbox/Trabalhos/folkme/svg/230.svg -->
<g transform="scale(0.750)" stroke-width="0.70" font-family="Times" font-size="20.00">
<text x="354.13" y="21.67" text-anchor="middle">Polka  FCBb</text>
</g>
<g transform="scale(0.750)" stroke-width="0.70" font-family="Times" font-size="16.00">
<text x="354.13" y="41.30" text-anchor="middle">Hanny Christen. Bd.IX Uri II, Schwyz, Unterwalden I S.22 (st111801) orig. F,Bb-Dur</text>
<path stroke="currentColor" fill="none"
	d="M136.63 122.84v-24.00"/>
<path stroke="currentColor" fill="none"
	d="M211.53 122.84v-24.00"/>
<path stroke="currentColor" fill="none"
	d="M279.73 122.84v-24.00"/>
<path stroke="currentColor" fill="none"
	d="M370.83 122.84v-24.00"/>
<path stroke="currentColor" fill="none"
	d="M445.73 122.84v-24.00"/>
<path stroke="currentColor" fill="none"
	d="M543.43 122.84v-24.00"/>
<path stroke="currentColor" fill="none"
	d="M619.63 122.84v-24.00"/>
<path stroke="currentColor" fill="none" stroke-width="3"
	d="M693.43 122.84v-24.00"/>
<path stroke="currentColor" fill="none"
	d="M688.93 122.84v-24.00"/>
<defs>
<g id="rdots" fill="currentColor">
	<circle cx="0" cy="-9" r="1.2"/>
	<circle cx="0" cy="-15" r="1.2"/>
</g>
</defs>
<use x="684.93" y="122.84" xlink:href="#rdots"/>
<path stroke="currentColor" fill="none"
	d="M13.33 122.84h681.60m-681.60 -6h681.60m-681.60 -6h681.60m-681.60 -6h681.60m-681.60 -6h681.60"/>
</g>
<g transform="scale(0.750)" stroke-width="0.70" font-family="Helvetica" font-size="12.00">
<text x="71.43" y="81.44">F</text>
<text x="143.03" y="81.44">C7</text>
<text x="289.33" y="81.44">F</text>
<text x="452.33" y="81.44">B♭</text>
<text x="549.73" y="81.44">C7</text>
<text x="629.13" y="81.44">F</text>
<text x="666.43" y="136.44">fink</text>
<defs>
<path id="utclef" fill="currentColor" d="m-50 -90
	c-72 -41 -72 -158 52 -188
	c150 -10 220 188 90 256
	c-114 52 -275 0 -293 -136
	c-15 -181 93 -229 220 -334
	c88 -87 79 -133 62 -210
	c-51 33 -94 105 -89 186
	c17 267 36 374 49 574
	c6 96 -19 134 -77 135
	c-80 1 -126 -93 -61 -133
	c85 -41 133 101 31 105
	c23 17 92 37 90 -92
	c-10 -223 -39 -342 -50 -617
	c0 -90 0 -162 96 -232
	c56 72 63 230 22 289
	c-74 106 -257 168 -255 316
	c9 153 148 185 252 133
	c86 -65 29 -192 -80 -176
	c-71 12 -105 67 -59 124"/>
<use id="tclef" transform="scale(0.045)"
	xlink:href="#utclef"/>
</defs>
<use x="25.33" y="122.84" xlink:href="#tclef"/>
<defs>
<path id="uflat" fill="currentColor" d="
	m100 -746
	h32
	v734
	l-32 4
	m32 -332
	c46 -72 152 -90 208 -20
	c100 110 -120 326 -208 348
	m0 -28
	c54 0 200 -206 130 -290
	c-50 -60 -130 -4 -130 34"/>
<use id="ft0" transform="translate(-3.5,3.5) scale(0.018)"
	xlink:href="#uflat"/>
</defs>
<use x="40.33" y="110.84" xlink:href="#ft0"/>
<g font-family="serif" font-size="16" font-weight="bold" font-style="normal"
	transform="translate(56.33,122.84) scale(1.2,1)">
	<text y="-1" text-anchor="middle">4</text>
	<text y="-13" text-anchor="middle">2</text>
</g>
<path fill="currentColor"
	d="M70.53 140.94l50.10 -6.70v-3.20l-50.10 6.70"/>
<path fill="currentColor"
	d="M98.73 132.14l10.80 -1.50v-3.20l-10.80 1.50"/>
<defs>
<ellipse id="hd" rx="4.1" ry="2.9"
	transform="rotate(-20)" fill="currentColor"/>
</defs>
<use x="74.33" y="113.84" xlink:href="#hd"/>
<path d="M70.83 113.84v26.10" stroke="currentColor" fill="none"/>
<use x="88.23" y="119.84" xlink:href="#hd"/>
<path d="M84.73 119.84v18.20" stroke="currentColor" fill="none"/>
<use x="102.23" y="113.84" xlink:href="#hd"/>
<path d="M98.73 113.84v22.30" stroke="currentColor" fill="none"/>
<use x="112.93" y="107.84" xlink:href="#hd"/>
<path d="M109.43 107.84v26.90" stroke="currentColor" fill="none"/>
<use x="123.73" y="98.84" xlink:href="#hd"/>
<path d="M120.23 98.84v34.40" stroke="currentColor" fill="none"/>
<path fill="currentColor"
	d="M145.33 125.44l50.10 6.00v-3.20l-50.10 -6.00"/>
<path fill="currentColor"
	d="M173.53 123.74l10.80 1.30v-3.20l-10.80 -1.30"/>
<use x="149.13" y="95.84" xlink:href="#hd"/>
<path d="M145.63 95.84v28.60" stroke="currentColor" fill="none"/>
<use x="163.13" y="107.84" xlink:href="#hd"/>
<path d="M159.63 107.84v18.30" stroke="currentColor" fill="none"/>
<use x="177.03" y="101.84" xlink:href="#hd"/>
<path d="M173.53 101.84v25.90" stroke="currentColor" fill="none"/>
<use x="187.83" y="107.84" xlink:href="#hd"/>
<path d="M184.33 107.84v21.20" stroke="currentColor" fill="none"/>
<use x="198.63" y="110.84" xlink:href="#hd"/>
<path d="M195.13 110.84v19.50" stroke="currentColor" fill="none"/>
<path fill="currentColor"
	d="M220.23 130.84l43.50 0.00v-3.20l-43.50 -0.00"/>
<path fill="currentColor"
	d="M232.63 125.84l6.00 0.00v-3.20l-6.00 -0.00"/>
<use x="224.03" y="101.84" xlink:href="#hd"/>
<circle fill="currentColor" cx="232.03" cy="101.84" r="1.2"/>
<path d="M220.53 101.84v28.00" stroke="currentColor" fill="none"/>
<use x="242.13" y="110.84" xlink:href="#hd"/>
<path d="M238.63 110.84v19.00" stroke="currentColor" fill="none"/>
<use x="252.93" y="107.84" xlink:href="#hd"/>
<path d="M249.43 107.84v22.00" stroke="currentColor" fill="none"/>
<use x="266.83" y="95.84" xlink:href="#hd"/>
<path d="M263.33 95.84v34.00" stroke="currentColor" fill="none"/>
<path fill="currentColor"
	d="M288.43 118.84l69.20 0.00v-3.20l-69.20 -0.00"/>
<path fill="currentColor"
	d="M288.73 113.84l18.00 0.00v-3.20l-18.00 -0.00"/>
<path fill="currentColor"
	d="M346.43 113.84l10.80 0.00v-3.20l-10.80 -0.00"/>
<defs>
<path id="hl" stroke="currentColor" d="m-6 0h12"/>
</defs>
<use x="292.23" y="92.84" xlink:href="#hl"/>
<use x="292.23" y="92.84" xlink:href="#hd"/>
<path d="M288.73 92.84v25.00" stroke="currentColor" fill="none"/>
<use x="310.23" y="95.84" xlink:href="#hd"/>
<defs>
<path id="usharp" fill="currentColor" d="
	m136 -702
	v890
	h32
	v-890
	m128 840
	h32
	v-888
	h-32
	m-232 286
	v116
	l338 -96
	v-116
	m-338 442
	v116
	l338 -98
	v-114"/>
<use id="sh0" transform="translate(-4,5) scale(0.018)"
	xlink:href="#usharp"/>
</defs>
<use x="301.23" y="95.84" xlink:href="#sh0"/>
<path d="M306.73 95.84v22.00" stroke="currentColor" fill="none"/>
<use x="321.03" y="92.84" xlink:href="#hl"/>
<use x="321.03" y="92.84" xlink:href="#hd"/>
<path d="M317.53 92.84v25.00" stroke="currentColor" fill="none"/>
<use x="335.53" y="92.84" xlink:href="#hl"/>
<use x="335.53" y="92.84" xlink:href="#hd"/>
<path d="M332.03 92.84v25.00" stroke="currentColor" fill="none"/>
<use x="349.93" y="92.84" xlink:href="#hl"/>
<use x="349.93" y="92.84" xlink:href="#hd"/>
<path d="M346.43 92.84v25.00" stroke="currentColor" fill="none"/>
<use x="360.73" y="95.84" xlink:href="#hd"/>
<path d="M357.23 95.84v22.00" stroke="currentColor" fill="none"/>
<path fill="currentColor"
	d="M379.53 120.64l50.10 6.70v-3.20l-50.10 -6.70"/>
<path fill="currentColor"
	d="M393.83 117.64l10.80 1.40v-3.20l-10.80 -1.40"/>
<use x="383.33" y="98.84" xlink:href="#hd"/>
<path d="M379.83 98.84v20.90" stroke="currentColor" fill="none"/>
<use x="397.33" y="98.84" xlink:href="#hd"/>
<path d="M393.83 98.84v22.80" stroke="currentColor" fill="none"/>
<use x="408.03" y="101.84" xlink:href="#hd"/>
<path d="M404.53 101.84v21.20" stroke="currentColor" fill="none"/>
<use x="418.83" y="104.84" xlink:href="#hd"/>
<path d="M415.33 104.84v19.60" stroke="currentColor" fill="none"/>
<use x="432.83" y="107.84" xlink:href="#hd"/>
<path d="M429.33 107.84v18.50" stroke="currentColor" fill="none"/>
<path fill="currentColor"
	d="M454.33 130.84l75.80 0.00v-3.20l-75.80 -0.00"/>
<path fill="currentColor"
	d="M454.73 125.84l39.60 0.00v-3.20l-39.60 -0.00"/>
<path fill="currentColor"
	d="M519.03 125.84l10.80 0.00v-3.20l-10.80 -0.00"/>
<use x="458.23" y="98.84" xlink:href="#hd"/>
<path d="M454.73 98.84v31.00" stroke="currentColor" fill="none"/>
<use x="469.03" y="101.84" xlink:href="#hd"/>
<path d="M465.53 101.84v28.00" stroke="currentColor" fill="none"/>
<use x="479.73" y="104.84" xlink:href="#hd"/>
<path d="M476.23 104.84v25.00" stroke="currentColor" fill="none"/>
<use x="497.73" y="107.84" xlink:href="#hd"/>
<use x="488.73" y="107.84" xlink:href="#sh0"/>
<path d="M494.23 107.84v22.00" stroke="currentColor" fill="none"/>
<use x="508.53" y="104.84" xlink:href="#hd"/>
<path d="M505.03 104.84v25.00" stroke="currentColor" fill="none"/>
<use x="522.53" y="95.84" xlink:href="#hd"/>
<path d="M519.03 95.84v34.00" stroke="currentColor" fill="none"/>
<use x="533.23" y="98.84" xlink:href="#hd"/>
<path d="M529.73 98.84v31.00" stroke="currentColor" fill="none"/>
<path fill="currentColor"
	d="M552.03 130.84l54.30 0.00v-3.20l-54.30 -0.00"/>
<path fill="currentColor"
	d="M566.33 125.84l10.80 0.00v-3.20l-10.80 -0.00"/>
<path fill="currentColor"
	d="M600.03 125.84l6.00 0.00v-3.20l-6.00 -0.00"/>
<use x="555.93" y="101.84" xlink:href="#hd"/>
<path d="M552.43 101.84v28.00" stroke="currentColor" fill="none"/>
<use x="569.83" y="104.84" xlink:href="#hd"/>
<path d="M566.33 104.84v25.00" stroke="currentColor" fill="none"/>
<use x="580.63" y="107.84" xlink:href="#hd"/>
<path d="M577.13 107.84v22.00" stroke="currentColor" fill="none"/>
<use x="591.43" y="92.84" xlink:href="#hl"/>
<use x="591.43" y="89.84" xlink:href="#hd"/>
<circle fill="currentColor" cx="599.43" cy="89.84" r="1.2"/>
<path d="M587.93 89.84v40.00" stroke="currentColor" fill="none"/>
<use x="609.53" y="104.84" xlink:href="#hd"/>
<path d="M606.03 104.84v25.00" stroke="currentColor" fill="none"/>
<path fill="currentColor"
	d="M628.23 127.14l29.10 -5.60v-3.20l-29.10 5.60"/>
<use x="632.13" y="107.84" xlink:href="#hd"/>
<path d="M628.63 107.84v18.20" stroke="currentColor" fill="none"/>
<use x="646.03" y="92.84" xlink:href="#hl"/>
<use x="646.03" y="92.84" xlink:href="#hd"/>
<path d="M642.53 92.84v30.50" stroke="currentColor" fill="none"/>
<use x="660.53" y="92.84" xlink:href="#hl"/>
<use x="660.53" y="92.84" xlink:href="#hd"/>
<path d="M657.03 92.84v27.70" stroke="currentColor" fill="none"/>
<defs>
<path id="r8e" fill="currentColor" d="m 0 0
	c-1.5 1.5 -2.4 2 -3.6 2
	c2.4 -2.8 -2.8 -4 -2.8 -1.2
	c0 2.7 4.3 2.4 5.9 0.6"/>
<g id="r8">
	<path d="m3.3 -4l-3.4 9.6" stroke="currentColor" fill="none"/>
	<use x="3.4" y="-4" xlink:href="#r8e"/>
</g>
</defs>
<use x="674.43" y="110.84" xlink:href="#r8"/>
</g>
</svg>
