<?xml version="1.0" standalone="no"?>
<!DOCTYPE svg PUBLIC "-//W3C//DTD SVG 1.1//EN"
	"http://www.w3.org/Graphics/SVG/1.1/DTD/svg11.dtd">
<svg xmlns="http://www.w3.org/2000/svg" version="1.1"
	xmlns:xlink="http://www.w3.org/1999/xlink"
	xml:space='preserve' color="black"
	width="7.38in" height="2.85in" viewBox="0 0 531 206">
<title>data/results/biggest_11/abc/233.abc (233) tune 1</title>
<!-- Creator: abcm2ps-7.8.14 -->
<!-- CreationDate: Aug  9, 2015 23:50 -->
<!-- CommandLine: -g data/results/biggest_11/abc/233.abc -O /home/allanino/Dropbox/Trabalhos/folkme/svg/233.svg -->
<g transform="scale(0.750)" stroke-width="0.70" font-family="Times" font-size="20.00">
<text x="354.13" y="21.67" text-anchor="middle">Schottisch FCBb chords  (align)</text>
<path stroke="currentColor" fill="none"
	d="M195.23 99.01v-24.00"/>
<path stroke="currentColor" fill="none"
	d="M330.33 99.01v-24.00"/>
<path stroke="currentColor" fill="none"
	d="M465.53 99.01v-24.00"/>
<path stroke="currentColor" fill="none"
	d="M559.83 99.01v-24.00"/>
<path stroke="currentColor" fill="none"
	d="M694.93 99.01v-24.00"/>
<path stroke="currentColor" fill="none"
	d="M13.33 99.01h681.60m-681.60 -6h681.60m-681.60 -6h681.60m-681.60 -6h681.60m-681.60 -6h681.60"/>
</g>
<g transform="scale(0.750)" stroke-width="0.70" font-family="Helvetica" font-size="12.00">
<text x="71.43" y="62.61">F</text>
<text x="473.53" y="62.61">C7</text>
<defs>
<path id="utclef" fill="currentColor" d="m-50 -90
	c-72 -41 -72 -158 52 -188
	c150 -10 220 188 90 256
	c-114 52 -275 0 -293 -136
	c-15 -181 93 -229 220 -334
	c88 -87 79 -133 62 -210
	c-51 33 -94 105 -89 186
	c17 267 36 374 49 574
	c6 96 -19 134 -77 135
	c-80 1 -126 -93 -61 -133
	c85 -41 133 101 31 105
	c23 17 92 37 90 -92
	c-10 -223 -39 -342 -50 -617
	c0 -90 0 -162 96 -232
	c56 72 63 230 22 289
	c-74 106 -257 168 -255 316
	c9 153 148 185 252 133
	c86 -65 29 -192 -80 -176
	c-71 12 -105 67 -59 124"/>
<use id="tclef" transform="scale(0.045)"
	xlink:href="#utclef"/>
</defs>
<use x="25.33" y="99.01" xlink:href="#tclef"/>
<defs>
<path id="uflat" fill="currentColor" d="
	m100 -746
	h32
	v734
	l-32 4
	m32 -332
	c46 -72 152 -90 208 -20
	c100 110 -120 326 -208 348
	m0 -28
	c54 0 200 -206 130 -290
	c-50 -60 -130 -4 -130 34"/>
<use id="ft0" transform="translate(-3.5,3.5) scale(0.018)"
	xlink:href="#uflat"/>
</defs>
<use x="40.33" y="87.01" xlink:href="#ft0"/>
<g font-family="serif" font-size="16" font-weight="bold" font-style="normal"
	transform="translate(56.33,99.01) scale(1.2,1)">
	<text y="-1" text-anchor="middle">4</text>
	<text y="-13" text-anchor="middle">2</text>
</g>
<path fill="currentColor"
	d="M70.53 112.21l98.80 0.00v-3.20l-98.80 -0.00"/>
<path fill="currentColor"
	d="M70.83 107.21l54.40 0.00v-3.20l-54.40 -0.00"/>
<defs>
<ellipse id="hd" rx="4.1" ry="2.9"
	transform="rotate(-20)" fill="currentColor"/>
</defs>
<use x="74.33" y="90.01" xlink:href="#hd"/>
<path d="M70.83 90.01v21.20" stroke="currentColor" fill="none"/>
<use x="92.43" y="87.01" xlink:href="#hd"/>
<path d="M88.93 87.01v24.20" stroke="currentColor" fill="none"/>
<use x="110.53" y="84.01" xlink:href="#hd"/>
<path d="M107.03 84.01v27.20" stroke="currentColor" fill="none"/>
<use x="128.73" y="81.01" xlink:href="#hd"/>
<path d="M125.23 81.01v30.20" stroke="currentColor" fill="none"/>
<use x="146.83" y="84.01" xlink:href="#hd"/>
<path d="M143.33 84.01v27.20" stroke="currentColor" fill="none"/>
<use x="172.43" y="90.01" xlink:href="#hd"/>
<path d="M168.93 90.01v21.20" stroke="currentColor" fill="none"/>
<path fill="currentColor"
	d="M205.63 112.21l98.80 0.00v-3.20l-98.80 -0.00"/>
<path fill="currentColor"
	d="M205.93 107.21l54.40 0.00v-3.20l-54.40 -0.00"/>
<use x="209.43" y="81.01" xlink:href="#hd"/>
<path d="M205.93 81.01v30.20" stroke="currentColor" fill="none"/>
<use x="227.63" y="81.01" xlink:href="#hd"/>
<path d="M224.13 81.01v30.20" stroke="currentColor" fill="none"/>
<use x="245.73" y="84.01" xlink:href="#hd"/>
<path d="M242.23 84.01v27.20" stroke="currentColor" fill="none"/>
<use x="263.83" y="90.01" xlink:href="#hd"/>
<path d="M260.33 90.01v21.20" stroke="currentColor" fill="none"/>
<use x="281.93" y="81.01" xlink:href="#hd"/>
<path d="M278.43 81.01v30.20" stroke="currentColor" fill="none"/>
<use x="307.53" y="84.01" xlink:href="#hd"/>
<path d="M304.03 84.01v27.20" stroke="currentColor" fill="none"/>
<path fill="currentColor"
	d="M340.73 112.21l98.80 -8.60v-3.20l-98.80 8.60"/>
<path fill="currentColor"
	d="M341.13 107.21l54.40 -4.70v-3.20l-54.40 4.70"/>
<use x="344.63" y="90.01" xlink:href="#hd"/>
<path d="M341.13 90.01v21.20" stroke="currentColor" fill="none"/>
<use x="362.73" y="84.01" xlink:href="#hd"/>
<path d="M359.23 84.01v25.60" stroke="currentColor" fill="none"/>
<use x="380.83" y="75.01" xlink:href="#hd"/>
<path d="M377.33 75.01v33.10" stroke="currentColor" fill="none"/>
<defs>
<path id="hl" stroke="currentColor" d="m-6 0h12"/>
</defs>
<use x="398.93" y="69.01" xlink:href="#hl"/>
<use x="398.93" y="69.01" xlink:href="#hd"/>
<path d="M395.43 69.01v37.50" stroke="currentColor" fill="none"/>
<use x="417.03" y="72.01" xlink:href="#hd"/>
<path d="M413.53 72.01v32.90" stroke="currentColor" fill="none"/>
<use x="442.73" y="75.01" xlink:href="#hd"/>
<path d="M439.23 75.01v27.70" stroke="currentColor" fill="none"/>
<use x="479.73" y="78.01" xlink:href="#hd"/>
<circle fill="currentColor" cx="487.73" cy="78.01" r="1.2"/>
<path d="M476.23 78.01v20.00" stroke="currentColor" fill="none"/>
<path fill="currentColor"
	d="M521.73 101.01l18.80 0.00v-3.20l-18.80 -0.00"/>
<path fill="currentColor"
	d="M522.03 96.01l18.10 0.00v-3.20l-18.10 -0.00"/>
<use x="525.53" y="81.01" xlink:href="#hd"/>
<path d="M522.03 81.01v19.00" stroke="currentColor" fill="none"/>
<use x="543.73" y="81.01" xlink:href="#hd"/>
<path d="M540.23 81.01v19.00" stroke="currentColor" fill="none"/>
<path fill="currentColor"
	d="M570.23 106.21l98.80 -9.40v-3.20l-98.80 9.40"/>
<path fill="currentColor"
	d="M570.53 101.21l54.40 -5.20v-3.20l-54.40 5.20"/>
<use x="574.03" y="84.01" xlink:href="#hd"/>
<path d="M570.53 84.01v21.20" stroke="currentColor" fill="none"/>
<use x="592.13" y="81.01" xlink:href="#hd"/>
<path d="M588.63 81.01v22.50" stroke="currentColor" fill="none"/>
<use x="610.23" y="78.01" xlink:href="#hd"/>
<path d="M606.73 78.01v23.80" stroke="currentColor" fill="none"/>
<use x="628.43" y="75.01" xlink:href="#hd"/>
<path d="M624.93 75.01v25.00" stroke="currentColor" fill="none"/>
<use x="646.53" y="72.01" xlink:href="#hd"/>
<path d="M643.03 72.01v26.30" stroke="currentColor" fill="none"/>
<use x="672.13" y="69.01" xlink:href="#hl"/>
<use x="672.13" y="63.01" xlink:href="#hl"/>
<use x="672.13" y="63.01" xlink:href="#hd"/>
<path d="M668.63 63.01v32.90" stroke="currentColor" fill="none"/>
<path stroke="currentColor" fill="none"
	d="M149.43 175.01v-24.00"/>
<path stroke="currentColor" fill="none"
	d="M261.93 175.01v-24.00"/>
<path stroke="currentColor" fill="none"
	d="M375.13 175.01v-24.00"/>
<path stroke="currentColor" fill="none"
	d="M478.83 175.01v-24.00"/>
<path stroke="currentColor" fill="none"
	d="M591.33 175.01v-24.00"/>
<path stroke="currentColor" fill="none"
	d="M694.93 175.01v-24.00"/>
<path stroke="currentColor" fill="none"
	d="M13.33 175.01h681.60m-681.60 -6h681.60m-681.60 -6h681.60m-681.60 -6h681.60m-681.60 -6h681.60"/>
<text x="55.43" y="133.61">F</text>
<text x="268.33" y="133.61">C7</text>
<text x="600.83" y="133.61">F</text>
<use x="25.33" y="175.01" xlink:href="#tclef"/>
<use x="40.33" y="163.01" xlink:href="#ft0"/>
<path fill="currentColor"
	d="M54.53 177.01l73.00 0.00v-3.20l-73.00 -0.00"/>
<path fill="currentColor"
	d="M97.03 172.01l15.00 0.00v-3.20l-15.00 -0.00"/>
<use x="58.33" y="145.01" xlink:href="#hl"/>
<use x="58.33" y="145.01" xlink:href="#hd"/>
<path d="M54.83 145.01v31.00" stroke="currentColor" fill="none"/>
<use x="79.43" y="151.01" xlink:href="#hd"/>
<path d="M75.93 151.01v25.00" stroke="currentColor" fill="none"/>
<use x="100.53" y="151.01" xlink:href="#hd"/>
<path d="M97.03 151.01v25.00" stroke="currentColor" fill="none"/>
<use x="115.63" y="154.01" xlink:href="#hd"/>
<path d="M112.13 154.01v22.00" stroke="currentColor" fill="none"/>
<use x="130.63" y="151.01" xlink:href="#hd"/>
<path d="M127.13 151.01v25.00" stroke="currentColor" fill="none"/>
<path fill="currentColor"
	d="M158.13 183.01l81.90 0.00v-3.20l-81.90 -0.00"/>
<path fill="currentColor"
	d="M158.43 178.01l45.10 0.00v-3.20l-45.10 -0.00"/>
<use x="161.93" y="160.01" xlink:href="#hd"/>
<path d="M158.43 160.01v22.00" stroke="currentColor" fill="none"/>
<use x="176.93" y="145.01" xlink:href="#hl"/>
<use x="176.93" y="145.01" xlink:href="#hd"/>
<path d="M173.43 145.01v37.00" stroke="currentColor" fill="none"/>
<use x="192.03" y="151.01" xlink:href="#hd"/>
<path d="M188.53 151.01v31.00" stroke="currentColor" fill="none"/>
<use x="207.03" y="145.01" xlink:href="#hl"/>
<use x="207.03" y="145.01" xlink:href="#hd"/>
<path d="M203.53 145.01v37.00" stroke="currentColor" fill="none"/>
<use x="222.03" y="160.01" xlink:href="#hd"/>
<path d="M218.53 160.01v22.00" stroke="currentColor" fill="none"/>
<use x="243.13" y="151.01" xlink:href="#hd"/>
<path d="M239.63 151.01v31.00" stroke="currentColor" fill="none"/>
<path fill="currentColor"
	d="M270.63 188.21l88.00 0.00v-3.20l-88.00 -0.00"/>
<path fill="currentColor"
	d="M313.23 183.21l45.10 0.00v-3.20l-45.10 -0.00"/>
<use x="274.43" y="154.01" xlink:href="#hd"/>
<path d="M270.93 154.01v33.20" stroke="currentColor" fill="none"/>
<use x="295.63" y="169.01" xlink:href="#hd"/>
<path d="M292.13 169.01v18.20" stroke="currentColor" fill="none"/>
<use x="316.73" y="148.01" xlink:href="#hd"/>
<path d="M313.23 148.01v39.20" stroke="currentColor" fill="none"/>
<use x="331.73" y="151.01" xlink:href="#hd"/>
<path d="M328.23 151.01v36.20" stroke="currentColor" fill="none"/>
<use x="346.73" y="154.01" xlink:href="#hd"/>
<path d="M343.23 154.01v33.20" stroke="currentColor" fill="none"/>
<use x="361.73" y="157.01" xlink:href="#hd"/>
<path d="M358.23 157.01v30.20" stroke="currentColor" fill="none"/>
<path fill="currentColor"
	d="M383.83 193.21l73.00 -6.80v-3.20l-73.00 6.80"/>
<path fill="currentColor"
	d="M405.33 186.21l15.00 -1.40v-3.20l-15.00 1.40"/>
<use x="387.63" y="160.01" xlink:href="#hd"/>
<path d="M384.13 160.01v32.20" stroke="currentColor" fill="none"/>
<use x="408.83" y="169.01" xlink:href="#hd"/>
<path d="M405.33 169.01v21.20" stroke="currentColor" fill="none"/>
<use x="423.83" y="160.01" xlink:href="#hd"/>
<path d="M420.33 160.01v28.80" stroke="currentColor" fill="none"/>
<use x="438.83" y="154.01" xlink:href="#hd"/>
<path d="M435.33 154.01v33.40" stroke="currentColor" fill="none"/>
<use x="459.93" y="151.01" xlink:href="#hd"/>
<path d="M456.43 151.01v34.50" stroke="currentColor" fill="none"/>
<path fill="currentColor"
	d="M487.43 177.01l81.90 0.00v-3.20l-81.90 -0.00"/>
<path fill="currentColor"
	d="M487.83 172.01l45.10 0.00v-3.20l-45.10 -0.00"/>
<use x="491.33" y="148.01" xlink:href="#hd"/>
<path d="M487.83 148.01v28.00" stroke="currentColor" fill="none"/>
<use x="506.33" y="151.01" xlink:href="#hd"/>
<path d="M502.83 151.01v25.00" stroke="currentColor" fill="none"/>
<use x="521.33" y="154.01" xlink:href="#hd"/>
<path d="M517.83 154.01v22.00" stroke="currentColor" fill="none"/>
<use x="536.33" y="157.01" xlink:href="#hd"/>
<path d="M532.83 157.01v19.00" stroke="currentColor" fill="none"/>
<use x="551.33" y="160.01" xlink:href="#hd"/>
<path d="M547.83 160.01v16.00" stroke="currentColor" fill="none"/>
<use x="572.53" y="145.01" xlink:href="#hl"/>
<use x="572.53" y="139.01" xlink:href="#hl"/>
<use x="572.53" y="139.01" xlink:href="#hd"/>
<path d="M569.03 139.01v37.00" stroke="currentColor" fill="none"/>
<path fill="currentColor"
	d="M599.93 175.21l73.00 0.00v-3.20l-73.00 -0.00"/>
<path fill="currentColor"
	d="M642.53 170.21l15.00 0.00v-3.20l-15.00 -0.00"/>
<use x="603.83" y="145.01" xlink:href="#hl"/>
<use x="603.83" y="145.01" xlink:href="#hd"/>
<path d="M600.33 145.01v29.20" stroke="currentColor" fill="none"/>
<use x="624.93" y="151.01" xlink:href="#hd"/>
<path d="M621.43 151.01v23.20" stroke="currentColor" fill="none"/>
<use x="646.03" y="148.01" xlink:href="#hd"/>
<path d="M642.53 148.01v26.20" stroke="currentColor" fill="none"/>
<use x="661.13" y="151.01" xlink:href="#hd"/>
<path d="M657.63 151.01v23.20" stroke="currentColor" fill="none"/>
<use x="676.13" y="154.01" xlink:href="#hd"/>
<path d="M672.63 154.01v20.20" stroke="currentColor" fill="none"/>
<path stroke="currentColor" fill="none"
	d="M191.43 251.01v-24.00"/>
<path stroke="currentColor" fill="none"
	d="M312.63 251.01v-24.00"/>
<path stroke="currentColor" fill="none"
	d="M422.53 251.01v-24.00"/>
<path stroke="currentColor" fill="none"
	d="M570.33 251.01v-24.00"/>
<path stroke="currentColor" fill="none" stroke-width="3"
	d="M693.43 251.01v-24.00"/>
<path stroke="currentColor" fill="none"
	d="M688.93 251.01v-24.00"/>
<defs>
<g id="rdots" fill="currentColor">
	<circle cx="0" cy="-9" r="1.2"/>
	<circle cx="0" cy="-15" r="1.2"/>
</g>
</defs>
<use x="684.93" y="251.01" xlink:href="#rdots"/>
<path stroke="currentColor" fill="none"
	d="M13.33 251.01h681.60m-681.60 -6h681.60m-681.60 -6h681.60m-681.60 -6h681.60m-681.60 -6h681.60"/>
<text x="52.73" y="209.61">F7</text>
<text x="320.13" y="209.61">Gm/B♭</text>
<text x="431.93" y="209.61">C7</text>
<text x="582.93" y="209.61">F</text>
<use x="25.33" y="251.01" xlink:href="#tclef"/>
<use x="40.33" y="239.01" xlink:href="#ft0"/>
<path fill="currentColor"
	d="M54.53 253.01l116.20 0.00v-3.20l-116.20 -0.00"/>
<path fill="currentColor"
	d="M110.93 248.01l59.40 0.00v-3.20l-59.40 -0.00"/>
<use x="58.33" y="227.01" xlink:href="#hd"/>
<path d="M54.83 227.01v25.00" stroke="currentColor" fill="none"/>
<use x="86.33" y="230.01" xlink:href="#hd"/>
<path d="M82.83 230.01v22.00" stroke="currentColor" fill="none"/>
<use x="114.43" y="230.01" xlink:href="#hd"/>
<path d="M110.93 230.01v22.00" stroke="currentColor" fill="none"/>
<use x="134.23" y="233.01" xlink:href="#hd"/>
<path d="M130.73 233.01v19.00" stroke="currentColor" fill="none"/>
<use x="154.03" y="230.01" xlink:href="#hd"/>
<path d="M150.53 230.01v22.00" stroke="currentColor" fill="none"/>
<use x="173.83" y="227.01" xlink:href="#hd"/>
<path d="M170.33 227.01v25.00" stroke="currentColor" fill="none"/>
<path fill="currentColor"
	d="M203.13 247.01l88.60 0.00v-3.20l-88.60 -0.00"/>
<path fill="currentColor"
	d="M285.43 242.01l6.00 0.00v-3.20l-6.00 -0.00"/>
<use x="207.03" y="221.01" xlink:href="#hl"/>
<use x="207.03" y="221.01" xlink:href="#hd"/>
<path d="M203.53 221.01v25.00" stroke="currentColor" fill="none"/>
<use x="235.03" y="227.01" xlink:href="#hd"/>
<path d="M231.53 227.01v19.00" stroke="currentColor" fill="none"/>
<use x="263.13" y="221.01" xlink:href="#hl"/>
<use x="263.13" y="218.01" xlink:href="#hd"/>
<circle fill="currentColor" cx="271.13" cy="218.01" r="1.2"/>
<path d="M259.63 218.01v28.00" stroke="currentColor" fill="none"/>
<use x="294.93" y="221.01" xlink:href="#hl"/>
<use x="294.93" y="221.01" xlink:href="#hd"/>
<path d="M291.43 221.01v25.00" stroke="currentColor" fill="none"/>
<path fill="currentColor"
	d="M324.33 245.21l28.70 0.00v-3.20l-28.70 -0.00"/>
<use x="328.13" y="224.01" xlink:href="#hd"/>
<path d="M324.63 224.01v20.20" stroke="currentColor" fill="none"/>
<use x="356.23" y="224.01" xlink:href="#hd"/>
<path d="M352.73 224.01v20.20" stroke="currentColor" fill="none"/>
<use x="387.33" y="230.01" xlink:href="#hd"/>
<path d="M383.83 230.01v20.00" stroke="currentColor" fill="none"/>
<path fill="currentColor"
	d="M434.33 253.01l108.00 0.00v-3.20l-108.00 -0.00"/>
<path fill="currentColor"
	d="M434.63 248.01l59.40 0.00v-3.20l-59.40 -0.00"/>
<use x="438.13" y="221.01" xlink:href="#hl"/>
<use x="438.13" y="221.01" xlink:href="#hd"/>
<path d="M434.63 221.01v31.00" stroke="currentColor" fill="none"/>
<use x="457.93" y="224.01" xlink:href="#hd"/>
<path d="M454.43 224.01v28.00" stroke="currentColor" fill="none"/>
<use x="477.73" y="227.01" xlink:href="#hd"/>
<path d="M474.23 227.01v25.00" stroke="currentColor" fill="none"/>
<use x="497.53" y="230.01" xlink:href="#hd"/>
<path d="M494.03 230.01v22.00" stroke="currentColor" fill="none"/>
<use x="517.43" y="221.01" xlink:href="#hl"/>
<use x="517.43" y="218.01" xlink:href="#hd"/>
<path d="M513.93 218.01v34.00" stroke="currentColor" fill="none"/>
<use x="545.43" y="221.01" xlink:href="#hl"/>
<use x="545.43" y="215.01" xlink:href="#hl"/>
<use x="545.43" y="215.01" xlink:href="#hd"/>
<path d="M541.93 215.01v37.00" stroke="currentColor" fill="none"/>
<path fill="currentColor"
	d="M582.03 245.21l56.70 0.00v-3.20l-56.70 -0.00"/>
<use x="585.93" y="227.01" xlink:href="#hd"/>
<path d="M582.43 227.01v17.20" stroke="currentColor" fill="none"/>
<use x="613.93" y="221.01" xlink:href="#hl"/>
<use x="613.93" y="221.01" xlink:href="#hd"/>
<path d="M610.43 221.01v23.20" stroke="currentColor" fill="none"/>
<use x="641.93" y="227.01" xlink:href="#hd"/>
<path d="M638.43 227.01v17.20" stroke="currentColor" fill="none"/>
<defs>
<path id="r8e" fill="currentColor" d="m 0 0
	c-1.5 1.5 -2.4 2 -3.6 2
	c2.4 -2.8 -2.8 -4 -2.8 -1.2
	c0 2.7 4.3 2.4 5.9 0.6"/>
<g id="r8">
	<path d="m3.3 -4l-3.4 9.6" stroke="currentColor" fill="none"/>
	<use x="3.4" y="-4" xlink:href="#r8e"/>
</g>
</defs>
<use x="670.03" y="239.01" xlink:href="#r8"/>
</g>
</svg>
