<?xml version="1.0" standalone="no"?>
<!DOCTYPE svg PUBLIC "-//W3C//DTD SVG 1.1//EN"
	"http://www.w3.org/Graphics/SVG/1.1/DTD/svg11.dtd">
<svg xmlns="http://www.w3.org/2000/svg" version="1.1"
	xmlns:xlink="http://www.w3.org/1999/xlink"
	xml:space='preserve' color="black"
	width="7.38in" height="4.61in" viewBox="0 0 531 332">
<title>data/results/biggest_11/abc/242.abc (242) tune 1</title>
<!-- Creator: abcm2ps-7.8.14 -->
<!-- CreationDate: Aug  9, 2015 23:50 -->
<!-- CommandLine: -g data/results/biggest_11/abc/242.abc -O /home/allanino/Dropbox/Trabalhos/folkme/svg/242.svg -->
<g transform="scale(0.750)" stroke-width="0.70" font-family="Times" font-size="20.00">
<text x="354.13" y="21.67" text-anchor="middle">Gunsond Southally</text>
</g>
<g transform="scale(0.525)" stroke-width="0.70" font-family="Times" font-size="20.00">
<defs>
<ellipse id="hd" rx="4.1" ry="2.9"
	transform="rotate(-20)" fill="currentColor"/>
</defs>
<use x="114.90" y="94.16" xlink:href="#hd"/>
<path d="M118.40 94.16v-20.00" stroke="currentColor" fill="none"/>
</g>
<g transform="scale(0.750)" stroke-width="0.70" font-family="Times" font-size="15.00" font-weight="bold">
<text x="88.13" y="68.01">= 130</text>
<path stroke="currentColor" fill="none"
	d="M114.63 120.01v-24.00"/>
<path stroke="currentColor" fill="none"
	d="M257.33 120.01v-24.00"/>
<path stroke="currentColor" fill="none"
	d="M396.63 120.01v-24.00"/>
<path stroke="currentColor" fill="none"
	d="M545.93 120.01v-24.00"/>
<path stroke="currentColor" fill="none"
	d="M694.93 120.01v-24.00"/>
<path stroke="currentColor" fill="none"
	d="M13.33 120.01h681.60m-681.60 -6h681.60m-681.60 -6h681.60m-681.60 -6h681.60m-681.60 -6h681.60"/>
</g>
<g transform="scale(0.750)" stroke-width="0.70" font-family="Helvetica" font-size="12.00">
<text x="123.23" y="83.61">D</text>
<text x="468.03" y="83.61">A7</text>
<text x="619.73" y="83.61">A</text>
<defs>
<path id="utclef" fill="currentColor" d="m-50 -90
	c-72 -41 -72 -158 52 -188
	c150 -10 220 188 90 256
	c-114 52 -275 0 -293 -136
	c-15 -181 93 -229 220 -334
	c88 -87 79 -133 62 -210
	c-51 33 -94 105 -89 186
	c17 267 36 374 49 574
	c6 96 -19 134 -77 135
	c-80 1 -126 -93 -61 -133
	c85 -41 133 101 31 105
	c23 17 92 37 90 -92
	c-10 -223 -39 -342 -50 -617
	c0 -90 0 -162 96 -232
	c56 72 63 230 22 289
	c-74 106 -257 168 -255 316
	c9 153 148 185 252 133
	c86 -65 29 -192 -80 -176
	c-71 12 -105 67 -59 124"/>
<use id="tclef" transform="scale(0.045)"
	xlink:href="#utclef"/>
</defs>
<use x="25.33" y="120.01" xlink:href="#tclef"/>
<defs>
<path id="usharp" fill="currentColor" d="
	m136 -702
	v890
	h32
	v-890
	m128 840
	h32
	v-888
	h-32
	m-232 286
	v116
	l338 -96
	v-116
	m-338 442
	v116
	l338 -98
	v-114"/>
<use id="sh0" transform="translate(-4,5) scale(0.018)"
	xlink:href="#usharp"/>
</defs>
<use x="40.33" y="96.01" xlink:href="#sh0"/>
<use x="45.83" y="105.01" xlink:href="#sh0"/>
<g font-family="serif" font-size="16" font-weight="bold" font-style="normal"
	transform="translate(61.83,120.01) scale(1.2,1)">
	<text y="-1" text-anchor="middle">4</text>
	<text y="-13" text-anchor="middle">4</text>
</g>
<path fill="currentColor"
	d="M83.03 91.71l19.00 3.80v3.20l-19.00 -3.80"/>
<use x="79.83" y="111.01" xlink:href="#hd"/>
<path d="M83.33 111.01v-18.20" stroke="currentColor" fill="none"/>
<use x="98.13" y="117.01" xlink:href="#hd"/>
<path d="M101.63 117.01v-20.60" stroke="currentColor" fill="none"/>
<use x="127.13" y="123.01" xlink:href="#hd"/>
<path d="M130.63 123.01v-20.00" stroke="currentColor" fill="none"/>
<path fill="currentColor"
	d="M158.63 102.71l19.00 -2.30v3.20l-19.00 2.30"/>
<use x="155.53" y="123.01" xlink:href="#hd"/>
<path d="M159.03 123.01v-19.40" stroke="currentColor" fill="none"/>
<use x="173.83" y="120.01" xlink:href="#hd"/>
<path d="M177.33 120.01v-18.60" stroke="currentColor" fill="none"/>
<use x="194.13" y="117.01" xlink:href="#hd"/>
<path d="M197.63 117.01v-20.00" stroke="currentColor" fill="none"/>
<path fill="currentColor"
	d="M225.73 96.71l19.00 -2.30v3.20l-19.00 2.30"/>
<use x="222.53" y="117.01" xlink:href="#hd"/>
<path d="M226.03 117.01v-19.40" stroke="currentColor" fill="none"/>
<use x="240.93" y="114.01" xlink:href="#hd"/>
<path d="M244.43 114.01v-18.60" stroke="currentColor" fill="none"/>
<path fill="currentColor"
	d="M273.03 93.01l55.70 0.00v3.20l-55.70 -0.00"/>
<use x="269.83" y="117.01" xlink:href="#hd"/>
<path d="M273.33 117.01v-23.00" stroke="currentColor" fill="none"/>
<use x="288.13" y="114.01" xlink:href="#hd"/>
<path d="M291.63 114.01v-20.00" stroke="currentColor" fill="none"/>
<use x="306.53" y="111.01" xlink:href="#hd"/>
<path d="M310.03 111.01v-17.00" stroke="currentColor" fill="none"/>
<use x="324.83" y="117.01" xlink:href="#hd"/>
<path d="M328.33 117.01v-23.00" stroke="currentColor" fill="none"/>
<use x="345.13" y="111.01" xlink:href="#hd"/>
<path d="M348.63 111.01v-20.00" stroke="currentColor" fill="none"/>
<use x="373.73" y="102.01" xlink:href="#hd"/>
<path d="M370.23 102.01v20.00" stroke="currentColor" fill="none"/>
<use x="409.13" y="111.01" xlink:href="#hd"/>
<path d="M412.63 111.01v-20.00" stroke="currentColor" fill="none"/>
<path fill="currentColor"
	d="M433.93 130.21l92.40 0.00v-3.20l-92.40 -0.00"/>
<use x="437.73" y="108.01" xlink:href="#hd"/>
<path d="M434.23 108.01v21.20" stroke="currentColor" fill="none"/>
<use x="456.13" y="105.01" xlink:href="#hd"/>
<path d="M452.63 105.01v24.20" stroke="currentColor" fill="none"/>
<use x="474.43" y="102.01" xlink:href="#hd"/>
<path d="M470.93 102.01v27.20" stroke="currentColor" fill="none"/>
<use x="492.83" y="105.01" xlink:href="#hd"/>
<path d="M489.33 105.01v24.20" stroke="currentColor" fill="none"/>
<use x="511.13" y="108.01" xlink:href="#hd"/>
<path d="M507.63 108.01v21.20" stroke="currentColor" fill="none"/>
<use x="529.43" y="111.01" xlink:href="#hd"/>
<path d="M525.93 111.01v18.20" stroke="currentColor" fill="none"/>
<use x="558.43" y="120.01" xlink:href="#hd"/>
<path d="M561.93 120.01v-20.00" stroke="currentColor" fill="none"/>
<path fill="currentColor"
	d="M589.93 93.01l92.40 0.00v3.20l-92.40 -0.00"/>
<use x="586.83" y="120.01" xlink:href="#hd"/>
<path d="M590.33 120.01v-26.00" stroke="currentColor" fill="none"/>
<use x="605.13" y="120.01" xlink:href="#hd"/>
<path d="M608.63 120.01v-26.00" stroke="currentColor" fill="none"/>
<use x="623.53" y="120.01" xlink:href="#hd"/>
<path d="M627.03 120.01v-26.00" stroke="currentColor" fill="none"/>
<use x="641.83" y="111.01" xlink:href="#hd"/>
<path d="M645.33 111.01v-17.00" stroke="currentColor" fill="none"/>
<use x="660.13" y="111.01" xlink:href="#hd"/>
<path d="M663.63 111.01v-17.00" stroke="currentColor" fill="none"/>
<use x="678.53" y="114.01" xlink:href="#hd"/>
<path d="M682.03 114.01v-20.00" stroke="currentColor" fill="none"/>
<path stroke="currentColor" fill="none"
	d="M207.43 193.01v-24.00"/>
<path stroke="currentColor" fill="none"
	d="M387.23 193.01v-24.00"/>
<path stroke="currentColor" fill="none"
	d="M550.83 193.01v-24.00"/>
<path stroke="currentColor" fill="none"
	d="M694.93 193.01v-24.00"/>
<path stroke="currentColor" fill="none"
	d="M13.33 193.01h681.60m-681.60 -6h681.60m-681.60 -6h681.60m-681.60 -6h681.60m-681.60 -6h681.60"/>
<text x="60.03" y="154.61">D</text>
<text x="143.73" y="154.61">Em</text>
<text x="216.13" y="154.61">A</text>
<text x="395.93" y="154.61">D</text>
<text x="469.63" y="154.61">F♯m</text>
<text x="559.53" y="154.61">G</text>
<text x="634.13" y="154.61">D</text>
<use x="25.33" y="193.01" xlink:href="#tclef"/>
<use x="40.33" y="169.01" xlink:href="#sh0"/>
<use x="45.83" y="178.01" xlink:href="#sh0"/>
<path fill="currentColor"
	d="M67.03 168.91l64.30 -7.10v3.20l-64.30 7.10"/>
<use x="63.83" y="190.01" xlink:href="#hd"/>
<path d="M67.33 190.01v-20.20" stroke="currentColor" fill="none"/>
<use x="85.03" y="187.01" xlink:href="#hd"/>
<path d="M88.53 187.01v-19.50" stroke="currentColor" fill="none"/>
<use x="106.23" y="184.01" xlink:href="#hd"/>
<path d="M109.73 184.01v-18.90" stroke="currentColor" fill="none"/>
<use x="127.43" y="181.01" xlink:href="#hd"/>
<path d="M130.93 181.01v-18.20" stroke="currentColor" fill="none"/>
<use x="151.03" y="178.01" xlink:href="#hd"/>
<path d="M147.53 178.01v20.00" stroke="currentColor" fill="none"/>
<use x="180.93" y="193.01" xlink:href="#hd"/>
<path d="M184.43 193.01v-20.00" stroke="currentColor" fill="none"/>
<path fill="currentColor"
	d="M223.13 166.01l149.10 0.00v3.20l-149.10 -0.00"/>
<use x="219.93" y="190.01" xlink:href="#hd"/>
<path d="M223.43 190.01v-23.00" stroke="currentColor" fill="none"/>
<use x="241.13" y="184.01" xlink:href="#hd"/>
<path d="M244.63 184.01v-17.00" stroke="currentColor" fill="none"/>
<use x="262.33" y="196.01" xlink:href="#hd"/>
<path d="M265.83 196.01v-29.00" stroke="currentColor" fill="none"/>
<use x="283.53" y="193.01" xlink:href="#hd"/>
<path d="M287.03 193.01v-26.00" stroke="currentColor" fill="none"/>
<use x="304.73" y="190.01" xlink:href="#hd"/>
<path d="M308.23 190.01v-23.00" stroke="currentColor" fill="none"/>
<use x="325.93" y="193.01" xlink:href="#hd"/>
<path d="M329.43 193.01v-26.00" stroke="currentColor" fill="none"/>
<use x="347.13" y="190.01" xlink:href="#hd"/>
<path d="M350.63 190.01v-23.00" stroke="currentColor" fill="none"/>
<use x="368.33" y="187.01" xlink:href="#hd"/>
<path d="M371.83 187.01v-20.00" stroke="currentColor" fill="none"/>
<use x="399.73" y="184.01" xlink:href="#hd"/>
<path d="M403.23 184.01v-20.00" stroke="currentColor" fill="none"/>
<path fill="currentColor"
	d="M436.03 161.31l21.90 2.40v3.20l-21.90 -2.40"/>
<use x="432.93" y="181.01" xlink:href="#hd"/>
<path d="M436.43 181.01v-18.70" stroke="currentColor" fill="none"/>
<use x="454.13" y="184.01" xlink:href="#hd"/>
<path d="M457.63 184.01v-19.30" stroke="currentColor" fill="none"/>
<use x="477.63" y="184.01" xlink:href="#hd"/>
<path d="M481.13 184.01v-20.00" stroke="currentColor" fill="none"/>
<path fill="currentColor"
	d="M513.93 166.71l21.90 -2.40v3.20l-21.90 2.40"/>
<use x="510.73" y="187.01" xlink:href="#hd"/>
<path d="M514.23 187.01v-19.30" stroke="currentColor" fill="none"/>
<use x="531.93" y="184.01" xlink:href="#hd"/>
<path d="M535.43 184.01v-18.70" stroke="currentColor" fill="none"/>
<use x="563.33" y="181.01" xlink:href="#hd"/>
<path d="M559.83 181.01v20.00" stroke="currentColor" fill="none"/>
<path fill="currentColor"
	d="M596.33 161.31l21.90 2.40v3.20l-21.90 -2.40"/>
<use x="593.23" y="181.01" xlink:href="#hd"/>
<path d="M596.73 181.01v-18.70" stroke="currentColor" fill="none"/>
<use x="614.43" y="184.01" xlink:href="#hd"/>
<path d="M617.93 184.01v-19.30" stroke="currentColor" fill="none"/>
<use x="637.93" y="184.01" xlink:href="#hd"/>
<circle fill="currentColor" cx="645.93" cy="184.01" r="1.2"/>
<path d="M641.43 184.01v-20.00" stroke="currentColor" fill="none"/>
<use x="675.83" y="190.01" xlink:href="#hd"/>
<path d="M679.33 190.01v-20.00" stroke="currentColor" fill="none"/>
<path fill="currentColor"
	d="	M679.33 170.01c0.6 5.6 9.6 9 5.6 18.4
	c1.6 -6 -1.3 -11.6 -5.6 -12.8
"/>
<path stroke="currentColor" fill="none"
	d="M222.63 264.01v-24.00"/>
<path stroke="currentColor" fill="none"
	d="M408.73 264.01v-24.00"/>
<path stroke="currentColor" fill="none"
	d="M581.33 264.01v-24.00"/>
<path stroke="currentColor" fill="none" stroke-width="3"
	d="M693.43 264.01v-24.00"/>
<path stroke="currentColor" fill="none"
	d="M688.93 264.01v-24.00"/>
<defs>
<g id="rdots" fill="currentColor">
	<circle cx="0" cy="-9" r="1.2"/>
	<circle cx="0" cy="-15" r="1.2"/>
</g>
</defs>
<use x="684.93" y="264.01" xlink:href="#rdots"/>
<path stroke="currentColor" fill="none"
	d="M13.33 264.01h681.60m-681.60 -6h681.60m-681.60 -6h681.60m-681.60 -6h681.60m-681.60 -6h681.60"/>
<text x="60.03" y="227.61">D</text>
<text x="231.63" y="227.61">D</text>
<text x="498.33" y="227.61">A</text>
<text x="590.33" y="227.61">D</text>
<use x="25.33" y="264.01" xlink:href="#tclef"/>
<use x="40.33" y="240.01" xlink:href="#sh0"/>
<use x="45.83" y="249.01" xlink:href="#sh0"/>
<path fill="currentColor"
	d="M67.03 243.01l69.40 0.00v3.20l-69.40 -0.00"/>
<use x="63.83" y="267.01" xlink:href="#hd"/>
<path d="M67.33 267.01v-23.00" stroke="currentColor" fill="none"/>
<use x="86.73" y="264.01" xlink:href="#hd"/>
<path d="M90.23 264.01v-20.00" stroke="currentColor" fill="none"/>
<use x="109.63" y="267.01" xlink:href="#hd"/>
<path d="M113.13 267.01v-23.00" stroke="currentColor" fill="none"/>
<use x="132.53" y="261.01" xlink:href="#hd"/>
<path d="M136.03 261.01v-17.00" stroke="currentColor" fill="none"/>
<use x="157.93" y="255.01" xlink:href="#hd"/>
<path d="M161.43 255.01v-20.00" stroke="currentColor" fill="none"/>
<use x="193.83" y="246.01" xlink:href="#hd"/>
<path d="M190.33 246.01v20.00" stroke="currentColor" fill="none"/>
<path fill="currentColor"
	d="M231.63 274.21l69.40 -4.30v-3.20l-69.40 4.30"/>
<use x="235.43" y="255.01" xlink:href="#hd"/>
<path d="M231.93 255.01v18.20" stroke="currentColor" fill="none"/>
<use x="258.33" y="246.01" xlink:href="#hd"/>
<path d="M254.83 246.01v25.80" stroke="currentColor" fill="none"/>
<use x="281.23" y="246.01" xlink:href="#hd"/>
<path d="M277.73 246.01v24.40" stroke="currentColor" fill="none"/>
<use x="304.13" y="246.01" xlink:href="#hd"/>
<path d="M300.63 246.01v22.90" stroke="currentColor" fill="none"/>
<use x="329.53" y="246.01" xlink:href="#hd"/>
<path d="M326.03 246.01v20.00" stroke="currentColor" fill="none"/>
<path fill="currentColor"
	d="M361.63 271.71l23.60 -2.40v-3.20l-23.60 2.40"/>
<use x="365.43" y="252.01" xlink:href="#hd"/>
<path d="M361.93 252.01v18.70" stroke="currentColor" fill="none"/>
<use x="388.33" y="249.01" xlink:href="#hd"/>
<path d="M384.83 249.01v19.30" stroke="currentColor" fill="none"/>
<use x="421.53" y="246.01" xlink:href="#hd"/>
<path d="M418.03 246.01v20.00" stroke="currentColor" fill="none"/>
<path fill="currentColor"
	d="M457.03 235.31l23.60 2.40v3.20l-23.60 -2.40"/>
<use x="453.83" y="255.01" xlink:href="#hd"/>
<path d="M457.33 255.01v-18.70" stroke="currentColor" fill="none"/>
<use x="476.73" y="258.01" xlink:href="#hd"/>
<path d="M480.23 258.01v-19.30" stroke="currentColor" fill="none"/>
<use x="502.13" y="261.01" xlink:href="#hd"/>
<path d="M505.63 261.01v-20.00" stroke="currentColor" fill="none"/>
<path fill="currentColor"
	d="M541.23 244.31l23.60 2.40v3.20l-23.60 -2.40"/>
<use x="538.03" y="264.01" xlink:href="#hd"/>
<path d="M541.53 264.01v-18.70" stroke="currentColor" fill="none"/>
<use x="560.93" y="267.01" xlink:href="#hd"/>
<path d="M564.43 267.01v-19.30" stroke="currentColor" fill="none"/>
<use x="594.13" y="267.01" xlink:href="#hd"/>
<path d="M597.63 267.01v-20.00" stroke="currentColor" fill="none"/>
<use x="630.03" y="267.01" xlink:href="#hd"/>
<path d="M633.53 267.01v-20.00" stroke="currentColor" fill="none"/>
<use x="665.93" y="267.01" xlink:href="#hd"/>
<path d="M669.43 267.01v-20.00" stroke="currentColor" fill="none"/>
<use x="70.33" y="337.01" xlink:href="#rdots"/>
<path stroke="currentColor" fill="none"
	d="M66.33 337.01v-24.00"/>
<path stroke="currentColor" fill="none" stroke-width="3"
	d="M61.83 337.01v-24.00"/>
<path stroke="currentColor" fill="none"
	d="M105.63 337.01v-24.00"/>
<path stroke="currentColor" fill="none"
	d="M248.53 337.01v-24.00"/>
<path stroke="currentColor" fill="none"
	d="M399.33 337.01v-24.00"/>
<path stroke="currentColor" fill="none"
	d="M550.23 337.01v-24.00"/>
<path stroke="currentColor" fill="none"
	d="M694.93 337.01v-24.00"/>
<path stroke="currentColor" fill="none"
	d="M13.33 337.01h681.60m-681.60 -6h681.60m-681.60 -6h681.60m-681.60 -6h681.60m-681.60 -6h681.60"/>
<text x="114.33" y="298.61">D</text>
<text x="558.93" y="298.61">D</text>
<use x="25.33" y="337.01" xlink:href="#tclef"/>
<use x="40.33" y="313.01" xlink:href="#sh0"/>
<use x="45.83" y="322.01" xlink:href="#sh0"/>
<use x="83.83" y="319.01" xlink:href="#hd"/>
<path d="M80.33 319.01v20.00" stroke="currentColor" fill="none"/>
<use x="118.13" y="328.01" xlink:href="#hd"/>
<path d="M121.63 328.01v-20.00" stroke="currentColor" fill="none"/>
<path fill="currentColor"
	d="M148.43 299.81l88.30 0.00v3.20l-88.30 -0.00"/>
<use x="145.23" y="334.01" xlink:href="#hd"/>
<path d="M148.73 334.01v-33.20" stroke="currentColor" fill="none"/>
<use x="162.73" y="328.01" xlink:href="#hd"/>
<path d="M166.23 328.01v-27.20" stroke="currentColor" fill="none"/>
<use x="180.23" y="319.01" xlink:href="#hd"/>
<path d="M183.73 319.01v-18.20" stroke="currentColor" fill="none"/>
<use x="197.83" y="328.01" xlink:href="#hd"/>
<path d="M201.33 328.01v-27.20" stroke="currentColor" fill="none"/>
<use x="215.33" y="334.01" xlink:href="#hd"/>
<path d="M218.83 334.01v-33.20" stroke="currentColor" fill="none"/>
<use x="232.83" y="331.01" xlink:href="#hd"/>
<path d="M236.33 331.01v-30.20" stroke="currentColor" fill="none"/>
<path fill="currentColor"
	d="M264.23 299.81l123.30 0.00v3.20l-123.30 -0.00"/>
<use x="261.03" y="328.01" xlink:href="#hd"/>
<path d="M264.53 328.01v-27.20" stroke="currentColor" fill="none"/>
<use x="278.53" y="334.01" xlink:href="#hd"/>
<path d="M282.03 334.01v-33.20" stroke="currentColor" fill="none"/>
<use x="296.03" y="334.01" xlink:href="#hd"/>
<path d="M299.53 334.01v-33.20" stroke="currentColor" fill="none"/>
<use x="313.63" y="328.01" xlink:href="#hd"/>
<path d="M317.13 328.01v-27.20" stroke="currentColor" fill="none"/>
<use x="331.13" y="319.01" xlink:href="#hd"/>
<path d="M334.63 319.01v-18.20" stroke="currentColor" fill="none"/>
<use x="348.63" y="328.01" xlink:href="#hd"/>
<path d="M352.13 328.01v-27.20" stroke="currentColor" fill="none"/>
<use x="366.13" y="334.01" xlink:href="#hd"/>
<path d="M369.63 334.01v-33.20" stroke="currentColor" fill="none"/>
<use x="383.63" y="328.01" xlink:href="#hd"/>
<path d="M387.13 328.01v-27.20" stroke="currentColor" fill="none"/>
<path fill="currentColor"
	d="M408.03 350.21l123.30 0.00v-3.20l-123.30 -0.00"/>
<use x="411.83" y="328.01" xlink:href="#hd"/>
<path d="M408.33 328.01v21.20" stroke="currentColor" fill="none"/>
<use x="429.43" y="319.01" xlink:href="#hd"/>
<path d="M425.93 319.01v30.20" stroke="currentColor" fill="none"/>
<use x="446.93" y="313.01" xlink:href="#hd"/>
<path d="M443.43 313.01v36.20" stroke="currentColor" fill="none"/>
<use x="464.43" y="319.01" xlink:href="#hd"/>
<path d="M460.93 319.01v30.20" stroke="currentColor" fill="none"/>
<use x="481.93" y="316.01" xlink:href="#hd"/>
<path d="M478.43 316.01v33.20" stroke="currentColor" fill="none"/>
<use x="499.43" y="319.01" xlink:href="#hd"/>
<path d="M495.93 319.01v30.20" stroke="currentColor" fill="none"/>
<use x="517.03" y="325.01" xlink:href="#hd"/>
<path d="M513.53 325.01v24.20" stroke="currentColor" fill="none"/>
<use x="534.53" y="331.01" xlink:href="#hd"/>
<path d="M531.03 331.01v18.20" stroke="currentColor" fill="none"/>
<path fill="currentColor"
	d="M558.83 353.21l53.20 -6.90v-3.20l-53.20 6.90"/>
<use x="562.73" y="334.01" xlink:href="#hd"/>
<path d="M559.23 334.01v18.20" stroke="currentColor" fill="none"/>
<use x="580.23" y="310.01" xlink:href="#hd"/>
<path d="M576.73 310.01v39.90" stroke="currentColor" fill="none"/>
<use x="597.73" y="313.01" xlink:href="#hd"/>
<path d="M594.23 313.01v34.70" stroke="currentColor" fill="none"/>
<use x="615.23" y="316.01" xlink:href="#hd"/>
<path d="M611.73 316.01v29.40" stroke="currentColor" fill="none"/>
<use x="634.63" y="319.01" xlink:href="#hd"/>
<path d="M631.13 319.01v20.00" stroke="currentColor" fill="none"/>
<path fill="currentColor"
	d="M657.83 339.31l18.20 2.30v-3.20l-18.20 -2.30"/>
<use x="661.73" y="319.01" xlink:href="#hd"/>
<path d="M658.23 319.01v19.40" stroke="currentColor" fill="none"/>
<use x="679.23" y="322.01" xlink:href="#hd"/>
<path d="M675.73 322.01v18.60" stroke="currentColor" fill="none"/>
<path stroke="currentColor" fill="none"
	d="M175.73 420.01v-24.00"/>
<path stroke="currentColor" fill="none"
	d="M300.03 420.01v-24.00"/>
<path stroke="currentColor" fill="none"
	d="M430.93 420.01v-24.00"/>
<path stroke="currentColor" fill="none" stroke-width="3"
	d="M504.93 420.01v-24.00"/>
<path stroke="currentColor" fill="none"
	d="M500.43 420.01v-24.00"/>
<use x="496.43" y="420.01" xlink:href="#rdots"/>
<path stroke="currentColor" fill="none"
	d="M615.43 420.01v-24.00"/>
<path stroke="currentColor" fill="none"
	d="M694.93 420.01v-24.00"/>
<path stroke="currentColor" fill="none"
	d="M691.93 420.01v-24.00"/>
<path stroke="currentColor" fill="none"
	d="M13.33 420.01h681.60m-681.60 -6h681.60m-681.60 -6h681.60m-681.60 -6h681.60m-681.60 -6h681.60"/>
<text x="60.03" y="373.61">G</text>
<text x="240.93" y="373.61">D</text>
<text x="315.23" y="373.61">A</text>
<text x="371.83" y="373.61">G</text>
<text x="439.53" y="373.61">G</text>
<text x="521.53" y="373.61">D</text>
<text x="624.13" y="373.61">A</text>
</g>
<g transform="scale(0.750)" stroke-width="0.70" font-family="Times" font-size="13.00">
<text x="304.03" y="373.41">1</text>
<path stroke="currentColor" fill="none"
	d="M300.03 362.01v20M300.03 362.01h198.40v20"/>
<text x="510.43" y="373.41">2</text>
<path stroke="currentColor" fill="none"
	d="M506.43 362.01v20M506.43 362.01h188.50v20"/>
<use x="25.33" y="420.01" xlink:href="#tclef"/>
<use x="40.33" y="396.01" xlink:href="#sh0"/>
<use x="45.83" y="405.01" xlink:href="#sh0"/>
<path fill="currentColor"
	d="M60.03 433.21l99.70 0.00v-3.20l-99.70 -0.00"/>
<use x="63.83" y="408.01" xlink:href="#hd"/>
<path d="M60.33 408.01v24.20" stroke="currentColor" fill="none"/>
<use x="77.93" y="411.01" xlink:href="#hd"/>
<path d="M74.43 411.01v21.20" stroke="currentColor" fill="none"/>
<use x="92.13" y="414.01" xlink:href="#hd"/>
<path d="M88.63 414.01v18.20" stroke="currentColor" fill="none"/>
<use x="106.23" y="408.01" xlink:href="#hd"/>
<path d="M102.73 408.01v24.20" stroke="currentColor" fill="none"/>
<use x="120.43" y="399.01" xlink:href="#hd"/>
<path d="M116.93 399.01v33.20" stroke="currentColor" fill="none"/>
<use x="134.53" y="402.01" xlink:href="#hd"/>
<path d="M131.03 402.01v30.20" stroke="currentColor" fill="none"/>
<use x="148.73" y="408.01" xlink:href="#hd"/>
<path d="M145.23 408.01v24.20" stroke="currentColor" fill="none"/>
<use x="162.83" y="405.01" xlink:href="#hd"/>
<path d="M159.33 405.01v27.20" stroke="currentColor" fill="none"/>
<path fill="currentColor"
	d="M191.33 382.81l99.70 0.00v3.20l-99.70 -0.00"/>
<use x="188.23" y="402.01" xlink:href="#hd"/>
<path d="M191.73 402.01v-18.20" stroke="currentColor" fill="none"/>
<use x="202.33" y="408.01" xlink:href="#hd"/>
<path d="M205.83 408.01v-24.20" stroke="currentColor" fill="none"/>
<use x="216.43" y="414.01" xlink:href="#hd"/>
<path d="M219.93 414.01v-30.20" stroke="currentColor" fill="none"/>
<use x="230.63" y="408.01" xlink:href="#hd"/>
<path d="M234.13 408.01v-24.20" stroke="currentColor" fill="none"/>
<use x="244.73" y="411.01" xlink:href="#hd"/>
<path d="M248.23 411.01v-27.20" stroke="currentColor" fill="none"/>
<use x="258.93" y="417.01" xlink:href="#hd"/>
<path d="M262.43 417.01v-33.20" stroke="currentColor" fill="none"/>
<use x="273.03" y="423.01" xlink:href="#hd"/>
<path d="M276.53 423.01v-39.20" stroke="currentColor" fill="none"/>
<use x="287.13" y="417.01" xlink:href="#hd"/>
<path d="M290.63 417.01v-33.20" stroke="currentColor" fill="none"/>
<path fill="currentColor"
	d="M322.23 388.81l99.70 0.00v3.20l-99.70 -0.00"/>
<use x="319.03" y="420.01" xlink:href="#hd"/>
<path d="M322.53 420.01v-30.20" stroke="currentColor" fill="none"/>
<use x="333.13" y="423.01" xlink:href="#hd"/>
<path d="M336.63 423.01v-33.20" stroke="currentColor" fill="none"/>
<use x="347.33" y="417.01" xlink:href="#hd"/>
<path d="M350.83 417.01v-27.20" stroke="currentColor" fill="none"/>
<use x="361.43" y="411.01" xlink:href="#hd"/>
<path d="M364.93 411.01v-21.20" stroke="currentColor" fill="none"/>
<use x="375.63" y="408.01" xlink:href="#hd"/>
<path d="M379.13 408.01v-18.20" stroke="currentColor" fill="none"/>
<use x="389.73" y="411.01" xlink:href="#hd"/>
<path d="M393.23 411.01v-21.20" stroke="currentColor" fill="none"/>
<use x="403.93" y="414.01" xlink:href="#hd"/>
<path d="M407.43 414.01v-24.20" stroke="currentColor" fill="none"/>
<use x="418.03" y="411.01" xlink:href="#hd"/>
<path d="M421.53 411.01v-21.20" stroke="currentColor" fill="none"/>
<use x="443.43" y="408.01" xlink:href="#hd"/>
<path d="M439.93 408.01v20.00" stroke="currentColor" fill="none"/>
<use x="464.63" y="408.01" xlink:href="#hd"/>
<path d="M461.13 408.01v20.00" stroke="currentColor" fill="none"/>
<use x="485.93" y="408.01" xlink:href="#hd"/>
<path d="M482.43 408.01v20.00" stroke="currentColor" fill="none"/>
<use x="525.43" y="411.01" xlink:href="#hd"/>
<path d="M528.93 411.01v-20.00" stroke="currentColor" fill="none"/>
<path fill="currentColor"
	d="M549.83 390.61l14.80 -2.20v3.20l-14.80 2.20"/>
<use x="546.63" y="411.01" xlink:href="#hd"/>
<path d="M550.13 411.01v-19.40" stroke="currentColor" fill="none"/>
<use x="560.83" y="408.01" xlink:href="#hd"/>
<path d="M564.33 408.01v-18.60" stroke="currentColor" fill="none"/>
<use x="576.33" y="411.01" xlink:href="#hd"/>
<path d="M579.83 411.01v-20.00" stroke="currentColor" fill="none"/>
<use x="598.03" y="402.01" xlink:href="#hd"/>
<path d="M594.53 402.01v20.00" stroke="currentColor" fill="none"/>
<use x="627.93" y="405.01" xlink:href="#hd"/>
<path d="M624.43 405.01v20.00" stroke="currentColor" fill="none"/>
<path fill="currentColor"
	d="M650.43 388.41l14.80 2.20v3.20l-14.80 -2.20"/>
<use x="647.23" y="408.01" xlink:href="#hd"/>
<path d="M650.73 408.01v-18.60" stroke="currentColor" fill="none"/>
<use x="661.43" y="411.01" xlink:href="#hd"/>
<path d="M664.93 411.01v-19.40" stroke="currentColor" fill="none"/>
<use x="676.93" y="414.01" xlink:href="#hd"/>
<path d="M680.43 414.01v-20.00" stroke="currentColor" fill="none"/>
</g>
</svg>
