<?xml version="1.0" standalone="no"?>
<!DOCTYPE svg PUBLIC "-//W3C//DTD SVG 1.1//EN"
	"http://www.w3.org/Graphics/SVG/1.1/DTD/svg11.dtd">
<svg xmlns="http://www.w3.org/2000/svg" version="1.1"
	xmlns:xlink="http://www.w3.org/1999/xlink"
	xml:space='preserve' color="black"
	width="7.38in" height="3.68in" viewBox="0 0 531 265">
<title>data/results/biggest_11/abc/244.abc (244) tune 1</title>
<!-- Creator: abcm2ps-7.8.14 -->
<!-- CreationDate: Aug  9, 2015 23:50 -->
<!-- CommandLine: -g data/results/biggest_11/abc/244.abc -O /home/allanino/Dropbox/Trabalhos/folkme/svg/244.svg -->
<g transform="scale(0.750)" stroke-width="0.70" font-family="Times" font-size="20.00">
<text x="354.13" y="21.67" text-anchor="middle">Walzer  GC 10- chords</text>
<path stroke="currentColor" fill="none"
	d="M117.93 99.01v-24.00"/>
<path stroke="currentColor" fill="none"
	d="M174.03 99.01v-24.00"/>
<path stroke="currentColor" fill="none"
	d="M241.93 99.01v-24.00"/>
<path stroke="currentColor" fill="none"
	d="M281.63 99.01v-24.00"/>
<path stroke="currentColor" fill="none"
	d="M349.43 99.01v-24.00"/>
<path stroke="currentColor" fill="none"
	d="M389.23 99.01v-24.00"/>
<path stroke="currentColor" fill="none"
	d="M445.33 99.01v-24.00"/>
<path stroke="currentColor" fill="none"
	d="M514.23 99.01v-24.00"/>
<path stroke="currentColor" fill="none"
	d="M582.13 99.01v-24.00"/>
<path stroke="currentColor" fill="none"
	d="M638.23 99.01v-24.00"/>
<path stroke="currentColor" fill="none"
	d="M694.93 99.01v-24.00"/>
<path stroke="currentColor" fill="none"
	d="M13.33 99.01h681.60m-681.60 -6h681.60m-681.60 -6h681.60m-681.60 -6h681.60m-681.60 -6h681.60"/>
</g>
<g transform="scale(0.750)" stroke-width="0.70" font-family="Helvetica" font-size="12.00">
<text x="71.03" y="62.61">G</text>
<text x="248.43" y="62.61">D7</text>
<text x="454.03" y="62.61">G</text>
<text x="588.63" y="62.61">D7</text>
<defs>
<path id="utclef" fill="currentColor" d="m-50 -90
	c-72 -41 -72 -158 52 -188
	c150 -10 220 188 90 256
	c-114 52 -275 0 -293 -136
	c-15 -181 93 -229 220 -334
	c88 -87 79 -133 62 -210
	c-51 33 -94 105 -89 186
	c17 267 36 374 49 574
	c6 96 -19 134 -77 135
	c-80 1 -126 -93 -61 -133
	c85 -41 133 101 31 105
	c23 17 92 37 90 -92
	c-10 -223 -39 -342 -50 -617
	c0 -90 0 -162 96 -232
	c56 72 63 230 22 289
	c-74 106 -257 168 -255 316
	c9 153 148 185 252 133
	c86 -65 29 -192 -80 -176
	c-71 12 -105 67 -59 124"/>
<use id="tclef" transform="scale(0.045)"
	xlink:href="#utclef"/>
</defs>
<use x="25.33" y="99.01" xlink:href="#tclef"/>
<defs>
<path id="usharp" fill="currentColor" d="
	m136 -702
	v890
	h32
	v-890
	m128 840
	h32
	v-888
	h-32
	m-232 286
	v116
	l338 -96
	v-116
	m-338 442
	v116
	l338 -98
	v-114"/>
<use id="sh0" transform="translate(-4,5) scale(0.018)"
	xlink:href="#usharp"/>
</defs>
<use x="40.33" y="75.01" xlink:href="#sh0"/>
<g font-family="serif" font-size="16" font-weight="bold" font-style="normal"
	transform="translate(56.33,99.01) scale(1.2,1)">
	<text y="-1" text-anchor="middle">4</text>
	<text y="-13" text-anchor="middle">3</text>
</g>
<defs>
<path id="Hd" fill="currentColor" d="m3 -1.6
	c-1 -1.8 -7 1.4 -6 3.2
	c1 1.8 7 -1.4 6 -3.2
	m0.5 -0.3
	c2 3.8 -5 7.6 -7 3.8
	c-2 -3.8 5 -7.6 7 -3.8"/>
</defs>
<use x="74.83" y="93.01" xlink:href="#Hd"/>
<path d="M78.33 93.01v-20.00" stroke="currentColor" fill="none"/>
<defs>
<ellipse id="hd" rx="4.1" ry="2.9"
	transform="rotate(-20)" fill="currentColor"/>
</defs>
<use x="101.73" y="87.01" xlink:href="#hd"/>
<path d="M105.23 87.01v-20.00" stroke="currentColor" fill="none"/>
<use x="130.93" y="81.01" xlink:href="#Hd"/>
<path d="M127.43 81.01v20.00" stroke="currentColor" fill="none"/>
<use x="157.83" y="81.01" xlink:href="#hd"/>
<path d="M154.33 81.01v20.00" stroke="currentColor" fill="none"/>
<use x="186.53" y="102.01" xlink:href="#hd"/>
<path d="M190.03 102.01v-20.00" stroke="currentColor" fill="none"/>
<use x="206.13" y="93.01" xlink:href="#hd"/>
<path d="M209.63 93.01v-20.00" stroke="currentColor" fill="none"/>
<use x="225.73" y="87.01" xlink:href="#hd"/>
<path d="M229.23 87.01v-20.00" stroke="currentColor" fill="none"/>
<use x="254.93" y="84.01" xlink:href="#Hd"/>
<circle fill="currentColor" cx="263.93" cy="84.01" r="1.2"/>
<path d="M251.43 84.01v20.00" stroke="currentColor" fill="none"/>
<use x="294.13" y="102.01" xlink:href="#hd"/>
<path d="M297.63 102.01v-20.00" stroke="currentColor" fill="none"/>
<use x="313.73" y="96.01" xlink:href="#hd"/>
<path d="M317.23 96.01v-20.00" stroke="currentColor" fill="none"/>
<use x="333.23" y="90.01" xlink:href="#hd"/>
<path d="M336.73 90.01v-20.00" stroke="currentColor" fill="none"/>
<use x="362.43" y="84.01" xlink:href="#Hd"/>
<circle fill="currentColor" cx="371.43" cy="84.01" r="1.2"/>
<path d="M358.93 84.01v20.00" stroke="currentColor" fill="none"/>
<use x="402.23" y="102.01" xlink:href="#Hd"/>
<path d="M405.73 102.01v-20.00" stroke="currentColor" fill="none"/>
<use x="429.13" y="102.01" xlink:href="#hd"/>
<path d="M432.63 102.01v-20.00" stroke="currentColor" fill="none"/>
<use x="457.83" y="93.01" xlink:href="#hd"/>
<circle fill="currentColor" cx="465.83" cy="90.01" r="1.2"/>
<path d="M461.33 93.01v-20.00" stroke="currentColor" fill="none"/>
<use x="481.53" y="90.01" xlink:href="#hd"/>
<path d="M485.03 90.01v-20.00" stroke="currentColor" fill="none"/>
<path fill="currentColor"
	d="	M485.03 70.01c0.6 5.6 9.6 9 5.6 18.4
	c1.6 -6 -1.3 -11.6 -5.6 -12.8
"/>
<use x="498.03" y="87.01" xlink:href="#hd"/>
<path d="M501.53 87.01v-20.00" stroke="currentColor" fill="none"/>
<use x="526.73" y="78.01" xlink:href="#hd"/>
<path d="M523.23 78.01v20.00" stroke="currentColor" fill="none"/>
<use x="546.33" y="84.01" xlink:href="#hd"/>
<path d="M542.83 84.01v20.00" stroke="currentColor" fill="none"/>
<use x="565.93" y="87.01" xlink:href="#hd"/>
<path d="M562.43 87.01v20.00" stroke="currentColor" fill="none"/>
<use x="595.13" y="81.01" xlink:href="#Hd"/>
<path d="M591.63 81.01v20.00" stroke="currentColor" fill="none"/>
<use x="622.03" y="84.01" xlink:href="#hd"/>
<path d="M618.53 84.01v20.00" stroke="currentColor" fill="none"/>
<use x="651.23" y="96.01" xlink:href="#Hd"/>
<path d="M654.73 96.01v-20.00" stroke="currentColor" fill="none"/>
<use x="678.73" y="81.01" xlink:href="#hd"/>
<path d="M675.23 81.01v20.00" stroke="currentColor" fill="none"/>
<path stroke="currentColor" fill="none"
	d="M113.23 170.01v-24.00"/>
<path stroke="currentColor" fill="none"
	d="M204.13 170.01v-24.00"/>
<path stroke="currentColor" fill="none"
	d="M271.43 170.01v-24.00"/>
<path stroke="currentColor" fill="none"
	d="M351.33 170.01v-24.00"/>
<path stroke="currentColor" fill="none"
	d="M418.73 170.01v-24.00"/>
<path stroke="currentColor" fill="none"
	d="M486.13 170.01v-24.00"/>
<path stroke="currentColor" fill="none"
	d="M531.53 170.01v-24.00"/>
<path stroke="currentColor" fill="none"
	d="M613.23 170.01v-24.00"/>
<path stroke="currentColor" fill="none"
	d="M694.93 170.01v-24.00"/>
<path stroke="currentColor" fill="none"
	d="M13.33 170.01h681.60m-681.60 -6h681.60m-681.60 -6h681.60m-681.60 -6h681.60m-681.60 -6h681.60"/>
<text x="121.93" y="133.61">G</text>
<text x="425.23" y="133.61">D7</text>
<use x="25.33" y="170.01" xlink:href="#tclef"/>
<use x="40.33" y="146.01" xlink:href="#sh0"/>
<use x="58.83" y="149.01" xlink:href="#Hd"/>
<path d="M55.33 149.01v20.00" stroke="currentColor" fill="none"/>
<use x="93.23" y="152.01" xlink:href="#hd"/>
<path d="M89.73 152.01v20.00" stroke="currentColor" fill="none"/>
<path fill="currentColor"
	d="M128.93 143.01l16.70 0.00v3.20l-16.70 -0.00"/>
<use x="125.73" y="164.01" xlink:href="#hd"/>
<path d="M129.23 164.01v-20.00" stroke="currentColor" fill="none"/>
<use x="141.83" y="164.01" xlink:href="#hd"/>
<path d="M145.33 164.01v-20.00" stroke="currentColor" fill="none"/>
<use x="159.53" y="164.01" xlink:href="#hd"/>
<path d="M163.03 164.01v-20.00" stroke="currentColor" fill="none"/>
<use x="184.13" y="164.01" xlink:href="#hd"/>
<path d="M187.63 164.01v-20.00" stroke="currentColor" fill="none"/>
<use x="217.13" y="164.01" xlink:href="#Hd"/>
<path d="M220.63 164.01v-20.00" stroke="currentColor" fill="none"/>
<use x="251.53" y="164.01" xlink:href="#hd"/>
<path d="M255.03 164.01v-20.00" stroke="currentColor" fill="none"/>
<use x="283.93" y="164.01" xlink:href="#hd"/>
<circle fill="currentColor" cx="291.93" cy="161.01" r="1.2"/>
<path d="M287.43 164.01v-20.00" stroke="currentColor" fill="none"/>
<use x="312.73" y="164.01" xlink:href="#hd"/>
<path d="M316.23 164.01v-20.00" stroke="currentColor" fill="none"/>
<path fill="currentColor"
	d="	M316.23 144.01c0.6 5.6 9.6 9 5.6 18.4
	c1.6 -6 -1.3 -11.6 -5.6 -12.8
"/>
<use x="331.33" y="158.01" xlink:href="#hd"/>
<path d="M334.83 158.01v-20.00" stroke="currentColor" fill="none"/>
<use x="364.33" y="149.01" xlink:href="#Hd"/>
<path d="M360.83 149.01v20.00" stroke="currentColor" fill="none"/>
<use x="398.73" y="152.01" xlink:href="#hd"/>
<path d="M395.23 152.01v20.00" stroke="currentColor" fill="none"/>
<use x="431.73" y="155.01" xlink:href="#Hd"/>
<path d="M428.23 155.01v20.00" stroke="currentColor" fill="none"/>
<use x="466.13" y="152.01" xlink:href="#hd"/>
<path d="M462.63 152.01v20.00" stroke="currentColor" fill="none"/>
<use x="499.13" y="155.01" xlink:href="#Hd"/>
<circle fill="currentColor" cx="508.13" cy="155.01" r="1.2"/>
<path d="M495.63 155.01v20.00" stroke="currentColor" fill="none"/>
<use x="544.03" y="161.01" xlink:href="#hd"/>
<path d="M547.53 161.01v-20.00" stroke="currentColor" fill="none"/>
<use x="568.73" y="167.01" xlink:href="#hd"/>
<path d="M572.23 167.01v-20.00" stroke="currentColor" fill="none"/>
<use x="593.33" y="161.01" xlink:href="#hd"/>
<path d="M596.83 161.01v-20.00" stroke="currentColor" fill="none"/>
<use x="625.73" y="155.01" xlink:href="#hd"/>
<path d="M622.23 155.01v20.00" stroke="currentColor" fill="none"/>
<use x="650.33" y="146.01" xlink:href="#hd"/>
<path d="M646.83 146.01v20.00" stroke="currentColor" fill="none"/>
<use x="674.93" y="149.01" xlink:href="#hd"/>
<path d="M671.43 149.01v20.00" stroke="currentColor" fill="none"/>
<path stroke="currentColor" fill="none"
	d="M166.83 251.01v-24.00"/>
<path stroke="currentColor" fill="none" stroke-width="3"
	d="M259.53 251.01v-24.00"/>
<path stroke="currentColor" fill="none"
	d="M255.03 251.01v-24.00"/>
<defs>
<g id="rdots" fill="currentColor">
	<circle cx="0" cy="-9" r="1.2"/>
	<circle cx="0" cy="-15" r="1.2"/>
</g>
</defs>
<use x="251.03" y="251.01" xlink:href="#rdots"/>
<path stroke="currentColor" fill="none"
	d="M362.53 251.01v-24.00"/>
<path stroke="currentColor" fill="none"
	d="M448.53 251.01v-24.00"/>
<path stroke="currentColor" fill="none"
	d="M445.53 251.01v-24.00"/>
<path stroke="currentColor" fill="none"
	d="M545.13 251.01v-24.00"/>
<path stroke="currentColor" fill="none"
	d="M631.73 251.01v-24.00"/>
<path stroke="currentColor" fill="none"
	d="M694.93 251.01v-24.00"/>
<path stroke="currentColor" fill="none"
	d="M13.33 251.01h681.60m-681.60 -6h681.60m-681.60 -6h681.60m-681.60 -6h681.60m-681.60 -6h681.60"/>
<text x="73.03" y="206.61">G</text>
<text x="276.23" y="206.61">G</text>
<text x="454.53" y="206.61">D7</text>
<text x="553.83" y="206.61">G</text>
<text x="637.73" y="206.61">D7</text>
<text x="665.13" y="206.61">G</text>
</g>
<g transform="scale(0.750)" stroke-width="0.70" font-family="Times" font-size="13.00">
<text x="61.83" y="206.41">1</text>
<path stroke="currentColor" fill="none"
	d="M57.83 195.01v20M57.83 195.01h195.20v20"/>
<text x="265.03" y="206.41">2</text>
<path stroke="currentColor" fill="none"
	d="M261.03 195.01v20M261.03 195.01h187.50v20"/>
<use x="25.33" y="251.01" xlink:href="#tclef"/>
<use x="40.33" y="227.01" xlink:href="#sh0"/>
<path fill="currentColor"
	d="M73.03 265.41l76.90 -6.10v-3.20l-76.90 6.10"/>
<use x="76.83" y="245.01" xlink:href="#hd"/>
<path d="M73.33 245.01v19.40" stroke="currentColor" fill="none"/>
<use x="92.03" y="245.01" xlink:href="#hd"/>
<path d="M88.53 245.01v18.20" stroke="currentColor" fill="none"/>
<use x="107.33" y="239.01" xlink:href="#hd"/>
<path d="M103.83 239.01v23.00" stroke="currentColor" fill="none"/>
<use x="122.53" y="233.01" xlink:href="#hd"/>
<path d="M119.03 233.01v27.80" stroke="currentColor" fill="none"/>
<use x="137.73" y="239.01" xlink:href="#hd"/>
<path d="M134.23 239.01v20.60" stroke="currentColor" fill="none"/>
<use x="153.03" y="233.01" xlink:href="#hd"/>
<path d="M149.53 233.01v25.40" stroke="currentColor" fill="none"/>
<use x="179.33" y="245.01" xlink:href="#hd"/>
<path d="M182.83 245.01v-20.00" stroke="currentColor" fill="none"/>
<defs>
<path id="r4" fill="currentColor" d="m-1 -8.5
	l3.6 5.1 -2.1 5.2 2.2 4.3
	c-2.6 -2.3 -5.1 0 -2.4 2.6
	c-4.8 -3 -1.5 -6.9 1.4 -4.1
	l-3.1 -4.5 1.9 -5.1 -1.5 -3.5"/>
</defs>
<use x="202.33" y="239.01" xlink:href="#r4"/>
<path fill="currentColor"
	d="M221.43 258.61l15.90 -2.20v-3.20l-15.90 2.20"/>
<use x="225.33" y="239.01" xlink:href="#hd"/>
<path d="M221.83 239.01v18.60" stroke="currentColor" fill="none"/>
<use x="240.53" y="236.01" xlink:href="#hd"/>
<path d="M237.03 236.01v19.40" stroke="currentColor" fill="none"/>
<use x="280.03" y="224.01" xlink:href="#hd"/>
<path d="M276.53 224.01v20.00" stroke="currentColor" fill="none"/>
<path fill="currentColor"
	d="M299.23 252.81l46.40 5.50v-3.20l-46.40 -5.50"/>
<use x="303.03" y="227.01" xlink:href="#hd"/>
<path d="M299.53 227.01v24.80" stroke="currentColor" fill="none"/>
<use x="318.23" y="230.01" xlink:href="#hd"/>
<path d="M314.73 230.01v23.60" stroke="currentColor" fill="none"/>
<use x="333.53" y="233.01" xlink:href="#hd"/>
<path d="M330.03 233.01v22.40" stroke="currentColor" fill="none"/>
<use x="348.73" y="239.01" xlink:href="#hd"/>
<path d="M345.23 239.01v18.20" stroke="currentColor" fill="none"/>
<use x="375.03" y="245.01" xlink:href="#hd"/>
<path d="M378.53 245.01v-20.00" stroke="currentColor" fill="none"/>
<use x="398.03" y="239.01" xlink:href="#r4"/>
<path fill="currentColor"
	d="M422.03 221.61l15.90 -2.20v3.20l-15.90 2.20"/>
<use x="418.93" y="242.01" xlink:href="#hd"/>
<path d="M422.43 242.01v-19.40" stroke="currentColor" fill="none"/>
<use x="434.13" y="239.01" xlink:href="#hd"/>
<path d="M437.63 239.01v-18.60" stroke="currentColor" fill="none"/>
<use x="461.03" y="233.01" xlink:href="#hd"/>
<path d="M457.53 233.01v20.00" stroke="currentColor" fill="none"/>
<path fill="currentColor"
	d="M481.73 255.21l46.40 -6.60v-3.20l-46.40 6.60"/>
<use x="485.63" y="236.01" xlink:href="#hd"/>
<use x="476.63" y="236.01" xlink:href="#sh0"/>
<path d="M482.13 236.01v18.20" stroke="currentColor" fill="none"/>
<use x="500.83" y="233.01" xlink:href="#hd"/>
<path d="M497.33 233.01v19.00" stroke="currentColor" fill="none"/>
<use x="516.13" y="227.01" xlink:href="#hd"/>
<path d="M512.63 227.01v22.80" stroke="currentColor" fill="none"/>
<defs>
<path id="hl" stroke="currentColor" d="m-6 0h12"/>
</defs>
<use x="531.33" y="221.01" xlink:href="#hl"/>
<use x="531.33" y="221.01" xlink:href="#hd"/>
<path d="M527.83 221.01v26.70" stroke="currentColor" fill="none"/>
<path fill="currentColor"
	d="M553.83 243.31l15.90 -3.20v-3.20l-15.90 3.20"/>
<use x="557.63" y="224.01" xlink:href="#hd"/>
<path d="M554.13 224.01v18.20" stroke="currentColor" fill="none"/>
<use x="572.83" y="221.01" xlink:href="#hl"/>
<use x="572.83" y="218.01" xlink:href="#hd"/>
<path d="M569.33 218.01v21.20" stroke="currentColor" fill="none"/>
<use x="589.93" y="221.01" xlink:href="#hl"/>
<use x="589.93" y="218.01" xlink:href="#hd"/>
<path d="M586.43 218.01v21.00" stroke="currentColor" fill="none"/>
<use x="612.83" y="224.01" xlink:href="#hd"/>
<path d="M609.33 224.01v20.00" stroke="currentColor" fill="none"/>
<use x="644.23" y="221.01" xlink:href="#hl"/>
<use x="644.23" y="221.01" xlink:href="#hd"/>
<path d="M640.73 221.01v20.00" stroke="currentColor" fill="none"/>
<use x="668.93" y="224.01" xlink:href="#Hd"/>
<path d="M665.43 224.01v20.00" stroke="currentColor" fill="none"/>
<path stroke="currentColor" fill="none"
	d="M165.63 330.01v-24.00"/>
<path stroke="currentColor" fill="none"
	d="M299.73 330.01v-24.00"/>
<path stroke="currentColor" fill="none"
	d="M416.73 330.01v-24.00"/>
<path stroke="currentColor" fill="none"
	d="M574.03 330.01v-24.00"/>
<path stroke="currentColor" fill="none" stroke-width="3"
	d="M693.43 330.01v-24.00"/>
<path stroke="currentColor" fill="none"
	d="M688.93 330.01v-24.00"/>
<path stroke="currentColor" fill="none"
	d="M13.33 330.01h681.60m-681.60 -6h681.60m-681.60 -6h681.60m-681.60 -6h681.60m-681.60 -6h681.60"/>
</g>
<g transform="scale(0.750)" stroke-width="0.70" font-family="Helvetica" font-size="12.00">
<text x="50.43" y="285.61">Am</text>
<text x="172.73" y="285.61">D7</text>
<text x="583.83" y="285.61">G</text>
<use x="25.33" y="330.01" xlink:href="#tclef"/>
<use x="40.33" y="306.01" xlink:href="#sh0"/>
<use x="58.33" y="300.01" xlink:href="#hl"/>
<use x="58.33" y="297.01" xlink:href="#hd"/>
<path d="M54.83 297.01v21.00" stroke="currentColor" fill="none"/>
<use x="96.63" y="300.01" xlink:href="#hl"/>
<use x="96.63" y="300.01" xlink:href="#hd"/>
<path d="M93.13 300.01v20.00" stroke="currentColor" fill="none"/>
<use x="134.93" y="306.01" xlink:href="#hd"/>
<use x="125.93" y="306.01" xlink:href="#sh0"/>
<path d="M131.43 306.01v20.00" stroke="currentColor" fill="none"/>
<path fill="currentColor"
	d="M175.33 321.01l25.10 0.00v-3.20l-25.10 -0.00"/>
<use x="179.23" y="300.01" xlink:href="#hl"/>
<use x="179.23" y="300.01" xlink:href="#hd"/>
<path d="M175.73 300.01v20.00" stroke="currentColor" fill="none"/>
<use x="203.63" y="300.01" xlink:href="#hl"/>
<use x="203.63" y="300.01" xlink:href="#hd"/>
<path d="M200.13 300.01v20.00" stroke="currentColor" fill="none"/>
<use x="230.73" y="300.01" xlink:href="#hl"/>
<use x="230.73" y="300.01" xlink:href="#hd"/>
<path d="M227.23 300.01v20.00" stroke="currentColor" fill="none"/>
<use x="269.03" y="306.01" xlink:href="#hd"/>
<path d="M265.53 306.01v20.00" stroke="currentColor" fill="none"/>
<use x="313.23" y="309.01" xlink:href="#hd"/>
<path d="M309.73 309.01v20.00" stroke="currentColor" fill="none"/>
<use x="351.53" y="312.01" xlink:href="#hd"/>
<path d="M348.03 312.01v20.00" stroke="currentColor" fill="none"/>
<use x="386.03" y="327.01" xlink:href="#hd"/>
<path d="M389.53 327.01v-20.00" stroke="currentColor" fill="none"/>
<path fill="currentColor"
	d="M426.43 338.91l122.80 7.30v-3.20l-122.80 -7.30"/>
<use x="430.33" y="312.01" xlink:href="#hd"/>
<path d="M426.83 312.01v25.90" stroke="currentColor" fill="none"/>
<use x="454.73" y="315.01" xlink:href="#hd"/>
<use x="445.73" y="315.01" xlink:href="#sh0"/>
<path d="M451.23 315.01v24.40" stroke="currentColor" fill="none"/>
<use x="479.13" y="312.01" xlink:href="#hd"/>
<path d="M475.63 312.01v28.90" stroke="currentColor" fill="none"/>
<use x="503.53" y="315.01" xlink:href="#hd"/>
<defs>
<path id="unat" fill="currentColor" d="
	m96 -750
	h-32
	v716
	l32 -8
	l182 -54
	v282
	h32
	v-706
	l-34 10
	l-180 50
	v-290
	m0 592
	v-190
	l182 -52
	v188"/>
<use id="nt0" transform="translate(-3,5) scale(0.018)"
	xlink:href="#unat"/>
</defs>
<use x="494.53" y="315.01" xlink:href="#nt0"/>
<path d="M500.03 315.01v27.30" stroke="currentColor" fill="none"/>
<use x="527.93" y="321.01" xlink:href="#hd"/>
<path d="M524.43 321.01v22.80" stroke="currentColor" fill="none"/>
<use x="552.33" y="327.01" xlink:href="#hd"/>
<path d="M548.83 327.01v18.20" stroke="currentColor" fill="none"/>
<use x="587.63" y="324.01" xlink:href="#hd"/>
<path d="M591.13 324.01v-20.00" stroke="currentColor" fill="none"/>
<use x="625.93" y="318.01" xlink:href="#r4"/>
<use x="664.23" y="318.01" xlink:href="#r4"/>
</g>
</svg>
