<?xml version="1.0" standalone="no"?>
<!DOCTYPE svg PUBLIC "-//W3C//DTD SVG 1.1//EN"
	"http://www.w3.org/Graphics/SVG/1.1/DTD/svg11.dtd">
<svg xmlns="http://www.w3.org/2000/svg" version="1.1"
	xmlns:xlink="http://www.w3.org/1999/xlink"
	xml:space='preserve' color="black"
	width="7.38in" height="3.45in" viewBox="0 0 531 248">
<title>data/results/biggest_11/abc/246.abc (246) tune 1</title>
<!-- Creator: abcm2ps-7.8.14 -->
<!-- CreationDate: Aug  9, 2015 23:50 -->
<!-- CommandLine: -g data/results/biggest_11/abc/246.abc -O /home/allanino/Dropbox/Trabalhos/folkme/svg/246.svg -->
<g transform="scale(0.750)" stroke-width="0.70" font-family="Times" font-size="20.00">
<text x="354.13" y="21.67" text-anchor="middle">The Greumman</text>
<path stroke="currentColor" fill="none"
	d="M380.53 98.01v-24.00"/>
<path stroke="currentColor" fill="none"
	d="M694.93 98.01v-24.00"/>
<path stroke="currentColor" fill="none"
	d="M13.33 98.01h681.60m-681.60 -6h681.60m-681.60 -6h681.60m-681.60 -6h681.60m-681.60 -6h681.60"/>
<defs>
<path id="utclef" fill="currentColor" d="m-50 -90
	c-72 -41 -72 -158 52 -188
	c150 -10 220 188 90 256
	c-114 52 -275 0 -293 -136
	c-15 -181 93 -229 220 -334
	c88 -87 79 -133 62 -210
	c-51 33 -94 105 -89 186
	c17 267 36 374 49 574
	c6 96 -19 134 -77 135
	c-80 1 -126 -93 -61 -133
	c85 -41 133 101 31 105
	c23 17 92 37 90 -92
	c-10 -223 -39 -342 -50 -617
	c0 -90 0 -162 96 -232
	c56 72 63 230 22 289
	c-74 106 -257 168 -255 316
	c9 153 148 185 252 133
	c86 -65 29 -192 -80 -176
	c-71 12 -105 67 -59 124"/>
<use id="tclef" transform="scale(0.045)"
	xlink:href="#utclef"/>
</defs>
<use x="25.33" y="98.01" xlink:href="#tclef"/>
<defs>
<path id="usharp" fill="currentColor" d="
	m136 -702
	v890
	h32
	v-890
	m128 840
	h32
	v-888
	h-32
	m-232 286
	v116
	l338 -96
	v-116
	m-338 442
	v116
	l338 -98
	v-114"/>
<use id="sh0" transform="translate(-4,5) scale(0.018)"
	xlink:href="#usharp"/>
</defs>
<use x="40.33" y="74.01" xlink:href="#sh0"/>
<g font-family="serif" font-size="16" font-weight="bold" font-style="normal"
	transform="translate(56.33,98.01) scale(1.2,1)">
	<text y="-1" text-anchor="middle">8</text>
	<text y="-13" text-anchor="middle">9</text>
</g>
<path fill="currentColor"
	d="M70.53 111.21l276.30 0.00v-3.20l-276.30 -0.00"/>
<defs>
<ellipse id="hd" rx="4.1" ry="2.9"
	transform="rotate(-20)" fill="currentColor"/>
</defs>
<use x="74.33" y="83.01" xlink:href="#hd"/>
<path d="M70.83 83.01v27.20" stroke="currentColor" fill="none"/>
<use x="108.73" y="86.01" xlink:href="#hd"/>
<path d="M105.23 86.01v24.20" stroke="currentColor" fill="none"/>
<use x="143.23" y="83.01" xlink:href="#hd"/>
<path d="M139.73 83.01v27.20" stroke="currentColor" fill="none"/>
<use x="177.63" y="86.01" xlink:href="#hd"/>
<path d="M174.13 86.01v24.20" stroke="currentColor" fill="none"/>
<use x="212.13" y="83.01" xlink:href="#hd"/>
<path d="M208.63 83.01v27.20" stroke="currentColor" fill="none"/>
<use x="246.53" y="86.01" xlink:href="#hd"/>
<path d="M243.03 86.01v24.20" stroke="currentColor" fill="none"/>
<use x="281.03" y="80.01" xlink:href="#hd"/>
<path d="M277.53 80.01v30.20" stroke="currentColor" fill="none"/>
<use x="315.43" y="86.01" xlink:href="#hd"/>
<path d="M311.93 86.01v24.20" stroke="currentColor" fill="none"/>
<use x="349.93" y="92.01" xlink:href="#hd"/>
<path d="M346.43 92.01v18.20" stroke="currentColor" fill="none"/>
<path fill="currentColor"
	d="M402.83 63.81l172.90 0.00v3.20l-172.90 -0.00"/>
<use x="399.73" y="83.01" xlink:href="#hd"/>
<path d="M403.23 83.01v-18.20" stroke="currentColor" fill="none"/>
<use x="434.13" y="89.01" xlink:href="#hd"/>
<path d="M437.63 89.01v-24.20" stroke="currentColor" fill="none"/>
<use x="468.63" y="95.01" xlink:href="#hd"/>
<path d="M472.13 95.01v-30.20" stroke="currentColor" fill="none"/>
<use x="503.03" y="89.01" xlink:href="#hd"/>
<path d="M506.53 89.01v-24.20" stroke="currentColor" fill="none"/>
<use x="537.53" y="83.01" xlink:href="#hd"/>
<path d="M541.03 83.01v-18.20" stroke="currentColor" fill="none"/>
<use x="571.93" y="89.01" xlink:href="#hd"/>
<path d="M575.43 89.01v-24.20" stroke="currentColor" fill="none"/>
<use x="610.23" y="80.01" xlink:href="#hd"/>
<path d="M606.73 80.01v20.00" stroke="currentColor" fill="none"/>
<use x="664.33" y="83.01" xlink:href="#hd"/>
<path d="M660.83 83.01v20.00" stroke="currentColor" fill="none"/>
<path fill="currentColor"
	d="M660.83 103.01c0.6 -5.6 9.6 -9 5.6 -18.4
	c1.6 6 -1.3 11.6 -5.6 12.8
"/>
<path stroke="currentColor" fill="none"
	d="M349.13 168.01v-24.00"/>
<path stroke="currentColor" fill="none" stroke-width="3"
	d="M693.43 168.01v-24.00"/>
<path stroke="currentColor" fill="none"
	d="M688.93 168.01v-24.00"/>
<defs>
<g id="rdots" fill="currentColor">
	<circle cx="0" cy="-9" r="1.2"/>
	<circle cx="0" cy="-15" r="1.2"/>
</g>
</defs>
<use x="684.93" y="168.01" xlink:href="#rdots"/>
<path stroke="currentColor" fill="none"
	d="M13.33 168.01h681.60m-681.60 -6h681.60m-681.60 -6h681.60m-681.60 -6h681.60m-681.60 -6h681.60"/>
<use x="25.33" y="168.01" xlink:href="#tclef"/>
<use x="40.33" y="144.01" xlink:href="#sh0"/>
<use x="58.33" y="153.01" xlink:href="#hd"/>
<circle fill="currentColor" cx="66.33" cy="153.01" r="1.2"/>
<path d="M54.83 153.01v20.00" stroke="currentColor" fill="none"/>
<path fill="currentColor"
	d="M122.23 175.21l190.10 0.00v-3.20l-190.10 -0.00"/>
<use x="126.03" y="147.01" xlink:href="#hd"/>
<path d="M122.53 147.01v27.20" stroke="currentColor" fill="none"/>
<use x="163.93" y="150.01" xlink:href="#hd"/>
<path d="M160.43 150.01v24.20" stroke="currentColor" fill="none"/>
<use x="201.83" y="156.01" xlink:href="#hd"/>
<path d="M198.33 156.01v18.20" stroke="currentColor" fill="none"/>
<use x="239.73" y="147.01" xlink:href="#hd"/>
<path d="M236.23 147.01v27.20" stroke="currentColor" fill="none"/>
<use x="277.63" y="141.01" xlink:href="#hd"/>
<path d="M274.13 141.01v33.20" stroke="currentColor" fill="none"/>
<use x="315.53" y="147.01" xlink:href="#hd"/>
<path d="M312.03 147.01v27.20" stroke="currentColor" fill="none"/>
<path fill="currentColor"
	d="M373.43 130.81l190.10 6.30v3.20l-190.10 -6.30"/>
<use x="370.23" y="150.01" xlink:href="#hd"/>
<path d="M373.73 150.01v-18.20" stroke="currentColor" fill="none"/>
<use x="408.13" y="153.01" xlink:href="#hd"/>
<path d="M411.63 153.01v-20.00" stroke="currentColor" fill="none"/>
<use x="446.03" y="159.01" xlink:href="#hd"/>
<path d="M449.53 159.01v-24.70" stroke="currentColor" fill="none"/>
<use x="483.93" y="165.01" xlink:href="#hd"/>
<path d="M487.43 165.01v-29.50" stroke="currentColor" fill="none"/>
<use x="521.73" y="162.01" xlink:href="#hd"/>
<path d="M525.23 162.01v-25.20" stroke="currentColor" fill="none"/>
<use x="559.63" y="159.01" xlink:href="#hd"/>
<path d="M563.13 159.01v-21.00" stroke="currentColor" fill="none"/>
<use x="601.73" y="165.01" xlink:href="#hd"/>
<path d="M605.23 165.01v-20.00" stroke="currentColor" fill="none"/>
<use x="661.23" y="150.01" xlink:href="#hd"/>
<path d="M657.73 150.01v20.00" stroke="currentColor" fill="none"/>
<path fill="currentColor"
	d="M657.73 170.01c0.6 -5.6 9.6 -9 5.6 -18.4
	c1.6 6 -1.3 11.6 -5.6 12.8
"/>
<use x="64.83" y="238.01" xlink:href="#rdots"/>
<path stroke="currentColor" fill="none"
	d="M60.83 238.01v-24.00"/>
<path stroke="currentColor" fill="none" stroke-width="3"
	d="M56.33 238.01v-24.00"/>
<path stroke="currentColor" fill="none"
	d="M225.33 238.01v-24.00"/>
<path stroke="currentColor" fill="none"
	d="M378.73 238.01v-24.00"/>
<path stroke="currentColor" fill="none"
	d="M532.23 238.01v-24.00"/>
<path stroke="currentColor" fill="none"
	d="M694.93 238.01v-24.00"/>
<path stroke="currentColor" fill="none"
	d="M13.33 238.01h681.60m-681.60 -6h681.60m-681.60 -6h681.60m-681.60 -6h681.60m-681.60 -6h681.60"/>
<use x="25.33" y="238.01" xlink:href="#tclef"/>
<use x="40.33" y="214.01" xlink:href="#sh0"/>
<use x="78.33" y="211.01" xlink:href="#hd"/>
<path d="M74.83 211.01v20.00" stroke="currentColor" fill="none"/>
<path fill="currentColor"
	d="M101.43 241.01l105.10 0.00v-3.20l-105.10 -0.00"/>
<use x="105.23" y="220.01" xlink:href="#hd"/>
<path d="M101.73 220.01v20.00" stroke="currentColor" fill="none"/>
<defs>
<path id="hl" stroke="currentColor" d="m-6 0h12"/>
</defs>
<use x="122.63" y="208.01" xlink:href="#hl"/>
<use x="122.63" y="205.01" xlink:href="#hd"/>
<path d="M119.13 205.01v35.00" stroke="currentColor" fill="none"/>
<use x="140.03" y="220.01" xlink:href="#hd"/>
<path d="M136.53 220.01v20.00" stroke="currentColor" fill="none"/>
<use x="157.53" y="208.01" xlink:href="#hl"/>
<use x="157.53" y="205.01" xlink:href="#hd"/>
<path d="M154.03 205.01v35.00" stroke="currentColor" fill="none"/>
<use x="174.93" y="223.01" xlink:href="#hd"/>
<path d="M171.43 223.01v17.00" stroke="currentColor" fill="none"/>
<use x="192.33" y="208.01" xlink:href="#hl"/>
<use x="192.33" y="208.01" xlink:href="#hd"/>
<path d="M188.83 208.01v32.00" stroke="currentColor" fill="none"/>
<use x="209.73" y="223.01" xlink:href="#hd"/>
<path d="M206.23 223.01v17.00" stroke="currentColor" fill="none"/>
<use x="237.83" y="226.01" xlink:href="#hd"/>
<path d="M234.33 226.01v20.00" stroke="currentColor" fill="none"/>
<path fill="currentColor"
	d="M260.93 236.31l52.90 5.90v-3.20l-52.90 -5.90"/>
<use x="264.73" y="211.01" xlink:href="#hd"/>
<path d="M261.23 211.01v24.30" stroke="currentColor" fill="none"/>
<use x="282.13" y="211.01" xlink:href="#hd"/>
<path d="M278.63 211.01v26.30" stroke="currentColor" fill="none"/>
<use x="299.53" y="217.01" xlink:href="#hd"/>
<path d="M296.03 217.01v22.20" stroke="currentColor" fill="none"/>
<use x="316.93" y="223.01" xlink:href="#hd"/>
<path d="M313.43 223.01v18.20" stroke="currentColor" fill="none"/>
<use x="336.23" y="220.01" xlink:href="#hd"/>
<path d="M332.73 220.01v20.00" stroke="currentColor" fill="none"/>
<use x="363.13" y="226.01" xlink:href="#hd"/>
<path d="M359.63 226.01v20.00" stroke="currentColor" fill="none"/>
<path fill="currentColor"
	d="M359.63 246.01c0.6 -5.6 9.6 -9 5.6 -18.4
	c1.6 6 -1.3 11.6 -5.6 12.8
"/>
<use x="391.23" y="217.01" xlink:href="#hd"/>
<path d="M387.73 217.01v20.00" stroke="currentColor" fill="none"/>
<use x="418.23" y="223.01" xlink:href="#hd"/>
<path d="M414.73 223.01v20.00" stroke="currentColor" fill="none"/>
<path fill="currentColor"
	d="M414.73 243.01c0.6 -5.6 9.6 -9 5.6 -18.4
	c1.6 6 -1.3 11.6 -5.6 12.8
"/>
<use x="437.43" y="211.01" xlink:href="#hd"/>
<path d="M433.93 211.01v20.00" stroke="currentColor" fill="none"/>
<path fill="currentColor"
	d="M460.53 244.41l52.90 6.90v-3.20l-52.90 -6.90"/>
<use x="464.33" y="217.01" xlink:href="#hd"/>
<path d="M460.83 217.01v26.40" stroke="currentColor" fill="none"/>
<use x="481.83" y="220.01" xlink:href="#hd"/>
<path d="M478.33 220.01v25.70" stroke="currentColor" fill="none"/>
<use x="499.23" y="226.01" xlink:href="#hd"/>
<path d="M495.73 226.01v21.90" stroke="currentColor" fill="none"/>
<use x="516.63" y="232.01" xlink:href="#hd"/>
<path d="M513.13 232.01v18.20" stroke="currentColor" fill="none"/>
<path fill="currentColor"
	d="M547.83 203.81l87.70 0.00v3.20l-87.70 -0.00"/>
<use x="544.73" y="223.01" xlink:href="#hd"/>
<path d="M548.23 223.01v-18.20" stroke="currentColor" fill="none"/>
<use x="562.13" y="229.01" xlink:href="#hd"/>
<path d="M565.63 229.01v-24.20" stroke="currentColor" fill="none"/>
<use x="579.53" y="229.01" xlink:href="#hd"/>
<path d="M583.03 229.01v-24.20" stroke="currentColor" fill="none"/>
<use x="596.93" y="226.01" xlink:href="#hd"/>
<path d="M600.43 226.01v-21.20" stroke="currentColor" fill="none"/>
<use x="614.33" y="229.01" xlink:href="#hd"/>
<path d="M617.83 229.01v-24.20" stroke="currentColor" fill="none"/>
<use x="631.73" y="235.01" xlink:href="#hd"/>
<path d="M635.23 235.01v-30.20" stroke="currentColor" fill="none"/>
<use x="651.03" y="232.01" xlink:href="#hd"/>
<path d="M654.53 232.01v-20.00" stroke="currentColor" fill="none"/>
<use x="677.93" y="229.01" xlink:href="#hd"/>
<path d="M681.43 229.01v-20.00" stroke="currentColor" fill="none"/>
<path fill="currentColor"
	d="	M681.43 209.01c0.6 5.6 9.6 9 5.6 18.4
	c1.6 -6 -1.3 -11.6 -5.6 -12.8
"/>
<path stroke="currentColor" fill="none"
	d="M211.53 308.01v-24.00"/>
<path stroke="currentColor" fill="none"
	d="M369.13 308.01v-24.00"/>
<path stroke="currentColor" fill="none"
	d="M541.13 308.01v-24.00"/>
<path stroke="currentColor" fill="none" stroke-width="3"
	d="M693.43 308.01v-24.00"/>
<path stroke="currentColor" fill="none"
	d="M688.93 308.01v-24.00"/>
<use x="684.93" y="308.01" xlink:href="#rdots"/>
<path stroke="currentColor" fill="none"
	d="M13.33 308.01h681.60m-681.60 -6h681.60m-681.60 -6h681.60m-681.60 -6h681.60m-681.60 -6h681.60"/>
<use x="25.33" y="308.01" xlink:href="#tclef"/>
<use x="40.33" y="284.01" xlink:href="#sh0"/>
<use x="58.33" y="296.01" xlink:href="#hd"/>
<path d="M54.83 296.01v20.00" stroke="currentColor" fill="none"/>
<use x="87.73" y="281.01" xlink:href="#hd"/>
<path d="M84.23 281.01v20.00" stroke="currentColor" fill="none"/>
<path fill="currentColor"
	d="M84.23 301.01c0.6 -5.6 9.6 -9 5.6 -18.4
	c1.6 6 -1.3 11.6 -5.6 12.8
"/>
<use x="108.63" y="281.01" xlink:href="#hd"/>
<path d="M105.13 281.01v20.00" stroke="currentColor" fill="none"/>
<path fill="currentColor"
	d="M134.23 302.21l57.30 0.00v-3.20l-57.30 -0.00"/>
<use x="138.03" y="278.01" xlink:href="#hl"/>
<use x="138.03" y="278.01" xlink:href="#hd"/>
<path d="M134.53 278.01v23.20" stroke="currentColor" fill="none"/>
<use x="156.93" y="284.01" xlink:href="#hd"/>
<path d="M153.43 284.01v17.20" stroke="currentColor" fill="none"/>
<use x="175.83" y="281.01" xlink:href="#hd"/>
<path d="M172.33 281.01v20.20" stroke="currentColor" fill="none"/>
<use x="194.73" y="284.01" xlink:href="#hd"/>
<path d="M191.23 284.01v17.20" stroke="currentColor" fill="none"/>
<use x="224.03" y="287.01" xlink:href="#hd"/>
<path d="M220.53 287.01v20.00" stroke="currentColor" fill="none"/>
<use x="253.53" y="290.01" xlink:href="#hd"/>
<path d="M250.03 290.01v20.00" stroke="currentColor" fill="none"/>
<path fill="currentColor"
	d="M250.03 310.01c0.6 -5.6 9.6 -9 5.6 -18.4
	c1.6 6 -1.3 11.6 -5.6 12.8
"/>
<use x="274.43" y="293.01" xlink:href="#hd"/>
<path d="M270.93 293.01v20.00" stroke="currentColor" fill="none"/>
<use x="303.83" y="296.01" xlink:href="#hd"/>
<path d="M300.33 296.01v20.00" stroke="currentColor" fill="none"/>
<path fill="currentColor"
	d="M300.33 316.01c0.6 -5.6 9.6 -9 5.6 -18.4
	c1.6 6 -1.3 11.6 -5.6 12.8
"/>
<use x="322.73" y="299.01" xlink:href="#hd"/>
<path d="M326.23 299.01v-20.00" stroke="currentColor" fill="none"/>
<use x="352.23" y="281.01" xlink:href="#hd"/>
<path d="M348.73 281.01v20.00" stroke="currentColor" fill="none"/>
<path fill="currentColor"
	d="M348.73 301.01c0.6 -5.6 9.6 -9 5.6 -18.4
	c1.6 6 -1.3 11.6 -5.6 12.8
"/>
<use x="381.63" y="278.01" xlink:href="#hl"/>
<use x="381.63" y="275.01" xlink:href="#hd"/>
<path d="M378.13 275.01v21.00" stroke="currentColor" fill="none"/>
<path fill="currentColor"
	d="M407.13 321.21l114.00 0.00v-3.20l-114.00 -0.00"/>
<use x="411.03" y="290.01" xlink:href="#hd"/>
<path d="M407.53 290.01v30.20" stroke="currentColor" fill="none"/>
<use x="429.83" y="281.01" xlink:href="#hd"/>
<path d="M426.33 281.01v39.20" stroke="currentColor" fill="none"/>
<use x="448.73" y="296.01" xlink:href="#hd"/>
<path d="M445.23 296.01v24.20" stroke="currentColor" fill="none"/>
<use x="467.63" y="293.01" xlink:href="#hd"/>
<path d="M464.13 293.01v27.20" stroke="currentColor" fill="none"/>
<use x="486.53" y="290.01" xlink:href="#hd"/>
<path d="M483.03 290.01v30.20" stroke="currentColor" fill="none"/>
<use x="505.43" y="296.01" xlink:href="#hd"/>
<path d="M501.93 296.01v24.20" stroke="currentColor" fill="none"/>
<use x="524.33" y="302.01" xlink:href="#hd"/>
<path d="M520.83 302.01v18.20" stroke="currentColor" fill="none"/>
<path fill="currentColor"
	d="M549.83 321.21l95.10 0.00v-3.20l-95.10 -0.00"/>
<use x="553.63" y="299.01" xlink:href="#hd"/>
<path d="M550.13 299.01v21.20" stroke="currentColor" fill="none"/>
<use x="572.53" y="278.01" xlink:href="#hl"/>
<use x="572.53" y="278.01" xlink:href="#hd"/>
<path d="M569.03 278.01v42.20" stroke="currentColor" fill="none"/>
<use x="591.43" y="302.01" xlink:href="#hd"/>
<path d="M587.93 302.01v18.20" stroke="currentColor" fill="none"/>
<use x="610.33" y="302.01" xlink:href="#hd"/>
<path d="M606.83 302.01v18.20" stroke="currentColor" fill="none"/>
<use x="629.13" y="296.01" xlink:href="#hd"/>
<path d="M625.63 296.01v24.20" stroke="currentColor" fill="none"/>
<use x="648.03" y="293.01" xlink:href="#hd"/>
<path d="M644.53 293.01v27.20" stroke="currentColor" fill="none"/>
<use x="666.93" y="299.01" xlink:href="#hd"/>
<circle fill="currentColor" cx="674.93" cy="299.01" r="1.2"/>
<path d="M670.43 299.01v-20.00" stroke="currentColor" fill="none"/>
</g>
</svg>
