<?xml version="1.0" standalone="no"?>
<!DOCTYPE svg PUBLIC "-//W3C//DTD SVG 1.1//EN"
	"http://www.w3.org/Graphics/SVG/1.1/DTD/svg11.dtd">
<svg xmlns="http://www.w3.org/2000/svg" version="1.1"
	xmlns:xlink="http://www.w3.org/1999/xlink"
	xml:space='preserve' color="black"
	width="7.38in" height="4.24in" viewBox="0 0 531 305">
<title>data/results/biggest_11/abc/251.abc (251) tune 1</title>
<!-- Creator: abcm2ps-7.8.14 -->
<!-- CreationDate: Aug  9, 2015 23:50 -->
<!-- CommandLine: -g data/results/biggest_11/abc/251.abc -O /home/allanino/Dropbox/Trabalhos/folkme/svg/251.svg -->
<g transform="scale(0.750)" stroke-width="0.70" font-family="Times" font-size="20.00">
<text x="354.13" y="21.67" text-anchor="middle">Ländler GC chords</text>
</g>
<g transform="scale(0.750)" stroke-width="0.70" font-family="Times" font-size="16.00">
<text x="354.13" y="41.30" text-anchor="middle">Hanny Christen. Bd.VI  Uri I. S.218 (pk09573) orig. F,C,Bb-Dur</text>
<text x="354.13" y="60.13" text-anchor="middle">Z&quot;DCAnzhurz Küzehem (Luzern)</text>
<defs>
<g id="rdots" fill="currentColor">
	<circle cx="0" cy="-9" r="1.2"/>
	<circle cx="0" cy="-15" r="1.2"/>
</g>
</defs>
<use x="104.73" y="138.67" xlink:href="#rdots"/>
<path stroke="currentColor" fill="none"
	d="M100.73 138.67v-24.00"/>
<path stroke="currentColor" fill="none" stroke-width="3"
	d="M96.23 138.67v-24.00"/>
<path stroke="currentColor" fill="none"
	d="M161.93 138.67v-24.00"/>
<path stroke="currentColor" fill="none"
	d="M216.83 138.67v-24.00"/>
<path stroke="currentColor" fill="none"
	d="M262.03 138.67v-24.00"/>
<path stroke="currentColor" fill="none"
	d="M315.73 138.67v-24.00"/>
<path stroke="currentColor" fill="none"
	d="M367.53 138.67v-24.00"/>
<path stroke="currentColor" fill="none"
	d="M444.63 138.67v-24.00"/>
<path stroke="currentColor" fill="none"
	d="M488.43 138.67v-24.00"/>
<path stroke="currentColor" fill="none"
	d="M542.23 138.67v-24.00"/>
<path stroke="currentColor" fill="none"
	d="M588.23 138.67v-24.00"/>
<path stroke="currentColor" fill="none"
	d="M633.43 138.67v-24.00"/>
<path stroke="currentColor" fill="none"
	d="M694.93 138.67v-24.00"/>
<path stroke="currentColor" fill="none"
	d="M13.33 138.67h681.60m-681.60 -6h681.60m-681.60 -6h681.60m-681.60 -6h681.60m-681.60 -6h681.60"/>
</g>
<g transform="scale(0.750)" stroke-width="0.70" font-family="Helvetica" font-size="12.00">
<text x="112.03" y="100.27">C7</text>
<text x="226.83" y="100.27">F</text>
<text x="328.73" y="100.27">G7</text>
<text x="454.13" y="100.27">C</text>
<text x="548.83" y="100.27">G7</text>
<text x="642.43" y="100.27">C</text>
<defs>
<path id="utclef" fill="currentColor" d="m-50 -90
	c-72 -41 -72 -158 52 -188
	c150 -10 220 188 90 256
	c-114 52 -275 0 -293 -136
	c-15 -181 93 -229 220 -334
	c88 -87 79 -133 62 -210
	c-51 33 -94 105 -89 186
	c17 267 36 374 49 574
	c6 96 -19 134 -77 135
	c-80 1 -126 -93 -61 -133
	c85 -41 133 101 31 105
	c23 17 92 37 90 -92
	c-10 -223 -39 -342 -50 -617
	c0 -90 0 -162 96 -232
	c56 72 63 230 22 289
	c-74 106 -257 168 -255 316
	c9 153 148 185 252 133
	c86 -65 29 -192 -80 -176
	c-71 12 -105 67 -59 124"/>
<use id="tclef" transform="scale(0.045)"
	xlink:href="#utclef"/>
</defs>
<use x="25.33" y="138.67" xlink:href="#tclef"/>
<defs>
<path id="uflat" fill="currentColor" d="
	m100 -746
	h32
	v734
	l-32 4
	m32 -332
	c46 -72 152 -90 208 -20
	c100 110 -120 326 -208 348
	m0 -28
	c54 0 200 -206 130 -290
	c-50 -60 -130 -4 -130 34"/>
<use id="ft0" transform="translate(-3.5,3.5) scale(0.018)"
	xlink:href="#uflat"/>
</defs>
<use x="40.33" y="126.67" xlink:href="#ft0"/>
<g font-family="serif" font-size="16" font-weight="bold" font-style="normal"
	transform="translate(56.33,138.67) scale(1.2,1)">
	<text y="-1" text-anchor="middle">4</text>
	<text y="-13" text-anchor="middle">3</text>
</g>
<path fill="currentColor"
	d="M77.53 124.17l11.60 -2.10v3.20l-11.60 2.10"/>
<defs>
<path id="hl" stroke="currentColor" d="m-6 0h12"/>
</defs>
<use x="74.33" y="144.67" xlink:href="#hl"/>
<defs>
<ellipse id="hd" rx="4.1" ry="2.9"
	transform="rotate(-20)" fill="currentColor"/>
</defs>
<use x="74.33" y="144.67" xlink:href="#hd"/>
<path d="M77.83 144.67v-19.50" stroke="currentColor" fill="none"/>
<use x="85.23" y="141.67" xlink:href="#hd"/>
<path d="M88.73 141.67v-18.50" stroke="currentColor" fill="none"/>
<use x="118.23" y="144.67" xlink:href="#hl"/>
<use x="118.23" y="144.67" xlink:href="#hd"/>
<path d="M121.73 144.67v-20.00" stroke="currentColor" fill="none"/>
<use x="133.63" y="144.67" xlink:href="#hl"/>
<use x="133.63" y="147.67" xlink:href="#hd"/>
<path d="M137.13 147.67v-21.00" stroke="currentColor" fill="none"/>
<use x="149.03" y="144.67" xlink:href="#hl"/>
<use x="149.03" y="144.67" xlink:href="#hd"/>
<path d="M152.53 144.67v-20.00" stroke="currentColor" fill="none"/>
<use x="174.43" y="138.67" xlink:href="#hd"/>
<path d="M177.93 138.67v-20.00" stroke="currentColor" fill="none"/>
<use x="189.23" y="132.67" xlink:href="#hd"/>
<path d="M192.73 132.67v-20.00" stroke="currentColor" fill="none"/>
<use x="203.93" y="144.67" xlink:href="#hl"/>
<use x="203.93" y="144.67" xlink:href="#hd"/>
<path d="M207.43 144.67v-20.00" stroke="currentColor" fill="none"/>
<defs>
<path id="Hd" fill="currentColor" d="m3 -1.6
	c-1 -1.8 -7 1.4 -6 3.2
	c1 1.8 7 -1.4 6 -3.2
	m0.5 -0.3
	c2 3.8 -5 7.6 -7 3.8
	c-2 -3.8 5 -7.6 7 -3.8"/>
</defs>
<use x="229.83" y="129.67" xlink:href="#Hd"/>
<path d="M233.33 129.67v-20.00" stroke="currentColor" fill="none"/>
<use x="249.23" y="144.67" xlink:href="#hl"/>
<use x="249.23" y="144.67" xlink:href="#hd"/>
<path d="M252.73 144.67v-20.00" stroke="currentColor" fill="none"/>
<use x="275.03" y="135.67" xlink:href="#Hd"/>
<path d="M278.53 135.67v-20.00" stroke="currentColor" fill="none"/>
<path fill="currentColor"
	d="M297.63 122.17l11.60 2.10v3.20l-11.60 -2.10"/>
<use x="294.53" y="141.67" xlink:href="#hd"/>
<path d="M298.03 141.67v-18.50" stroke="currentColor" fill="none"/>
<use x="305.33" y="144.67" xlink:href="#hl"/>
<use x="305.33" y="144.67" xlink:href="#hd"/>
<path d="M308.83 144.67v-19.50" stroke="currentColor" fill="none"/>
<use x="335.23" y="144.67" xlink:href="#hl"/>
<use x="335.23" y="147.67" xlink:href="#Hd"/>
<defs>
<path id="unat" fill="currentColor" d="
	m96 -750
	h-32
	v716
	l32 -8
	l182 -54
	v282
	h32
	v-706
	l-34 10
	l-180 50
	v-290
	m0 592
	v-190
	l182 -52
	v188"/>
<use id="nt0" transform="translate(-3,5) scale(0.018)"
	xlink:href="#unat"/>
</defs>
<use x="325.23" y="147.67" xlink:href="#nt0"/>
<path d="M338.73 147.67v-21.00" stroke="currentColor" fill="none"/>
<use x="354.63" y="141.67" xlink:href="#hd"/>
<path d="M358.13 141.67v-20.00" stroke="currentColor" fill="none"/>
<path fill="currentColor"
	d="M383.13 107.47l55.00 0.00v3.20l-55.00 -0.00"/>
<use x="380.03" y="132.67" xlink:href="#hd"/>
<path d="M383.53 132.67v-24.20" stroke="currentColor" fill="none"/>
<use x="390.83" y="129.67" xlink:href="#hd"/>
<path d="M394.33 129.67v-21.20" stroke="currentColor" fill="none"/>
<use x="401.73" y="126.67" xlink:href="#hd"/>
<path d="M405.23 126.67v-18.20" stroke="currentColor" fill="none"/>
<use x="412.63" y="129.67" xlink:href="#hd"/>
<path d="M416.13 129.67v-21.20" stroke="currentColor" fill="none"/>
<use x="423.43" y="132.67" xlink:href="#hd"/>
<path d="M426.93 132.67v-24.20" stroke="currentColor" fill="none"/>
<use x="434.33" y="126.67" xlink:href="#hd"/>
<path d="M437.83 126.67v-18.20" stroke="currentColor" fill="none"/>
<use x="457.63" y="120.67" xlink:href="#Hd"/>
<path d="M454.13 120.67v20.00" stroke="currentColor" fill="none"/>
<use x="475.63" y="132.67" xlink:href="#hd"/>
<path d="M479.13 132.67v-20.00" stroke="currentColor" fill="none"/>
<use x="500.93" y="123.67" xlink:href="#hd"/>
<path d="M497.43 123.67v20.00" stroke="currentColor" fill="none"/>
<use x="514.63" y="138.67" xlink:href="#hd"/>
<path d="M518.13 138.67v-20.00" stroke="currentColor" fill="none"/>
<use x="529.43" y="144.67" xlink:href="#hl"/>
<use x="529.43" y="144.67" xlink:href="#hd"/>
<path d="M532.93 144.67v-20.00" stroke="currentColor" fill="none"/>
<use x="555.23" y="144.67" xlink:href="#hl"/>
<use x="555.23" y="150.67" xlink:href="#hl"/>
<use x="555.23" y="153.67" xlink:href="#Hd"/>
<path d="M558.73 153.67v-27.00" stroke="currentColor" fill="none"/>
<use x="575.33" y="144.67" xlink:href="#hl"/>
<use x="575.33" y="150.67" xlink:href="#hl"/>
<use x="575.33" y="150.67" xlink:href="#hd"/>
<path d="M578.83 150.67v-24.00" stroke="currentColor" fill="none"/>
<use x="601.23" y="141.67" xlink:href="#Hd"/>
<path d="M604.73 141.67v-20.00" stroke="currentColor" fill="none"/>
<use x="620.63" y="135.67" xlink:href="#hd"/>
<path d="M624.13 135.67v-20.00" stroke="currentColor" fill="none"/>
<use x="645.93" y="129.67" xlink:href="#hd"/>
<circle fill="currentColor" cx="653.93" cy="129.67" r="1.2"/>
<path d="M649.43 129.67v-20.00" stroke="currentColor" fill="none"/>
<use x="665.63" y="132.67" xlink:href="#hd"/>
<path d="M669.13 132.67v-20.00" stroke="currentColor" fill="none"/>
<path fill="currentColor"
	d="	M669.13 112.67c0.6 5.6 9.6 9 5.6 18.4
	c1.6 -6 -1.3 -11.6 -5.6 -12.8
"/>
<use x="682.13" y="129.67" xlink:href="#hd"/>
<path d="M685.63 129.67v-20.00" stroke="currentColor" fill="none"/>
<path stroke="currentColor" fill="none"
	d="M145.83 222.67v-24.00"/>
<path stroke="currentColor" fill="none"
	d="M260.43 222.67v-24.00"/>
<path stroke="currentColor" fill="none"
	d="M315.33 222.67v-24.00"/>
<path stroke="currentColor" fill="none"
	d="M449.83 222.67v-24.00"/>
<path stroke="currentColor" fill="none"
	d="M571.23 222.67v-24.00"/>
<path stroke="currentColor" fill="none"
	d="M694.93 222.67v-24.00"/>
<path stroke="currentColor" fill="none"
	d="M13.33 222.67h681.60m-681.60 -6h681.60m-681.60 -6h681.60m-681.60 -6h681.60m-681.60 -6h681.60"/>
<text x="151.93" y="173.27">D7</text>
<text x="323.93" y="173.27">G</text>
<text x="455.93" y="173.27">G7</text>
<text x="580.23" y="173.27">C</text>
<use x="25.33" y="222.67" xlink:href="#tclef"/>
<use x="40.33" y="210.67" xlink:href="#ft0"/>
<use x="58.33" y="207.67" xlink:href="#hd"/>
<path d="M54.83 207.67v20.00" stroke="currentColor" fill="none"/>
<defs>
<path id="r4" fill="currentColor" d="m-1 -8.5
	l3.6 5.1 -2.1 5.2 2.2 4.3
	c-2.6 -2.3 -5.1 0 -2.4 2.6
	c-4.8 -3 -1.5 -6.9 1.4 -4.1
	l-3.1 -4.5 1.9 -5.1 -1.5 -3.5"/>
</defs>
<use x="90.73" y="210.67" xlink:href="#r4"/>
<use x="119.83" y="216.67" xlink:href="#hd"/>
<path d="M123.33 216.67v-20.00" stroke="currentColor" fill="none"/>
<path fill="currentColor"
	d="M161.53 198.37l21.40 -3.90v3.20l-21.40 3.90"/>
<use x="158.33" y="219.67" xlink:href="#hd"/>
<path d="M161.83 219.67v-20.40" stroke="currentColor" fill="none"/>
<use x="179.03" y="213.67" xlink:href="#hd"/>
<path d="M182.53 213.67v-18.20" stroke="currentColor" fill="none"/>
<use x="202.03" y="222.67" xlink:href="#hd"/>
<path d="M205.53 222.67v-20.00" stroke="currentColor" fill="none"/>
<use x="234.43" y="216.67" xlink:href="#hd"/>
<path d="M237.93 216.67v-20.00" stroke="currentColor" fill="none"/>
<use x="273.43" y="219.67" xlink:href="#Hd"/>
<circle fill="currentColor" cx="282.43" cy="219.67" r="1.2"/>
<path d="M276.93 219.67v-20.00" stroke="currentColor" fill="none"/>
<path fill="currentColor"
	d="M323.93 235.87l104.30 -11.70v-3.20l-104.30 11.70"/>
<use x="327.83" y="216.67" xlink:href="#hd"/>
<path d="M324.33 216.67v18.20" stroke="currentColor" fill="none"/>
<use x="348.53" y="213.67" xlink:href="#hd"/>
<path d="M345.03 213.67v18.90" stroke="currentColor" fill="none"/>
<use x="369.23" y="210.67" xlink:href="#hd"/>
<path d="M365.73 210.67v19.50" stroke="currentColor" fill="none"/>
<use x="389.93" y="207.67" xlink:href="#hd"/>
<path d="M386.43 207.67v20.20" stroke="currentColor" fill="none"/>
<use x="410.63" y="204.67" xlink:href="#hd"/>
<path d="M407.13 204.67v20.90" stroke="currentColor" fill="none"/>
<use x="431.43" y="201.67" xlink:href="#hd"/>
<path d="M427.93 201.67v21.60" stroke="currentColor" fill="none"/>
<path fill="currentColor"
	d="M458.53 224.87l62.80 5.00v-3.20l-62.80 -5.00"/>
<use x="462.33" y="201.67" xlink:href="#hd"/>
<path d="M458.83 201.67v22.20" stroke="currentColor" fill="none"/>
<use x="483.13" y="198.67" xlink:href="#hd"/>
<path d="M479.63 198.67v26.90" stroke="currentColor" fill="none"/>
<use x="503.83" y="204.67" xlink:href="#hd"/>
<path d="M500.33 204.67v22.50" stroke="currentColor" fill="none"/>
<use x="524.53" y="210.67" xlink:href="#hd"/>
<path d="M521.03 210.67v18.20" stroke="currentColor" fill="none"/>
<use x="545.23" y="216.67" xlink:href="#hd"/>
<path d="M548.73 216.67v-20.00" stroke="currentColor" fill="none"/>
<path fill="currentColor"
	d="M586.93 182.37l62.80 9.20v3.20l-62.80 -9.20"/>
<use x="583.73" y="201.67" xlink:href="#hd"/>
<path d="M587.23 201.67v-18.20" stroke="currentColor" fill="none"/>
<use x="604.43" y="207.67" xlink:href="#hd"/>
<path d="M607.93 207.67v-21.20" stroke="currentColor" fill="none"/>
<use x="625.13" y="216.67" xlink:href="#hd"/>
<path d="M628.63 216.67v-27.10" stroke="currentColor" fill="none"/>
<use x="645.93" y="222.67" xlink:href="#hd"/>
<path d="M649.43 222.67v-30.10" stroke="currentColor" fill="none"/>
<use x="668.93" y="207.67" xlink:href="#hd"/>
<path d="M665.43 207.67v20.00" stroke="currentColor" fill="none"/>
<path stroke="currentColor" fill="none"
	d="M210.13 300.67v-24.00"/>
<path stroke="currentColor" fill="none"
	d="M376.23 300.67v-24.00"/>
<path stroke="currentColor" fill="none"
	d="M528.83 300.67v-24.00"/>
<path stroke="currentColor" fill="none"
	d="M694.93 300.67v-24.00"/>
<path stroke="currentColor" fill="none"
	d="M13.33 300.67h681.60m-681.60 -6h681.60m-681.60 -6h681.60m-681.60 -6h681.60m-681.60 -6h681.60"/>
<text x="50.43" y="257.27">Dm</text>
<text x="220.93" y="257.27">C</text>
<text x="384.03" y="257.27">G7</text>
<text x="539.63" y="257.27">C</text>
<use x="25.33" y="300.67" xlink:href="#tclef"/>
<use x="40.33" y="288.67" xlink:href="#ft0"/>
<path fill="currentColor"
	d="M61.53 273.67l129.50 0.00v3.20l-129.50 -0.00"/>
<use x="58.33" y="303.67" xlink:href="#hd"/>
<path d="M61.83 303.67v-29.00" stroke="currentColor" fill="none"/>
<use x="84.13" y="297.67" xlink:href="#hd"/>
<path d="M87.63 297.67v-23.00" stroke="currentColor" fill="none"/>
<use x="109.83" y="291.67" xlink:href="#hd"/>
<path d="M113.33 291.67v-17.00" stroke="currentColor" fill="none"/>
<use x="135.63" y="303.67" xlink:href="#hd"/>
<path d="M139.13 303.67v-29.00" stroke="currentColor" fill="none"/>
<use x="161.43" y="297.67" xlink:href="#hd"/>
<path d="M164.93 297.67v-23.00" stroke="currentColor" fill="none"/>
<use x="187.23" y="303.67" xlink:href="#hd"/>
<path d="M190.73 303.67v-29.00" stroke="currentColor" fill="none"/>
<path fill="currentColor"
	d="M227.53 266.47l129.50 6.50v3.20l-129.50 -6.50"/>
<use x="224.43" y="285.67" xlink:href="#hd"/>
<path d="M227.93 285.67v-18.20" stroke="currentColor" fill="none"/>
<use x="250.23" y="294.67" xlink:href="#hd"/>
<path d="M253.73 294.67v-25.90" stroke="currentColor" fill="none"/>
<use x="275.93" y="300.67" xlink:href="#hd"/>
<path d="M279.43 300.67v-30.60" stroke="currentColor" fill="none"/>
<use x="301.73" y="306.67" xlink:href="#hl"/>
<use x="301.73" y="306.67" xlink:href="#hd"/>
<path d="M305.23 306.67v-35.30" stroke="currentColor" fill="none"/>
<use x="327.53" y="300.67" xlink:href="#hd"/>
<path d="M331.03 300.67v-28.00" stroke="currentColor" fill="none"/>
<use x="353.33" y="297.67" xlink:href="#hd"/>
<path d="M356.83 297.67v-23.70" stroke="currentColor" fill="none"/>
<path fill="currentColor"
	d="M393.63 276.47l78.00 0.00v3.20l-78.00 -0.00"/>
<use x="390.53" y="294.67" xlink:href="#hd"/>
<path d="M394.03 294.67v-17.20" stroke="currentColor" fill="none"/>
<use x="416.33" y="297.67" xlink:href="#hd"/>
<path d="M419.83 297.67v-20.20" stroke="currentColor" fill="none"/>
<use x="442.03" y="306.67" xlink:href="#hl"/>
<use x="442.03" y="309.67" xlink:href="#hd"/>
<path d="M445.53 309.67v-32.20" stroke="currentColor" fill="none"/>
<use x="467.83" y="297.67" xlink:href="#hd"/>
<path d="M471.33 297.67v-20.20" stroke="currentColor" fill="none"/>
<use x="496.43" y="306.67" xlink:href="#hl"/>
<use x="496.43" y="312.67" xlink:href="#hl"/>
<use x="496.43" y="315.67" xlink:href="#hd"/>
<path d="M499.93 315.67v-27.00" stroke="currentColor" fill="none"/>
<path fill="currentColor"
	d="M546.33 272.77l129.50 -6.30v3.20l-129.50 6.30"/>
<use x="543.13" y="300.67" xlink:href="#hd"/>
<path d="M546.63 300.67v-26.90" stroke="currentColor" fill="none"/>
<use x="568.93" y="294.67" xlink:href="#hd"/>
<path d="M572.43 294.67v-22.20" stroke="currentColor" fill="none"/>
<use x="594.73" y="306.67" xlink:href="#hl"/>
<use x="594.73" y="306.67" xlink:href="#hd"/>
<path d="M598.23 306.67v-35.40" stroke="currentColor" fill="none"/>
<use x="620.43" y="300.67" xlink:href="#hd"/>
<path d="M623.93 300.67v-30.70" stroke="currentColor" fill="none"/>
<use x="646.23" y="294.67" xlink:href="#hd"/>
<path d="M649.73 294.67v-25.90" stroke="currentColor" fill="none"/>
<use x="672.03" y="285.67" xlink:href="#hd"/>
<path d="M675.53 285.67v-18.20" stroke="currentColor" fill="none"/>
<path stroke="currentColor" fill="none"
	d="M147.53 383.67v-24.00"/>
<path stroke="currentColor" fill="none"
	d="M239.23 383.67v-24.00"/>
<path stroke="currentColor" fill="none"
	d="M332.33 383.67v-24.00"/>
<path stroke="currentColor" fill="none"
	d="M425.53 383.67v-24.00"/>
<path stroke="currentColor" fill="none"
	d="M527.23 383.67v-24.00"/>
<path stroke="currentColor" fill="none" stroke-width="3"
	d="M608.93 383.67v-24.00"/>
<path stroke="currentColor" fill="none"
	d="M604.43 383.67v-24.00"/>
<use x="600.43" y="383.67" xlink:href="#rdots"/>
<path stroke="currentColor" fill="none" stroke-width="3"
	d="M693.43 383.67v-24.00"/>
<path stroke="currentColor" fill="none"
	d="M688.93 383.67v-24.00"/>
<path stroke="currentColor" fill="none"
	d="M13.33 383.67h681.60m-681.60 -6h681.60m-681.60 -6h681.60m-681.60 -6h681.60m-681.60 -6h681.60"/>
<text x="51.83" y="337.27">G7</text>
<text x="156.53" y="337.27">C</text>
<text x="245.23" y="337.27">G7</text>
<text x="341.33" y="337.27">C</text>
<text x="431.63" y="337.27">G7</text>
<text x="542.73" y="337.27">C</text>
<text x="625.93" y="337.27">C</text>
</g>
<g transform="scale(0.750)" stroke-width="0.70" font-family="Times" font-size="13.00">
<text x="531.23" y="337.07">1</text>
<path stroke="currentColor" fill="none"
	d="M527.23 325.67v20M527.23 325.67h75.20v20"/>
<text x="614.43" y="337.07">2</text>
<path stroke="currentColor" fill="none"
	d="M610.43 325.67v20M610.43 325.67h84.50v20"/>
<use x="25.33" y="383.67" xlink:href="#tclef"/>
<use x="40.33" y="371.67" xlink:href="#ft0"/>
<path fill="currentColor"
	d="M61.53 346.47l76.20 0.00v3.20l-76.20 -0.00"/>
<use x="58.33" y="371.67" xlink:href="#hd"/>
<path d="M61.83 371.67v-24.20" stroke="currentColor" fill="none"/>
<use x="73.43" y="365.67" xlink:href="#hd"/>
<path d="M76.93 365.67v-18.20" stroke="currentColor" fill="none"/>
<use x="88.53" y="377.67" xlink:href="#hd"/>
<path d="M92.03 377.67v-30.20" stroke="currentColor" fill="none"/>
<use x="103.63" y="371.67" xlink:href="#hd"/>
<path d="M107.13 371.67v-24.20" stroke="currentColor" fill="none"/>
<use x="118.73" y="380.67" xlink:href="#hd"/>
<path d="M122.23 380.67v-33.20" stroke="currentColor" fill="none"/>
<use x="133.93" y="371.67" xlink:href="#hd"/>
<path d="M137.43 371.67v-24.20" stroke="currentColor" fill="none"/>
<path fill="currentColor"
	d="M156.23 386.67l46.00 0.00v-3.20l-46.00 -0.00"/>
<use x="160.03" y="368.67" xlink:href="#hd"/>
<path d="M156.53 368.67v17.00" stroke="currentColor" fill="none"/>
<use x="175.13" y="362.67" xlink:href="#hd"/>
<path d="M171.63 362.67v23.00" stroke="currentColor" fill="none"/>
<use x="190.33" y="365.67" xlink:href="#hd"/>
<path d="M186.83 365.67v20.00" stroke="currentColor" fill="none"/>
<use x="205.43" y="368.67" xlink:href="#hd"/>
<path d="M201.93 368.67v17.00" stroke="currentColor" fill="none"/>
<use x="220.53" y="383.67" xlink:href="#hd"/>
<path d="M224.03 383.67v-20.00" stroke="currentColor" fill="none"/>
<path fill="currentColor"
	d="M254.83 352.47l46.00 0.00v3.20l-46.00 -0.00"/>
<use x="251.73" y="386.67" xlink:href="#hd"/>
<path d="M255.23 386.67v-33.20" stroke="currentColor" fill="none"/>
<use x="266.83" y="371.67" xlink:href="#hd"/>
<path d="M270.33 371.67v-18.20" stroke="currentColor" fill="none"/>
<use x="281.93" y="371.67" xlink:href="#hd"/>
<path d="M285.43 371.67v-18.20" stroke="currentColor" fill="none"/>
<use x="297.03" y="386.67" xlink:href="#hd"/>
<path d="M300.53 386.67v-33.20" stroke="currentColor" fill="none"/>
<use x="313.63" y="374.67" xlink:href="#hd"/>
<path d="M317.13 374.67v-20.00" stroke="currentColor" fill="none"/>
<path fill="currentColor"
	d="M348.03 349.47l46.00 0.00v3.20l-46.00 -0.00"/>
<use x="344.83" y="377.67" xlink:href="#hd"/>
<path d="M348.33 377.67v-27.20" stroke="currentColor" fill="none"/>
<use x="360.03" y="368.67" xlink:href="#hd"/>
<path d="M363.53 368.67v-18.20" stroke="currentColor" fill="none"/>
<use x="375.13" y="383.67" xlink:href="#hd"/>
<path d="M378.63 383.67v-33.20" stroke="currentColor" fill="none"/>
<use x="390.23" y="377.67" xlink:href="#hd"/>
<path d="M393.73 377.67v-27.20" stroke="currentColor" fill="none"/>
<use x="406.83" y="383.67" xlink:href="#hd"/>
<path d="M410.33 383.67v-20.00" stroke="currentColor" fill="none"/>
<path fill="currentColor"
	d="M441.23 359.47l76.20 0.00v3.20l-76.20 -0.00"/>
<use x="438.03" y="386.67" xlink:href="#hd"/>
<path d="M441.53 386.67v-26.20" stroke="currentColor" fill="none"/>
<use x="453.13" y="380.67" xlink:href="#hd"/>
<path d="M456.63 380.67v-20.20" stroke="currentColor" fill="none"/>
<use x="468.23" y="380.67" xlink:href="#hd"/>
<path d="M471.73 380.67v-20.20" stroke="currentColor" fill="none"/>
<use x="483.33" y="386.67" xlink:href="#hd"/>
<path d="M486.83 386.67v-26.20" stroke="currentColor" fill="none"/>
<use x="498.53" y="377.67" xlink:href="#hd"/>
<path d="M502.03 377.67v-17.20" stroke="currentColor" fill="none"/>
<use x="513.63" y="389.67" xlink:href="#hl"/>
<use x="513.63" y="392.67" xlink:href="#hd"/>
<path d="M517.13 392.67v-32.20" stroke="currentColor" fill="none"/>
<use x="546.23" y="389.67" xlink:href="#hl"/>
<use x="546.23" y="389.67" xlink:href="#hd"/>
<path d="M549.73 389.67v-20.00" stroke="currentColor" fill="none"/>
<use x="569.23" y="371.67" xlink:href="#r4"/>
<use x="589.93" y="383.67" xlink:href="#hd"/>
<path d="M593.43 383.67v-20.00" stroke="currentColor" fill="none"/>
<use x="629.43" y="389.67" xlink:href="#hl"/>
<use x="629.43" y="389.67" xlink:href="#hd"/>
<path d="M632.93 389.67v-20.00" stroke="currentColor" fill="none"/>
<use x="652.33" y="371.67" xlink:href="#r4"/>
<use x="675.23" y="371.67" xlink:href="#r4"/>
</g>
</svg>
