<?xml version="1.0" standalone="no"?>
<!DOCTYPE svg PUBLIC "-//W3C//DTD SVG 1.1//EN"
	"http://www.w3.org/Graphics/SVG/1.1/DTD/svg11.dtd">
<svg xmlns="http://www.w3.org/2000/svg" version="1.1"
	xmlns:xlink="http://www.w3.org/1999/xlink"
	xml:space='preserve' color="black"
	width="7.38in" height="3.15in" viewBox="0 0 531 227">
<title>data/results/biggest_11/abc/259.abc (259) tune 1</title>
<!-- Creator: abcm2ps-7.8.14 -->
<!-- CreationDate: Aug  9, 2015 23:50 -->
<!-- CommandLine: -g data/results/biggest_11/abc/259.abc -O /home/allanino/Dropbox/Trabalhos/folkme/svg/259.svg -->
<g transform="scale(0.750)" stroke-width="0.70" font-family="Times" font-size="20.00">
<text x="354.13" y="21.67" text-anchor="middle">Mazurka G chords</text>
</g>
<g transform="scale(0.750)" stroke-width="0.70" font-family="Times" font-size="16.00">
<text x="354.13" y="41.30" text-anchor="middle">Hanny Christen. Bd.3 Appenzell. S.27 (LD03087) orig. C-Dur</text>
<path stroke="currentColor" fill="none"
	d="M231.73 122.84v-24.00"/>
<path stroke="currentColor" fill="none"
	d="M398.03 122.84v-24.00"/>
<path stroke="currentColor" fill="none"
	d="M553.23 122.84v-24.00"/>
<path stroke="currentColor" fill="none"
	d="M694.93 122.84v-24.00"/>
<path stroke="currentColor" fill="none"
	d="M13.33 122.84h681.60m-681.60 -6h681.60m-681.60 -6h681.60m-681.60 -6h681.60m-681.60 -6h681.60"/>
</g>
<g transform="scale(0.750)" stroke-width="0.70" font-family="Helvetica" font-size="12.00">
<text x="76.03" y="81.44">D</text>
<text x="239.63" y="81.44">A7</text>
<text x="563.73" y="81.44">D</text>
<defs>
<path id="utclef" fill="currentColor" d="m-50 -90
	c-72 -41 -72 -158 52 -188
	c150 -10 220 188 90 256
	c-114 52 -275 0 -293 -136
	c-15 -181 93 -229 220 -334
	c88 -87 79 -133 62 -210
	c-51 33 -94 105 -89 186
	c17 267 36 374 49 574
	c6 96 -19 134 -77 135
	c-80 1 -126 -93 -61 -133
	c85 -41 133 101 31 105
	c23 17 92 37 90 -92
	c-10 -223 -39 -342 -50 -617
	c0 -90 0 -162 96 -232
	c56 72 63 230 22 289
	c-74 106 -257 168 -255 316
	c9 153 148 185 252 133
	c86 -65 29 -192 -80 -176
	c-71 12 -105 67 -59 124"/>
<use id="tclef" transform="scale(0.045)"
	xlink:href="#utclef"/>
</defs>
<use x="25.33" y="122.84" xlink:href="#tclef"/>
<defs>
<path id="usharp" fill="currentColor" d="
	m136 -702
	v890
	h32
	v-890
	m128 840
	h32
	v-888
	h-32
	m-232 286
	v116
	l338 -96
	v-116
	m-338 442
	v116
	l338 -98
	v-114"/>
<use id="sh0" transform="translate(-4,5) scale(0.018)"
	xlink:href="#usharp"/>
</defs>
<use x="40.33" y="98.84" xlink:href="#sh0"/>
<use x="45.83" y="107.84" xlink:href="#sh0"/>
<g font-family="serif" font-size="16" font-weight="bold" font-style="normal"
	transform="translate(61.83,122.84) scale(1.2,1)">
	<text y="-1" text-anchor="middle">4</text>
	<text y="-13" text-anchor="middle">3</text>
</g>
<path fill="currentColor"
	d="M76.03 133.04l129.70 0.00v-3.20l-129.70 -0.00"/>
<defs>
<ellipse id="hd" rx="4.1" ry="2.9"
	transform="rotate(-20)" fill="currentColor"/>
</defs>
<use x="79.83" y="113.84" xlink:href="#hd"/>
<path d="M76.33 113.84v18.20" stroke="currentColor" fill="none"/>
<use x="105.63" y="104.84" xlink:href="#hd"/>
<path d="M102.13 104.84v27.20" stroke="currentColor" fill="none"/>
<use x="131.43" y="98.84" xlink:href="#hd"/>
<path d="M127.93 98.84v33.20" stroke="currentColor" fill="none"/>
<use x="157.23" y="113.84" xlink:href="#hd"/>
<path d="M153.73 113.84v18.20" stroke="currentColor" fill="none"/>
<use x="183.03" y="104.84" xlink:href="#hd"/>
<path d="M179.53 104.84v27.20" stroke="currentColor" fill="none"/>
<use x="208.83" y="98.84" xlink:href="#hd"/>
<path d="M205.33 98.84v33.20" stroke="currentColor" fill="none"/>
<path fill="currentColor"
	d="M242.23 125.84l129.70 0.00v-3.20l-129.70 -0.00"/>
<defs>
<path id="hl" stroke="currentColor" d="m-6 0h12"/>
</defs>
<use x="246.13" y="92.84" xlink:href="#hl"/>
<use x="246.13" y="92.84" xlink:href="#hd"/>
<path d="M242.63 92.84v32.00" stroke="currentColor" fill="none"/>
<use x="271.93" y="95.84" xlink:href="#hd"/>
<path d="M268.43 95.84v29.00" stroke="currentColor" fill="none"/>
<use x="297.73" y="107.84" xlink:href="#hd"/>
<path d="M294.23 107.84v17.00" stroke="currentColor" fill="none"/>
<use x="323.53" y="101.84" xlink:href="#hd"/>
<path d="M320.03 101.84v23.00" stroke="currentColor" fill="none"/>
<use x="349.33" y="95.84" xlink:href="#hd"/>
<path d="M345.83 95.84v29.00" stroke="currentColor" fill="none"/>
<use x="375.13" y="92.84" xlink:href="#hl"/>
<use x="375.13" y="89.84" xlink:href="#hd"/>
<path d="M371.63 89.84v35.00" stroke="currentColor" fill="none"/>
<use x="412.33" y="92.84" xlink:href="#hl"/>
<use x="412.33" y="92.84" xlink:href="#hd"/>
<path d="M408.83 92.84v20.00" stroke="currentColor" fill="none"/>
<path fill="currentColor"
	d="M449.03 119.84l78.10 0.00v-3.20l-78.10 -0.00"/>
<use x="452.83" y="95.84" xlink:href="#hd"/>
<path d="M449.33 95.84v23.00" stroke="currentColor" fill="none"/>
<use x="478.63" y="101.84" xlink:href="#hd"/>
<path d="M475.13 101.84v17.00" stroke="currentColor" fill="none"/>
<use x="504.43" y="98.84" xlink:href="#hd"/>
<path d="M500.93 98.84v20.00" stroke="currentColor" fill="none"/>
<use x="530.23" y="101.84" xlink:href="#hd"/>
<path d="M526.73 101.84v17.00" stroke="currentColor" fill="none"/>
<use x="567.53" y="104.84" xlink:href="#hd"/>
<path d="M564.03 104.84v20.00" stroke="currentColor" fill="none"/>
<path fill="currentColor"
	d="M604.23 118.14l26.50 -5.10v-3.20l-26.50 5.10"/>
<use x="608.03" y="98.84" xlink:href="#hd"/>
<path d="M604.53 98.84v18.20" stroke="currentColor" fill="none"/>
<use x="633.83" y="92.84" xlink:href="#hl"/>
<use x="633.83" y="89.84" xlink:href="#hd"/>
<path d="M630.33 89.84v22.30" stroke="currentColor" fill="none"/>
<use x="662.53" y="92.84" xlink:href="#hl"/>
<use x="662.53" y="92.84" xlink:href="#hd"/>
<path d="M659.03 92.84v20.00" stroke="currentColor" fill="none"/>
<path stroke="currentColor" fill="none"
	d="M140.53 204.84v-24.00"/>
<path stroke="currentColor" fill="none"
	d="M221.93 204.84v-24.00"/>
<path stroke="currentColor" fill="none"
	d="M310.73 204.84v-24.00"/>
<defs>
<g id="rdots" fill="currentColor">
	<circle cx="0" cy="-9" r="1.2"/>
	<circle cx="0" cy="-15" r="1.2"/>
</g>
</defs>
<use x="388.53" y="204.84" xlink:href="#rdots"/>
<path stroke="currentColor" fill="none" stroke-width="3"
	d="M383.03 204.84v-24.00"/>
<path stroke="currentColor" fill="none" stroke-width="3"
	d="M377.03 204.84v-24.00"/>
<use x="371.53" y="204.84" xlink:href="#rdots"/>
<path stroke="currentColor" fill="none"
	d="M471.83 204.84v-24.00"/>
<path stroke="currentColor" fill="none"
	d="M546.33 204.84v-24.00"/>
<path stroke="currentColor" fill="none"
	d="M628.93 204.84v-24.00"/>
<path stroke="currentColor" fill="none"
	d="M694.93 204.84v-24.00"/>
<path stroke="currentColor" fill="none"
	d="M13.33 204.84h681.60m-681.60 -6h681.60m-681.60 -6h681.60m-681.60 -6h681.60m-681.60 -6h681.60"/>
<text x="146.63" y="157.44">A7</text>
<text x="319.43" y="157.44">D</text>
<text x="394.43" y="157.44">Bm</text>
<text x="477.93" y="157.44">A7</text>
<text x="637.63" y="157.44">D</text>
<use x="25.33" y="204.84" xlink:href="#tclef"/>
<use x="40.33" y="180.84" xlink:href="#sh0"/>
<use x="45.83" y="189.84" xlink:href="#sh0"/>
<path fill="currentColor"
	d="M60.03 205.04l65.60 0.00v-3.20l-65.60 -0.00"/>
<use x="63.83" y="174.84" xlink:href="#hl"/>
<use x="63.83" y="174.84" xlink:href="#hd"/>
<path d="M60.33 174.84v29.20" stroke="currentColor" fill="none"/>
<use x="76.73" y="180.84" xlink:href="#hd"/>
<path d="M73.23 180.84v23.20" stroke="currentColor" fill="none"/>
<use x="89.63" y="186.84" xlink:href="#hd"/>
<path d="M86.13 186.84v17.20" stroke="currentColor" fill="none"/>
<use x="102.53" y="180.84" xlink:href="#hd"/>
<path d="M99.03 180.84v23.20" stroke="currentColor" fill="none"/>
<use x="115.43" y="174.84" xlink:href="#hl"/>
<use x="115.43" y="174.84" xlink:href="#hd"/>
<path d="M111.93 174.84v29.20" stroke="currentColor" fill="none"/>
<use x="128.73" y="174.84" xlink:href="#hl"/>
<use x="128.73" y="174.84" xlink:href="#hd"/>
<path d="M125.23 174.84v29.20" stroke="currentColor" fill="none"/>
<path fill="currentColor"
	d="M149.23 199.04l39.40 0.00v-3.20l-39.40 -0.00"/>
<use x="153.03" y="177.84" xlink:href="#hd"/>
<path d="M149.53 177.84v20.20" stroke="currentColor" fill="none"/>
<use x="165.93" y="180.84" xlink:href="#hd"/>
<path d="M162.43 180.84v17.20" stroke="currentColor" fill="none"/>
<use x="178.83" y="180.84" xlink:href="#hd"/>
<path d="M175.33 180.84v17.20" stroke="currentColor" fill="none"/>
<use x="191.73" y="174.84" xlink:href="#hl"/>
<use x="191.73" y="174.84" xlink:href="#hd"/>
<path d="M188.23 174.84v23.20" stroke="currentColor" fill="none"/>
<use x="206.23" y="174.84" xlink:href="#hl"/>
<use x="206.23" y="174.84" xlink:href="#hd"/>
<path d="M202.73 174.84v20.00" stroke="currentColor" fill="none"/>
<path fill="currentColor"
	d="M230.63 207.84l65.20 0.00v-3.20l-65.20 -0.00"/>
<use x="234.43" y="189.84" xlink:href="#hd"/>
<path d="M230.93 189.84v17.00" stroke="currentColor" fill="none"/>
<use x="247.33" y="174.84" xlink:href="#hl"/>
<use x="247.33" y="174.84" xlink:href="#hd"/>
<path d="M243.83 174.84v32.00" stroke="currentColor" fill="none"/>
<use x="260.23" y="177.84" xlink:href="#hd"/>
<path d="M256.73 177.84v29.00" stroke="currentColor" fill="none"/>
<use x="273.13" y="189.84" xlink:href="#hd"/>
<path d="M269.63 189.84v17.00" stroke="currentColor" fill="none"/>
<use x="286.03" y="183.84" xlink:href="#hd"/>
<path d="M282.53 183.84v23.00" stroke="currentColor" fill="none"/>
<use x="298.93" y="189.84" xlink:href="#hd"/>
<path d="M295.43 189.84v17.00" stroke="currentColor" fill="none"/>
<use x="323.23" y="186.84" xlink:href="#hd"/>
<path d="M319.73 186.84v20.00" stroke="currentColor" fill="none"/>
<use x="342.13" y="186.84" xlink:href="#hd"/>
<path d="M338.63 186.84v20.00" stroke="currentColor" fill="none"/>
<defs>
<path id="r4" fill="currentColor" d="m-1 -8.5
	l3.6 5.1 -2.1 5.2 2.2 4.3
	c-2.6 -2.3 -5.1 0 -2.4 2.6
	c-4.8 -3 -1.5 -6.9 1.4 -4.1
	l-3.1 -4.5 1.9 -5.1 -1.5 -3.5"/>
</defs>
<use x="361.03" y="192.84" xlink:href="#r4"/>
<use x="402.03" y="180.84" xlink:href="#hd"/>
<path d="M398.53 180.84v20.00" stroke="currentColor" fill="none"/>
<path fill="currentColor"
	d="M417.13 206.14l39.80 -6.30v-3.20l-39.80 6.30"/>
<use x="420.93" y="186.84" xlink:href="#hd"/>
<path d="M417.43 186.84v18.20" stroke="currentColor" fill="none"/>
<use x="433.83" y="180.84" xlink:href="#hd"/>
<path d="M430.33 180.84v22.20" stroke="currentColor" fill="none"/>
<use x="446.73" y="174.84" xlink:href="#hl"/>
<use x="446.73" y="171.84" xlink:href="#hd"/>
<path d="M443.23 171.84v29.10" stroke="currentColor" fill="none"/>
<use x="460.03" y="174.84" xlink:href="#hl"/>
<use x="460.03" y="168.84" xlink:href="#hl"/>
<use x="460.03" y="165.84" xlink:href="#hd"/>
<path d="M456.53 165.84v33.00" stroke="currentColor" fill="none"/>
<use x="484.33" y="174.84" xlink:href="#hl"/>
<use x="484.33" y="168.84" xlink:href="#hl"/>
<use x="484.33" y="168.84" xlink:href="#hd"/>
<path d="M480.83 168.84v24.00" stroke="currentColor" fill="none"/>
<path fill="currentColor"
	d="M499.83 204.44l13.60 4.70v-3.20l-13.60 -4.70"/>
<use x="503.63" y="174.84" xlink:href="#hl"/>
<use x="503.63" y="174.84" xlink:href="#hd"/>
<path d="M500.13 174.84v28.70" stroke="currentColor" fill="none"/>
<use x="516.53" y="189.84" xlink:href="#hd"/>
<path d="M513.03 189.84v18.20" stroke="currentColor" fill="none"/>
<use x="530.63" y="183.84" xlink:href="#hd"/>
<path d="M527.13 183.84v20.00" stroke="currentColor" fill="none"/>
<use x="558.83" y="195.84" xlink:href="#hd"/>
<path d="M562.33 195.84v-20.00" stroke="currentColor" fill="none"/>
<path fill="currentColor"
	d="M574.53 207.84l39.40 0.00v-3.20l-39.40 -0.00"/>
<use x="578.43" y="189.84" xlink:href="#hd"/>
<path d="M574.93 189.84v17.00" stroke="currentColor" fill="none"/>
<use x="591.33" y="174.84" xlink:href="#hl"/>
<use x="591.33" y="174.84" xlink:href="#hd"/>
<path d="M587.83 174.84v32.00" stroke="currentColor" fill="none"/>
<use x="604.13" y="177.84" xlink:href="#hd"/>
<path d="M600.63 177.84v29.00" stroke="currentColor" fill="none"/>
<use x="617.03" y="183.84" xlink:href="#hd"/>
<path d="M613.53 183.84v23.00" stroke="currentColor" fill="none"/>
<use x="641.43" y="180.84" xlink:href="#hd"/>
<path d="M637.93 180.84v20.00" stroke="currentColor" fill="none"/>
<use x="660.33" y="186.84" xlink:href="#hd"/>
<path d="M656.83 186.84v20.00" stroke="currentColor" fill="none"/>
<use x="679.23" y="180.84" xlink:href="#hd"/>
<path d="M675.73 180.84v20.00" stroke="currentColor" fill="none"/>
<path stroke="currentColor" fill="none"
	d="M189.53 279.84v-24.00"/>
<path stroke="currentColor" fill="none"
	d="M316.03 279.84v-24.00"/>
<path stroke="currentColor" fill="none"
	d="M454.53 279.84v-24.00"/>
<path stroke="currentColor" fill="none" stroke-width="3"
	d="M573.33 279.84v-24.00"/>
<path stroke="currentColor" fill="none"
	d="M568.83 279.84v-24.00"/>
<use x="564.83" y="279.84" xlink:href="#rdots"/>
<path stroke="currentColor" fill="none" stroke-width="3"
	d="M693.43 279.84v-24.00"/>
<path stroke="currentColor" fill="none"
	d="M688.93 279.84v-24.00"/>
<path stroke="currentColor" fill="none"
	d="M13.33 279.84h681.60m-681.60 -6h681.60m-681.60 -6h681.60m-681.60 -6h681.60m-681.60 -6h681.60"/>
<text x="196.03" y="241.44">A7</text>
<text x="469.73" y="241.44">D</text>
<text x="590.03" y="241.44">D</text>
</g>
<g transform="scale(0.750)" stroke-width="0.70" font-family="Times" font-size="13.00">
<text x="458.53" y="241.24">1</text>
<path stroke="currentColor" fill="none"
	d="M454.53 229.84v20M454.53 229.84h112.20v20"/>
<text x="578.83" y="241.24">2</text>
<path stroke="currentColor" fill="none"
	d="M574.83 229.84v20M574.83 229.84h120.10v20"/>
<use x="25.33" y="279.84" xlink:href="#tclef"/>
<use x="40.33" y="255.84" xlink:href="#sh0"/>
<use x="45.83" y="264.84" xlink:href="#sh0"/>
<use x="63.83" y="249.84" xlink:href="#hl"/>
<use x="63.83" y="249.84" xlink:href="#hd"/>
<path d="M60.33 249.84v20.00" stroke="currentColor" fill="none"/>
<path fill="currentColor"
	d="M96.03 274.04l69.80 0.00v-3.20l-69.80 -0.00"/>
<use x="99.93" y="249.84" xlink:href="#hl"/>
<use x="99.93" y="246.84" xlink:href="#hd"/>
<path d="M96.43 246.84v26.20" stroke="currentColor" fill="none"/>
<use x="122.93" y="249.84" xlink:href="#hl"/>
<use x="122.93" y="249.84" xlink:href="#hd"/>
<path d="M119.43 249.84v23.20" stroke="currentColor" fill="none"/>
<use x="146.03" y="255.84" xlink:href="#hd"/>
<path d="M142.53 255.84v17.20" stroke="currentColor" fill="none"/>
<use x="169.03" y="249.84" xlink:href="#hl"/>
<use x="169.03" y="249.84" xlink:href="#hd"/>
<path d="M165.53 249.84v23.20" stroke="currentColor" fill="none"/>
<use x="202.43" y="252.84" xlink:href="#hd"/>
<path d="M198.93 252.84v20.00" stroke="currentColor" fill="none"/>
<path fill="currentColor"
	d="M234.73 276.14l23.70 2.50v-3.20l-23.70 -2.50"/>
<use x="238.53" y="255.84" xlink:href="#hd"/>
<path d="M235.03 255.84v19.30" stroke="currentColor" fill="none"/>
<use x="261.53" y="258.84" xlink:href="#hd"/>
<path d="M258.03 258.84v18.70" stroke="currentColor" fill="none"/>
<use x="287.13" y="255.84" xlink:href="#hd"/>
<path d="M283.63 255.84v20.00" stroke="currentColor" fill="none"/>
<use x="328.93" y="249.84" xlink:href="#hl"/>
<use x="328.93" y="249.84" xlink:href="#hd"/>
<path d="M325.43 249.84v20.00" stroke="currentColor" fill="none"/>
<path fill="currentColor"
	d="M361.13 287.04l69.80 0.00v-3.20l-69.80 -0.00"/>
<use x="365.03" y="252.84" xlink:href="#hd"/>
<path d="M361.53 252.84v33.20" stroke="currentColor" fill="none"/>
<use x="388.03" y="267.84" xlink:href="#hd"/>
<path d="M384.53 267.84v18.20" stroke="currentColor" fill="none"/>
<use x="411.03" y="252.84" xlink:href="#hd"/>
<path d="M407.53 252.84v33.20" stroke="currentColor" fill="none"/>
<use x="434.03" y="258.84" xlink:href="#hd"/>
<path d="M430.53 258.84v27.20" stroke="currentColor" fill="none"/>
<use x="473.53" y="261.84" xlink:href="#hd"/>
<path d="M470.03 261.84v20.00" stroke="currentColor" fill="none"/>
<use x="509.63" y="267.84" xlink:href="#r4"/>
<use x="545.73" y="261.84" xlink:href="#hd"/>
<path d="M542.23 261.84v20.00" stroke="currentColor" fill="none"/>
<use x="593.83" y="261.84" xlink:href="#hd"/>
<path d="M590.33 261.84v20.00" stroke="currentColor" fill="none"/>
<use x="629.83" y="267.84" xlink:href="#r4"/>
<use x="665.93" y="267.84" xlink:href="#r4"/>
</g>
</svg>
