<?xml version="1.0" standalone="no"?>
<!DOCTYPE svg PUBLIC "-//W3C//DTD SVG 1.1//EN"
	"http://www.w3.org/Graphics/SVG/1.1/DTD/svg11.dtd">
<svg xmlns="http://www.w3.org/2000/svg" version="1.1"
	xmlns:xlink="http://www.w3.org/1999/xlink"
	xml:space='preserve' color="black"
	width="7.38in" height="2.17in" viewBox="0 0 531 156">
<title>data/results/biggest_11/abc/261.abc (261) tune 1</title>
<!-- Creator: abcm2ps-7.8.14 -->
<!-- CreationDate: Aug  9, 2015 23:50 -->
<!-- CommandLine: -g data/results/biggest_11/abc/261.abc -O /home/allanino/Dropbox/Trabalhos/folkme/svg/261.svg -->
<g transform="scale(0.750)" stroke-width="0.70" font-family="Times" font-size="20.00">
<text x="354.13" y="21.67" text-anchor="middle">Swass polska C A</text>
<path stroke="currentColor" fill="none"
	d="M108.63 110.01v-24.00"/>
<path stroke="currentColor" fill="none"
	d="M154.23 110.01v-24.00"/>
<path stroke="currentColor" fill="none"
	d="M199.83 110.01v-24.00"/>
<path stroke="currentColor" fill="none"
	d="M301.33 110.01v-24.00"/>
<defs>
<g id="rdots" fill="currentColor">
	<circle cx="0" cy="-9" r="1.2"/>
	<circle cx="0" cy="-15" r="1.2"/>
</g>
</defs>
<use x="381.23" y="110.01" xlink:href="#rdots"/>
<path stroke="currentColor" fill="none"
	d="M377.23 110.01v-24.00"/>
<path stroke="currentColor" fill="none" stroke-width="3"
	d="M372.73 110.01v-24.00"/>
<path stroke="currentColor" fill="none"
	d="M506.43 110.01v-24.00"/>
<path stroke="currentColor" fill="none"
	d="M595.03 110.01v-24.00"/>
<path stroke="currentColor" fill="none"
	d="M694.93 110.01v-24.00"/>
<path stroke="currentColor" fill="none"
	d="M13.33 110.01h681.60m-681.60 -6h681.60m-681.60 -6h681.60m-681.60 -6h681.60m-681.60 -6h681.60"/>
</g>
<g transform="scale(0.750)" stroke-width="0.70" font-family="Helvetica" font-size="12.00">
<text x="118.13" y="62.61">C</text>
<text x="205.83" y="62.61">G7</text>
<text x="310.33" y="62.61">C</text>
<text x="408.33" y="62.61">F</text>
<text x="512.73" y="62.61">C7</text>
<defs>
<path id="utclef" fill="currentColor" d="m-50 -90
	c-72 -41 -72 -158 52 -188
	c150 -10 220 188 90 256
	c-114 52 -275 0 -293 -136
	c-15 -181 93 -229 220 -334
	c88 -87 79 -133 62 -210
	c-51 33 -94 105 -89 186
	c17 267 36 374 49 574
	c6 96 -19 134 -77 135
	c-80 1 -126 -93 -61 -133
	c85 -41 133 101 31 105
	c23 17 92 37 90 -92
	c-10 -223 -39 -342 -50 -617
	c0 -90 0 -162 96 -232
	c56 72 63 230 22 289
	c-74 106 -257 168 -255 316
	c9 153 148 185 252 133
	c86 -65 29 -192 -80 -176
	c-71 12 -105 67 -59 124"/>
<use id="tclef" transform="scale(0.045)"
	xlink:href="#utclef"/>
</defs>
<use x="25.33" y="110.01" xlink:href="#tclef"/>
<g font-family="serif" font-size="16" font-weight="bold" font-style="normal"
	transform="translate(43.83,110.01) scale(1.2,1)">
	<text y="-1" text-anchor="middle">4</text>
	<text y="-13" text-anchor="middle">3</text>
</g>
<path fill="currentColor"
	d="M65.03 83.21l32.90 -4.50v3.20l-32.90 4.50"/>
<defs>
<ellipse id="hd" rx="4.1" ry="2.9"
	transform="rotate(-20)" fill="currentColor"/>
</defs>
<use x="61.83" y="104.01" xlink:href="#hd"/>
<path d="M65.33 104.01v-19.80" stroke="currentColor" fill="none"/>
<use x="77.93" y="101.01" xlink:href="#hd"/>
<path d="M81.43 101.01v-19.00" stroke="currentColor" fill="none"/>
<use x="94.03" y="98.01" xlink:href="#hd"/>
<path d="M97.53 98.01v-18.20" stroke="currentColor" fill="none"/>
<defs>
<path id="Hd" fill="currentColor" d="m3 -1.6
	c-1 -1.8 -7 1.4 -6 3.2
	c1 1.8 7 -1.4 6 -3.2
	m0.5 -0.3
	c2 3.8 -5 7.6 -7 3.8
	c-2 -3.8 5 -7.6 7 -3.8"/>
</defs>
<use x="121.63" y="95.01" xlink:href="#Hd"/>
<circle fill="currentColor" cx="130.63" cy="95.01" r="1.2"/>
<path d="M118.13 95.01v20.00" stroke="currentColor" fill="none"/>
<use x="167.23" y="89.01" xlink:href="#Hd"/>
<circle fill="currentColor" cx="176.23" cy="89.01" r="1.2"/>
<path d="M163.73 89.01v20.00" stroke="currentColor" fill="none"/>
<use x="212.33" y="83.01" xlink:href="#hd"/>
<path d="M208.83 83.01v20.00" stroke="currentColor" fill="none"/>
<path fill="currentColor"
	d="M234.33 105.21l49.30 -6.20v-3.20l-49.30 6.20"/>
<use x="238.23" y="86.01" xlink:href="#hd"/>
<defs>
<path id="usharp" fill="currentColor" d="
	m136 -702
	v890
	h32
	v-890
	m128 840
	h32
	v-888
	h-32
	m-232 286
	v116
	l338 -96
	v-116
	m-338 442
	v116
	l338 -98
	v-114"/>
<use id="sh0" transform="translate(-4,5) scale(0.018)"
	xlink:href="#usharp"/>
</defs>
<use x="229.23" y="86.01" xlink:href="#sh0"/>
<path d="M234.73 86.01v18.20" stroke="currentColor" fill="none"/>
<use x="254.33" y="83.01" xlink:href="#hd"/>
<path d="M250.83 83.01v19.20" stroke="currentColor" fill="none"/>
<defs>
<path id="hl" stroke="currentColor" d="m-6 0h12"/>
</defs>
<use x="270.43" y="80.01" xlink:href="#hl"/>
<use x="270.43" y="80.01" xlink:href="#hd"/>
<path d="M266.93 80.01v20.20" stroke="currentColor" fill="none"/>
<use x="286.83" y="80.01" xlink:href="#hl"/>
<use x="286.83" y="77.01" xlink:href="#hd"/>
<path d="M283.33 77.01v21.10" stroke="currentColor" fill="none"/>
<use x="313.83" y="80.01" xlink:href="#hl"/>
<use x="313.83" y="74.01" xlink:href="#hl"/>
<use x="313.83" y="74.01" xlink:href="#hd"/>
<path d="M310.33 74.01v24.00" stroke="currentColor" fill="none"/>
<defs>
<path id="r4" fill="currentColor" d="m-1 -8.5
	l3.6 5.1 -2.1 5.2 2.2 4.3
	c-2.6 -2.3 -5.1 0 -2.4 2.6
	c-4.8 -3 -1.5 -6.9 1.4 -4.1
	l-3.1 -4.5 1.9 -5.1 -1.5 -3.5"/>
</defs>
<use x="338.33" y="98.01" xlink:href="#r4"/>
<use x="360.63" y="113.01" xlink:href="#hd"/>
<path d="M364.13 113.01v-20.00" stroke="currentColor" fill="none"/>
<defs>
<path id="uflat" fill="currentColor" d="
	m100 -746
	h32
	v734
	l-32 4
	m32 -332
	c46 -72 152 -90 208 -20
	c100 110 -120 326 -208 348
	m0 -28
	c54 0 200 -206 130 -290
	c-50 -60 -130 -4 -130 34"/>
<use id="ft0" transform="translate(-3.5,3.5) scale(0.018)"
	xlink:href="#uflat"/>
</defs>
<use x="393.23" y="98.01" xlink:href="#ft0"/>
<path fill="currentColor"
	d="M414.43 72.81l81.30 0.00v3.20l-81.30 -0.00"/>
<use x="411.23" y="107.01" xlink:href="#hd"/>
<path d="M414.73 107.01v-33.20" stroke="currentColor" fill="none"/>
<use x="427.33" y="101.01" xlink:href="#hd"/>
<path d="M430.83 101.01v-27.20" stroke="currentColor" fill="none"/>
<use x="443.53" y="92.01" xlink:href="#hd"/>
<path d="M447.03 92.01v-18.20" stroke="currentColor" fill="none"/>
<use x="459.63" y="107.01" xlink:href="#hd"/>
<path d="M463.13 107.01v-33.20" stroke="currentColor" fill="none"/>
<use x="475.73" y="101.01" xlink:href="#hd"/>
<path d="M479.23 101.01v-27.20" stroke="currentColor" fill="none"/>
<use x="491.83" y="92.01" xlink:href="#hd"/>
<path d="M495.33 92.01v-18.20" stroke="currentColor" fill="none"/>
<use x="518.93" y="95.01" xlink:href="#hd"/>
<path d="M515.43 95.01v20.00" stroke="currentColor" fill="none"/>
<path fill="currentColor"
	d="M544.33 78.71l16.80 5.80v3.20l-16.80 -5.80"/>
<use x="541.13" y="98.01" xlink:href="#hd"/>
<path d="M544.63 98.01v-18.20" stroke="currentColor" fill="none"/>
<use x="557.23" y="116.01" xlink:href="#hl"/>
<use x="557.23" y="116.01" xlink:href="#hd"/>
<path d="M560.73 116.01v-30.60" stroke="currentColor" fill="none"/>
<use x="575.03" y="110.01" xlink:href="#hd"/>
<path d="M578.53 110.01v-20.00" stroke="currentColor" fill="none"/>
<use x="607.53" y="86.01" xlink:href="#hd"/>
<path d="M604.03 86.01v20.00" stroke="currentColor" fill="none"/>
<path fill="currentColor"
	d="M628.13 110.61l49.00 6.70v-3.20l-49.00 -6.70"/>
<use x="632.03" y="89.01" xlink:href="#hd"/>
<path d="M628.53 89.01v20.60" stroke="currentColor" fill="none"/>
<use x="648.13" y="92.01" xlink:href="#hd"/>
<path d="M644.63 92.01v19.80" stroke="currentColor" fill="none"/>
<use x="664.23" y="95.01" xlink:href="#hd"/>
<path d="M660.73 95.01v19.00" stroke="currentColor" fill="none"/>
<use x="680.33" y="98.01" xlink:href="#hd"/>
<path d="M676.83 98.01v18.20" stroke="currentColor" fill="none"/>
<path stroke="currentColor" fill="none"
	d="M144.33 185.01v-24.00"/>
<path stroke="currentColor" fill="none"
	d="M264.13 185.01v-24.00"/>
<path stroke="currentColor" fill="none"
	d="M377.53 185.01v-24.00"/>
<path stroke="currentColor" fill="none"
	d="M497.53 185.01v-24.00"/>
<path stroke="currentColor" fill="none" stroke-width="3"
	d="M594.93 185.01v-24.00"/>
<path stroke="currentColor" fill="none"
	d="M590.43 185.01v-24.00"/>
<use x="586.43" y="185.01" xlink:href="#rdots"/>
<path stroke="currentColor" fill="none" stroke-width="3"
	d="M693.43 185.01v-24.00"/>
<path stroke="currentColor" fill="none"
	d="M688.93 185.01v-24.00"/>
<path stroke="currentColor" fill="none"
	d="M13.33 185.01h681.60m-681.60 -6h681.60m-681.60 -6h681.60m-681.60 -6h681.60m-681.60 -6h681.60"/>
<text x="55.43" y="148.61">F</text>
<text x="150.93" y="148.61">B♭</text>
<text x="273.63" y="148.61">F</text>
<text x="383.93" y="148.61">C7</text>
<text x="513.53" y="148.61">F</text>
<text x="612.53" y="148.61">F</text>
</g>
<g transform="scale(0.750)" stroke-width="0.70" font-family="Times" font-size="13.00">
<text x="501.53" y="146.41">1</text>
<path stroke="currentColor" fill="none"
	d="M497.53 135.01v20M497.53 135.01h90.90v20"/>
<text x="600.43" y="146.41">2</text>
<path stroke="currentColor" fill="none"
	d="M596.43 135.01v20M596.43 135.01h98.50v20"/>
<use x="25.33" y="185.01" xlink:href="#tclef"/>
<use x="40.33" y="173.01" xlink:href="#ft0"/>
<path fill="currentColor"
	d="M54.53 195.31l18.90 -3.80v-3.20l-18.90 3.80"/>
<use x="58.33" y="176.01" xlink:href="#hd"/>
<path d="M54.83 176.01v18.20" stroke="currentColor" fill="none"/>
<use x="76.53" y="170.01" xlink:href="#hd"/>
<path d="M73.03 170.01v20.60" stroke="currentColor" fill="none"/>
<use x="94.73" y="191.01" xlink:href="#hl"/>
<use x="94.73" y="191.01" xlink:href="#hd"/>
<circle fill="currentColor" cx="102.73" cy="188.01" r="1.2"/>
<path d="M98.23 191.01v-20.00" stroke="currentColor" fill="none"/>
<use x="127.33" y="176.01" xlink:href="#hd"/>
<path d="M130.83 176.01v-20.00" stroke="currentColor" fill="none"/>
<path fill="currentColor"
	d="	M130.83 156.01c0.6 5.6 9.6 9 5.6 18.4
	c1.6 -6 -1.3 -11.6 -5.6 -12.8
"/>
<path fill="currentColor"
	d="M152.93 192.21l91.70 0.00v-3.20l-91.70 -0.00"/>
<use x="156.83" y="173.01" xlink:href="#hd"/>
<path d="M153.33 173.01v18.20" stroke="currentColor" fill="none"/>
<use x="175.03" y="167.01" xlink:href="#hd"/>
<path d="M171.53 167.01v24.20" stroke="currentColor" fill="none"/>
<use x="193.23" y="161.01" xlink:href="#hd"/>
<path d="M189.73 161.01v30.20" stroke="currentColor" fill="none"/>
<use x="211.43" y="173.01" xlink:href="#hd"/>
<path d="M207.93 173.01v18.20" stroke="currentColor" fill="none"/>
<use x="229.63" y="167.01" xlink:href="#hd"/>
<path d="M226.13 167.01v24.20" stroke="currentColor" fill="none"/>
<use x="247.83" y="161.01" xlink:href="#hd"/>
<path d="M244.33 161.01v30.20" stroke="currentColor" fill="none"/>
<path fill="currentColor"
	d="M272.73 195.31l18.90 -3.80v-3.20l-18.90 3.80"/>
<use x="276.63" y="176.01" xlink:href="#hd"/>
<path d="M273.13 176.01v18.20" stroke="currentColor" fill="none"/>
<use x="294.83" y="170.01" xlink:href="#hd"/>
<path d="M291.33 170.01v20.60" stroke="currentColor" fill="none"/>
<use x="314.93" y="161.01" xlink:href="#hd"/>
<path d="M311.43 161.01v20.00" stroke="currentColor" fill="none"/>
<path fill="currentColor"
	d="M339.23 175.31l18.90 2.30v-3.20l-18.90 -2.30"/>
<use x="343.03" y="155.01" xlink:href="#hl"/>
<use x="343.03" y="155.01" xlink:href="#hd"/>
<path d="M339.53 155.01v19.40" stroke="currentColor" fill="none"/>
<use x="361.23" y="158.01" xlink:href="#hd"/>
<path d="M357.73 158.01v18.60" stroke="currentColor" fill="none"/>
<path fill="currentColor"
	d="M386.23 182.01l91.80 0.00v-3.20l-91.80 -0.00"/>
<use x="390.03" y="161.01" xlink:href="#hd"/>
<path d="M386.53 161.01v20.00" stroke="currentColor" fill="none"/>
<use x="408.23" y="164.01" xlink:href="#hd"/>
<path d="M404.73 164.01v17.00" stroke="currentColor" fill="none"/>
<use x="426.43" y="158.01" xlink:href="#hd"/>
<path d="M422.93 158.01v23.00" stroke="currentColor" fill="none"/>
<use x="444.63" y="155.01" xlink:href="#hl"/>
<use x="444.63" y="149.01" xlink:href="#hl"/>
<use x="444.63" y="149.01" xlink:href="#hd"/>
<path d="M441.13 149.01v32.00" stroke="currentColor" fill="none"/>
<use x="463.03" y="155.01" xlink:href="#hl"/>
<use x="463.03" y="152.01" xlink:href="#hd"/>
<path d="M459.53 152.01v29.00" stroke="currentColor" fill="none"/>
<use x="481.23" y="164.01" xlink:href="#hd"/>
<path d="M477.73 164.01v17.00" stroke="currentColor" fill="none"/>
<use x="516.53" y="161.01" xlink:href="#hd"/>
<path d="M513.03 161.01v20.00" stroke="currentColor" fill="none"/>
<use x="544.63" y="173.01" xlink:href="#r4"/>
<use x="572.73" y="173.01" xlink:href="#r4"/>
<use x="615.43" y="161.01" xlink:href="#hd"/>
<path d="M611.93 161.01v20.00" stroke="currentColor" fill="none"/>
<use x="643.53" y="173.01" xlink:href="#r4"/>
<use x="671.73" y="173.01" xlink:href="#r4"/>
</g>
</svg>
