<?xml version="1.0" standalone="no"?>
<!DOCTYPE svg PUBLIC "-//W3C//DTD SVG 1.1//EN"
	"http://www.w3.org/Graphics/SVG/1.1/DTD/svg11.dtd">
<svg xmlns="http://www.w3.org/2000/svg" version="1.1"
	xmlns:xlink="http://www.w3.org/1999/xlink"
	xml:space='preserve' color="black"
	width="7.38in" height="2.80in" viewBox="0 0 531 202">
<title>data/results/biggest_11/abc/263.abc (263) tune 1</title>
<!-- Creator: abcm2ps-7.8.14 -->
<!-- CreationDate: Aug  9, 2015 23:50 -->
<!-- CommandLine: -g data/results/biggest_11/abc/263.abc -O /home/allanino/Dropbox/Trabalhos/folkme/svg/263.svg -->
<g transform="scale(0.750)" stroke-width="0.70" font-family="Times" font-size="20.00">
<text x="354.13" y="21.67" text-anchor="middle">Schottisch CGF chords</text>
</g>
<g transform="scale(0.750)" stroke-width="0.70" font-family="Times" font-size="16.00">
<text x="354.13" y="41.30" text-anchor="middle">Hanny Christen. Bd.VII. Bern II, Solothurn. S.155 (pk05581) orig. C,G,F-Dur</text>
<text x="354.13" y="60.13" text-anchor="middle">&quot;Mider Obenth Ir The, Schwyzern (hlpi_enn) freberd, ake The The Creechess(?) Trip</text>
</g>
<g transform="scale(0.750)" stroke-width="0.70" font-family="Times" font-size="15.00">
<text x="75.33" y="105.67">A</text>
<path stroke="currentColor" fill="none"
	d="M122.73 165.67v-24.00"/>
<path stroke="currentColor" fill="none"
	d="M174.63 165.67v-24.00"/>
<path stroke="currentColor" fill="none"
	d="M234.83 165.67v-24.00"/>
<path stroke="currentColor" fill="none"
	d="M284.73 165.67v-24.00"/>
<path stroke="currentColor" fill="none"
	d="M338.43 165.67v-24.00"/>
<path stroke="currentColor" fill="none"
	d="M390.23 165.67v-24.00"/>
<path stroke="currentColor" fill="none"
	d="M443.93 165.67v-24.00"/>
<path stroke="currentColor" fill="none"
	d="M511.73 165.67v-24.00"/>
<path stroke="currentColor" fill="none"
	d="M580.93 165.67v-24.00"/>
<path stroke="currentColor" fill="none"
	d="M643.63 165.67v-24.00"/>
<path stroke="currentColor" fill="none"
	d="M694.93 165.67v-24.00"/>
<path stroke="currentColor" fill="none"
	d="M13.33 165.67h681.60m-681.60 -6h681.60m-681.60 -6h681.60m-681.60 -6h681.60m-681.60 -6h681.60"/>
</g>
<g transform="scale(0.750)" stroke-width="0.70" font-family="Helvetica" font-size="12.00">
<text x="79.13" y="124.27">A♭</text>
<text x="241.13" y="124.27">A♭</text>
<text x="291.73" y="124.27">E♭</text>
<text x="397.13" y="124.27">F7</text>
<defs>
<path id="utclef" fill="currentColor" d="m-50 -90
	c-72 -41 -72 -158 52 -188
	c150 -10 220 188 90 256
	c-114 52 -275 0 -293 -136
	c-15 -181 93 -229 220 -334
	c88 -87 79 -133 62 -210
	c-51 33 -94 105 -89 186
	c17 267 36 374 49 574
	c6 96 -19 134 -77 135
	c-80 1 -126 -93 -61 -133
	c85 -41 133 101 31 105
	c23 17 92 37 90 -92
	c-10 -223 -39 -342 -50 -617
	c0 -90 0 -162 96 -232
	c56 72 63 230 22 289
	c-74 106 -257 168 -255 316
	c9 153 148 185 252 133
	c86 -65 29 -192 -80 -176
	c-71 12 -105 67 -59 124"/>
<use id="tclef" transform="scale(0.045)"
	xlink:href="#utclef"/>
</defs>
<use x="25.33" y="165.67" xlink:href="#tclef"/>
<defs>
<path id="uflat" fill="currentColor" d="
	m100 -746
	h32
	v734
	l-32 4
	m32 -332
	c46 -72 152 -90 208 -20
	c100 110 -120 326 -208 348
	m0 -28
	c54 0 200 -206 130 -290
	c-50 -60 -130 -4 -130 34"/>
<use id="ft0" transform="translate(-3.5,3.5) scale(0.018)"
	xlink:href="#uflat"/>
</defs>
<use x="40.33" y="153.67" xlink:href="#ft0"/>
<use x="45.83" y="144.67" xlink:href="#ft0"/>
<use x="51.33" y="156.67" xlink:href="#ft0"/>
<g font-family="serif" font-size="16" font-weight="bold" font-style="normal"
	transform="translate(67.33,165.67) scale(1.2,1)">
	<text y="-1" text-anchor="middle">4</text>
	<text y="-13" text-anchor="middle">2</text>
</g>
<defs>
<ellipse id="hd" rx="4.1" ry="2.9"
	transform="rotate(-20)" fill="currentColor"/>
</defs>
<use x="85.33" y="144.67" xlink:href="#hd"/>
<circle fill="currentColor" cx="93.33" cy="144.67" r="1.2"/>
<path d="M81.83 144.67v20.00" stroke="currentColor" fill="none"/>
<use x="105.73" y="156.67" xlink:href="#hd"/>
<path d="M109.23 156.67v-20.00" stroke="currentColor" fill="none"/>
<path fill="currentColor"
	d="	M109.23 136.67c0.6 5.6 9.6 9 5.6 18.4
	c1.6 -6 -1.3 -11.6 -5.6 -12.8
"/>
<path fill="currentColor"
	d="M138.43 135.47l12.80 0.00v3.20l-12.80 -0.00"/>
<use x="135.23" y="156.67" xlink:href="#hd"/>
<path d="M138.73 156.67v-20.20" stroke="currentColor" fill="none"/>
<use x="147.33" y="156.67" xlink:href="#hd"/>
<path d="M150.83 156.67v-20.20" stroke="currentColor" fill="none"/>
<use x="160.33" y="159.67" xlink:href="#hd"/>
<path d="M163.83 159.67v-20.00" stroke="currentColor" fill="none"/>
<path fill="currentColor"
	d="M183.23 166.77l36.90 6.10v-3.20l-36.90 -6.10"/>
<use x="187.13" y="144.67" xlink:href="#hd"/>
<path d="M183.63 144.67v21.20" stroke="currentColor" fill="none"/>
<use x="199.13" y="147.67" xlink:href="#hd"/>
<path d="M195.63 147.67v20.20" stroke="currentColor" fill="none"/>
<use x="211.23" y="150.67" xlink:href="#hd"/>
<path d="M207.73 150.67v19.20" stroke="currentColor" fill="none"/>
<use x="223.33" y="153.67" xlink:href="#hd"/>
<path d="M219.83 153.67v18.20" stroke="currentColor" fill="none"/>
<use x="247.33" y="147.67" xlink:href="#hd"/>
<circle fill="currentColor" cx="255.33" cy="144.67" r="1.2"/>
<path d="M243.83 147.67v20.00" stroke="currentColor" fill="none"/>
<use x="267.73" y="156.67" xlink:href="#hd"/>
<path d="M271.23 156.67v-20.00" stroke="currentColor" fill="none"/>
<path fill="currentColor"
	d="	M271.23 136.67c0.6 5.6 9.6 9 5.6 18.4
	c1.6 -6 -1.3 -11.6 -5.6 -12.8
"/>
<use x="297.23" y="153.67" xlink:href="#hd"/>
<circle fill="currentColor" cx="305.23" cy="150.67" r="1.2"/>
<path d="M293.73 153.67v20.00" stroke="currentColor" fill="none"/>
<path fill="currentColor"
	d="M315.23 166.97l10.50 -2.00v-3.20l-10.50 2.00"/>
<path fill="currentColor"
	d="M315.53 161.87l9.80 -1.90v-3.20l-9.80 1.90"/>
<use x="319.03" y="144.67" xlink:href="#hd"/>
<path d="M315.53 144.67v21.20" stroke="currentColor" fill="none"/>
<use x="328.93" y="141.67" xlink:href="#hd"/>
<path d="M325.43 141.67v22.30" stroke="currentColor" fill="none"/>
<path fill="currentColor"
	d="M347.03 159.87l12.80 0.00v-3.20l-12.80 -0.00"/>
<use x="350.93" y="138.67" xlink:href="#hd"/>
<path d="M347.43 138.67v20.20" stroke="currentColor" fill="none"/>
<use x="363.03" y="138.67" xlink:href="#hd"/>
<path d="M359.53 138.67v20.20" stroke="currentColor" fill="none"/>
<use x="375.93" y="138.67" xlink:href="#hd"/>
<path d="M372.43 138.67v20.00" stroke="currentColor" fill="none"/>
<defs>
<path id="hl" stroke="currentColor" d="m-6 0h12"/>
</defs>
<use x="402.73" y="135.67" xlink:href="#hl"/>
<use x="402.73" y="135.67" xlink:href="#hd"/>
<circle fill="currentColor" cx="410.73" cy="132.67" r="1.2"/>
<path d="M399.23 135.67v20.00" stroke="currentColor" fill="none"/>
<path fill="currentColor"
	d="M420.73 161.97l10.50 2.00v-3.20l-10.50 -2.00"/>
<path fill="currentColor"
	d="M421.03 156.97l9.80 1.90v-3.20l-9.80 -1.90"/>
<use x="424.53" y="138.67" xlink:href="#hd"/>
<path d="M421.03 138.67v22.30" stroke="currentColor" fill="none"/>
<use x="434.43" y="141.67" xlink:href="#hd"/>
<path d="M430.93 141.67v21.20" stroke="currentColor" fill="none"/>
<path fill="currentColor"
	d="M452.53 167.57l44.50 0.00v-3.20l-44.50 -0.00"/>
<path fill="currentColor"
	d="M477.03 162.57l9.80 0.00v-3.20l-9.80 -0.00"/>
<use x="456.43" y="144.67" xlink:href="#hd"/>
<path d="M452.93 144.67v22.00" stroke="currentColor" fill="none"/>
<use x="468.43" y="144.67" xlink:href="#hd"/>
<path d="M464.93 144.67v22.00" stroke="currentColor" fill="none"/>
<use x="480.53" y="144.67" xlink:href="#hd"/>
<path d="M477.03 144.67v22.00" stroke="currentColor" fill="none"/>
<use x="490.43" y="141.67" xlink:href="#hd"/>
<path d="M486.93 141.67v25.00" stroke="currentColor" fill="none"/>
<use x="500.23" y="144.67" xlink:href="#hd"/>
<path d="M496.73 144.67v22.00" stroke="currentColor" fill="none"/>
<use x="524.23" y="156.67" xlink:href="#hd"/>
<path d="M527.73 156.67v-20.00" stroke="currentColor" fill="none"/>
<path fill="currentColor"
	d="M538.03 173.57l30.20 0.00v-3.20l-30.20 -0.00"/>
<path fill="currentColor"
	d="M538.43 168.57l29.50 0.00v-3.20l-29.50 -0.00"/>
<use x="541.93" y="150.67" xlink:href="#hd"/>
<path d="M538.43 150.67v22.00" stroke="currentColor" fill="none"/>
<use x="551.73" y="141.67" xlink:href="#hd"/>
<path d="M548.23 141.67v31.00" stroke="currentColor" fill="none"/>
<use x="561.53" y="144.67" xlink:href="#hd"/>
<path d="M558.03 144.67v28.00" stroke="currentColor" fill="none"/>
<use x="571.43" y="147.67" xlink:href="#hd"/>
<path d="M567.93 147.67v25.00" stroke="currentColor" fill="none"/>
<path fill="currentColor"
	d="M589.53 171.37l39.40 4.50v-3.20l-39.40 -4.50"/>
<path fill="currentColor"
	d="M600.73 167.67l6.00 0.70v-3.20l-6.00 -0.70"/>
<use x="593.43" y="150.67" xlink:href="#hd"/>
<circle fill="currentColor" cx="601.43" cy="150.67" r="1.2"/>
<path d="M589.93 150.67v19.70" stroke="currentColor" fill="none"/>
<use x="610.23" y="150.67" xlink:href="#hd"/>
<path d="M606.73 150.67v21.70" stroke="currentColor" fill="none"/>
<use x="620.03" y="153.67" xlink:href="#hd"/>
<path d="M616.53 153.67v19.80" stroke="currentColor" fill="none"/>
<use x="632.13" y="156.67" xlink:href="#hd"/>
<path d="M628.63 156.67v18.20" stroke="currentColor" fill="none"/>
<use x="656.13" y="156.67" xlink:href="#hd"/>
<circle fill="currentColor" cx="664.13" cy="156.67" r="1.2"/>
<path d="M659.63 156.67v-20.00" stroke="currentColor" fill="none"/>
<use x="677.93" y="156.67" xlink:href="#hd"/>
<path d="M681.43 156.67v-20.00" stroke="currentColor" fill="none"/>
<path fill="currentColor"
	d="	M681.43 136.67c0.6 5.6 9.6 9 5.6 18.4
	c1.6 -6 -1.3 -11.6 -5.6 -12.8
"/>
<path stroke="currentColor" fill="none"
	d="M122.33 245.67v-24.00"/>
<path stroke="currentColor" fill="none"
	d="M175.43 245.67v-24.00"/>
<path stroke="currentColor" fill="none"
	d="M239.33 245.67v-24.00"/>
<path stroke="currentColor" fill="none"
	d="M292.43 245.67v-24.00"/>
<path stroke="currentColor" fill="none"
	d="M348.53 245.67v-24.00"/>
<path stroke="currentColor" fill="none"
	d="M396.83 245.67v-24.00"/>
<path stroke="currentColor" fill="none"
	d="M468.23 245.67v-24.00"/>
<path stroke="currentColor" fill="none" stroke-width="3"
	d="M546.53 245.67v-24.00"/>
<path stroke="currentColor" fill="none"
	d="M542.03 245.67v-24.00"/>
<defs>
<g id="rdots" fill="currentColor">
	<circle cx="0" cy="-9" r="1.2"/>
	<circle cx="0" cy="-15" r="1.2"/>
</g>
</defs>
<use x="538.03" y="245.67" xlink:href="#rdots"/>
<path stroke="currentColor" fill="none"
	d="M627.73 245.67v-24.00"/>
<path stroke="currentColor" fill="none" stroke-width="3"
	d="M693.43 245.67v-24.00"/>
<path stroke="currentColor" fill="none"
	d="M688.93 245.67v-24.00"/>
<path stroke="currentColor" fill="none"
	d="M13.33 245.67h681.60m-681.60 -6h681.60m-681.60 -6h681.60m-681.60 -6h681.60m-681.60 -6h681.60"/>
<text x="129.33" y="202.27">E♭</text>
<text x="243.83" y="202.27">B♭7</text>
<text x="475.23" y="202.27">E♭</text>
<text x="562.53" y="202.27">C7</text>
<text x="634.63" y="202.27">E♭</text>
<text x="660.73" y="202.27">F7</text>
</g>
<g transform="scale(0.750)" stroke-width="0.70" font-family="Times" font-size="13.00">
<text x="400.83" y="202.07">1</text>
<path stroke="currentColor" fill="none"
	d="M396.83 190.67v20M396.83 190.67h143.30v20"/>
<text x="552.03" y="202.07">2</text>
<path stroke="currentColor" fill="none"
	d="M548.03 190.67v20M548.03 190.67h146.90v20"/>
<use x="25.33" y="245.67" xlink:href="#tclef"/>
<use x="40.33" y="233.67" xlink:href="#ft0"/>
<use x="45.83" y="224.67" xlink:href="#ft0"/>
<use x="51.33" y="236.67" xlink:href="#ft0"/>
<path fill="currentColor"
	d="M72.53 213.97l41.50 -3.70v3.20l-41.50 3.70"/>
<path fill="currentColor"
	d="M84.23 217.97l6.00 -0.50v3.20l-6.00 0.50"/>
<use x="69.33" y="242.67" xlink:href="#hd"/>
<circle fill="currentColor" cx="77.33" cy="242.67" r="1.2"/>
<path d="M72.83 242.67v-27.70" stroke="currentColor" fill="none"/>
<use x="86.73" y="236.67" xlink:href="#hd"/>
<path d="M90.23 236.67v-23.30" stroke="currentColor" fill="none"/>
<use x="97.03" y="230.67" xlink:href="#hd"/>
<path d="M100.53 230.67v-18.20" stroke="currentColor" fill="none"/>
<use x="110.13" y="236.67" xlink:href="#hd"/>
<path d="M113.63 236.67v-25.40" stroke="currentColor" fill="none"/>
<use x="134.83" y="239.67" xlink:href="#hd"/>
<circle fill="currentColor" cx="142.83" cy="236.67" r="1.2"/>
<path d="M138.33 239.67v-20.00" stroke="currentColor" fill="none"/>
<use x="158.43" y="245.67" xlink:href="#hd"/>
<path d="M161.93 245.67v-20.00" stroke="currentColor" fill="none"/>
<path fill="currentColor"
	d="	M161.93 225.67c0.6 5.6 9.6 9 5.6 18.4
	c1.6 -6 -1.3 -11.6 -5.6 -12.8
"/>
<path fill="currentColor"
	d="M191.03 217.67l39.90 -6.30v3.20l-39.90 6.30"/>
<use x="187.93" y="239.67" xlink:href="#hd"/>
<path d="M191.43 239.67v-21.00" stroke="currentColor" fill="none"/>
<use x="200.93" y="236.67" xlink:href="#hd"/>
<path d="M204.43 236.67v-20.10" stroke="currentColor" fill="none"/>
<use x="214.03" y="233.67" xlink:href="#hd"/>
<path d="M217.53 233.67v-19.10" stroke="currentColor" fill="none"/>
<use x="227.13" y="230.67" xlink:href="#hd"/>
<path d="M230.63 230.67v-18.20" stroke="currentColor" fill="none"/>
<use x="251.83" y="248.67" xlink:href="#hd"/>
<circle fill="currentColor" cx="259.83" cy="248.67" r="1.2"/>
<path d="M255.33 248.67v-20.00" stroke="currentColor" fill="none"/>
<use x="275.43" y="242.67" xlink:href="#hd"/>
<path d="M278.93 242.67v-20.00" stroke="currentColor" fill="none"/>
<path fill="currentColor"
	d="	M278.93 222.67c0.6 5.6 9.6 9 5.6 18.4
	c1.6 -6 -1.3 -11.6 -5.6 -12.8
"/>
<use x="304.93" y="233.67" xlink:href="#hd"/>
<circle fill="currentColor" cx="312.93" cy="230.67" r="1.2"/>
<path d="M301.43 233.67v20.00" stroke="currentColor" fill="none"/>
<path fill="currentColor"
	d="M324.63 253.57l11.00 0.00v-3.20l-11.00 -0.00"/>
<path fill="currentColor"
	d="M324.93 248.57l10.30 0.00v-3.20l-10.30 -0.00"/>
<use x="328.43" y="233.67" xlink:href="#hd"/>
<path d="M324.93 233.67v19.00" stroke="currentColor" fill="none"/>
<use x="338.73" y="233.67" xlink:href="#hd"/>
<path d="M335.23 233.67v19.00" stroke="currentColor" fill="none"/>
<use x="361.03" y="233.67" xlink:href="#hd"/>
<circle fill="currentColor" cx="369.03" cy="230.67" r="1.2"/>
<path d="M357.53 233.67v20.00" stroke="currentColor" fill="none"/>
<use x="384.53" y="233.67" xlink:href="#hd"/>
<path d="M381.03 233.67v20.00" stroke="currentColor" fill="none"/>
<path fill="currentColor"
	d="M381.03 253.67c0.6 -5.6 9.6 -9 5.6 -18.4
	c1.6 6 -1.3 11.6 -5.6 12.8
"/>
<path fill="currentColor"
	d="M405.43 253.57l47.40 0.00v-3.20l-47.40 -0.00"/>
<path fill="currentColor"
	d="M405.83 248.57l10.30 0.00v-3.20l-10.30 -0.00"/>
<use x="409.33" y="233.67" xlink:href="#hd"/>
<path d="M405.83 233.67v19.00" stroke="currentColor" fill="none"/>
<use x="419.63" y="227.67" xlink:href="#hd"/>
<path d="M416.13 227.67v25.00" stroke="currentColor" fill="none"/>
<use x="429.93" y="227.67" xlink:href="#hd"/>
<path d="M426.43 227.67v25.00" stroke="currentColor" fill="none"/>
<use x="442.93" y="230.67" xlink:href="#hd"/>
<path d="M439.43 230.67v22.00" stroke="currentColor" fill="none"/>
<use x="456.03" y="233.67" xlink:href="#hd"/>
<path d="M452.53 233.67v19.00" stroke="currentColor" fill="none"/>
<path fill="currentColor"
	d="M483.93 213.67l47.40 0.00v3.20l-47.40 -0.00"/>
<path fill="currentColor"
	d="M510.43 218.67l10.30 0.00v3.20l-10.30 -0.00"/>
<use x="480.73" y="236.67" xlink:href="#hd"/>
<path d="M484.23 236.67v-22.00" stroke="currentColor" fill="none"/>
<use x="493.83" y="239.67" xlink:href="#hd"/>
<path d="M497.33 239.67v-25.00" stroke="currentColor" fill="none"/>
<use x="506.93" y="239.67" xlink:href="#hd"/>
<path d="M510.43 239.67v-25.00" stroke="currentColor" fill="none"/>
<use x="517.23" y="236.67" xlink:href="#hd"/>
<path d="M520.73 236.67v-22.00" stroke="currentColor" fill="none"/>
<use x="527.53" y="233.67" xlink:href="#hd"/>
<path d="M531.03 233.67v-19.00" stroke="currentColor" fill="none"/>
<path fill="currentColor"
	d="M564.83 253.57l47.40 0.00v-3.20l-47.40 -0.00"/>
<path fill="currentColor"
	d="M578.33 248.57l10.30 0.00v-3.20l-10.30 -0.00"/>
<use x="568.73" y="230.67" xlink:href="#hd"/>
<path d="M565.23 230.67v22.00" stroke="currentColor" fill="none"/>
<use x="581.83" y="224.67" xlink:href="#hd"/>
<path d="M578.33 224.67v28.00" stroke="currentColor" fill="none"/>
<use x="592.13" y="218.67" xlink:href="#hd"/>
<path d="M588.63 218.67v34.00" stroke="currentColor" fill="none"/>
<use x="602.43" y="218.67" xlink:href="#hd"/>
<path d="M598.93 218.67v34.00" stroke="currentColor" fill="none"/>
<use x="615.43" y="233.67" xlink:href="#hd"/>
<path d="M611.93 233.67v19.00" stroke="currentColor" fill="none"/>
<path fill="currentColor"
	d="M643.33 211.47l39.90 0.00v3.20l-39.90 -0.00"/>
<use x="640.23" y="233.67" xlink:href="#hd"/>
<path d="M643.73 233.67v-21.20" stroke="currentColor" fill="none"/>
<use x="653.23" y="239.67" xlink:href="#hd"/>
<path d="M656.73 239.67v-27.20" stroke="currentColor" fill="none"/>
<use x="666.33" y="230.67" xlink:href="#hd"/>
<path d="M669.83 230.67v-18.20" stroke="currentColor" fill="none"/>
<use x="679.43" y="236.67" xlink:href="#hd"/>
<path d="M682.93 236.67v-24.20" stroke="currentColor" fill="none"/>
</g>
</svg>
