<?xml version="1.0" standalone="no"?>
<!DOCTYPE svg PUBLIC "-//W3C//DTD SVG 1.1//EN"
	"http://www.w3.org/Graphics/SVG/1.1/DTD/svg11.dtd">
<svg xmlns="http://www.w3.org/2000/svg" version="1.1"
	xmlns:xlink="http://www.w3.org/1999/xlink"
	xml:space='preserve' color="black"
	width="7.38in" height="2.33in" viewBox="0 0 531 168">
<title>data/results/biggest_11/abc/268.abc (268) tune 1</title>
<!-- Creator: abcm2ps-7.8.14 -->
<!-- CreationDate: Aug  9, 2015 23:50 -->
<!-- CommandLine: -g data/results/biggest_11/abc/268.abc -O /home/allanino/Dropbox/Trabalhos/folkme/svg/268.svg -->
<g transform="scale(0.750)" stroke-width="0.70" font-family="Times" font-size="20.00">
<text x="354.13" y="21.67" text-anchor="middle">Ashürtine March. JMP.198</text>
</g>
<g transform="scale(0.750)" stroke-width="0.70" font-family="Times" font-size="16.00">
<text x="354.13" y="41.30" text-anchor="middle">Jock Highlanders,The,aka. HA.156</text>
</g>
<g transform="scale(0.525)" stroke-width="0.70" font-family="Times" font-size="16.00">
<defs>
<path id="Hd" fill="currentColor" d="m3 -1.6
	c-1 -1.8 -7 1.4 -6 3.2
	c1 1.8 7 -1.4 6 -3.2
	m0.5 -0.3
	c2 3.8 -5 7.6 -7 3.8
	c-2 -3.8 5 -7.6 7 -3.8"/>
</defs>
<use x="107.04" y="121.06" xlink:href="#Hd"/>
<path d="M110.54 121.06v-20.00" stroke="currentColor" fill="none"/>
</g>
<g transform="scale(0.750)" stroke-width="0.70" font-family="Times" font-size="15.00" font-weight="bold">
<text x="82.63" y="86.84">= 90</text>
<path stroke="currentColor" fill="none"
	d="M166.23 125.84v-24.00"/>
<path stroke="currentColor" fill="none"
	d="M270.63 125.84v-24.00"/>
<path stroke="currentColor" fill="none"
	d="M369.13 125.84v-24.00"/>
<path stroke="currentColor" fill="none"
	d="M468.43 125.84v-24.00"/>
<path stroke="currentColor" fill="none"
	d="M572.83 125.84v-24.00"/>
<path stroke="currentColor" fill="none" stroke-width="3"
	d="M693.43 125.84v-24.00"/>
<path stroke="currentColor" fill="none"
	d="M688.93 125.84v-24.00"/>
<defs>
<g id="rdots" fill="currentColor">
	<circle cx="0" cy="-9" r="1.2"/>
	<circle cx="0" cy="-15" r="1.2"/>
</g>
</defs>
<use x="684.93" y="125.84" xlink:href="#rdots"/>
<path stroke="currentColor" fill="none"
	d="M13.33 125.84h681.60m-681.60 -6h681.60m-681.60 -6h681.60m-681.60 -6h681.60m-681.60 -6h681.60"/>
<defs>
<path id="utclef" fill="currentColor" d="m-50 -90
	c-72 -41 -72 -158 52 -188
	c150 -10 220 188 90 256
	c-114 52 -275 0 -293 -136
	c-15 -181 93 -229 220 -334
	c88 -87 79 -133 62 -210
	c-51 33 -94 105 -89 186
	c17 267 36 374 49 574
	c6 96 -19 134 -77 135
	c-80 1 -126 -93 -61 -133
	c85 -41 133 101 31 105
	c23 17 92 37 90 -92
	c-10 -223 -39 -342 -50 -617
	c0 -90 0 -162 96 -232
	c56 72 63 230 22 289
	c-74 106 -257 168 -255 316
	c9 153 148 185 252 133
	c86 -65 29 -192 -80 -176
	c-71 12 -105 67 -59 124"/>
<use id="tclef" transform="scale(0.045)"
	xlink:href="#utclef"/>
</defs>
<use x="25.33" y="125.84" xlink:href="#tclef"/>
<defs>
<path id="usharp" fill="currentColor" d="
	m136 -702
	v890
	h32
	v-890
	m128 840
	h32
	v-888
	h-32
	m-232 286
	v116
	l338 -96
	v-116
	m-338 442
	v116
	l338 -98
	v-114"/>
<use id="sh0" transform="translate(-4,5) scale(0.018)"
	xlink:href="#usharp"/>
</defs>
<use x="40.33" y="101.84" xlink:href="#sh0"/>
<defs>
<path id="csig" fill="currentColor" d="
	m1 -17.3
	c0.9 0 2.3 0.7 2.4 2.2
	c-1.2 -2 -3.6 0.1 -1.6 1.7
	c2 1 3.8 -3.5 -0.8 -4.7
	c-2 -0.4 -6.4 1.3 -5.8 7
	c0.4 6.4 7.9 6.8 9.1 0.7
	c-2.3 5.6 -6.7 5.1 -6.8 0
	c-0.5 -4.4 0.7 -7.5 3.5 -6.9"/>
</defs>
<use x="56.33" y="125.84" xlink:href="#csig"/>
<path fill="currentColor"
	d="M77.53 94.64l81.70 0.00v3.20l-81.70 -0.00"/>
<defs>
<ellipse id="hd" rx="4.1" ry="2.9"
	transform="rotate(-20)" fill="currentColor"/>
</defs>
<use x="74.33" y="113.84" xlink:href="#hd"/>
<path d="M77.83 113.84v-18.20" stroke="currentColor" fill="none"/>
<use x="85.93" y="119.84" xlink:href="#hd"/>
<path d="M89.43 119.84v-24.20" stroke="currentColor" fill="none"/>
<use x="97.53" y="119.84" xlink:href="#hd"/>
<path d="M101.03 119.84v-24.20" stroke="currentColor" fill="none"/>
<use x="109.03" y="128.84" xlink:href="#hd"/>
<path d="M112.53 128.84v-33.20" stroke="currentColor" fill="none"/>
<use x="120.63" y="119.84" xlink:href="#hd"/>
<path d="M124.13 119.84v-24.20" stroke="currentColor" fill="none"/>
<use x="132.23" y="128.84" xlink:href="#hd"/>
<path d="M135.73 128.84v-33.20" stroke="currentColor" fill="none"/>
<use x="143.83" y="113.84" xlink:href="#hd"/>
<path d="M147.33 113.84v-18.20" stroke="currentColor" fill="none"/>
<use x="155.43" y="128.84" xlink:href="#hd"/>
<path d="M158.93 128.84v-33.20" stroke="currentColor" fill="none"/>
<path fill="currentColor"
	d="M174.93 139.04l81.70 0.00v-3.20l-81.70 -0.00"/>
<use x="178.73" y="119.84" xlink:href="#hd"/>
<path d="M175.23 119.84v18.20" stroke="currentColor" fill="none"/>
<use x="190.33" y="113.84" xlink:href="#hd"/>
<path d="M186.83 113.84v24.20" stroke="currentColor" fill="none"/>
<use x="201.93" y="107.84" xlink:href="#hd"/>
<path d="M198.43 107.84v30.20" stroke="currentColor" fill="none"/>
<use x="213.43" y="113.84" xlink:href="#hd"/>
<path d="M209.93 113.84v24.20" stroke="currentColor" fill="none"/>
<use x="225.03" y="98.84" xlink:href="#hd"/>
<path d="M221.53 98.84v39.20" stroke="currentColor" fill="none"/>
<use x="236.63" y="113.84" xlink:href="#hd"/>
<path d="M233.13 113.84v24.20" stroke="currentColor" fill="none"/>
<use x="248.23" y="107.84" xlink:href="#hd"/>
<path d="M244.73 107.84v30.20" stroke="currentColor" fill="none"/>
<use x="259.83" y="113.84" xlink:href="#hd"/>
<path d="M256.33 113.84v24.20" stroke="currentColor" fill="none"/>
<path fill="currentColor"
	d="M286.33 94.64l35.40 0.00v3.20l-35.40 -0.00"/>
<use x="283.13" y="119.84" xlink:href="#hd"/>
<path d="M286.63 119.84v-24.20" stroke="currentColor" fill="none"/>
<use x="294.73" y="116.84" xlink:href="#hd"/>
<path d="M298.23 116.84v-21.20" stroke="currentColor" fill="none"/>
<use x="306.33" y="113.84" xlink:href="#hd"/>
<path d="M309.83 113.84v-18.20" stroke="currentColor" fill="none"/>
<use x="317.83" y="119.84" xlink:href="#hd"/>
<path d="M321.33 119.84v-24.20" stroke="currentColor" fill="none"/>
<use x="330.33" y="116.84" xlink:href="#hd"/>
<path d="M333.83 116.84v-20.00" stroke="currentColor" fill="none"/>
<path fill="currentColor"
	d="M349.83 91.54l12.30 3.10v3.20l-12.30 -3.10"/>
<use x="346.63" y="110.84" xlink:href="#hd"/>
<path d="M350.13 110.84v-18.20" stroke="currentColor" fill="none"/>
<use x="358.23" y="116.84" xlink:href="#hd"/>
<path d="M361.73 116.84v-21.30" stroke="currentColor" fill="none"/>
<path fill="currentColor"
	d="M384.73 93.64l35.40 -5.10v3.20l-35.40 5.10"/>
<use x="381.63" y="119.84" xlink:href="#hd"/>
<path d="M385.13 119.84v-25.20" stroke="currentColor" fill="none"/>
<use x="393.13" y="116.84" xlink:href="#hd"/>
<path d="M396.63 116.84v-23.90" stroke="currentColor" fill="none"/>
<use x="404.73" y="113.84" xlink:href="#hd"/>
<path d="M408.23 113.84v-22.50" stroke="currentColor" fill="none"/>
<use x="416.33" y="107.84" xlink:href="#hd"/>
<path d="M419.83 107.84v-18.20" stroke="currentColor" fill="none"/>
<use x="429.73" y="98.84" xlink:href="#hd"/>
<path d="M426.23 98.84v20.00" stroke="currentColor" fill="none"/>
<path fill="currentColor"
	d="M442.23 130.04l12.30 3.10v-3.20l-12.30 -3.10"/>
<use x="446.03" y="107.84" xlink:href="#hd"/>
<path d="M442.53 107.84v21.30" stroke="currentColor" fill="none"/>
<use x="457.63" y="113.84" xlink:href="#hd"/>
<path d="M454.13 113.84v18.20" stroke="currentColor" fill="none"/>
<path fill="currentColor"
	d="M477.13 139.04l81.70 0.00v-3.20l-81.70 -0.00"/>
<use x="480.93" y="119.84" xlink:href="#hd"/>
<path d="M477.43 119.84v18.20" stroke="currentColor" fill="none"/>
<use x="492.53" y="113.84" xlink:href="#hd"/>
<path d="M489.03 113.84v24.20" stroke="currentColor" fill="none"/>
<use x="504.13" y="107.84" xlink:href="#hd"/>
<path d="M500.63 107.84v30.20" stroke="currentColor" fill="none"/>
<use x="515.73" y="98.84" xlink:href="#hd"/>
<path d="M512.23 98.84v39.20" stroke="currentColor" fill="none"/>
<use x="527.33" y="104.84" xlink:href="#hd"/>
<path d="M523.83 104.84v33.20" stroke="currentColor" fill="none"/>
<use x="538.83" y="107.84" xlink:href="#hd"/>
<path d="M535.33 107.84v30.20" stroke="currentColor" fill="none"/>
<use x="550.43" y="113.84" xlink:href="#hd"/>
<path d="M546.93 113.84v24.20" stroke="currentColor" fill="none"/>
<use x="562.03" y="119.84" xlink:href="#hd"/>
<path d="M558.53 119.84v18.20" stroke="currentColor" fill="none"/>
<path fill="currentColor"
	d="M581.53 141.04l81.70 9.00v-3.20l-81.70 -9.00"/>
<use x="585.33" y="107.84" xlink:href="#hd"/>
<path d="M581.83 107.84v32.20" stroke="currentColor" fill="none"/>
<use x="596.93" y="113.84" xlink:href="#hd"/>
<path d="M593.43 113.84v27.50" stroke="currentColor" fill="none"/>
<use x="608.53" y="98.84" xlink:href="#hd"/>
<path d="M605.03 98.84v43.80" stroke="currentColor" fill="none"/>
<use x="620.13" y="113.84" xlink:href="#hd"/>
<path d="M616.63 113.84v30.10" stroke="currentColor" fill="none"/>
<use x="631.73" y="107.84" xlink:href="#hd"/>
<path d="M628.23 107.84v37.40" stroke="currentColor" fill="none"/>
<use x="643.23" y="113.84" xlink:href="#hd"/>
<path d="M639.73 113.84v32.60" stroke="currentColor" fill="none"/>
<use x="654.83" y="119.84" xlink:href="#hd"/>
<path d="M651.33 119.84v27.90" stroke="currentColor" fill="none"/>
<defs>
<path id="hl" stroke="currentColor" d="m-6 0h12"/>
</defs>
<use x="666.43" y="131.84" xlink:href="#hl"/>
<use x="666.43" y="134.84" xlink:href="#hd"/>
<path d="M662.93 134.84v14.20" stroke="currentColor" fill="none"/>
<use x="64.83" y="200.84" xlink:href="#rdots"/>
<path stroke="currentColor" fill="none"
	d="M60.83 200.84v-24.00"/>
<path stroke="currentColor" fill="none" stroke-width="3"
	d="M56.33 200.84v-24.00"/>
<path stroke="currentColor" fill="none"
	d="M222.03 200.84v-24.00"/>
<path stroke="currentColor" fill="none"
	d="M378.13 200.84v-24.00"/>
<path stroke="currentColor" fill="none"
	d="M534.53 200.84v-24.00"/>
<path stroke="currentColor" fill="none" stroke-width="3"
	d="M693.43 200.84v-24.00"/>
<path stroke="currentColor" fill="none"
	d="M688.93 200.84v-24.00"/>
<use x="684.93" y="200.84" xlink:href="#rdots"/>
<path stroke="currentColor" fill="none"
	d="M13.33 200.84h681.60m-681.60 -6h681.60m-681.60 -6h681.60m-681.60 -6h681.60m-681.60 -6h681.60"/>
<use x="25.33" y="200.84" xlink:href="#tclef"/>
<use x="40.33" y="176.84" xlink:href="#sh0"/>
<path fill="currentColor"
	d="M74.53 208.04l128.00 0.00v-3.20l-128.00 -0.00"/>
<use x="78.33" y="188.84" xlink:href="#hd"/>
<path d="M74.83 188.84v18.20" stroke="currentColor" fill="none"/>
<use x="96.53" y="182.84" xlink:href="#hd"/>
<path d="M93.03 182.84v24.20" stroke="currentColor" fill="none"/>
<use x="114.73" y="173.84" xlink:href="#hd"/>
<path d="M111.23 173.84v33.20" stroke="currentColor" fill="none"/>
<use x="132.93" y="188.84" xlink:href="#hd"/>
<path d="M129.43 188.84v18.20" stroke="currentColor" fill="none"/>
<use x="151.13" y="173.84" xlink:href="#hd"/>
<path d="M147.63 173.84v33.20" stroke="currentColor" fill="none"/>
<use x="169.33" y="188.84" xlink:href="#hd"/>
<path d="M165.83 188.84v18.20" stroke="currentColor" fill="none"/>
<use x="187.53" y="170.84" xlink:href="#hl"/>
<use x="187.53" y="170.84" xlink:href="#hd"/>
<path d="M184.03 170.84v36.20" stroke="currentColor" fill="none"/>
<use x="205.73" y="188.84" xlink:href="#hd"/>
<path d="M202.23 188.84v18.20" stroke="currentColor" fill="none"/>
<path fill="currentColor"
	d="M230.63 202.04l128.00 12.00v-3.20l-128.00 -12.00"/>
<use x="234.53" y="173.84" xlink:href="#hd"/>
<path d="M231.03 173.84v27.20" stroke="currentColor" fill="none"/>
<use x="252.73" y="170.84" xlink:href="#hl"/>
<use x="252.73" y="167.84" xlink:href="#hd"/>
<path d="M249.23 167.84v34.90" stroke="currentColor" fill="none"/>
<use x="270.93" y="173.84" xlink:href="#hd"/>
<path d="M267.43 173.84v30.60" stroke="currentColor" fill="none"/>
<use x="289.03" y="179.84" xlink:href="#hd"/>
<path d="M285.53 179.84v26.40" stroke="currentColor" fill="none"/>
<use x="307.23" y="182.84" xlink:href="#hd"/>
<path d="M303.73 182.84v25.10" stroke="currentColor" fill="none"/>
<use x="325.43" y="188.84" xlink:href="#hd"/>
<path d="M321.93 188.84v20.80" stroke="currentColor" fill="none"/>
<use x="343.63" y="188.84" xlink:href="#hd"/>
<path d="M340.13 188.84v22.50" stroke="currentColor" fill="none"/>
<use x="361.83" y="194.84" xlink:href="#hd"/>
<path d="M358.33 194.84v18.20" stroke="currentColor" fill="none"/>
<path fill="currentColor"
	d="M386.83 203.84l128.30 0.00v-3.20l-128.30 -0.00"/>
<use x="390.63" y="173.84" xlink:href="#hd"/>
<path d="M387.13 173.84v29.00" stroke="currentColor" fill="none"/>
<use x="408.83" y="170.84" xlink:href="#hl"/>
<use x="408.83" y="170.84" xlink:href="#hd"/>
<path d="M405.33 170.84v32.00" stroke="currentColor" fill="none"/>
<use x="427.13" y="170.84" xlink:href="#hl"/>
<use x="427.13" y="167.84" xlink:href="#hd"/>
<path d="M423.63 167.84v35.00" stroke="currentColor" fill="none"/>
<use x="445.53" y="170.84" xlink:href="#hl"/>
<use x="445.53" y="170.84" xlink:href="#hd"/>
<path d="M442.03 170.84v32.00" stroke="currentColor" fill="none"/>
<use x="463.73" y="182.84" xlink:href="#hd"/>
<path d="M460.23 182.84v20.00" stroke="currentColor" fill="none"/>
<use x="481.83" y="176.84" xlink:href="#hd"/>
<path d="M478.33 176.84v26.00" stroke="currentColor" fill="none"/>
<use x="500.03" y="185.84" xlink:href="#hd"/>
<path d="M496.53 185.84v17.00" stroke="currentColor" fill="none"/>
<use x="518.23" y="179.84" xlink:href="#hd"/>
<path d="M514.73 179.84v23.00" stroke="currentColor" fill="none"/>
<path fill="currentColor"
	d="M543.23 201.04l128.00 0.00v-3.20l-128.00 -0.00"/>
<use x="547.03" y="182.84" xlink:href="#hd"/>
<path d="M543.53 182.84v17.20" stroke="currentColor" fill="none"/>
<use x="565.23" y="173.84" xlink:href="#hd"/>
<path d="M561.73 173.84v26.20" stroke="currentColor" fill="none"/>
<use x="583.43" y="176.84" xlink:href="#hd"/>
<path d="M579.93 176.84v23.20" stroke="currentColor" fill="none"/>
<use x="601.63" y="173.84" xlink:href="#hd"/>
<path d="M598.13 173.84v26.20" stroke="currentColor" fill="none"/>
<use x="619.83" y="170.84" xlink:href="#hl"/>
<use x="619.83" y="170.84" xlink:href="#hd"/>
<path d="M616.33 170.84v29.20" stroke="currentColor" fill="none"/>
<use x="638.03" y="173.84" xlink:href="#hd"/>
<path d="M634.53 173.84v26.20" stroke="currentColor" fill="none"/>
<use x="656.23" y="176.84" xlink:href="#hd"/>
<path d="M652.73 176.84v23.20" stroke="currentColor" fill="none"/>
<use x="674.43" y="179.84" xlink:href="#hd"/>
<path d="M670.93 179.84v20.20" stroke="currentColor" fill="none"/>
</g>
</svg>
