<?xml version="1.0" standalone="no"?>
<!DOCTYPE svg PUBLIC "-//W3C//DTD SVG 1.1//EN"
	"http://www.w3.org/Graphics/SVG/1.1/DTD/svg11.dtd">
<svg xmlns="http://www.w3.org/2000/svg" version="1.1"
	xmlns:xlink="http://www.w3.org/1999/xlink"
	xml:space='preserve' color="black"
	width="7.38in" height="4.06in" viewBox="0 0 531 292">
<title>data/results/biggest_11/abc/269.abc (269) tune 1</title>
<!-- Creator: abcm2ps-7.8.14 -->
<!-- CreationDate: Aug  9, 2015 23:50 -->
<!-- CommandLine: -g data/results/biggest_11/abc/269.abc -O /home/allanino/Dropbox/Trabalhos/folkme/svg/269.svg -->
<g transform="scale(0.750)" stroke-width="0.70" font-family="Times" font-size="20.00">
<text x="354.13" y="21.67" text-anchor="middle">Walzer GC 5- chords</text>
</g>
<g transform="scale(0.750)" stroke-width="0.70" font-family="Times" font-size="16.00">
<text x="354.13" y="41.30" text-anchor="middle">Hanny Christen. Bd.3 Appenzell. S.1 5 (ZL 03211)</text>
<defs>
<g id="rdots" fill="currentColor">
	<circle cx="0" cy="-9" r="1.2"/>
	<circle cx="0" cy="-15" r="1.2"/>
</g>
</defs>
<use x="93.83" y="131.84" xlink:href="#rdots"/>
<path stroke="currentColor" fill="none"
	d="M89.83 131.84v-24.00"/>
<path stroke="currentColor" fill="none" stroke-width="3"
	d="M85.33 131.84v-24.00"/>
<path stroke="currentColor" fill="none"
	d="M161.23 131.84v-24.00"/>
<path stroke="currentColor" fill="none"
	d="M227.23 131.84v-24.00"/>
<path stroke="currentColor" fill="none"
	d="M294.73 131.84v-24.00"/>
<path stroke="currentColor" fill="none"
	d="M353.23 131.84v-24.00"/>
<path stroke="currentColor" fill="none"
	d="M420.23 131.84v-24.00"/>
<path stroke="currentColor" fill="none"
	d="M487.93 131.84v-24.00"/>
<path stroke="currentColor" fill="none"
	d="M561.83 131.84v-24.00"/>
<path stroke="currentColor" fill="none" stroke-width="3"
	d="M636.33 131.84v-24.00"/>
<path stroke="currentColor" fill="none"
	d="M631.83 131.84v-24.00"/>
<use x="627.83" y="131.84" xlink:href="#rdots"/>
<path stroke="currentColor" fill="none"
	d="M694.93 131.84v-24.00"/>
<path stroke="currentColor" fill="none"
	d="M13.33 131.84h681.60m-681.60 -6h681.60m-681.60 -6h681.60m-681.60 -6h681.60m-681.60 -6h681.60"/>
</g>
<g transform="scale(0.750)" stroke-width="0.70" font-family="Helvetica" font-size="12.00">
<text x="103.53" y="83.44">G</text>
<text x="167.33" y="83.44">D7</text>
<text x="303.43" y="83.44">G</text>
<text x="426.33" y="83.44">D7</text>
<text x="577.03" y="83.44">G</text>
<text x="653.03" y="83.44">G</text>
</g>
<g transform="scale(0.750)" stroke-width="0.70" font-family="Times" font-size="13.00">
<text x="565.83" y="83.24">1</text>
<path stroke="currentColor" fill="none"
	d="M561.83 71.84v20M561.83 71.84h68.00v20"/>
<text x="641.83" y="83.24">2</text>
<path stroke="currentColor" fill="none"
	d="M637.83 71.84v20M637.83 71.84h49.10"/>
<defs>
<path id="utclef" fill="currentColor" d="m-50 -90
	c-72 -41 -72 -158 52 -188
	c150 -10 220 188 90 256
	c-114 52 -275 0 -293 -136
	c-15 -181 93 -229 220 -334
	c88 -87 79 -133 62 -210
	c-51 33 -94 105 -89 186
	c17 267 36 374 49 574
	c6 96 -19 134 -77 135
	c-80 1 -126 -93 -61 -133
	c85 -41 133 101 31 105
	c23 17 92 37 90 -92
	c-10 -223 -39 -342 -50 -617
	c0 -90 0 -162 96 -232
	c56 72 63 230 22 289
	c-74 106 -257 168 -255 316
	c9 153 148 185 252 133
	c86 -65 29 -192 -80 -176
	c-71 12 -105 67 -59 124"/>
<use id="tclef" transform="scale(0.045)"
	xlink:href="#utclef"/>
</defs>
<use x="25.33" y="131.84" xlink:href="#tclef"/>
<defs>
<path id="usharp" fill="currentColor" d="
	m136 -702
	v890
	h32
	v-890
	m128 840
	h32
	v-888
	h-32
	m-232 286
	v116
	l338 -96
	v-116
	m-338 442
	v116
	l338 -98
	v-114"/>
<use id="sh0" transform="translate(-4,5) scale(0.018)"
	xlink:href="#usharp"/>
</defs>
<use x="40.33" y="107.84" xlink:href="#sh0"/>
<g font-family="serif" font-size="16" font-weight="bold" font-style="normal"
	transform="translate(56.33,131.84) scale(1.2,1)">
	<text y="-1" text-anchor="middle">4</text>
	<text y="-13" text-anchor="middle">3</text>
</g>
<defs>
<ellipse id="hd" rx="4.1" ry="2.9"
	transform="rotate(-20)" fill="currentColor"/>
</defs>
<use x="74.33" y="119.84" xlink:href="#hd"/>
<path d="M70.83 119.84v20.00" stroke="currentColor" fill="none"/>
<path fill="currentColor"
	d="M103.53 136.14l11.00 3.00v-3.20l-11.00 -3.00"/>
<use x="107.33" y="113.84" xlink:href="#hd"/>
<path d="M103.83 113.84v21.40" stroke="currentColor" fill="none"/>
<use x="117.63" y="119.84" xlink:href="#hd"/>
<path d="M114.13 119.84v18.20" stroke="currentColor" fill="none"/>
<use x="127.83" y="125.84" xlink:href="#hd"/>
<path d="M131.33 125.84v-20.00" stroke="currentColor" fill="none"/>
<path fill="currentColor"
	d="M144.13 100.54l11.00 3.00v3.20l-11.00 -3.00"/>
<use x="141.03" y="119.84" xlink:href="#hd"/>
<path d="M144.53 119.84v-18.20" stroke="currentColor" fill="none"/>
<use x="151.23" y="125.84" xlink:href="#hd"/>
<path d="M154.73 125.84v-21.40" stroke="currentColor" fill="none"/>
<path fill="currentColor"
	d="M176.93 93.24l31.50 6.70v3.20l-31.50 -6.70"/>
<use x="173.73" y="113.84" xlink:href="#hd"/>
<path d="M177.23 113.84v-19.60" stroke="currentColor" fill="none"/>
<use x="184.03" y="116.84" xlink:href="#hd"/>
<path d="M187.53 116.84v-20.40" stroke="currentColor" fill="none"/>
<use x="194.33" y="116.84" xlink:href="#hd"/>
<path d="M197.83 116.84v-18.20" stroke="currentColor" fill="none"/>
<use x="204.63" y="134.84" xlink:href="#hd"/>
<path d="M208.13 134.84v-34.00" stroke="currentColor" fill="none"/>
<use x="215.43" y="128.84" xlink:href="#hd"/>
<path d="M218.93 128.84v-20.00" stroke="currentColor" fill="none"/>
<path fill="currentColor"
	d="M242.93 94.64l31.50 0.00v3.20l-31.50 -0.00"/>
<use x="239.73" y="113.84" xlink:href="#hd"/>
<path d="M243.23 113.84v-18.20" stroke="currentColor" fill="none"/>
<use x="250.03" y="128.84" xlink:href="#hd"/>
<path d="M253.53 128.84v-33.20" stroke="currentColor" fill="none"/>
<use x="260.33" y="122.84" xlink:href="#hd"/>
<path d="M263.83 122.84v-27.20" stroke="currentColor" fill="none"/>
<use x="270.53" y="113.84" xlink:href="#hd"/>
<path d="M274.03 113.84v-18.20" stroke="currentColor" fill="none"/>
<use x="282.83" y="116.84" xlink:href="#hd"/>
<path d="M279.33 116.84v20.00" stroke="currentColor" fill="none"/>
<path fill="currentColor"
	d="M310.33 103.54l11.00 -3.00v3.20l-11.00 3.00"/>
<use x="307.23" y="125.84" xlink:href="#hd"/>
<path d="M310.73 125.84v-21.40" stroke="currentColor" fill="none"/>
<use x="317.53" y="119.84" xlink:href="#hd"/>
<path d="M321.03 119.84v-18.20" stroke="currentColor" fill="none"/>
<use x="328.33" y="134.84" xlink:href="#hd"/>
<path d="M331.83 134.84v-20.00" stroke="currentColor" fill="none"/>
<use x="341.43" y="125.84" xlink:href="#hd"/>
<path d="M344.93 125.84v-20.00" stroke="currentColor" fill="none"/>
<path fill="currentColor"
	d="M361.93 133.14l11.00 -3.50v-3.20l-11.00 3.50"/>
<use x="365.73" y="113.84" xlink:href="#hd"/>
<path d="M362.23 113.84v18.20" stroke="currentColor" fill="none"/>
<use x="376.03" y="104.84" xlink:href="#hd"/>
<path d="M372.53 104.84v23.90" stroke="currentColor" fill="none"/>
<use x="386.83" y="119.84" xlink:href="#hd"/>
<path d="M383.33 119.84v20.00" stroke="currentColor" fill="none"/>
<path fill="currentColor"
	d="M396.13 141.34l11.00 3.80v-3.20l-11.00 -3.80"/>
<use x="400.03" y="113.84" xlink:href="#hd"/>
<path d="M396.53 113.84v26.60" stroke="currentColor" fill="none"/>
<use x="410.23" y="125.84" xlink:href="#hd"/>
<path d="M406.73 125.84v18.20" stroke="currentColor" fill="none"/>
<path fill="currentColor"
	d="M435.93 106.54l11.00 -3.00v3.20l-11.00 3.00"/>
<use x="432.73" y="128.84" xlink:href="#hd"/>
<path d="M436.23 128.84v-21.40" stroke="currentColor" fill="none"/>
<use x="443.03" y="122.84" xlink:href="#hd"/>
<path d="M446.53 122.84v-18.20" stroke="currentColor" fill="none"/>
<use x="455.33" y="116.84" xlink:href="#hd"/>
<path d="M451.83 116.84v20.00" stroke="currentColor" fill="none"/>
<path fill="currentColor"
	d="M470.83 107.64l11.00 0.00v3.20l-11.00 -0.00"/>
<use x="467.63" y="128.84" xlink:href="#hd"/>
<path d="M471.13 128.84v-20.20" stroke="currentColor" fill="none"/>
<use x="477.93" y="128.84" xlink:href="#hd"/>
<path d="M481.43 128.84v-20.20" stroke="currentColor" fill="none"/>
<path fill="currentColor"
	d="M496.63 148.04l52.00 0.00v-3.20l-52.00 -0.00"/>
<use x="500.43" y="110.84" xlink:href="#hd"/>
<path d="M496.93 110.84v36.20" stroke="currentColor" fill="none"/>
<use x="510.73" y="113.84" xlink:href="#hd"/>
<path d="M507.23 113.84v33.20" stroke="currentColor" fill="none"/>
<use x="521.03" y="128.84" xlink:href="#hd"/>
<path d="M517.53 128.84v18.20" stroke="currentColor" fill="none"/>
<use x="531.23" y="110.84" xlink:href="#hd"/>
<path d="M527.73 110.84v36.20" stroke="currentColor" fill="none"/>
<use x="541.53" y="128.84" xlink:href="#hd"/>
<path d="M538.03 128.84v18.20" stroke="currentColor" fill="none"/>
<use x="551.83" y="113.84" xlink:href="#hd"/>
<path d="M548.33 113.84v33.20" stroke="currentColor" fill="none"/>
<use x="580.83" y="125.84" xlink:href="#hd"/>
<path d="M584.33 125.84v-20.00" stroke="currentColor" fill="none"/>
<defs>
<path id="r4" fill="currentColor" d="m-1 -8.5
	l3.6 5.1 -2.1 5.2 2.2 4.3
	c-2.6 -2.3 -5.1 0 -2.4 2.6
	c-4.8 -3 -1.5 -6.9 1.4 -4.1
	l-3.1 -4.5 1.9 -5.1 -1.5 -3.5"/>
</defs>
<use x="593.93" y="119.84" xlink:href="#r4"/>
<path fill="currentColor"
	d="M603.23 139.34l11.00 -2.00v-3.20l-11.00 2.00"/>
<use x="607.03" y="119.84" xlink:href="#hd"/>
<path d="M603.53 119.84v18.40" stroke="currentColor" fill="none"/>
<use x="617.33" y="116.84" xlink:href="#hd"/>
<path d="M613.83 116.84v19.60" stroke="currentColor" fill="none"/>
<use x="656.83" y="125.84" xlink:href="#hd"/>
<path d="M660.33 125.84v-20.00" stroke="currentColor" fill="none"/>
<use x="669.93" y="119.84" xlink:href="#r4"/>
<use x="683.13" y="113.84" xlink:href="#hd"/>
<path d="M679.63 113.84v20.00" stroke="currentColor" fill="none"/>
<use x="64.83" y="213.84" xlink:href="#rdots"/>
<path stroke="currentColor" fill="none"
	d="M60.83 213.84v-24.00"/>
<path stroke="currentColor" fill="none" stroke-width="3"
	d="M56.33 213.84v-24.00"/>
<path stroke="currentColor" fill="none"
	d="M146.93 213.84v-24.00"/>
<path stroke="currentColor" fill="none"
	d="M219.43 213.84v-24.00"/>
<path stroke="currentColor" fill="none"
	d="M301.83 213.84v-24.00"/>
<path stroke="currentColor" fill="none"
	d="M376.43 213.84v-24.00"/>
<path stroke="currentColor" fill="none"
	d="M457.53 213.84v-24.00"/>
<path stroke="currentColor" fill="none"
	d="M530.93 213.84v-24.00"/>
<path stroke="currentColor" fill="none"
	d="M612.03 213.84v-24.00"/>
<path stroke="currentColor" fill="none" stroke-width="3"
	d="M693.43 213.84v-24.00"/>
<path stroke="currentColor" fill="none"
	d="M688.93 213.84v-24.00"/>
<use x="684.93" y="213.84" xlink:href="#rdots"/>
<path stroke="currentColor" fill="none"
	d="M13.33 213.84h681.60m-681.60 -6h681.60m-681.60 -6h681.60m-681.60 -6h681.60m-681.60 -6h681.60"/>
</g>
<g transform="scale(0.750)" stroke-width="0.70" font-family="Helvetica" font-size="12.00">
<text x="74.53" y="166.44">G</text>
<text x="153.03" y="166.44">D7</text>
<text x="310.53" y="166.44">G</text>
<text x="463.63" y="166.44">D7</text>
<text x="620.73" y="166.44">G</text>
<use x="25.33" y="213.84" xlink:href="#tclef"/>
<use x="40.33" y="189.84" xlink:href="#sh0"/>
<path fill="currentColor"
	d="M74.53 227.04l58.40 0.00v-3.20l-58.40 -0.00"/>
<use x="78.33" y="201.84" xlink:href="#hd"/>
<path d="M74.83 201.84v24.20" stroke="currentColor" fill="none"/>
<use x="89.93" y="186.84" xlink:href="#hd"/>
<path d="M86.43 186.84v39.20" stroke="currentColor" fill="none"/>
<use x="101.43" y="201.84" xlink:href="#hd"/>
<path d="M97.93 201.84v24.20" stroke="currentColor" fill="none"/>
<use x="113.03" y="195.84" xlink:href="#hd"/>
<path d="M109.53 195.84v30.20" stroke="currentColor" fill="none"/>
<use x="124.53" y="207.84" xlink:href="#hd"/>
<path d="M121.03 207.84v18.20" stroke="currentColor" fill="none"/>
<use x="136.13" y="201.84" xlink:href="#hd"/>
<path d="M132.63 201.84v24.20" stroke="currentColor" fill="none"/>
<path fill="currentColor"
	d="M155.63 231.14l35.30 4.30v-3.20l-35.30 -4.30"/>
<use x="159.43" y="198.84" xlink:href="#hd"/>
<path d="M155.93 198.84v31.40" stroke="currentColor" fill="none"/>
<defs>
<path id="hl" stroke="currentColor" d="m-6 0h12"/>
</defs>
<use x="171.03" y="183.84" xlink:href="#hl"/>
<use x="171.03" y="183.84" xlink:href="#hd"/>
<path d="M167.53 183.84v47.80" stroke="currentColor" fill="none"/>
<use x="182.53" y="216.84" xlink:href="#hd"/>
<path d="M179.03 216.84v16.20" stroke="currentColor" fill="none"/>
<use x="194.13" y="198.84" xlink:href="#hd"/>
<path d="M190.63 198.84v35.60" stroke="currentColor" fill="none"/>
<use x="205.63" y="204.84" xlink:href="#hd"/>
<path d="M209.13 204.84v-20.00" stroke="currentColor" fill="none"/>
<path fill="currentColor"
	d="M228.13 217.44l59.70 -6.20v-3.20l-59.70 6.20"/>
<use x="231.93" y="195.84" xlink:href="#hd"/>
<path d="M228.43 195.84v20.60" stroke="currentColor" fill="none"/>
<use x="243.53" y="183.84" xlink:href="#hl"/>
<use x="243.53" y="183.84" xlink:href="#hd"/>
<path d="M240.03 183.84v31.40" stroke="currentColor" fill="none"/>
<use x="255.03" y="195.84" xlink:href="#hd"/>
<path d="M251.53 195.84v18.20" stroke="currentColor" fill="none"/>
<use x="266.63" y="183.84" xlink:href="#hl"/>
<use x="266.63" y="177.84" xlink:href="#hl"/>
<use x="266.63" y="177.84" xlink:href="#hd"/>
<path d="M263.13 177.84v35.00" stroke="currentColor" fill="none"/>
<use x="278.73" y="183.84" xlink:href="#hl"/>
<use x="278.73" y="177.84" xlink:href="#hl"/>
<use x="278.73" y="177.84" xlink:href="#hd"/>
<path d="M275.23 177.84v33.70" stroke="currentColor" fill="none"/>
<use x="290.93" y="183.84" xlink:href="#hl"/>
<use x="290.93" y="180.84" xlink:href="#hd"/>
<path d="M287.43 180.84v29.50" stroke="currentColor" fill="none"/>
<path fill="currentColor"
	d="M310.53 204.84l36.60 0.00v-3.20l-36.60 -0.00"/>
<use x="314.33" y="183.84" xlink:href="#hl"/>
<use x="314.33" y="180.84" xlink:href="#hd"/>
<path d="M310.83 180.84v23.00" stroke="currentColor" fill="none"/>
<use x="326.53" y="183.84" xlink:href="#hl"/>
<use x="326.53" y="177.84" xlink:href="#hl"/>
<use x="326.53" y="177.84" xlink:href="#hd"/>
<path d="M323.03 177.84v26.00" stroke="currentColor" fill="none"/>
<use x="338.63" y="183.84" xlink:href="#hl"/>
<use x="338.63" y="180.84" xlink:href="#hd"/>
<path d="M335.13 180.84v23.00" stroke="currentColor" fill="none"/>
<use x="350.23" y="186.84" xlink:href="#hd"/>
<path d="M346.73 186.84v17.00" stroke="currentColor" fill="none"/>
<use x="362.63" y="195.84" xlink:href="#hd"/>
<path d="M359.13 195.84v20.00" stroke="currentColor" fill="none"/>
<path fill="currentColor"
	d="M385.03 221.04l58.40 0.00v-3.20l-58.40 -0.00"/>
<use x="388.93" y="201.84" xlink:href="#hd"/>
<path d="M385.43 201.84v18.20" stroke="currentColor" fill="none"/>
<use x="400.43" y="195.84" xlink:href="#hd"/>
<path d="M396.93 195.84v24.20" stroke="currentColor" fill="none"/>
<use x="412.03" y="186.84" xlink:href="#hd"/>
<path d="M408.53 186.84v33.20" stroke="currentColor" fill="none"/>
<use x="423.53" y="201.84" xlink:href="#hd"/>
<path d="M420.03 201.84v18.20" stroke="currentColor" fill="none"/>
<use x="435.13" y="195.84" xlink:href="#hd"/>
<path d="M431.63 195.84v24.20" stroke="currentColor" fill="none"/>
<use x="446.63" y="186.84" xlink:href="#hd"/>
<path d="M443.13 186.84v33.20" stroke="currentColor" fill="none"/>
<path fill="currentColor"
	d="M466.23 224.04l35.30 0.00v-3.20l-35.30 -0.00"/>
<use x="470.03" y="195.84" xlink:href="#hd"/>
<path d="M466.53 195.84v27.20" stroke="currentColor" fill="none"/>
<use x="481.63" y="192.84" xlink:href="#hd"/>
<path d="M478.13 192.84v30.20" stroke="currentColor" fill="none"/>
<use x="493.13" y="204.84" xlink:href="#hd"/>
<path d="M489.63 204.84v18.20" stroke="currentColor" fill="none"/>
<use x="504.73" y="195.84" xlink:href="#hd"/>
<path d="M501.23 195.84v27.20" stroke="currentColor" fill="none"/>
<use x="517.13" y="198.84" xlink:href="#hd"/>
<path d="M513.63 198.84v20.00" stroke="currentColor" fill="none"/>
<path fill="currentColor"
	d="M539.53 230.04l58.40 0.00v-3.20l-58.40 -0.00"/>
<use x="543.43" y="195.84" xlink:href="#hd"/>
<path d="M539.93 195.84v33.20" stroke="currentColor" fill="none"/>
<use x="554.93" y="195.84" xlink:href="#hd"/>
<path d="M551.43 195.84v33.20" stroke="currentColor" fill="none"/>
<use x="566.53" y="210.84" xlink:href="#hd"/>
<path d="M563.03 210.84v18.20" stroke="currentColor" fill="none"/>
<use x="578.03" y="204.84" xlink:href="#hd"/>
<path d="M574.53 204.84v24.20" stroke="currentColor" fill="none"/>
<use x="589.63" y="198.84" xlink:href="#hd"/>
<path d="M586.13 198.84v30.20" stroke="currentColor" fill="none"/>
<use x="601.13" y="189.84" xlink:href="#hd"/>
<path d="M597.63 189.84v39.20" stroke="currentColor" fill="none"/>
<use x="624.53" y="186.84" xlink:href="#hd"/>
<path d="M621.03 186.84v20.00" stroke="currentColor" fill="none"/>
<use x="640.53" y="201.84" xlink:href="#r4"/>
<defs>
<path id="r8e" fill="currentColor" d="m 0 0
	c-1.5 1.5 -2.4 2 -3.6 2
	c2.4 -2.8 -2.8 -4 -2.8 -1.2
	c0 2.7 4.3 2.4 5.9 0.6"/>
<g id="r8">
	<path d="m3.3 -4l-3.4 9.6" stroke="currentColor" fill="none"/>
	<use x="3.4" y="-4" xlink:href="#r8e"/>
</g>
</defs>
<use x="655.33" y="201.84" xlink:href="#r8"/>
<use x="666.93" y="216.84" xlink:href="#hd"/>
<path d="M670.43 216.84v-20.00" stroke="currentColor" fill="none"/>
<path fill="currentColor"
	d="	M670.43 196.84c0.6 5.6 9.6 9 5.6 18.4
	c1.6 -6 -1.3 -11.6 -5.6 -12.8
"/>
<path stroke="currentColor" fill="none"
	d="M153.43 295.84v-24.00"/>
<path stroke="currentColor" fill="none"
	d="M268.13 295.84v-24.00"/>
<path stroke="currentColor" fill="none"
	d="M382.83 295.84v-24.00"/>
<path stroke="currentColor" fill="none"
	d="M488.93 295.84v-24.00"/>
<path stroke="currentColor" fill="none"
	d="M588.13 295.84v-24.00"/>
<path stroke="currentColor" fill="none"
	d="M694.93 295.84v-24.00"/>
<path stroke="currentColor" fill="none"
	d="M13.33 295.84h681.60m-681.60 -6h681.60m-681.60 -6h681.60m-681.60 -6h681.60m-681.60 -6h681.60"/>
<text x="54.83" y="251.44">C</text>
<text x="159.43" y="251.44">G7</text>
<text x="391.83" y="251.44">C</text>
<text x="594.13" y="251.44">G7</text>
<use x="25.33" y="295.84" xlink:href="#tclef"/>
<use x="40.33" y="271.84" xlink:href="#sh0"/>
<use x="58.33" y="274.84" xlink:href="#hd"/>
<path d="M54.83 274.84v20.00" stroke="currentColor" fill="none"/>
<path fill="currentColor"
	d="M82.03 297.04l52.70 -6.80v-3.20l-52.70 6.80"/>
<use x="85.93" y="277.84" xlink:href="#hd"/>
<use x="76.93" y="277.84" xlink:href="#sh0"/>
<path d="M82.43 277.84v18.20" stroke="currentColor" fill="none"/>
<use x="103.23" y="274.84" xlink:href="#hd"/>
<path d="M99.73 274.84v19.00" stroke="currentColor" fill="none"/>
<use x="120.53" y="271.84" xlink:href="#hd"/>
<path d="M117.03 271.84v19.70" stroke="currentColor" fill="none"/>
<use x="137.93" y="268.84" xlink:href="#hd"/>
<path d="M134.43 268.84v20.50" stroke="currentColor" fill="none"/>
<path fill="currentColor"
	d="M162.13 296.04l87.40 0.00v-3.20l-87.40 -0.00"/>
<use x="165.93" y="265.84" xlink:href="#hl"/>
<use x="165.93" y="265.84" xlink:href="#hd"/>
<path d="M162.43 265.84v29.20" stroke="currentColor" fill="none"/>
<use x="183.23" y="268.84" xlink:href="#hd"/>
<path d="M179.73 268.84v26.20" stroke="currentColor" fill="none"/>
<use x="200.63" y="271.84" xlink:href="#hd"/>
<path d="M197.13 271.84v23.20" stroke="currentColor" fill="none"/>
<use x="217.93" y="277.84" xlink:href="#hd"/>
<path d="M214.43 277.84v17.20" stroke="currentColor" fill="none"/>
<use x="235.23" y="268.84" xlink:href="#hd"/>
<path d="M231.73 268.84v26.20" stroke="currentColor" fill="none"/>
<use x="252.63" y="271.84" xlink:href="#hd"/>
<path d="M249.13 271.84v23.20" stroke="currentColor" fill="none"/>
<path fill="currentColor"
	d="M276.83 303.04l87.40 0.00v-3.20l-87.40 -0.00"/>
<use x="280.63" y="274.84" xlink:href="#hd"/>
<path d="M277.13 274.84v27.20" stroke="currentColor" fill="none"/>
<use x="297.93" y="271.84" xlink:href="#hd"/>
<path d="M294.43 271.84v30.20" stroke="currentColor" fill="none"/>
<use x="315.33" y="274.84" xlink:href="#hd"/>
<path d="M311.83 274.84v27.20" stroke="currentColor" fill="none"/>
<use x="332.63" y="277.84" xlink:href="#hd"/>
<path d="M329.13 277.84v24.20" stroke="currentColor" fill="none"/>
<use x="349.93" y="280.84" xlink:href="#hd"/>
<path d="M346.43 280.84v21.20" stroke="currentColor" fill="none"/>
<use x="367.33" y="283.84" xlink:href="#hd"/>
<path d="M363.83 283.84v18.20" stroke="currentColor" fill="none"/>
<path fill="currentColor"
	d="M391.53 300.04l53.40 -5.20v-3.20l-53.40 5.20"/>
<use x="395.33" y="280.84" xlink:href="#hd"/>
<path d="M391.83 280.84v18.20" stroke="currentColor" fill="none"/>
<use x="412.63" y="274.84" xlink:href="#hd"/>
<path d="M409.13 274.84v22.50" stroke="currentColor" fill="none"/>
<use x="430.03" y="265.84" xlink:href="#hl"/>
<use x="430.03" y="265.84" xlink:href="#hd"/>
<path d="M426.53 265.84v29.80" stroke="currentColor" fill="none"/>
<use x="448.13" y="271.84" xlink:href="#hd"/>
<use x="439.13" y="271.84" xlink:href="#sh0"/>
<path d="M444.63 271.84v22.00" stroke="currentColor" fill="none"/>
<use x="467.33" y="265.84" xlink:href="#hl"/>
<use x="467.33" y="265.84" xlink:href="#hd"/>
<path d="M463.83 265.84v20.00" stroke="currentColor" fill="none"/>
<use x="501.43" y="274.84" xlink:href="#hd"/>
<path d="M497.93 274.84v20.00" stroke="currentColor" fill="none"/>
<use x="528.23" y="265.84" xlink:href="#hl"/>
<use x="528.23" y="259.84" xlink:href="#hl"/>
<use x="528.23" y="259.84" xlink:href="#hd"/>
<path d="M524.73 259.84v24.00" stroke="currentColor" fill="none"/>
<path fill="currentColor"
	d="M551.23 284.04l18.10 1.70v-3.20l-18.10 -1.70"/>
<use x="555.13" y="265.84" xlink:href="#hl"/>
<use x="555.13" y="262.84" xlink:href="#hd"/>
<path d="M551.63 262.84v20.20" stroke="currentColor" fill="none"/>
<use x="572.53" y="265.84" xlink:href="#hl"/>
<use x="572.53" y="265.84" xlink:href="#hd"/>
<path d="M569.03 265.84v18.80" stroke="currentColor" fill="none"/>
<use x="600.63" y="265.84" xlink:href="#hl"/>
<use x="600.63" y="262.84" xlink:href="#hd"/>
<path d="M597.13 262.84v21.00" stroke="currentColor" fill="none"/>
<path fill="currentColor"
	d="M623.53 296.04l52.70 0.00v-3.20l-52.70 -0.00"/>
<use x="627.43" y="277.84" xlink:href="#hd"/>
<path d="M623.93 277.84v17.20" stroke="currentColor" fill="none"/>
<use x="644.73" y="268.84" xlink:href="#hd"/>
<path d="M641.23 268.84v26.20" stroke="currentColor" fill="none"/>
<use x="662.03" y="265.84" xlink:href="#hl"/>
<use x="662.03" y="262.84" xlink:href="#hd"/>
<path d="M658.53 262.84v32.20" stroke="currentColor" fill="none"/>
<use x="679.43" y="277.84" xlink:href="#hd"/>
<path d="M675.93 277.84v17.20" stroke="currentColor" fill="none"/>
<path stroke="currentColor" fill="none"
	d="M197.43 366.84v-24.00"/>
<path stroke="currentColor" fill="none"
	d="M323.53 366.84v-24.00"/>
<path stroke="currentColor" fill="none"
	d="M320.53 366.84v-24.00"/>
<path stroke="currentColor" fill="none"
	d="M13.33 366.84h310.20m-310.20 -6h310.20m-310.20 -6h310.20m-310.20 -6h310.20m-310.20 -6h310.20"/>
<text x="208.03" y="330.44">C</text>
<use x="25.33" y="366.84" xlink:href="#tclef"/>
<use x="40.33" y="342.84" xlink:href="#sh0"/>
<use x="58.33" y="339.84" xlink:href="#hd"/>
<path d="M54.83 339.84v20.00" stroke="currentColor" fill="none"/>
<path fill="currentColor"
	d="M94.53 374.04l77.10 0.00v-3.20l-77.10 -0.00"/>
<use x="98.33" y="339.84" xlink:href="#hd"/>
<path d="M94.83 339.84v33.20" stroke="currentColor" fill="none"/>
<use x="123.83" y="354.84" xlink:href="#hd"/>
<path d="M120.33 354.84v18.20" stroke="currentColor" fill="none"/>
<use x="149.23" y="354.84" xlink:href="#hd"/>
<path d="M145.73 354.84v18.20" stroke="currentColor" fill="none"/>
<use x="174.73" y="339.84" xlink:href="#hd"/>
<path d="M171.23 339.84v33.20" stroke="currentColor" fill="none"/>
<use x="211.53" y="351.84" xlink:href="#hd"/>
<path d="M208.03 351.84v20.00" stroke="currentColor" fill="none"/>
<use x="251.53" y="354.84" xlink:href="#r4"/>
<use x="291.53" y="354.84" xlink:href="#r4"/>
</g>
</svg>
