<?xml version="1.0" standalone="no"?>
<!DOCTYPE svg PUBLIC "-//W3C//DTD SVG 1.1//EN"
	"http://www.w3.org/Graphics/SVG/1.1/DTD/svg11.dtd">
<svg xmlns="http://www.w3.org/2000/svg" version="1.1"
	xmlns:xlink="http://www.w3.org/1999/xlink"
	xml:space='preserve' color="black"
	width="7.38in" height="4.37in" viewBox="0 0 531 315">
<title>data/results/biggest_11/abc/27.abc (27) tune 1</title>
<!-- Creator: abcm2ps-7.8.14 -->
<!-- CreationDate: Aug  9, 2015 23:50 -->
<!-- CommandLine: -g data/results/biggest_11/abc/27.abc -O /home/allanino/Dropbox/Trabalhos/folkme/svg/27.svg -->
<g transform="scale(0.750)" stroke-width="0.70" font-family="Times" font-size="20.00">
<text x="354.13" y="21.67" text-anchor="middle">Untitled. JaW.033</text>
</g>
<g transform="scale(0.525)" stroke-width="0.70" font-family="Times" font-size="20.00">
<defs>
<path id="Hd" fill="currentColor" d="m3 -1.6
	c-1 -1.8 -7 1.4 -6 3.2
	c1 1.8 7 -1.4 6 -3.2
	m0.5 -0.3
	c2 3.8 -5 7.6 -7 3.8
	c-2 -3.8 5 -7.6 7 -3.8"/>
</defs>
<use x="122.76" y="94.16" xlink:href="#Hd"/>
<path d="M126.26 94.16v-20.00" stroke="currentColor" fill="none"/>
</g>
<g transform="scale(0.750)" stroke-width="0.70" font-family="Times" font-size="15.00" font-weight="bold">
<text x="93.63" y="68.01">= 90</text>
<path stroke="currentColor" fill="none"
	d="M121.23 108.01v-24.00"/>
<path stroke="currentColor" fill="none"
	d="M249.33 108.01v-24.00"/>
<path stroke="currentColor" fill="none"
	d="M404.83 108.01v-24.00"/>
<path stroke="currentColor" fill="none"
	d="M558.43 108.01v-24.00"/>
<path stroke="currentColor" fill="none"
	d="M694.93 108.01v-24.00"/>
<path stroke="currentColor" fill="none"
	d="M13.33 108.01h681.60m-681.60 -6h681.60m-681.60 -6h681.60m-681.60 -6h681.60m-681.60 -6h681.60"/>
<path fill="currentColor"
	d="M659.03 91.01c2.35 -4.84 12.58 -9.36 14.93 -6.60
	l0.00 -0.21c-2.80 -4.55 -12.13 -0.03 -14.93 6.81"/>
</g>
<g transform="scale(0.750)" stroke-width="0.70" font-family="Helvetica" font-size="12.00">
<text x="77.33" y="129.61">seenore6/8irsinn)</text>
<defs>
<path id="utclef" fill="currentColor" d="m-50 -90
	c-72 -41 -72 -158 52 -188
	c150 -10 220 188 90 256
	c-114 52 -275 0 -293 -136
	c-15 -181 93 -229 220 -334
	c88 -87 79 -133 62 -210
	c-51 33 -94 105 -89 186
	c17 267 36 374 49 574
	c6 96 -19 134 -77 135
	c-80 1 -126 -93 -61 -133
	c85 -41 133 101 31 105
	c23 17 92 37 90 -92
	c-10 -223 -39 -342 -50 -617
	c0 -90 0 -162 96 -232
	c56 72 63 230 22 289
	c-74 106 -257 168 -255 316
	c9 153 148 185 252 133
	c86 -65 29 -192 -80 -176
	c-71 12 -105 67 -59 124"/>
<use id="tclef" transform="scale(0.045)"
	xlink:href="#utclef"/>
</defs>
<use x="25.33" y="108.01" xlink:href="#tclef"/>
<defs>
<path id="usharp" fill="currentColor" d="
	m136 -702
	v890
	h32
	v-890
	m128 840
	h32
	v-888
	h-32
	m-232 286
	v116
	l338 -96
	v-116
	m-338 442
	v116
	l338 -98
	v-114"/>
<use id="sh0" transform="translate(-4,5) scale(0.018)"
	xlink:href="#usharp"/>
</defs>
<use x="40.33" y="84.01" xlink:href="#sh0"/>
<use x="45.83" y="93.01" xlink:href="#sh0"/>
<use x="51.33" y="81.01" xlink:href="#sh0"/>
<defs>
<path id="csig" fill="currentColor" d="
	m1 -17.3
	c0.9 0 2.3 0.7 2.4 2.2
	c-1.2 -2 -3.6 0.1 -1.6 1.7
	c2 1 3.8 -3.5 -0.8 -4.7
	c-2 -0.4 -6.4 1.3 -5.8 7
	c0.4 6.4 7.9 6.8 9.1 0.7
	c-2.3 5.6 -6.7 5.1 -6.8 0
	c-0.5 -4.4 0.7 -7.5 3.5 -6.9"/>
<g id="ctsig">
	<use xlink:href="#csig"/>
	<path d="m0 -4v-16" stroke="currentColor"/>
</g>
</defs>
<use x="67.33" y="108.01" xlink:href="#ctsig"/>
<path fill="currentColor"
	d="M81.53 98.31l19.60 2.40v-3.20l-19.60 -2.40"/>
<defs>
<path id="hl" stroke="currentColor" d="m-6 0h12"/>
</defs>
<use x="85.33" y="78.01" xlink:href="#hl"/>
<defs>
<ellipse id="hd" rx="4.1" ry="2.9"
	transform="rotate(-20)" fill="currentColor"/>
</defs>
<use x="85.33" y="78.01" xlink:href="#hd"/>
<path d="M81.83 78.01v19.40" stroke="currentColor" fill="none"/>
<use x="104.23" y="81.01" xlink:href="#hd"/>
<path d="M100.73 81.01v18.60" stroke="currentColor" fill="none"/>
<use x="134.23" y="81.01" xlink:href="#Hd"/>
<path d="M130.73 81.01v20.00" stroke="currentColor" fill="none"/>
<path fill="currentColor"
	d="M171.73 116.21l57.50 6.00v-3.20l-57.50 -6.00"/>
<use x="175.53" y="78.01" xlink:href="#hl"/>
<use x="175.53" y="78.01" xlink:href="#hd"/>
<path d="M172.03 78.01v37.20" stroke="currentColor" fill="none"/>
<use x="194.53" y="99.01" xlink:href="#hd"/>
<path d="M191.03 99.01v18.20" stroke="currentColor" fill="none"/>
<use x="213.43" y="96.01" xlink:href="#hd"/>
<path d="M209.93 96.01v23.20" stroke="currentColor" fill="none"/>
<use x="232.33" y="93.01" xlink:href="#hd"/>
<path d="M228.83 93.01v28.20" stroke="currentColor" fill="none"/>
<path fill="currentColor"
	d="M257.93 109.21l57.50 -6.90v-3.20l-57.50 6.90"/>
<use x="261.83" y="90.01" xlink:href="#hd"/>
<path d="M258.33 90.01v18.20" stroke="currentColor" fill="none"/>
<use x="280.73" y="87.01" xlink:href="#hd"/>
<path d="M277.23 87.01v18.90" stroke="currentColor" fill="none"/>
<use x="299.63" y="84.01" xlink:href="#hd"/>
<path d="M296.13 84.01v19.60" stroke="currentColor" fill="none"/>
<use x="318.63" y="81.01" xlink:href="#hd"/>
<path d="M315.13 81.01v20.40" stroke="currentColor" fill="none"/>
<use x="339.53" y="78.01" xlink:href="#hl"/>
<use x="339.53" y="78.01" xlink:href="#hd"/>
<path d="M336.03 78.01v20.00" stroke="currentColor" fill="none"/>
<path fill="currentColor"
	d="M365.13 102.51l19.60 3.80v-3.20l-19.60 -3.80"/>
<use x="368.93" y="81.01" xlink:href="#hd"/>
<path d="M365.43 81.01v20.50" stroke="currentColor" fill="none"/>
<use x="387.93" y="87.01" xlink:href="#hd"/>
<path d="M384.43 87.01v18.20" stroke="currentColor" fill="none"/>
<use x="417.33" y="78.01" xlink:href="#hl"/>
<use x="417.33" y="78.01" xlink:href="#hd"/>
<path d="M413.83 78.01v20.00" stroke="currentColor" fill="none"/>
<path fill="currentColor"
	d="M442.93 111.01l95.30 0.00v-3.20l-95.30 -0.00"/>
<use x="446.83" y="78.01" xlink:href="#hl"/>
<use x="446.83" y="78.01" xlink:href="#hd"/>
<path d="M443.33 78.01v32.00" stroke="currentColor" fill="none"/>
<use x="465.73" y="81.01" xlink:href="#hd"/>
<path d="M462.23 81.01v29.00" stroke="currentColor" fill="none"/>
<use x="484.63" y="78.01" xlink:href="#hl"/>
<use x="484.63" y="78.01" xlink:href="#hd"/>
<path d="M481.13 78.01v32.00" stroke="currentColor" fill="none"/>
<use x="503.63" y="93.01" xlink:href="#hd"/>
<path d="M500.13 93.01v17.00" stroke="currentColor" fill="none"/>
<use x="522.53" y="81.01" xlink:href="#hd"/>
<path d="M519.03 81.01v29.00" stroke="currentColor" fill="none"/>
<use x="541.43" y="87.01" xlink:href="#hd"/>
<path d="M537.93 87.01v23.00" stroke="currentColor" fill="none"/>
<use x="570.93" y="84.01" xlink:href="#hd"/>
<path d="M567.43 84.01v20.00" stroke="currentColor" fill="none"/>
<use x="600.33" y="90.01" xlink:href="#hd"/>
<path d="M596.83 90.01v20.00" stroke="currentColor" fill="none"/>
<defs>
<path id="r4" fill="currentColor" d="m-1 -8.5
	l3.6 5.1 -2.1 5.2 2.2 4.3
	c-2.6 -2.3 -5.1 0 -2.4 2.6
	c-4.8 -3 -1.5 -6.9 1.4 -4.1
	l-3.1 -4.5 1.9 -5.1 -1.5 -3.5"/>
</defs>
<use x="629.63" y="96.01" xlink:href="#r4"/>
<path fill="currentColor"
	d="M655.23 118.31l19.60 -4.80v-3.20l-19.60 4.80"/>
<use x="659.03" y="99.01" xlink:href="#hd"/>
<path d="M655.53 99.01v18.20" stroke="currentColor" fill="none"/>
<use x="678.03" y="90.01" xlink:href="#hd"/>
<path d="M674.53 90.01v22.60" stroke="currentColor" fill="none"/>
<path stroke="currentColor" fill="none"
	d="M278.43 186.41v-24.00"/>
<path stroke="currentColor" fill="none"
	d="M473.53 186.41v-24.00"/>
<path stroke="currentColor" fill="none"
	d="M694.93 186.41v-24.00"/>
<path stroke="currentColor" fill="none"
	d="M13.33 186.41h681.60m-681.60 -6h681.60m-681.60 -6h681.60m-681.60 -6h681.60m-681.60 -6h681.60"/>
<use x="25.33" y="186.41" xlink:href="#tclef"/>
<use x="40.33" y="162.41" xlink:href="#sh0"/>
<use x="45.83" y="171.41" xlink:href="#sh0"/>
<use x="51.33" y="159.41" xlink:href="#sh0"/>
<path fill="currentColor"
	d="M65.53 180.61l83.50 0.00v-3.20l-83.50 -0.00"/>
<use x="69.33" y="162.41" xlink:href="#hd"/>
<path d="M65.83 162.41v17.20" stroke="currentColor" fill="none"/>
<use x="96.93" y="159.41" xlink:href="#hd"/>
<path d="M93.43 159.41v20.20" stroke="currentColor" fill="none"/>
<use x="124.53" y="156.41" xlink:href="#hl"/>
<use x="124.53" y="156.41" xlink:href="#hd"/>
<path d="M121.03 156.41v23.20" stroke="currentColor" fill="none"/>
<use x="152.23" y="162.41" xlink:href="#hd"/>
<path d="M148.73 162.41v17.20" stroke="currentColor" fill="none"/>
<use x="182.93" y="159.41" xlink:href="#hd"/>
<path d="M179.43 159.41v20.00" stroke="currentColor" fill="none"/>
<path fill="currentColor"
	d="M222.43 176.31l28.30 -1.80v-3.20l-28.30 1.80"/>
<use x="226.23" y="156.41" xlink:href="#hl"/>
<use x="226.23" y="156.41" xlink:href="#hd"/>
<path d="M222.73 156.41v18.90" stroke="currentColor" fill="none"/>
<use x="253.93" y="156.41" xlink:href="#hl"/>
<use x="253.93" y="153.41" xlink:href="#hd"/>
<path d="M250.43 153.41v20.10" stroke="currentColor" fill="none"/>
<use x="293.73" y="156.41" xlink:href="#hl"/>
<use x="293.73" y="150.41" xlink:href="#hl"/>
<use x="293.73" y="150.41" xlink:href="#hd"/>
<path d="M290.23 150.41v24.00" stroke="currentColor" fill="none"/>
<path fill="currentColor"
	d="M333.33 174.61l28.30 0.00v-3.20l-28.30 -0.00"/>
<use x="337.13" y="156.41" xlink:href="#hl"/>
<use x="337.13" y="153.41" xlink:href="#hd"/>
<path d="M333.63 153.41v20.20" stroke="currentColor" fill="none"/>
<use x="364.73" y="156.41" xlink:href="#hl"/>
<use x="364.73" y="150.41" xlink:href="#hl"/>
<use x="364.73" y="150.41" xlink:href="#hd"/>
<path d="M361.23 150.41v23.20" stroke="currentColor" fill="none"/>
<use x="395.43" y="156.41" xlink:href="#hl"/>
<use x="395.43" y="150.41" xlink:href="#hl"/>
<use x="395.43" y="150.41" xlink:href="#hd"/>
<path d="M391.93 150.41v24.00" stroke="currentColor" fill="none"/>
<defs>
<path id="ghl" stroke="currentColor" fill="none" d="m-3 0h6"/>
</defs>
<use x="427.83" y="156.41" xlink:href="#ghl"/>
<defs>
<path id="ghd" fill="currentColor" d="m1.7 -1
	c-1 -1.7 -4.5 0.2 -3.4 2
	c1 1.7 4.5 -0.2 3.4 -2"/>
</defs>
<use x="427.83" y="153.41" xlink:href="#ghd"/>
<path d="M429.43 153.41v-14.00" stroke="currentColor" fill="none"/>
<path fill="currentColor"
	d="M429.43 139.41c0.6 3.4 5.6 3.8 3 10
	c1.2 -4.4 -1.4 -7 -3 -7
"/>
<path stroke="currentColor" fill="none"
	d="M427.83 158.41c1.20 3.00 4.80 4.80 6.00 3.00"/>
<use x="438.83" y="156.41" xlink:href="#hl"/>
<use x="438.83" y="156.41" xlink:href="#hd"/>
<path d="M435.33 156.41v20.00" stroke="currentColor" fill="none"/>
<use x="488.93" y="159.41" xlink:href="#hd"/>
<path d="M485.43 159.41v20.00" stroke="currentColor" fill="none"/>
<path fill="currentColor"
	d="M528.43 186.61l138.80 0.00v-3.20l-138.80 -0.00"/>
<use x="532.23" y="162.41" xlink:href="#hd"/>
<path d="M528.73 162.41v23.20" stroke="currentColor" fill="none"/>
<use x="559.93" y="159.41" xlink:href="#hd"/>
<path d="M556.43 159.41v26.20" stroke="currentColor" fill="none"/>
<use x="587.53" y="165.41" xlink:href="#hd"/>
<path d="M584.03 165.41v20.20" stroke="currentColor" fill="none"/>
<use x="615.13" y="162.41" xlink:href="#hd"/>
<path d="M611.63 162.41v23.20" stroke="currentColor" fill="none"/>
<use x="642.73" y="168.41" xlink:href="#hd"/>
<path d="M639.23 168.41v17.20" stroke="currentColor" fill="none"/>
<use x="670.33" y="162.41" xlink:href="#hd"/>
<path d="M666.83 162.41v23.20" stroke="currentColor" fill="none"/>
<path stroke="currentColor" fill="none"
	d="M228.33 256.41v-24.00"/>
<path stroke="currentColor" fill="none"
	d="M399.73 256.41v-24.00"/>
<path stroke="currentColor" fill="none"
	d="M535.43 256.41v-24.00"/>
<path stroke="currentColor" fill="none"
	d="M694.93 256.41v-24.00"/>
<path stroke="currentColor" fill="none"
	d="M13.33 256.41h681.60m-681.60 -6h681.60m-681.60 -6h681.60m-681.60 -6h681.60m-681.60 -6h681.60"/>
<use x="25.33" y="256.41" xlink:href="#tclef"/>
<use x="40.33" y="232.41" xlink:href="#sh0"/>
<use x="45.83" y="241.41" xlink:href="#sh0"/>
<use x="51.33" y="229.41" xlink:href="#sh0"/>
<path fill="currentColor"
	d="M65.53 256.61l141.70 0.00v-3.20l-141.70 -0.00"/>
<use x="69.33" y="232.41" xlink:href="#hd"/>
<path d="M65.83 232.41v23.20" stroke="currentColor" fill="none"/>
<use x="89.43" y="235.41" xlink:href="#hd"/>
<path d="M85.93 235.41v20.20" stroke="currentColor" fill="none"/>
<use x="109.63" y="232.41" xlink:href="#hd"/>
<path d="M106.13 232.41v23.20" stroke="currentColor" fill="none"/>
<use x="129.73" y="226.41" xlink:href="#hl"/>
<use x="129.73" y="226.41" xlink:href="#hd"/>
<path d="M126.23 226.41v29.20" stroke="currentColor" fill="none"/>
<use x="149.93" y="229.41" xlink:href="#hd"/>
<path d="M146.43 229.41v26.20" stroke="currentColor" fill="none"/>
<use x="170.03" y="232.41" xlink:href="#hd"/>
<path d="M166.53 232.41v23.20" stroke="currentColor" fill="none"/>
<use x="190.13" y="235.41" xlink:href="#hd"/>
<path d="M186.63 235.41v20.20" stroke="currentColor" fill="none"/>
<use x="210.33" y="238.41" xlink:href="#hd"/>
<path d="M206.83 238.41v17.20" stroke="currentColor" fill="none"/>
<path fill="currentColor"
	d="M236.93 266.61l141.70 0.00v-3.20l-141.70 -0.00"/>
<use x="240.83" y="241.41" xlink:href="#hd"/>
<path d="M237.33 241.41v24.20" stroke="currentColor" fill="none"/>
<use x="260.93" y="238.41" xlink:href="#hd"/>
<path d="M257.43 238.41v27.20" stroke="currentColor" fill="none"/>
<use x="281.03" y="244.41" xlink:href="#hd"/>
<path d="M277.53 244.41v21.20" stroke="currentColor" fill="none"/>
<use x="301.23" y="238.41" xlink:href="#hd"/>
<path d="M297.73 238.41v27.20" stroke="currentColor" fill="none"/>
<use x="321.33" y="247.41" xlink:href="#hd"/>
<path d="M317.83 247.41v18.20" stroke="currentColor" fill="none"/>
<use x="341.53" y="235.41" xlink:href="#hd"/>
<path d="M338.03 235.41v30.20" stroke="currentColor" fill="none"/>
<use x="361.63" y="241.41" xlink:href="#hd"/>
<path d="M358.13 241.41v24.20" stroke="currentColor" fill="none"/>
<use x="381.73" y="247.41" xlink:href="#hd"/>
<path d="M378.23 247.41v18.20" stroke="currentColor" fill="none"/>
<use x="412.73" y="244.41" xlink:href="#Hd"/>
<path d="M409.23 244.41v20.00" stroke="currentColor" fill="none"/>
<path fill="currentColor"
	d="M453.23 263.61l61.10 0.00v-3.20l-61.10 -0.00"/>
<use x="457.03" y="244.41" xlink:href="#hd"/>
<path d="M453.53 244.41v18.20" stroke="currentColor" fill="none"/>
<use x="477.23" y="241.41" xlink:href="#hd"/>
<path d="M473.73 241.41v21.20" stroke="currentColor" fill="none"/>
<use x="497.33" y="238.41" xlink:href="#hd"/>
<path d="M493.83 238.41v24.20" stroke="currentColor" fill="none"/>
<use x="517.53" y="244.41" xlink:href="#hd"/>
<path d="M514.03 244.41v18.20" stroke="currentColor" fill="none"/>
<use x="547.93" y="241.41" xlink:href="#hd"/>
<path d="M544.43 241.41v20.00" stroke="currentColor" fill="none"/>
<path fill="currentColor"
	d="M579.43 214.41l101.40 8.10v3.20l-101.40 -8.10"/>
<use x="576.23" y="241.41" xlink:href="#hd"/>
<path d="M579.73 241.41v-26.00" stroke="currentColor" fill="none"/>
<use x="596.43" y="238.41" xlink:href="#hd"/>
<path d="M599.93 238.41v-21.40" stroke="currentColor" fill="none"/>
<use x="616.53" y="241.41" xlink:href="#hd"/>
<path d="M620.03 241.41v-22.80" stroke="currentColor" fill="none"/>
<use x="636.73" y="238.41" xlink:href="#hd"/>
<path d="M640.23 238.41v-18.20" stroke="currentColor" fill="none"/>
<use x="656.83" y="256.41" xlink:href="#hd"/>
<path d="M660.33 256.41v-34.60" stroke="currentColor" fill="none"/>
<use x="676.93" y="253.41" xlink:href="#hd"/>
<path d="M680.43 253.41v-30.00" stroke="currentColor" fill="none"/>
<path stroke="currentColor" fill="none" stroke-width="3"
	d="M133.73 326.41v-24.00"/>
<path stroke="currentColor" fill="none"
	d="M129.23 326.41v-24.00"/>
<defs>
<g id="rdots" fill="currentColor">
	<circle cx="0" cy="-9" r="1.2"/>
	<circle cx="0" cy="-15" r="1.2"/>
</g>
</defs>
<use x="158.23" y="326.41" xlink:href="#rdots"/>
<path stroke="currentColor" fill="none"
	d="M154.23 326.41v-24.00"/>
<path stroke="currentColor" fill="none" stroke-width="3"
	d="M149.73 326.41v-24.00"/>
<path stroke="currentColor" fill="none"
	d="M200.63 326.41v-24.00"/>
<path stroke="currentColor" fill="none"
	d="M319.03 326.41v-24.00"/>
<path stroke="currentColor" fill="none"
	d="M451.63 326.41v-24.00"/>
<path stroke="currentColor" fill="none"
	d="M584.33 326.41v-24.00"/>
<path stroke="currentColor" fill="none"
	d="M694.93 326.41v-24.00"/>
<path stroke="currentColor" fill="none"
	d="M13.33 326.41h681.60m-681.60 -6h681.60m-681.60 -6h681.60m-681.60 -6h681.60m-681.60 -6h681.60"/>
<text x="210.53" y="291.01">v</text>
<use x="25.33" y="326.41" xlink:href="#tclef"/>
<use x="40.33" y="302.41" xlink:href="#sh0"/>
<use x="45.83" y="311.41" xlink:href="#sh0"/>
<use x="51.33" y="299.41" xlink:href="#sh0"/>
<use x="69.33" y="320.41" xlink:href="#hd"/>
<path d="M72.83 320.41v-20.00" stroke="currentColor" fill="none"/>
<use x="92.43" y="326.41" xlink:href="#hd"/>
<path d="M95.93 326.41v-20.00" stroke="currentColor" fill="none"/>
<use x="115.43" y="326.41" xlink:href="#hd"/>
<path d="M118.93 326.41v-20.00" stroke="currentColor" fill="none"/>
<path fill="currentColor"
	d="M174.83 306.01l15.90 -2.20v3.20l-15.90 2.20"/>
<use x="171.73" y="326.41" xlink:href="#hd"/>
<path d="M175.23 326.41v-19.40" stroke="currentColor" fill="none"/>
<use x="186.93" y="323.41" xlink:href="#hd"/>
<path d="M190.43 323.41v-18.60" stroke="currentColor" fill="none"/>
<use x="213.13" y="317.41" xlink:href="#hd"/>
<path d="M216.63 317.41v-20.00" stroke="currentColor" fill="none"/>
<path fill="currentColor"
	d="M232.73 334.01l15.90 -2.20v-3.20l-15.90 2.20"/>
<use x="236.63" y="314.41" xlink:href="#hd"/>
<path d="M233.13 314.41v18.60" stroke="currentColor" fill="none"/>
<use x="251.83" y="311.41" xlink:href="#hd"/>
<path d="M248.33 311.41v19.40" stroke="currentColor" fill="none"/>
<use x="267.03" y="317.41" xlink:href="#hd"/>
<path d="M270.53 317.41v-20.00" stroke="currentColor" fill="none"/>
<path fill="currentColor"
	d="M293.23 292.11l15.90 3.50v3.20l-15.90 -3.50"/>
<use x="290.03" y="311.41" xlink:href="#hd"/>
<path d="M293.53 311.41v-18.20" stroke="currentColor" fill="none"/>
<use x="305.23" y="317.41" xlink:href="#hd"/>
<path d="M308.73 317.41v-20.80" stroke="currentColor" fill="none"/>
<path fill="currentColor"
	d="M334.63 292.21l107.10 0.00v3.20l-107.10 -0.00"/>
<use x="331.53" y="320.41" xlink:href="#hd"/>
<path d="M335.03 320.41v-27.20" stroke="currentColor" fill="none"/>
<use x="346.73" y="311.41" xlink:href="#hd"/>
<path d="M350.23 311.41v-18.20" stroke="currentColor" fill="none"/>
<use x="361.93" y="314.41" xlink:href="#hd"/>
<path d="M365.43 314.41v-21.20" stroke="currentColor" fill="none"/>
<use x="377.13" y="317.41" xlink:href="#hd"/>
<path d="M380.63 317.41v-24.20" stroke="currentColor" fill="none"/>
<use x="392.33" y="320.41" xlink:href="#hd"/>
<path d="M395.83 320.41v-27.20" stroke="currentColor" fill="none"/>
<use x="407.53" y="317.41" xlink:href="#hd"/>
<path d="M411.03 317.41v-24.20" stroke="currentColor" fill="none"/>
<use x="422.73" y="314.41" xlink:href="#hd"/>
<path d="M426.23 314.41v-21.20" stroke="currentColor" fill="none"/>
<use x="437.93" y="311.41" xlink:href="#hd"/>
<path d="M441.43 311.41v-18.20" stroke="currentColor" fill="none"/>
<path fill="currentColor"
	d="M460.33 329.41l107.10 0.00v-3.20l-107.10 -0.00"/>
<use x="464.13" y="308.41" xlink:href="#hd"/>
<path d="M460.63 308.41v20.00" stroke="currentColor" fill="none"/>
<use x="479.33" y="311.41" xlink:href="#hd"/>
<path d="M475.83 311.41v17.00" stroke="currentColor" fill="none"/>
<use x="494.53" y="308.41" xlink:href="#hd"/>
<path d="M491.03 308.41v20.00" stroke="currentColor" fill="none"/>
<use x="509.73" y="305.41" xlink:href="#hd"/>
<path d="M506.23 305.41v23.00" stroke="currentColor" fill="none"/>
<use x="524.93" y="302.41" xlink:href="#hd"/>
<path d="M521.43 302.41v26.00" stroke="currentColor" fill="none"/>
<use x="540.13" y="299.41" xlink:href="#hd"/>
<path d="M536.63 299.41v29.00" stroke="currentColor" fill="none"/>
<use x="555.33" y="296.41" xlink:href="#hl"/>
<use x="555.33" y="296.41" xlink:href="#hd"/>
<path d="M551.83 296.41v32.00" stroke="currentColor" fill="none"/>
<use x="570.53" y="302.41" xlink:href="#hd"/>
<path d="M567.03 302.41v26.00" stroke="currentColor" fill="none"/>
<use x="596.83" y="305.41" xlink:href="#hd"/>
<path d="M593.33 305.41v20.00" stroke="currentColor" fill="none"/>
<use x="619.83" y="308.41" xlink:href="#hd"/>
<path d="M616.33 308.41v20.00" stroke="currentColor" fill="none"/>
<use x="642.93" y="311.41" xlink:href="#hd"/>
<path d="M639.43 311.41v20.00" stroke="currentColor" fill="none"/>
<path fill="currentColor"
	d="M662.13 328.01l15.90 -2.20v-3.20l-15.90 2.20"/>
<use x="665.93" y="308.41" xlink:href="#hd"/>
<path d="M662.43 308.41v18.60" stroke="currentColor" fill="none"/>
<use x="681.13" y="305.41" xlink:href="#hd"/>
<path d="M677.63 305.41v19.40" stroke="currentColor" fill="none"/>
<path stroke="currentColor" fill="none"
	d="M200.53 396.41v-24.00"/>
<path stroke="currentColor" fill="none"
	d="M391.63 396.41v-24.00"/>
<path stroke="currentColor" fill="none"
	d="M582.83 396.41v-24.00"/>
<path stroke="currentColor" fill="none" stroke-width="3"
	d="M693.43 396.41v-24.00"/>
<path stroke="currentColor" fill="none"
	d="M688.93 396.41v-24.00"/>
<use x="684.93" y="396.41" xlink:href="#rdots"/>
<path stroke="currentColor" fill="none"
	d="M13.33 396.41h681.60m-681.60 -6h681.60m-681.60 -6h681.60m-681.60 -6h681.60m-681.60 -6h681.60"/>
<use x="25.33" y="396.41" xlink:href="#tclef"/>
<use x="40.33" y="372.41" xlink:href="#sh0"/>
<use x="45.83" y="381.41" xlink:href="#sh0"/>
<use x="51.33" y="369.41" xlink:href="#sh0"/>
<use x="69.33" y="372.41" xlink:href="#hd"/>
<path d="M65.83 372.41v20.00" stroke="currentColor" fill="none"/>
<use x="104.73" y="378.41" xlink:href="#hd"/>
<path d="M101.23 378.41v20.00" stroke="currentColor" fill="none"/>
<use x="136.63" y="387.41" xlink:href="#hd"/>
<path d="M140.13 387.41v-20.00" stroke="currentColor" fill="none"/>
<use x="172.13" y="372.41" xlink:href="#hd"/>
<path d="M168.63 372.41v20.00" stroke="currentColor" fill="none"/>
<path fill="currentColor"
	d="M209.33 403.61l159.00 0.00v-3.20l-159.00 -0.00"/>
<use x="213.23" y="378.41" xlink:href="#hd"/>
<path d="M209.73 378.41v24.20" stroke="currentColor" fill="none"/>
<use x="235.83" y="372.41" xlink:href="#hd"/>
<path d="M232.33 372.41v30.20" stroke="currentColor" fill="none"/>
<use x="258.43" y="378.41" xlink:href="#hd"/>
<path d="M254.93 378.41v24.20" stroke="currentColor" fill="none"/>
<use x="281.03" y="381.41" xlink:href="#hd"/>
<path d="M277.53 381.41v21.20" stroke="currentColor" fill="none"/>
<use x="303.63" y="384.41" xlink:href="#hd"/>
<path d="M300.13 384.41v18.20" stroke="currentColor" fill="none"/>
<use x="326.23" y="378.41" xlink:href="#hd"/>
<path d="M322.73 378.41v24.20" stroke="currentColor" fill="none"/>
<use x="348.83" y="381.41" xlink:href="#hd"/>
<path d="M345.33 381.41v21.20" stroke="currentColor" fill="none"/>
<use x="371.43" y="384.41" xlink:href="#hd"/>
<path d="M367.93 384.41v18.20" stroke="currentColor" fill="none"/>
<path fill="currentColor"
	d="M400.43 406.61l159.10 0.00v-3.20l-159.10 -0.00"/>
<use x="404.33" y="387.41" xlink:href="#hd"/>
<path d="M400.83 387.41v18.20" stroke="currentColor" fill="none"/>
<use x="426.93" y="381.41" xlink:href="#hd"/>
<path d="M423.43 381.41v24.20" stroke="currentColor" fill="none"/>
<use x="449.53" y="375.41" xlink:href="#hd"/>
<path d="M446.03 375.41v30.20" stroke="currentColor" fill="none"/>
<use x="472.13" y="381.41" xlink:href="#hd"/>
<path d="M468.63 381.41v24.20" stroke="currentColor" fill="none"/>
<use x="494.73" y="375.41" xlink:href="#hd"/>
<path d="M491.23 375.41v30.20" stroke="currentColor" fill="none"/>
<use x="517.53" y="378.41" xlink:href="#hd"/>
<use x="508.53" y="378.41" xlink:href="#sh0"/>
<path d="M514.03 378.41v27.20" stroke="currentColor" fill="none"/>
<use x="540.13" y="375.41" xlink:href="#hd"/>
<path d="M536.63 375.41v30.20" stroke="currentColor" fill="none"/>
<use x="562.73" y="381.41" xlink:href="#hd"/>
<path d="M559.23 381.41v24.20" stroke="currentColor" fill="none"/>
<use x="595.53" y="378.41" xlink:href="#hd"/>
<path d="M592.03 378.41v20.00" stroke="currentColor" fill="none"/>
<use x="630.93" y="381.41" xlink:href="#hd"/>
<path d="M627.43 381.41v20.00" stroke="currentColor" fill="none"/>
<use x="666.33" y="381.41" xlink:href="#hd"/>
<path d="M662.83 381.41v20.00" stroke="currentColor" fill="none"/>
</g>
</svg>
