<?xml version="1.0" standalone="no"?>
<!DOCTYPE svg PUBLIC "-//W3C//DTD SVG 1.1//EN"
	"http://www.w3.org/Graphics/SVG/1.1/DTD/svg11.dtd">
<svg xmlns="http://www.w3.org/2000/svg" version="1.1"
	xmlns:xlink="http://www.w3.org/1999/xlink"
	xml:space='preserve' color="black"
	width="7.38in" height="5.36in" viewBox="0 0 531 386">
<title>data/results/biggest_11/abc/270.abc (270) tune 1</title>
<!-- Creator: abcm2ps-7.8.14 -->
<!-- CreationDate: Aug  9, 2015 23:50 -->
<!-- CommandLine: -g data/results/biggest_11/abc/270.abc -O /home/allanino/Dropbox/Trabalhos/folkme/svg/270.svg -->
<g transform="scale(0.750)" stroke-width="0.70" font-family="Times" font-size="20.00">
<text x="354.13" y="21.67" text-anchor="middle">Ländler  C (align)</text>
</g>
<g transform="scale(0.750)" stroke-width="0.70" font-family="Times" font-size="16.00">
<text x="354.13" y="41.30" text-anchor="middle">Hanny Christen. Bd.VIII Zug, Luzern, Uri I. S.424 (mz09577) orig. F,Bb-Dur</text>
<path stroke="currentColor" fill="none"
	d="M224.93 117.84v-24.00"/>
<path stroke="currentColor" fill="none"
	d="M365.33 117.84v-24.00"/>
<path stroke="currentColor" fill="none"
	d="M530.13 117.84v-24.00"/>
<path stroke="currentColor" fill="none"
	d="M694.93 117.84v-24.00"/>
<path stroke="currentColor" fill="none"
	d="M13.33 117.84h681.60m-681.60 -6h681.60m-681.60 -6h681.60m-681.60 -6h681.60m-681.60 -6h681.60"/>
</g>
<g transform="scale(0.750)" stroke-width="0.70" font-family="Helvetica" font-size="12.00">
<text x="71.43" y="81.44">F</text>
<text x="232.93" y="81.44">C7</text>
<text x="373.73" y="81.44">B♭</text>
<text x="541.43" y="81.44">F</text>
<defs>
<path id="utclef" fill="currentColor" d="m-50 -90
	c-72 -41 -72 -158 52 -188
	c150 -10 220 188 90 256
	c-114 52 -275 0 -293 -136
	c-15 -181 93 -229 220 -334
	c88 -87 79 -133 62 -210
	c-51 33 -94 105 -89 186
	c17 267 36 374 49 574
	c6 96 -19 134 -77 135
	c-80 1 -126 -93 -61 -133
	c85 -41 133 101 31 105
	c23 17 92 37 90 -92
	c-10 -223 -39 -342 -50 -617
	c0 -90 0 -162 96 -232
	c56 72 63 230 22 289
	c-74 106 -257 168 -255 316
	c9 153 148 185 252 133
	c86 -65 29 -192 -80 -176
	c-71 12 -105 67 -59 124"/>
<use id="tclef" transform="scale(0.045)"
	xlink:href="#utclef"/>
</defs>
<use x="25.33" y="117.84" xlink:href="#tclef"/>
<defs>
<path id="uflat" fill="currentColor" d="
	m100 -746
	h32
	v734
	l-32 4
	m32 -332
	c46 -72 152 -90 208 -20
	c100 110 -120 326 -208 348
	m0 -28
	c54 0 200 -206 130 -290
	c-50 -60 -130 -4 -130 34"/>
<use id="ft0" transform="translate(-3.5,3.5) scale(0.018)"
	xlink:href="#uflat"/>
</defs>
<use x="40.33" y="105.84" xlink:href="#ft0"/>
<g font-family="serif" font-size="16" font-weight="bold" font-style="normal"
	transform="translate(56.33,117.84) scale(1.2,1)">
	<text y="-1" text-anchor="middle">4</text>
	<text y="-13" text-anchor="middle">3</text>
</g>
<path fill="currentColor"
	d="M70.53 134.04l128.50 0.00v-3.20l-128.50 -0.00"/>
<defs>
<ellipse id="hd" rx="4.1" ry="2.9"
	transform="rotate(-20)" fill="currentColor"/>
</defs>
<use x="74.33" y="114.84" xlink:href="#hd"/>
<path d="M70.83 114.84v18.20" stroke="currentColor" fill="none"/>
<use x="99.93" y="102.84" xlink:href="#hd"/>
<path d="M96.43 102.84v30.20" stroke="currentColor" fill="none"/>
<use x="125.43" y="105.84" xlink:href="#hd"/>
<defs>
<path id="unat" fill="currentColor" d="
	m96 -750
	h-32
	v716
	l32 -8
	l182 -54
	v282
	h32
	v-706
	l-34 10
	l-180 50
	v-290
	m0 592
	v-190
	l182 -52
	v188"/>
<use id="nt0" transform="translate(-3,5) scale(0.018)"
	xlink:href="#unat"/>
</defs>
<use x="116.43" y="105.84" xlink:href="#nt0"/>
<path d="M121.93 105.84v27.20" stroke="currentColor" fill="none"/>
<use x="151.03" y="102.84" xlink:href="#hd"/>
<path d="M147.53 102.84v30.20" stroke="currentColor" fill="none"/>
<use x="176.63" y="99.84" xlink:href="#hd"/>
<path d="M173.13 99.84v33.20" stroke="currentColor" fill="none"/>
<use x="202.13" y="102.84" xlink:href="#hd"/>
<path d="M198.63 102.84v30.20" stroke="currentColor" fill="none"/>
<path fill="currentColor"
	d="M235.23 118.04l26.20 0.00v-3.20l-26.20 -0.00"/>
<use x="239.13" y="96.84" xlink:href="#hd"/>
<path d="M235.63 96.84v20.20" stroke="currentColor" fill="none"/>
<use x="264.63" y="96.84" xlink:href="#hd"/>
<path d="M261.13 96.84v20.20" stroke="currentColor" fill="none"/>
<use x="293.13" y="96.84" xlink:href="#hd"/>
<path d="M289.63 96.84v20.00" stroke="currentColor" fill="none"/>
<use x="333.23" y="96.84" xlink:href="#hd"/>
<path d="M329.73 96.84v20.00" stroke="currentColor" fill="none"/>
<path fill="currentColor"
	d="M375.73 120.84l128.50 0.00v-3.20l-128.50 -0.00"/>
<use x="379.53" y="99.84" xlink:href="#hd"/>
<path d="M376.03 99.84v20.00" stroke="currentColor" fill="none"/>
<use x="405.13" y="102.84" xlink:href="#hd"/>
<defs>
<path id="usharp" fill="currentColor" d="
	m136 -702
	v890
	h32
	v-890
	m128 840
	h32
	v-888
	h-32
	m-232 286
	v116
	l338 -96
	v-116
	m-338 442
	v116
	l338 -98
	v-114"/>
<use id="sh0" transform="translate(-4,5) scale(0.018)"
	xlink:href="#usharp"/>
</defs>
<use x="396.13" y="102.84" xlink:href="#sh0"/>
<path d="M401.63 102.84v17.00" stroke="currentColor" fill="none"/>
<use x="430.73" y="99.84" xlink:href="#hd"/>
<path d="M427.23 99.84v20.00" stroke="currentColor" fill="none"/>
<use x="456.33" y="93.84" xlink:href="#hd"/>
<path d="M452.83 93.84v26.00" stroke="currentColor" fill="none"/>
<use x="481.83" y="96.84" xlink:href="#hd"/>
<path d="M478.33 96.84v23.00" stroke="currentColor" fill="none"/>
<use x="507.43" y="99.84" xlink:href="#hd"/>
<path d="M503.93 99.84v20.00" stroke="currentColor" fill="none"/>
<path fill="currentColor"
	d="M540.53 120.84l128.50 0.00v-3.20l-128.50 -0.00"/>
<use x="544.33" y="102.84" xlink:href="#hd"/>
<path d="M540.83 102.84v17.00" stroke="currentColor" fill="none"/>
<defs>
<path id="hl" stroke="currentColor" d="m-6 0h12"/>
</defs>
<use x="569.93" y="87.84" xlink:href="#hl"/>
<use x="569.93" y="87.84" xlink:href="#hd"/>
<path d="M566.43 87.84v32.00" stroke="currentColor" fill="none"/>
<use x="595.53" y="90.84" xlink:href="#hd"/>
<path d="M592.03 90.84v29.00" stroke="currentColor" fill="none"/>
<use x="621.03" y="93.84" xlink:href="#hd"/>
<path d="M617.53 93.84v26.00" stroke="currentColor" fill="none"/>
<use x="646.63" y="96.84" xlink:href="#hd"/>
<path d="M643.13 96.84v23.00" stroke="currentColor" fill="none"/>
<use x="672.23" y="99.84" xlink:href="#hd"/>
<path d="M668.73 99.84v20.00" stroke="currentColor" fill="none"/>
<path stroke="currentColor" fill="none"
	d="M210.13 192.84v-24.00"/>
<path stroke="currentColor" fill="none"
	d="M376.23 192.84v-24.00"/>
<path stroke="currentColor" fill="none"
	d="M542.23 192.84v-24.00"/>
<path stroke="currentColor" fill="none"
	d="M694.93 192.84v-24.00"/>
<path stroke="currentColor" fill="none"
	d="M13.33 192.84h681.60m-681.60 -6h681.60m-681.60 -6h681.60m-681.60 -6h681.60m-681.60 -6h681.60"/>
<text x="52.13" y="152.44">C7</text>
<text x="221.53" y="152.44">F</text>
<text x="550.43" y="152.44">C7</text>
<use x="25.33" y="192.84" xlink:href="#tclef"/>
<use x="40.33" y="180.84" xlink:href="#ft0"/>
<path fill="currentColor"
	d="M54.53 200.04l129.50 0.00v-3.20l-129.50 -0.00"/>
<use x="58.33" y="177.84" xlink:href="#hd"/>
<path d="M54.83 177.84v21.20" stroke="currentColor" fill="none"/>
<use x="84.13" y="168.84" xlink:href="#hd"/>
<path d="M80.63 168.84v30.20" stroke="currentColor" fill="none"/>
<use x="109.83" y="171.84" xlink:href="#hd"/>
<path d="M106.33 171.84v27.20" stroke="currentColor" fill="none"/>
<use x="135.63" y="174.84" xlink:href="#hd"/>
<path d="M132.13 174.84v24.20" stroke="currentColor" fill="none"/>
<use x="161.43" y="177.84" xlink:href="#hd"/>
<path d="M157.93 177.84v21.20" stroke="currentColor" fill="none"/>
<use x="187.23" y="180.84" xlink:href="#hd"/>
<path d="M183.73 180.84v18.20" stroke="currentColor" fill="none"/>
<path fill="currentColor"
	d="M220.53 203.04l129.50 0.00v-3.20l-129.50 -0.00"/>
<use x="224.43" y="183.84" xlink:href="#hd"/>
<path d="M220.93 183.84v18.20" stroke="currentColor" fill="none"/>
<use x="250.23" y="177.84" xlink:href="#hd"/>
<path d="M246.73 177.84v24.20" stroke="currentColor" fill="none"/>
<use x="275.93" y="168.84" xlink:href="#hd"/>
<path d="M272.43 168.84v33.20" stroke="currentColor" fill="none"/>
<use x="301.73" y="183.84" xlink:href="#hd"/>
<path d="M298.23 183.84v18.20" stroke="currentColor" fill="none"/>
<use x="327.53" y="177.84" xlink:href="#hd"/>
<path d="M324.03 177.84v24.20" stroke="currentColor" fill="none"/>
<use x="353.33" y="168.84" xlink:href="#hd"/>
<path d="M349.83 168.84v33.20" stroke="currentColor" fill="none"/>
<path fill="currentColor"
	d="M393.63 153.84l129.50 8.70v3.20l-129.50 -8.70"/>
<use x="390.53" y="174.84" xlink:href="#hd"/>
<path d="M394.03 174.84v-19.90" stroke="currentColor" fill="none"/>
<use x="416.33" y="174.84" xlink:href="#hd"/>
<path d="M419.83 174.84v-18.20" stroke="currentColor" fill="none"/>
<use x="442.03" y="177.84" xlink:href="#hd"/>
<path d="M445.53 177.84v-19.50" stroke="currentColor" fill="none"/>
<use x="467.83" y="183.84" xlink:href="#hd"/>
<path d="M471.33 183.84v-23.70" stroke="currentColor" fill="none"/>
<use x="493.63" y="186.84" xlink:href="#hd"/>
<path d="M497.13 186.84v-25.00" stroke="currentColor" fill="none"/>
<use x="519.33" y="189.84" xlink:href="#hd"/>
<path d="M522.83 189.84v-26.30" stroke="currentColor" fill="none"/>
<path fill="currentColor"
	d="M559.73 161.64l78.00 0.00v3.20l-78.00 -0.00"/>
<use x="556.63" y="192.84" xlink:href="#hd"/>
<path d="M560.13 192.84v-30.20" stroke="currentColor" fill="none"/>
<use x="582.33" y="186.84" xlink:href="#hd"/>
<path d="M585.83 186.84v-24.20" stroke="currentColor" fill="none"/>
<use x="608.13" y="180.84" xlink:href="#hd"/>
<path d="M611.63 180.84v-18.20" stroke="currentColor" fill="none"/>
<use x="633.93" y="198.84" xlink:href="#hl"/>
<use x="633.93" y="198.84" xlink:href="#hd"/>
<path d="M637.43 198.84v-36.20" stroke="currentColor" fill="none"/>
<use x="662.53" y="192.84" xlink:href="#hd"/>
<path d="M666.03 192.84v-20.00" stroke="currentColor" fill="none"/>
<path stroke="currentColor" fill="none"
	d="M143.23 268.84v-24.00"/>
<path stroke="currentColor" fill="none"
	d="M225.03 268.84v-24.00"/>
<path stroke="currentColor" fill="none"
	d="M322.43 268.84v-24.00"/>
<path stroke="currentColor" fill="none"
	d="M419.83 268.84v-24.00"/>
<path stroke="currentColor" fill="none"
	d="M517.13 268.84v-24.00"/>
<path stroke="currentColor" fill="none" stroke-width="3"
	d="M613.13 268.84v-24.00"/>
<path stroke="currentColor" fill="none"
	d="M608.63 268.84v-24.00"/>
<defs>
<g id="rdots" fill="currentColor">
	<circle cx="0" cy="-9" r="1.2"/>
	<circle cx="0" cy="-15" r="1.2"/>
</g>
</defs>
<use x="604.63" y="268.84" xlink:href="#rdots"/>
<path stroke="currentColor" fill="none"
	d="M694.93 268.84v-24.00"/>
<path stroke="currentColor" fill="none"
	d="M691.93 268.84v-24.00"/>
<path stroke="currentColor" fill="none"
	d="M13.33 268.84h681.60m-681.60 -6h681.60m-681.60 -6h681.60m-681.60 -6h681.60m-681.60 -6h681.60"/>
<text x="152.73" y="229.44">F</text>
<text x="328.73" y="229.44">C7</text>
<text x="533.23" y="229.44">F</text>
<text x="630.63" y="229.44">F</text>
</g>
<g transform="scale(0.750)" stroke-width="0.70" font-family="Times" font-size="13.00">
<text x="521.13" y="229.24">1</text>
<path stroke="currentColor" fill="none"
	d="M517.13 217.84v20M517.13 217.84h89.40v20"/>
<text x="618.63" y="229.24">2</text>
<path stroke="currentColor" fill="none"
	d="M614.63 217.84v20M614.63 217.84h80.30v20"/>
<use x="25.33" y="268.84" xlink:href="#tclef"/>
<use x="40.33" y="256.84" xlink:href="#ft0"/>
<path fill="currentColor"
	d="M54.53 285.04l72.50 0.00v-3.20l-72.50 -0.00"/>
<use x="58.33" y="265.84" xlink:href="#hd"/>
<path d="M54.83 265.84v18.20" stroke="currentColor" fill="none"/>
<use x="72.73" y="250.84" xlink:href="#hd"/>
<path d="M69.23 250.84v33.20" stroke="currentColor" fill="none"/>
<use x="87.03" y="256.84" xlink:href="#hd"/>
<path d="M83.53 256.84v27.20" stroke="currentColor" fill="none"/>
<use x="101.43" y="253.84" xlink:href="#hd"/>
<path d="M97.93 253.84v30.20" stroke="currentColor" fill="none"/>
<use x="115.73" y="250.84" xlink:href="#hd"/>
<path d="M112.23 250.84v33.20" stroke="currentColor" fill="none"/>
<use x="130.13" y="253.84" xlink:href="#hd"/>
<path d="M126.63 253.84v30.20" stroke="currentColor" fill="none"/>
<path fill="currentColor"
	d="M151.83 276.14l15.00 -3.40v-3.20l-15.00 3.40"/>
<use x="155.73" y="256.84" xlink:href="#hd"/>
<path d="M152.23 256.84v18.20" stroke="currentColor" fill="none"/>
<use x="170.03" y="250.84" xlink:href="#hd"/>
<path d="M166.53 250.84v20.90" stroke="currentColor" fill="none"/>
<use x="185.83" y="253.84" xlink:href="#hd"/>
<path d="M182.33 253.84v20.00" stroke="currentColor" fill="none"/>
<use x="207.33" y="253.84" xlink:href="#hd"/>
<path d="M203.83 253.84v20.00" stroke="currentColor" fill="none"/>
<path fill="currentColor"
	d="M240.73 234.64l72.50 0.00v3.20l-72.50 -0.00"/>
<use x="237.53" y="253.84" xlink:href="#hd"/>
<path d="M241.03 253.84v-18.20" stroke="currentColor" fill="none"/>
<use x="251.93" y="259.84" xlink:href="#hd"/>
<path d="M255.43 259.84v-24.20" stroke="currentColor" fill="none"/>
<use x="266.23" y="265.84" xlink:href="#hd"/>
<path d="M269.73 265.84v-30.20" stroke="currentColor" fill="none"/>
<use x="280.63" y="253.84" xlink:href="#hd"/>
<path d="M284.13 253.84v-18.20" stroke="currentColor" fill="none"/>
<use x="295.03" y="259.84" xlink:href="#hd"/>
<path d="M298.53 259.84v-24.20" stroke="currentColor" fill="none"/>
<use x="309.33" y="262.84" xlink:href="#hd"/>
<path d="M312.83 262.84v-27.20" stroke="currentColor" fill="none"/>
<path fill="currentColor"
	d="M338.03 241.74l72.50 -7.10v3.20l-72.50 7.10"/>
<use x="334.93" y="265.84" xlink:href="#hd"/>
<path d="M338.43 265.84v-23.20" stroke="currentColor" fill="none"/>
<use x="349.23" y="268.84" xlink:href="#hd"/>
<path d="M352.73 268.84v-27.60" stroke="currentColor" fill="none"/>
<use x="363.63" y="268.84" xlink:href="#hd"/>
<path d="M367.13 268.84v-29.00" stroke="currentColor" fill="none"/>
<use x="378.03" y="262.84" xlink:href="#hd"/>
<path d="M381.53 262.84v-24.40" stroke="currentColor" fill="none"/>
<use x="392.33" y="256.84" xlink:href="#hd"/>
<path d="M395.83 256.84v-19.80" stroke="currentColor" fill="none"/>
<use x="406.73" y="253.84" xlink:href="#hd"/>
<path d="M410.23 253.84v-18.20" stroke="currentColor" fill="none"/>
<path fill="currentColor"
	d="M428.43 288.04l72.50 -7.90v-3.20l-72.50 7.90"/>
<use x="432.33" y="268.84" xlink:href="#hd"/>
<path d="M428.83 268.84v18.20" stroke="currentColor" fill="none"/>
<use x="446.63" y="262.84" xlink:href="#hd"/>
<path d="M443.13 262.84v22.60" stroke="currentColor" fill="none"/>
<use x="461.03" y="253.84" xlink:href="#hd"/>
<path d="M457.53 253.84v30.10" stroke="currentColor" fill="none"/>
<use x="475.43" y="247.84" xlink:href="#hd"/>
<path d="M471.93 247.84v34.50" stroke="currentColor" fill="none"/>
<use x="489.73" y="250.84" xlink:href="#hd"/>
<path d="M486.23 250.84v29.90" stroke="currentColor" fill="none"/>
<use x="504.13" y="253.84" xlink:href="#hd"/>
<path d="M500.63 253.84v25.40" stroke="currentColor" fill="none"/>
<use x="536.13" y="265.84" xlink:href="#hd"/>
<path d="M539.63 265.84v-20.00" stroke="currentColor" fill="none"/>
<use x="558.23" y="244.84" xlink:href="#hd"/>
<path d="M554.73 244.84v20.00" stroke="currentColor" fill="none"/>
<path fill="currentColor"
	d="M575.93 271.24l15.00 2.20v-3.20l-15.00 -2.20"/>
<use x="579.73" y="250.84" xlink:href="#hd"/>
<path d="M576.23 250.84v19.40" stroke="currentColor" fill="none"/>
<use x="594.13" y="253.84" xlink:href="#hd"/>
<path d="M590.63 253.84v18.60" stroke="currentColor" fill="none"/>
<use x="633.63" y="265.84" xlink:href="#hd"/>
<path d="M637.13 265.84v-20.00" stroke="currentColor" fill="none"/>
<defs>
<path id="r4" fill="currentColor" d="m-1 -8.5
	l3.6 5.1 -2.1 5.2 2.2 4.3
	c-2.6 -2.3 -5.1 0 -2.4 2.6
	c-4.8 -3 -1.5 -6.9 1.4 -4.1
	l-3.1 -4.5 1.9 -5.1 -1.5 -3.5"/>
</defs>
<use x="655.13" y="256.84" xlink:href="#r4"/>
<use x="676.63" y="253.84" xlink:href="#hd"/>
<path d="M673.13 253.84v20.00" stroke="currentColor" fill="none"/>
<use x="64.83" y="339.84" xlink:href="#rdots"/>
<path stroke="currentColor" fill="none"
	d="M60.83 339.84v-24.00"/>
<path stroke="currentColor" fill="none" stroke-width="3"
	d="M56.33 339.84v-24.00"/>
<path stroke="currentColor" fill="none"
	d="M143.33 339.84v-24.00"/>
<path stroke="currentColor" fill="none"
	d="M234.93 339.84v-24.00"/>
<path stroke="currentColor" fill="none"
	d="M317.53 339.84v-24.00"/>
<path stroke="currentColor" fill="none"
	d="M400.83 339.84v-24.00"/>
<path stroke="currentColor" fill="none"
	d="M469.23 339.84v-24.00"/>
<path stroke="currentColor" fill="none"
	d="M560.83 339.84v-24.00"/>
<path stroke="currentColor" fill="none"
	d="M629.23 339.84v-24.00"/>
<path stroke="currentColor" fill="none"
	d="M694.93 339.84v-24.00"/>
<path stroke="currentColor" fill="none"
	d="M13.33 339.84h681.60m-681.60 -6h681.60m-681.60 -6h681.60m-681.60 -6h681.60m-681.60 -6h681.60"/>
</g>
<g transform="scale(0.750)" stroke-width="0.70" font-family="Helvetica" font-size="12.00">
<text x="149.73" y="303.44">C7</text>
<text x="327.13" y="303.44">F</text>
<text x="567.13" y="303.44">C7</text>
<use x="25.33" y="339.84" xlink:href="#tclef"/>
<use x="40.33" y="327.84" xlink:href="#ft0"/>
<use x="78.33" y="336.84" xlink:href="#hd"/>
<path d="M81.83 336.84v-20.00" stroke="currentColor" fill="none"/>
<use x="98.13" y="336.84" xlink:href="#hd"/>
<path d="M101.63 336.84v-20.00" stroke="currentColor" fill="none"/>
<path fill="currentColor"
	d="M121.03 311.54l14.00 3.30v3.20l-14.00 -3.30"/>
<use x="117.83" y="330.84" xlink:href="#hd"/>
<path d="M121.33 330.84v-18.20" stroke="currentColor" fill="none"/>
<use x="131.23" y="336.84" xlink:href="#hd"/>
<path d="M134.73 336.84v-21.00" stroke="currentColor" fill="none"/>
<path fill="currentColor"
	d="M159.03 318.84l67.60 0.00v3.20l-67.60 -0.00"/>
<use x="155.83" y="336.84" xlink:href="#hd"/>
<path d="M159.33 336.84v-17.00" stroke="currentColor" fill="none"/>
<use x="169.13" y="339.84" xlink:href="#hd"/>
<path d="M172.63 339.84v-20.00" stroke="currentColor" fill="none"/>
<use x="182.53" y="339.84" xlink:href="#hd"/>
<path d="M186.03 339.84v-20.00" stroke="currentColor" fill="none"/>
<use x="195.83" y="342.84" xlink:href="#hd"/>
<path d="M199.33 342.84v-23.00" stroke="currentColor" fill="none"/>
<use x="209.13" y="345.84" xlink:href="#hl"/>
<use x="209.13" y="345.84" xlink:href="#hd"/>
<path d="M212.63 345.84v-26.00" stroke="currentColor" fill="none"/>
<use x="222.73" y="345.84" xlink:href="#hl"/>
<use x="222.73" y="348.84" xlink:href="#hd"/>
<path d="M226.23 348.84v-29.00" stroke="currentColor" fill="none"/>
<use x="247.43" y="327.84" xlink:href="#r4"/>
<path fill="currentColor"
	d="M268.53 307.54l40.60 -8.00v3.20l-40.60 8.00"/>
<use x="265.43" y="339.84" xlink:href="#hd"/>
<path d="M268.93 339.84v-31.30" stroke="currentColor" fill="none"/>
<use x="278.73" y="333.84" xlink:href="#hd"/>
<path d="M282.23 333.84v-28.00" stroke="currentColor" fill="none"/>
<use x="292.03" y="324.84" xlink:href="#hd"/>
<path d="M295.53 324.84v-21.60" stroke="currentColor" fill="none"/>
<use x="305.33" y="318.84" xlink:href="#hd"/>
<path d="M308.83 318.84v-18.20" stroke="currentColor" fill="none"/>
<path fill="currentColor"
	d="M326.23 350.04l40.60 0.00v-3.20l-40.60 -0.00"/>
<use x="330.03" y="315.84" xlink:href="#hd"/>
<path d="M326.53 315.84v33.20" stroke="currentColor" fill="none"/>
<use x="343.33" y="324.84" xlink:href="#hd"/>
<path d="M339.83 324.84v24.20" stroke="currentColor" fill="none"/>
<use x="356.63" y="330.84" xlink:href="#hd"/>
<path d="M353.13 330.84v18.20" stroke="currentColor" fill="none"/>
<use x="369.93" y="321.84" xlink:href="#hd"/>
<path d="M366.43 321.84v27.20" stroke="currentColor" fill="none"/>
<use x="384.53" y="324.84" xlink:href="#hd"/>
<path d="M381.03 324.84v20.00" stroke="currentColor" fill="none"/>
<use x="413.33" y="336.84" xlink:href="#hd"/>
<path d="M416.83 336.84v-20.00" stroke="currentColor" fill="none"/>
<use x="433.13" y="339.84" xlink:href="#hd"/>
<path d="M436.63 339.84v-20.00" stroke="currentColor" fill="none"/>
<use x="452.93" y="342.84" xlink:href="#hd"/>
<path d="M456.43 342.84v-20.00" stroke="currentColor" fill="none"/>
<path fill="currentColor"
	d="M484.93 315.04l67.60 -8.40v3.20l-67.60 8.40"/>
<use x="481.73" y="345.84" xlink:href="#hl"/>
<use x="481.73" y="345.84" xlink:href="#hd"/>
<path d="M485.23 345.84v-29.80" stroke="currentColor" fill="none"/>
<use x="495.43" y="345.84" xlink:href="#hl"/>
<use x="495.43" y="345.84" xlink:href="#hd"/>
<path d="M498.93 345.84v-31.50" stroke="currentColor" fill="none"/>
<use x="508.73" y="330.84" xlink:href="#hd"/>
<path d="M512.23 330.84v-18.20" stroke="currentColor" fill="none"/>
<use x="522.03" y="336.84" xlink:href="#hd"/>
<path d="M525.53 336.84v-25.90" stroke="currentColor" fill="none"/>
<use x="535.33" y="330.84" xlink:href="#hd"/>
<path d="M538.83 330.84v-21.50" stroke="currentColor" fill="none"/>
<use x="548.63" y="327.84" xlink:href="#hd"/>
<path d="M552.13 327.84v-20.20" stroke="currentColor" fill="none"/>
<use x="573.33" y="321.84" xlink:href="#hd"/>
<path d="M569.83 321.84v20.00" stroke="currentColor" fill="none"/>
<use x="593.13" y="324.84" xlink:href="#hd"/>
<path d="M589.63 324.84v20.00" stroke="currentColor" fill="none"/>
<use x="612.83" y="318.84" xlink:href="#hd"/>
<path d="M609.33 318.84v20.00" stroke="currentColor" fill="none"/>
<defs>
<path id="Hd" fill="currentColor" d="m3 -1.6
	c-1 -1.8 -7 1.4 -6 3.2
	c1 1.8 7 -1.4 6 -3.2
	m0.5 -0.3
	c2 3.8 -5 7.6 -7 3.8
	c-2 -3.8 5 -7.6 7 -3.8"/>
</defs>
<use x="642.23" y="318.84" xlink:href="#Hd"/>
<path d="M638.73 318.84v20.00" stroke="currentColor" fill="none"/>
<path fill="currentColor"
	d="M665.63 342.24l14.00 2.20v-3.20l-14.00 -2.20"/>
<use x="669.43" y="321.84" xlink:href="#hd"/>
<path d="M665.93 321.84v19.50" stroke="currentColor" fill="none"/>
<use x="682.73" y="324.84" xlink:href="#hd"/>
<path d="M679.23 324.84v18.50" stroke="currentColor" fill="none"/>
<path stroke="currentColor" fill="none"
	d="M164.43 410.84v-24.00"/>
<path stroke="currentColor" fill="none"
	d="M272.23 410.84v-24.00"/>
<path stroke="currentColor" fill="none"
	d="M382.73 410.84v-24.00"/>
<path stroke="currentColor" fill="none"
	d="M473.73 410.84v-24.00"/>
<path stroke="currentColor" fill="none"
	d="M470.73 410.84v-24.00"/>
<path stroke="currentColor" fill="none"
	d="M584.23 410.84v-24.00"/>
<path stroke="currentColor" fill="none"
	d="M694.93 410.84v-24.00"/>
<path stroke="currentColor" fill="none"
	d="M13.33 410.84h681.60m-681.60 -6h681.60m-681.60 -6h681.60m-681.60 -6h681.60m-681.60 -6h681.60"/>
<text x="281.73" y="374.44">F</text>
<text x="480.03" y="374.44">C7</text>
<text x="593.83" y="374.44">F</text>
<use x="25.33" y="410.84" xlink:href="#tclef"/>
<use x="40.33" y="398.84" xlink:href="#ft0"/>
<path fill="currentColor"
	d="M54.53 426.54l90.70 -6.30v-3.20l-90.70 6.30"/>
<use x="58.33" y="398.84" xlink:href="#hd"/>
<path d="M54.83 398.84v26.70" stroke="currentColor" fill="none"/>
<use x="76.33" y="401.84" xlink:href="#hd"/>
<path d="M72.83 401.84v22.40" stroke="currentColor" fill="none"/>
<use x="94.33" y="404.84" xlink:href="#hd"/>
<path d="M90.83 404.84v18.20" stroke="currentColor" fill="none"/>
<use x="112.33" y="386.84" xlink:href="#hd"/>
<path d="M108.83 386.84v35.00" stroke="currentColor" fill="none"/>
<use x="130.33" y="389.84" xlink:href="#hd"/>
<path d="M126.83 389.84v30.70" stroke="currentColor" fill="none"/>
<use x="148.33" y="392.84" xlink:href="#hd"/>
<path d="M144.83 392.84v26.50" stroke="currentColor" fill="none"/>
<use x="176.93" y="395.84" xlink:href="#hd"/>
<path d="M173.43 395.84v20.00" stroke="currentColor" fill="none"/>
<path fill="currentColor"
	d="M205.23 374.74l54.70 5.60v3.20l-54.70 -5.60"/>
<use x="202.13" y="398.84" xlink:href="#hd"/>
<path d="M205.63 398.84v-23.10" stroke="currentColor" fill="none"/>
<use x="220.13" y="395.84" xlink:href="#hd"/>
<path d="M223.63 395.84v-18.20" stroke="currentColor" fill="none"/>
<use x="238.13" y="398.84" xlink:href="#hd"/>
<path d="M241.63 398.84v-19.30" stroke="currentColor" fill="none"/>
<use x="256.13" y="410.84" xlink:href="#hd"/>
<path d="M259.63 410.84v-29.50" stroke="currentColor" fill="none"/>
<use x="284.73" y="407.84" xlink:href="#hd"/>
<path d="M288.23 407.84v-20.00" stroke="currentColor" fill="none"/>
<path fill="currentColor"
	d="M315.73 385.24l54.70 -8.60v3.20l-54.70 8.60"/>
<use x="312.63" y="416.84" xlink:href="#hl"/>
<use x="312.63" y="416.84" xlink:href="#hd"/>
<path d="M316.13 416.84v-30.70" stroke="currentColor" fill="none"/>
<use x="330.63" y="407.84" xlink:href="#hd"/>
<path d="M334.13 407.84v-24.50" stroke="currentColor" fill="none"/>
<use x="348.63" y="401.84" xlink:href="#hd"/>
<path d="M352.13 401.84v-21.40" stroke="currentColor" fill="none"/>
<use x="366.63" y="395.84" xlink:href="#hd"/>
<path d="M370.13 395.84v-18.20" stroke="currentColor" fill="none"/>
<use x="395.23" y="386.84" xlink:href="#hd"/>
<path d="M391.73 386.84v20.00" stroke="currentColor" fill="none"/>
<use x="423.13" y="398.84" xlink:href="#r4"/>
<use x="451.03" y="398.84" xlink:href="#r4"/>
<use x="486.23" y="416.84" xlink:href="#hl"/>
<use x="486.23" y="416.84" xlink:href="#hd"/>
<path d="M489.73 416.84v-20.00" stroke="currentColor" fill="none"/>
<path fill="currentColor"
	d="M517.33 376.64l54.70 0.00v3.20l-54.70 -0.00"/>
<use x="514.13" y="410.84" xlink:href="#hd"/>
<path d="M517.63 410.84v-33.20" stroke="currentColor" fill="none"/>
<use x="532.13" y="404.84" xlink:href="#hd"/>
<path d="M535.63 404.84v-27.20" stroke="currentColor" fill="none"/>
<use x="550.13" y="395.84" xlink:href="#hd"/>
<path d="M553.63 395.84v-18.20" stroke="currentColor" fill="none"/>
<use x="568.13" y="410.84" xlink:href="#hd"/>
<path d="M571.63 410.84v-33.20" stroke="currentColor" fill="none"/>
<use x="596.73" y="407.84" xlink:href="#hd"/>
<path d="M600.23 407.84v-20.00" stroke="currentColor" fill="none"/>
<path fill="currentColor"
	d="M621.03 421.04l54.70 -6.30v-3.20l-54.70 6.30"/>
<use x="624.83" y="401.84" xlink:href="#hd"/>
<path d="M621.33 401.84v18.20" stroke="currentColor" fill="none"/>
<use x="642.83" y="395.84" xlink:href="#hd"/>
<path d="M639.33 395.84v22.10" stroke="currentColor" fill="none"/>
<use x="660.83" y="386.84" xlink:href="#hd"/>
<path d="M657.33 386.84v29.00" stroke="currentColor" fill="none"/>
<use x="678.83" y="389.84" xlink:href="#hd"/>
<path d="M675.33 389.84v24.00" stroke="currentColor" fill="none"/>
<path stroke="currentColor" fill="none"
	d="M210.43 491.84v-24.00"/>
<path stroke="currentColor" fill="none"
	d="M380.33 491.84v-24.00"/>
<path stroke="currentColor" fill="none"
	d="M552.83 491.84v-24.00"/>
<path stroke="currentColor" fill="none" stroke-width="3"
	d="M693.43 491.84v-24.00"/>
<path stroke="currentColor" fill="none"
	d="M688.93 491.84v-24.00"/>
<use x="684.93" y="491.84" xlink:href="#rdots"/>
<path stroke="currentColor" fill="none"
	d="M13.33 491.84h681.60m-681.60 -6h681.60m-681.60 -6h681.60m-681.60 -6h681.60m-681.60 -6h681.60"/>
<text x="52.13" y="445.44">C7</text>
<text x="223.43" y="445.44">F</text>
<text x="390.13" y="445.44">C7</text>
<text x="565.83" y="445.44">F</text>
<use x="25.33" y="491.84" xlink:href="#tclef"/>
<use x="40.33" y="479.84" xlink:href="#ft0"/>
<use x="58.33" y="467.84" xlink:href="#hd"/>
<path d="M54.83 467.84v20.00" stroke="currentColor" fill="none"/>
<path fill="currentColor"
	d="M102.03 456.44l86.70 -5.30v3.20l-86.70 5.30"/>
<use x="98.83" y="491.84" xlink:href="#hd"/>
<path d="M102.33 491.84v-34.50" stroke="currentColor" fill="none"/>
<use x="127.53" y="473.84" xlink:href="#hd"/>
<path d="M131.03 473.84v-18.20" stroke="currentColor" fill="none"/>
<use x="156.23" y="476.84" xlink:href="#hd"/>
<path d="M159.73 476.84v-22.90" stroke="currentColor" fill="none"/>
<use x="184.93" y="479.84" xlink:href="#hd"/>
<path d="M188.43 479.84v-27.70" stroke="currentColor" fill="none"/>
<path fill="currentColor"
	d="M229.53 454.64l86.70 7.60v3.20l-86.70 -7.60"/>
<use x="226.33" y="473.84" xlink:href="#hd"/>
<path d="M229.83 473.84v-18.20" stroke="currentColor" fill="none"/>
<use x="255.03" y="476.84" xlink:href="#hd"/>
<path d="M258.53 476.84v-18.70" stroke="currentColor" fill="none"/>
<use x="283.73" y="482.84" xlink:href="#hd"/>
<path d="M287.23 482.84v-22.20" stroke="currentColor" fill="none"/>
<use x="312.43" y="488.84" xlink:href="#hd"/>
<path d="M315.93 488.84v-25.60" stroke="currentColor" fill="none"/>
<use x="344.33" y="497.84" xlink:href="#hl"/>
<use x="344.33" y="497.84" xlink:href="#hd"/>
<path d="M347.83 497.84v-20.00" stroke="currentColor" fill="none"/>
<use x="396.23" y="497.84" xlink:href="#hl"/>
<use x="396.23" y="497.84" xlink:href="#hd"/>
<path d="M399.73 497.84v-20.00" stroke="currentColor" fill="none"/>
<path fill="currentColor"
	d="M444.43 461.64l86.70 -10.00v3.20l-86.70 10.00"/>
<use x="441.33" y="491.84" xlink:href="#hd"/>
<path d="M444.83 491.84v-29.20" stroke="currentColor" fill="none"/>
<use x="470.03" y="485.84" xlink:href="#hd"/>
<path d="M473.53 485.84v-26.60" stroke="currentColor" fill="none"/>
<use x="498.63" y="476.84" xlink:href="#hd"/>
<path d="M502.13 476.84v-20.90" stroke="currentColor" fill="none"/>
<use x="527.33" y="470.84" xlink:href="#hd"/>
<path d="M530.83 470.84v-18.20" stroke="currentColor" fill="none"/>
<use x="568.83" y="467.84" xlink:href="#hd"/>
<path d="M565.33 467.84v20.00" stroke="currentColor" fill="none"/>
<use x="613.83" y="479.84" xlink:href="#r4"/>
<use x="658.93" y="479.84" xlink:href="#r4"/>
</g>
</svg>
