<?xml version="1.0" standalone="no"?>
<!DOCTYPE svg PUBLIC "-//W3C//DTD SVG 1.1//EN"
	"http://www.w3.org/Graphics/SVG/1.1/DTD/svg11.dtd">
<svg xmlns="http://www.w3.org/2000/svg" version="1.1"
	xmlns:xlink="http://www.w3.org/1999/xlink"
	xml:space='preserve' color="black"
	width="7.38in" height="3.14in" viewBox="0 0 531 226">
<title>data/results/biggest_11/abc/272.abc (272) tune 1</title>
<!-- Creator: abcm2ps-7.8.14 -->
<!-- CreationDate: Aug  9, 2015 23:50 -->
<!-- CommandLine: -g data/results/biggest_11/abc/272.abc -O /home/allanino/Dropbox/Trabalhos/folkme/svg/272.svg -->
<g transform="scale(0.750)" stroke-width="0.70" font-family="Times" font-size="20.00">
<text x="354.13" y="21.67" text-anchor="middle">Walzer F,Bb chords</text>
<path stroke="currentColor" fill="none"
	d="M159.13 101.01v-24.00"/>
<path stroke="currentColor" fill="none"
	d="M251.63 101.01v-24.00"/>
<path stroke="currentColor" fill="none"
	d="M349.43 101.01v-24.00"/>
<path stroke="currentColor" fill="none"
	d="M447.23 101.01v-24.00"/>
<path stroke="currentColor" fill="none"
	d="M561.63 101.01v-24.00"/>
<path stroke="currentColor" fill="none"
	d="M694.93 101.01v-24.00"/>
<path stroke="currentColor" fill="none"
	d="M13.33 101.01h681.60m-681.60 -6h681.60m-681.60 -6h681.60m-681.60 -6h681.60m-681.60 -6h681.60"/>
</g>
<g transform="scale(0.750)" stroke-width="0.70" font-family="Helvetica" font-size="12.00">
<text x="71.93" y="62.61">F</text>
<text x="258.93" y="62.61">C7</text>
<text x="457.83" y="62.61">F</text>
<text x="610.63" y="122.61">b</text>
<text x="607.93" y="134.61">**</text>
<text x="656.53" y="62.61">Gm</text>
<defs>
<path id="utclef" fill="currentColor" d="m-50 -90
	c-72 -41 -72 -158 52 -188
	c150 -10 220 188 90 256
	c-114 52 -275 0 -293 -136
	c-15 -181 93 -229 220 -334
	c88 -87 79 -133 62 -210
	c-51 33 -94 105 -89 186
	c17 267 36 374 49 574
	c6 96 -19 134 -77 135
	c-80 1 -126 -93 -61 -133
	c85 -41 133 101 31 105
	c23 17 92 37 90 -92
	c-10 -223 -39 -342 -50 -617
	c0 -90 0 -162 96 -232
	c56 72 63 230 22 289
	c-74 106 -257 168 -255 316
	c9 153 148 185 252 133
	c86 -65 29 -192 -80 -176
	c-71 12 -105 67 -59 124"/>
<use id="tclef" transform="scale(0.045)"
	xlink:href="#utclef"/>
</defs>
<use x="25.33" y="101.01" xlink:href="#tclef"/>
<defs>
<path id="uflat" fill="currentColor" d="
	m100 -746
	h32
	v734
	l-32 4
	m32 -332
	c46 -72 152 -90 208 -20
	c100 110 -120 326 -208 348
	m0 -28
	c54 0 200 -206 130 -290
	c-50 -60 -130 -4 -130 34"/>
<use id="ft0" transform="translate(-3.5,3.5) scale(0.018)"
	xlink:href="#uflat"/>
</defs>
<use x="40.33" y="89.01" xlink:href="#ft0"/>
<g font-family="serif" font-size="16" font-weight="bold" font-style="normal"
	transform="translate(56.33,101.01) scale(1.2,1)">
	<text y="-1" text-anchor="middle">4</text>
	<text y="-13" text-anchor="middle">3</text>
</g>
<defs>
<path id="Hd" fill="currentColor" d="m3 -1.6
	c-1 -1.8 -7 1.4 -6 3.2
	c1 1.8 7 -1.4 6 -3.2
	m0.5 -0.3
	c2 3.8 -5 7.6 -7 3.8
	c-2 -3.8 5 -7.6 7 -3.8"/>
</defs>
<use x="74.83" y="77.01" xlink:href="#Hd"/>
<path d="M71.33 77.01v20.00" stroke="currentColor" fill="none"/>
<defs>
<ellipse id="hd" rx="4.1" ry="2.9"
	transform="rotate(-20)" fill="currentColor"/>
</defs>
<use x="128.63" y="86.01" xlink:href="#hd"/>
<path d="M125.13 86.01v20.00" stroke="currentColor" fill="none"/>
<use x="172.63" y="86.01" xlink:href="#Hd"/>
<path d="M169.13 86.01v20.00" stroke="currentColor" fill="none"/>
<use x="221.13" y="92.01" xlink:href="#hd"/>
<path d="M224.63 92.01v-20.00" stroke="currentColor" fill="none"/>
<use x="265.13" y="89.01" xlink:href="#Hd"/>
<path d="M261.63 89.01v20.00" stroke="currentColor" fill="none"/>
<use x="318.93" y="86.01" xlink:href="#hd"/>
<path d="M315.43 86.01v20.00" stroke="currentColor" fill="none"/>
<use x="362.93" y="101.01" xlink:href="#Hd"/>
<path d="M366.43 101.01v-20.00" stroke="currentColor" fill="none"/>
<defs>
<path id="r4" fill="currentColor" d="m-1 -8.5
	l3.6 5.1 -2.1 5.2 2.2 4.3
	c-2.6 -2.3 -5.1 0 -2.4 2.6
	c-4.8 -3 -1.5 -6.9 1.4 -4.1
	l-3.1 -4.5 1.9 -5.1 -1.5 -3.5"/>
</defs>
<use x="416.83" y="89.01" xlink:href="#r4"/>
<use x="460.83" y="92.01" xlink:href="#hd"/>
<circle fill="currentColor" cx="468.83" cy="92.01" r="1.2"/>
<path d="M464.33 92.01v-20.00" stroke="currentColor" fill="none"/>
<use x="504.13" y="92.01" xlink:href="#hd"/>
<path d="M507.63 92.01v-20.00" stroke="currentColor" fill="none"/>
<path fill="currentColor"
	d="	M507.63 72.01c0.6 5.6 9.6 9 5.6 18.4
	c1.6 -6 -1.3 -11.6 -5.6 -12.8
"/>
<use x="531.13" y="92.01" xlink:href="#hd"/>
<path d="M534.63 92.01v-20.00" stroke="currentColor" fill="none"/>
<use x="575.13" y="92.01" xlink:href="#hd"/>
<path d="M578.63 92.01v-20.00" stroke="currentColor" fill="none"/>
<path fill="currentColor"
	d="M609.43 108.71l24.90 -2.50v-3.20l-24.90 2.50"/>
<use x="613.23" y="89.01" xlink:href="#hd"/>
<path d="M609.73 89.01v18.70" stroke="currentColor" fill="none"/>
<use x="637.53" y="86.01" xlink:href="#hd"/>
<path d="M634.03 86.01v19.30" stroke="currentColor" fill="none"/>
<use x="664.43" y="83.01" xlink:href="#hd"/>
<path d="M660.93 83.01v20.00" stroke="currentColor" fill="none"/>
<path stroke="currentColor" fill="none"
	d="M104.53 194.41v-24.00"/>
<path stroke="currentColor" fill="none"
	d="M162.23 194.41v-24.00"/>
<path stroke="currentColor" fill="none"
	d="M198.03 194.41v-24.00"/>
<path stroke="currentColor" fill="none"
	d="M264.23 194.41v-24.00"/>
<path stroke="currentColor" fill="none"
	d="M312.03 194.41v-24.00"/>
<path stroke="currentColor" fill="none"
	d="M359.73 194.41v-24.00"/>
<path stroke="currentColor" fill="none"
	d="M407.43 194.41v-24.00"/>
<path stroke="currentColor" fill="none"
	d="M456.13 194.41v-24.00"/>
<path stroke="currentColor" fill="none"
	d="M510.33 194.41v-24.00"/>
<path stroke="currentColor" fill="none"
	d="M573.33 194.41v-24.00"/>
<path stroke="currentColor" fill="none"
	d="M636.23 194.41v-24.00"/>
<path stroke="currentColor" fill="none"
	d="M694.93 194.41v-24.00"/>
<path stroke="currentColor" fill="none"
	d="M13.33 194.41h681.60m-681.60 -6h681.60m-681.60 -6h681.60m-681.60 -6h681.60m-681.60 -6h681.60"/>
<path fill="currentColor"
	d="M233.93 173.21c3.10 -3.20 16.56 -0.33 19.66 4.20
	l0.00 -0.22c-3.69 -6.31 -15.97 -9.18 -19.66 -3.98"/>
<text x="110.83" y="153.01">C7</text>
<text x="172.23" y="153.01">F</text>
<text x="271.43" y="153.01">B♭</text>
<text x="274.63" y="216.01">b</text>
<text x="369.23" y="153.01">C</text>
<text x="469.13" y="153.01">G7</text>
<text x="540.63" y="206.01">b</text>
<text x="582.33" y="153.01">C</text>
<text x="603.83" y="210.01">e</text>
<text x="645.83" y="153.01">F</text>
<use x="25.33" y="194.41" xlink:href="#tclef"/>
<use x="40.33" y="182.41" xlink:href="#ft0"/>
<use x="58.33" y="167.41" xlink:href="#hd"/>
<circle fill="currentColor" cx="66.33" cy="167.41" r="1.2"/>
<path d="M54.83 167.41v20.00" stroke="currentColor" fill="none"/>
<use x="78.73" y="176.41" xlink:href="#hd"/>
<path d="M75.23 176.41v20.00" stroke="currentColor" fill="none"/>
<path fill="currentColor"
	d="M75.23 196.41c0.6 -5.6 9.6 -9 5.6 -18.4
	c1.6 6 -1.3 11.6 -5.6 12.8
"/>
<use x="90.93" y="182.41" xlink:href="#hd"/>
<path d="M87.43 182.41v20.00" stroke="currentColor" fill="none"/>
<use x="117.03" y="176.41" xlink:href="#hd"/>
<path d="M113.53 176.41v20.00" stroke="currentColor" fill="none"/>
<use x="132.83" y="182.41" xlink:href="#r4"/>
<use x="148.63" y="179.41" xlink:href="#hd"/>
<path d="M145.13 179.41v20.00" stroke="currentColor" fill="none"/>
<use x="175.23" y="170.41" xlink:href="#Hd"/>
<circle fill="currentColor" cx="184.23" cy="167.41" r="1.2"/>
<path d="M171.73 170.41v20.00" stroke="currentColor" fill="none"/>
<use x="210.53" y="170.41" xlink:href="#hd"/>
<circle fill="currentColor" cx="218.53" cy="167.41" r="1.2"/>
<path d="M207.03 170.41v20.00" stroke="currentColor" fill="none"/>
<path fill="currentColor"
	d="M227.13 200.61l23.30 4.00v-3.20l-23.30 -4.00"/>
<use x="230.93" y="179.41" xlink:href="#hd"/>
<path d="M227.43 179.41v20.30" stroke="currentColor" fill="none"/>
<use x="242.33" y="182.41" xlink:href="#hd"/>
<path d="M238.83 182.41v19.20" stroke="currentColor" fill="none"/>
<use x="253.63" y="185.41" xlink:href="#hd"/>
<path d="M250.13 185.41v18.20" stroke="currentColor" fill="none"/>
<use x="277.23" y="182.41" xlink:href="#Hd"/>
<path d="M273.73 182.41v20.00" stroke="currentColor" fill="none"/>
<use x="298.43" y="179.41" xlink:href="#hd"/>
<path d="M294.93 179.41v20.00" stroke="currentColor" fill="none"/>
<use x="325.03" y="176.41" xlink:href="#Hd"/>
<path d="M321.53 176.41v20.00" stroke="currentColor" fill="none"/>
<use x="346.13" y="170.41" xlink:href="#hd"/>
<path d="M342.63 170.41v20.00" stroke="currentColor" fill="none"/>
<use x="372.73" y="173.41" xlink:href="#Hd"/>
<path d="M369.23 173.41v20.00" stroke="currentColor" fill="none"/>
<use x="393.93" y="170.41" xlink:href="#hd"/>
<path d="M390.43 170.41v20.00" stroke="currentColor" fill="none"/>
<use x="420.43" y="194.41" xlink:href="#Hd"/>
<path d="M423.93 194.41v-20.00" stroke="currentColor" fill="none"/>
<use x="442.53" y="179.41" xlink:href="#hd"/>
<path d="M439.03 179.41v20.00" stroke="currentColor" fill="none"/>
<use x="475.63" y="182.41" xlink:href="#Hd"/>
<defs>
<path id="unat" fill="currentColor" d="
	m96 -750
	h-32
	v716
	l32 -8
	l182 -54
	v282
	h32
	v-706
	l-34 10
	l-180 50
	v-290
	m0 592
	v-190
	l182 -52
	v188"/>
<use id="nt0" transform="translate(-3,5) scale(0.018)"
	xlink:href="#unat"/>
</defs>
<use x="465.63" y="182.41" xlink:href="#nt0"/>
<path d="M479.13 182.41v-20.00" stroke="currentColor" fill="none"/>
<use x="496.83" y="188.41" xlink:href="#hd"/>
<path d="M500.33 188.41v-20.00" stroke="currentColor" fill="none"/>
<use x="522.83" y="188.41" xlink:href="#hd"/>
<circle fill="currentColor" cx="530.83" cy="185.41" r="1.2"/>
<path d="M526.33 188.41v-20.00" stroke="currentColor" fill="none"/>
<use x="543.23" y="182.41" xlink:href="#hd"/>
<path d="M546.73 182.41v-20.00" stroke="currentColor" fill="none"/>
<path fill="currentColor"
	d="	M546.73 162.41c0.6 5.6 9.6 9 5.6 18.4
	c1.6 -6 -1.3 -11.6 -5.6 -12.8
"/>
<use x="559.73" y="185.41" xlink:href="#hd"/>
<path d="M563.23 185.41v-20.00" stroke="currentColor" fill="none"/>
<use x="585.83" y="188.41" xlink:href="#hd"/>
<circle fill="currentColor" cx="593.83" cy="185.41" r="1.2"/>
<path d="M589.33 188.41v-20.00" stroke="currentColor" fill="none"/>
<use x="606.23" y="194.41" xlink:href="#hd"/>
<path d="M609.73 194.41v-20.00" stroke="currentColor" fill="none"/>
<path fill="currentColor"
	d="	M609.73 174.41c0.6 5.6 9.6 9 5.6 18.4
	c1.6 -6 -1.3 -11.6 -5.6 -12.8
"/>
<use x="622.73" y="194.41" xlink:href="#hd"/>
<path d="M626.23 194.41v-20.00" stroke="currentColor" fill="none"/>
<use x="648.73" y="191.41" xlink:href="#hd"/>
<path d="M652.23 191.41v-20.00" stroke="currentColor" fill="none"/>
<use x="664.63" y="185.41" xlink:href="#hd"/>
<path d="M668.13 185.41v-20.00" stroke="currentColor" fill="none"/>
<use x="681.43" y="179.41" xlink:href="#hd"/>
<path d="M677.93 179.41v20.00" stroke="currentColor" fill="none"/>
<path stroke="currentColor" fill="none"
	d="M164.13 272.81v-24.00"/>
<path stroke="currentColor" fill="none"
	d="M290.33 272.81v-24.00"/>
<path stroke="currentColor" fill="none"
	d="M412.43 272.81v-24.00"/>
<path stroke="currentColor" fill="none" stroke-width="3"
	d="M550.93 272.81v-24.00"/>
<path stroke="currentColor" fill="none"
	d="M546.43 272.81v-24.00"/>
<defs>
<g id="rdots" fill="currentColor">
	<circle cx="0" cy="-9" r="1.2"/>
	<circle cx="0" cy="-15" r="1.2"/>
</g>
</defs>
<use x="542.43" y="272.81" xlink:href="#rdots"/>
<path stroke="currentColor" fill="none"
	d="M13.33 272.81h539.10m-539.10 -6h539.10m-539.10 -6h539.10m-539.10 -6h539.10m-539.10 -6h539.10"/>
<text x="101.53" y="291.41">c</text>
<text x="129.53" y="294.41">b</text>
<text x="175.33" y="234.41">F</text>
<text x="298.33" y="234.41">C7</text>
<text x="302.13" y="291.41">c</text>
<text x="341.83" y="294.41">b</text>
<text x="378.13" y="284.41">a</text>
<text x="423.63" y="234.41">F</text>
<use x="25.33" y="272.81" xlink:href="#tclef"/>
<use x="40.33" y="260.81" xlink:href="#ft0"/>
<use x="58.33" y="254.81" xlink:href="#hd"/>
<circle fill="currentColor" cx="66.33" cy="251.81" r="1.2"/>
<path d="M54.83 254.81v20.00" stroke="currentColor" fill="none"/>
<use x="103.83" y="257.81" xlink:href="#hd"/>
<path d="M100.33 257.81v20.00" stroke="currentColor" fill="none"/>
<path fill="currentColor"
	d="M100.33 277.81c0.6 -5.6 9.6 -9 5.6 -18.4
	c1.6 6 -1.3 11.6 -5.6 12.8
"/>
<use x="132.13" y="260.81" xlink:href="#hd"/>
<path d="M128.63 260.81v20.00" stroke="currentColor" fill="none"/>
<use x="178.33" y="263.81" xlink:href="#hd"/>
<path d="M181.83 263.81v-20.00" stroke="currentColor" fill="none"/>
<use x="218.33" y="260.81" xlink:href="#r4"/>
<use x="258.33" y="254.81" xlink:href="#hd"/>
<path d="M254.83 254.81v20.00" stroke="currentColor" fill="none"/>
<use x="304.43" y="257.81" xlink:href="#hd"/>
<path d="M300.93 257.81v20.00" stroke="currentColor" fill="none"/>
<use x="344.43" y="260.81" xlink:href="#hd"/>
<path d="M340.93 260.81v20.00" stroke="currentColor" fill="none"/>
<use x="380.43" y="263.81" xlink:href="#hd"/>
<path d="M383.93 263.81v-20.00" stroke="currentColor" fill="none"/>
<path fill="currentColor"
	d="M429.73 248.61l26.10 0.00v3.20l-26.10 -0.00"/>
<use x="426.63" y="269.81" xlink:href="#hd"/>
<path d="M430.13 269.81v-20.20" stroke="currentColor" fill="none"/>
<use x="452.13" y="269.81" xlink:href="#hd"/>
<path d="M455.63 269.81v-20.20" stroke="currentColor" fill="none"/>
<use x="480.43" y="269.81" xlink:href="#hd"/>
<path d="M483.93 269.81v-20.00" stroke="currentColor" fill="none"/>
<use x="520.43" y="260.81" xlink:href="#r4"/>
</g>
</svg>
