<?xml version="1.0" standalone="no"?>
<!DOCTYPE svg PUBLIC "-//W3C//DTD SVG 1.1//EN"
	"http://www.w3.org/Graphics/SVG/1.1/DTD/svg11.dtd">
<svg xmlns="http://www.w3.org/2000/svg" version="1.1"
	xmlns:xlink="http://www.w3.org/1999/xlink"
	xml:space='preserve' color="black"
	width="7.38in" height="3.32in" viewBox="0 0 531 239">
<title>data/results/biggest_11/abc/275.abc (275) tune 1</title>
<!-- Creator: abcm2ps-7.8.14 -->
<!-- CreationDate: Aug  9, 2015 23:50 -->
<!-- CommandLine: -g data/results/biggest_11/abc/275.abc -O /home/allanino/Dropbox/Trabalhos/folkme/svg/275.svg -->
<g transform="scale(0.750)" stroke-width="0.70" font-family="Times" font-size="20.00">
<text x="354.13" y="21.67" text-anchor="middle">Mazurka FBb chords</text>
</g>
<g transform="scale(0.750)" stroke-width="0.70" font-family="Times" font-size="16.00">
<text x="354.13" y="41.30" text-anchor="middle">Hanny Christen. Bd.VIII Zug, Luzern, Uri I. S.345 (mz11322) orig. F,Bb-Dur</text>
<text x="354.13" y="60.13" text-anchor="middle">Tänze aus Altdorf (Uri)</text>
<defs>
<g id="rdots" fill="currentColor">
	<circle cx="0" cy="-9" r="1.2"/>
	<circle cx="0" cy="-15" r="1.2"/>
</g>
</defs>
<use x="156.93" y="146.67" xlink:href="#rdots"/>
<path stroke="currentColor" fill="none"
	d="M152.93 146.67v-24.00"/>
<path stroke="currentColor" fill="none" stroke-width="3"
	d="M148.43 146.67v-24.00"/>
<path stroke="currentColor" fill="none"
	d="M285.13 146.67v-24.00"/>
<path stroke="currentColor" fill="none"
	d="M421.63 146.67v-24.00"/>
<path stroke="currentColor" fill="none"
	d="M558.13 146.67v-24.00"/>
<path stroke="currentColor" fill="none"
	d="M694.93 146.67v-24.00"/>
<path stroke="currentColor" fill="none"
	d="M13.33 146.67h681.60m-681.60 -6h681.60m-681.60 -6h681.60m-681.60 -6h681.60m-681.60 -6h681.60"/>
</g>
<g transform="scale(0.750)" stroke-width="0.70" font-family="Helvetica" font-size="12.00">
<text x="167.53" y="100.27">F</text>
<text x="291.53" y="100.27">C7</text>
<text x="431.23" y="100.27">F</text>
<text x="564.43" y="100.27">C7</text>
<defs>
<path id="utclef" fill="currentColor" d="m-50 -90
	c-72 -41 -72 -158 52 -188
	c150 -10 220 188 90 256
	c-114 52 -275 0 -293 -136
	c-15 -181 93 -229 220 -334
	c88 -87 79 -133 62 -210
	c-51 33 -94 105 -89 186
	c17 267 36 374 49 574
	c6 96 -19 134 -77 135
	c-80 1 -126 -93 -61 -133
	c85 -41 133 101 31 105
	c23 17 92 37 90 -92
	c-10 -223 -39 -342 -50 -617
	c0 -90 0 -162 96 -232
	c56 72 63 230 22 289
	c-74 106 -257 168 -255 316
	c9 153 148 185 252 133
	c86 -65 29 -192 -80 -176
	c-71 12 -105 67 -59 124"/>
<use id="tclef" transform="scale(0.045)"
	xlink:href="#utclef"/>
</defs>
<use x="25.33" y="146.67" xlink:href="#tclef"/>
<defs>
<path id="uflat" fill="currentColor" d="
	m100 -746
	h32
	v734
	l-32 4
	m32 -332
	c46 -72 152 -90 208 -20
	c100 110 -120 326 -208 348
	m0 -28
	c54 0 200 -206 130 -290
	c-50 -60 -130 -4 -130 34"/>
<use id="ft0" transform="translate(-3.5,3.5) scale(0.018)"
	xlink:href="#uflat"/>
</defs>
<use x="40.33" y="134.67" xlink:href="#ft0"/>
<g font-family="serif" font-size="16" font-weight="bold" font-style="normal"
	transform="translate(56.33,146.67) scale(1.2,1)">
	<text y="-1" text-anchor="middle">4</text>
	<text y="-13" text-anchor="middle">3</text>
</g>
<path fill="currentColor"
	d="M70.53 162.87l63.80 -9.00v-3.20l-63.80 9.00"/>
<defs>
<ellipse id="hd" rx="4.1" ry="2.9"
	transform="rotate(-20)" fill="currentColor"/>
</defs>
<use x="74.33" y="143.67" xlink:href="#hd"/>
<path d="M70.83 143.67v18.20" stroke="currentColor" fill="none"/>
<use x="95.33" y="137.67" xlink:href="#hd"/>
<path d="M91.83 137.67v21.20" stroke="currentColor" fill="none"/>
<use x="116.43" y="131.67" xlink:href="#hd"/>
<path d="M112.93 131.67v24.30" stroke="currentColor" fill="none"/>
<use x="137.43" y="122.67" xlink:href="#hd"/>
<path d="M133.93 122.67v30.30" stroke="currentColor" fill="none"/>
<defs>
<path id="hl" stroke="currentColor" d="m-6 0h12"/>
</defs>
<use x="170.43" y="116.67" xlink:href="#hl"/>
<use x="170.43" y="116.67" xlink:href="#hd"/>
<path d="M166.93 116.67v20.00" stroke="currentColor" fill="none"/>
<path fill="currentColor"
	d="M199.43 153.87l63.80 9.00v-3.20l-63.80 -9.00"/>
<use x="203.33" y="122.67" xlink:href="#hd"/>
<path d="M199.83 122.67v30.30" stroke="currentColor" fill="none"/>
<use x="224.33" y="131.67" xlink:href="#hd"/>
<path d="M220.83 131.67v24.30" stroke="currentColor" fill="none"/>
<use x="245.33" y="137.67" xlink:href="#hd"/>
<path d="M241.83 137.67v21.20" stroke="currentColor" fill="none"/>
<use x="266.43" y="143.67" xlink:href="#hd"/>
<path d="M262.93 143.67v18.20" stroke="currentColor" fill="none"/>
<path fill="currentColor"
	d="M293.83 165.87l105.90 0.00v-3.20l-105.90 -0.00"/>
<use x="297.63" y="146.67" xlink:href="#hd"/>
<path d="M294.13 146.67v18.20" stroke="currentColor" fill="none"/>
<use x="318.73" y="131.67" xlink:href="#hd"/>
<path d="M315.23 131.67v33.20" stroke="currentColor" fill="none"/>
<use x="339.73" y="134.67" xlink:href="#hd"/>
<path d="M336.23 134.67v30.20" stroke="currentColor" fill="none"/>
<use x="360.83" y="134.67" xlink:href="#hd"/>
<path d="M357.33 134.67v30.20" stroke="currentColor" fill="none"/>
<use x="381.83" y="125.67" xlink:href="#hd"/>
<path d="M378.33 125.67v39.20" stroke="currentColor" fill="none"/>
<use x="402.83" y="134.67" xlink:href="#hd"/>
<path d="M399.33 134.67v30.20" stroke="currentColor" fill="none"/>
<path fill="currentColor"
	d="M437.33 109.47l105.90 0.00v3.20l-105.90 -0.00"/>
<use x="434.13" y="131.67" xlink:href="#hd"/>
<path d="M437.63 131.67v-21.20" stroke="currentColor" fill="none"/>
<use x="455.13" y="137.67" xlink:href="#hd"/>
<path d="M458.63 137.67v-27.20" stroke="currentColor" fill="none"/>
<use x="476.23" y="128.67" xlink:href="#hd"/>
<path d="M479.73 128.67v-18.20" stroke="currentColor" fill="none"/>
<use x="497.23" y="131.67" xlink:href="#hd"/>
<path d="M500.73 131.67v-21.20" stroke="currentColor" fill="none"/>
<use x="518.33" y="137.67" xlink:href="#hd"/>
<path d="M521.83 137.67v-27.20" stroke="currentColor" fill="none"/>
<use x="539.33" y="143.67" xlink:href="#hd"/>
<path d="M542.83 143.67v-33.20" stroke="currentColor" fill="none"/>
<path fill="currentColor"
	d="M573.73 109.47l106.20 0.00v3.20l-106.20 -0.00"/>
<use x="570.63" y="146.67" xlink:href="#hd"/>
<path d="M574.13 146.67v-36.20" stroke="currentColor" fill="none"/>
<use x="591.63" y="131.67" xlink:href="#hd"/>
<path d="M595.13 131.67v-21.20" stroke="currentColor" fill="none"/>
<use x="613.03" y="134.67" xlink:href="#hd"/>
<defs>
<path id="unat" fill="currentColor" d="
	m96 -750
	h-32
	v716
	l32 -8
	l182 -54
	v282
	h32
	v-706
	l-34 10
	l-180 50
	v-290
	m0 592
	v-190
	l182 -52
	v188"/>
<use id="nt0" transform="translate(-3,5) scale(0.018)"
	xlink:href="#unat"/>
</defs>
<use x="604.03" y="134.67" xlink:href="#nt0"/>
<path d="M616.53 134.67v-24.20" stroke="currentColor" fill="none"/>
<use x="634.13" y="131.67" xlink:href="#hd"/>
<path d="M637.63 131.67v-21.20" stroke="currentColor" fill="none"/>
<use x="655.13" y="128.67" xlink:href="#hd"/>
<path d="M658.63 128.67v-18.20" stroke="currentColor" fill="none"/>
<use x="676.13" y="134.67" xlink:href="#hd"/>
<path d="M679.63 134.67v-24.20" stroke="currentColor" fill="none"/>
<path stroke="currentColor" fill="none"
	d="M195.73 224.67v-24.00"/>
<path stroke="currentColor" fill="none"
	d="M333.53 224.67v-24.00"/>
<path stroke="currentColor" fill="none" stroke-width="3"
	d="M458.83 224.67v-24.00"/>
<path stroke="currentColor" fill="none"
	d="M454.33 224.67v-24.00"/>
<use x="450.33" y="224.67" xlink:href="#rdots"/>
<path stroke="currentColor" fill="none"
	d="M588.93 224.67v-24.00"/>
<path stroke="currentColor" fill="none"
	d="M694.93 224.67v-24.00"/>
<path stroke="currentColor" fill="none"
	d="M13.33 224.67h681.60m-681.60 -6h681.60m-681.60 -6h681.60m-681.60 -6h681.60m-681.60 -6h681.60"/>
<text x="205.23" y="183.27">F</text>
<text x="339.83" y="183.27">C7</text>
<text x="598.43" y="183.27">F</text>
</g>
<g transform="scale(0.750)" stroke-width="0.70" font-family="Times" font-size="13.00">
<text x="61.83" y="183.07">1</text>
<path stroke="currentColor" fill="none"
	d="M57.83 171.67v20M57.83 171.67h394.50v20"/>
<text x="464.33" y="183.07">2</text>
<path stroke="currentColor" fill="none"
	d="M460.33 171.67v20M460.33 171.67h226.60"/>
<use x="25.33" y="224.67" xlink:href="#tclef"/>
<use x="40.33" y="212.67" xlink:href="#ft0"/>
<path fill="currentColor"
	d="M66.53 231.87l107.10 0.00v-3.20l-107.10 -0.00"/>
<use x="70.33" y="212.67" xlink:href="#hd"/>
<path d="M66.83 212.67v18.20" stroke="currentColor" fill="none"/>
<use x="91.63" y="209.67" xlink:href="#hd"/>
<path d="M88.13 209.67v21.20" stroke="currentColor" fill="none"/>
<use x="112.93" y="203.67" xlink:href="#hd"/>
<path d="M109.43 203.67v27.20" stroke="currentColor" fill="none"/>
<use x="134.13" y="197.67" xlink:href="#hd"/>
<path d="M130.63 197.67v33.20" stroke="currentColor" fill="none"/>
<use x="155.43" y="209.67" xlink:href="#hd"/>
<path d="M151.93 209.67v21.20" stroke="currentColor" fill="none"/>
<use x="176.73" y="203.67" xlink:href="#hd"/>
<path d="M173.23 203.67v27.20" stroke="currentColor" fill="none"/>
<path fill="currentColor"
	d="M204.33 234.87l107.10 0.00v-3.20l-107.10 -0.00"/>
<use x="208.23" y="200.67" xlink:href="#hd"/>
<path d="M204.73 200.67v33.20" stroke="currentColor" fill="none"/>
<use x="229.43" y="209.67" xlink:href="#hd"/>
<path d="M225.93 209.67v24.20" stroke="currentColor" fill="none"/>
<use x="250.73" y="215.67" xlink:href="#hd"/>
<path d="M247.23 215.67v18.20" stroke="currentColor" fill="none"/>
<use x="272.03" y="206.67" xlink:href="#hd"/>
<path d="M268.53 206.67v27.20" stroke="currentColor" fill="none"/>
<use x="293.33" y="209.67" xlink:href="#hd"/>
<path d="M289.83 209.67v24.20" stroke="currentColor" fill="none"/>
<use x="314.53" y="215.67" xlink:href="#hd"/>
<path d="M311.03 215.67v18.20" stroke="currentColor" fill="none"/>
<use x="346.03" y="212.67" xlink:href="#hd"/>
<path d="M349.53 212.67v-20.00" stroke="currentColor" fill="none"/>
<defs>
<path id="r8e" fill="currentColor" d="m 0 0
	c-1.5 1.5 -2.4 2 -3.6 2
	c2.4 -2.8 -2.8 -4 -2.8 -1.2
	c0 2.7 4.3 2.4 5.9 0.6"/>
<g id="r8">
	<path d="m3.3 -4l-3.4 9.6" stroke="currentColor" fill="none"/>
	<use x="3.4" y="-4" xlink:href="#r8e"/>
</g>
</defs>
<use x="376.03" y="212.67" xlink:href="#r8"/>
<path fill="currentColor"
	d="M400.43 200.67l43.20 -7.30v3.20l-43.20 7.30"/>
<use x="397.23" y="230.67" xlink:href="#hl"/>
<use x="397.23" y="230.67" xlink:href="#hd"/>
<path d="M400.73 230.67v-29.00" stroke="currentColor" fill="none"/>
<use x="418.53" y="224.67" xlink:href="#hd"/>
<path d="M422.03 224.67v-26.60" stroke="currentColor" fill="none"/>
<use x="439.83" y="212.67" xlink:href="#hd"/>
<path d="M443.33 212.67v-18.20" stroke="currentColor" fill="none"/>
<use x="472.83" y="209.67" xlink:href="#hd"/>
<path d="M469.33 209.67v20.00" stroke="currentColor" fill="none"/>
<path fill="currentColor"
	d="M502.23 234.87l64.50 0.00v-3.20l-64.50 -0.00"/>
<use x="506.13" y="209.67" xlink:href="#hd"/>
<path d="M502.63 209.67v24.20" stroke="currentColor" fill="none"/>
<use x="527.33" y="212.67" xlink:href="#hd"/>
<path d="M523.83 212.67v21.20" stroke="currentColor" fill="none"/>
<use x="548.63" y="215.67" xlink:href="#hd"/>
<path d="M545.13 215.67v18.20" stroke="currentColor" fill="none"/>
<use x="569.93" y="212.67" xlink:href="#hd"/>
<path d="M566.43 212.67v21.20" stroke="currentColor" fill="none"/>
<use x="601.43" y="221.67" xlink:href="#hd"/>
<path d="M604.93 221.67v-20.00" stroke="currentColor" fill="none"/>
<defs>
<path id="r4" fill="currentColor" d="m-1 -8.5
	l3.6 5.1 -2.1 5.2 2.2 4.3
	c-2.6 -2.3 -5.1 0 -2.4 2.6
	c-4.8 -3 -1.5 -6.9 1.4 -4.1
	l-3.1 -4.5 1.9 -5.1 -1.5 -3.5"/>
</defs>
<use x="634.63" y="212.67" xlink:href="#r4"/>
<use x="667.93" y="212.67" xlink:href="#r4"/>
<use x="64.83" y="295.67" xlink:href="#rdots"/>
<path stroke="currentColor" fill="none"
	d="M60.83 295.67v-24.00"/>
<path stroke="currentColor" fill="none" stroke-width="3"
	d="M56.33 295.67v-24.00"/>
<path stroke="currentColor" fill="none"
	d="M229.93 295.67v-24.00"/>
<path stroke="currentColor" fill="none" stroke-width="3"
	d="M354.63 295.67v-24.00"/>
<path stroke="currentColor" fill="none"
	d="M350.13 295.67v-24.00"/>
<use x="346.13" y="295.67" xlink:href="#rdots"/>
<path stroke="currentColor" fill="none"
	d="M13.33 295.67h342.80m-342.80 -6h342.80m-342.80 -6h342.80m-342.80 -6h342.80m-342.80 -6h342.80"/>
</g>
<g transform="scale(0.750)" stroke-width="0.70" font-family="Helvetica" font-size="12.00">
<text x="73.83" y="259.27">C7</text>
<text x="241.23" y="259.27">F</text>
<use x="25.33" y="295.67" xlink:href="#tclef"/>
<use x="40.33" y="283.67" xlink:href="#ft0"/>
<path fill="currentColor"
	d="M76.13 308.87l128.00 0.00v-3.20l-128.00 -0.00"/>
<use x="80.03" y="280.67" xlink:href="#hd"/>
<path d="M76.53 280.67v27.20" stroke="currentColor" fill="none"/>
<use x="105.43" y="274.67" xlink:href="#hd"/>
<path d="M101.93 274.67v33.20" stroke="currentColor" fill="none"/>
<use x="130.93" y="289.67" xlink:href="#hd"/>
<path d="M127.43 289.67v18.20" stroke="currentColor" fill="none"/>
<use x="156.43" y="274.67" xlink:href="#hd"/>
<path d="M152.93 274.67v33.20" stroke="currentColor" fill="none"/>
<use x="181.83" y="280.67" xlink:href="#hd"/>
<path d="M178.33 280.67v27.20" stroke="currentColor" fill="none"/>
<use x="207.33" y="274.67" xlink:href="#hd"/>
<path d="M203.83 274.67v33.20" stroke="currentColor" fill="none"/>
<use x="244.13" y="271.67" xlink:href="#hd"/>
<path d="M240.63 271.67v20.00" stroke="currentColor" fill="none"/>
<use x="284.13" y="283.67" xlink:href="#r4"/>
<use x="324.13" y="283.67" xlink:href="#r4"/>
</g>
</svg>
