<?xml version="1.0" standalone="no"?>
<!DOCTYPE svg PUBLIC "-//W3C//DTD SVG 1.1//EN"
	"http://www.w3.org/Graphics/SVG/1.1/DTD/svg11.dtd">
<svg xmlns="http://www.w3.org/2000/svg" version="1.1"
	xmlns:xlink="http://www.w3.org/1999/xlink"
	xml:space='preserve' color="black"
	width="7.38in" height="2.31in" viewBox="0 0 531 166">
<title>data/results/biggest_11/abc/279.abc (279) tune 1</title>
<!-- Creator: abcm2ps-7.8.14 -->
<!-- CreationDate: Aug  9, 2015 23:50 -->
<!-- CommandLine: -g data/results/biggest_11/abc/279.abc -O /home/allanino/Dropbox/Trabalhos/folkme/svg/279.svg -->
<g transform="scale(0.750)" stroke-width="0.70" font-family="Times" font-size="20.00">
<text x="354.13" y="21.67" text-anchor="middle">Ländler C chords</text>
</g>
<g transform="scale(0.750)" stroke-width="0.70" font-family="Times" font-size="16.00">
<text x="354.13" y="41.30" text-anchor="middle">Hanny Christen. Bd.3 Appenzell. S.27 (LD03087) orig. C-Dur</text>
<path stroke="currentColor" fill="none"
	d="M180.43 122.84v-24.00"/>
<path stroke="currentColor" fill="none"
	d="M283.23 122.84v-24.00"/>
<path stroke="currentColor" fill="none"
	d="M388.93 122.84v-24.00"/>
<path stroke="currentColor" fill="none"
	d="M480.23 122.84v-24.00"/>
<path stroke="currentColor" fill="none"
	d="M477.23 122.84v-24.00"/>
<path stroke="currentColor" fill="none"
	d="M593.53 122.84v-24.00"/>
<path stroke="currentColor" fill="none"
	d="M694.93 122.84v-24.00"/>
<path stroke="currentColor" fill="none"
	d="M13.33 122.84h681.60m-681.60 -6h681.60m-681.60 -6h681.60m-681.60 -6h681.60m-681.60 -6h681.60"/>
</g>
<g transform="scale(0.750)" stroke-width="0.70" font-family="Helvetica" font-size="12.00">
<text x="73.33" y="81.44">D7</text>
<text x="189.13" y="81.44">G</text>
<text x="289.33" y="81.44">D7</text>
<text x="397.63" y="81.44">G</text>
<text x="511.23" y="81.44">C</text>
<text x="599.53" y="81.44">G7</text>
<defs>
<path id="utclef" fill="currentColor" d="m-50 -90
	c-72 -41 -72 -158 52 -188
	c150 -10 220 188 90 256
	c-114 52 -275 0 -293 -136
	c-15 -181 93 -229 220 -334
	c88 -87 79 -133 62 -210
	c-51 33 -94 105 -89 186
	c17 267 36 374 49 574
	c6 96 -19 134 -77 135
	c-80 1 -126 -93 -61 -133
	c85 -41 133 101 31 105
	c23 17 92 37 90 -92
	c-10 -223 -39 -342 -50 -617
	c0 -90 0 -162 96 -232
	c56 72 63 230 22 289
	c-74 106 -257 168 -255 316
	c9 153 148 185 252 133
	c86 -65 29 -192 -80 -176
	c-71 12 -105 67 -59 124"/>
<use id="tclef" transform="scale(0.045)"
	xlink:href="#utclef"/>
</defs>
<use x="25.33" y="122.84" xlink:href="#tclef"/>
<defs>
<path id="usharp" fill="currentColor" d="
	m136 -702
	v890
	h32
	v-890
	m128 840
	h32
	v-888
	h-32
	m-232 286
	v116
	l338 -96
	v-116
	m-338 442
	v116
	l338 -98
	v-114"/>
<use id="sh0" transform="translate(-4,5) scale(0.018)"
	xlink:href="#usharp"/>
</defs>
<use x="40.33" y="98.84" xlink:href="#sh0"/>
<use x="45.83" y="107.84" xlink:href="#sh0"/>
<g font-family="serif" font-size="16" font-weight="bold" font-style="normal"
	transform="translate(61.83,122.84) scale(1.2,1)">
	<text y="-1" text-anchor="middle">4</text>
	<text y="-13" text-anchor="middle">3</text>
</g>
<path fill="currentColor"
	d="M76.03 133.14l18.80 -4.70v-3.20l-18.80 4.70"/>
<defs>
<ellipse id="hd" rx="4.1" ry="2.9"
	transform="rotate(-20)" fill="currentColor"/>
</defs>
<use x="79.83" y="113.84" xlink:href="#hd"/>
<path d="M76.33 113.84v18.20" stroke="currentColor" fill="none"/>
<use x="97.93" y="104.84" xlink:href="#hd"/>
<path d="M94.43 104.84v22.70" stroke="currentColor" fill="none"/>
<use x="118.03" y="98.84" xlink:href="#hd"/>
<path d="M114.53 98.84v20.00" stroke="currentColor" fill="none"/>
<path fill="currentColor"
	d="M142.13 122.14l18.80 2.30v-3.20l-18.80 -2.30"/>
<use x="145.93" y="101.84" xlink:href="#hd"/>
<path d="M142.43 101.84v19.40" stroke="currentColor" fill="none"/>
<use x="164.13" y="104.84" xlink:href="#hd"/>
<path d="M160.63 104.84v18.60" stroke="currentColor" fill="none"/>
<use x="192.93" y="110.84" xlink:href="#hd"/>
<path d="M189.43 110.84v20.00" stroke="currentColor" fill="none"/>
<use x="220.83" y="95.84" xlink:href="#hd"/>
<path d="M217.33 95.84v20.00" stroke="currentColor" fill="none"/>
<path fill="currentColor"
	d="M244.93 115.14l18.80 -3.30v-3.20l-18.80 3.30"/>
<use x="248.83" y="95.84" xlink:href="#hd"/>
<path d="M245.33 95.84v18.20" stroke="currentColor" fill="none"/>
<defs>
<path id="hl" stroke="currentColor" d="m-6 0h12"/>
</defs>
<use x="266.93" y="92.84" xlink:href="#hl"/>
<use x="266.93" y="89.84" xlink:href="#hd"/>
<path d="M263.43 89.84v21.00" stroke="currentColor" fill="none"/>
<use x="295.73" y="92.84" xlink:href="#hl"/>
<use x="295.73" y="92.84" xlink:href="#hd"/>
<path d="M292.23 92.84v20.00" stroke="currentColor" fill="none"/>
<use x="323.73" y="98.84" xlink:href="#hd"/>
<path d="M320.23 98.84v20.00" stroke="currentColor" fill="none"/>
<path fill="currentColor"
	d="M347.83 125.94l26.20 4.20v-3.20l-26.20 -4.20"/>
<path fill="currentColor"
	d="M367.63 124.04l6.00 1.00v-3.20l-6.00 -1.00"/>
<use x="351.63" y="101.84" xlink:href="#hd"/>
<circle fill="currentColor" cx="359.63" cy="101.84" r="1.2"/>
<path d="M348.13 101.84v23.10" stroke="currentColor" fill="none"/>
<use x="377.13" y="107.84" xlink:href="#hd"/>
<use x="368.13" y="107.84" xlink:href="#sh0"/>
<path d="M373.63 107.84v21.20" stroke="currentColor" fill="none"/>
<use x="401.43" y="104.84" xlink:href="#hd"/>
<path d="M397.93 104.84v20.00" stroke="currentColor" fill="none"/>
<use x="429.43" y="101.84" xlink:href="#hd"/>
<path d="M425.93 101.84v20.00" stroke="currentColor" fill="none"/>
<defs>
<path id="r4" fill="currentColor" d="m-1 -8.5
	l3.6 5.1 -2.1 5.2 2.2 4.3
	c-2.6 -2.3 -5.1 0 -2.4 2.6
	c-4.8 -3 -1.5 -6.9 1.4 -4.1
	l-3.1 -4.5 1.9 -5.1 -1.5 -3.5"/>
</defs>
<use x="457.33" y="110.84" xlink:href="#r4"/>
<defs>
<path id="unat" fill="currentColor" d="
	m96 -750
	h-32
	v716
	l32 -8
	l182 -54
	v282
	h32
	v-706
	l-34 10
	l-180 50
	v-290
	m0 592
	v-190
	l182 -52
	v188"/>
<use id="nt0" transform="translate(-3,5) scale(0.018)"
	xlink:href="#unat"/>
</defs>
<use x="491.23" y="98.84" xlink:href="#nt0"/>
<use x="496.73" y="107.84" xlink:href="#nt0"/>
<use x="514.73" y="116.84" xlink:href="#hd"/>
<path d="M518.23 116.84v-20.00" stroke="currentColor" fill="none"/>
<use x="542.93" y="107.84" xlink:href="#hd"/>
<path d="M539.43 107.84v20.00" stroke="currentColor" fill="none"/>
<use x="570.93" y="101.84" xlink:href="#hd"/>
<path d="M567.43 101.84v20.00" stroke="currentColor" fill="none"/>
<use x="606.03" y="98.84" xlink:href="#hd"/>
<path d="M602.53 98.84v20.00" stroke="currentColor" fill="none"/>
<path fill="currentColor"
	d="M630.13 118.14l18.80 -4.40v-3.20l-18.80 4.40"/>
<use x="633.93" y="98.84" xlink:href="#hd"/>
<path d="M630.43 98.84v18.20" stroke="currentColor" fill="none"/>
<use x="652.13" y="92.84" xlink:href="#hl"/>
<use x="652.13" y="89.84" xlink:href="#hd"/>
<path d="M648.63 89.84v22.90" stroke="currentColor" fill="none"/>
<use x="672.33" y="92.84" xlink:href="#hl"/>
<use x="672.33" y="89.84" xlink:href="#hd"/>
<path d="M668.83 89.84v21.00" stroke="currentColor" fill="none"/>
<path stroke="currentColor" fill="none"
	d="M144.83 198.84v-24.00"/>
<path stroke="currentColor" fill="none"
	d="M252.33 198.84v-24.00"/>
<path stroke="currentColor" fill="none"
	d="M352.13 198.84v-24.00"/>
<path stroke="currentColor" fill="none"
	d="M349.13 198.84v-24.00"/>
<path stroke="currentColor" fill="none"
	d="M400.43 198.84v-24.00"/>
<path stroke="currentColor" fill="none"
	d="M488.63 198.84v-24.00"/>
<path stroke="currentColor" fill="none"
	d="M605.73 198.84v-24.00"/>
<path stroke="currentColor" fill="none" stroke-width="3"
	d="M693.43 198.84v-24.00"/>
<path stroke="currentColor" fill="none"
	d="M688.93 198.84v-24.00"/>
<defs>
<g id="rdots" fill="currentColor">
	<circle cx="0" cy="-9" r="1.2"/>
	<circle cx="0" cy="-15" r="1.2"/>
</g>
</defs>
<use x="684.93" y="198.84" xlink:href="#rdots"/>
<path stroke="currentColor" fill="none"
	d="M13.33 198.84h681.60m-681.60 -6h681.60m-681.60 -6h681.60m-681.60 -6h681.60m-681.60 -6h681.60"/>
<text x="153.83" y="157.44">C</text>
<text x="494.73" y="157.44">D7</text>
<text x="498.83" y="212.44">a</text>
<text x="517.03" y="212.44">e</text>
<text x="534.43" y="212.44">d</text>
<text x="552.43" y="212.44">a</text>
<text x="566.23" y="157.44">G7</text>
<text x="614.73" y="157.44">C</text>
<use x="25.33" y="198.84" xlink:href="#tclef"/>
<use x="49.83" y="186.84" xlink:href="#hd"/>
<path d="M46.33 186.84v20.00" stroke="currentColor" fill="none"/>
<path fill="currentColor"
	d="M72.93 198.64l53.00 7.50v-3.20l-53.00 -7.50"/>
<use x="76.83" y="168.84" xlink:href="#hl"/>
<use x="76.83" y="168.84" xlink:href="#hd"/>
<path d="M73.33 168.84v28.80" stroke="currentColor" fill="none"/>
<use x="94.23" y="171.84" xlink:href="#hd"/>
<path d="M90.73 171.84v28.30" stroke="currentColor" fill="none"/>
<use x="111.73" y="174.84" xlink:href="#hd"/>
<path d="M108.23 174.84v27.70" stroke="currentColor" fill="none"/>
<use x="129.13" y="186.84" xlink:href="#hd"/>
<path d="M125.63 186.84v18.20" stroke="currentColor" fill="none"/>
<use x="157.33" y="183.84" xlink:href="#hd"/>
<path d="M153.83 183.84v20.00" stroke="currentColor" fill="none"/>
<path fill="currentColor"
	d="M180.43 206.04l53.00 -6.90v-3.20l-53.00 6.90"/>
<use x="184.33" y="186.84" xlink:href="#hd"/>
<path d="M180.83 186.84v18.20" stroke="currentColor" fill="none"/>
<use x="201.73" y="183.84" xlink:href="#hd"/>
<path d="M198.23 183.84v18.90" stroke="currentColor" fill="none"/>
<use x="219.23" y="177.84" xlink:href="#hd"/>
<path d="M215.73 177.84v22.70" stroke="currentColor" fill="none"/>
<use x="236.63" y="171.84" xlink:href="#hd"/>
<path d="M233.13 171.84v26.40" stroke="currentColor" fill="none"/>
<use x="264.83" y="168.84" xlink:href="#hl"/>
<use x="264.83" y="162.84" xlink:href="#hl"/>
<use x="264.83" y="162.84" xlink:href="#hd"/>
<path d="M261.33 162.84v24.00" stroke="currentColor" fill="none"/>
<use x="291.83" y="186.84" xlink:href="#r4"/>
<path fill="currentColor"
	d="M314.93 192.14l18.10 2.30v-3.20l-18.10 -2.30"/>
<use x="318.73" y="171.84" xlink:href="#hd"/>
<path d="M315.23 171.84v19.40" stroke="currentColor" fill="none"/>
<use x="336.23" y="174.84" xlink:href="#hd"/>
<path d="M332.73 174.84v18.60" stroke="currentColor" fill="none"/>
<defs>
<path id="Hd" fill="currentColor" d="m3 -1.6
	c-1 -1.8 -7 1.4 -6 3.2
	c1 1.8 7 -1.4 6 -3.2
	m0.5 -0.3
	c2 3.8 -5 7.6 -7 3.8
	c-2 -3.8 5 -7.6 7 -3.8"/>
</defs>
<use x="365.13" y="177.84" xlink:href="#Hd"/>
<circle fill="currentColor" cx="374.13" cy="177.84" r="1.2"/>
<path d="M361.63 177.84v20.00" stroke="currentColor" fill="none"/>
<use x="412.93" y="177.84" xlink:href="#hd"/>
<path d="M409.43 177.84v20.00" stroke="currentColor" fill="none"/>
<use x="439.93" y="186.84" xlink:href="#r4"/>
<use x="466.83" y="174.84" xlink:href="#hd"/>
<path d="M463.33 174.84v20.00" stroke="currentColor" fill="none"/>
<path fill="currentColor"
	d="M497.33 199.04l89.70 0.00v-3.20l-89.70 -0.00"/>
<use x="501.13" y="168.84" xlink:href="#hl"/>
<use x="501.13" y="168.84" xlink:href="#hd"/>
<path d="M497.63 168.84v29.20" stroke="currentColor" fill="none"/>
<use x="519.33" y="177.84" xlink:href="#hd"/>
<path d="M515.83 177.84v20.20" stroke="currentColor" fill="none"/>
<use x="537.03" y="180.84" xlink:href="#hd"/>
<path d="M533.53 180.84v17.20" stroke="currentColor" fill="none"/>
<use x="554.83" y="168.84" xlink:href="#hl"/>
<use x="554.83" y="168.84" xlink:href="#hd"/>
<path d="M551.33 168.84v29.20" stroke="currentColor" fill="none"/>
<use x="572.63" y="171.84" xlink:href="#hd"/>
<path d="M569.13 171.84v26.20" stroke="currentColor" fill="none"/>
<use x="590.13" y="174.84" xlink:href="#hd"/>
<path d="M586.63 174.84v23.20" stroke="currentColor" fill="none"/>
<use x="618.23" y="183.84" xlink:href="#hd"/>
<path d="M614.73 183.84v20.00" stroke="currentColor" fill="none"/>
<use x="645.23" y="186.84" xlink:href="#r4"/>
<use x="672.23" y="186.84" xlink:href="#r4"/>
</g>
</svg>
