<?xml version="1.0" standalone="no"?>
<!DOCTYPE svg PUBLIC "-//W3C//DTD SVG 1.1//EN"
	"http://www.w3.org/Graphics/SVG/1.1/DTD/svg11.dtd">
<svg xmlns="http://www.w3.org/2000/svg" version="1.1"
	xmlns:xlink="http://www.w3.org/1999/xlink"
	xml:space='preserve' color="black"
	width="7.38in" height="1.75in" viewBox="0 0 531 126">
<title>data/results/biggest_11/abc/28.abc (28) tune 1</title>
<!-- Creator: abcm2ps-7.8.14 -->
<!-- CreationDate: Aug  9, 2015 23:50 -->
<!-- CommandLine: -g data/results/biggest_11/abc/28.abc -O /home/allanino/Dropbox/Trabalhos/folkme/svg/28.svg -->
<g transform="scale(0.750)" stroke-width="0.70" font-family="Times" font-size="20.00">
<text x="354.13" y="21.67" text-anchor="middle">Schottisch CGF 5- chords</text>
</g>
<g transform="scale(0.750)" stroke-width="0.70" font-family="Times" font-size="16.00">
<text x="354.13" y="41.30" text-anchor="middle">Hanny Christen Bd.VIII Zug, Luzern, Uri I. S.345 (st11480) orig. C,F-Dur</text>
<text x="354.13" y="60.13" text-anchor="middle">&quot;Plötsch Musig&quot; Guggisberg (Bern) S.146ff</text>
<defs>
<g id="rdots" fill="currentColor">
	<circle cx="0" cy="-9" r="1.2"/>
	<circle cx="0" cy="-15" r="1.2"/>
</g>
</defs>
<use x="81.33" y="144.67" xlink:href="#rdots"/>
<path stroke="currentColor" fill="none"
	d="M77.33 144.67v-24.00"/>
<path stroke="currentColor" fill="none" stroke-width="3"
	d="M72.83 144.67v-24.00"/>
<path stroke="currentColor" fill="none"
	d="M156.53 144.67v-24.00"/>
<path stroke="currentColor" fill="none"
	d="M211.73 144.67v-24.00"/>
<path stroke="currentColor" fill="none"
	d="M286.03 144.67v-24.00"/>
<path stroke="currentColor" fill="none"
	d="M360.33 144.67v-24.00"/>
<path stroke="currentColor" fill="none"
	d="M450.43 144.67v-24.00"/>
<path stroke="currentColor" fill="none"
	d="M540.23 144.67v-24.00"/>
<path stroke="currentColor" fill="none"
	d="M614.53 144.67v-24.00"/>
<path stroke="currentColor" fill="none" stroke-width="3"
	d="M693.43 144.67v-24.00"/>
<path stroke="currentColor" fill="none"
	d="M688.93 144.67v-24.00"/>
<use x="684.93" y="144.67" xlink:href="#rdots"/>
<path stroke="currentColor" fill="none"
	d="M13.33 144.67h681.60m-681.60 -6h681.60m-681.60 -6h681.60m-681.60 -6h681.60m-681.60 -6h681.60"/>
</g>
<g transform="scale(0.750)" stroke-width="0.70" font-family="Helvetica" font-size="12.00">
<text x="91.33" y="100.27">C</text>
<text x="366.33" y="100.27">G7</text>
<text x="459.43" y="100.27">C</text>
<text x="546.23" y="100.27">G7</text>
<text x="623.53" y="100.27">C</text>
<defs>
<path id="utclef" fill="currentColor" d="m-50 -90
	c-72 -41 -72 -158 52 -188
	c150 -10 220 188 90 256
	c-114 52 -275 0 -293 -136
	c-15 -181 93 -229 220 -334
	c88 -87 79 -133 62 -210
	c-51 33 -94 105 -89 186
	c17 267 36 374 49 574
	c6 96 -19 134 -77 135
	c-80 1 -126 -93 -61 -133
	c85 -41 133 101 31 105
	c23 17 92 37 90 -92
	c-10 -223 -39 -342 -50 -617
	c0 -90 0 -162 96 -232
	c56 72 63 230 22 289
	c-74 106 -257 168 -255 316
	c9 153 148 185 252 133
	c86 -65 29 -192 -80 -176
	c-71 12 -105 67 -59 124"/>
<use id="tclef" transform="scale(0.045)"
	xlink:href="#utclef"/>
</defs>
<use x="25.33" y="144.67" xlink:href="#tclef"/>
<g font-family="serif" font-size="16" font-weight="bold" font-style="normal"
	transform="translate(43.83,144.67) scale(1.2,1)">
	<text y="-1" text-anchor="middle">4</text>
	<text y="-13" text-anchor="middle">2</text>
</g>
<defs>
<ellipse id="hd" rx="4.1" ry="2.9"
	transform="rotate(-20)" fill="currentColor"/>
</defs>
<use x="61.83" y="117.67" xlink:href="#hd"/>
<path d="M58.33 117.67v20.00" stroke="currentColor" fill="none"/>
<path fill="currentColor"
	d="M58.33 137.67c0.6 -5.6 9.6 -9 5.6 -18.4
	c1.6 6 -1.3 11.6 -5.6 12.8
"/>
<path fill="currentColor"
	d="M91.03 138.87l48.00 0.00v-3.20l-48.00 -0.00"/>
<path fill="currentColor"
	d="M104.73 133.87l6.00 0.00v-3.20l-6.00 -0.00"/>
<use x="94.83" y="117.67" xlink:href="#hd"/>
<circle fill="currentColor" cx="102.83" cy="117.67" r="1.2"/>
<path d="M91.33 117.67v20.20" stroke="currentColor" fill="none"/>
<defs>
<path id="hl" stroke="currentColor" d="m-6 0h12"/>
</defs>
<use x="114.23" y="114.67" xlink:href="#hl"/>
<use x="114.23" y="114.67" xlink:href="#hd"/>
<path d="M110.73 114.67v23.20" stroke="currentColor" fill="none"/>
<use x="126.33" y="114.67" xlink:href="#hl"/>
<use x="126.33" y="114.67" xlink:href="#hd"/>
<path d="M122.83 114.67v23.20" stroke="currentColor" fill="none"/>
<use x="142.13" y="117.67" xlink:href="#hd"/>
<path d="M138.63 117.67v20.20" stroke="currentColor" fill="none"/>
<use x="169.03" y="117.67" xlink:href="#hd"/>
<circle fill="currentColor" cx="177.03" cy="117.67" r="1.2"/>
<path d="M165.53 117.67v20.00" stroke="currentColor" fill="none"/>
<use x="197.33" y="114.67" xlink:href="#hl"/>
<use x="197.33" y="111.67" xlink:href="#hd"/>
<path d="M193.83 111.67v21.00" stroke="currentColor" fill="none"/>
<path fill="currentColor"
	d="M193.83 132.67c0.6 -5.6 9.6 -9 5.6 -18.4
	c1.6 6 -1.3 11.6 -5.6 12.8
"/>
<path fill="currentColor"
	d="M220.43 141.67l48.10 0.00v-3.20l-48.10 -0.00"/>
<use x="224.23" y="114.67" xlink:href="#hl"/>
<use x="224.23" y="114.67" xlink:href="#hd"/>
<path d="M220.73 114.67v26.00" stroke="currentColor" fill="none"/>
<use x="240.03" y="117.67" xlink:href="#hd"/>
<path d="M236.53 117.67v23.00" stroke="currentColor" fill="none"/>
<use x="255.83" y="123.67" xlink:href="#hd"/>
<path d="M252.33 123.67v17.00" stroke="currentColor" fill="none"/>
<use x="271.63" y="114.67" xlink:href="#hl"/>
<use x="271.63" y="114.67" xlink:href="#hd"/>
<path d="M268.13 114.67v26.00" stroke="currentColor" fill="none"/>
<path fill="currentColor"
	d="M294.73 147.67l48.10 0.00v-3.20l-48.10 -0.00"/>
<use x="298.53" y="117.67" xlink:href="#hd"/>
<path d="M295.03 117.67v29.00" stroke="currentColor" fill="none"/>
<use x="314.33" y="123.67" xlink:href="#hd"/>
<path d="M310.83 123.67v23.00" stroke="currentColor" fill="none"/>
<use x="330.13" y="129.67" xlink:href="#hd"/>
<path d="M326.63 129.67v17.00" stroke="currentColor" fill="none"/>
<use x="345.93" y="117.67" xlink:href="#hd"/>
<path d="M342.43 117.67v29.00" stroke="currentColor" fill="none"/>
<path fill="currentColor"
	d="M368.93 138.67l67.50 10.30v-3.20l-67.50 -10.30"/>
<path fill="currentColor"
	d="M369.33 133.67l35.60 5.40v-3.20l-35.60 -5.40"/>
<path fill="currentColor"
	d="M430.13 142.97l6.00 0.90v-3.20l-6.00 -0.90"/>
<use x="372.83" y="114.67" xlink:href="#hl"/>
<use x="372.83" y="111.67" xlink:href="#hd"/>
<path d="M369.33 111.67v26.00" stroke="currentColor" fill="none"/>
<use x="384.93" y="114.67" xlink:href="#hl"/>
<use x="384.93" y="114.67" xlink:href="#hd"/>
<path d="M381.43 114.67v24.90" stroke="currentColor" fill="none"/>
<use x="396.73" y="117.67" xlink:href="#hd"/>
<path d="M393.23 117.67v23.70" stroke="currentColor" fill="none"/>
<use x="408.43" y="120.67" xlink:href="#hd"/>
<path d="M404.93 120.67v22.50" stroke="currentColor" fill="none"/>
<use x="420.23" y="123.67" xlink:href="#hd"/>
<circle fill="currentColor" cx="428.23" cy="123.67" r="1.2"/>
<path d="M416.73 123.67v21.20" stroke="currentColor" fill="none"/>
<use x="439.63" y="126.67" xlink:href="#hd"/>
<path d="M436.13 126.67v21.20" stroke="currentColor" fill="none"/>
<path fill="currentColor"
	d="M459.13 157.87l67.20 0.00v-3.20l-67.20 -0.00"/>
<path fill="currentColor"
	d="M459.43 152.87l35.30 0.00v-3.20l-35.30 -0.00"/>
<path fill="currentColor"
	d="M519.93 152.87l6.00 0.00v-3.20l-6.00 -0.00"/>
<use x="462.93" y="126.67" xlink:href="#hd"/>
<path d="M459.43 126.67v30.20" stroke="currentColor" fill="none"/>
<use x="474.73" y="129.67" xlink:href="#hd"/>
<path d="M471.23 129.67v27.20" stroke="currentColor" fill="none"/>
<use x="486.53" y="126.67" xlink:href="#hd"/>
<path d="M483.03 126.67v30.20" stroke="currentColor" fill="none"/>
<use x="498.23" y="129.67" xlink:href="#hd"/>
<path d="M494.73 129.67v27.20" stroke="currentColor" fill="none"/>
<use x="510.03" y="132.67" xlink:href="#hd"/>
<circle fill="currentColor" cx="518.03" cy="129.67" r="1.2"/>
<path d="M506.53 132.67v24.20" stroke="currentColor" fill="none"/>
<use x="529.43" y="135.67" xlink:href="#hd"/>
<path d="M525.93 135.67v21.20" stroke="currentColor" fill="none"/>
<path fill="currentColor"
	d="M548.93 157.87l51.70 -4.60v-3.20l-51.70 4.60"/>
<path fill="currentColor"
	d="M594.23 148.87l6.00 -0.50v-3.20l-6.00 0.50"/>
<use x="552.73" y="138.67" xlink:href="#hd"/>
<path d="M549.23 138.67v18.20" stroke="currentColor" fill="none"/>
<use x="568.53" y="120.67" xlink:href="#hd"/>
<path d="M565.03 120.67v34.80" stroke="currentColor" fill="none"/>
<use x="584.33" y="123.67" xlink:href="#hd"/>
<circle fill="currentColor" cx="592.33" cy="123.67" r="1.2"/>
<path d="M580.83 123.67v30.40" stroke="currentColor" fill="none"/>
<use x="603.73" y="126.67" xlink:href="#hd"/>
<path d="M600.23 126.67v25.60" stroke="currentColor" fill="none"/>
<path fill="currentColor"
	d="M623.23 150.87l32.30 0.00v-3.20l-32.30 -0.00"/>
<use x="627.03" y="129.67" xlink:href="#hd"/>
<path d="M623.53 129.67v20.20" stroke="currentColor" fill="none"/>
<use x="642.83" y="129.67" xlink:href="#hd"/>
<path d="M639.33 129.67v20.20" stroke="currentColor" fill="none"/>
<use x="658.63" y="129.67" xlink:href="#hd"/>
<path d="M655.13 129.67v20.20" stroke="currentColor" fill="none"/>
<defs>
<path id="r8e" fill="currentColor" d="m 0 0
	c-1.5 1.5 -2.4 2 -3.6 2
	c2.4 -2.8 -2.8 -4 -2.8 -1.2
	c0 2.7 4.3 2.4 5.9 0.6"/>
<g id="r8">
	<path d="m3.3 -4l-3.4 9.6" stroke="currentColor" fill="none"/>
	<use x="3.4" y="-4" xlink:href="#r8e"/>
</g>
</defs>
<use x="674.43" y="132.67" xlink:href="#r8"/>
</g>
</svg>
