<?xml version="1.0" standalone="no"?>
<!DOCTYPE svg PUBLIC "-//W3C//DTD SVG 1.1//EN"
	"http://www.w3.org/Graphics/SVG/1.1/DTD/svg11.dtd">
<svg xmlns="http://www.w3.org/2000/svg" version="1.1"
	xmlns:xlink="http://www.w3.org/1999/xlink"
	xml:space='preserve' color="black"
	width="7.38in" height="2.29in" viewBox="0 0 531 165">
<title>data/results/biggest_11/abc/285.abc (285) tune 1</title>
<!-- Creator: abcm2ps-7.8.14 -->
<!-- CreationDate: Aug  9, 2015 23:50 -->
<!-- CommandLine: -g data/results/biggest_11/abc/285.abc -O /home/allanino/Dropbox/Trabalhos/folkme/svg/285.svg -->
<g transform="scale(0.750)" stroke-width="0.70" font-family="Times" font-size="20.00">
<text x="354.13" y="21.67" text-anchor="middle">Ländler C 5- chords</text>
<path stroke="currentColor" fill="none"
	d="M158.43 114.01v-24.00"/>
<path stroke="currentColor" fill="none"
	d="M258.43 114.01v-24.00"/>
<path stroke="currentColor" fill="none"
	d="M367.73 114.01v-24.00"/>
<path stroke="currentColor" fill="none"
	d="M476.83 114.01v-24.00"/>
<path stroke="currentColor" fill="none"
	d="M585.83 114.01v-24.00"/>
<path stroke="currentColor" fill="none"
	d="M694.93 114.01v-24.00"/>
<path stroke="currentColor" fill="none"
	d="M13.33 114.01h681.60m-681.60 -6h681.60m-681.60 -6h681.60m-681.60 -6h681.60m-681.60 -6h681.60"/>
</g>
<g transform="scale(0.750)" stroke-width="0.70" font-family="Helvetica" font-size="12.00">
<text x="58.93" y="62.61">F</text>
<text x="167.43" y="62.61">C</text>
<text x="264.53" y="62.61">G7</text>
<text x="376.73" y="62.61">C</text>
<text x="591.93" y="62.61">G7</text>
<defs>
<path id="utclef" fill="currentColor" d="m-50 -90
	c-72 -41 -72 -158 52 -188
	c150 -10 220 188 90 256
	c-114 52 -275 0 -293 -136
	c-15 -181 93 -229 220 -334
	c88 -87 79 -133 62 -210
	c-51 33 -94 105 -89 186
	c17 267 36 374 49 574
	c6 96 -19 134 -77 135
	c-80 1 -126 -93 -61 -133
	c85 -41 133 101 31 105
	c23 17 92 37 90 -92
	c-10 -223 -39 -342 -50 -617
	c0 -90 0 -162 96 -232
	c56 72 63 230 22 289
	c-74 106 -257 168 -255 316
	c9 153 148 185 252 133
	c86 -65 29 -192 -80 -176
	c-71 12 -105 67 -59 124"/>
<use id="tclef" transform="scale(0.045)"
	xlink:href="#utclef"/>
</defs>
<use x="25.33" y="114.01" xlink:href="#tclef"/>
<g font-family="serif" font-size="16" font-weight="bold" font-style="normal"
	transform="translate(43.83,114.01) scale(1.2,1)">
	<text y="-1" text-anchor="middle">4</text>
	<text y="-13" text-anchor="middle">3</text>
</g>
<path fill="currentColor"
	d="M65.03 79.81l82.50 0.00v3.20l-82.50 -0.00"/>
<defs>
<ellipse id="hd" rx="4.1" ry="2.9"
	transform="rotate(-20)" fill="currentColor"/>
</defs>
<use x="61.83" y="105.01" xlink:href="#hd"/>
<path d="M65.33 105.01v-24.20" stroke="currentColor" fill="none"/>
<defs>
<path id="hl" stroke="currentColor" d="m-6 0h12"/>
</defs>
<use x="78.23" y="120.01" xlink:href="#hl"/>
<use x="78.23" y="120.01" xlink:href="#hd"/>
<path d="M81.73 120.01v-39.20" stroke="currentColor" fill="none"/>
<use x="94.53" y="111.01" xlink:href="#hd"/>
<path d="M98.03 111.01v-30.20" stroke="currentColor" fill="none"/>
<use x="110.93" y="105.01" xlink:href="#hd"/>
<path d="M114.43 105.01v-24.20" stroke="currentColor" fill="none"/>
<use x="127.33" y="99.01" xlink:href="#hd"/>
<path d="M130.83 99.01v-18.20" stroke="currentColor" fill="none"/>
<use x="143.73" y="105.01" xlink:href="#hd"/>
<path d="M147.23 105.01v-24.20" stroke="currentColor" fill="none"/>
<path fill="currentColor"
	d="M174.03 87.01l49.80 0.00v3.20l-49.80 -0.00"/>
<use x="170.93" y="108.01" xlink:href="#hd"/>
<path d="M174.43 108.01v-20.00" stroke="currentColor" fill="none"/>
<use x="187.23" y="114.01" xlink:href="#hd"/>
<path d="M190.73 114.01v-26.00" stroke="currentColor" fill="none"/>
<use x="203.63" y="114.01" xlink:href="#hd"/>
<path d="M207.13 114.01v-26.00" stroke="currentColor" fill="none"/>
<use x="220.03" y="105.01" xlink:href="#hd"/>
<path d="M223.53 105.01v-17.00" stroke="currentColor" fill="none"/>
<use x="238.13" y="114.01" xlink:href="#hd"/>
<path d="M241.63 114.01v-20.00" stroke="currentColor" fill="none"/>
<path fill="currentColor"
	d="M274.13 88.91l82.70 -12.10v3.20l-82.70 12.10"/>
<use x="270.93" y="120.01" xlink:href="#hl"/>
<use x="270.93" y="126.01" xlink:href="#hl"/>
<use x="270.93" y="129.01" xlink:href="#hd"/>
<path d="M274.43 129.01v-39.20" stroke="currentColor" fill="none"/>
<use x="287.53" y="120.01" xlink:href="#hl"/>
<use x="287.53" y="123.01" xlink:href="#hd"/>
<path d="M291.03 123.01v-35.60" stroke="currentColor" fill="none"/>
<use x="303.93" y="117.01" xlink:href="#hd"/>
<path d="M307.43 117.01v-32.00" stroke="currentColor" fill="none"/>
<use x="320.23" y="108.01" xlink:href="#hd"/>
<path d="M323.73 108.01v-25.40" stroke="currentColor" fill="none"/>
<use x="336.63" y="102.01" xlink:href="#hd"/>
<path d="M340.13 102.01v-21.80" stroke="currentColor" fill="none"/>
<use x="353.03" y="96.01" xlink:href="#hd"/>
<path d="M356.53 96.01v-18.20" stroke="currentColor" fill="none"/>
<path fill="currentColor"
	d="M383.33 72.41l82.50 6.90v3.20l-82.50 -6.90"/>
<use x="380.23" y="99.01" xlink:href="#hd"/>
<path d="M383.73 99.01v-25.60" stroke="currentColor" fill="none"/>
<use x="396.63" y="93.01" xlink:href="#hd"/>
<path d="M400.13 93.01v-18.20" stroke="currentColor" fill="none"/>
<use x="412.93" y="99.01" xlink:href="#hd"/>
<path d="M416.43 99.01v-22.80" stroke="currentColor" fill="none"/>
<use x="429.33" y="114.01" xlink:href="#hd"/>
<path d="M432.83 114.01v-36.50" stroke="currentColor" fill="none"/>
<use x="445.73" y="105.01" xlink:href="#hd"/>
<path d="M449.23 105.01v-26.10" stroke="currentColor" fill="none"/>
<use x="462.03" y="108.01" xlink:href="#hd"/>
<path d="M465.53 108.01v-27.70" stroke="currentColor" fill="none"/>
<path fill="currentColor"
	d="M492.43 79.81l82.50 0.00v3.20l-82.50 -0.00"/>
<use x="489.33" y="114.01" xlink:href="#hd"/>
<path d="M492.83 114.01v-33.20" stroke="currentColor" fill="none"/>
<use x="505.63" y="108.01" xlink:href="#hd"/>
<path d="M509.13 108.01v-27.20" stroke="currentColor" fill="none"/>
<use x="522.03" y="99.01" xlink:href="#hd"/>
<path d="M525.53 99.01v-18.20" stroke="currentColor" fill="none"/>
<use x="538.43" y="114.01" xlink:href="#hd"/>
<path d="M541.93 114.01v-33.20" stroke="currentColor" fill="none"/>
<use x="554.73" y="108.01" xlink:href="#hd"/>
<path d="M558.23 108.01v-27.20" stroke="currentColor" fill="none"/>
<use x="571.13" y="99.01" xlink:href="#hd"/>
<path d="M574.63 99.01v-18.20" stroke="currentColor" fill="none"/>
<path fill="currentColor"
	d="M601.53 76.01l82.50 -6.50v3.20l-82.50 6.50"/>
<use x="598.33" y="102.01" xlink:href="#hd"/>
<path d="M601.83 102.01v-25.00" stroke="currentColor" fill="none"/>
<use x="614.73" y="117.01" xlink:href="#hd"/>
<path d="M618.23 117.01v-41.30" stroke="currentColor" fill="none"/>
<use x="631.13" y="111.01" xlink:href="#hd"/>
<path d="M634.63 111.01v-36.60" stroke="currentColor" fill="none"/>
<use x="647.43" y="102.01" xlink:href="#hd"/>
<path d="M650.93 102.01v-28.90" stroke="currentColor" fill="none"/>
<use x="663.83" y="90.01" xlink:href="#hd"/>
<path d="M667.33 90.01v-18.20" stroke="currentColor" fill="none"/>
<use x="680.23" y="102.01" xlink:href="#hd"/>
<path d="M683.73 102.01v-31.50" stroke="currentColor" fill="none"/>
<path stroke="currentColor" fill="none"
	d="M158.13 197.01v-24.00"/>
<path stroke="currentColor" fill="none"
	d="M277.43 197.01v-24.00"/>
<path stroke="currentColor" fill="none"
	d="M388.53 197.01v-24.00"/>
<path stroke="currentColor" fill="none" stroke-width="3"
	d="M487.73 197.01v-24.00"/>
<path stroke="currentColor" fill="none"
	d="M483.23 197.01v-24.00"/>
<defs>
<g id="rdots" fill="currentColor">
	<circle cx="0" cy="-9" r="1.2"/>
	<circle cx="0" cy="-15" r="1.2"/>
</g>
</defs>
<use x="479.23" y="197.01" xlink:href="#rdots"/>
<path stroke="currentColor" fill="none"
	d="M618.53 197.01v-24.00"/>
<path stroke="currentColor" fill="none" stroke-width="3"
	d="M693.43 197.01v-24.00"/>
<path stroke="currentColor" fill="none"
	d="M688.93 197.01v-24.00"/>
<path stroke="currentColor" fill="none"
	d="M13.33 197.01h681.60m-681.60 -6h681.60m-681.60 -6h681.60m-681.60 -6h681.60m-681.60 -6h681.60"/>
<text x="173.63" y="150.61">C</text>
<text x="283.43" y="150.61">G7</text>
<text x="397.53" y="150.61">C</text>
<text x="503.73" y="150.61">D7</text>
<text x="627.73" y="150.61">G</text>
</g>
<g transform="scale(0.750)" stroke-width="0.70" font-family="Times" font-size="13.00">
<text x="162.13" y="150.41">1</text>
<path stroke="currentColor" fill="none"
	d="M158.13 139.01v20M158.13 139.01h323.10v20"/>
<text x="493.23" y="150.41">2</text>
<path stroke="currentColor" fill="none"
	d="M489.23 139.01v20M489.23 139.01h205.70v20"/>
<use x="25.33" y="197.01" xlink:href="#tclef"/>
<path fill="currentColor"
	d="M46.03 213.21l92.60 0.00v-3.20l-92.60 -0.00"/>
<use x="49.83" y="176.01" xlink:href="#hd"/>
<path d="M46.33 176.01v36.20" stroke="currentColor" fill="none"/>
<use x="68.23" y="191.01" xlink:href="#hd"/>
<path d="M64.73 191.01v21.20" stroke="currentColor" fill="none"/>
<use x="86.63" y="173.01" xlink:href="#hd"/>
<path d="M83.13 173.01v39.20" stroke="currentColor" fill="none"/>
<use x="104.93" y="191.01" xlink:href="#hd"/>
<path d="M101.43 191.01v21.20" stroke="currentColor" fill="none"/>
<use x="123.33" y="176.01" xlink:href="#hd"/>
<path d="M119.83 176.01v36.20" stroke="currentColor" fill="none"/>
<use x="141.73" y="194.01" xlink:href="#hd"/>
<path d="M138.23 194.01v18.20" stroke="currentColor" fill="none"/>
<use x="177.13" y="197.01" xlink:href="#hd"/>
<path d="M180.63 197.01v-20.00" stroke="currentColor" fill="none"/>
<path fill="currentColor"
	d="M201.93 210.21l55.80 0.00v-3.20l-55.80 -0.00"/>
<use x="205.83" y="176.01" xlink:href="#hd"/>
<path d="M202.33 176.01v33.20" stroke="currentColor" fill="none"/>
<use x="224.23" y="191.01" xlink:href="#hd"/>
<path d="M220.73 191.01v18.20" stroke="currentColor" fill="none"/>
<use x="242.53" y="182.01" xlink:href="#hd"/>
<path d="M239.03 182.01v27.20" stroke="currentColor" fill="none"/>
<use x="260.93" y="176.01" xlink:href="#hd"/>
<path d="M257.43 176.01v33.20" stroke="currentColor" fill="none"/>
<path fill="currentColor"
	d="M293.03 159.81l55.80 0.00v3.20l-55.80 -0.00"/>
<use x="289.93" y="191.01" xlink:href="#hd"/>
<path d="M293.43 191.01v-30.20" stroke="currentColor" fill="none"/>
<use x="308.23" y="179.01" xlink:href="#hd"/>
<path d="M311.73 179.01v-18.20" stroke="currentColor" fill="none"/>
<use x="326.63" y="191.01" xlink:href="#hd"/>
<path d="M330.13 191.01v-30.20" stroke="currentColor" fill="none"/>
<use x="345.03" y="185.01" xlink:href="#hd"/>
<path d="M348.53 185.01v-24.20" stroke="currentColor" fill="none"/>
<use x="365.53" y="173.01" xlink:href="#hd"/>
<path d="M362.03 173.01v20.00" stroke="currentColor" fill="none"/>
<use x="401.03" y="176.01" xlink:href="#hd"/>
<path d="M397.53 176.01v20.00" stroke="currentColor" fill="none"/>
<path fill="currentColor"
	d="M429.83 162.71l19.10 4.70v3.20l-19.10 -4.70"/>
<use x="426.73" y="182.01" xlink:href="#hd"/>
<path d="M430.23 182.01v-18.20" stroke="currentColor" fill="none"/>
<use x="445.03" y="191.01" xlink:href="#hd"/>
<path d="M448.53 191.01v-22.70" stroke="currentColor" fill="none"/>
<use x="465.43" y="197.01" xlink:href="#hd"/>
<path d="M468.93 197.01v-20.00" stroke="currentColor" fill="none"/>
<path fill="currentColor"
	d="M506.33 207.21l92.60 0.00v-3.20l-92.60 -0.00"/>
<use x="510.13" y="176.01" xlink:href="#hd"/>
<path d="M506.63 176.01v30.20" stroke="currentColor" fill="none"/>
<use x="528.53" y="179.01" xlink:href="#hd"/>
<path d="M525.03 179.01v27.20" stroke="currentColor" fill="none"/>
<use x="546.93" y="182.01" xlink:href="#hd"/>
<path d="M543.43 182.01v24.20" stroke="currentColor" fill="none"/>
<use x="565.33" y="185.01" xlink:href="#hd"/>
<path d="M561.83 185.01v21.20" stroke="currentColor" fill="none"/>
<use x="583.63" y="188.01" xlink:href="#hd"/>
<path d="M580.13 188.01v18.20" stroke="currentColor" fill="none"/>
<use x="602.03" y="185.01" xlink:href="#hd"/>
<path d="M598.53 185.01v21.20" stroke="currentColor" fill="none"/>
<defs>
<path id="Hd" fill="currentColor" d="m3 -1.6
	c-1 -1.8 -7 1.4 -6 3.2
	c1 1.8 7 -1.4 6 -3.2
	m0.5 -0.3
	c2 3.8 -5 7.6 -7 3.8
	c-2 -3.8 5 -7.6 7 -3.8"/>
</defs>
<use x="631.53" y="191.01" xlink:href="#Hd"/>
<path d="M635.03 191.01v-20.00" stroke="currentColor" fill="none"/>
<defs>
<path id="r4" fill="currentColor" d="m-1 -8.5
	l3.6 5.1 -2.1 5.2 2.2 4.3
	c-2.6 -2.3 -5.1 0 -2.4 2.6
	c-4.8 -3 -1.5 -6.9 1.4 -4.1
	l-3.1 -4.5 1.9 -5.1 -1.5 -3.5"/>
</defs>
<use x="671.53" y="185.01" xlink:href="#r4"/>
</g>
</svg>
