<?xml version="1.0" standalone="no"?>
<!DOCTYPE svg PUBLIC "-//W3C//DTD SVG 1.1//EN"
	"http://www.w3.org/Graphics/SVG/1.1/DTD/svg11.dtd">
<svg xmlns="http://www.w3.org/2000/svg" version="1.1"
	xmlns:xlink="http://www.w3.org/1999/xlink"
	xml:space='preserve' color="black"
	width="7.38in" height="4.02in" viewBox="0 0 531 289">
<title>data/results/biggest_11/abc/287.abc (287) tune 1</title>
<!-- Creator: abcm2ps-7.8.14 -->
<!-- CreationDate: Aug  9, 2015 23:50 -->
<!-- CommandLine: -g data/results/biggest_11/abc/287.abc -O /home/allanino/Dropbox/Trabalhos/folkme/svg/287.svg -->
<g transform="scale(0.750)" stroke-width="0.70" font-family="Times" font-size="20.00">
<text x="354.13" y="21.67" text-anchor="middle">Gruss aus den Bergen (Ländler) FC 2-</text>
</g>
<g transform="scale(0.750)" stroke-width="0.70" font-family="Times" font-size="16.00">
<text x="354.13" y="41.30" text-anchor="middle">Hanny Christen. Bd.3 Appenzell. S.38, Lz 12128 4 orig. D-Dur</text>
<defs>
<g id="rdots" fill="currentColor">
	<circle cx="0" cy="-9" r="1.2"/>
	<circle cx="0" cy="-15" r="1.2"/>
</g>
</defs>
<use x="135.43" y="117.84" xlink:href="#rdots"/>
<path stroke="currentColor" fill="none"
	d="M131.43 117.84v-24.00"/>
<path stroke="currentColor" fill="none" stroke-width="3"
	d="M126.93 117.84v-24.00"/>
<path stroke="currentColor" fill="none"
	d="M235.63 117.84v-24.00"/>
<path stroke="currentColor" fill="none"
	d="M333.43 117.84v-24.00"/>
<path stroke="currentColor" fill="none"
	d="M436.83 117.84v-24.00"/>
<path stroke="currentColor" fill="none"
	d="M559.83 117.84v-24.00"/>
<path stroke="currentColor" fill="none"
	d="M694.93 117.84v-24.00"/>
<path stroke="currentColor" fill="none"
	d="M13.33 117.84h681.60m-681.60 -6h681.60m-681.60 -6h681.60m-681.60 -6h681.60m-681.60 -6h681.60"/>
</g>
<g transform="scale(0.750)" stroke-width="0.70" font-family="Helvetica" font-size="12.00">
<text x="145.93" y="81.44">F</text>
<text x="339.83" y="81.44">C7</text>
<text x="343.63" y="139.44">e</text>
<defs>
<path id="utclef" fill="currentColor" d="m-50 -90
	c-72 -41 -72 -158 52 -188
	c150 -10 220 188 90 256
	c-114 52 -275 0 -293 -136
	c-15 -181 93 -229 220 -334
	c88 -87 79 -133 62 -210
	c-51 33 -94 105 -89 186
	c17 267 36 374 49 574
	c6 96 -19 134 -77 135
	c-80 1 -126 -93 -61 -133
	c85 -41 133 101 31 105
	c23 17 92 37 90 -92
	c-10 -223 -39 -342 -50 -617
	c0 -90 0 -162 96 -232
	c56 72 63 230 22 289
	c-74 106 -257 168 -255 316
	c9 153 148 185 252 133
	c86 -65 29 -192 -80 -176
	c-71 12 -105 67 -59 124"/>
<use id="tclef" transform="scale(0.045)"
	xlink:href="#utclef"/>
</defs>
<use x="25.33" y="117.84" xlink:href="#tclef"/>
<defs>
<path id="uflat" fill="currentColor" d="
	m100 -746
	h32
	v734
	l-32 4
	m32 -332
	c46 -72 152 -90 208 -20
	c100 110 -120 326 -208 348
	m0 -28
	c54 0 200 -206 130 -290
	c-50 -60 -130 -4 -130 34"/>
<use id="ft0" transform="translate(-3.5,3.5) scale(0.018)"
	xlink:href="#uflat"/>
</defs>
<use x="40.33" y="105.84" xlink:href="#ft0"/>
<g font-family="serif" font-size="16" font-weight="bold" font-style="normal"
	transform="translate(56.33,117.84) scale(1.2,1)">
	<text y="-1" text-anchor="middle">4</text>
	<text y="-13" text-anchor="middle">3</text>
</g>
<path fill="currentColor"
	d="M77.53 103.24l42.30 -4.70v3.20l-42.30 4.70"/>
<defs>
<path id="hl" stroke="currentColor" d="m-6 0h12"/>
</defs>
<use x="74.33" y="123.84" xlink:href="#hl"/>
<defs>
<ellipse id="hd" rx="4.1" ry="2.9"
	transform="rotate(-20)" fill="currentColor"/>
</defs>
<use x="74.33" y="123.84" xlink:href="#hd"/>
<path d="M77.83 123.84v-19.70" stroke="currentColor" fill="none"/>
<use x="95.13" y="120.84" xlink:href="#hd"/>
<path d="M98.63 120.84v-19.00" stroke="currentColor" fill="none"/>
<use x="115.93" y="117.84" xlink:href="#hd"/>
<path d="M119.43 117.84v-18.30" stroke="currentColor" fill="none"/>
<use x="148.93" y="114.84" xlink:href="#hd"/>
<circle fill="currentColor" cx="156.93" cy="114.84" r="1.2"/>
<path d="M152.43 114.84v-20.00" stroke="currentColor" fill="none"/>
<use x="186.13" y="108.84" xlink:href="#hd"/>
<path d="M189.63 108.84v-20.00" stroke="currentColor" fill="none"/>
<path fill="currentColor"
	d="	M189.63 88.84c0.6 5.6 9.6 9 5.6 18.4
	c1.6 -6 -1.3 -11.6 -5.6 -12.8
"/>
<use x="209.63" y="99.84" xlink:href="#hd"/>
<path d="M206.13 99.84v20.00" stroke="currentColor" fill="none"/>
<defs>
<path id="r4" fill="currentColor" d="m-1 -8.5
	l3.6 5.1 -2.1 5.2 2.2 4.3
	c-2.6 -2.3 -5.1 0 -2.4 2.6
	c-4.8 -3 -1.5 -6.9 1.4 -4.1
	l-3.1 -4.5 1.9 -5.1 -1.5 -3.5"/>
</defs>
<use x="248.13" y="105.84" xlink:href="#r4"/>
<use x="277.33" y="108.84" xlink:href="#hd"/>
<circle fill="currentColor" cx="285.33" cy="108.84" r="1.2"/>
<path d="M280.83 108.84v-20.00" stroke="currentColor" fill="none"/>
<use x="314.53" y="111.84" xlink:href="#hd"/>
<path d="M318.03 111.84v-20.00" stroke="currentColor" fill="none"/>
<path fill="currentColor"
	d="	M318.03 91.84c0.6 5.6 9.6 9 5.6 18.4
	c1.6 -6 -1.3 -11.6 -5.6 -12.8
"/>
<use x="345.93" y="105.84" xlink:href="#hd"/>
<path d="M342.43 105.84v20.00" stroke="currentColor" fill="none"/>
<use x="378.33" y="105.84" xlink:href="#hd"/>
<path d="M374.83 105.84v20.00" stroke="currentColor" fill="none"/>
<use x="410.73" y="105.84" xlink:href="#hd"/>
<path d="M407.23 105.84v20.00" stroke="currentColor" fill="none"/>
<use x="449.33" y="105.84" xlink:href="#r4"/>
<path fill="currentColor"
	d="M481.63 102.84l63.50 0.00v3.20l-63.50 -0.00"/>
<use x="478.53" y="120.84" xlink:href="#hd"/>
<path d="M482.03 120.84v-17.00" stroke="currentColor" fill="none"/>
<use x="499.73" y="123.84" xlink:href="#hl"/>
<use x="499.73" y="123.84" xlink:href="#hd"/>
<defs>
<path id="usharp" fill="currentColor" d="
	m136 -702
	v890
	h32
	v-890
	m128 840
	h32
	v-888
	h-32
	m-232 286
	v116
	l338 -96
	v-116
	m-338 442
	v116
	l338 -98
	v-114"/>
<use id="sh0" transform="translate(-4,5) scale(0.018)"
	xlink:href="#usharp"/>
</defs>
<use x="490.73" y="123.84" xlink:href="#sh0"/>
<path d="M503.23 123.84v-20.00" stroke="currentColor" fill="none"/>
<use x="520.53" y="120.84" xlink:href="#hd"/>
<path d="M524.03 120.84v-17.00" stroke="currentColor" fill="none"/>
<use x="541.33" y="123.84" xlink:href="#hl"/>
<use x="541.33" y="126.84" xlink:href="#hd"/>
<path d="M544.83 126.84v-23.00" stroke="currentColor" fill="none"/>
<path fill="currentColor"
	d="M575.53 91.24l104.70 -13.70v3.20l-104.70 13.70"/>
<use x="572.33" y="123.84" xlink:href="#hl"/>
<use x="572.33" y="129.84" xlink:href="#hl"/>
<use x="572.33" y="132.84" xlink:href="#hd"/>
<path d="M575.83 132.84v-40.60" stroke="currentColor" fill="none"/>
<use x="593.23" y="123.84" xlink:href="#hl"/>
<use x="593.23" y="123.84" xlink:href="#hd"/>
<path d="M596.73 123.84v-34.40" stroke="currentColor" fill="none"/>
<use x="614.03" y="117.84" xlink:href="#hd"/>
<path d="M617.53 117.84v-31.10" stroke="currentColor" fill="none"/>
<use x="634.83" y="111.84" xlink:href="#hd"/>
<path d="M638.33 111.84v-27.80" stroke="currentColor" fill="none"/>
<use x="655.63" y="102.84" xlink:href="#hd"/>
<path d="M659.13 102.84v-21.50" stroke="currentColor" fill="none"/>
<use x="676.33" y="96.84" xlink:href="#hd"/>
<path d="M679.83 96.84v-18.20" stroke="currentColor" fill="none"/>
<path stroke="currentColor" fill="none"
	d="M143.53 196.24v-24.00"/>
<path stroke="currentColor" fill="none"
	d="M223.93 196.24v-24.00"/>
<path stroke="currentColor" fill="none"
	d="M302.23 196.24v-24.00"/>
<path stroke="currentColor" fill="none"
	d="M381.33 196.24v-24.00"/>
<path stroke="currentColor" fill="none"
	d="M461.33 196.24v-24.00"/>
<path stroke="currentColor" fill="none"
	d="M538.83 196.24v-24.00"/>
<path stroke="currentColor" fill="none"
	d="M618.83 196.24v-24.00"/>
<path stroke="currentColor" fill="none"
	d="M694.93 196.24v-24.00"/>
<path stroke="currentColor" fill="none"
	d="M13.33 196.24h681.60m-681.60 -6h681.60m-681.60 -6h681.60m-681.60 -6h681.60m-681.60 -6h681.60"/>
<text x="79.73" y="216.84">d</text>
<text x="111.13" y="216.84">b</text>
<text x="153.13" y="157.84">F</text>
<text x="467.73" y="157.84">C7</text>
<text x="628.33" y="157.84">F</text>
<text x="673.13" y="207.84">a</text>
<use x="25.33" y="196.24" xlink:href="#tclef"/>
<use x="40.33" y="184.24" xlink:href="#ft0"/>
<use x="58.33" y="184.24" xlink:href="#r4"/>
<path fill="currentColor"
	d="M78.53 203.44l47.80 0.00v-3.20l-47.80 -0.00"/>
<use x="82.33" y="178.24" xlink:href="#hd"/>
<path d="M78.83 178.24v24.20" stroke="currentColor" fill="none"/>
<use x="98.03" y="181.24" xlink:href="#hd"/>
<path d="M94.53 181.24v21.20" stroke="currentColor" fill="none"/>
<use x="113.73" y="184.24" xlink:href="#hd"/>
<path d="M110.23 184.24v18.20" stroke="currentColor" fill="none"/>
<use x="129.43" y="181.24" xlink:href="#hd"/>
<path d="M125.93 181.24v21.20" stroke="currentColor" fill="none"/>
<use x="156.03" y="187.24" xlink:href="#hd"/>
<path d="M159.53 187.24v-20.00" stroke="currentColor" fill="none"/>
<use x="180.43" y="172.24" xlink:href="#hd"/>
<path d="M176.93 172.24v20.00" stroke="currentColor" fill="none"/>
<use x="204.43" y="181.24" xlink:href="#hd"/>
<path d="M200.93 181.24v20.00" stroke="currentColor" fill="none"/>
<use x="236.43" y="187.24" xlink:href="#hd"/>
<circle fill="currentColor" cx="244.43" cy="187.24" r="1.2"/>
<path d="M239.93 187.24v-20.00" stroke="currentColor" fill="none"/>
<use x="264.53" y="190.24" xlink:href="#hd"/>
<path d="M268.03 190.24v-20.00" stroke="currentColor" fill="none"/>
<path fill="currentColor"
	d="	M268.03 170.24c0.6 5.6 9.6 9 5.6 18.4
	c1.6 -6 -1.3 -11.6 -5.6 -12.8
"/>
<use x="282.73" y="193.24" xlink:href="#hd"/>
<path d="M286.23 193.24v-20.00" stroke="currentColor" fill="none"/>
<use x="314.73" y="187.24" xlink:href="#hd"/>
<path d="M318.23 187.24v-20.00" stroke="currentColor" fill="none"/>
<use x="339.13" y="181.24" xlink:href="#hd"/>
<circle fill="currentColor" cx="347.13" cy="181.24" r="1.2"/>
<path d="M335.63 181.24v20.00" stroke="currentColor" fill="none"/>
<use x="367.23" y="178.24" xlink:href="#hd"/>
<path d="M363.73 178.24v20.00" stroke="currentColor" fill="none"/>
<path fill="currentColor"
	d="M363.73 198.24c0.6 -5.6 9.6 -9 5.6 -18.4
	c1.6 6 -1.3 11.6 -5.6 12.8
"/>
<use x="393.83" y="184.24" xlink:href="#r4"/>
<use x="417.83" y="181.24" xlink:href="#hd"/>
<path d="M414.33 181.24v20.00" stroke="currentColor" fill="none"/>
<use x="441.83" y="181.24" xlink:href="#hd"/>
<path d="M438.33 181.24v20.00" stroke="currentColor" fill="none"/>
<use x="473.83" y="175.24" xlink:href="#hd"/>
<circle fill="currentColor" cx="481.83" cy="175.24" r="1.2"/>
<path d="M470.33 175.24v20.00" stroke="currentColor" fill="none"/>
<use x="502.03" y="169.24" xlink:href="#hd"/>
<path d="M498.53 169.24v20.00" stroke="currentColor" fill="none"/>
<path fill="currentColor"
	d="M498.53 189.24c0.6 -5.6 9.6 -9 5.6 -18.4
	c1.6 6 -1.3 11.6 -5.6 12.8
"/>
<use x="519.33" y="172.24" xlink:href="#hd"/>
<path d="M515.83 172.24v20.00" stroke="currentColor" fill="none"/>
<use x="551.33" y="184.24" xlink:href="#hd"/>
<path d="M547.83 184.24v20.00" stroke="currentColor" fill="none"/>
<use x="575.33" y="178.24" xlink:href="#hd"/>
<path d="M571.83 178.24v20.00" stroke="currentColor" fill="none"/>
<use x="599.33" y="181.24" xlink:href="#hd"/>
<path d="M595.83 181.24v20.00" stroke="currentColor" fill="none"/>
<use x="631.33" y="187.24" xlink:href="#hd"/>
<circle fill="currentColor" cx="639.33" cy="187.24" r="1.2"/>
<path d="M634.83 187.24v-20.00" stroke="currentColor" fill="none"/>
<use x="659.73" y="181.24" xlink:href="#hd"/>
<path d="M656.23 181.24v20.00" stroke="currentColor" fill="none"/>
<path fill="currentColor"
	d="M656.23 201.24c0.6 -5.6 9.6 -9 5.6 -18.4
	c1.6 6 -1.3 11.6 -5.6 12.8
"/>
<use x="675.43" y="187.24" xlink:href="#hd"/>
<path d="M678.93 187.24v-20.00" stroke="currentColor" fill="none"/>
<path stroke="currentColor" fill="none"
	d="M131.53 271.64v-24.00"/>
<path stroke="currentColor" fill="none"
	d="M212.13 271.64v-24.00"/>
<path stroke="currentColor" fill="none"
	d="M297.33 271.64v-24.00"/>
<path stroke="currentColor" fill="none"
	d="M366.53 271.64v-24.00"/>
<path stroke="currentColor" fill="none"
	d="M436.93 271.64v-24.00"/>
<path stroke="currentColor" fill="none"
	d="M530.83 271.64v-24.00"/>
<path stroke="currentColor" fill="none"
	d="M617.53 271.64v-24.00"/>
<path stroke="currentColor" fill="none"
	d="M694.93 271.64v-24.00"/>
<path stroke="currentColor" fill="none"
	d="M13.33 271.64h681.60m-681.60 -6h681.60m-681.60 -6h681.60m-681.60 -6h681.60m-681.60 -6h681.60"/>
<text x="74.63" y="283.24">c</text>
<text x="88.83" y="283.24">b</text>
<text x="182.83" y="283.24">a</text>
<text x="196.93" y="285.24">b</text>
<text x="222.33" y="292.24">c</text>
<text x="249.83" y="292.24">c</text>
<text x="264.03" y="292.24">b</text>
<text x="303.63" y="235.24">C7</text>
<text x="307.23" y="293.24">b</text>
<text x="554.83" y="287.24">e</text>
<text x="582.03" y="283.24">g</text>
<text x="598.23" y="283.24">a</text>
<text x="627.33" y="283.24">g</text>
<text x="648.93" y="283.24">a</text>
<text x="675.33" y="283.24">b</text>
<use x="25.33" y="271.64" xlink:href="#tclef"/>
<use x="40.33" y="259.64" xlink:href="#ft0"/>
<use x="58.33" y="259.64" xlink:href="#r4"/>
<path fill="currentColor"
	d="M80.13 237.34l42.70 6.40v3.20l-42.70 -6.40"/>
<use x="77.03" y="256.64" xlink:href="#hd"/>
<path d="M80.53 256.64v-18.20" stroke="currentColor" fill="none"/>
<use x="91.43" y="259.64" xlink:href="#hd"/>
<path d="M94.93 259.64v-19.00" stroke="currentColor" fill="none"/>
<use x="105.23" y="262.64" xlink:href="#hd"/>
<path d="M108.73 262.64v-20.00" stroke="currentColor" fill="none"/>
<use x="119.03" y="265.64" xlink:href="#hd"/>
<path d="M122.53 265.64v-20.90" stroke="currentColor" fill="none"/>
<use x="144.03" y="268.64" xlink:href="#hd"/>
<path d="M147.53 268.64v-20.00" stroke="currentColor" fill="none"/>
<use x="164.63" y="268.64" xlink:href="#hd"/>
<path d="M168.13 268.64v-20.00" stroke="currentColor" fill="none"/>
<path fill="currentColor"
	d="M188.33 242.24l15.10 -2.20v3.20l-15.10 2.20"/>
<use x="185.13" y="262.64" xlink:href="#hd"/>
<path d="M188.63 262.64v-19.40" stroke="currentColor" fill="none"/>
<use x="199.53" y="259.64" xlink:href="#hd"/>
<path d="M203.03 259.64v-18.60" stroke="currentColor" fill="none"/>
<path fill="currentColor"
	d="M220.83 278.84l42.70 0.00v-3.20l-42.70 -0.00"/>
<use x="224.63" y="256.64" xlink:href="#hd"/>
<path d="M221.13 256.64v21.20" stroke="currentColor" fill="none"/>
<use x="238.43" y="253.64" xlink:href="#hd"/>
<path d="M234.93 253.64v24.20" stroke="currentColor" fill="none"/>
<use x="252.23" y="256.64" xlink:href="#hd"/>
<path d="M248.73 256.64v21.20" stroke="currentColor" fill="none"/>
<use x="266.63" y="259.64" xlink:href="#hd"/>
<path d="M263.13 259.64v18.20" stroke="currentColor" fill="none"/>
<use x="280.43" y="262.64" xlink:href="#hd"/>
<path d="M283.93 262.64v-20.00" stroke="currentColor" fill="none"/>
<use x="309.83" y="259.64" xlink:href="#hd"/>
<circle fill="currentColor" cx="317.83" cy="256.64" r="1.2"/>
<path d="M306.33 259.64v20.00" stroke="currentColor" fill="none"/>
<use x="334.53" y="256.64" xlink:href="#hd"/>
<path d="M331.03 256.64v20.00" stroke="currentColor" fill="none"/>
<path fill="currentColor"
	d="M331.03 276.64c0.6 -5.6 9.6 -9 5.6 -18.4
	c1.6 6 -1.3 11.6 -5.6 12.8
"/>
<use x="349.63" y="250.64" xlink:href="#hd"/>
<path d="M346.13 250.64v20.00" stroke="currentColor" fill="none"/>
<use x="379.03" y="259.64" xlink:href="#r4"/>
<use x="399.63" y="253.64" xlink:href="#hd"/>
<circle fill="currentColor" cx="407.63" cy="250.64" r="1.2"/>
<path d="M396.13 253.64v20.00" stroke="currentColor" fill="none"/>
<use x="424.33" y="253.64" xlink:href="#hd"/>
<path d="M420.83 253.64v20.00" stroke="currentColor" fill="none"/>
<path fill="currentColor"
	d="M420.83 273.64c0.6 -5.6 9.6 -9 5.6 -18.4
	c1.6 6 -1.3 11.6 -5.6 12.8
"/>
<path fill="currentColor"
	d="M445.53 278.54l69.60 6.40v-3.20l-69.60 -6.40"/>
<use x="449.43" y="253.64" xlink:href="#hd"/>
<path d="M445.93 253.64v23.90" stroke="currentColor" fill="none"/>
<use x="463.23" y="250.64" xlink:href="#hd"/>
<path d="M459.73 250.64v28.20" stroke="currentColor" fill="none"/>
<use x="476.93" y="253.64" xlink:href="#hd"/>
<path d="M473.43 253.64v26.40" stroke="currentColor" fill="none"/>
<use x="490.73" y="256.64" xlink:href="#hd"/>
<path d="M487.23 256.64v24.70" stroke="currentColor" fill="none"/>
<use x="504.53" y="259.64" xlink:href="#hd"/>
<path d="M501.03 259.64v22.90" stroke="currentColor" fill="none"/>
<use x="518.33" y="265.64" xlink:href="#hd"/>
<path d="M514.83 265.64v18.20" stroke="currentColor" fill="none"/>
<path fill="currentColor"
	d="M546.53 247.44l42.00 0.00v3.20l-42.00 -0.00"/>
<use x="543.33" y="271.64" xlink:href="#hd"/>
<path d="M546.83 271.64v-23.20" stroke="currentColor" fill="none"/>
<use x="557.13" y="271.64" xlink:href="#hd"/>
<path d="M560.63 271.64v-23.20" stroke="currentColor" fill="none"/>
<use x="570.93" y="268.64" xlink:href="#hd"/>
<path d="M574.43 268.64v-20.20" stroke="currentColor" fill="none"/>
<use x="584.73" y="265.64" xlink:href="#hd"/>
<path d="M588.23 265.64v-17.20" stroke="currentColor" fill="none"/>
<use x="600.53" y="262.64" xlink:href="#hd"/>
<path d="M604.03 262.64v-20.00" stroke="currentColor" fill="none"/>
<use x="630.03" y="265.64" xlink:href="#hd"/>
<path d="M633.53 265.64v-20.00" stroke="currentColor" fill="none"/>
<use x="651.23" y="262.64" xlink:href="#hd"/>
<circle fill="currentColor" cx="659.23" cy="262.64" r="1.2"/>
<path d="M654.73 262.64v-20.00" stroke="currentColor" fill="none"/>
<use x="677.93" y="259.64" xlink:href="#hd"/>
<use x="668.93" y="259.64" xlink:href="#ft0"/>
<path d="M681.43 259.64v-20.00" stroke="currentColor" fill="none"/>
<path fill="currentColor"
	d="	M681.43 239.64c0.6 5.6 9.6 9 5.6 18.4
	c1.6 -6 -1.3 -11.6 -5.6 -12.8
"/>
<path stroke="currentColor" fill="none"
	d="M106.13 352.04v-24.00"/>
<path stroke="currentColor" fill="none"
	d="M157.63 352.04v-24.00"/>
<path stroke="currentColor" fill="none"
	d="M221.63 352.04v-24.00"/>
<path stroke="currentColor" fill="none"
	d="M298.83 352.04v-24.00"/>
<path stroke="currentColor" fill="none"
	d="M380.93 352.04v-24.00"/>
<path stroke="currentColor" fill="none"
	d="M427.73 352.04v-24.00"/>
<path stroke="currentColor" fill="none"
	d="M491.83 352.04v-24.00"/>
<path stroke="currentColor" fill="none"
	d="M574.13 352.04v-24.00"/>
<path stroke="currentColor" fill="none" stroke-width="3"
	d="M635.23 352.04v-24.00"/>
<path stroke="currentColor" fill="none"
	d="M630.73 352.04v-24.00"/>
<use x="626.73" y="352.04" xlink:href="#rdots"/>
<path stroke="currentColor" fill="none" stroke-width="3"
	d="M693.43 352.04v-24.00"/>
<path stroke="currentColor" fill="none"
	d="M688.93 352.04v-24.00"/>
<path stroke="currentColor" fill="none"
	d="M13.33 352.04h681.60m-681.60 -6h681.60m-681.60 -6h681.60m-681.60 -6h681.60m-681.60 -6h681.60"/>
<text x="56.03" y="364.64">a</text>
<text x="115.63" y="313.64">F</text>
<text x="228.03" y="313.64">C7</text>
<text x="249.53" y="373.64">e</text>
<text x="261.73" y="373.64">b</text>
<text x="279.13" y="365.64">g</text>
<text x="308.93" y="368.64">e</text>
<text x="324.53" y="368.64">d</text>
<text x="350.03" y="368.64">c#</text>
<text x="368.43" y="368.64">d</text>
<text x="390.53" y="313.64">F</text>
<text x="391.13" y="375.64">a</text>
<text x="434.03" y="313.64">C7</text>
<text x="457.83" y="378.64">g</text>
<text x="478.33" y="365.64">e</text>
<text x="501.63" y="378.64">d</text>
<text x="521.53" y="378.64">b</text>
<text x="534.23" y="378.64">a</text>
<text x="546.03" y="378.64">g</text>
<text x="558.53" y="378.64">b</text>
<text x="590.23" y="313.64">F</text>
<text x="652.83" y="313.64">F</text>
</g>
<g transform="scale(0.750)" stroke-width="0.70" font-family="Times" font-size="13.00">
<text x="578.13" y="313.44">1</text>
<path stroke="currentColor" fill="none"
	d="M574.13 302.04v20M574.13 302.04h54.60v20"/>
<text x="640.73" y="313.44">2</text>
<path stroke="currentColor" fill="none"
	d="M636.73 302.04v20M636.73 302.04h58.20v20"/>
<use x="25.33" y="352.04" xlink:href="#tclef"/>
<use x="40.33" y="340.04" xlink:href="#ft0"/>
<use x="58.33" y="331.04" xlink:href="#hd"/>
<circle fill="currentColor" cx="66.33" cy="331.04" r="1.2"/>
<path d="M54.83 331.04v20.00" stroke="currentColor" fill="none"/>
<path fill="currentColor"
	d="M72.53 362.34l20.50 -5.60v-3.20l-20.50 5.60"/>
<use x="76.33" y="343.04" xlink:href="#hd"/>
<path d="M72.83 343.04v18.20" stroke="currentColor" fill="none"/>
<use x="86.23" y="337.04" xlink:href="#hd"/>
<path d="M82.73 337.04v21.50" stroke="currentColor" fill="none"/>
<use x="96.23" y="331.04" xlink:href="#hd"/>
<path d="M92.73 331.04v24.80" stroke="currentColor" fill="none"/>
<use x="118.63" y="328.04" xlink:href="#hd"/>
<circle fill="currentColor" cx="126.63" cy="325.04" r="1.2"/>
<path d="M115.13 328.04v20.00" stroke="currentColor" fill="none"/>
<use x="136.63" y="337.04" xlink:href="#hd"/>
<path d="M133.13 337.04v20.00" stroke="currentColor" fill="none"/>
<path fill="currentColor"
	d="M133.13 357.04c0.6 -5.6 9.6 -9 5.6 -18.4
	c1.6 6 -1.3 11.6 -5.6 12.8
"/>
<use x="146.53" y="343.04" xlink:href="#hd"/>
<path d="M150.03 343.04v-20.00" stroke="currentColor" fill="none"/>
<use x="170.13" y="340.04" xlink:href="#r4"/>
<path fill="currentColor"
	d="M178.13 362.34l30.40 -7.10v-3.20l-30.40 7.10"/>
<use x="182.03" y="343.04" xlink:href="#hd"/>
<path d="M178.53 343.04v18.20" stroke="currentColor" fill="none"/>
<use x="191.93" y="337.04" xlink:href="#hd"/>
<path d="M188.43 337.04v21.90" stroke="currentColor" fill="none"/>
<use x="201.83" y="328.04" xlink:href="#hd"/>
<path d="M198.33 328.04v28.60" stroke="currentColor" fill="none"/>
<use x="211.73" y="322.04" xlink:href="#hl"/>
<use x="211.73" y="322.04" xlink:href="#hd"/>
<path d="M208.23 322.04v32.30" stroke="currentColor" fill="none"/>
<path fill="currentColor"
	d="M230.33 346.64l18.40 3.70v-3.20l-18.40 -3.70"/>
<use x="234.13" y="325.04" xlink:href="#hd"/>
<path d="M230.63 325.04v20.60" stroke="currentColor" fill="none"/>
<use x="251.93" y="331.04" xlink:href="#hd"/>
<path d="M248.43 331.04v18.20" stroke="currentColor" fill="none"/>
<use x="264.33" y="340.04" xlink:href="#hd"/>
<circle fill="currentColor" cx="272.33" cy="337.04" r="1.2"/>
<path d="M260.83 340.04v20.00" stroke="currentColor" fill="none"/>
<use x="281.83" y="346.04" xlink:href="#hd"/>
<path d="M285.33 346.04v-20.00" stroke="currentColor" fill="none"/>
<path fill="currentColor"
	d="	M285.33 326.04c0.6 5.6 9.6 9 5.6 18.4
	c1.6 -6 -1.3 -11.6 -5.6 -12.8
"/>
<use x="311.33" y="352.04" xlink:href="#hd"/>
<path d="M314.83 352.04v-20.00" stroke="currentColor" fill="none"/>
<path fill="currentColor"
	d="M323.33 355.04l44.60 0.00v-3.20l-44.60 -0.00"/>
<use x="327.13" y="334.04" xlink:href="#hd"/>
<path d="M323.63 334.04v20.00" stroke="currentColor" fill="none"/>
<defs>
<path id="r8e" fill="currentColor" d="m 0 0
	c-1.5 1.5 -2.4 2 -3.6 2
	c2.4 -2.8 -2.8 -4 -2.8 -1.2
	c0 2.7 4.3 2.4 5.9 0.6"/>
<g id="r8">
	<path d="m3.3 -4l-3.4 9.6" stroke="currentColor" fill="none"/>
	<use x="3.4" y="-4" xlink:href="#r8e"/>
</g>
</defs>
<use x="337.03" y="340.04" xlink:href="#r8"/>
<use x="355.03" y="337.04" xlink:href="#hd"/>
<use x="346.03" y="337.04" xlink:href="#sh0"/>
<path d="M351.53 337.04v17.00" stroke="currentColor" fill="none"/>
<use x="371.03" y="334.04" xlink:href="#hd"/>
<path d="M367.53 334.04v20.00" stroke="currentColor" fill="none"/>
<use x="393.43" y="343.04" xlink:href="#hd"/>
<path d="M396.93 343.04v-20.00" stroke="currentColor" fill="none"/>
<use x="405.23" y="340.04" xlink:href="#r4"/>
<use x="416.53" y="343.04" xlink:href="#hd"/>
<path d="M420.03 343.04v-20.00" stroke="currentColor" fill="none"/>
<use x="440.23" y="346.04" xlink:href="#hd"/>
<path d="M443.73 346.04v-20.00" stroke="currentColor" fill="none"/>
<path fill="currentColor"
	d="M456.63 365.34l10.60 -4.20v-3.20l-10.60 4.20"/>
<use x="460.43" y="346.04" xlink:href="#hd"/>
<path d="M456.93 346.04v18.20" stroke="currentColor" fill="none"/>
<use x="470.33" y="328.04" xlink:href="#hd"/>
<path d="M466.83 328.04v32.30" stroke="currentColor" fill="none"/>
<use x="480.63" y="331.04" xlink:href="#hd"/>
<path d="M477.13 331.04v20.00" stroke="currentColor" fill="none"/>
<path fill="currentColor"
	d="M500.43 365.24l57.50 0.00v-3.20l-57.50 -0.00"/>
<use x="504.33" y="334.04" xlink:href="#hd"/>
<path d="M500.83 334.04v30.20" stroke="currentColor" fill="none"/>
<use x="514.23" y="337.04" xlink:href="#hd"/>
<path d="M510.73 337.04v27.20" stroke="currentColor" fill="none"/>
<use x="524.13" y="340.04" xlink:href="#hd"/>
<path d="M520.63 340.04v24.20" stroke="currentColor" fill="none"/>
<use x="536.63" y="343.04" xlink:href="#hd"/>
<path d="M533.13 343.04v21.20" stroke="currentColor" fill="none"/>
<use x="548.73" y="346.04" xlink:href="#hd"/>
<path d="M545.23 346.04v18.20" stroke="currentColor" fill="none"/>
<use x="561.13" y="340.04" xlink:href="#hd"/>
<path d="M557.63 340.04v24.20" stroke="currentColor" fill="none"/>
<use x="593.13" y="349.04" xlink:href="#hd"/>
<path d="M596.63 349.04v-20.00" stroke="currentColor" fill="none"/>
<use x="604.93" y="340.04" xlink:href="#r4"/>
<use x="616.23" y="343.04" xlink:href="#hd"/>
<path d="M619.73 343.04v-20.00" stroke="currentColor" fill="none"/>
<use x="655.73" y="349.04" xlink:href="#hd"/>
<path d="M659.23 349.04v-20.00" stroke="currentColor" fill="none"/>
<use x="667.63" y="340.04" xlink:href="#r4"/>
<use x="679.43" y="340.04" xlink:href="#r4"/>
</g>
</svg>
