<?xml version="1.0" standalone="no"?>
<!DOCTYPE svg PUBLIC "-//W3C//DTD SVG 1.1//EN"
	"http://www.w3.org/Graphics/SVG/1.1/DTD/svg11.dtd">
<svg xmlns="http://www.w3.org/2000/svg" version="1.1"
	xmlns:xlink="http://www.w3.org/1999/xlink"
	xml:space='preserve' color="black"
	width="7.38in" height="1.34in" viewBox="0 0 531 97">
<title>data/results/biggest_11/abc/288.abc (288) tune 1</title>
<!-- Creator: abcm2ps-7.8.14 -->
<!-- CreationDate: Aug  9, 2015 23:50 -->
<!-- CommandLine: -g data/results/biggest_11/abc/288.abc -O /home/allanino/Dropbox/Trabalhos/folkme/svg/288.svg -->
<g transform="scale(0.750)" stroke-width="0.70" font-family="Times" font-size="20.00">
<text x="354.13" y="21.67" text-anchor="middle">Mazurka CGF 5- Anm.</text>
<path stroke="currentColor" fill="none"
	d="M130.93 106.01v-24.00"/>
<path stroke="currentColor" fill="none"
	d="M204.73 106.01v-24.00"/>
<path stroke="currentColor" fill="none"
	d="M293.03 106.01v-24.00"/>
<path stroke="currentColor" fill="none"
	d="M373.63 106.01v-24.00"/>
<path stroke="currentColor" fill="none"
	d="M462.03 106.01v-24.00"/>
<path stroke="currentColor" fill="none"
	d="M535.83 106.01v-24.00"/>
<path stroke="currentColor" fill="none"
	d="M624.13 106.01v-24.00"/>
<path stroke="currentColor" fill="none" stroke-width="3"
	d="M693.43 106.01v-24.00"/>
<path stroke="currentColor" fill="none"
	d="M688.93 106.01v-24.00"/>
<defs>
<g id="rdots" fill="currentColor">
	<circle cx="0" cy="-9" r="1.2"/>
	<circle cx="0" cy="-15" r="1.2"/>
</g>
</defs>
<use x="684.93" y="106.01" xlink:href="#rdots"/>
<path stroke="currentColor" fill="none"
	d="M13.33 106.01h681.60m-681.60 -6h681.60m-681.60 -6h681.60m-681.60 -6h681.60m-681.60 -6h681.60"/>
</g>
<g transform="scale(0.750)" stroke-width="0.70" font-family="Helvetica" font-size="12.00">
<text x="58.33" y="62.61">C</text>
<text x="136.93" y="62.61">G7</text>
<text x="302.03" y="62.61">C</text>
<text x="383.23" y="62.61">F</text>
<text x="470.93" y="62.61">C</text>
<text x="541.93" y="62.61">G7</text>
<text x="633.13" y="62.61">C</text>
<defs>
<path id="utclef" fill="currentColor" d="m-50 -90
	c-72 -41 -72 -158 52 -188
	c150 -10 220 188 90 256
	c-114 52 -275 0 -293 -136
	c-15 -181 93 -229 220 -334
	c88 -87 79 -133 62 -210
	c-51 33 -94 105 -89 186
	c17 267 36 374 49 574
	c6 96 -19 134 -77 135
	c-80 1 -126 -93 -61 -133
	c85 -41 133 101 31 105
	c23 17 92 37 90 -92
	c-10 -223 -39 -342 -50 -617
	c0 -90 0 -162 96 -232
	c56 72 63 230 22 289
	c-74 106 -257 168 -255 316
	c9 153 148 185 252 133
	c86 -65 29 -192 -80 -176
	c-71 12 -105 67 -59 124"/>
<use id="tclef" transform="scale(0.045)"
	xlink:href="#utclef"/>
</defs>
<use x="25.33" y="106.01" xlink:href="#tclef"/>
<g font-family="serif" font-size="16" font-weight="bold" font-style="normal"
	transform="translate(43.83,106.01) scale(1.2,1)">
	<text y="-1" text-anchor="middle">4</text>
	<text y="-13" text-anchor="middle">3</text>
</g>
<defs>
<ellipse id="hd" rx="4.1" ry="2.9"
	transform="rotate(-20)" fill="currentColor"/>
</defs>
<use x="61.83" y="106.01" xlink:href="#hd"/>
<path d="M65.33 106.01v-20.00" stroke="currentColor" fill="none"/>
<path fill="currentColor"
	d="M83.83 82.21l39.10 -4.30v3.20l-39.10 4.30"/>
<defs>
<path id="hl" stroke="currentColor" d="m-6 0h12"/>
</defs>
<use x="80.73" y="112.01" xlink:href="#hl"/>
<use x="80.73" y="112.01" xlink:href="#hd"/>
<path d="M84.23 112.01v-28.80" stroke="currentColor" fill="none"/>
<use x="93.53" y="100.01" xlink:href="#hd"/>
<path d="M97.03 100.01v-18.20" stroke="currentColor" fill="none"/>
<use x="106.33" y="106.01" xlink:href="#hd"/>
<path d="M109.83 106.01v-25.60" stroke="currentColor" fill="none"/>
<use x="119.13" y="100.01" xlink:href="#hd"/>
<path d="M122.63 100.01v-21.00" stroke="currentColor" fill="none"/>
<use x="143.43" y="112.01" xlink:href="#hl"/>
<use x="143.43" y="115.01" xlink:href="#hd"/>
<path d="M146.93 115.01v-21.00" stroke="currentColor" fill="none"/>
<path fill="currentColor"
	d="M165.43 76.61l13.50 -2.20v3.20l-13.50 2.20"/>
<use x="162.33" y="97.01" xlink:href="#hd"/>
<path d="M165.83 97.01v-19.50" stroke="currentColor" fill="none"/>
<use x="175.13" y="94.01" xlink:href="#hd"/>
<path d="M178.63 94.01v-18.50" stroke="currentColor" fill="none"/>
<use x="189.13" y="103.01" xlink:href="#hd"/>
<path d="M192.63 103.01v-20.00" stroke="currentColor" fill="none"/>
<path fill="currentColor"
	d="M220.43 70.91l64.80 -8.50v3.20l-64.80 8.50"/>
<use x="217.23" y="112.01" xlink:href="#hl"/>
<use x="217.23" y="115.01" xlink:href="#hd"/>
<path d="M220.73 115.01v-43.20" stroke="currentColor" fill="none"/>
<use x="230.03" y="109.01" xlink:href="#hd"/>
<path d="M233.53 109.01v-38.80" stroke="currentColor" fill="none"/>
<use x="242.93" y="100.01" xlink:href="#hd"/>
<path d="M246.43 100.01v-31.50" stroke="currentColor" fill="none"/>
<use x="255.73" y="85.01" xlink:href="#hd"/>
<path d="M259.23 85.01v-18.20" stroke="currentColor" fill="none"/>
<use x="268.53" y="103.01" xlink:href="#hd"/>
<path d="M272.03 103.01v-37.90" stroke="currentColor" fill="none"/>
<use x="281.33" y="94.01" xlink:href="#hd"/>
<path d="M284.83 94.01v-30.60" stroke="currentColor" fill="none"/>
<path fill="currentColor"
	d="M308.73 71.81l39.10 0.00v3.20l-39.10 -0.00"/>
<use x="305.53" y="100.01" xlink:href="#hd"/>
<path d="M309.03 100.01v-27.20" stroke="currentColor" fill="none"/>
<use x="318.43" y="97.01" xlink:href="#hd"/>
<path d="M321.93 97.01v-24.20" stroke="currentColor" fill="none"/>
<use x="331.23" y="100.01" xlink:href="#hd"/>
<path d="M334.73 100.01v-27.20" stroke="currentColor" fill="none"/>
<use x="344.03" y="91.01" xlink:href="#hd"/>
<path d="M347.53 91.01v-18.20" stroke="currentColor" fill="none"/>
<use x="358.03" y="106.01" xlink:href="#hd"/>
<path d="M361.53 106.01v-20.00" stroke="currentColor" fill="none"/>
<path fill="currentColor"
	d="M389.33 80.11l64.80 -6.60v3.20l-64.80 6.60"/>
<use x="386.13" y="103.01" xlink:href="#hd"/>
<path d="M389.63 103.01v-22.00" stroke="currentColor" fill="none"/>
<use x="399.03" y="112.01" xlink:href="#hl"/>
<use x="399.03" y="118.01" xlink:href="#hl"/>
<use x="399.03" y="118.01" xlink:href="#hd"/>
<path d="M402.53 118.01v-38.30" stroke="currentColor" fill="none"/>
<use x="411.83" y="109.01" xlink:href="#hd"/>
<path d="M415.33 109.01v-30.60" stroke="currentColor" fill="none"/>
<use x="424.63" y="103.01" xlink:href="#hd"/>
<path d="M428.13 103.01v-25.90" stroke="currentColor" fill="none"/>
<use x="437.43" y="94.01" xlink:href="#hd"/>
<path d="M440.93 94.01v-18.20" stroke="currentColor" fill="none"/>
<use x="450.23" y="97.01" xlink:href="#hd"/>
<path d="M453.73 97.01v-22.50" stroke="currentColor" fill="none"/>
<use x="474.53" y="100.01" xlink:href="#hd"/>
<path d="M478.03 100.01v-20.00" stroke="currentColor" fill="none"/>
<path fill="currentColor"
	d="M496.53 90.01l13.50 -3.30v3.20l-13.50 3.30"/>
<use x="493.33" y="112.01" xlink:href="#hl"/>
<use x="493.33" y="112.01" xlink:href="#hd"/>
<path d="M496.83 112.01v-21.10" stroke="currentColor" fill="none"/>
<use x="506.23" y="106.01" xlink:href="#hd"/>
<path d="M509.73 106.01v-18.20" stroke="currentColor" fill="none"/>
<use x="520.23" y="100.01" xlink:href="#hd"/>
<path d="M523.73 100.01v-20.00" stroke="currentColor" fill="none"/>
<path fill="currentColor"
	d="M551.53 75.51l64.80 -6.80v3.20l-64.80 6.80"/>
<use x="548.33" y="106.01" xlink:href="#hd"/>
<path d="M551.83 106.01v-29.50" stroke="currentColor" fill="none"/>
<use x="561.13" y="94.01" xlink:href="#hd"/>
<path d="M564.63 94.01v-18.80" stroke="currentColor" fill="none"/>
<use x="573.93" y="109.01" xlink:href="#hd"/>
<path d="M577.43 109.01v-35.20" stroke="currentColor" fill="none"/>
<use x="586.83" y="100.01" xlink:href="#hd"/>
<path d="M590.33 100.01v-27.50" stroke="currentColor" fill="none"/>
<use x="599.63" y="94.01" xlink:href="#hd"/>
<path d="M603.13 94.01v-22.90" stroke="currentColor" fill="none"/>
<use x="612.43" y="88.01" xlink:href="#hd"/>
<path d="M615.93 88.01v-18.20" stroke="currentColor" fill="none"/>
<use x="636.63" y="112.01" xlink:href="#hl"/>
<use x="636.63" y="112.01" xlink:href="#hd"/>
<path d="M640.13 112.01v-20.00" stroke="currentColor" fill="none"/>
<defs>
<path id="r4" fill="currentColor" d="m-1 -8.5
	l3.6 5.1 -2.1 5.2 2.2 4.3
	c-2.6 -2.3 -5.1 0 -2.4 2.6
	c-4.8 -3 -1.5 -6.9 1.4 -4.1
	l-3.1 -4.5 1.9 -5.1 -1.5 -3.5"/>
</defs>
<use x="655.53" y="94.01" xlink:href="#r4"/>
<use x="674.43" y="94.01" xlink:href="#r4"/>
</g>
</svg>
