<?xml version="1.0" standalone="no"?>
<!DOCTYPE svg PUBLIC "-//W3C//DTD SVG 1.1//EN"
	"http://www.w3.org/Graphics/SVG/1.1/DTD/svg11.dtd">
<svg xmlns="http://www.w3.org/2000/svg" version="1.1"
	xmlns:xlink="http://www.w3.org/1999/xlink"
	xml:space='preserve' color="black"
	width="7.38in" height="4.38in" viewBox="0 0 531 315">
<title>data/results/biggest_11/abc/290.abc (290) tune 1</title>
<!-- Creator: abcm2ps-7.8.14 -->
<!-- CreationDate: Aug  9, 2015 23:50 -->
<!-- CommandLine: -g data/results/biggest_11/abc/290.abc -O /home/allanino/Dropbox/Trabalhos/folkme/svg/290.svg -->
<g transform="scale(0.750)" stroke-width="0.70" font-family="Times" font-size="20.00">
<text x="354.13" y="21.67" text-anchor="middle">Mazurka CF 5-</text>
</g>
<g transform="scale(0.750)" stroke-width="0.70" font-family="Times" font-size="16.00">
<text x="354.13" y="41.30" text-anchor="middle">Hanny Christen. Bd.IX Uri II, Schwyz, Unterwalden I S.424 (mz10756) orig. F,Bb-Dur</text>
<defs>
<g id="rdots" fill="currentColor">
	<circle cx="0" cy="-9" r="1.2"/>
	<circle cx="0" cy="-15" r="1.2"/>
</g>
</defs>
<use x="106.73" y="122.84" xlink:href="#rdots"/>
<path stroke="currentColor" fill="none"
	d="M102.73 122.84v-24.00"/>
<path stroke="currentColor" fill="none" stroke-width="3"
	d="M98.23 122.84v-24.00"/>
<path stroke="currentColor" fill="none"
	d="M182.13 122.84v-24.00"/>
<path stroke="currentColor" fill="none"
	d="M247.43 122.84v-24.00"/>
<path stroke="currentColor" fill="none"
	d="M321.43 122.84v-24.00"/>
<path stroke="currentColor" fill="none"
	d="M386.63 122.84v-24.00"/>
<path stroke="currentColor" fill="none"
	d="M451.83 122.84v-24.00"/>
<path stroke="currentColor" fill="none"
	d="M526.73 122.84v-24.00"/>
<path stroke="currentColor" fill="none"
	d="M616.43 122.84v-24.00"/>
<path stroke="currentColor" fill="none"
	d="M694.93 122.84v-24.00"/>
<path stroke="currentColor" fill="none"
	d="M13.33 122.84h681.60m-681.60 -6h681.60m-681.60 -6h681.60m-681.60 -6h681.60m-681.60 -6h681.60"/>
</g>
<g transform="scale(0.750)" stroke-width="0.70" font-family="Helvetica" font-size="12.00">
<text x="117.23" y="81.44">F</text>
<text x="188.53" y="81.44">C7</text>
<text x="330.93" y="81.44">F</text>
<text x="458.43" y="81.44">B♭</text>
<text x="536.23" y="81.44">F</text>
<text x="588.33" y="134.44">a</text>
<text x="602.73" y="136.44">f</text>
<text x="622.73" y="81.44">C7</text>
<text x="647.63" y="144.44">b</text>
<text x="682.83" y="143.44">g</text>
<defs>
<path id="utclef" fill="currentColor" d="m-50 -90
	c-72 -41 -72 -158 52 -188
	c150 -10 220 188 90 256
	c-114 52 -275 0 -293 -136
	c-15 -181 93 -229 220 -334
	c88 -87 79 -133 62 -210
	c-51 33 -94 105 -89 186
	c17 267 36 374 49 574
	c6 96 -19 134 -77 135
	c-80 1 -126 -93 -61 -133
	c85 -41 133 101 31 105
	c23 17 92 37 90 -92
	c-10 -223 -39 -342 -50 -617
	c0 -90 0 -162 96 -232
	c56 72 63 230 22 289
	c-74 106 -257 168 -255 316
	c9 153 148 185 252 133
	c86 -65 29 -192 -80 -176
	c-71 12 -105 67 -59 124"/>
<use id="tclef" transform="scale(0.045)"
	xlink:href="#utclef"/>
</defs>
<use x="25.33" y="122.84" xlink:href="#tclef"/>
<defs>
<path id="uflat" fill="currentColor" d="
	m100 -746
	h32
	v734
	l-32 4
	m32 -332
	c46 -72 152 -90 208 -20
	c100 110 -120 326 -208 348
	m0 -28
	c54 0 200 -206 130 -290
	c-50 -60 -130 -4 -130 34"/>
<use id="ft0" transform="translate(-3.5,3.5) scale(0.018)"
	xlink:href="#uflat"/>
</defs>
<use x="40.33" y="110.84" xlink:href="#ft0"/>
<g font-family="serif" font-size="16" font-weight="bold" font-style="normal"
	transform="translate(56.33,122.84) scale(1.2,1)">
	<text y="-1" text-anchor="middle">4</text>
	<text y="-13" text-anchor="middle">3</text>
</g>
<path fill="currentColor"
	d="M77.53 93.44l13.50 -2.20v3.20l-13.50 2.20"/>
<defs>
<ellipse id="hd" rx="4.1" ry="2.9"
	transform="rotate(-20)" fill="currentColor"/>
</defs>
<use x="74.33" y="113.84" xlink:href="#hd"/>
<path d="M77.83 113.84v-19.50" stroke="currentColor" fill="none"/>
<use x="87.23" y="110.84" xlink:href="#hd"/>
<path d="M90.73 110.84v-18.50" stroke="currentColor" fill="none"/>
<path fill="currentColor"
	d="M116.33 127.14l17.30 -5.60v-3.20l-17.30 5.60"/>
<path fill="currentColor"
	d="M127.33 118.64l6.00 -1.90v-3.20l-6.00 1.90"/>
<use x="120.23" y="107.84" xlink:href="#hd"/>
<circle fill="currentColor" cx="128.23" cy="107.84" r="1.2"/>
<path d="M116.73 107.84v18.20" stroke="currentColor" fill="none"/>
<defs>
<path id="hl" stroke="currentColor" d="m-6 0h12"/>
</defs>
<use x="136.83" y="92.84" xlink:href="#hl"/>
<use x="136.83" y="92.84" xlink:href="#hd"/>
<path d="M133.33 92.84v27.90" stroke="currentColor" fill="none"/>
<use x="148.03" y="92.84" xlink:href="#hl"/>
<use x="148.03" y="92.84" xlink:href="#hd"/>
<path d="M144.53 92.84v20.00" stroke="currentColor" fill="none"/>
<use x="166.53" y="107.84" xlink:href="#hd"/>
<path d="M163.03 107.84v20.00" stroke="currentColor" fill="none"/>
<use x="194.63" y="95.84" xlink:href="#hd"/>
<path d="M191.13 95.84v20.00" stroke="currentColor" fill="none"/>
<use x="213.23" y="95.84" xlink:href="#hd"/>
<path d="M209.73 95.84v20.00" stroke="currentColor" fill="none"/>
<use x="231.83" y="107.84" xlink:href="#hd"/>
<path d="M228.33 107.84v20.00" stroke="currentColor" fill="none"/>
<path fill="currentColor"
	d="M256.03 130.84l17.30 2.30v-3.20l-17.30 -2.30"/>
<path fill="currentColor"
	d="M267.03 127.24l6.00 0.80v-3.20l-6.00 -0.80"/>
<use x="259.93" y="107.84" xlink:href="#hd"/>
<circle fill="currentColor" cx="267.93" cy="107.84" r="1.2"/>
<path d="M256.43 107.84v22.00" stroke="currentColor" fill="none"/>
<use x="276.53" y="110.84" xlink:href="#hd"/>
<path d="M273.03 110.84v21.20" stroke="currentColor" fill="none"/>
<use x="286.43" y="113.84" xlink:href="#hd"/>
<path d="M289.93 113.84v-20.00" stroke="currentColor" fill="none"/>
<use x="305.83" y="95.84" xlink:href="#hd"/>
<path d="M302.33 95.84v20.00" stroke="currentColor" fill="none"/>
<use x="333.93" y="92.84" xlink:href="#hl"/>
<use x="333.93" y="92.84" xlink:href="#hd"/>
<path d="M330.43 92.84v20.00" stroke="currentColor" fill="none"/>
<use x="352.43" y="98.84" xlink:href="#hd"/>
<path d="M348.93 98.84v20.00" stroke="currentColor" fill="none"/>
<use x="371.03" y="107.84" xlink:href="#hd"/>
<path d="M367.53 107.84v20.00" stroke="currentColor" fill="none"/>
<use x="399.13" y="107.84" xlink:href="#hd"/>
<circle fill="currentColor" cx="407.13" cy="107.84" r="1.2"/>
<path d="M395.63 107.84v20.00" stroke="currentColor" fill="none"/>
<use x="422.23" y="104.84" xlink:href="#hd"/>
<path d="M418.73 104.84v20.00" stroke="currentColor" fill="none"/>
<path fill="currentColor"
	d="M418.73 124.84c0.6 -5.6 9.6 -9 5.6 -18.4
	c1.6 6 -1.3 11.6 -5.6 12.8
"/>
<use x="436.23" y="101.84" xlink:href="#hd"/>
<path d="M432.73 101.84v20.00" stroke="currentColor" fill="none"/>
<path fill="currentColor"
	d="M460.53 121.84l17.30 2.30v-3.20l-17.30 -2.30"/>
<path fill="currentColor"
	d="M471.43 118.24l6.00 0.80v-3.20l-6.00 -0.80"/>
<use x="464.33" y="98.84" xlink:href="#hd"/>
<circle fill="currentColor" cx="472.33" cy="95.84" r="1.2"/>
<path d="M460.83 98.84v22.00" stroke="currentColor" fill="none"/>
<use x="480.93" y="101.84" xlink:href="#hd"/>
<path d="M477.43 101.84v21.20" stroke="currentColor" fill="none"/>
<use x="491.63" y="104.84" xlink:href="#hd"/>
<circle fill="currentColor" cx="499.63" cy="101.84" r="1.2"/>
<path d="M488.13 104.84v20.00" stroke="currentColor" fill="none"/>
<use x="514.83" y="101.84" xlink:href="#hd"/>
<path d="M511.33 101.84v20.00" stroke="currentColor" fill="none"/>
<path fill="currentColor"
	d="M511.33 121.84c0.6 -5.6 9.6 -9 5.6 -18.4
	c1.6 6 -1.3 11.6 -5.6 12.8
"/>
<path fill="currentColor"
	d="M535.33 119.84l66.00 0.00v-3.20l-66.00 -0.00"/>
<use x="539.23" y="98.84" xlink:href="#hd"/>
<path d="M535.73 98.84v20.00" stroke="currentColor" fill="none"/>
<use x="552.03" y="101.84" xlink:href="#hd"/>
<path d="M548.53 101.84v17.00" stroke="currentColor" fill="none"/>
<use x="564.93" y="98.84" xlink:href="#hd"/>
<path d="M561.43 98.84v20.00" stroke="currentColor" fill="none"/>
<use x="577.83" y="95.84" xlink:href="#hd"/>
<path d="M574.33 95.84v23.00" stroke="currentColor" fill="none"/>
<use x="590.63" y="92.84" xlink:href="#hl"/>
<use x="590.63" y="92.84" xlink:href="#hd"/>
<path d="M587.13 92.84v26.00" stroke="currentColor" fill="none"/>
<use x="604.43" y="98.84" xlink:href="#hd"/>
<path d="M600.93 98.84v20.00" stroke="currentColor" fill="none"/>
<use x="628.93" y="101.84" xlink:href="#hd"/>
<path d="M625.43 101.84v20.00" stroke="currentColor" fill="none"/>
<use x="650.23" y="110.84" xlink:href="#hd"/>
<path d="M646.73 110.84v20.00" stroke="currentColor" fill="none"/>
<path fill="currentColor"
	d="M664.93 130.14l17.30 -5.60v-3.20l-17.30 5.60"/>
<path fill="currentColor"
	d="M675.93 121.64l6.00 -1.90v-3.20l-6.00 1.90"/>
<use x="668.83" y="110.84" xlink:href="#hd"/>
<circle fill="currentColor" cx="676.83" cy="107.84" r="1.2"/>
<path d="M665.33 110.84v18.20" stroke="currentColor" fill="none"/>
<use x="685.43" y="95.84" xlink:href="#hd"/>
<path d="M681.93 95.84v27.90" stroke="currentColor" fill="none"/>
</g>
<g transform="scale(0.750)" stroke-width="0.70" font-family="Times" font-size="15.00">
<text x="138.33" y="168.24">A</text>
<path stroke="currentColor" fill="none" stroke-width="3"
	d="M134.33 208.24v-24.00"/>
<path stroke="currentColor" fill="none"
	d="M129.83 208.24v-24.00"/>
<path stroke="currentColor" fill="none"
	d="M232.93 208.24v-24.00"/>
<path stroke="currentColor" fill="none"
	d="M340.33 208.24v-24.00"/>
<path stroke="currentColor" fill="none"
	d="M429.83 208.24v-24.00"/>
<path stroke="currentColor" fill="none"
	d="M515.03 208.24v-24.00"/>
<path stroke="currentColor" fill="none"
	d="M605.43 208.24v-24.00"/>
<path stroke="currentColor" fill="none"
	d="M694.93 208.24v-24.00"/>
<path stroke="currentColor" fill="none"
	d="M13.33 208.24h681.60m-681.60 -6h681.60m-681.60 -6h681.60m-681.60 -6h681.60m-681.60 -6h681.60"/>
</g>
<g transform="scale(0.750)" stroke-width="0.70" font-family="Helvetica" font-size="12.00">
<text x="55.43" y="169.84">F</text>
<text x="105.23" y="226.84">&gt;TeilB</text>
<text x="145.93" y="243.24">c</text>
<text x="173.33" y="219.84">b</text>
<text x="242.53" y="169.84">F</text>
<text x="346.43" y="169.84">G7</text>
<text x="404.73" y="223.84">=</text>
<text x="439.33" y="169.84">C</text>
<text x="496.23" y="221.84">=</text>
<text x="519.63" y="169.84">Gm</text>
<text x="553.23" y="223.84">d</text>
<text x="615.03" y="169.84">F</text>
<use x="25.33" y="208.24" xlink:href="#tclef"/>
<use x="40.33" y="196.24" xlink:href="#ft0"/>
<use x="58.33" y="184.24" xlink:href="#hd"/>
<path d="M54.83 184.24v20.00" stroke="currentColor" fill="none"/>
<use x="85.73" y="184.24" xlink:href="#hd"/>
<path d="M82.23 184.24v20.00" stroke="currentColor" fill="none"/>
<defs>
<path id="r4" fill="currentColor" d="m-1 -8.5
	l3.6 5.1 -2.1 5.2 2.2 4.3
	c-2.6 -2.3 -5.1 0 -2.4 2.6
	c-4.8 -3 -1.5 -6.9 1.4 -4.1
	l-3.1 -4.5 1.9 -5.1 -1.5 -3.5"/>
</defs>
<use x="113.23" y="196.24" xlink:href="#r4"/>
<use x="148.33" y="193.24" xlink:href="#hd"/>
<path d="M144.83 193.24v20.00" stroke="currentColor" fill="none"/>
<path fill="currentColor"
	d="M172.13 198.04l21.50 2.40v-3.20l-21.50 -2.40"/>
<path fill="currentColor"
	d="M187.23 194.74l6.00 0.70v-3.20l-6.00 -0.70"/>
<use x="175.93" y="178.24" xlink:href="#hl"/>
<use x="175.93" y="175.24" xlink:href="#hd"/>
<circle fill="currentColor" cx="183.93" cy="175.24" r="1.2"/>
<path d="M172.43 175.24v21.90" stroke="currentColor" fill="none"/>
<use x="196.73" y="178.24" xlink:href="#hl"/>
<use x="196.73" y="178.24" xlink:href="#hd"/>
<path d="M193.23 178.24v21.20" stroke="currentColor" fill="none"/>
<use x="210.83" y="181.24" xlink:href="#hd"/>
<path d="M207.33 181.24v20.00" stroke="currentColor" fill="none"/>
<path fill="currentColor"
	d="M241.63 212.44l53.90 -6.80v-3.20l-53.90 6.80"/>
<use x="245.43" y="193.24" xlink:href="#hd"/>
<path d="M241.93 193.24v18.20" stroke="currentColor" fill="none"/>
<use x="263.13" y="190.24" xlink:href="#hd"/>
<path d="M259.63 190.24v19.00" stroke="currentColor" fill="none"/>
<use x="280.93" y="187.24" xlink:href="#hd"/>
<path d="M277.43 187.24v19.70" stroke="currentColor" fill="none"/>
<use x="298.63" y="184.24" xlink:href="#hd"/>
<path d="M295.13 184.24v20.50" stroke="currentColor" fill="none"/>
<use x="318.23" y="181.24" xlink:href="#hd"/>
<path d="M314.73 181.24v20.00" stroke="currentColor" fill="none"/>
<use x="352.83" y="181.24" xlink:href="#hd"/>
<path d="M349.33 181.24v20.00" stroke="currentColor" fill="none"/>
<use x="380.33" y="190.24" xlink:href="#hd"/>
<path d="M376.83 190.24v20.00" stroke="currentColor" fill="none"/>
<use x="407.73" y="190.24" xlink:href="#hd"/>
<path d="M404.23 190.24v20.00" stroke="currentColor" fill="none"/>
<defs>
<path id="Hd" fill="currentColor" d="m3 -1.6
	c-1 -1.8 -7 1.4 -6 3.2
	c1 1.8 7 -1.4 6 -3.2
	m0.5 -0.3
	c2 3.8 -5 7.6 -7 3.8
	c-2 -3.8 5 -7.6 7 -3.8"/>
</defs>
<use x="442.83" y="193.24" xlink:href="#Hd"/>
<path d="M439.33 193.24v20.00" stroke="currentColor" fill="none"/>
<path fill="currentColor"
	d="M477.63 208.44l18.40 0.00v-3.20l-18.40 -0.00"/>
<use x="481.43" y="187.24" xlink:href="#hd"/>
<path d="M477.93 187.24v20.20" stroke="currentColor" fill="none"/>
<use x="499.13" y="187.24" xlink:href="#hd"/>
<path d="M495.63 187.24v20.20" stroke="currentColor" fill="none"/>
<use x="527.53" y="190.24" xlink:href="#hd"/>
<path d="M524.03 190.24v20.00" stroke="currentColor" fill="none"/>
<use x="555.83" y="190.24" xlink:href="#hd"/>
<path d="M552.33 190.24v20.00" stroke="currentColor" fill="none"/>
<use x="583.33" y="190.24" xlink:href="#hd"/>
<path d="M579.83 190.24v20.00" stroke="currentColor" fill="none"/>
<use x="617.93" y="193.24" xlink:href="#hd"/>
<path d="M614.43 193.24v20.00" stroke="currentColor" fill="none"/>
<use x="645.33" y="190.24" xlink:href="#hd"/>
<path d="M641.83 190.24v20.00" stroke="currentColor" fill="none"/>
<use x="672.83" y="193.24" xlink:href="#hd"/>
<path d="M669.33 193.24v20.00" stroke="currentColor" fill="none"/>
<path stroke="currentColor" fill="none"
	d="M168.73 306.04v-24.00"/>
<path stroke="currentColor" fill="none"
	d="M275.33 306.04v-24.00"/>
<path stroke="currentColor" fill="none"
	d="M398.33 306.04v-24.00"/>
<path stroke="currentColor" fill="none"
	d="M475.83 306.04v-24.00"/>
<path stroke="currentColor" fill="none"
	d="M580.33 306.04v-24.00"/>
<path stroke="currentColor" fill="none"
	d="M694.93 306.04v-24.00"/>
<path stroke="currentColor" fill="none"
	d="M13.33 306.04h681.60m-681.60 -6h681.60m-681.60 -6h681.60m-681.60 -6h681.60m-681.60 -6h681.60"/>
<text x="52.13" y="261.64">C7</text>
<text x="178.33" y="261.64">F</text>
<text x="237.23" y="317.64">a</text>
<text x="256.23" y="317.64">a</text>
<text x="281.63" y="261.64">C7</text>
<text x="285.23" y="317.64">b</text>
<text x="485.33" y="261.64">F</text>
<use x="25.33" y="306.04" xlink:href="#tclef"/>
<use x="40.33" y="294.04" xlink:href="#ft0"/>
<path fill="currentColor"
	d="M54.53 301.14l94.40 6.10v-3.20l-94.40 -6.10"/>
<use x="58.33" y="276.04" xlink:href="#hl"/>
<use x="58.33" y="276.04" xlink:href="#hd"/>
<path d="M54.83 276.04v24.20" stroke="currentColor" fill="none"/>
<use x="77.03" y="279.04" xlink:href="#hd"/>
<path d="M73.53 279.04v22.40" stroke="currentColor" fill="none"/>
<use x="95.83" y="279.04" xlink:href="#hd"/>
<path d="M92.33 279.04v23.60" stroke="currentColor" fill="none"/>
<use x="114.53" y="282.04" xlink:href="#hd"/>
<path d="M111.03 282.04v21.80" stroke="currentColor" fill="none"/>
<use x="133.23" y="285.04" xlink:href="#hd"/>
<path d="M129.73 285.04v20.00" stroke="currentColor" fill="none"/>
<use x="152.03" y="288.04" xlink:href="#hd"/>
<path d="M148.53 288.04v18.20" stroke="currentColor" fill="none"/>
<use x="181.23" y="291.04" xlink:href="#hd"/>
<path d="M177.73 291.04v20.00" stroke="currentColor" fill="none"/>
<use x="210.33" y="276.04" xlink:href="#hl"/>
<use x="210.33" y="270.04" xlink:href="#hl"/>
<use x="210.33" y="270.04" xlink:href="#hd"/>
<path d="M206.83 270.04v24.00" stroke="currentColor" fill="none"/>
<path fill="currentColor"
	d="M235.73 297.04l19.70 0.00v-3.20l-19.70 -0.00"/>
<use x="239.63" y="276.04" xlink:href="#hl"/>
<use x="239.63" y="276.04" xlink:href="#hd"/>
<path d="M236.13 276.04v20.00" stroke="currentColor" fill="none"/>
<use x="258.63" y="276.04" xlink:href="#hl"/>
<use x="258.63" y="276.04" xlink:href="#hd"/>
<path d="M255.13 276.04v20.00" stroke="currentColor" fill="none"/>
<path fill="currentColor"
	d="M284.03 296.24l94.50 11.00v-3.20l-94.50 -11.00"/>
<use x="287.83" y="276.04" xlink:href="#hl"/>
<use x="287.83" y="273.04" xlink:href="#hd"/>
<path d="M284.33 273.04v22.20" stroke="currentColor" fill="none"/>
<use x="306.63" y="276.04" xlink:href="#hl"/>
<use x="306.63" y="276.04" xlink:href="#hd"/>
<path d="M303.13 276.04v21.40" stroke="currentColor" fill="none"/>
<use x="325.43" y="279.04" xlink:href="#hd"/>
<path d="M321.93 279.04v20.60" stroke="currentColor" fill="none"/>
<use x="344.13" y="282.04" xlink:href="#hd"/>
<path d="M340.63 282.04v19.80" stroke="currentColor" fill="none"/>
<use x="362.83" y="285.04" xlink:href="#hd"/>
<path d="M359.33 285.04v19.00" stroke="currentColor" fill="none"/>
<use x="381.63" y="288.04" xlink:href="#hd"/>
<path d="M378.13 288.04v18.20" stroke="currentColor" fill="none"/>
<use x="411.33" y="276.04" xlink:href="#hl"/>
<use x="411.33" y="270.04" xlink:href="#hl"/>
<use x="411.33" y="270.04" xlink:href="#Hd"/>
<path d="M407.83 270.04v24.00" stroke="currentColor" fill="none"/>
<use x="452.33" y="285.04" xlink:href="#hd"/>
<path d="M448.83 285.04v20.00" stroke="currentColor" fill="none"/>
<path fill="currentColor"
	d="M484.43 308.34l19.40 2.40v-3.20l-19.40 -2.40"/>
<use x="488.33" y="288.04" xlink:href="#hd"/>
<path d="M484.83 288.04v19.40" stroke="currentColor" fill="none"/>
<use x="507.03" y="291.04" xlink:href="#hd"/>
<path d="M503.53 291.04v18.60" stroke="currentColor" fill="none"/>
<use x="527.83" y="291.04" xlink:href="#hd"/>
<path d="M524.33 291.04v20.00" stroke="currentColor" fill="none"/>
<use x="556.93" y="282.04" xlink:href="#hd"/>
<path d="M553.43 282.04v20.00" stroke="currentColor" fill="none"/>
<use x="592.83" y="276.04" xlink:href="#hl"/>
<use x="592.83" y="276.04" xlink:href="#hd"/>
<path d="M589.33 276.04v20.00" stroke="currentColor" fill="none"/>
<path fill="currentColor"
	d="M618.13 300.34l56.90 6.90v-3.20l-56.90 -6.90"/>
<use x="621.93" y="279.04" xlink:href="#hd"/>
<path d="M618.43 279.04v20.40" stroke="currentColor" fill="none"/>
<use x="640.73" y="282.04" xlink:href="#hd"/>
<path d="M637.23 282.04v19.70" stroke="currentColor" fill="none"/>
<use x="659.43" y="285.04" xlink:href="#hd"/>
<path d="M655.93 285.04v18.90" stroke="currentColor" fill="none"/>
<use x="678.23" y="288.04" xlink:href="#hd"/>
<path d="M674.73 288.04v18.20" stroke="currentColor" fill="none"/>
<path stroke="currentColor" fill="none"
	d="M110.23 388.04v-24.00"/>
<path stroke="currentColor" fill="none"
	d="M190.13 388.04v-24.00"/>
<path stroke="currentColor" fill="none"
	d="M254.53 388.04v-24.00"/>
<path stroke="currentColor" fill="none"
	d="M335.23 388.04v-24.00"/>
<path stroke="currentColor" fill="none"
	d="M402.93 388.04v-24.00"/>
<path stroke="currentColor" fill="none"
	d="M466.83 388.04v-24.00"/>
<path stroke="currentColor" fill="none"
	d="M546.83 388.04v-24.00"/>
<path stroke="currentColor" fill="none" stroke-width="3"
	d="M627.43 388.04v-24.00"/>
<path stroke="currentColor" fill="none"
	d="M622.93 388.04v-24.00"/>
<use x="618.93" y="388.04" xlink:href="#rdots"/>
<path stroke="currentColor" fill="none" stroke-width="3"
	d="M693.43 388.04v-24.00"/>
<path stroke="currentColor" fill="none"
	d="M688.93 388.04v-24.00"/>
<path stroke="currentColor" fill="none"
	d="M13.33 388.04h681.60m-681.60 -6h681.60m-681.60 -6h681.60m-681.60 -6h681.60m-681.60 -6h681.60"/>
<text x="52.13" y="340.64">C7</text>
<text x="119.73" y="340.64">F</text>
<text x="196.53" y="340.64">C7</text>
<text x="264.03" y="340.64">F</text>
<text x="321.13" y="401.64">b</text>
<text x="318.43" y="413.64">**</text>
<text x="341.63" y="340.64">C7</text>
<text x="345.43" y="399.64">c</text>
<text x="366.23" y="399.64">b</text>
<text x="388.73" y="401.64">g</text>
<text x="412.73" y="399.64">g</text>
<text x="476.43" y="340.64">F</text>
</g>
<g transform="scale(0.750)" stroke-width="0.70" font-family="Times" font-size="13.00">
<text x="550.83" y="349.44">1</text>
<path stroke="currentColor" fill="none"
	d="M546.83 338.04v20M546.83 338.04h74.10v20"/>
<text x="632.93" y="349.44">2</text>
<path stroke="currentColor" fill="none"
	d="M628.93 338.04v20M628.93 338.04h66.00v20"/>
<use x="25.33" y="388.04" xlink:href="#tclef"/>
<use x="40.33" y="376.04" xlink:href="#ft0"/>
<use x="58.33" y="373.04" xlink:href="#hd"/>
<path d="M54.83 373.04v20.00" stroke="currentColor" fill="none"/>
<use x="76.63" y="367.04" xlink:href="#hd"/>
<path d="M73.13 367.04v20.00" stroke="currentColor" fill="none"/>
<use x="94.93" y="361.04" xlink:href="#hd"/>
<path d="M91.43 361.04v20.00" stroke="currentColor" fill="none"/>
<use x="122.73" y="364.04" xlink:href="#hd"/>
<path d="M119.23 364.04v20.00" stroke="currentColor" fill="none"/>
<path fill="currentColor"
	d="M137.13 392.24l38.30 -5.50v-3.20l-38.30 5.50"/>
<use x="141.03" y="373.04" xlink:href="#hd"/>
<path d="M137.53 373.04v18.20" stroke="currentColor" fill="none"/>
<use x="153.53" y="364.04" xlink:href="#hd"/>
<path d="M150.03 364.04v25.40" stroke="currentColor" fill="none"/>
<use x="166.03" y="358.04" xlink:href="#hl"/>
<use x="166.03" y="358.04" xlink:href="#hd"/>
<path d="M162.53 358.04v29.60" stroke="currentColor" fill="none"/>
<use x="178.63" y="361.04" xlink:href="#hd"/>
<path d="M175.13 361.04v24.80" stroke="currentColor" fill="none"/>
<use x="202.63" y="367.04" xlink:href="#hd"/>
<path d="M199.13 367.04v20.00" stroke="currentColor" fill="none"/>
<use x="220.93" y="361.04" xlink:href="#hd"/>
<path d="M217.43 361.04v20.00" stroke="currentColor" fill="none"/>
<use x="239.23" y="358.04" xlink:href="#hl"/>
<use x="239.23" y="352.04" xlink:href="#hl"/>
<use x="239.23" y="352.04" xlink:href="#hd"/>
<path d="M235.73 352.04v24.00" stroke="currentColor" fill="none"/>
<use x="267.03" y="358.04" xlink:href="#hl"/>
<use x="267.03" y="358.04" xlink:href="#hd"/>
<path d="M263.53 358.04v20.00" stroke="currentColor" fill="none"/>
<path fill="currentColor"
	d="M281.43 383.24l39.10 -3.80v-3.20l-39.10 3.80"/>
<use x="285.33" y="364.04" xlink:href="#hd"/>
<path d="M281.83 364.04v18.20" stroke="currentColor" fill="none"/>
<use x="297.83" y="358.04" xlink:href="#hl"/>
<use x="297.83" y="358.04" xlink:href="#hd"/>
<path d="M294.33 358.04v23.00" stroke="currentColor" fill="none"/>
<use x="310.73" y="358.04" xlink:href="#hl"/>
<use x="310.73" y="352.04" xlink:href="#hl"/>
<use x="310.73" y="352.04" xlink:href="#hd"/>
<path d="M307.23 352.04v27.70" stroke="currentColor" fill="none"/>
<use x="323.73" y="358.04" xlink:href="#hl"/>
<use x="323.73" y="355.04" xlink:href="#hd"/>
<path d="M320.23 355.04v23.50" stroke="currentColor" fill="none"/>
<use x="347.73" y="358.04" xlink:href="#hl"/>
<use x="347.73" y="352.04" xlink:href="#hl"/>
<use x="347.73" y="352.04" xlink:href="#hd"/>
<path d="M344.23 352.04v24.00" stroke="currentColor" fill="none"/>
<use x="368.83" y="358.04" xlink:href="#hl"/>
<use x="368.83" y="355.04" xlink:href="#hd"/>
<circle fill="currentColor" cx="376.83" cy="355.04" r="1.2"/>
<path d="M365.33 355.04v21.00" stroke="currentColor" fill="none"/>
<use x="391.33" y="361.04" xlink:href="#hd"/>
<path d="M387.83 361.04v20.00" stroke="currentColor" fill="none"/>
<path fill="currentColor"
	d="M387.83 381.04c0.6 -5.6 9.6 -9 5.6 -18.4
	c1.6 6 -1.3 11.6 -5.6 12.8
"/>
<use x="415.43" y="361.04" xlink:href="#hd"/>
<circle fill="currentColor" cx="423.43" cy="361.04" r="1.2"/>
<path d="M411.93 361.04v20.00" stroke="currentColor" fill="none"/>
<use x="437.93" y="364.04" xlink:href="#hd"/>
<path d="M434.43 364.04v20.00" stroke="currentColor" fill="none"/>
<path fill="currentColor"
	d="M434.43 384.04c0.6 -5.6 9.6 -9 5.6 -18.4
	c1.6 6 -1.3 11.6 -5.6 12.8
"/>
<use x="451.63" y="367.04" xlink:href="#hd"/>
<path d="M448.13 367.04v20.00" stroke="currentColor" fill="none"/>
<use x="479.33" y="364.04" xlink:href="#hd"/>
<path d="M475.83 364.04v20.00" stroke="currentColor" fill="none"/>
<path fill="currentColor"
	d="M493.83 385.04l38.30 0.00v-3.20l-38.30 -0.00"/>
<use x="497.63" y="367.04" xlink:href="#hd"/>
<path d="M494.13 367.04v17.00" stroke="currentColor" fill="none"/>
<use x="510.23" y="364.04" xlink:href="#hd"/>
<path d="M506.73 364.04v20.00" stroke="currentColor" fill="none"/>
<use x="522.73" y="358.04" xlink:href="#hl"/>
<use x="522.73" y="358.04" xlink:href="#hd"/>
<path d="M519.23 358.04v26.00" stroke="currentColor" fill="none"/>
<use x="535.23" y="361.04" xlink:href="#hd"/>
<path d="M531.73 361.04v23.00" stroke="currentColor" fill="none"/>
<use x="559.33" y="364.04" xlink:href="#hd"/>
<path d="M555.83 364.04v20.00" stroke="currentColor" fill="none"/>
<use x="577.63" y="376.04" xlink:href="#r4"/>
<path fill="currentColor"
	d="M592.03 395.34l13.20 -3.20v-3.20l-13.20 3.20"/>
<use x="595.93" y="376.04" xlink:href="#hd"/>
<path d="M592.43 376.04v18.20" stroke="currentColor" fill="none"/>
<use x="608.43" y="370.04" xlink:href="#hd"/>
<path d="M604.93 370.04v21.10" stroke="currentColor" fill="none"/>
<use x="641.43" y="364.04" xlink:href="#hd"/>
<path d="M637.93 364.04v20.00" stroke="currentColor" fill="none"/>
<use x="659.73" y="376.04" xlink:href="#r4"/>
<use x="678.03" y="376.04" xlink:href="#r4"/>
</g>
</svg>
