<?xml version="1.0" standalone="no"?>
<!DOCTYPE svg PUBLIC "-//W3C//DTD SVG 1.1//EN"
	"http://www.w3.org/Graphics/SVG/1.1/DTD/svg11.dtd">
<svg xmlns="http://www.w3.org/2000/svg" version="1.1"
	xmlns:xlink="http://www.w3.org/1999/xlink"
	xml:space='preserve' color="black"
	width="7.38in" height="2.89in" viewBox="0 0 531 208">
<title>data/results/biggest_11/abc/291.abc (291) tune 1</title>
<!-- Creator: abcm2ps-7.8.14 -->
<!-- CreationDate: Aug  9, 2015 23:50 -->
<!-- CommandLine: -g data/results/biggest_11/abc/291.abc -O /home/allanino/Dropbox/Trabalhos/folkme/svg/291.svg -->
<g transform="scale(0.750)" stroke-width="0.70" font-family="Times" font-size="20.00">
<text x="354.13" y="21.67" text-anchor="middle">Captain Charles Stewart&apos;s Jigg</text>
<path stroke="currentColor" fill="none"
	d="M93.13 107.01v-24.00"/>
<path stroke="currentColor" fill="none"
	d="M253.93 107.01v-24.00"/>
<path stroke="currentColor" fill="none"
	d="M421.43 107.01v-24.00"/>
<path stroke="currentColor" fill="none"
	d="M570.83 107.01v-24.00"/>
<path stroke="currentColor" fill="none"
	d="M694.93 107.01v-24.00"/>
<path stroke="currentColor" fill="none"
	d="M691.93 107.01v-24.00"/>
<path stroke="currentColor" fill="none"
	d="M13.33 107.01h681.60m-681.60 -6h681.60m-681.60 -6h681.60m-681.60 -6h681.60m-681.60 -6h681.60"/>
</g>
<g transform="scale(0.750)" stroke-width="0.70" font-family="Helvetica" font-size="12.00">
<text x="101.83" y="62.61">G</text>
<text x="262.93" y="62.61">C</text>
<text x="336.63" y="62.61">G</text>
<text x="430.13" y="62.61">G</text>
<text x="490.93" y="62.61">A7/B</text>
<text x="576.83" y="62.61">D7</text>
<text x="664.93" y="62.61">G</text>
<defs>
<path id="utclef" fill="currentColor" d="m-50 -90
	c-72 -41 -72 -158 52 -188
	c150 -10 220 188 90 256
	c-114 52 -275 0 -293 -136
	c-15 -181 93 -229 220 -334
	c88 -87 79 -133 62 -210
	c-51 33 -94 105 -89 186
	c17 267 36 374 49 574
	c6 96 -19 134 -77 135
	c-80 1 -126 -93 -61 -133
	c85 -41 133 101 31 105
	c23 17 92 37 90 -92
	c-10 -223 -39 -342 -50 -617
	c0 -90 0 -162 96 -232
	c56 72 63 230 22 289
	c-74 106 -257 168 -255 316
	c9 153 148 185 252 133
	c86 -65 29 -192 -80 -176
	c-71 12 -105 67 -59 124"/>
<use id="tclef" transform="scale(0.045)"
	xlink:href="#utclef"/>
</defs>
<use x="25.33" y="107.01" xlink:href="#tclef"/>
<defs>
<path id="usharp" fill="currentColor" d="
	m136 -702
	v890
	h32
	v-890
	m128 840
	h32
	v-888
	h-32
	m-232 286
	v116
	l338 -96
	v-116
	m-338 442
	v116
	l338 -98
	v-114"/>
<use id="sh0" transform="translate(-4,5) scale(0.018)"
	xlink:href="#usharp"/>
</defs>
<use x="40.33" y="83.01" xlink:href="#sh0"/>
<defs>
<path id="csig" fill="currentColor" d="
	m1 -17.3
	c0.9 0 2.3 0.7 2.4 2.2
	c-1.2 -2 -3.6 0.1 -1.6 1.7
	c2 1 3.8 -3.5 -0.8 -4.7
	c-2 -0.4 -6.4 1.3 -5.8 7
	c0.4 6.4 7.9 6.8 9.1 0.7
	c-2.3 5.6 -6.7 5.1 -6.8 0
	c-0.5 -4.4 0.7 -7.5 3.5 -6.9"/>
<g id="ctsig">
	<use xlink:href="#csig"/>
	<path d="m0 -4v-16" stroke="currentColor"/>
</g>
</defs>
<use x="56.33" y="107.01" xlink:href="#ctsig"/>
<defs>
<ellipse id="hd" rx="4.1" ry="2.9"
	transform="rotate(-20)" fill="currentColor"/>
</defs>
<use x="74.33" y="110.01" xlink:href="#hd"/>
<path d="M77.83 110.01v-20.00" stroke="currentColor" fill="none"/>
<path fill="currentColor"
	d="	M77.83 90.01c0.6 5.6 9.6 9 5.6 18.4
	c1.6 -6 -1.3 -11.6 -5.6 -12.8
"/>
<use x="105.63" y="101.01" xlink:href="#hd"/>
<path d="M109.13 101.01v-20.00" stroke="currentColor" fill="none"/>
<path fill="currentColor"
	d="M134.33 114.31l21.50 -3.90v-3.20l-21.50 3.90"/>
<use x="138.23" y="95.01" xlink:href="#hd"/>
<path d="M134.73 95.01v18.20" stroke="currentColor" fill="none"/>
<use x="159.03" y="89.01" xlink:href="#hd"/>
<path d="M155.53 89.01v20.40" stroke="currentColor" fill="none"/>
<use x="182.13" y="80.01" xlink:href="#hd"/>
<path d="M178.63 80.01v20.00" stroke="currentColor" fill="none"/>
<path fill="currentColor"
	d="M210.73 110.31l21.50 3.90v-3.20l-21.50 -3.90"/>
<use x="214.53" y="89.01" xlink:href="#hd"/>
<path d="M211.03 89.01v20.40" stroke="currentColor" fill="none"/>
<use x="235.33" y="95.01" xlink:href="#hd"/>
<path d="M231.83 95.01v18.20" stroke="currentColor" fill="none"/>
<use x="266.43" y="80.01" xlink:href="#hd"/>
<path d="M262.93 80.01v20.00" stroke="currentColor" fill="none"/>
<path fill="currentColor"
	d="M295.03 120.21l104.70 0.00v-3.20l-104.70 -0.00"/>
<use x="298.83" y="86.01" xlink:href="#hd"/>
<path d="M295.33 86.01v33.20" stroke="currentColor" fill="none"/>
<use x="319.63" y="89.01" xlink:href="#hd"/>
<path d="M316.13 89.01v30.20" stroke="currentColor" fill="none"/>
<use x="340.43" y="95.01" xlink:href="#hd"/>
<path d="M336.93 95.01v24.20" stroke="currentColor" fill="none"/>
<use x="361.23" y="101.01" xlink:href="#hd"/>
<path d="M357.73 101.01v18.20" stroke="currentColor" fill="none"/>
<use x="382.03" y="101.01" xlink:href="#hd"/>
<path d="M378.53 101.01v18.20" stroke="currentColor" fill="none"/>
<use x="402.83" y="80.01" xlink:href="#hd"/>
<path d="M399.33 80.01v39.20" stroke="currentColor" fill="none"/>
<defs>
<path id="hl" stroke="currentColor" d="m-6 0h12"/>
</defs>
<use x="433.93" y="77.01" xlink:href="#hl"/>
<use x="433.93" y="74.01" xlink:href="#hd"/>
<path d="M430.43 74.01v21.00" stroke="currentColor" fill="none"/>
<use x="466.43" y="77.01" xlink:href="#hl"/>
<use x="466.43" y="74.01" xlink:href="#hd"/>
<path d="M462.93 74.01v21.00" stroke="currentColor" fill="none"/>
<use x="498.93" y="77.01" xlink:href="#hl"/>
<use x="498.93" y="77.01" xlink:href="#hd"/>
<path d="M495.43 77.01v20.00" stroke="currentColor" fill="none"/>
<path fill="currentColor"
	d="M527.63 99.71l21.50 -2.40v-3.20l-21.50 2.40"/>
<use x="531.43" y="80.01" xlink:href="#hd"/>
<path d="M527.93 80.01v18.70" stroke="currentColor" fill="none"/>
<use x="552.23" y="77.01" xlink:href="#hl"/>
<use x="552.23" y="77.01" xlink:href="#hd"/>
<path d="M548.73 77.01v19.30" stroke="currentColor" fill="none"/>
<path fill="currentColor"
	d="M579.43 107.21l63.10 0.00v-3.20l-63.10 -0.00"/>
<use x="583.33" y="83.01" xlink:href="#hd"/>
<path d="M579.83 83.01v23.20" stroke="currentColor" fill="none"/>
<use x="604.13" y="89.01" xlink:href="#hd"/>
<path d="M600.63 89.01v17.20" stroke="currentColor" fill="none"/>
<use x="624.93" y="83.01" xlink:href="#hd"/>
<path d="M621.43 83.01v23.20" stroke="currentColor" fill="none"/>
<use x="645.73" y="89.01" xlink:href="#hd"/>
<path d="M642.23 89.01v17.20" stroke="currentColor" fill="none"/>
<use x="668.73" y="80.01" xlink:href="#hd"/>
<path d="M665.23 80.01v20.00" stroke="currentColor" fill="none"/>
<path stroke="currentColor" fill="none"
	d="M57.83 183.01v-24.00"/>
<path stroke="currentColor" fill="none"
	d="M54.83 183.01v-24.00"/>
<path stroke="currentColor" fill="none"
	d="M115.53 183.01v-24.00"/>
<path stroke="currentColor" fill="none"
	d="M304.43 183.01v-24.00"/>
<path stroke="currentColor" fill="none"
	d="M495.93 183.01v-24.00"/>
<path stroke="currentColor" fill="none"
	d="M694.93 183.01v-24.00"/>
<path stroke="currentColor" fill="none"
	d="M13.33 183.01h681.60m-681.60 -6h681.60m-681.60 -6h681.60m-681.60 -6h681.60m-681.60 -6h681.60"/>
<text x="314.03" y="141.61">C</text>
<text x="502.63" y="141.61">D7</text>
<use x="25.33" y="183.01" xlink:href="#tclef"/>
<use x="40.33" y="159.01" xlink:href="#sh0"/>
<path fill="currentColor"
	d="M74.13 156.71l24.20 -2.50v3.20l-24.20 2.50"/>
<use x="71.03" y="177.01" xlink:href="#hd"/>
<path d="M74.53 177.01v-19.30" stroke="currentColor" fill="none"/>
<use x="94.53" y="174.01" xlink:href="#hd"/>
<path d="M98.03 174.01v-18.70" stroke="currentColor" fill="none"/>
<use x="128.63" y="171.01" xlink:href="#hd"/>
<path d="M125.13 171.01v20.00" stroke="currentColor" fill="none"/>
<path fill="currentColor"
	d="M161.73 191.01l118.50 0.00v-3.20l-118.50 -0.00"/>
<use x="165.63" y="171.01" xlink:href="#hd"/>
<path d="M162.13 171.01v19.00" stroke="currentColor" fill="none"/>
<use x="189.13" y="171.01" xlink:href="#hd"/>
<path d="M185.63 171.01v19.00" stroke="currentColor" fill="none"/>
<use x="212.73" y="171.01" xlink:href="#hd"/>
<path d="M209.23 171.01v19.00" stroke="currentColor" fill="none"/>
<use x="236.33" y="171.01" xlink:href="#hd"/>
<path d="M232.83 171.01v19.00" stroke="currentColor" fill="none"/>
<use x="259.83" y="171.01" xlink:href="#hd"/>
<path d="M256.33 171.01v19.00" stroke="currentColor" fill="none"/>
<use x="283.43" y="171.01" xlink:href="#hd"/>
<path d="M279.93 171.01v19.00" stroke="currentColor" fill="none"/>
<path fill="currentColor"
	d="M313.73 193.21l71.40 0.00v-3.20l-71.40 -0.00"/>
<use x="317.53" y="174.01" xlink:href="#hd"/>
<path d="M314.03 174.01v18.20" stroke="currentColor" fill="none"/>
<use x="341.13" y="168.01" xlink:href="#hd"/>
<path d="M337.63 168.01v24.20" stroke="currentColor" fill="none"/>
<use x="364.63" y="174.01" xlink:href="#hd"/>
<path d="M361.13 174.01v18.20" stroke="currentColor" fill="none"/>
<use x="388.23" y="168.01" xlink:href="#hd"/>
<path d="M384.73 168.01v24.20" stroke="currentColor" fill="none"/>
<use x="414.43" y="171.01" xlink:href="#hd"/>
<path d="M410.93 171.01v20.00" stroke="currentColor" fill="none"/>
<path fill="currentColor"
	d="M447.53 181.71l24.20 -2.50v-3.20l-24.20 2.50"/>
<use x="451.33" y="162.01" xlink:href="#hd"/>
<path d="M447.83 162.01v18.70" stroke="currentColor" fill="none"/>
<use x="474.93" y="159.01" xlink:href="#hd"/>
<path d="M471.43 159.01v19.30" stroke="currentColor" fill="none"/>
<path fill="currentColor"
	d="M505.23 184.91l165.60 9.70v-3.20l-165.60 -9.70"/>
<use x="509.03" y="156.01" xlink:href="#hd"/>
<path d="M505.53 156.01v27.90" stroke="currentColor" fill="none"/>
<use x="532.63" y="153.01" xlink:href="#hl"/>
<use x="532.63" y="153.01" xlink:href="#hd"/>
<path d="M529.13 153.01v32.30" stroke="currentColor" fill="none"/>
<use x="556.13" y="159.01" xlink:href="#hd"/>
<path d="M552.63 159.01v27.70" stroke="currentColor" fill="none"/>
<use x="579.73" y="153.01" xlink:href="#hl"/>
<use x="579.73" y="153.01" xlink:href="#hd"/>
<path d="M576.23 153.01v35.10" stroke="currentColor" fill="none"/>
<use x="603.33" y="171.01" xlink:href="#hd"/>
<path d="M599.83 171.01v18.40" stroke="currentColor" fill="none"/>
<use x="626.83" y="156.01" xlink:href="#hd"/>
<path d="M623.33 156.01v34.80" stroke="currentColor" fill="none"/>
<use x="650.43" y="174.01" xlink:href="#hd"/>
<path d="M646.93 174.01v18.20" stroke="currentColor" fill="none"/>
<use x="673.93" y="171.01" xlink:href="#hd"/>
<path d="M670.43 171.01v22.60" stroke="currentColor" fill="none"/>
<path stroke="currentColor" fill="none"
	d="M178.43 254.01v-24.00"/>
<path stroke="currentColor" fill="none"
	d="M318.33 254.01v-24.00"/>
<path stroke="currentColor" fill="none"
	d="M452.33 254.01v-24.00"/>
<path stroke="currentColor" fill="none"
	d="M592.23 254.01v-24.00"/>
<path stroke="currentColor" fill="none" stroke-width="3"
	d="M693.43 254.01v-24.00"/>
<path stroke="currentColor" fill="none"
	d="M688.93 254.01v-24.00"/>
<path stroke="currentColor" fill="none"
	d="M13.33 254.01h681.60m-681.60 -6h681.60m-681.60 -6h681.60m-681.60 -6h681.60m-681.60 -6h681.60"/>
<text x="54.53" y="217.61">G</text>
<text x="187.13" y="217.61">G</text>
<text x="327.23" y="217.61">C</text>
<text x="393.13" y="217.61">G</text>
<text x="456.93" y="217.61">Am</text>
<text x="525.53" y="217.61">G</text>
<text x="596.83" y="217.61">Am</text>
<text x="667.03" y="217.61">G</text>
<use x="25.33" y="254.01" xlink:href="#tclef"/>
<use x="40.33" y="230.01" xlink:href="#sh0"/>
<use x="58.33" y="248.01" xlink:href="#hd"/>
<path d="M61.83 248.01v-20.00" stroke="currentColor" fill="none"/>
<path fill="currentColor"
	d="M79.53 261.21l81.30 0.00v-3.20l-81.30 -0.00"/>
<use x="83.43" y="242.01" xlink:href="#hd"/>
<path d="M79.93 242.01v18.20" stroke="currentColor" fill="none"/>
<use x="99.53" y="227.01" xlink:href="#hd"/>
<path d="M96.03 227.01v33.20" stroke="currentColor" fill="none"/>
<use x="115.63" y="227.01" xlink:href="#hd"/>
<path d="M112.13 227.01v33.20" stroke="currentColor" fill="none"/>
<use x="131.73" y="230.01" xlink:href="#hd"/>
<path d="M128.23 230.01v30.20" stroke="currentColor" fill="none"/>
<use x="147.83" y="233.01" xlink:href="#hd"/>
<path d="M144.33 233.01v27.20" stroke="currentColor" fill="none"/>
<use x="164.03" y="236.01" xlink:href="#hd"/>
<path d="M160.53 236.01v24.20" stroke="currentColor" fill="none"/>
<path fill="currentColor"
	d="M187.13 267.21l113.50 0.00v-3.20l-113.50 -0.00"/>
<use x="190.93" y="233.01" xlink:href="#hd"/>
<path d="M187.43 233.01v33.20" stroke="currentColor" fill="none"/>
<use x="207.13" y="236.01" xlink:href="#hd"/>
<path d="M203.63 236.01v30.20" stroke="currentColor" fill="none"/>
<use x="223.23" y="242.01" xlink:href="#hd"/>
<path d="M219.73 242.01v24.20" stroke="currentColor" fill="none"/>
<use x="239.33" y="248.01" xlink:href="#hd"/>
<path d="M235.83 248.01v18.20" stroke="currentColor" fill="none"/>
<use x="255.43" y="248.01" xlink:href="#hd"/>
<path d="M251.93 248.01v18.20" stroke="currentColor" fill="none"/>
<use x="271.53" y="242.01" xlink:href="#hd"/>
<path d="M268.03 242.01v24.20" stroke="currentColor" fill="none"/>
<use x="287.73" y="236.01" xlink:href="#hd"/>
<path d="M284.23 236.01v30.20" stroke="currentColor" fill="none"/>
<use x="303.83" y="242.01" xlink:href="#hd"/>
<path d="M300.33 242.01v24.20" stroke="currentColor" fill="none"/>
<path fill="currentColor"
	d="M326.93 261.21l49.00 -6.70v-3.20l-49.00 6.70"/>
<use x="330.83" y="242.01" xlink:href="#hd"/>
<path d="M327.33 242.01v18.20" stroke="currentColor" fill="none"/>
<use x="346.93" y="239.01" xlink:href="#hd"/>
<path d="M343.43 239.01v19.00" stroke="currentColor" fill="none"/>
<use x="363.03" y="233.01" xlink:href="#hd"/>
<path d="M359.53 233.01v22.80" stroke="currentColor" fill="none"/>
<use x="379.13" y="227.01" xlink:href="#hd"/>
<path d="M375.63 227.01v26.50" stroke="currentColor" fill="none"/>
<use x="396.93" y="242.01" xlink:href="#hd"/>
<path d="M393.43 242.01v20.00" stroke="currentColor" fill="none"/>
<path fill="currentColor"
	d="M417.93 261.31l16.80 -5.50v-3.20l-16.80 5.50"/>
<use x="421.83" y="242.01" xlink:href="#hd"/>
<path d="M418.33 242.01v18.20" stroke="currentColor" fill="none"/>
<use x="437.93" y="227.01" xlink:href="#hd"/>
<path d="M434.43 227.01v28.00" stroke="currentColor" fill="none"/>
<path fill="currentColor"
	d="M461.03 267.21l113.50 0.00v-3.20l-113.50 -0.00"/>
<use x="464.83" y="233.01" xlink:href="#hd"/>
<path d="M461.33 233.01v33.20" stroke="currentColor" fill="none"/>
<use x="481.03" y="245.01" xlink:href="#hd"/>
<path d="M477.53 245.01v21.20" stroke="currentColor" fill="none"/>
<use x="497.13" y="236.01" xlink:href="#hd"/>
<path d="M493.63 236.01v30.20" stroke="currentColor" fill="none"/>
<use x="513.23" y="233.01" xlink:href="#hd"/>
<path d="M509.73 233.01v33.20" stroke="currentColor" fill="none"/>
<use x="529.33" y="236.01" xlink:href="#hd"/>
<path d="M525.83 236.01v30.20" stroke="currentColor" fill="none"/>
<use x="545.53" y="242.01" xlink:href="#hd"/>
<path d="M542.03 242.01v24.20" stroke="currentColor" fill="none"/>
<use x="561.63" y="245.01" xlink:href="#hd"/>
<path d="M558.13 245.01v21.20" stroke="currentColor" fill="none"/>
<use x="577.73" y="248.01" xlink:href="#hd"/>
<path d="M574.23 248.01v18.20" stroke="currentColor" fill="none"/>
<path fill="currentColor"
	d="M607.83 227.01l49.00 0.00v3.20l-49.00 -0.00"/>
<use x="604.73" y="254.01" xlink:href="#hd"/>
<path d="M608.23 254.01v-26.00" stroke="currentColor" fill="none"/>
<use x="620.83" y="245.01" xlink:href="#hd"/>
<path d="M624.33 245.01v-17.00" stroke="currentColor" fill="none"/>
<use x="636.93" y="251.01" xlink:href="#hd"/>
<path d="M640.43 251.01v-23.00" stroke="currentColor" fill="none"/>
<use x="653.03" y="254.01" xlink:href="#hd"/>
<path d="M656.53 254.01v-26.00" stroke="currentColor" fill="none"/>
<use x="670.83" y="257.01" xlink:href="#hd"/>
<circle fill="currentColor" cx="678.83" cy="257.01" r="1.2"/>
<path d="M674.33 257.01v-20.00" stroke="currentColor" fill="none"/>
</g>
</svg>
