<?xml version="1.0" standalone="no"?>
<!DOCTYPE svg PUBLIC "-//W3C//DTD SVG 1.1//EN"
	"http://www.w3.org/Graphics/SVG/1.1/DTD/svg11.dtd">
<svg xmlns="http://www.w3.org/2000/svg" version="1.1"
	xmlns:xlink="http://www.w3.org/1999/xlink"
	xml:space='preserve' color="black"
	width="7.38in" height="2.28in" viewBox="0 0 531 164">
<title>data/results/biggest_11/abc/292.abc (292) tune 1</title>
<!-- Creator: abcm2ps-7.8.14 -->
<!-- CreationDate: Aug  9, 2015 23:50 -->
<!-- CommandLine: -g data/results/biggest_11/abc/292.abc -O /home/allanino/Dropbox/Trabalhos/folkme/svg/292.svg -->
<g transform="scale(0.750)" stroke-width="0.70" font-family="Times" font-size="20.00">
<text x="354.13" y="21.67" text-anchor="middle">Polka F 7-</text>
<path stroke="currentColor" fill="none"
	d="M180.83 106.01v-24.00"/>
<path stroke="currentColor" fill="none"
	d="M312.13 106.01v-24.00"/>
<path stroke="currentColor" fill="none"
	d="M443.43 106.01v-24.00"/>
<path stroke="currentColor" fill="none"
	d="M563.63 106.01v-24.00"/>
<path stroke="currentColor" fill="none"
	d="M694.93 106.01v-24.00"/>
<path stroke="currentColor" fill="none"
	d="M13.33 106.01h681.60m-681.60 -6h681.60m-681.60 -6h681.60m-681.60 -6h681.60m-681.60 -6h681.60"/>
</g>
<g transform="scale(0.750)" stroke-width="0.70" font-family="Helvetica" font-size="12.00">
<text x="71.43" y="62.61">F</text>
<text x="451.03" y="62.61">C7</text>
<text x="634.23" y="62.61">F</text>
<defs>
<path id="utclef" fill="currentColor" d="m-50 -90
	c-72 -41 -72 -158 52 -188
	c150 -10 220 188 90 256
	c-114 52 -275 0 -293 -136
	c-15 -181 93 -229 220 -334
	c88 -87 79 -133 62 -210
	c-51 33 -94 105 -89 186
	c17 267 36 374 49 574
	c6 96 -19 134 -77 135
	c-80 1 -126 -93 -61 -133
	c85 -41 133 101 31 105
	c23 17 92 37 90 -92
	c-10 -223 -39 -342 -50 -617
	c0 -90 0 -162 96 -232
	c56 72 63 230 22 289
	c-74 106 -257 168 -255 316
	c9 153 148 185 252 133
	c86 -65 29 -192 -80 -176
	c-71 12 -105 67 -59 124"/>
<use id="tclef" transform="scale(0.045)"
	xlink:href="#utclef"/>
</defs>
<use x="25.33" y="106.01" xlink:href="#tclef"/>
<defs>
<path id="uflat" fill="currentColor" d="
	m100 -746
	h32
	v734
	l-32 4
	m32 -332
	c46 -72 152 -90 208 -20
	c100 110 -120 326 -208 348
	m0 -28
	c54 0 200 -206 130 -290
	c-50 -60 -130 -4 -130 34"/>
<use id="ft0" transform="translate(-3.5,3.5) scale(0.018)"
	xlink:href="#uflat"/>
</defs>
<use x="40.33" y="94.01" xlink:href="#ft0"/>
<g font-family="serif" font-size="16" font-weight="bold" font-style="normal"
	transform="translate(56.33,106.01) scale(1.2,1)">
	<text y="-1" text-anchor="middle">4</text>
	<text y="-13" text-anchor="middle">2</text>
</g>
<path fill="currentColor"
	d="M77.53 74.01l85.20 0.00v3.20l-85.20 -0.00"/>
<path fill="currentColor"
	d="M127.33 79.01l17.50 0.00v3.20l-17.50 -0.00"/>
<defs>
<path id="hl" stroke="currentColor" d="m-6 0h12"/>
</defs>
<use x="74.33" y="112.01" xlink:href="#hl"/>
<defs>
<ellipse id="hd" rx="4.1" ry="2.9"
	transform="rotate(-20)" fill="currentColor"/>
</defs>
<use x="74.33" y="112.01" xlink:href="#hd"/>
<path d="M77.83 112.01v-37.00" stroke="currentColor" fill="none"/>
<use x="99.03" y="112.01" xlink:href="#hl"/>
<use x="99.03" y="112.01" xlink:href="#hd"/>
<path d="M102.53 112.01v-37.00" stroke="currentColor" fill="none"/>
<use x="123.83" y="97.01" xlink:href="#hd"/>
<path d="M127.33 97.01v-22.00" stroke="currentColor" fill="none"/>
<use x="141.33" y="112.01" xlink:href="#hl"/>
<use x="141.33" y="112.01" xlink:href="#hd"/>
<path d="M144.83 112.01v-37.00" stroke="currentColor" fill="none"/>
<use x="158.83" y="112.01" xlink:href="#hl"/>
<use x="158.83" y="112.01" xlink:href="#hd"/>
<path d="M162.33 112.01v-37.00" stroke="currentColor" fill="none"/>
<path fill="currentColor"
	d="M197.73 74.01l102.60 0.00v3.20l-102.60 -0.00"/>
<path fill="currentColor"
	d="M247.53 79.01l52.50 0.00v3.20l-52.50 -0.00"/>
<use x="194.53" y="97.01" xlink:href="#hd"/>
<path d="M198.03 97.01v-22.00" stroke="currentColor" fill="none"/>
<use x="219.33" y="112.01" xlink:href="#hl"/>
<use x="219.33" y="112.01" xlink:href="#hd"/>
<path d="M222.83 112.01v-37.00" stroke="currentColor" fill="none"/>
<use x="244.03" y="109.01" xlink:href="#hd"/>
<path d="M247.53 109.01v-34.00" stroke="currentColor" fill="none"/>
<use x="261.53" y="103.01" xlink:href="#hd"/>
<path d="M265.03 103.01v-28.00" stroke="currentColor" fill="none"/>
<use x="279.03" y="112.01" xlink:href="#hl"/>
<use x="279.03" y="112.01" xlink:href="#hd"/>
<path d="M282.53 112.01v-37.00" stroke="currentColor" fill="none"/>
<use x="296.53" y="97.01" xlink:href="#hd"/>
<path d="M300.03 97.01v-22.00" stroke="currentColor" fill="none"/>
<path fill="currentColor"
	d="M329.03 78.41l102.60 -9.60v3.20l-102.60 9.60"/>
<path fill="currentColor"
	d="M378.83 78.71l52.50 -4.90v3.20l-52.50 4.90"/>
<use x="325.83" y="112.01" xlink:href="#hl"/>
<use x="325.83" y="112.01" xlink:href="#hd"/>
<path d="M329.33 112.01v-32.60" stroke="currentColor" fill="none"/>
<use x="350.63" y="109.01" xlink:href="#hd"/>
<path d="M354.13 109.01v-32.00" stroke="currentColor" fill="none"/>
<use x="375.33" y="112.01" xlink:href="#hl"/>
<use x="375.33" y="112.01" xlink:href="#hd"/>
<path d="M378.83 112.01v-37.30" stroke="currentColor" fill="none"/>
<use x="392.83" y="112.01" xlink:href="#hl"/>
<use x="392.83" y="112.01" xlink:href="#hd"/>
<path d="M396.33 112.01v-38.90" stroke="currentColor" fill="none"/>
<use x="410.33" y="97.01" xlink:href="#hd"/>
<path d="M413.83 97.01v-25.60" stroke="currentColor" fill="none"/>
<use x="427.83" y="91.01" xlink:href="#hd"/>
<path d="M431.33 91.01v-21.20" stroke="currentColor" fill="none"/>
<path fill="currentColor"
	d="M460.33 71.81l85.10 7.90v3.20l-85.10 -7.90"/>
<path fill="currentColor"
	d="M485.43 79.11l17.50 1.60v3.20l-17.50 -1.60"/>
<use x="457.13" y="91.01" xlink:href="#hd"/>
<path d="M460.63 91.01v-18.20" stroke="currentColor" fill="none"/>
<use x="481.93" y="112.01" xlink:href="#hl"/>
<use x="481.93" y="112.01" xlink:href="#hd"/>
<path d="M485.43 112.01v-36.90" stroke="currentColor" fill="none"/>
<use x="499.43" y="112.01" xlink:href="#hl"/>
<use x="499.43" y="112.01" xlink:href="#hd"/>
<path d="M502.93 112.01v-35.30" stroke="currentColor" fill="none"/>
<use x="516.93" y="106.01" xlink:href="#hd"/>
<path d="M520.43 106.01v-27.60" stroke="currentColor" fill="none"/>
<use x="541.63" y="112.01" xlink:href="#hl"/>
<use x="541.63" y="112.01" xlink:href="#hd"/>
<path d="M545.13 112.01v-31.30" stroke="currentColor" fill="none"/>
<path fill="currentColor"
	d="M580.53 79.11l102.60 -10.30v3.20l-102.60 10.30"/>
<path fill="currentColor"
	d="M580.93 84.01l17.50 -1.80v3.20l-17.50 1.80"/>
<path fill="currentColor"
	d="M665.33 75.61l17.50 -1.80v3.20l-17.50 1.80"/>
<use x="577.43" y="112.01" xlink:href="#hl"/>
<use x="577.43" y="112.01" xlink:href="#hd"/>
<path d="M580.93 112.01v-32.00" stroke="currentColor" fill="none"/>
<use x="594.93" y="112.01" xlink:href="#hl"/>
<use x="594.93" y="112.01" xlink:href="#hd"/>
<path d="M598.43 112.01v-33.70" stroke="currentColor" fill="none"/>
<use x="612.43" y="106.01" xlink:href="#hd"/>
<path d="M615.93 106.01v-29.50" stroke="currentColor" fill="none"/>
<use x="637.13" y="103.01" xlink:href="#hd"/>
<path d="M640.63 103.01v-29.00" stroke="currentColor" fill="none"/>
<use x="661.83" y="97.01" xlink:href="#hd"/>
<path d="M665.33 97.01v-25.40" stroke="currentColor" fill="none"/>
<use x="679.33" y="91.01" xlink:href="#hd"/>
<path d="M682.83 91.01v-21.20" stroke="currentColor" fill="none"/>
<path stroke="currentColor" fill="none"
	d="M116.43 196.01v-24.00"/>
<path stroke="currentColor" fill="none"
	d="M234.33 196.01v-24.00"/>
<path stroke="currentColor" fill="none"
	d="M304.93 196.01v-24.00"/>
<path stroke="currentColor" fill="none"
	d="M417.53 196.01v-24.00"/>
<path stroke="currentColor" fill="none"
	d="M505.73 196.01v-24.00"/>
<path stroke="currentColor" fill="none"
	d="M601.83 196.01v-24.00"/>
<path stroke="currentColor" fill="none" stroke-width="3"
	d="M693.43 196.01v-24.00"/>
<path stroke="currentColor" fill="none"
	d="M688.93 196.01v-24.00"/>
<defs>
<g id="rdots" fill="currentColor">
	<circle cx="0" cy="-9" r="1.2"/>
	<circle cx="0" cy="-15" r="1.2"/>
</g>
</defs>
<use x="684.93" y="196.01" xlink:href="#rdots"/>
<path stroke="currentColor" fill="none"
	d="M13.33 196.01h681.60m-681.60 -6h681.60m-681.60 -6h681.60m-681.60 -6h681.60m-681.60 -6h681.60"/>
<text x="122.73" y="140.61">C7</text>
<text x="181.93" y="140.61">F</text>
<text x="309.53" y="140.61">Gm</text>
<text x="362.53" y="140.61">F7</text>
<text x="424.13" y="140.61">B♭</text>
<text x="512.03" y="140.61">C7</text>
<text x="611.43" y="140.61">F</text>
<use x="25.33" y="196.01" xlink:href="#tclef"/>
<use x="40.33" y="184.01" xlink:href="#ft0"/>
<path fill="currentColor"
	d="M54.53 193.01l18.10 0.00v-3.20l-18.10 -0.00"/>
<use x="58.33" y="172.01" xlink:href="#hd"/>
<path d="M54.83 172.01v20.00" stroke="currentColor" fill="none"/>
<use x="75.73" y="172.01" xlink:href="#hd"/>
<path d="M72.23 172.01v20.00" stroke="currentColor" fill="none"/>
<use x="94.83" y="181.01" xlink:href="#hd"/>
<path d="M91.33 181.01v20.00" stroke="currentColor" fill="none"/>
<path fill="currentColor"
	d="M132.13 159.81l94.60 0.00v3.20l-94.60 -0.00"/>
<path fill="currentColor"
	d="M132.43 164.81l93.90 0.00v3.20l-93.90 -0.00"/>
<use x="128.93" y="184.01" xlink:href="#hd"/>
<path d="M132.43 184.01v-23.20" stroke="currentColor" fill="none"/>
<use x="141.63" y="187.01" xlink:href="#hd"/>
<path d="M145.13 187.01v-26.20" stroke="currentColor" fill="none"/>
<use x="154.23" y="190.01" xlink:href="#hd"/>
<path d="M157.73 190.01v-29.20" stroke="currentColor" fill="none"/>
<use x="172.23" y="193.01" xlink:href="#hd"/>
<defs>
<path id="usharp" fill="currentColor" d="
	m136 -702
	v890
	h32
	v-890
	m128 840
	h32
	v-888
	h-32
	m-232 286
	v116
	l338 -96
	v-116
	m-338 442
	v116
	l338 -98
	v-114"/>
<use id="sh0" transform="translate(-4,5) scale(0.018)"
	xlink:href="#usharp"/>
</defs>
<use x="163.23" y="193.01" xlink:href="#sh0"/>
<path d="M175.73 193.01v-32.20" stroke="currentColor" fill="none"/>
<use x="184.93" y="193.01" xlink:href="#hd"/>
<path d="M188.43 193.01v-32.20" stroke="currentColor" fill="none"/>
<use x="197.53" y="196.01" xlink:href="#hd"/>
<path d="M201.03 196.01v-35.20" stroke="currentColor" fill="none"/>
<use x="210.23" y="193.01" xlink:href="#hd"/>
<path d="M213.73 193.01v-32.20" stroke="currentColor" fill="none"/>
<use x="222.83" y="190.01" xlink:href="#hd"/>
<path d="M226.33 190.01v-29.20" stroke="currentColor" fill="none"/>
<path fill="currentColor"
	d="M250.03 167.71l18.10 3.70v3.20l-18.10 -3.70"/>
<use x="246.83" y="187.01" xlink:href="#hd"/>
<path d="M250.33 187.01v-18.20" stroke="currentColor" fill="none"/>
<use x="264.23" y="193.01" xlink:href="#hd"/>
<path d="M267.73 193.01v-20.70" stroke="currentColor" fill="none"/>
<use x="283.33" y="193.01" xlink:href="#hd"/>
<path d="M286.83 193.01v-20.00" stroke="currentColor" fill="none"/>
<path fill="currentColor"
	d="M320.63 155.81l89.30 0.00v3.20l-89.30 -0.00"/>
<path fill="currentColor"
	d="M320.93 160.81l88.60 0.00v3.20l-88.60 -0.00"/>
<use x="317.43" y="178.01" xlink:href="#hd"/>
<path d="M320.93 178.01v-21.20" stroke="currentColor" fill="none"/>
<use x="330.13" y="181.01" xlink:href="#hd"/>
<path d="M333.63 181.01v-24.20" stroke="currentColor" fill="none"/>
<use x="342.73" y="184.01" xlink:href="#hd"/>
<path d="M346.23 184.01v-27.20" stroke="currentColor" fill="none"/>
<use x="355.43" y="187.01" xlink:href="#hd"/>
<path d="M358.93 187.01v-30.20" stroke="currentColor" fill="none"/>
<use x="368.03" y="190.01" xlink:href="#hd"/>
<path d="M371.53 190.01v-33.20" stroke="currentColor" fill="none"/>
<use x="380.73" y="184.01" xlink:href="#hd"/>
<path d="M384.23 184.01v-27.20" stroke="currentColor" fill="none"/>
<use x="393.33" y="193.01" xlink:href="#hd"/>
<path d="M396.83 193.01v-36.20" stroke="currentColor" fill="none"/>
<use x="406.03" y="178.01" xlink:href="#hd"/>
<path d="M409.53 178.01v-21.20" stroke="currentColor" fill="none"/>
<path fill="currentColor"
	d="M433.13 158.81l60.70 0.00v3.20l-60.70 -0.00"/>
<path fill="currentColor"
	d="M433.53 163.81l12.70 0.00v3.20l-12.70 -0.00"/>
<use x="430.03" y="184.01" xlink:href="#hd"/>
<path d="M433.53 184.01v-24.20" stroke="currentColor" fill="none"/>
<use x="442.63" y="199.01" xlink:href="#hd"/>
<path d="M446.13 199.01v-39.20" stroke="currentColor" fill="none"/>
<use x="455.33" y="193.01" xlink:href="#hd"/>
<path d="M458.83 193.01v-33.20" stroke="currentColor" fill="none"/>
<use x="472.73" y="178.01" xlink:href="#hd"/>
<path d="M476.23 178.01v-18.20" stroke="currentColor" fill="none"/>
<use x="490.03" y="193.01" xlink:href="#hd"/>
<path d="M493.53 193.01v-33.20" stroke="currentColor" fill="none"/>
<path fill="currentColor"
	d="M521.33 159.31l68.70 -6.20v3.20l-68.70 6.20"/>
<path fill="currentColor"
	d="M521.73 164.21l38.00 -3.40v3.20l-38.00 3.40"/>
<use x="518.23" y="196.01" xlink:href="#hd"/>
<path d="M521.73 196.01v-35.80" stroke="currentColor" fill="none"/>
<use x="530.83" y="190.01" xlink:href="#hd"/>
<path d="M534.33 190.01v-30.90" stroke="currentColor" fill="none"/>
<use x="543.53" y="184.01" xlink:href="#hd"/>
<path d="M547.03 184.01v-26.10" stroke="currentColor" fill="none"/>
<use x="556.23" y="178.01" xlink:href="#hd"/>
<path d="M559.73 178.01v-21.20" stroke="currentColor" fill="none"/>
<use x="568.83" y="181.01" xlink:href="#hd"/>
<path d="M572.33 181.01v-25.30" stroke="currentColor" fill="none"/>
<use x="586.23" y="184.01" xlink:href="#hd"/>
<path d="M589.73 184.01v-29.90" stroke="currentColor" fill="none"/>
<path fill="currentColor"
	d="M617.53 149.81l43.40 0.00v3.20l-43.40 -0.00"/>
<path fill="currentColor"
	d="M617.83 154.81l12.70 0.00v3.20l-12.70 -0.00"/>
<use x="614.33" y="193.01" xlink:href="#hd"/>
<path d="M617.83 193.01v-42.20" stroke="currentColor" fill="none"/>
<use x="627.03" y="172.01" xlink:href="#hd"/>
<path d="M630.53 172.01v-21.20" stroke="currentColor" fill="none"/>
<use x="639.73" y="181.01" xlink:href="#hd"/>
<path d="M643.23 181.01v-30.20" stroke="currentColor" fill="none"/>
<use x="657.03" y="193.01" xlink:href="#hd"/>
<path d="M660.53 193.01v-42.20" stroke="currentColor" fill="none"/>
<defs>
<path id="r8e" fill="currentColor" d="m 0 0
	c-1.5 1.5 -2.4 2 -3.6 2
	c2.4 -2.8 -2.8 -4 -2.8 -1.2
	c0 2.7 4.3 2.4 5.9 0.6"/>
<g id="r8">
	<path d="m3.3 -4l-3.4 9.6" stroke="currentColor" fill="none"/>
	<use x="3.4" y="-4" xlink:href="#r8e"/>
</g>
</defs>
<use x="674.43" y="184.01" xlink:href="#r8"/>
</g>
</svg>
