<?xml version="1.0" standalone="no"?>
<!DOCTYPE svg PUBLIC "-//W3C//DTD SVG 1.1//EN"
	"http://www.w3.org/Graphics/SVG/1.1/DTD/svg11.dtd">
<svg xmlns="http://www.w3.org/2000/svg" version="1.1"
	xmlns:xlink="http://www.w3.org/1999/xlink"
	xml:space='preserve' color="black"
	width="7.38in" height="1.79in" viewBox="0 0 531 129">
<title>data/results/biggest_11/abc/293.abc (293) tune 1</title>
<!-- Creator: abcm2ps-7.8.14 -->
<!-- CreationDate: Aug  9, 2015 23:50 -->
<!-- CommandLine: -g data/results/biggest_11/abc/293.abc -O /home/allanino/Dropbox/Trabalhos/folkme/svg/293.svg -->
<g transform="scale(0.750)" stroke-width="0.70" font-family="Times" font-size="20.00">
<text x="354.13" y="21.67" text-anchor="middle">Recouracacry Ye Watz C</text>
</g>
<g transform="scale(0.750)" stroke-width="0.70" font-family="Times" font-size="16.00">
<text x="354.13" y="41.30" text-anchor="middle">Hanny Christen. Bd.VIII Zug, Luzern, Uri I. S.168f (wz09107) orig. C,F-Dur</text>
<text x="354.13" y="60.13" text-anchor="middle">Tänze aus Vitznau (Luzern)</text>
<path stroke="currentColor" fill="none"
	d="M151.43 144.67v-24.00"/>
<path stroke="currentColor" fill="none"
	d="M224.23 144.67v-24.00"/>
<path stroke="currentColor" fill="none"
	d="M306.13 144.67v-24.00"/>
<path stroke="currentColor" fill="none"
	d="M378.93 144.67v-24.00"/>
<path stroke="currentColor" fill="none"
	d="M472.03 144.67v-24.00"/>
<path stroke="currentColor" fill="none"
	d="M547.63 144.67v-24.00"/>
<path stroke="currentColor" fill="none"
	d="M625.13 144.67v-24.00"/>
<path stroke="currentColor" fill="none" stroke-width="3"
	d="M693.43 144.67v-24.00"/>
<path stroke="currentColor" fill="none"
	d="M688.93 144.67v-24.00"/>
<defs>
<g id="rdots" fill="currentColor">
	<circle cx="0" cy="-9" r="1.2"/>
	<circle cx="0" cy="-15" r="1.2"/>
</g>
</defs>
<use x="684.93" y="144.67" xlink:href="#rdots"/>
<path stroke="currentColor" fill="none"
	d="M13.33 144.67h681.60m-681.60 -6h681.60m-681.60 -6h681.60m-681.60 -6h681.60m-681.60 -6h681.60"/>
</g>
<g transform="scale(0.750)" stroke-width="0.70" font-family="Helvetica" font-size="12.00">
<text x="74.23" y="100.27">E♭</text>
<text x="102.93" y="165.27">?</text>
<text x="155.93" y="100.27">B♭7</text>
<text x="313.03" y="100.27">E♭</text>
<text x="477.53" y="100.27">Fm</text>
<text x="552.13" y="100.27">B♭7</text>
<text x="632.13" y="100.27">E♭</text>
<defs>
<path id="utclef" fill="currentColor" d="m-50 -90
	c-72 -41 -72 -158 52 -188
	c150 -10 220 188 90 256
	c-114 52 -275 0 -293 -136
	c-15 -181 93 -229 220 -334
	c88 -87 79 -133 62 -210
	c-51 33 -94 105 -89 186
	c17 267 36 374 49 574
	c6 96 -19 134 -77 135
	c-80 1 -126 -93 -61 -133
	c85 -41 133 101 31 105
	c23 17 92 37 90 -92
	c-10 -223 -39 -342 -50 -617
	c0 -90 0 -162 96 -232
	c56 72 63 230 22 289
	c-74 106 -257 168 -255 316
	c9 153 148 185 252 133
	c86 -65 29 -192 -80 -176
	c-71 12 -105 67 -59 124"/>
<use id="tclef" transform="scale(0.045)"
	xlink:href="#utclef"/>
</defs>
<use x="25.33" y="144.67" xlink:href="#tclef"/>
<defs>
<path id="uflat" fill="currentColor" d="
	m100 -746
	h32
	v734
	l-32 4
	m32 -332
	c46 -72 152 -90 208 -20
	c100 110 -120 326 -208 348
	m0 -28
	c54 0 200 -206 130 -290
	c-50 -60 -130 -4 -130 34"/>
<use id="ft0" transform="translate(-3.5,3.5) scale(0.018)"
	xlink:href="#uflat"/>
</defs>
<use x="40.33" y="132.67" xlink:href="#ft0"/>
<use x="45.83" y="123.67" xlink:href="#ft0"/>
<g font-family="serif" font-size="16" font-weight="bold" font-style="normal"
	transform="translate(61.83,144.67) scale(1.2,1)">
	<text y="-1" text-anchor="middle">4</text>
	<text y="-13" text-anchor="middle">3</text>
</g>
<path fill="currentColor"
	d="M76.03 151.87l38.80 0.00v-3.20l-38.80 -0.00"/>
<defs>
<ellipse id="hd" rx="4.1" ry="2.9"
	transform="rotate(-20)" fill="currentColor"/>
</defs>
<use x="79.83" y="123.67" xlink:href="#hd"/>
<path d="M76.33 123.67v27.20" stroke="currentColor" fill="none"/>
<use x="92.53" y="123.67" xlink:href="#hd"/>
<path d="M89.03 123.67v27.20" stroke="currentColor" fill="none"/>
<use x="105.23" y="132.67" xlink:href="#hd"/>
<path d="M101.73 132.67v18.20" stroke="currentColor" fill="none"/>
<use x="117.93" y="123.67" xlink:href="#hd"/>
<path d="M114.43 123.67v27.20" stroke="currentColor" fill="none"/>
<use x="135.93" y="123.67" xlink:href="#hd"/>
<defs>
<path id="unat" fill="currentColor" d="
	m96 -750
	h-32
	v716
	l32 -8
	l182 -54
	v282
	h32
	v-706
	l-34 10
	l-180 50
	v-290
	m0 592
	v-190
	l182 -52
	v188"/>
<use id="nt0" transform="translate(-3,5) scale(0.018)"
	xlink:href="#unat"/>
</defs>
<use x="126.93" y="123.67" xlink:href="#nt0"/>
<path d="M132.43 123.67v20.00" stroke="currentColor" fill="none"/>
<path fill="currentColor"
	d="M160.03 142.67l13.40 3.30v-3.20l-13.40 -3.30"/>
<use x="163.93" y="120.67" xlink:href="#hd"/>
<path d="M160.43 120.67v21.10" stroke="currentColor" fill="none"/>
<use x="176.63" y="126.67" xlink:href="#hd"/>
<path d="M173.13 126.67v18.20" stroke="currentColor" fill="none"/>
<use x="190.43" y="126.67" xlink:href="#hd"/>
<path d="M186.93 126.67v20.00" stroke="currentColor" fill="none"/>
<use x="208.83" y="126.67" xlink:href="#hd"/>
<path d="M205.33 126.67v20.00" stroke="currentColor" fill="none"/>
<path fill="currentColor"
	d="M232.93 151.97l13.40 -3.30v-3.20l-13.40 3.30"/>
<use x="236.73" y="132.67" xlink:href="#hd"/>
<path d="M233.23 132.67v18.20" stroke="currentColor" fill="none"/>
<use x="249.43" y="126.67" xlink:href="#hd"/>
<path d="M245.93 126.67v21.10" stroke="currentColor" fill="none"/>
<use x="263.23" y="120.67" xlink:href="#hd"/>
<path d="M259.73 120.67v20.00" stroke="currentColor" fill="none"/>
<path fill="currentColor"
	d="M277.83 144.07l13.40 2.10v-3.20l-13.40 -2.10"/>
<use x="281.63" y="123.67" xlink:href="#hd"/>
<path d="M278.13 123.67v19.50" stroke="currentColor" fill="none"/>
<use x="294.33" y="126.67" xlink:href="#hd"/>
<path d="M290.83 126.67v18.50" stroke="currentColor" fill="none"/>
<path fill="currentColor"
	d="M314.73 144.87l13.40 0.00v-3.20l-13.40 -0.00"/>
<use x="318.63" y="123.67" xlink:href="#hd"/>
<path d="M315.13 123.67v20.20" stroke="currentColor" fill="none"/>
<use x="331.33" y="123.67" xlink:href="#hd"/>
<path d="M327.83 123.67v20.20" stroke="currentColor" fill="none"/>
<use x="345.13" y="123.67" xlink:href="#hd"/>
<path d="M341.63 123.67v20.00" stroke="currentColor" fill="none"/>
<use x="363.53" y="123.67" xlink:href="#hd"/>
<path d="M360.03 123.67v20.00" stroke="currentColor" fill="none"/>
<path fill="currentColor"
	d="M387.63 151.87l69.50 -6.10v-3.20l-69.50 6.10"/>
<use x="391.43" y="132.67" xlink:href="#hd"/>
<path d="M387.93 132.67v18.20" stroke="currentColor" fill="none"/>
<use x="404.13" y="117.67" xlink:href="#hd"/>
<path d="M400.63 117.67v32.10" stroke="currentColor" fill="none"/>
<use x="422.13" y="120.67" xlink:href="#hd"/>
<defs>
<path id="usharp" fill="currentColor" d="
	m136 -702
	v890
	h32
	v-890
	m128 840
	h32
	v-888
	h-32
	m-232 286
	v116
	l338 -96
	v-116
	m-338 442
	v116
	l338 -98
	v-114"/>
<use id="sh0" transform="translate(-4,5) scale(0.018)"
	xlink:href="#usharp"/>
</defs>
<use x="413.13" y="120.67" xlink:href="#sh0"/>
<path d="M418.63 120.67v27.50" stroke="currentColor" fill="none"/>
<use x="434.93" y="117.67" xlink:href="#hd"/>
<path d="M431.43 117.67v29.40" stroke="currentColor" fill="none"/>
<defs>
<path id="hl" stroke="currentColor" d="m-6 0h12"/>
</defs>
<use x="447.63" y="114.67" xlink:href="#hl"/>
<use x="447.63" y="114.67" xlink:href="#hd"/>
<path d="M444.13 114.67v31.30" stroke="currentColor" fill="none"/>
<use x="460.33" y="117.67" xlink:href="#hd"/>
<path d="M456.83 117.67v27.10" stroke="currentColor" fill="none"/>
<path fill="currentColor"
	d="M480.73 150.27l13.40 4.70v-3.20l-13.40 -4.70"/>
<use x="484.53" y="120.67" xlink:href="#hd"/>
<path d="M481.03 120.67v28.70" stroke="currentColor" fill="none"/>
<use x="497.33" y="135.67" xlink:href="#hd"/>
<path d="M493.83 135.67v18.20" stroke="currentColor" fill="none"/>
<use x="511.13" y="129.67" xlink:href="#hd"/>
<path d="M507.63 129.67v20.00" stroke="currentColor" fill="none"/>
<use x="532.23" y="120.67" xlink:href="#hd"/>
<use x="523.23" y="120.67" xlink:href="#sh0"/>
<path d="M528.73 120.67v20.00" stroke="currentColor" fill="none"/>
<path fill="currentColor"
	d="M556.33 132.87l13.90 1.60v-3.20l-13.90 -1.60"/>
<use x="560.13" y="114.67" xlink:href="#hl"/>
<use x="560.13" y="111.67" xlink:href="#hd"/>
<path d="M556.63 111.67v20.20" stroke="currentColor" fill="none"/>
<use x="573.33" y="114.67" xlink:href="#hl"/>
<use x="573.33" y="114.67" xlink:href="#hd"/>
<path d="M569.83 114.67v18.80" stroke="currentColor" fill="none"/>
<use x="591.33" y="120.67" xlink:href="#hd"/>
<use x="582.33" y="120.67" xlink:href="#sh0"/>
<path d="M587.83 120.67v20.00" stroke="currentColor" fill="none"/>
<use x="609.73" y="114.67" xlink:href="#hl"/>
<use x="609.73" y="114.67" xlink:href="#hd"/>
<path d="M606.23 114.67v20.00" stroke="currentColor" fill="none"/>
<use x="637.63" y="123.67" xlink:href="#hd"/>
<path d="M634.13 123.67v20.00" stroke="currentColor" fill="none"/>
<defs>
<path id="r4" fill="currentColor" d="m-1 -8.5
	l3.6 5.1 -2.1 5.2 2.2 4.3
	c-2.6 -2.3 -5.1 0 -2.4 2.6
	c-4.8 -3 -1.5 -6.9 1.4 -4.1
	l-3.1 -4.5 1.9 -5.1 -1.5 -3.5"/>
</defs>
<use x="656.03" y="132.67" xlink:href="#r4"/>
<use x="674.43" y="132.67" xlink:href="#r4"/>
</g>
</svg>
