<?xml version="1.0" standalone="no"?>
<!DOCTYPE svg PUBLIC "-//W3C//DTD SVG 1.1//EN"
	"http://www.w3.org/Graphics/SVG/1.1/DTD/svg11.dtd">
<svg xmlns="http://www.w3.org/2000/svg" version="1.1"
	xmlns:xlink="http://www.w3.org/1999/xlink"
	xml:space='preserve' color="black"
	width="7.38in" height="1.39in" viewBox="0 0 531 100">
<title>data/results/biggest_11/abc/294.abc (294) tune 1</title>
<!-- Creator: abcm2ps-7.8.14 -->
<!-- CreationDate: Aug  9, 2015 23:50 -->
<!-- CommandLine: -g data/results/biggest_11/abc/294.abc -O /home/allanino/Dropbox/Trabalhos/folkme/svg/294.svg -->
<g transform="scale(0.750)" stroke-width="0.70" font-family="Times" font-size="20.00">
<text x="354.13" y="21.67" text-anchor="middle">En-Polka FCBb chords</text>
<path stroke="currentColor" fill="none"
	d="M139.63 110.01v-24.00"/>
<path stroke="currentColor" fill="none"
	d="M232.63 110.01v-24.00"/>
<path stroke="currentColor" fill="none"
	d="M303.03 110.01v-24.00"/>
<path stroke="currentColor" fill="none"
	d="M380.83 110.01v-24.00"/>
<path stroke="currentColor" fill="none"
	d="M467.03 110.01v-24.00"/>
<path stroke="currentColor" fill="none"
	d="M537.93 110.01v-24.00"/>
<path stroke="currentColor" fill="none"
	d="M623.53 110.01v-24.00"/>
<path stroke="currentColor" fill="none" stroke-width="3"
	d="M693.43 110.01v-24.00"/>
<path stroke="currentColor" fill="none"
	d="M688.93 110.01v-24.00"/>
<defs>
<g id="rdots" fill="currentColor">
	<circle cx="0" cy="-9" r="1.2"/>
	<circle cx="0" cy="-15" r="1.2"/>
</g>
</defs>
<use x="684.93" y="110.01" xlink:href="#rdots"/>
<path stroke="currentColor" fill="none"
	d="M13.33 110.01h681.60m-681.60 -6h681.60m-681.60 -6h681.60m-681.60 -6h681.60m-681.60 -6h681.60"/>
</g>
<g transform="scale(0.750)" stroke-width="0.70" font-family="Helvetica" font-size="12.00">
<text x="71.43" y="62.61">F</text>
<text x="144.23" y="62.61">Gm</text>
<text x="239.03" y="62.61">C7</text>
<text x="312.53" y="62.61">F</text>
<text x="473.33" y="62.61">C7</text>
<text x="633.13" y="62.61">F</text>
<defs>
<path id="utclef" fill="currentColor" d="m-50 -90
	c-72 -41 -72 -158 52 -188
	c150 -10 220 188 90 256
	c-114 52 -275 0 -293 -136
	c-15 -181 93 -229 220 -334
	c88 -87 79 -133 62 -210
	c-51 33 -94 105 -89 186
	c17 267 36 374 49 574
	c6 96 -19 134 -77 135
	c-80 1 -126 -93 -61 -133
	c85 -41 133 101 31 105
	c23 17 92 37 90 -92
	c-10 -223 -39 -342 -50 -617
	c0 -90 0 -162 96 -232
	c56 72 63 230 22 289
	c-74 106 -257 168 -255 316
	c9 153 148 185 252 133
	c86 -65 29 -192 -80 -176
	c-71 12 -105 67 -59 124"/>
<use id="tclef" transform="scale(0.045)"
	xlink:href="#utclef"/>
</defs>
<use x="25.33" y="110.01" xlink:href="#tclef"/>
<defs>
<path id="uflat" fill="currentColor" d="
	m100 -746
	h32
	v734
	l-32 4
	m32 -332
	c46 -72 152 -90 208 -20
	c100 110 -120 326 -208 348
	m0 -28
	c54 0 200 -206 130 -290
	c-50 -60 -130 -4 -130 34"/>
<use id="ft0" transform="translate(-3.5,3.5) scale(0.018)"
	xlink:href="#uflat"/>
</defs>
<use x="40.33" y="98.01" xlink:href="#ft0"/>
<g font-family="serif" font-size="16" font-weight="bold" font-style="normal"
	transform="translate(56.33,110.01) scale(1.2,1)">
	<text y="-1" text-anchor="middle">4</text>
	<text y="-13" text-anchor="middle">2</text>
</g>
<path fill="currentColor"
	d="M70.53 129.31l54.00 -9.80v-3.20l-54.00 9.80"/>
<path fill="currentColor"
	d="M70.83 124.21l30.40 -5.50v-3.20l-30.40 5.50"/>
<defs>
<ellipse id="hd" rx="4.1" ry="2.9"
	transform="rotate(-20)" fill="currentColor"/>
</defs>
<use x="74.33" y="107.01" xlink:href="#hd"/>
<path d="M70.83 107.01v21.20" stroke="currentColor" fill="none"/>
<use x="84.43" y="101.01" xlink:href="#hd"/>
<path d="M80.93 101.01v25.40" stroke="currentColor" fill="none"/>
<use x="94.63" y="95.01" xlink:href="#hd"/>
<path d="M91.13 95.01v29.50" stroke="currentColor" fill="none"/>
<defs>
<path id="hl" stroke="currentColor" d="m-6 0h12"/>
</defs>
<use x="104.73" y="80.01" xlink:href="#hl"/>
<use x="104.73" y="80.01" xlink:href="#hd"/>
<path d="M101.23 80.01v42.70" stroke="currentColor" fill="none"/>
<use x="114.83" y="83.01" xlink:href="#hd"/>
<path d="M111.33 83.01v37.80" stroke="currentColor" fill="none"/>
<use x="127.63" y="86.01" xlink:href="#hd"/>
<path d="M124.13 86.01v32.50" stroke="currentColor" fill="none"/>
<path fill="currentColor"
	d="M148.33 123.21l71.60 0.00v-3.20l-71.60 -0.00"/>
<path fill="currentColor"
	d="M148.63 118.21l70.90 0.00v-3.20l-70.90 -0.00"/>
<use x="152.13" y="89.01" xlink:href="#hd"/>
<path d="M148.63 89.01v33.20" stroke="currentColor" fill="none"/>
<use x="162.23" y="98.01" xlink:href="#hd"/>
<path d="M158.73 98.01v24.20" stroke="currentColor" fill="none"/>
<use x="172.43" y="98.01" xlink:href="#hd"/>
<path d="M168.93 98.01v24.20" stroke="currentColor" fill="none"/>
<use x="182.53" y="101.01" xlink:href="#hd"/>
<path d="M179.03 101.01v21.20" stroke="currentColor" fill="none"/>
<use x="192.63" y="98.01" xlink:href="#hd"/>
<path d="M189.13 98.01v24.20" stroke="currentColor" fill="none"/>
<use x="202.83" y="95.01" xlink:href="#hd"/>
<path d="M199.33 95.01v27.20" stroke="currentColor" fill="none"/>
<use x="212.93" y="92.01" xlink:href="#hd"/>
<path d="M209.43 92.01v30.20" stroke="currentColor" fill="none"/>
<use x="223.03" y="89.01" xlink:href="#hd"/>
<path d="M219.53 89.01v33.20" stroke="currentColor" fill="none"/>
<path fill="currentColor"
	d="M241.33 126.21l46.50 0.00v-3.20l-46.50 -0.00"/>
<path fill="currentColor"
	d="M254.43 121.21l10.10 0.00v-3.20l-10.10 -0.00"/>
<use x="245.13" y="89.01" xlink:href="#hd"/>
<path d="M241.63 89.01v36.20" stroke="currentColor" fill="none"/>
<use x="257.93" y="104.01" xlink:href="#hd"/>
<path d="M254.43 104.01v21.20" stroke="currentColor" fill="none"/>
<use x="268.13" y="92.01" xlink:href="#hd"/>
<path d="M264.63 92.01v33.20" stroke="currentColor" fill="none"/>
<use x="278.23" y="95.01" xlink:href="#hd"/>
<path d="M274.73 95.01v30.20" stroke="currentColor" fill="none"/>
<use x="291.03" y="98.01" xlink:href="#hd"/>
<path d="M287.53 98.01v27.20" stroke="currentColor" fill="none"/>
<path fill="currentColor"
	d="M311.63 123.21l54.00 0.00v-3.20l-54.00 -0.00"/>
<path fill="currentColor"
	d="M312.03 118.21l30.40 0.00v-3.20l-30.40 -0.00"/>
<use x="315.53" y="101.01" xlink:href="#hd"/>
<path d="M312.03 101.01v21.20" stroke="currentColor" fill="none"/>
<use x="325.63" y="86.01" xlink:href="#hd"/>
<path d="M322.13 86.01v36.20" stroke="currentColor" fill="none"/>
<use x="335.73" y="95.01" xlink:href="#hd"/>
<path d="M332.23 95.01v27.20" stroke="currentColor" fill="none"/>
<use x="345.93" y="101.01" xlink:href="#hd"/>
<path d="M342.43 101.01v21.20" stroke="currentColor" fill="none"/>
<use x="356.03" y="86.01" xlink:href="#hd"/>
<path d="M352.53 86.01v36.20" stroke="currentColor" fill="none"/>
<use x="368.83" y="95.01" xlink:href="#hd"/>
<path d="M365.33 95.01v27.20" stroke="currentColor" fill="none"/>
<path fill="currentColor"
	d="M389.53 110.21l64.70 0.00v-3.20l-64.70 -0.00"/>
<path fill="currentColor"
	d="M389.83 105.21l31.00 0.00v-3.20l-31.00 -0.00"/>
<path fill="currentColor"
	d="M443.73 105.21l10.10 0.00v-3.20l-10.10 -0.00"/>
<use x="393.33" y="80.01" xlink:href="#hl"/>
<use x="393.33" y="80.01" xlink:href="#hd"/>
<path d="M389.83 80.01v29.20" stroke="currentColor" fill="none"/>
<use x="404.03" y="80.01" xlink:href="#hl"/>
<use x="404.03" y="74.01" xlink:href="#hl"/>
<use x="404.03" y="74.01" xlink:href="#hd"/>
<path d="M400.53 74.01v35.20" stroke="currentColor" fill="none"/>
<use x="414.23" y="86.01" xlink:href="#hd"/>
<path d="M410.73 86.01v23.20" stroke="currentColor" fill="none"/>
<use x="424.33" y="80.01" xlink:href="#hl"/>
<use x="424.33" y="80.01" xlink:href="#hd"/>
<path d="M420.83 80.01v29.20" stroke="currentColor" fill="none"/>
<use x="434.43" y="86.01" xlink:href="#hd"/>
<path d="M430.93 86.01v23.20" stroke="currentColor" fill="none"/>
<use x="447.23" y="80.01" xlink:href="#hl"/>
<use x="447.23" y="74.01" xlink:href="#hl"/>
<use x="447.23" y="74.01" xlink:href="#hd"/>
<path d="M443.73 74.01v35.20" stroke="currentColor" fill="none"/>
<use x="457.43" y="86.01" xlink:href="#hd"/>
<path d="M453.93 86.01v23.20" stroke="currentColor" fill="none"/>
<path fill="currentColor"
	d="M475.63 110.21l47.20 0.00v-3.20l-47.20 -0.00"/>
<path fill="currentColor"
	d="M502.23 105.21l10.10 0.00v-3.20l-10.10 -0.00"/>
<use x="479.53" y="83.01" xlink:href="#hd"/>
<path d="M476.03 83.01v26.20" stroke="currentColor" fill="none"/>
<use x="492.33" y="80.01" xlink:href="#hl"/>
<use x="492.33" y="74.01" xlink:href="#hl"/>
<use x="492.33" y="74.01" xlink:href="#hd"/>
<path d="M488.83 74.01v35.20" stroke="currentColor" fill="none"/>
<use x="505.73" y="80.01" xlink:href="#hl"/>
<use x="505.73" y="77.01" xlink:href="#hd"/>
<path d="M502.23 77.01v32.20" stroke="currentColor" fill="none"/>
<use x="515.83" y="83.01" xlink:href="#hd"/>
<path d="M512.33 83.01v26.20" stroke="currentColor" fill="none"/>
<use x="526.03" y="89.01" xlink:href="#hd"/>
<path d="M522.53 89.01v20.20" stroke="currentColor" fill="none"/>
<path fill="currentColor"
	d="M546.63 117.91l64.10 0.00v-3.20l-64.10 -0.00"/>
<path fill="currentColor"
	d="M559.73 112.91l50.70 0.00v-3.20l-50.70 -0.00"/>
<use x="550.43" y="95.01" xlink:href="#hd"/>
<path d="M546.93 95.01v22.00" stroke="currentColor" fill="none"/>
<use x="563.23" y="80.01" xlink:href="#hl"/>
<use x="563.23" y="77.01" xlink:href="#hd"/>
<path d="M559.73 77.01v40.00" stroke="currentColor" fill="none"/>
<use x="573.43" y="89.01" xlink:href="#hd"/>
<path d="M569.93 89.01v28.00" stroke="currentColor" fill="none"/>
<use x="583.53" y="80.01" xlink:href="#hl"/>
<use x="583.53" y="77.01" xlink:href="#hd"/>
<path d="M580.03 77.01v40.00" stroke="currentColor" fill="none"/>
<use x="593.63" y="95.01" xlink:href="#hd"/>
<path d="M590.13 95.01v22.00" stroke="currentColor" fill="none"/>
<use x="603.83" y="89.01" xlink:href="#hd"/>
<path d="M600.33 89.01v28.00" stroke="currentColor" fill="none"/>
<use x="613.93" y="83.01" xlink:href="#hd"/>
<path d="M610.43 83.01v34.00" stroke="currentColor" fill="none"/>
<path fill="currentColor"
	d="M632.23 104.21l26.30 0.00v-3.20l-26.30 -0.00"/>
<use x="636.03" y="86.01" xlink:href="#hd"/>
<path d="M632.53 86.01v17.20" stroke="currentColor" fill="none"/>
<use x="648.83" y="80.01" xlink:href="#hl"/>
<use x="648.83" y="80.01" xlink:href="#hd"/>
<path d="M645.33 80.01v23.20" stroke="currentColor" fill="none"/>
<use x="661.63" y="86.01" xlink:href="#hd"/>
<path d="M658.13 86.01v17.20" stroke="currentColor" fill="none"/>
<defs>
<path id="r8e" fill="currentColor" d="m 0 0
	c-1.5 1.5 -2.4 2 -3.6 2
	c2.4 -2.8 -2.8 -4 -2.8 -1.2
	c0 2.7 4.3 2.4 5.9 0.6"/>
<g id="r8">
	<path d="m3.3 -4l-3.4 9.6" stroke="currentColor" fill="none"/>
	<use x="3.4" y="-4" xlink:href="#r8e"/>
</g>
</defs>
<use x="674.43" y="98.01" xlink:href="#r8"/>
</g>
</svg>
