<?xml version="1.0" standalone="no"?>
<!DOCTYPE svg PUBLIC "-//W3C//DTD SVG 1.1//EN"
	"http://www.w3.org/Graphics/SVG/1.1/DTD/svg11.dtd">
<svg xmlns="http://www.w3.org/2000/svg" version="1.1"
	xmlns:xlink="http://www.w3.org/1999/xlink"
	xml:space='preserve' color="black"
	width="7.38in" height="5.28in" viewBox="0 0 531 380">
<title>data/results/biggest_11/abc/295.abc (295) tune 1</title>
<!-- Creator: abcm2ps-7.8.14 -->
<!-- CreationDate: Aug  9, 2015 23:50 -->
<!-- CommandLine: -g data/results/biggest_11/abc/295.abc -O /home/allanino/Dropbox/Trabalhos/folkme/svg/295.svg -->
<g transform="scale(0.750)" stroke-width="0.70" font-family="Times" font-size="20.00">
<text x="354.13" y="21.67" text-anchor="middle">Kreuzpolka CF 5- chords</text>
</g>
<g transform="scale(0.750)" stroke-width="0.70" font-family="Times" font-size="16.00">
<text x="354.13" y="41.30" text-anchor="middle">Hanny Christen. Bd.VI 2|| Birimmbres Smelan</text>
<defs>
<g id="rdots" fill="currentColor">
	<circle cx="0" cy="-9" r="1.2"/>
	<circle cx="0" cy="-15" r="1.2"/>
</g>
</defs>
<use x="91.83" y="131.84" xlink:href="#rdots"/>
<path stroke="currentColor" fill="none"
	d="M87.83 131.84v-24.00"/>
<path stroke="currentColor" fill="none" stroke-width="3"
	d="M83.33 131.84v-24.00"/>
<path stroke="currentColor" fill="none"
	d="M153.73 131.84v-24.00"/>
<path stroke="currentColor" fill="none"
	d="M207.63 131.84v-24.00"/>
<path stroke="currentColor" fill="none"
	d="M268.53 131.84v-24.00"/>
<path stroke="currentColor" fill="none"
	d="M320.13 131.84v-24.00"/>
<path stroke="currentColor" fill="none"
	d="M390.83 131.84v-24.00"/>
<path stroke="currentColor" fill="none"
	d="M451.63 131.84v-24.00"/>
<path stroke="currentColor" fill="none"
	d="M527.63 131.84v-24.00"/>
<path stroke="currentColor" fill="none"
	d="M581.63 131.84v-24.00"/>
<path stroke="currentColor" fill="none"
	d="M634.03 131.84v-24.00"/>
<path stroke="currentColor" fill="none"
	d="M694.93 131.84v-24.00"/>
<path stroke="currentColor" fill="none"
	d="M13.33 131.84h681.60m-681.60 -6h681.60m-681.60 -6h681.60m-681.60 -6h681.60m-681.60 -6h681.60"/>
</g>
<g transform="scale(0.750)" stroke-width="0.70" font-family="Helvetica" font-size="12.00">
<text x="101.83" y="93.44">C</text>
<text x="213.63" y="93.44">G7</text>
<text x="277.43" y="93.44">C</text>
<text x="457.73" y="93.44">G7</text>
<text x="513.73" y="164.44">f#</text>
<text x="590.63" y="93.44">C</text>
<defs>
<path id="utclef" fill="currentColor" d="m-50 -90
	c-72 -41 -72 -158 52 -188
	c150 -10 220 188 90 256
	c-114 52 -275 0 -293 -136
	c-15 -181 93 -229 220 -334
	c88 -87 79 -133 62 -210
	c-51 33 -94 105 -89 186
	c17 267 36 374 49 574
	c6 96 -19 134 -77 135
	c-80 1 -126 -93 -61 -133
	c85 -41 133 101 31 105
	c23 17 92 37 90 -92
	c-10 -223 -39 -342 -50 -617
	c0 -90 0 -162 96 -232
	c56 72 63 230 22 289
	c-74 106 -257 168 -255 316
	c9 153 148 185 252 133
	c86 -65 29 -192 -80 -176
	c-71 12 -105 67 -59 124"/>
<use id="tclef" transform="scale(0.045)"
	xlink:href="#utclef"/>
</defs>
<use x="25.33" y="131.84" xlink:href="#tclef"/>
<g font-family="serif" font-size="16" font-weight="bold" font-style="normal"
	transform="translate(43.83,131.84) scale(1.2,1)">
	<text y="-1" text-anchor="middle">4</text>
	<text y="-13" text-anchor="middle">2</text>
</g>
<path fill="currentColor"
	d="M65.03 115.54l11.20 2.00v3.20l-11.20 -2.00"/>
<path fill="currentColor"
	d="M65.33 120.64l10.50 1.90v3.20l-10.50 -1.90"/>
<defs>
<path id="hl" stroke="currentColor" d="m-6 0h12"/>
</defs>
<use x="61.83" y="137.84" xlink:href="#hl"/>
<defs>
<ellipse id="hd" rx="4.1" ry="2.9"
	transform="rotate(-20)" fill="currentColor"/>
</defs>
<use x="61.83" y="137.84" xlink:href="#hd"/>
<path d="M65.33 137.84v-21.20" stroke="currentColor" fill="none"/>
<use x="72.33" y="137.84" xlink:href="#hl"/>
<use x="72.33" y="140.84" xlink:href="#hd"/>
<path d="M75.83 140.84v-22.30" stroke="currentColor" fill="none"/>
<path fill="currentColor"
	d="M108.53 105.14l37.50 -7.60v3.20l-37.50 7.60"/>
<use x="105.33" y="137.84" xlink:href="#hl"/>
<use x="105.33" y="137.84" xlink:href="#hd"/>
<path d="M108.83 137.84v-31.80" stroke="currentColor" fill="none"/>
<use x="117.63" y="131.84" xlink:href="#hd"/>
<path d="M121.13 131.84v-28.30" stroke="currentColor" fill="none"/>
<use x="129.83" y="125.84" xlink:href="#hd"/>
<path d="M133.33 125.84v-24.70" stroke="currentColor" fill="none"/>
<use x="142.13" y="116.84" xlink:href="#hd"/>
<path d="M145.63 116.84v-18.20" stroke="currentColor" fill="none"/>
<use x="166.23" y="110.84" xlink:href="#hd"/>
<circle fill="currentColor" cx="174.23" cy="110.84" r="1.2"/>
<path d="M162.73 110.84v20.00" stroke="currentColor" fill="none"/>
<path fill="currentColor"
	d="M184.43 139.14l10.50 -2.90v-3.20l-10.50 2.90"/>
<path fill="currentColor"
	d="M184.83 134.04l9.80 -2.70v-3.20l-9.80 2.70"/>
<use x="188.33" y="116.84" xlink:href="#hd"/>
<path d="M184.83 116.84v21.20" stroke="currentColor" fill="none"/>
<use x="198.13" y="110.84" xlink:href="#hd"/>
<path d="M194.63 110.84v24.50" stroke="currentColor" fill="none"/>
<path fill="currentColor"
	d="M216.33 139.04l37.50 0.00v-3.20l-37.50 -0.00"/>
<use x="220.13" y="110.84" xlink:href="#hd"/>
<path d="M216.63 110.84v27.20" stroke="currentColor" fill="none"/>
<use x="232.43" y="113.84" xlink:href="#hd"/>
<path d="M228.93 113.84v24.20" stroke="currentColor" fill="none"/>
<use x="244.63" y="119.84" xlink:href="#hd"/>
<path d="M241.13 119.84v18.20" stroke="currentColor" fill="none"/>
<use x="256.93" y="113.84" xlink:href="#hd"/>
<path d="M253.43 113.84v24.20" stroke="currentColor" fill="none"/>
<path fill="currentColor"
	d="M277.13 134.24l12.90 2.10v-3.20l-12.90 -2.10"/>
<use x="281.03" y="113.84" xlink:href="#hd"/>
<path d="M277.53 113.84v19.50" stroke="currentColor" fill="none"/>
<use x="293.23" y="116.84" xlink:href="#hd"/>
<path d="M289.73 116.84v18.50" stroke="currentColor" fill="none"/>
<use x="305.53" y="131.84" xlink:href="#hd"/>
<path d="M309.03 131.84v-20.00" stroke="currentColor" fill="none"/>
<path fill="currentColor"
	d="M335.83 113.04l49.30 -6.40v3.20l-49.30 6.40"/>
<path fill="currentColor"
	d="M346.83 116.54l6.00 -0.80v3.20l-6.00 0.80"/>
<path fill="currentColor"
	d="M374.93 112.94l9.80 -1.30v3.20l-9.80 1.30"/>
<use x="332.63" y="137.84" xlink:href="#hl"/>
<use x="332.63" y="137.84" xlink:href="#hd"/>
<circle fill="currentColor" cx="340.63" cy="134.84" r="1.2"/>
<path d="M336.13 137.84v-23.90" stroke="currentColor" fill="none"/>
<use x="349.33" y="134.84" xlink:href="#hd"/>
<path d="M352.83 134.84v-23.10" stroke="currentColor" fill="none"/>
<use x="359.23" y="131.84" xlink:href="#hd"/>
<path d="M362.73 131.84v-21.30" stroke="currentColor" fill="none"/>
<use x="371.43" y="131.84" xlink:href="#hd"/>
<path d="M374.93 131.84v-22.90" stroke="currentColor" fill="none"/>
<use x="381.33" y="128.84" xlink:href="#hd"/>
<path d="M384.83 128.84v-21.20" stroke="currentColor" fill="none"/>
<path fill="currentColor"
	d="M399.43 145.14l37.50 -5.70v-3.20l-37.50 5.70"/>
<use x="403.33" y="125.84" xlink:href="#hd"/>
<path d="M399.83 125.84v18.20" stroke="currentColor" fill="none"/>
<use x="415.53" y="116.84" xlink:href="#hd"/>
<path d="M412.03 116.84v25.30" stroke="currentColor" fill="none"/>
<use x="427.83" y="116.84" xlink:href="#hd"/>
<path d="M424.33 116.84v23.50" stroke="currentColor" fill="none"/>
<use x="440.03" y="110.84" xlink:href="#hd"/>
<path d="M436.53 110.84v27.60" stroke="currentColor" fill="none"/>
<path fill="currentColor"
	d="M460.33 143.74l54.70 7.30v-3.20l-54.70 -7.30"/>
<path fill="currentColor"
	d="M485.13 142.04l29.50 4.00v-3.20l-29.50 -4.00"/>
<use x="464.13" y="110.84" xlink:href="#hd"/>
<path d="M460.63 110.84v32.00" stroke="currentColor" fill="none"/>
<use x="476.43" y="113.84" xlink:href="#hd"/>
<path d="M472.93 113.84v30.60" stroke="currentColor" fill="none"/>
<use x="488.63" y="113.84" xlink:href="#hd"/>
<path d="M485.13 113.84v32.20" stroke="currentColor" fill="none"/>
<use x="498.53" y="116.84" xlink:href="#hd"/>
<path d="M495.03 116.84v30.60" stroke="currentColor" fill="none"/>
<use x="508.33" y="119.84" xlink:href="#hd"/>
<path d="M504.83 119.84v28.90" stroke="currentColor" fill="none"/>
<use x="518.13" y="128.84" xlink:href="#hd"/>
<path d="M514.63 128.84v21.20" stroke="currentColor" fill="none"/>
<use x="540.13" y="122.84" xlink:href="#hd"/>
<circle fill="currentColor" cx="548.13" cy="122.84" r="1.2"/>
<path d="M543.63 122.84v-20.00" stroke="currentColor" fill="none"/>
<path fill="currentColor"
	d="M565.43 100.44l10.50 -2.90v3.20l-10.50 2.90"/>
<path fill="currentColor"
	d="M565.73 105.34l9.80 -2.70v3.20l-9.80 2.70"/>
<use x="562.23" y="125.84" xlink:href="#hd"/>
<path d="M565.73 125.84v-24.50" stroke="currentColor" fill="none"/>
<use x="572.13" y="119.84" xlink:href="#hd"/>
<path d="M575.63 119.84v-21.20" stroke="currentColor" fill="none"/>
<use x="594.13" y="116.84" xlink:href="#hd"/>
<circle fill="currentColor" cx="602.13" cy="116.84" r="1.2"/>
<path d="M590.63 116.84v20.00" stroke="currentColor" fill="none"/>
<path fill="currentColor"
	d="M617.93 108.54l10.50 -2.00v3.20l-10.50 2.00"/>
<path fill="currentColor"
	d="M618.23 113.54l9.80 -1.90v3.20l-9.80 1.90"/>
<use x="614.73" y="131.84" xlink:href="#hd"/>
<path d="M618.23 131.84v-22.30" stroke="currentColor" fill="none"/>
<use x="624.53" y="128.84" xlink:href="#hd"/>
<path d="M628.03 128.84v-21.20" stroke="currentColor" fill="none"/>
<path fill="currentColor"
	d="M649.73 104.84l37.50 0.00v3.20l-37.50 -0.00"/>
<use x="646.53" y="125.84" xlink:href="#hd"/>
<path d="M650.03 125.84v-20.00" stroke="currentColor" fill="none"/>
<use x="658.83" y="122.84" xlink:href="#hd"/>
<path d="M662.33 122.84v-17.00" stroke="currentColor" fill="none"/>
<use x="671.13" y="125.84" xlink:href="#hd"/>
<path d="M674.63 125.84v-20.00" stroke="currentColor" fill="none"/>
<use x="683.33" y="131.84" xlink:href="#hd"/>
<path d="M686.83 131.84v-26.00" stroke="currentColor" fill="none"/>
<path stroke="currentColor" fill="none"
	d="M104.73 229.24v-24.00"/>
<path stroke="currentColor" fill="none"
	d="M210.13 229.24v-24.00"/>
<path stroke="currentColor" fill="none"
	d="M298.23 229.24v-24.00"/>
<path stroke="currentColor" fill="none"
	d="M295.23 229.24v-24.00"/>
<path stroke="currentColor" fill="none"
	d="M420.13 229.24v-24.00"/>
<path stroke="currentColor" fill="none"
	d="M493.83 229.24v-24.00"/>
<path stroke="currentColor" fill="none"
	d="M590.13 229.24v-24.00"/>
<path stroke="currentColor" fill="none"
	d="M694.93 229.24v-24.00"/>
<path stroke="currentColor" fill="none"
	d="M13.33 229.24h681.60m-681.60 -6h681.60m-681.60 -6h681.60m-681.60 -6h681.60m-681.60 -6h681.60"/>
<text x="43.33" y="182.84">G7</text>
<text x="77.63" y="182.84">F</text>
<text x="113.73" y="182.84">C</text>
<text x="149.53" y="182.84">G7</text>
<text x="219.13" y="182.84">C</text>
<text x="323.43" y="182.84">G</text>
<text x="461.03" y="182.84">D7</text>
<text x="502.53" y="182.84">G</text>
<text x="547.03" y="182.84">D7</text>
<text x="598.83" y="182.84">G</text>
<use x="25.33" y="229.24" xlink:href="#tclef"/>
<use x="49.83" y="226.24" xlink:href="#hd"/>
<path d="M53.33 226.24v-20.00" stroke="currentColor" fill="none"/>
<use x="80.53" y="226.24" xlink:href="#hd"/>
<path d="M84.03 226.24v-20.00" stroke="currentColor" fill="none"/>
<path fill="currentColor"
	d="M120.43 199.04l81.10 0.00v3.20l-81.10 -0.00"/>
<path fill="currentColor"
	d="M159.53 204.04l41.70 0.00v3.20l-41.70 -0.00"/>
<use x="117.23" y="229.24" xlink:href="#hd"/>
<path d="M120.73 229.24v-29.20" stroke="currentColor" fill="none"/>
<use x="136.63" y="223.24" xlink:href="#hd"/>
<path d="M140.13 223.24v-23.20" stroke="currentColor" fill="none"/>
<use x="156.03" y="223.24" xlink:href="#hd"/>
<path d="M159.53 223.24v-23.20" stroke="currentColor" fill="none"/>
<use x="169.83" y="226.24" xlink:href="#hd"/>
<path d="M173.33 226.24v-26.20" stroke="currentColor" fill="none"/>
<use x="183.73" y="229.24" xlink:href="#hd"/>
<path d="M187.23 229.24v-29.20" stroke="currentColor" fill="none"/>
<use x="197.63" y="232.24" xlink:href="#hd"/>
<path d="M201.13 232.24v-32.20" stroke="currentColor" fill="none"/>
<path fill="currentColor"
	d="M225.73 198.94l39.40 -7.80v3.20l-39.40 7.80"/>
<use x="222.63" y="235.24" xlink:href="#hl"/>
<use x="222.63" y="235.24" xlink:href="#hd"/>
<path d="M226.13 235.24v-35.40" stroke="currentColor" fill="none"/>
<use x="242.03" y="214.24" xlink:href="#hd"/>
<path d="M245.53 214.24v-18.20" stroke="currentColor" fill="none"/>
<use x="261.33" y="214.24" xlink:href="#hd"/>
<path d="M264.83 214.24v-22.00" stroke="currentColor" fill="none"/>
<defs>
<path id="r8e" fill="currentColor" d="m 0 0
	c-1.5 1.5 -2.4 2 -3.6 2
	c2.4 -2.8 -2.8 -4 -2.8 -1.2
	c0 2.7 4.3 2.4 5.9 0.6"/>
<g id="r8">
	<path d="m3.3 -4l-3.4 9.6" stroke="currentColor" fill="none"/>
	<use x="3.4" y="-4" xlink:href="#r8e"/>
</g>
</defs>
<use x="280.73" y="217.24" xlink:href="#r8"/>
<defs>
<path id="usharp" fill="currentColor" d="
	m136 -702
	v890
	h32
	v-890
	m128 840
	h32
	v-888
	h-32
	m-232 286
	v116
	l338 -96
	v-116
	m-338 442
	v116
	l338 -98
	v-114"/>
<use id="sh0" transform="translate(-4,5) scale(0.018)"
	xlink:href="#usharp"/>
</defs>
<use x="309.23" y="205.24" xlink:href="#sh0"/>
<path fill="currentColor"
	d="M330.43 192.04l81.10 0.00v3.20l-81.10 -0.00"/>
<path fill="currentColor"
	d="M350.13 197.04l13.90 0.00v3.20l-13.90 -0.00"/>
<path fill="currentColor"
	d="M397.33 197.04l13.90 0.00v3.20l-13.90 -0.00"/>
<use x="327.23" y="211.24" xlink:href="#hd"/>
<path d="M330.73 211.24v-18.20" stroke="currentColor" fill="none"/>
<use x="346.63" y="217.24" xlink:href="#hd"/>
<path d="M350.13 217.24v-24.20" stroke="currentColor" fill="none"/>
<use x="360.53" y="223.24" xlink:href="#hd"/>
<path d="M364.03 223.24v-30.20" stroke="currentColor" fill="none"/>
<use x="374.43" y="211.24" xlink:href="#hd"/>
<path d="M377.93 211.24v-18.20" stroke="currentColor" fill="none"/>
<use x="393.83" y="217.24" xlink:href="#hd"/>
<path d="M397.33 217.24v-24.20" stroke="currentColor" fill="none"/>
<use x="407.63" y="223.24" xlink:href="#hd"/>
<path d="M411.13 223.24v-30.20" stroke="currentColor" fill="none"/>
<use x="432.63" y="223.24" xlink:href="#hd"/>
<circle fill="currentColor" cx="440.63" cy="220.24" r="1.2"/>
<path d="M436.13 223.24v-20.00" stroke="currentColor" fill="none"/>
<path fill="currentColor"
	d="M463.63 231.34l14.60 2.20v-3.20l-14.60 -2.20"/>
<path fill="currentColor"
	d="M464.03 226.34l13.90 2.10v-3.20l-13.90 -2.10"/>
<use x="467.53" y="208.24" xlink:href="#hd"/>
<path d="M464.03 208.24v22.10" stroke="currentColor" fill="none"/>
<use x="481.33" y="211.24" xlink:href="#hd"/>
<path d="M477.83 211.24v21.20" stroke="currentColor" fill="none"/>
<path fill="currentColor"
	d="M509.53 197.24l67.20 0.00v3.20l-67.20 -0.00"/>
<path fill="currentColor"
	d="M529.23 202.24l13.90 0.00v3.20l-13.90 -0.00"/>
<use x="506.33" y="217.24" xlink:href="#hd"/>
<path d="M509.83 217.24v-19.00" stroke="currentColor" fill="none"/>
<use x="525.73" y="223.24" xlink:href="#hd"/>
<path d="M529.23 223.24v-25.00" stroke="currentColor" fill="none"/>
<use x="539.63" y="232.24" xlink:href="#hd"/>
<path d="M543.13 232.24v-34.00" stroke="currentColor" fill="none"/>
<use x="553.43" y="223.24" xlink:href="#hd"/>
<path d="M556.93 223.24v-25.00" stroke="currentColor" fill="none"/>
<use x="572.83" y="226.24" xlink:href="#hd"/>
<path d="M576.33 226.24v-28.00" stroke="currentColor" fill="none"/>
<path fill="currentColor"
	d="M605.83 193.04l75.60 0.00v3.20l-75.60 -0.00"/>
<path fill="currentColor"
	d="M625.53 198.04l41.70 0.00v3.20l-41.70 -0.00"/>
<use x="602.63" y="223.24" xlink:href="#hd"/>
<path d="M606.13 223.24v-29.20" stroke="currentColor" fill="none"/>
<use x="622.03" y="223.24" xlink:href="#hd"/>
<path d="M625.53 223.24v-29.20" stroke="currentColor" fill="none"/>
<use x="635.93" y="217.24" xlink:href="#hd"/>
<path d="M639.43 217.24v-23.20" stroke="currentColor" fill="none"/>
<use x="649.83" y="220.24" xlink:href="#hd"/>
<path d="M653.33 220.24v-26.20" stroke="currentColor" fill="none"/>
<use x="663.73" y="223.24" xlink:href="#hd"/>
<path d="M667.23 223.24v-29.20" stroke="currentColor" fill="none"/>
<use x="677.63" y="226.24" xlink:href="#hd"/>
<path d="M681.13 226.24v-32.20" stroke="currentColor" fill="none"/>
<path stroke="currentColor" fill="none"
	d="M122.23 316.24v-24.00"/>
<path stroke="currentColor" fill="none"
	d="M206.23 316.24v-24.00"/>
<path stroke="currentColor" fill="none"
	d="M282.53 316.24v-24.00"/>
<use x="365.73" y="316.24" xlink:href="#rdots"/>
<path stroke="currentColor" fill="none" stroke-width="3"
	d="M360.23 316.24v-24.00"/>
<path stroke="currentColor" fill="none" stroke-width="3"
	d="M354.23 316.24v-24.00"/>
<use x="348.73" y="316.24" xlink:href="#rdots"/>
<path stroke="currentColor" fill="none"
	d="M435.63 316.24v-24.00"/>
<path stroke="currentColor" fill="none"
	d="M512.23 316.24v-24.00"/>
<path stroke="currentColor" fill="none"
	d="M610.93 316.24v-24.00"/>
<path stroke="currentColor" fill="none"
	d="M694.93 316.24v-24.00"/>
<path stroke="currentColor" fill="none"
	d="M13.33 316.24h681.60m-681.60 -6h681.60m-681.60 -6h681.60m-681.60 -6h681.60m-681.60 -6h681.60"/>
<text x="51.83" y="263.84">D7</text>
<text x="130.93" y="263.84">G</text>
<text x="212.33" y="263.84">D7</text>
<text x="291.23" y="263.84">G</text>
<text x="375.43" y="263.84">D</text>
<text x="473.13" y="263.84">G</text>
<text x="521.23" y="263.84">C</text>
<text x="617.03" y="263.84">D7</text>
<use x="25.33" y="316.24" xlink:href="#tclef"/>
<use x="40.33" y="292.24" xlink:href="#sh0"/>
<use x="58.33" y="319.24" xlink:href="#hd"/>
<path d="M61.83 319.24v-20.00" stroke="currentColor" fill="none"/>
<path fill="currentColor"
	d="M82.73 279.04l33.30 0.00v3.20l-33.30 -0.00"/>
<path fill="currentColor"
	d="M83.13 284.04l32.60 0.00v3.20l-32.60 -0.00"/>
<use x="79.63" y="313.24" xlink:href="#hd"/>
<path d="M83.13 313.24v-33.20" stroke="currentColor" fill="none"/>
<use x="90.43" y="307.24" xlink:href="#hd"/>
<path d="M93.93 307.24v-27.20" stroke="currentColor" fill="none"/>
<use x="101.33" y="301.24" xlink:href="#hd"/>
<path d="M104.83 301.24v-21.20" stroke="currentColor" fill="none"/>
<use x="112.23" y="313.24" xlink:href="#hd"/>
<path d="M115.73 313.24v-33.20" stroke="currentColor" fill="none"/>
<path fill="currentColor"
	d="M130.93 329.44l62.10 -7.90v-3.20l-62.10 7.90"/>
<path fill="currentColor"
	d="M145.63 322.64l10.90 -1.40v-3.20l-10.90 1.40"/>
<path fill="currentColor"
	d="M181.83 318.04l10.90 -1.40v-3.20l-10.90 1.40"/>
<use x="134.73" y="310.24" xlink:href="#hd"/>
<path d="M131.23 310.24v18.20" stroke="currentColor" fill="none"/>
<use x="149.13" y="304.24" xlink:href="#hd"/>
<path d="M145.63 304.24v22.40" stroke="currentColor" fill="none"/>
<use x="160.03" y="298.24" xlink:href="#hd"/>
<path d="M156.53 298.24v27.00" stroke="currentColor" fill="none"/>
<use x="170.93" y="289.24" xlink:href="#hd"/>
<path d="M167.43 289.24v34.60" stroke="currentColor" fill="none"/>
<use x="185.33" y="292.24" xlink:href="#hd"/>
<path d="M181.83 292.24v29.80" stroke="currentColor" fill="none"/>
<use x="196.23" y="295.24" xlink:href="#hd"/>
<path d="M192.73 295.24v25.40" stroke="currentColor" fill="none"/>
<path fill="currentColor"
	d="M221.93 279.04l51.20 6.80v3.20l-51.20 -6.80"/>
<path fill="currentColor"
	d="M236.63 285.94l10.90 1.40v3.20l-10.90 -1.40"/>
<use x="218.73" y="298.24" xlink:href="#hd"/>
<path d="M222.23 298.24v-18.20" stroke="currentColor" fill="none"/>
<use x="233.13" y="307.24" xlink:href="#hd"/>
<path d="M236.63 307.24v-25.30" stroke="currentColor" fill="none"/>
<use x="244.03" y="313.24" xlink:href="#hd"/>
<path d="M247.53 313.24v-29.80" stroke="currentColor" fill="none"/>
<use x="254.93" y="313.24" xlink:href="#hd"/>
<path d="M258.43 313.24v-28.40" stroke="currentColor" fill="none"/>
<use x="269.33" y="313.24" xlink:href="#hd"/>
<path d="M272.83 313.24v-26.50" stroke="currentColor" fill="none"/>
<path fill="currentColor"
	d="M298.13 285.04l29.50 0.00v3.20l-29.50 -0.00"/>
<use x="295.03" y="310.24" xlink:href="#hd"/>
<path d="M298.53 310.24v-24.20" stroke="currentColor" fill="none"/>
<use x="309.43" y="304.24" xlink:href="#hd"/>
<path d="M312.93 304.24v-18.20" stroke="currentColor" fill="none"/>
<use x="323.83" y="310.24" xlink:href="#hd"/>
<path d="M327.33 310.24v-24.20" stroke="currentColor" fill="none"/>
<use x="338.23" y="304.24" xlink:href="#r8"/>
<path fill="currentColor"
	d="M382.33 277.64l43.90 4.00v3.20l-43.90 -4.00"/>
<use x="379.23" y="307.24" xlink:href="#hd"/>
<path d="M382.73 307.24v-28.50" stroke="currentColor" fill="none"/>
<use x="393.63" y="298.24" xlink:href="#hd"/>
<path d="M397.13 298.24v-18.20" stroke="currentColor" fill="none"/>
<use x="408.03" y="307.24" xlink:href="#hd"/>
<path d="M411.53 307.24v-25.90" stroke="currentColor" fill="none"/>
<use x="422.43" y="313.24" xlink:href="#hd"/>
<path d="M425.93 313.24v-30.60" stroke="currentColor" fill="none"/>
<path fill="currentColor"
	d="M451.23 290.24l54.80 0.00v3.20l-54.80 -0.00"/>
<path fill="currentColor"
	d="M494.83 295.24l10.90 0.00v3.20l-10.90 -0.00"/>
<use x="448.13" y="319.24" xlink:href="#hd"/>
<path d="M451.63 319.24v-28.00" stroke="currentColor" fill="none"/>
<use x="462.53" y="313.24" xlink:href="#hd"/>
<path d="M466.03 313.24v-22.00" stroke="currentColor" fill="none"/>
<use x="476.93" y="310.24" xlink:href="#hd"/>
<path d="M480.43 310.24v-19.00" stroke="currentColor" fill="none"/>
<use x="491.33" y="316.24" xlink:href="#hd"/>
<path d="M494.83 316.24v-25.00" stroke="currentColor" fill="none"/>
<use x="502.13" y="313.24" xlink:href="#hd"/>
<path d="M505.63 313.24v-22.00" stroke="currentColor" fill="none"/>
<path fill="currentColor"
	d="M527.93 273.04l76.80 0.00v3.20l-76.80 -0.00"/>
<path fill="currentColor"
	d="M528.23 278.04l76.10 0.00v3.20l-76.10 -0.00"/>
<use x="524.73" y="310.24" xlink:href="#hd"/>
<path d="M528.23 310.24v-36.20" stroke="currentColor" fill="none"/>
<use x="535.63" y="304.24" xlink:href="#hd"/>
<path d="M539.13 304.24v-30.20" stroke="currentColor" fill="none"/>
<use x="546.53" y="307.24" xlink:href="#hd"/>
<path d="M550.03 307.24v-33.20" stroke="currentColor" fill="none"/>
<use x="557.33" y="301.24" xlink:href="#hd"/>
<path d="M560.83 301.24v-27.20" stroke="currentColor" fill="none"/>
<use x="568.23" y="295.24" xlink:href="#hd"/>
<path d="M571.73 295.24v-21.20" stroke="currentColor" fill="none"/>
<use x="579.13" y="310.24" xlink:href="#hd"/>
<path d="M582.63 310.24v-36.20" stroke="currentColor" fill="none"/>
<use x="590.03" y="301.24" xlink:href="#hd"/>
<path d="M593.53 301.24v-27.20" stroke="currentColor" fill="none"/>
<use x="600.83" y="310.24" xlink:href="#hd"/>
<path d="M604.33 310.24v-36.20" stroke="currentColor" fill="none"/>
<path fill="currentColor"
	d="M626.63 282.44l62.10 -9.40v3.20l-62.10 9.40"/>
<path fill="currentColor"
	d="M655.73 283.04l32.60 -5.00v3.20l-32.60 5.00"/>
<use x="623.43" y="316.24" xlink:href="#hd"/>
<path d="M626.93 316.24v-32.90" stroke="currentColor" fill="none"/>
<use x="637.83" y="313.24" xlink:href="#hd"/>
<path d="M641.33 313.24v-32.00" stroke="currentColor" fill="none"/>
<use x="652.23" y="313.24" xlink:href="#hd"/>
<path d="M655.73 313.24v-34.20" stroke="currentColor" fill="none"/>
<use x="663.13" y="307.24" xlink:href="#hd"/>
<path d="M666.63 307.24v-29.90" stroke="currentColor" fill="none"/>
<use x="674.03" y="298.24" xlink:href="#hd"/>
<path d="M677.53 298.24v-22.50" stroke="currentColor" fill="none"/>
<use x="684.83" y="295.24" xlink:href="#hd"/>
<path d="M688.33 295.24v-21.20" stroke="currentColor" fill="none"/>
<path stroke="currentColor" fill="none"
	d="M146.43 396.24v-24.00"/>
<path stroke="currentColor" fill="none"
	d="M246.93 396.24v-24.00"/>
<path stroke="currentColor" fill="none"
	d="M356.93 396.24v-24.00"/>
<path stroke="currentColor" fill="none" stroke-width="3"
	d="M458.33 396.24v-24.00"/>
<path stroke="currentColor" fill="none"
	d="M453.83 396.24v-24.00"/>
<use x="449.83" y="396.24" xlink:href="#rdots"/>
<path stroke="currentColor" fill="none"
	d="M585.63 396.24v-24.00"/>
<path stroke="currentColor" fill="none"
	d="M694.93 396.24v-24.00"/>
<path stroke="currentColor" fill="none"
	d="M13.33 396.24h681.60m-681.60 -6h681.60m-681.60 -6h681.60m-681.60 -6h681.60m-681.60 -6h681.60"/>
<text x="54.53" y="350.84">G</text>
<text x="152.43" y="350.84">D7</text>
<text x="365.63" y="350.84">G</text>
<text x="431.33" y="425.84">&gt;TeilA</text>
<text x="485.23" y="350.84">C</text>
<use x="25.33" y="396.24" xlink:href="#tclef"/>
<use x="40.33" y="372.24" xlink:href="#sh0"/>
<path fill="currentColor"
	d="M54.53 412.44l70.50 0.00v-3.20l-70.50 -0.00"/>
<path fill="currentColor"
	d="M75.23 407.44l14.60 0.00v-3.20l-14.60 -0.00"/>
<use x="58.33" y="378.24" xlink:href="#hd"/>
<path d="M54.83 378.24v33.20" stroke="currentColor" fill="none"/>
<use x="78.73" y="390.24" xlink:href="#hd"/>
<path d="M75.23 390.24v21.20" stroke="currentColor" fill="none"/>
<use x="93.23" y="384.24" xlink:href="#hd"/>
<path d="M89.73 384.24v27.20" stroke="currentColor" fill="none"/>
<use x="107.83" y="375.24" xlink:href="#hd"/>
<path d="M104.33 375.24v36.20" stroke="currentColor" fill="none"/>
<use x="128.23" y="378.24" xlink:href="#hd"/>
<path d="M124.73 378.24v33.20" stroke="currentColor" fill="none"/>
<path fill="currentColor"
	d="M155.03 406.44l70.50 6.10v-3.20l-70.50 -6.10"/>
<path fill="currentColor"
	d="M175.73 403.24l14.60 1.30v-3.20l-14.60 -1.30"/>
<use x="158.93" y="378.24" xlink:href="#hd"/>
<path d="M155.43 378.24v27.20" stroke="currentColor" fill="none"/>
<use x="179.23" y="381.24" xlink:href="#hd"/>
<path d="M175.73 381.24v26.00" stroke="currentColor" fill="none"/>
<use x="193.83" y="378.24" xlink:href="#hd"/>
<path d="M190.33 378.24v30.20" stroke="currentColor" fill="none"/>
<use x="208.43" y="381.24" xlink:href="#hd"/>
<path d="M204.93 381.24v28.50" stroke="currentColor" fill="none"/>
<use x="228.73" y="393.24" xlink:href="#hd"/>
<path d="M225.23 393.24v18.20" stroke="currentColor" fill="none"/>
<path fill="currentColor"
	d="M255.63 415.44l85.10 0.00v-3.20l-85.10 -0.00"/>
<path fill="currentColor"
	d="M296.73 410.44l43.70 0.00v-3.20l-43.70 -0.00"/>
<use x="259.43" y="387.24" xlink:href="#hd"/>
<path d="M255.93 387.24v27.20" stroke="currentColor" fill="none"/>
<use x="279.83" y="378.24" xlink:href="#hd"/>
<path d="M276.33 378.24v36.20" stroke="currentColor" fill="none"/>
<use x="300.23" y="378.24" xlink:href="#hd"/>
<path d="M296.73 378.24v36.20" stroke="currentColor" fill="none"/>
<use x="314.73" y="381.24" xlink:href="#hd"/>
<path d="M311.23 381.24v33.20" stroke="currentColor" fill="none"/>
<use x="329.33" y="393.24" xlink:href="#hd"/>
<path d="M325.83 393.24v21.20" stroke="currentColor" fill="none"/>
<use x="343.83" y="387.24" xlink:href="#hd"/>
<path d="M340.33 387.24v27.20" stroke="currentColor" fill="none"/>
<path fill="currentColor"
	d="M372.63 360.04l50.20 0.00v3.20l-50.20 -0.00"/>
<path fill="currentColor"
	d="M393.33 365.04l14.60 0.00v3.20l-14.60 -0.00"/>
<use x="369.43" y="390.24" xlink:href="#hd"/>
<path d="M372.93 390.24v-29.20" stroke="currentColor" fill="none"/>
<use x="389.83" y="384.24" xlink:href="#hd"/>
<path d="M393.33 384.24v-23.20" stroke="currentColor" fill="none"/>
<use x="404.33" y="384.24" xlink:href="#hd"/>
<path d="M407.83 384.24v-23.20" stroke="currentColor" fill="none"/>
<use x="418.93" y="384.24" xlink:href="#hd"/>
<path d="M422.43 384.24v-23.20" stroke="currentColor" fill="none"/>
<use x="439.33" y="384.24" xlink:href="#r8"/>
<defs>
<path id="unat" fill="currentColor" d="
	m96 -750
	h-32
	v716
	l32 -8
	l182 -54
	v282
	h32
	v-706
	l-34 10
	l-180 50
	v-290
	m0 592
	v-190
	l182 -52
	v188"/>
<use id="nt0" transform="translate(-3,5) scale(0.018)"
	xlink:href="#unat"/>
</defs>
<use x="470.83" y="372.24" xlink:href="#nt0"/>
<path fill="currentColor"
	d="M484.93 412.44l79.30 0.00v-3.20l-79.30 -0.00"/>
<path fill="currentColor"
	d="M485.33 407.44l43.70 0.00v-3.20l-43.70 -0.00"/>
<use x="488.83" y="375.24" xlink:href="#hd"/>
<path d="M485.33 375.24v36.20" stroke="currentColor" fill="none"/>
<use x="503.33" y="390.24" xlink:href="#hd"/>
<path d="M499.83 390.24v21.20" stroke="currentColor" fill="none"/>
<use x="517.93" y="375.24" xlink:href="#hd"/>
<path d="M514.43 375.24v36.20" stroke="currentColor" fill="none"/>
<use x="532.43" y="378.24" xlink:href="#hd"/>
<path d="M528.93 378.24v33.20" stroke="currentColor" fill="none"/>
<use x="547.03" y="381.24" xlink:href="#hd"/>
<path d="M543.53 381.24v30.20" stroke="currentColor" fill="none"/>
<use x="567.43" y="384.24" xlink:href="#hd"/>
<path d="M563.93 384.24v27.20" stroke="currentColor" fill="none"/>
<path fill="currentColor"
	d="M594.23 409.44l79.30 0.00v-3.20l-79.30 -0.00"/>
<path fill="currentColor"
	d="M594.63 404.44l43.70 0.00v-3.20l-43.70 -0.00"/>
<use x="598.13" y="381.24" xlink:href="#hd"/>
<path d="M594.63 381.24v27.20" stroke="currentColor" fill="none"/>
<use x="612.63" y="384.24" xlink:href="#hd"/>
<path d="M609.13 384.24v24.20" stroke="currentColor" fill="none"/>
<use x="627.23" y="381.24" xlink:href="#hd"/>
<path d="M623.73 381.24v27.20" stroke="currentColor" fill="none"/>
<use x="641.83" y="378.24" xlink:href="#hd"/>
<path d="M638.33 378.24v30.20" stroke="currentColor" fill="none"/>
<use x="656.33" y="381.24" xlink:href="#hd"/>
<path d="M652.83 381.24v27.20" stroke="currentColor" fill="none"/>
<use x="676.73" y="390.24" xlink:href="#hd"/>
<path d="M673.23 390.24v18.20" stroke="currentColor" fill="none"/>
<defs>
<circle id="stc" fill="currentColor" cx="0" cy="-3" r="1.2"/>
</defs>
<use x="259.43" y="384.24" xlink:href="#stc"/>
<path stroke="currentColor" fill="none"
	d="M121.83 483.64v-24.00"/>
<path stroke="currentColor" fill="none"
	d="M199.23 483.64v-24.00"/>
<path stroke="currentColor" fill="none"
	d="M298.53 483.64v-24.00"/>
<path stroke="currentColor" fill="none"
	d="M368.73 483.64v-24.00"/>
<path stroke="currentColor" fill="none"
	d="M446.03 483.64v-24.00"/>
<path stroke="currentColor" fill="none"
	d="M523.33 483.64v-24.00"/>
<path stroke="currentColor" fill="none"
	d="M622.73 483.64v-24.00"/>
<path stroke="currentColor" fill="none" stroke-width="3"
	d="M693.43 483.64v-24.00"/>
<path stroke="currentColor" fill="none"
	d="M688.93 483.64v-24.00"/>
<path stroke="currentColor" fill="none"
	d="M13.33 483.64h681.60m-681.60 -6h681.60m-681.60 -6h681.60m-681.60 -6h681.60m-681.60 -6h681.60"/>
<text x="131.43" y="444.24">F</text>
<text x="205.23" y="444.24">G7</text>
<text x="308.13" y="444.24">F</text>
<text x="455.03" y="444.24">C</text>
<text x="529.43" y="444.24">G7</text>
<text x="631.73" y="444.24">C</text>
<use x="25.33" y="483.64" xlink:href="#tclef"/>
<path fill="currentColor"
	d="M46.03 499.84l59.30 0.00v-3.20l-59.30 -0.00"/>
<path fill="currentColor"
	d="M46.33 494.84l11.00 0.00v-3.20l-11.00 -0.00"/>
<path fill="currentColor"
	d="M83.03 494.84l11.00 0.00v-3.20l-11.00 -0.00"/>
<use x="49.83" y="477.64" xlink:href="#hd"/>
<path d="M46.33 477.64v21.20" stroke="currentColor" fill="none"/>
<use x="60.83" y="462.64" xlink:href="#hd"/>
<path d="M57.33 462.64v36.20" stroke="currentColor" fill="none"/>
<use x="71.73" y="462.64" xlink:href="#hd"/>
<path d="M68.23 462.64v36.20" stroke="currentColor" fill="none"/>
<use x="86.53" y="462.64" xlink:href="#hd"/>
<path d="M83.03 462.64v36.20" stroke="currentColor" fill="none"/>
<use x="97.53" y="465.64" xlink:href="#hd"/>
<path d="M94.03 465.64v33.20" stroke="currentColor" fill="none"/>
<use x="108.43" y="465.64" xlink:href="#hd"/>
<path d="M104.93 465.64v33.20" stroke="currentColor" fill="none"/>
<path fill="currentColor"
	d="M130.53 489.44l52.10 6.60v-3.20l-52.10 -6.60"/>
<path fill="currentColor"
	d="M130.83 484.44l11.00 1.40v-3.20l-11.00 -1.40"/>
<use x="134.33" y="465.64" xlink:href="#hd"/>
<path d="M130.83 465.64v22.80" stroke="currentColor" fill="none"/>
<use x="145.33" y="468.64" xlink:href="#hd"/>
<path d="M141.83 468.64v21.20" stroke="currentColor" fill="none"/>
<use x="156.33" y="471.64" xlink:href="#hd"/>
<path d="M152.83 471.64v19.60" stroke="currentColor" fill="none"/>
<use x="171.03" y="474.64" xlink:href="#hd"/>
<path d="M167.53 474.64v18.50" stroke="currentColor" fill="none"/>
<use x="185.83" y="474.64" xlink:href="#hd"/>
<path d="M182.33 474.64v20.30" stroke="currentColor" fill="none"/>
<path fill="currentColor"
	d="M207.83 496.84l77.50 0.00v-3.20l-77.50 -0.00"/>
<path fill="currentColor"
	d="M208.23 491.84l76.80 0.00v-3.20l-76.80 -0.00"/>
<use x="211.73" y="471.64" xlink:href="#hd"/>
<path d="M208.23 471.64v24.20" stroke="currentColor" fill="none"/>
<use x="222.63" y="468.64" xlink:href="#hd"/>
<path d="M219.13 468.64v27.20" stroke="currentColor" fill="none"/>
<use x="233.63" y="471.64" xlink:href="#hd"/>
<path d="M230.13 471.64v24.20" stroke="currentColor" fill="none"/>
<use x="244.63" y="471.64" xlink:href="#hd"/>
<path d="M241.13 471.64v24.20" stroke="currentColor" fill="none"/>
<use x="255.63" y="474.64" xlink:href="#hd"/>
<path d="M252.13 474.64v21.20" stroke="currentColor" fill="none"/>
<use x="266.53" y="471.64" xlink:href="#hd"/>
<path d="M263.03 471.64v24.20" stroke="currentColor" fill="none"/>
<use x="277.53" y="468.64" xlink:href="#hd"/>
<path d="M274.03 468.64v27.20" stroke="currentColor" fill="none"/>
<use x="288.53" y="471.64" xlink:href="#hd"/>
<path d="M285.03 471.64v24.20" stroke="currentColor" fill="none"/>
<path fill="currentColor"
	d="M314.23 453.44l30.10 0.00v3.20l-30.10 -0.00"/>
<use x="311.03" y="474.64" xlink:href="#hd"/>
<path d="M314.53 474.64v-20.20" stroke="currentColor" fill="none"/>
<use x="325.83" y="474.64" xlink:href="#hd"/>
<path d="M329.33 474.64v-20.20" stroke="currentColor" fill="none"/>
<use x="340.53" y="474.64" xlink:href="#hd"/>
<path d="M344.03 474.64v-20.20" stroke="currentColor" fill="none"/>
<use x="355.23" y="471.64" xlink:href="#r8"/>
<path fill="currentColor"
	d="M377.33 496.84l52.10 0.00v-3.20l-52.10 -0.00"/>
<path fill="currentColor"
	d="M377.73 491.84l11.00 0.00v-3.20l-11.00 -0.00"/>
<use x="381.23" y="474.64" xlink:href="#hd"/>
<path d="M377.73 474.64v21.20" stroke="currentColor" fill="none"/>
<use x="392.13" y="471.64" xlink:href="#hd"/>
<path d="M388.63 471.64v24.20" stroke="currentColor" fill="none"/>
<use x="403.13" y="468.64" xlink:href="#hd"/>
<path d="M399.63 468.64v27.20" stroke="currentColor" fill="none"/>
<use x="417.83" y="459.64" xlink:href="#hd"/>
<path d="M414.33 459.64v36.20" stroke="currentColor" fill="none"/>
<use x="432.63" y="468.64" xlink:href="#hd"/>
<path d="M429.13 468.64v27.20" stroke="currentColor" fill="none"/>
<path fill="currentColor"
	d="M454.73 499.84l52.10 0.00v-3.20l-52.10 -0.00"/>
<path fill="currentColor"
	d="M455.03 494.84l11.00 0.00v-3.20l-11.00 -0.00"/>
<use x="458.53" y="477.64" xlink:href="#hd"/>
<path d="M455.03 477.64v21.20" stroke="currentColor" fill="none"/>
<use x="469.53" y="462.64" xlink:href="#hd"/>
<path d="M466.03 462.64v36.20" stroke="currentColor" fill="none"/>
<use x="480.43" y="462.64" xlink:href="#hd"/>
<path d="M476.93 462.64v36.20" stroke="currentColor" fill="none"/>
<use x="495.23" y="477.64" xlink:href="#hd"/>
<path d="M491.73 477.64v21.20" stroke="currentColor" fill="none"/>
<use x="509.93" y="477.64" xlink:href="#hd"/>
<path d="M506.43 477.64v21.20" stroke="currentColor" fill="none"/>
<path fill="currentColor"
	d="M532.03 502.94l77.50 -13.70v-3.20l-77.50 13.70"/>
<path fill="currentColor"
	d="M532.33 497.84l76.80 -13.60v-3.20l-76.80 13.60"/>
<use x="535.83" y="480.64" xlink:href="#hd"/>
<path d="M532.33 480.64v21.20" stroke="currentColor" fill="none"/>
<use x="546.83" y="477.64" xlink:href="#hd"/>
<path d="M543.33 477.64v22.30" stroke="currentColor" fill="none"/>
<use x="557.83" y="474.64" xlink:href="#hd"/>
<path d="M554.33 474.64v23.30" stroke="currentColor" fill="none"/>
<use x="568.73" y="471.64" xlink:href="#hd"/>
<path d="M565.23 471.64v24.40" stroke="currentColor" fill="none"/>
<use x="579.73" y="468.64" xlink:href="#hd"/>
<path d="M576.23 468.64v25.40" stroke="currentColor" fill="none"/>
<use x="590.73" y="465.64" xlink:href="#hd"/>
<path d="M587.23 465.64v26.50" stroke="currentColor" fill="none"/>
<use x="601.73" y="462.64" xlink:href="#hd"/>
<path d="M598.23 462.64v27.60" stroke="currentColor" fill="none"/>
<use x="612.63" y="459.64" xlink:href="#hd"/>
<path d="M609.13 459.64v28.60" stroke="currentColor" fill="none"/>
<path fill="currentColor"
	d="M631.43 480.64l30.10 0.00v-3.20l-30.10 -0.00"/>
<use x="635.23" y="456.64" xlink:href="#hd"/>
<path d="M631.73 456.64v23.00" stroke="currentColor" fill="none"/>
<use x="649.93" y="462.64" xlink:href="#hd"/>
<path d="M646.43 462.64v17.00" stroke="currentColor" fill="none"/>
<use x="664.73" y="456.64" xlink:href="#hd"/>
<path d="M661.23 456.64v23.00" stroke="currentColor" fill="none"/>
<use x="679.43" y="471.64" xlink:href="#r8"/>
</g>
</svg>
