<?xml version="1.0" standalone="no"?>
<!DOCTYPE svg PUBLIC "-//W3C//DTD SVG 1.1//EN"
	"http://www.w3.org/Graphics/SVG/1.1/DTD/svg11.dtd">
<svg xmlns="http://www.w3.org/2000/svg" version="1.1"
	xmlns:xlink="http://www.w3.org/1999/xlink"
	xml:space='preserve' color="black"
	width="7.38in" height="2.34in" viewBox="0 0 531 169">
<title>data/results/biggest_11/abc/301.abc (301) tune 1</title>
<!-- Creator: abcm2ps-7.8.14 -->
<!-- CreationDate: Aug  9, 2015 23:50 -->
<!-- CommandLine: -g data/results/biggest_11/abc/301.abc -O /home/allanino/Dropbox/Trabalhos/folkme/svg/301.svg -->
<g transform="scale(0.750)" stroke-width="0.70" font-family="Times" font-size="20.00">
<text x="354.13" y="21.67" text-anchor="middle">Ländler F 7-</text>
</g>
<g transform="scale(0.750)" stroke-width="0.70" font-family="Times" font-size="16.00">
<text x="354.13" y="41.30" text-anchor="middle">Hanny Christen. Bd.3 Appenzell. S.27 (LD03087b) orig. C-Dur</text>
<path stroke="currentColor" fill="none"
	d="M176.83 125.84v-24.00"/>
<path stroke="currentColor" fill="none"
	d="M248.93 125.84v-24.00"/>
<path stroke="currentColor" fill="none"
	d="M338.93 125.84v-24.00"/>
<path stroke="currentColor" fill="none"
	d="M413.23 125.84v-24.00"/>
<path stroke="currentColor" fill="none"
	d="M501.43 125.84v-24.00"/>
<path stroke="currentColor" fill="none"
	d="M598.23 125.84v-24.00"/>
<path stroke="currentColor" fill="none"
	d="M694.93 125.84v-24.00"/>
<path stroke="currentColor" fill="none"
	d="M13.33 125.84h681.60m-681.60 -6h681.60m-681.60 -6h681.60m-681.60 -6h681.60m-681.60 -6h681.60"/>
</g>
<g transform="scale(0.750)" stroke-width="0.70" font-family="Helvetica" font-size="12.00">
<text x="79.43" y="81.44">B♭</text>
<text x="183.73" y="81.44">F7</text>
<text x="345.53" y="81.44">B♭</text>
<text x="508.43" y="81.44">F7</text>
<text x="604.83" y="81.44">B♭</text>
<defs>
<path id="utclef" fill="currentColor" d="m-50 -90
	c-72 -41 -72 -158 52 -188
	c150 -10 220 188 90 256
	c-114 52 -275 0 -293 -136
	c-15 -181 93 -229 220 -334
	c88 -87 79 -133 62 -210
	c-51 33 -94 105 -89 186
	c17 267 36 374 49 574
	c6 96 -19 134 -77 135
	c-80 1 -126 -93 -61 -133
	c85 -41 133 101 31 105
	c23 17 92 37 90 -92
	c-10 -223 -39 -342 -50 -617
	c0 -90 0 -162 96 -232
	c56 72 63 230 22 289
	c-74 106 -257 168 -255 316
	c9 153 148 185 252 133
	c86 -65 29 -192 -80 -176
	c-71 12 -105 67 -59 124"/>
<use id="tclef" transform="scale(0.045)"
	xlink:href="#utclef"/>
</defs>
<use x="25.33" y="125.84" xlink:href="#tclef"/>
<defs>
<path id="uflat" fill="currentColor" d="
	m100 -746
	h32
	v734
	l-32 4
	m32 -332
	c46 -72 152 -90 208 -20
	c100 110 -120 326 -208 348
	m0 -28
	c54 0 200 -206 130 -290
	c-50 -60 -130 -4 -130 34"/>
<use id="ft0" transform="translate(-3.5,3.5) scale(0.018)"
	xlink:href="#uflat"/>
</defs>
<use x="40.33" y="113.84" xlink:href="#ft0"/>
<use x="45.83" y="104.84" xlink:href="#ft0"/>
<use x="51.33" y="116.84" xlink:href="#ft0"/>
<g font-family="serif" font-size="16" font-weight="bold" font-style="normal"
	transform="translate(67.33,125.84) scale(1.2,1)">
	<text y="-1" text-anchor="middle">4</text>
	<text y="-13" text-anchor="middle">3</text>
</g>
<path fill="currentColor"
	d="M81.53 133.84l79.20 0.00v-3.20l-79.20 -0.00"/>
<path fill="currentColor"
	d="M93.63 128.84l6.00 0.00v-3.20l-6.00 -0.00"/>
<defs>
<ellipse id="hd" rx="4.1" ry="2.9"
	transform="rotate(-20)" fill="currentColor"/>
</defs>
<use x="85.33" y="107.84" xlink:href="#hd"/>
<circle fill="currentColor" cx="93.33" cy="104.84" r="1.2"/>
<path d="M81.83 107.84v25.00" stroke="currentColor" fill="none"/>
<use x="103.13" y="110.84" xlink:href="#hd"/>
<path d="M99.63 110.84v22.00" stroke="currentColor" fill="none"/>
<use x="121.13" y="104.84" xlink:href="#hd"/>
<defs>
<path id="unat" fill="currentColor" d="
	m96 -750
	h-32
	v716
	l32 -8
	l182 -54
	v282
	h32
	v-706
	l-34 10
	l-180 50
	v-290
	m0 592
	v-190
	l182 -52
	v188"/>
<use id="nt0" transform="translate(-3,5) scale(0.018)"
	xlink:href="#unat"/>
</defs>
<use x="112.13" y="104.84" xlink:href="#nt0"/>
<path d="M117.63 104.84v28.00" stroke="currentColor" fill="none"/>
<use x="135.33" y="101.84" xlink:href="#hd"/>
<path d="M131.83 101.84v31.00" stroke="currentColor" fill="none"/>
<use x="149.53" y="107.84" xlink:href="#hd"/>
<path d="M146.03 107.84v25.00" stroke="currentColor" fill="none"/>
<use x="163.83" y="98.84" xlink:href="#hd"/>
<path d="M160.33 98.84v34.00" stroke="currentColor" fill="none"/>
<use x="189.33" y="101.84" xlink:href="#hd"/>
<path d="M185.83 101.84v20.00" stroke="currentColor" fill="none"/>
<use x="210.43" y="104.84" xlink:href="#hd"/>
<path d="M206.93 104.84v20.00" stroke="currentColor" fill="none"/>
<use x="231.53" y="104.84" xlink:href="#hd"/>
<path d="M228.03 104.84v20.00" stroke="currentColor" fill="none"/>
<use x="261.43" y="116.84" xlink:href="#hd"/>
<path d="M264.93 116.84v-20.00" stroke="currentColor" fill="none"/>
<path fill="currentColor"
	d="M279.33 130.04l43.40 -5.70v-3.20l-43.40 5.70"/>
<use x="283.13" y="110.84" xlink:href="#hd"/>
<path d="M279.63 110.84v18.20" stroke="currentColor" fill="none"/>
<use x="297.43" y="101.84" xlink:href="#hd"/>
<path d="M293.93 101.84v25.30" stroke="currentColor" fill="none"/>
<use x="311.63" y="104.84" xlink:href="#hd"/>
<path d="M308.13 104.84v20.50" stroke="currentColor" fill="none"/>
<defs>
<path id="hl" stroke="currentColor" d="m-6 0h12"/>
</defs>
<use x="325.93" y="95.84" xlink:href="#hl"/>
<use x="325.93" y="95.84" xlink:href="#hd"/>
<path d="M322.43 95.84v27.60" stroke="currentColor" fill="none"/>
<use x="351.43" y="95.84" xlink:href="#hl"/>
<use x="351.43" y="92.84" xlink:href="#hd"/>
<path d="M347.93 92.84v21.00" stroke="currentColor" fill="none"/>
<use x="374.73" y="101.84" xlink:href="#hd"/>
<use x="365.73" y="101.84" xlink:href="#nt0"/>
<path d="M371.23 101.84v20.00" stroke="currentColor" fill="none"/>
<use x="395.83" y="101.84" xlink:href="#hd"/>
<path d="M392.33 101.84v20.00" stroke="currentColor" fill="none"/>
<path fill="currentColor"
	d="M421.93 129.54l26.20 -2.50v-3.20l-26.20 2.50"/>
<path fill="currentColor"
	d="M441.73 122.74l6.00 -0.60v-3.20l-6.00 0.60"/>
<use x="425.73" y="107.84" xlink:href="#hd"/>
<circle fill="currentColor" cx="433.73" cy="104.84" r="1.2"/>
<path d="M422.23 107.84v20.70" stroke="currentColor" fill="none"/>
<use x="451.23" y="104.84" xlink:href="#hd"/>
<use x="442.23" y="104.84" xlink:href="#nt0"/>
<path d="M447.73 104.84v21.30" stroke="currentColor" fill="none"/>
<use x="462.93" y="101.84" xlink:href="#hd"/>
<path d="M459.43 101.84v20.00" stroke="currentColor" fill="none"/>
<use x="484.03" y="107.84" xlink:href="#hd"/>
<path d="M480.53 107.84v20.00" stroke="currentColor" fill="none"/>
<path fill="currentColor"
	d="M510.13 128.44l71.90 10.70v-3.20l-71.90 -10.70"/>
<use x="513.93" y="104.84" xlink:href="#hd"/>
<path d="M510.43 104.84v22.60" stroke="currentColor" fill="none"/>
<use x="528.23" y="107.84" xlink:href="#hd"/>
<path d="M524.73 107.84v21.80" stroke="currentColor" fill="none"/>
<use x="542.43" y="110.84" xlink:href="#hd"/>
<path d="M538.93 110.84v20.90" stroke="currentColor" fill="none"/>
<use x="556.73" y="113.84" xlink:href="#hd"/>
<path d="M553.23 113.84v20.00" stroke="currentColor" fill="none"/>
<use x="570.93" y="116.84" xlink:href="#hd"/>
<path d="M567.43 116.84v19.10" stroke="currentColor" fill="none"/>
<use x="585.13" y="119.84" xlink:href="#hd"/>
<path d="M581.63 119.84v18.20" stroke="currentColor" fill="none"/>
<path fill="currentColor"
	d="M606.83 137.64l71.90 -8.10v-3.20l-71.90 8.10"/>
<use x="610.73" y="113.84" xlink:href="#hd"/>
<path d="M607.23 113.84v22.80" stroke="currentColor" fill="none"/>
<use x="624.93" y="116.84" xlink:href="#hd"/>
<path d="M621.43 116.84v18.20" stroke="currentColor" fill="none"/>
<use x="639.13" y="113.84" xlink:href="#hd"/>
<path d="M635.63 113.84v19.60" stroke="currentColor" fill="none"/>
<use x="653.43" y="107.84" xlink:href="#hd"/>
<path d="M649.93 107.84v24.00" stroke="currentColor" fill="none"/>
<use x="667.63" y="98.84" xlink:href="#hd"/>
<path d="M664.13 98.84v31.40" stroke="currentColor" fill="none"/>
<use x="681.93" y="101.84" xlink:href="#hd"/>
<path d="M678.43 101.84v26.80" stroke="currentColor" fill="none"/>
<path stroke="currentColor" fill="none"
	d="M124.53 201.84v-24.00"/>
<path stroke="currentColor" fill="none"
	d="M192.83 201.84v-24.00"/>
<path stroke="currentColor" fill="none"
	d="M261.03 201.84v-24.00"/>
<path stroke="currentColor" fill="none"
	d="M328.73 201.84v-24.00"/>
<path stroke="currentColor" fill="none"
	d="M411.23 201.84v-24.00"/>
<path stroke="currentColor" fill="none"
	d="M478.93 201.84v-24.00"/>
<path stroke="currentColor" fill="none"
	d="M547.13 201.84v-24.00"/>
<path stroke="currentColor" fill="none"
	d="M622.83 201.84v-24.00"/>
<path stroke="currentColor" fill="none" stroke-width="3"
	d="M693.43 201.84v-24.00"/>
<path stroke="currentColor" fill="none"
	d="M688.93 201.84v-24.00"/>
<defs>
<g id="rdots" fill="currentColor">
	<circle cx="0" cy="-9" r="1.2"/>
	<circle cx="0" cy="-15" r="1.2"/>
</g>
</defs>
<use x="684.93" y="201.84" xlink:href="#rdots"/>
<path stroke="currentColor" fill="none"
	d="M13.33 201.84h681.60m-681.60 -6h681.60m-681.60 -6h681.60m-681.60 -6h681.60m-681.60 -6h681.60"/>
<text x="199.73" y="160.44">F7</text>
<text x="335.33" y="160.44">B♭</text>
<text x="457.23" y="160.44">F7</text>
<text x="485.53" y="160.44">B♭</text>
<text x="554.03" y="160.44">F7</text>
<text x="629.53" y="160.44">B♭</text>
<use x="25.33" y="201.84" xlink:href="#tclef"/>
<use x="40.33" y="189.84" xlink:href="#ft0"/>
<use x="45.83" y="180.84" xlink:href="#ft0"/>
<use x="51.33" y="192.84" xlink:href="#ft0"/>
<use x="69.33" y="180.84" xlink:href="#hd"/>
<path d="M65.83 180.84v20.00" stroke="currentColor" fill="none"/>
<use x="88.83" y="183.84" xlink:href="#hd"/>
<path d="M85.33 183.84v20.00" stroke="currentColor" fill="none"/>
<use x="108.43" y="189.84" xlink:href="#hd"/>
<path d="M104.93 189.84v20.00" stroke="currentColor" fill="none"/>
<use x="137.03" y="204.84" xlink:href="#hd"/>
<path d="M140.53 204.84v-20.00" stroke="currentColor" fill="none"/>
<use x="156.53" y="198.84" xlink:href="#hd"/>
<path d="M160.03 198.84v-20.00" stroke="currentColor" fill="none"/>
<use x="176.63" y="189.84" xlink:href="#hd"/>
<path d="M173.13 189.84v20.00" stroke="currentColor" fill="none"/>
<use x="205.33" y="189.84" xlink:href="#hd"/>
<path d="M208.83 189.84v-20.00" stroke="currentColor" fill="none"/>
<use x="224.83" y="192.84" xlink:href="#hd"/>
<path d="M228.33 192.84v-20.00" stroke="currentColor" fill="none"/>
<use x="244.93" y="171.84" xlink:href="#hl"/>
<use x="244.93" y="171.84" xlink:href="#hd"/>
<path d="M241.43 171.84v20.00" stroke="currentColor" fill="none"/>
<use x="273.53" y="180.84" xlink:href="#hd"/>
<path d="M270.03 180.84v20.00" stroke="currentColor" fill="none"/>
<use x="293.03" y="171.84" xlink:href="#hl"/>
<use x="293.03" y="171.84" xlink:href="#hd"/>
<path d="M289.53 171.84v20.00" stroke="currentColor" fill="none"/>
<use x="312.63" y="174.84" xlink:href="#hd"/>
<path d="M309.13 174.84v20.00" stroke="currentColor" fill="none"/>
<path fill="currentColor"
	d="M337.43 202.04l40.10 0.00v-3.20l-40.10 -0.00"/>
<use x="341.23" y="174.84" xlink:href="#hd"/>
<path d="M337.73 174.84v26.20" stroke="currentColor" fill="none"/>
<use x="354.43" y="177.84" xlink:href="#hd"/>
<path d="M350.93 177.84v23.20" stroke="currentColor" fill="none"/>
<use x="367.53" y="183.84" xlink:href="#hd"/>
<path d="M364.03 183.84v17.20" stroke="currentColor" fill="none"/>
<use x="380.63" y="177.84" xlink:href="#hd"/>
<path d="M377.13 177.84v23.20" stroke="currentColor" fill="none"/>
<use x="395.03" y="189.84" xlink:href="#hd"/>
<path d="M391.53 189.84v20.00" stroke="currentColor" fill="none"/>
<use x="423.73" y="189.84" xlink:href="#hd"/>
<path d="M420.23 189.84v20.00" stroke="currentColor" fill="none"/>
<use x="443.23" y="183.84" xlink:href="#hd"/>
<path d="M439.73 183.84v20.00" stroke="currentColor" fill="none"/>
<use x="462.73" y="186.84" xlink:href="#hd"/>
<path d="M459.23 186.84v20.00" stroke="currentColor" fill="none"/>
<use x="491.43" y="198.84" xlink:href="#hd"/>
<path d="M494.93 198.84v-20.00" stroke="currentColor" fill="none"/>
<use x="511.43" y="189.84" xlink:href="#hd"/>
<path d="M507.93 189.84v20.00" stroke="currentColor" fill="none"/>
<use x="531.03" y="189.84" xlink:href="#hd"/>
<path d="M527.53 189.84v20.00" stroke="currentColor" fill="none"/>
<path fill="currentColor"
	d="M555.83 212.14l13.80 -3.30v-3.20l-13.80 3.30"/>
<use x="559.63" y="192.84" xlink:href="#hd"/>
<path d="M556.13 192.84v18.20" stroke="currentColor" fill="none"/>
<use x="572.83" y="186.84" xlink:href="#hd"/>
<path d="M569.33 186.84v21.10" stroke="currentColor" fill="none"/>
<use x="587.23" y="180.84" xlink:href="#hd"/>
<path d="M583.73 180.84v20.00" stroke="currentColor" fill="none"/>
<use x="606.73" y="177.84" xlink:href="#hd"/>
<path d="M603.23 177.84v20.00" stroke="currentColor" fill="none"/>
<use x="635.33" y="189.84" xlink:href="#hd"/>
<path d="M631.83 189.84v20.00" stroke="currentColor" fill="none"/>
<use x="654.93" y="189.84" xlink:href="#hd"/>
<path d="M651.43 189.84v20.00" stroke="currentColor" fill="none"/>
<defs>
<path id="r4" fill="currentColor" d="m-1 -8.5
	l3.6 5.1 -2.1 5.2 2.2 4.3
	c-2.6 -2.3 -5.1 0 -2.4 2.6
	c-4.8 -3 -1.5 -6.9 1.4 -4.1
	l-3.1 -4.5 1.9 -5.1 -1.5 -3.5"/>
</defs>
<use x="674.43" y="189.84" xlink:href="#r4"/>
</g>
</svg>
