<?xml version="1.0" standalone="no"?>
<!DOCTYPE svg PUBLIC "-//W3C//DTD SVG 1.1//EN"
	"http://www.w3.org/Graphics/SVG/1.1/DTD/svg11.dtd">
<svg xmlns="http://www.w3.org/2000/svg" version="1.1"
	xmlns:xlink="http://www.w3.org/1999/xlink"
	xml:space='preserve' color="black"
	width="7.38in" height="4.01in" viewBox="0 0 531 289">
<title>data/results/biggest_11/abc/303.abc (303) tune 1</title>
<!-- Creator: abcm2ps-7.8.14 -->
<!-- CreationDate: Aug  9, 2015 23:50 -->
<!-- CommandLine: -g data/results/biggest_11/abc/303.abc -O /home/allanino/Dropbox/Trabalhos/folkme/svg/303.svg -->
<g transform="scale(0.750)" stroke-width="0.70" font-family="Times" font-size="20.00">
<text x="354.13" y="21.67" text-anchor="middle">Ländler CF</text>
</g>
<g transform="scale(0.750)" stroke-width="0.70" font-family="Times" font-size="16.00">
<text x="354.13" y="41.30" text-anchor="middle">Hanny Christen. Bd.IX Uri II, Schwyz, Unterwalden I S.418 (LD10280) orig. F,C,Bb-Dur</text>
<path stroke="currentColor" fill="none"
	d="M146.63 126.84v-24.00"/>
<path stroke="currentColor" fill="none"
	d="M222.73 126.84v-24.00"/>
<path stroke="currentColor" fill="none"
	d="M307.63 126.84v-24.00"/>
<path stroke="currentColor" fill="none"
	d="M377.93 126.84v-24.00"/>
<path stroke="currentColor" fill="none"
	d="M462.83 126.84v-24.00"/>
<path stroke="currentColor" fill="none"
	d="M547.63 126.84v-24.00"/>
<path stroke="currentColor" fill="none"
	d="M632.43 126.84v-24.00"/>
<path stroke="currentColor" fill="none"
	d="M694.93 126.84v-24.00"/>
<path stroke="currentColor" fill="none"
	d="M13.33 126.84h681.60m-681.60 -6h681.60m-681.60 -6h681.60m-681.60 -6h681.60m-681.60 -6h681.60"/>
</g>
<g transform="scale(0.750)" stroke-width="0.70" font-family="Helvetica" font-size="12.00">
<text x="71.43" y="81.44">F</text>
<text x="313.93" y="81.44">C7</text>
<text x="642.03" y="81.44">F</text>
<defs>
<path id="utclef" fill="currentColor" d="m-50 -90
	c-72 -41 -72 -158 52 -188
	c150 -10 220 188 90 256
	c-114 52 -275 0 -293 -136
	c-15 -181 93 -229 220 -334
	c88 -87 79 -133 62 -210
	c-51 33 -94 105 -89 186
	c17 267 36 374 49 574
	c6 96 -19 134 -77 135
	c-80 1 -126 -93 -61 -133
	c85 -41 133 101 31 105
	c23 17 92 37 90 -92
	c-10 -223 -39 -342 -50 -617
	c0 -90 0 -162 96 -232
	c56 72 63 230 22 289
	c-74 106 -257 168 -255 316
	c9 153 148 185 252 133
	c86 -65 29 -192 -80 -176
	c-71 12 -105 67 -59 124"/>
<use id="tclef" transform="scale(0.045)"
	xlink:href="#utclef"/>
</defs>
<use x="25.33" y="126.84" xlink:href="#tclef"/>
<defs>
<path id="uflat" fill="currentColor" d="
	m100 -746
	h32
	v734
	l-32 4
	m32 -332
	c46 -72 152 -90 208 -20
	c100 110 -120 326 -208 348
	m0 -28
	c54 0 200 -206 130 -290
	c-50 -60 -130 -4 -130 34"/>
<use id="ft0" transform="translate(-3.5,3.5) scale(0.018)"
	xlink:href="#uflat"/>
</defs>
<use x="40.33" y="114.84" xlink:href="#ft0"/>
<g font-family="serif" font-size="16" font-weight="bold" font-style="normal"
	transform="translate(56.33,126.84) scale(1.2,1)">
	<text y="-1" text-anchor="middle">4</text>
	<text y="-13" text-anchor="middle">3</text>
</g>
<path fill="currentColor"
	d="M77.53 92.04l61.70 -8.50v3.20l-61.70 8.50"/>
<defs>
<ellipse id="hd" rx="4.1" ry="2.9"
	transform="rotate(-20)" fill="currentColor"/>
</defs>
<use x="74.33" y="123.84" xlink:href="#hd"/>
<path d="M77.83 123.84v-30.80" stroke="currentColor" fill="none"/>
<use x="86.53" y="126.84" xlink:href="#hd"/>
<path d="M90.03 126.84v-35.50" stroke="currentColor" fill="none"/>
<use x="98.73" y="123.84" xlink:href="#hd"/>
<path d="M102.23 123.84v-34.20" stroke="currentColor" fill="none"/>
<use x="110.93" y="120.84" xlink:href="#hd"/>
<path d="M114.43 120.84v-32.80" stroke="currentColor" fill="none"/>
<use x="123.13" y="117.84" xlink:href="#hd"/>
<path d="M126.63 117.84v-31.50" stroke="currentColor" fill="none"/>
<use x="135.33" y="102.84" xlink:href="#hd"/>
<path d="M138.83 102.84v-18.20" stroke="currentColor" fill="none"/>
<path fill="currentColor"
	d="M155.33 137.04l37.30 0.00v-3.20l-37.30 -0.00"/>
<use x="159.13" y="108.84" xlink:href="#hd"/>
<path d="M155.63 108.84v27.20" stroke="currentColor" fill="none"/>
<use x="171.33" y="111.84" xlink:href="#hd"/>
<path d="M167.83 111.84v24.20" stroke="currentColor" fill="none"/>
<use x="183.53" y="117.84" xlink:href="#hd"/>
<path d="M180.03 117.84v18.20" stroke="currentColor" fill="none"/>
<use x="195.73" y="114.84" xlink:href="#hd"/>
<path d="M192.23 114.84v21.20" stroke="currentColor" fill="none"/>
<defs>
<path id="hl" stroke="currentColor" d="m-6 0h12"/>
</defs>
<use x="208.03" y="132.84" xlink:href="#hl"/>
<use x="208.03" y="132.84" xlink:href="#hd"/>
<path d="M211.53 132.84v-20.00" stroke="currentColor" fill="none"/>
<path fill="currentColor"
	d="M231.43 134.74l61.70 8.30v-3.20l-61.70 -8.30"/>
<use x="235.23" y="111.84" xlink:href="#hd"/>
<path d="M231.73 111.84v21.90" stroke="currentColor" fill="none"/>
<use x="247.43" y="96.84" xlink:href="#hl"/>
<use x="247.43" y="96.84" xlink:href="#hd"/>
<path d="M243.93 96.84v38.60" stroke="currentColor" fill="none"/>
<use x="259.63" y="102.84" xlink:href="#hd"/>
<path d="M256.13 102.84v34.20" stroke="currentColor" fill="none"/>
<use x="271.93" y="111.84" xlink:href="#hd"/>
<path d="M268.43 111.84v26.90" stroke="currentColor" fill="none"/>
<use x="284.13" y="117.84" xlink:href="#hd"/>
<path d="M280.63 117.84v22.50" stroke="currentColor" fill="none"/>
<use x="296.33" y="123.84" xlink:href="#hd"/>
<path d="M292.83 123.84v18.20" stroke="currentColor" fill="none"/>
<use x="320.13" y="105.84" xlink:href="#hd"/>
<path d="M316.63 105.84v20.00" stroke="currentColor" fill="none"/>
<path fill="currentColor"
	d="M333.83 130.94l12.90 3.20v-3.20l-12.90 -3.20"/>
<use x="337.73" y="108.84" xlink:href="#hd"/>
<path d="M334.23 108.84v21.20" stroke="currentColor" fill="none"/>
<use x="349.93" y="114.84" xlink:href="#hd"/>
<path d="M346.43 114.84v18.20" stroke="currentColor" fill="none"/>
<use x="363.13" y="111.84" xlink:href="#hd"/>
<path d="M359.63 111.84v20.00" stroke="currentColor" fill="none"/>
<path fill="currentColor"
	d="M393.63 86.64l61.70 0.00v3.20l-61.70 -0.00"/>
<use x="390.43" y="114.84" xlink:href="#hd"/>
<path d="M393.93 114.84v-27.20" stroke="currentColor" fill="none"/>
<use x="402.63" y="105.84" xlink:href="#hd"/>
<path d="M406.13 105.84v-18.20" stroke="currentColor" fill="none"/>
<use x="414.83" y="120.84" xlink:href="#hd"/>
<path d="M418.33 120.84v-33.20" stroke="currentColor" fill="none"/>
<use x="427.03" y="114.84" xlink:href="#hd"/>
<path d="M430.53 114.84v-27.20" stroke="currentColor" fill="none"/>
<use x="439.23" y="126.84" xlink:href="#hd"/>
<path d="M442.73 126.84v-39.20" stroke="currentColor" fill="none"/>
<use x="451.43" y="120.84" xlink:href="#hd"/>
<path d="M454.93 120.84v-33.20" stroke="currentColor" fill="none"/>
<path fill="currentColor"
	d="M478.43 89.64l61.70 0.00v3.20l-61.70 -0.00"/>
<use x="475.33" y="108.84" xlink:href="#hd"/>
<path d="M478.83 108.84v-18.20" stroke="currentColor" fill="none"/>
<use x="487.53" y="114.84" xlink:href="#hd"/>
<path d="M491.03 114.84v-24.20" stroke="currentColor" fill="none"/>
<use x="499.73" y="120.84" xlink:href="#hd"/>
<path d="M503.23 120.84v-30.20" stroke="currentColor" fill="none"/>
<use x="511.93" y="117.84" xlink:href="#hd"/>
<path d="M515.43 117.84v-27.20" stroke="currentColor" fill="none"/>
<use x="524.13" y="114.84" xlink:href="#hd"/>
<path d="M527.63 114.84v-24.20" stroke="currentColor" fill="none"/>
<use x="536.33" y="111.84" xlink:href="#hd"/>
<path d="M539.83 111.84v-21.20" stroke="currentColor" fill="none"/>
<path fill="currentColor"
	d="M556.23 134.04l61.70 0.00v-3.20l-61.70 -0.00"/>
<use x="560.13" y="105.84" xlink:href="#hd"/>
<path d="M556.63 105.84v27.20" stroke="currentColor" fill="none"/>
<use x="572.33" y="114.84" xlink:href="#hd"/>
<path d="M568.83 114.84v18.20" stroke="currentColor" fill="none"/>
<use x="584.53" y="111.84" xlink:href="#hd"/>
<path d="M581.03 111.84v21.20" stroke="currentColor" fill="none"/>
<use x="596.73" y="105.84" xlink:href="#hd"/>
<path d="M593.23 105.84v27.20" stroke="currentColor" fill="none"/>
<use x="608.93" y="114.84" xlink:href="#hd"/>
<path d="M605.43 114.84v18.20" stroke="currentColor" fill="none"/>
<use x="621.13" y="111.84" xlink:href="#hd"/>
<path d="M617.63 111.84v21.20" stroke="currentColor" fill="none"/>
<use x="644.93" y="108.84" xlink:href="#hd"/>
<circle fill="currentColor" cx="652.93" cy="105.84" r="1.2"/>
<path d="M641.43 108.84v20.00" stroke="currentColor" fill="none"/>
<use x="666.93" y="111.84" xlink:href="#hd"/>
<path d="M663.43 111.84v20.00" stroke="currentColor" fill="none"/>
<path fill="currentColor"
	d="M663.43 131.84c0.6 -5.6 9.6 -9 5.6 -18.4
	c1.6 6 -1.3 11.6 -5.6 12.8
"/>
<use x="680.13" y="111.84" xlink:href="#hd"/>
<path d="M676.63 111.84v20.00" stroke="currentColor" fill="none"/>
<path stroke="currentColor" fill="none"
	d="M146.23 207.84v-24.00"/>
<path stroke="currentColor" fill="none"
	d="M246.93 207.84v-24.00"/>
<path stroke="currentColor" fill="none"
	d="M331.93 207.84v-24.00"/>
<path stroke="currentColor" fill="none"
	d="M407.63 207.84v-24.00"/>
<path stroke="currentColor" fill="none"
	d="M508.03 207.84v-24.00"/>
<path stroke="currentColor" fill="none" stroke-width="3"
	d="M590.83 207.84v-24.00"/>
<path stroke="currentColor" fill="none"
	d="M586.33 207.84v-24.00"/>
<defs>
<g id="rdots" fill="currentColor">
	<circle cx="0" cy="-9" r="1.2"/>
	<circle cx="0" cy="-15" r="1.2"/>
</g>
</defs>
<use x="582.33" y="207.84" xlink:href="#rdots"/>
<path stroke="currentColor" fill="none"
	d="M694.93 207.84v-24.00"/>
<path stroke="currentColor" fill="none"
	d="M691.93 207.84v-24.00"/>
<path stroke="currentColor" fill="none"
	d="M13.33 207.84h681.60m-681.60 -6h681.60m-681.60 -6h681.60m-681.60 -6h681.60m-681.60 -6h681.60"/>
<text x="152.83" y="163.44">B♭</text>
<text x="256.43" y="163.44">F</text>
<text x="338.33" y="163.44">C7</text>
<text x="524.03" y="163.44">F</text>
<text x="608.33" y="163.44">F</text>
</g>
<g transform="scale(0.750)" stroke-width="0.70" font-family="Times" font-size="13.00">
<text x="512.03" y="163.24">1</text>
<path stroke="currentColor" fill="none"
	d="M508.03 151.84v20M508.03 151.84h76.30v20"/>
<text x="596.33" y="163.24">2</text>
<path stroke="currentColor" fill="none"
	d="M592.33 151.84v20M592.33 151.84h102.60v20"/>
<use x="25.33" y="207.84" xlink:href="#tclef"/>
<use x="40.33" y="195.84" xlink:href="#ft0"/>
<path fill="currentColor"
	d="M54.53 218.04l75.10 -8.00v-3.20l-75.10 8.00"/>
<use x="58.33" y="198.84" xlink:href="#hd"/>
<path d="M54.83 198.84v18.20" stroke="currentColor" fill="none"/>
<use x="73.23" y="192.84" xlink:href="#hd"/>
<path d="M69.73 192.84v22.60" stroke="currentColor" fill="none"/>
<use x="88.13" y="183.84" xlink:href="#hd"/>
<path d="M84.63 183.84v30.00" stroke="currentColor" fill="none"/>
<use x="102.93" y="177.84" xlink:href="#hl"/>
<use x="102.93" y="177.84" xlink:href="#hd"/>
<path d="M99.43 177.84v34.50" stroke="currentColor" fill="none"/>
<use x="117.83" y="180.84" xlink:href="#hd"/>
<path d="M114.33 180.84v29.90" stroke="currentColor" fill="none"/>
<use x="132.73" y="183.84" xlink:href="#hd"/>
<path d="M129.23 183.84v25.30" stroke="currentColor" fill="none"/>
<path fill="currentColor"
	d="M154.93 208.04l75.40 0.00v-3.20l-75.40 -0.00"/>
<use x="158.73" y="189.84" xlink:href="#hd"/>
<path d="M155.23 189.84v17.20" stroke="currentColor" fill="none"/>
<use x="173.63" y="177.84" xlink:href="#hl"/>
<use x="173.63" y="174.84" xlink:href="#hd"/>
<path d="M170.13 174.84v32.20" stroke="currentColor" fill="none"/>
<use x="188.73" y="177.84" xlink:href="#hl"/>
<use x="188.73" y="174.84" xlink:href="#hd"/>
<path d="M185.23 174.84v32.20" stroke="currentColor" fill="none"/>
<use x="203.63" y="189.84" xlink:href="#hd"/>
<path d="M200.13 189.84v17.20" stroke="currentColor" fill="none"/>
<use x="218.53" y="183.84" xlink:href="#hd"/>
<path d="M215.03 183.84v23.20" stroke="currentColor" fill="none"/>
<use x="233.43" y="186.84" xlink:href="#hd"/>
<path d="M229.93 186.84v20.20" stroke="currentColor" fill="none"/>
<path fill="currentColor"
	d="M255.53 203.14l15.60 -3.50v-3.20l-15.60 3.50"/>
<use x="259.43" y="183.84" xlink:href="#hd"/>
<path d="M255.93 183.84v18.20" stroke="currentColor" fill="none"/>
<use x="274.33" y="177.84" xlink:href="#hl"/>
<use x="274.33" y="177.84" xlink:href="#hd"/>
<path d="M270.83 177.84v20.90" stroke="currentColor" fill="none"/>
<use x="290.63" y="192.84" xlink:href="#hd"/>
<circle fill="currentColor" cx="298.63" cy="192.84" r="1.2"/>
<path d="M287.13 192.84v20.00" stroke="currentColor" fill="none"/>
<use x="314.93" y="198.84" xlink:href="#hd"/>
<path d="M318.43 198.84v-20.00" stroke="currentColor" fill="none"/>
<path fill="currentColor"
	d="	M318.43 178.84c0.6 5.6 9.6 9 5.6 18.4
	c1.6 -6 -1.3 -11.6 -5.6 -12.8
"/>
<use x="344.43" y="189.84" xlink:href="#hd"/>
<path d="M340.93 189.84v20.00" stroke="currentColor" fill="none"/>
<use x="366.83" y="192.84" xlink:href="#hd"/>
<path d="M363.33 192.84v20.00" stroke="currentColor" fill="none"/>
<use x="389.23" y="192.84" xlink:href="#hd"/>
<path d="M385.73 192.84v20.00" stroke="currentColor" fill="none"/>
<path fill="currentColor"
	d="M416.23 210.84l75.10 0.00v-3.20l-75.10 -0.00"/>
<use x="420.13" y="192.84" xlink:href="#hd"/>
<path d="M416.63 192.84v17.00" stroke="currentColor" fill="none"/>
<use x="435.03" y="177.84" xlink:href="#hl"/>
<use x="435.03" y="174.84" xlink:href="#hd"/>
<path d="M431.53 174.84v35.00" stroke="currentColor" fill="none"/>
<use x="449.83" y="180.84" xlink:href="#hd"/>
<path d="M446.33 180.84v29.00" stroke="currentColor" fill="none"/>
<use x="464.73" y="186.84" xlink:href="#hd"/>
<path d="M461.23 186.84v23.00" stroke="currentColor" fill="none"/>
<use x="479.63" y="192.84" xlink:href="#hd"/>
<path d="M476.13 192.84v17.00" stroke="currentColor" fill="none"/>
<use x="494.53" y="186.84" xlink:href="#hd"/>
<path d="M491.03 186.84v23.00" stroke="currentColor" fill="none"/>
<use x="527.03" y="183.84" xlink:href="#hd"/>
<path d="M523.53 183.84v20.00" stroke="currentColor" fill="none"/>
<defs>
<path id="r4" fill="currentColor" d="m-1 -8.5
	l3.6 5.1 -2.1 5.2 2.2 4.3
	c-2.6 -2.3 -5.1 0 -2.4 2.6
	c-4.8 -3 -1.5 -6.9 1.4 -4.1
	l-3.1 -4.5 1.9 -5.1 -1.5 -3.5"/>
</defs>
<use x="549.43" y="195.84" xlink:href="#r4"/>
<use x="571.83" y="192.84" xlink:href="#hd"/>
<path d="M568.33 192.84v20.00" stroke="currentColor" fill="none"/>
<use x="611.33" y="183.84" xlink:href="#hd"/>
<path d="M607.83 183.84v20.00" stroke="currentColor" fill="none"/>
<defs>
<path id="r8e" fill="currentColor" d="m 0 0
	c-1.5 1.5 -2.4 2 -3.6 2
	c2.4 -2.8 -2.8 -4 -2.8 -1.2
	c0 2.7 4.3 2.4 5.9 0.6"/>
<g id="r8">
	<path d="m3.3 -4l-3.4 9.6" stroke="currentColor" fill="none"/>
	<use x="3.4" y="-4" xlink:href="#r8e"/>
</g>
</defs>
<use x="631.63" y="195.84" xlink:href="#r8"/>
<path fill="currentColor"
	d="M644.13 215.04l33.60 0.00v-3.20l-33.60 -0.00"/>
<use x="647.93" y="192.84" xlink:href="#hd"/>
<path d="M644.43 192.84v21.20" stroke="currentColor" fill="none"/>
<use x="665.93" y="195.84" xlink:href="#hd"/>
<defs>
<path id="unat" fill="currentColor" d="
	m96 -750
	h-32
	v716
	l32 -8
	l182 -54
	v282
	h32
	v-706
	l-34 10
	l-180 50
	v-290
	m0 592
	v-190
	l182 -52
	v188"/>
<use id="nt0" transform="translate(-3,5) scale(0.018)"
	xlink:href="#unat"/>
</defs>
<use x="656.93" y="195.84" xlink:href="#nt0"/>
<path d="M662.43 195.84v18.20" stroke="currentColor" fill="none"/>
<use x="680.83" y="192.84" xlink:href="#hd"/>
<path d="M677.33 192.84v21.20" stroke="currentColor" fill="none"/>
<use x="64.83" y="283.84" xlink:href="#rdots"/>
<path stroke="currentColor" fill="none"
	d="M60.83 283.84v-24.00"/>
<path stroke="currentColor" fill="none" stroke-width="3"
	d="M56.33 283.84v-24.00"/>
<path stroke="currentColor" fill="none"
	d="M195.43 283.84v-24.00"/>
<path stroke="currentColor" fill="none"
	d="M302.83 283.84v-24.00"/>
<path stroke="currentColor" fill="none"
	d="M422.03 283.84v-24.00"/>
<path stroke="currentColor" fill="none"
	d="M554.93 283.84v-24.00"/>
<path stroke="currentColor" fill="none"
	d="M694.93 283.84v-24.00"/>
<path stroke="currentColor" fill="none"
	d="M13.33 283.84h681.60m-681.60 -6h681.60m-681.60 -6h681.60m-681.60 -6h681.60m-681.60 -6h681.60"/>
</g>
<g transform="scale(0.750)" stroke-width="0.70" font-family="Helvetica" font-size="12.00">
<text x="72.13" y="242.44">C7</text>
<text x="204.93" y="242.44">F</text>
<text x="309.13" y="242.44">C7</text>
<text x="431.53" y="242.44">F</text>
<text x="561.33" y="242.44">C7</text>
<use x="25.33" y="283.84" xlink:href="#tclef"/>
<use x="40.33" y="271.84" xlink:href="#ft0"/>
<path fill="currentColor"
	d="M74.53 282.14l22.30 -4.00v-3.20l-22.30 4.00"/>
<use x="78.33" y="262.84" xlink:href="#hd"/>
<path d="M74.83 262.84v18.20" stroke="currentColor" fill="none"/>
<use x="99.93" y="256.84" xlink:href="#hd"/>
<path d="M96.43 256.84v20.30" stroke="currentColor" fill="none"/>
<use x="124.03" y="256.84" xlink:href="#hd"/>
<path d="M120.53 256.84v20.00" stroke="currentColor" fill="none"/>
<path fill="currentColor"
	d="M157.63 254.64l22.30 -5.10v3.20l-22.30 5.10"/>
<use x="154.53" y="277.84" xlink:href="#hd"/>
<path d="M158.03 277.84v-22.30" stroke="currentColor" fill="none"/>
<use x="176.13" y="268.84" xlink:href="#hd"/>
<path d="M179.63 268.84v-18.20" stroke="currentColor" fill="none"/>
<use x="207.93" y="271.84" xlink:href="#hd"/>
<path d="M211.43 271.84v-20.00" stroke="currentColor" fill="none"/>
<use x="241.73" y="274.84" xlink:href="#hd"/>
<path d="M245.23 274.84v-20.00" stroke="currentColor" fill="none"/>
<use x="275.73" y="268.84" xlink:href="#hd"/>
<path d="M272.23 268.84v20.00" stroke="currentColor" fill="none"/>
<path fill="currentColor"
	d="M311.53 278.04l22.30 0.00v-3.20l-22.30 -0.00"/>
<use x="315.33" y="256.84" xlink:href="#hd"/>
<path d="M311.83 256.84v20.20" stroke="currentColor" fill="none"/>
<use x="336.93" y="256.84" xlink:href="#hd"/>
<path d="M333.43 256.84v20.20" stroke="currentColor" fill="none"/>
<use x="361.03" y="256.84" xlink:href="#hd"/>
<path d="M357.53 256.84v20.00" stroke="currentColor" fill="none"/>
<use x="394.83" y="271.84" xlink:href="#hd"/>
<path d="M391.33 271.84v20.00" stroke="currentColor" fill="none"/>
<path fill="currentColor"
	d="M430.63 294.14l22.30 -7.40v-3.20l-22.30 7.40"/>
<use x="434.53" y="274.84" xlink:href="#hd"/>
<path d="M431.03 274.84v18.20" stroke="currentColor" fill="none"/>
<use x="456.13" y="253.84" xlink:href="#hl"/>
<use x="456.13" y="253.84" xlink:href="#hd"/>
<path d="M452.63 253.84v32.10" stroke="currentColor" fill="none"/>
<use x="480.13" y="259.84" xlink:href="#hd"/>
<path d="M476.63 259.84v20.00" stroke="currentColor" fill="none"/>
<path fill="currentColor"
	d="M510.23 287.64l22.30 6.50v-3.20l-22.30 -6.50"/>
<use x="514.03" y="259.84" xlink:href="#hd"/>
<path d="M510.53 259.84v26.90" stroke="currentColor" fill="none"/>
<use x="535.63" y="274.84" xlink:href="#hd"/>
<path d="M532.13 274.84v18.20" stroke="currentColor" fill="none"/>
<path fill="currentColor"
	d="M563.63 295.54l108.90 -7.20v-3.20l-108.90 7.20"/>
<use x="567.43" y="271.84" xlink:href="#hd"/>
<path d="M563.93 271.84v22.60" stroke="currentColor" fill="none"/>
<use x="589.13" y="274.84" xlink:href="#hd"/>
<path d="M585.63 274.84v18.20" stroke="currentColor" fill="none"/>
<use x="610.73" y="256.84" xlink:href="#hd"/>
<path d="M607.23 256.84v34.80" stroke="currentColor" fill="none"/>
<use x="632.33" y="271.84" xlink:href="#hd"/>
<path d="M628.83 271.84v18.30" stroke="currentColor" fill="none"/>
<use x="654.03" y="262.84" xlink:href="#hd"/>
<path d="M650.53 262.84v25.90" stroke="currentColor" fill="none"/>
<use x="675.63" y="256.84" xlink:href="#hd"/>
<path d="M672.13 256.84v30.50" stroke="currentColor" fill="none"/>
<use x="104.23" y="361.84" xlink:href="#rdots"/>
<path stroke="currentColor" fill="none" stroke-width="3"
	d="M98.73 361.84v-24.00"/>
<path stroke="currentColor" fill="none" stroke-width="3"
	d="M92.73 361.84v-24.00"/>
<use x="87.23" y="361.84" xlink:href="#rdots"/>
<path stroke="currentColor" fill="none"
	d="M194.53 361.84v-24.00"/>
<path stroke="currentColor" fill="none"
	d="M261.83 361.84v-24.00"/>
<path stroke="currentColor" fill="none"
	d="M330.63 361.84v-24.00"/>
<path stroke="currentColor" fill="none"
	d="M388.93 361.84v-24.00"/>
<path stroke="currentColor" fill="none"
	d="M456.23 361.84v-24.00"/>
<path stroke="currentColor" fill="none"
	d="M514.63 361.84v-24.00"/>
<path stroke="currentColor" fill="none"
	d="M581.93 361.84v-24.00"/>
<path stroke="currentColor" fill="none" stroke-width="3"
	d="M639.43 361.84v-24.00"/>
<path stroke="currentColor" fill="none"
	d="M634.93 361.84v-24.00"/>
<use x="630.93" y="361.84" xlink:href="#rdots"/>
<path stroke="currentColor" fill="none" stroke-width="3"
	d="M693.43 361.84v-24.00"/>
<path stroke="currentColor" fill="none"
	d="M688.93 361.84v-24.00"/>
<path stroke="currentColor" fill="none"
	d="M13.33 361.84h681.60m-681.60 -6h681.60m-681.60 -6h681.60m-681.60 -6h681.60m-681.60 -6h681.60"/>
<text x="55.43" y="320.44">F</text>
<text x="133.93" y="320.44">B♭</text>
<text x="268.73" y="320.44">F7</text>
<text x="337.23" y="320.44">B♭</text>
<text x="463.13" y="320.44">F7</text>
<text x="596.43" y="320.44">E♭</text>
<text x="655.43" y="320.44">E♭</text>
</g>
<g transform="scale(0.750)" stroke-width="0.70" font-family="Times" font-size="13.00">
<text x="585.93" y="320.24">1</text>
<path stroke="currentColor" fill="none"
	d="M581.93 308.84v20M581.93 308.84h51.00v20"/>
<text x="644.93" y="320.24">2</text>
<path stroke="currentColor" fill="none"
	d="M640.93 308.84v20M640.93 308.84h54.00v20"/>
<use x="25.33" y="361.84" xlink:href="#tclef"/>
<use x="40.33" y="349.84" xlink:href="#ft0"/>
<use x="58.33" y="337.84" xlink:href="#hd"/>
<path d="M54.83 337.84v20.00" stroke="currentColor" fill="none"/>
<use x="67.53" y="337.84" xlink:href="#hd"/>
<path d="M64.03 337.84v20.00" stroke="currentColor" fill="none"/>
<use x="76.73" y="349.84" xlink:href="#r4"/>
<use x="116.23" y="349.84" xlink:href="#ft0"/>
<use x="121.73" y="340.84" xlink:href="#ft0"/>
<path fill="currentColor"
	d="M135.93 362.04l46.00 0.00v-3.20l-46.00 -0.00"/>
<use x="139.73" y="337.84" xlink:href="#hd"/>
<path d="M136.23 337.84v23.20" stroke="currentColor" fill="none"/>
<use x="148.83" y="343.84" xlink:href="#hd"/>
<path d="M145.33 343.84v17.20" stroke="currentColor" fill="none"/>
<use x="157.93" y="343.84" xlink:href="#hd"/>
<path d="M154.43 343.84v17.20" stroke="currentColor" fill="none"/>
<use x="166.93" y="337.84" xlink:href="#hd"/>
<path d="M163.43 337.84v23.20" stroke="currentColor" fill="none"/>
<use x="176.03" y="343.84" xlink:href="#hd"/>
<path d="M172.53 343.84v17.20" stroke="currentColor" fill="none"/>
<use x="185.03" y="337.84" xlink:href="#hd"/>
<path d="M181.53 337.84v23.20" stroke="currentColor" fill="none"/>
<path fill="currentColor"
	d="M203.23 369.04l46.00 0.00v-3.20l-46.00 -0.00"/>
<use x="207.03" y="334.84" xlink:href="#hd"/>
<path d="M203.53 334.84v33.20" stroke="currentColor" fill="none"/>
<use x="216.13" y="343.84" xlink:href="#hd"/>
<path d="M212.63 343.84v24.20" stroke="currentColor" fill="none"/>
<use x="225.13" y="337.84" xlink:href="#hd"/>
<path d="M221.63 337.84v30.20" stroke="currentColor" fill="none"/>
<use x="234.23" y="349.84" xlink:href="#hd"/>
<path d="M230.73 349.84v18.20" stroke="currentColor" fill="none"/>
<use x="243.23" y="334.84" xlink:href="#hd"/>
<path d="M239.73 334.84v33.20" stroke="currentColor" fill="none"/>
<use x="252.33" y="337.84" xlink:href="#hd"/>
<path d="M248.83 337.84v30.20" stroke="currentColor" fill="none"/>
<path fill="currentColor"
	d="M270.53 372.04l47.40 0.00v-3.20l-47.40 -0.00"/>
<use x="274.33" y="340.84" xlink:href="#hd"/>
<path d="M270.83 340.84v30.20" stroke="currentColor" fill="none"/>
<use x="283.43" y="331.84" xlink:href="#hl"/>
<use x="283.43" y="331.84" xlink:href="#hd"/>
<path d="M279.93 331.84v39.20" stroke="currentColor" fill="none"/>
<use x="293.93" y="331.84" xlink:href="#hl"/>
<use x="293.93" y="331.84" xlink:href="#hd"/>
<path d="M290.43 331.84v39.20" stroke="currentColor" fill="none"/>
<use x="302.93" y="352.84" xlink:href="#hd"/>
<path d="M299.43 352.84v18.20" stroke="currentColor" fill="none"/>
<use x="312.03" y="331.84" xlink:href="#hl"/>
<use x="312.03" y="331.84" xlink:href="#hd"/>
<path d="M308.53 331.84v39.20" stroke="currentColor" fill="none"/>
<use x="321.03" y="334.84" xlink:href="#hd"/>
<path d="M317.53 334.84v36.20" stroke="currentColor" fill="none"/>
<path fill="currentColor"
	d="M339.23 362.04l27.80 0.00v-3.20l-27.80 -0.00"/>
<use x="343.13" y="334.84" xlink:href="#hd"/>
<path d="M339.63 334.84v26.20" stroke="currentColor" fill="none"/>
<use x="352.13" y="337.84" xlink:href="#hd"/>
<path d="M348.63 337.84v23.20" stroke="currentColor" fill="none"/>
<use x="361.23" y="337.84" xlink:href="#hd"/>
<path d="M357.73 337.84v23.20" stroke="currentColor" fill="none"/>
<use x="370.23" y="343.84" xlink:href="#hd"/>
<path d="M366.73 343.84v17.20" stroke="currentColor" fill="none"/>
<use x="379.33" y="334.84" xlink:href="#hd"/>
<path d="M375.83 334.84v20.00" stroke="currentColor" fill="none"/>
<path fill="currentColor"
	d="M397.63 369.04l46.00 0.00v-3.20l-46.00 -0.00"/>
<use x="401.43" y="343.84" xlink:href="#hd"/>
<path d="M397.93 343.84v24.20" stroke="currentColor" fill="none"/>
<use x="410.53" y="337.84" xlink:href="#hd"/>
<path d="M407.03 337.84v30.20" stroke="currentColor" fill="none"/>
<use x="419.53" y="349.84" xlink:href="#hd"/>
<path d="M416.03 349.84v18.20" stroke="currentColor" fill="none"/>
<use x="428.63" y="343.84" xlink:href="#hd"/>
<path d="M425.13 343.84v24.20" stroke="currentColor" fill="none"/>
<use x="437.63" y="337.84" xlink:href="#hd"/>
<path d="M434.13 337.84v30.20" stroke="currentColor" fill="none"/>
<use x="446.73" y="349.84" xlink:href="#hd"/>
<path d="M443.23 349.84v18.20" stroke="currentColor" fill="none"/>
<use x="468.73" y="346.84" xlink:href="#hd"/>
<path d="M465.23 346.84v20.00" stroke="currentColor" fill="none"/>
<path fill="currentColor"
	d="M474.13 358.84l27.80 0.00v-3.20l-27.80 -0.00"/>
<use x="477.93" y="337.84" xlink:href="#hd"/>
<path d="M474.43 337.84v20.00" stroke="currentColor" fill="none"/>
<use x="487.03" y="337.84" xlink:href="#hd"/>
<path d="M483.53 337.84v20.00" stroke="currentColor" fill="none"/>
<use x="496.03" y="340.84" xlink:href="#hd"/>
<path d="M492.53 340.84v17.00" stroke="currentColor" fill="none"/>
<use x="505.13" y="337.84" xlink:href="#hd"/>
<path d="M501.63 337.84v20.00" stroke="currentColor" fill="none"/>
<path fill="currentColor"
	d="M523.33 364.04l46.00 8.10v-3.20l-46.00 -8.10"/>
<use x="527.13" y="331.84" xlink:href="#hl"/>
<use x="527.13" y="331.84" xlink:href="#hd"/>
<path d="M523.63 331.84v31.20" stroke="currentColor" fill="none"/>
<use x="536.13" y="334.84" xlink:href="#hd"/>
<path d="M532.63 334.84v29.80" stroke="currentColor" fill="none"/>
<use x="545.23" y="337.84" xlink:href="#hd"/>
<path d="M541.73 337.84v28.40" stroke="currentColor" fill="none"/>
<use x="554.33" y="340.84" xlink:href="#hd"/>
<path d="M550.83 340.84v27.00" stroke="currentColor" fill="none"/>
<use x="563.33" y="346.84" xlink:href="#hd"/>
<path d="M559.83 346.84v22.60" stroke="currentColor" fill="none"/>
<use x="572.43" y="352.84" xlink:href="#hd"/>
<path d="M568.93 352.84v18.20" stroke="currentColor" fill="none"/>
<use x="601.93" y="349.84" xlink:href="#hd"/>
<path d="M598.43 349.84v20.00" stroke="currentColor" fill="none"/>
<use x="611.23" y="340.84" xlink:href="#hd"/>
<path d="M607.73 340.84v20.00" stroke="currentColor" fill="none"/>
<use x="620.43" y="349.84" xlink:href="#hd"/>
<path d="M616.93 349.84v20.00" stroke="currentColor" fill="none"/>
<use x="661.03" y="361.84" xlink:href="#hd"/>
<path d="M664.53 361.84v-20.00" stroke="currentColor" fill="none"/>
<use x="670.23" y="349.84" xlink:href="#r4"/>
<use x="679.43" y="349.84" xlink:href="#r4"/>
</g>
</svg>
