<?xml version="1.0" standalone="no"?>
<!DOCTYPE svg PUBLIC "-//W3C//DTD SVG 1.1//EN"
	"http://www.w3.org/Graphics/SVG/1.1/DTD/svg11.dtd">
<svg xmlns="http://www.w3.org/2000/svg" version="1.1"
	xmlns:xlink="http://www.w3.org/1999/xlink"
	xml:space='preserve' color="black"
	width="7.38in" height="2.26in" viewBox="0 0 531 163">
<title>data/results/biggest_11/abc/305.abc (305) tune 1</title>
<!-- Creator: abcm2ps-7.8.14 -->
<!-- CreationDate: Aug  9, 2015 23:50 -->
<!-- CommandLine: -g data/results/biggest_11/abc/305.abc -O /home/allanino/Dropbox/Trabalhos/folkme/svg/305.svg -->
<g transform="scale(0.750)" stroke-width="0.70" font-family="Times" font-size="20.00">
<text x="354.13" y="21.67" text-anchor="middle">Mazurka FBb</text>
<path stroke="currentColor" fill="none"
	d="M164.13 101.01v-24.00"/>
<path stroke="currentColor" fill="none"
	d="M266.33 101.01v-24.00"/>
<path stroke="currentColor" fill="none"
	d="M377.73 101.01v-24.00"/>
<path stroke="currentColor" fill="none"
	d="M479.93 101.01v-24.00"/>
<path stroke="currentColor" fill="none"
	d="M592.73 101.01v-24.00"/>
<path stroke="currentColor" fill="none"
	d="M694.93 101.01v-24.00"/>
<path stroke="currentColor" fill="none"
	d="M13.33 101.01h681.60m-681.60 -6h681.60m-681.60 -6h681.60m-681.60 -6h681.60m-681.60 -6h681.60"/>
</g>
<g transform="scale(0.750)" stroke-width="0.70" font-family="Helvetica" font-size="12.00">
<text x="71.43" y="62.61">F</text>
<text x="170.53" y="62.61">C7</text>
<text x="387.33" y="62.61">F</text>
<text x="599.13" y="62.61">C7</text>
<defs>
<path id="utclef" fill="currentColor" d="m-50 -90
	c-72 -41 -72 -158 52 -188
	c150 -10 220 188 90 256
	c-114 52 -275 0 -293 -136
	c-15 -181 93 -229 220 -334
	c88 -87 79 -133 62 -210
	c-51 33 -94 105 -89 186
	c17 267 36 374 49 574
	c6 96 -19 134 -77 135
	c-80 1 -126 -93 -61 -133
	c85 -41 133 101 31 105
	c23 17 92 37 90 -92
	c-10 -223 -39 -342 -50 -617
	c0 -90 0 -162 96 -232
	c56 72 63 230 22 289
	c-74 106 -257 168 -255 316
	c9 153 148 185 252 133
	c86 -65 29 -192 -80 -176
	c-71 12 -105 67 -59 124"/>
<use id="tclef" transform="scale(0.045)"
	xlink:href="#utclef"/>
</defs>
<use x="25.33" y="101.01" xlink:href="#tclef"/>
<defs>
<path id="uflat" fill="currentColor" d="
	m100 -746
	h32
	v734
	l-32 4
	m32 -332
	c46 -72 152 -90 208 -20
	c100 110 -120 326 -208 348
	m0 -28
	c54 0 200 -206 130 -290
	c-50 -60 -130 -4 -130 34"/>
<use id="ft0" transform="translate(-3.5,3.5) scale(0.018)"
	xlink:href="#uflat"/>
</defs>
<use x="40.33" y="89.01" xlink:href="#ft0"/>
<g font-family="serif" font-size="16" font-weight="bold" font-style="normal"
	transform="translate(56.33,101.01) scale(1.2,1)">
	<text y="-1" text-anchor="middle">4</text>
	<text y="-13" text-anchor="middle">3</text>
</g>
<path fill="currentColor"
	d="M70.53 111.31l51.00 -8.70v-3.20l-51.00 8.70"/>
<defs>
<ellipse id="hd" rx="4.1" ry="2.9"
	transform="rotate(-20)" fill="currentColor"/>
</defs>
<use x="74.33" y="92.01" xlink:href="#hd"/>
<path d="M70.83 92.01v18.20" stroke="currentColor" fill="none"/>
<use x="91.13" y="86.01" xlink:href="#hd"/>
<path d="M87.63 86.01v21.30" stroke="currentColor" fill="none"/>
<use x="107.83" y="77.01" xlink:href="#hd"/>
<path d="M104.33 77.01v27.50" stroke="currentColor" fill="none"/>
<defs>
<path id="hl" stroke="currentColor" d="m-6 0h12"/>
</defs>
<use x="124.63" y="71.01" xlink:href="#hl"/>
<use x="124.63" y="71.01" xlink:href="#hd"/>
<path d="M121.13 71.01v30.60" stroke="currentColor" fill="none"/>
<use x="143.33" y="71.01" xlink:href="#hl"/>
<use x="143.33" y="65.01" xlink:href="#hl"/>
<use x="143.33" y="65.01" xlink:href="#hd"/>
<path d="M139.83 65.01v24.00" stroke="currentColor" fill="none"/>
<path fill="currentColor"
	d="M172.83 100.71l51.00 4.50v-3.20l-51.00 -4.50"/>
<use x="176.63" y="74.01" xlink:href="#hd"/>
<path d="M173.13 74.01v25.80" stroke="currentColor" fill="none"/>
<use x="193.43" y="80.01" xlink:href="#hd"/>
<path d="M189.93 80.01v21.20" stroke="currentColor" fill="none"/>
<use x="210.23" y="74.01" xlink:href="#hd"/>
<path d="M206.73 74.01v28.70" stroke="currentColor" fill="none"/>
<use x="226.93" y="86.01" xlink:href="#hd"/>
<path d="M223.43 86.01v18.20" stroke="currentColor" fill="none"/>
<use x="245.53" y="74.01" xlink:href="#hd"/>
<path d="M242.03 74.01v20.00" stroke="currentColor" fill="none"/>
<path fill="currentColor"
	d="M275.03 108.21l84.50 0.00v-3.20l-84.50 -0.00"/>
<use x="278.83" y="80.01" xlink:href="#hd"/>
<path d="M275.33 80.01v27.20" stroke="currentColor" fill="none"/>
<use x="295.63" y="74.01" xlink:href="#hd"/>
<path d="M292.13 74.01v33.20" stroke="currentColor" fill="none"/>
<use x="312.43" y="89.01" xlink:href="#hd"/>
<path d="M308.93 89.01v18.20" stroke="currentColor" fill="none"/>
<use x="329.13" y="71.01" xlink:href="#hl"/>
<use x="329.13" y="71.01" xlink:href="#hd"/>
<path d="M325.63 71.01v36.20" stroke="currentColor" fill="none"/>
<use x="345.93" y="74.01" xlink:href="#hd"/>
<path d="M342.43 74.01v33.20" stroke="currentColor" fill="none"/>
<use x="362.73" y="71.01" xlink:href="#hl"/>
<use x="362.73" y="71.01" xlink:href="#hd"/>
<path d="M359.23 71.01v36.20" stroke="currentColor" fill="none"/>
<path fill="currentColor"
	d="M386.43 111.21l51.00 0.00v-3.20l-51.00 -0.00"/>
<use x="390.23" y="74.01" xlink:href="#hd"/>
<path d="M386.73 74.01v36.20" stroke="currentColor" fill="none"/>
<use x="407.03" y="77.01" xlink:href="#hd"/>
<path d="M403.53 77.01v33.20" stroke="currentColor" fill="none"/>
<use x="423.83" y="92.01" xlink:href="#hd"/>
<path d="M420.33 92.01v18.20" stroke="currentColor" fill="none"/>
<use x="440.53" y="71.01" xlink:href="#hl"/>
<use x="440.53" y="71.01" xlink:href="#hd"/>
<path d="M437.03 71.01v39.20" stroke="currentColor" fill="none"/>
<use x="459.13" y="77.01" xlink:href="#hd"/>
<path d="M455.63 77.01v20.00" stroke="currentColor" fill="none"/>
<path fill="currentColor"
	d="M488.63 95.21l85.90 0.00v-3.20l-85.90 -0.00"/>
<use x="492.43" y="77.01" xlink:href="#hd"/>
<path d="M488.93 77.01v17.20" stroke="currentColor" fill="none"/>
<use x="509.23" y="71.01" xlink:href="#hl"/>
<use x="509.23" y="71.01" xlink:href="#hd"/>
<path d="M505.73 71.01v23.20" stroke="currentColor" fill="none"/>
<use x="527.23" y="71.01" xlink:href="#hl"/>
<use x="527.23" y="68.01" xlink:href="#hd"/>
<defs>
<path id="unat" fill="currentColor" d="
	m96 -750
	h-32
	v716
	l32 -8
	l182 -54
	v282
	h32
	v-706
	l-34 10
	l-180 50
	v-290
	m0 592
	v-190
	l182 -52
	v188"/>
<use id="nt0" transform="translate(-3,5) scale(0.018)"
	xlink:href="#unat"/>
</defs>
<use x="518.23" y="68.01" xlink:href="#nt0"/>
<path d="M523.73 68.01v26.20" stroke="currentColor" fill="none"/>
<use x="544.13" y="71.01" xlink:href="#hl"/>
<use x="544.13" y="71.01" xlink:href="#hd"/>
<path d="M540.63 71.01v23.20" stroke="currentColor" fill="none"/>
<use x="560.93" y="74.01" xlink:href="#hd"/>
<path d="M557.43 74.01v20.20" stroke="currentColor" fill="none"/>
<use x="577.63" y="77.01" xlink:href="#hd"/>
<path d="M574.13 77.01v17.20" stroke="currentColor" fill="none"/>
<path fill="currentColor"
	d="M601.43 95.21l51.00 0.00v-3.20l-51.00 -0.00"/>
<use x="605.23" y="74.01" xlink:href="#hd"/>
<path d="M601.73 74.01v20.20" stroke="currentColor" fill="none"/>
<use x="622.03" y="77.01" xlink:href="#hd"/>
<path d="M618.53 77.01v17.20" stroke="currentColor" fill="none"/>
<use x="638.83" y="74.01" xlink:href="#hd"/>
<path d="M635.33 74.01v20.20" stroke="currentColor" fill="none"/>
<use x="655.53" y="71.01" xlink:href="#hl"/>
<use x="655.53" y="71.01" xlink:href="#hd"/>
<path d="M652.03 71.01v23.20" stroke="currentColor" fill="none"/>
<use x="674.03" y="74.01" xlink:href="#hd"/>
<path d="M670.53 74.01v20.00" stroke="currentColor" fill="none"/>
<path stroke="currentColor" fill="none"
	d="M103.23 194.01v-24.00"/>
<defs>
<g id="rdots" fill="currentColor">
	<circle cx="0" cy="-9" r="1.2"/>
	<circle cx="0" cy="-15" r="1.2"/>
</g>
</defs>
<use x="164.33" y="194.01" xlink:href="#rdots"/>
<path stroke="currentColor" fill="none" stroke-width="3"
	d="M158.83 194.01v-24.00"/>
<path stroke="currentColor" fill="none" stroke-width="3"
	d="M152.83 194.01v-24.00"/>
<use x="147.33" y="194.01" xlink:href="#rdots"/>
<path stroke="currentColor" fill="none"
	d="M224.13 194.01v-24.00"/>
<path stroke="currentColor" fill="none"
	d="M282.83 194.01v-24.00"/>
<path stroke="currentColor" fill="none"
	d="M345.33 194.01v-24.00"/>
<path stroke="currentColor" fill="none"
	d="M403.13 194.01v-24.00"/>
<path stroke="currentColor" fill="none"
	d="M457.13 194.01v-24.00"/>
<path stroke="currentColor" fill="none"
	d="M514.83 194.01v-24.00"/>
<path stroke="currentColor" fill="none"
	d="M577.33 194.01v-24.00"/>
<path stroke="currentColor" fill="none" stroke-width="3"
	d="M636.73 194.01v-24.00"/>
<path stroke="currentColor" fill="none"
	d="M632.23 194.01v-24.00"/>
<use x="628.23" y="194.01" xlink:href="#rdots"/>
<path stroke="currentColor" fill="none" stroke-width="3"
	d="M693.43 194.01v-24.00"/>
<path stroke="currentColor" fill="none"
	d="M688.93 194.01v-24.00"/>
<path stroke="currentColor" fill="none"
	d="M13.33 194.01h681.60m-681.60 -6h681.60m-681.60 -6h681.60m-681.60 -6h681.60m-681.60 -6h681.60"/>
<text x="110.83" y="152.61">F</text>
<text x="170.03" y="152.61">B♭</text>
<text x="231.73" y="152.61">F</text>
<text x="287.23" y="152.61">C7</text>
<text x="352.93" y="152.61">F</text>
<text x="407.43" y="152.61">C7</text>
<text x="464.73" y="152.61">F</text>
<text x="519.23" y="152.61">C7</text>
<text x="590.43" y="152.61">F</text>
<text x="651.33" y="152.61">F</text>
</g>
<g transform="scale(0.750)" stroke-width="0.70" font-family="Times" font-size="13.00">
<text x="581.33" y="137.41">1</text>
<path stroke="currentColor" fill="none"
	d="M577.33 126.01v20M577.33 126.01h52.90v20"/>
<text x="642.23" y="137.41">2</text>
<path stroke="currentColor" fill="none"
	d="M638.23 126.01v20M638.23 126.01h56.70v20"/>
<use x="21.83" y="194.01" xlink:href="#tclef"/>
<use x="36.03" y="182.01" xlink:href="#ft0"/>
<path fill="currentColor"
	d="M47.33 190.91l44.70 0.00v-3.20l-44.70 -0.00"/>
<use x="51.23" y="164.01" xlink:href="#hl"/>
<use x="51.23" y="161.01" xlink:href="#hd"/>
<path d="M47.73 161.01v29.00" stroke="currentColor" fill="none"/>
<use x="60.03" y="164.01" xlink:href="#hl"/>
<use x="60.03" y="164.01" xlink:href="#hd"/>
<path d="M56.53 164.01v26.00" stroke="currentColor" fill="none"/>
<use x="68.83" y="167.01" xlink:href="#hd"/>
<path d="M65.33 167.01v23.00" stroke="currentColor" fill="none"/>
<use x="77.63" y="170.01" xlink:href="#hd"/>
<path d="M74.13 170.01v20.00" stroke="currentColor" fill="none"/>
<use x="86.43" y="173.01" xlink:href="#hd"/>
<path d="M82.93 173.01v17.00" stroke="currentColor" fill="none"/>
<use x="95.23" y="167.01" xlink:href="#hd"/>
<path d="M91.73 167.01v23.00" stroke="currentColor" fill="none"/>
<use x="113.73" y="170.01" xlink:href="#hd"/>
<path d="M110.23 170.01v20.00" stroke="currentColor" fill="none"/>
<use x="127.53" y="170.01" xlink:href="#hd"/>
<path d="M124.03 170.01v20.00" stroke="currentColor" fill="none"/>
<defs>
<path id="r4" fill="currentColor" d="m-1 -8.5
	l3.6 5.1 -2.1 5.2 2.2 4.3
	c-2.6 -2.3 -5.1 0 -2.4 2.6
	c-4.8 -3 -1.5 -6.9 1.4 -4.1
	l-3.1 -4.5 1.9 -5.1 -1.5 -3.5"/>
</defs>
<use x="141.43" y="182.01" xlink:href="#r4"/>
<use x="175.93" y="170.01" xlink:href="#hd"/>
<path d="M172.43 170.01v20.00" stroke="currentColor" fill="none"/>
<path fill="currentColor"
	d="M185.83 204.21l27.10 0.00v-3.20l-27.10 -0.00"/>
<use x="189.73" y="176.01" xlink:href="#hd"/>
<path d="M186.23 176.01v27.20" stroke="currentColor" fill="none"/>
<use x="198.53" y="179.01" xlink:href="#hd"/>
<path d="M195.03 179.01v24.20" stroke="currentColor" fill="none"/>
<use x="207.33" y="170.01" xlink:href="#hd"/>
<path d="M203.83 170.01v33.20" stroke="currentColor" fill="none"/>
<use x="216.13" y="185.01" xlink:href="#hd"/>
<path d="M212.63 185.01v18.20" stroke="currentColor" fill="none"/>
<use x="234.63" y="179.01" xlink:href="#hd"/>
<path d="M231.13 179.01v20.00" stroke="currentColor" fill="none"/>
<path fill="currentColor"
	d="M244.63 204.31l27.10 -6.10v-3.20l-27.10 6.10"/>
<use x="248.43" y="185.01" xlink:href="#hd"/>
<path d="M244.93 185.01v18.20" stroke="currentColor" fill="none"/>
<use x="257.23" y="179.01" xlink:href="#hd"/>
<path d="M253.73 179.01v22.20" stroke="currentColor" fill="none"/>
<use x="266.03" y="164.01" xlink:href="#hl"/>
<use x="266.03" y="164.01" xlink:href="#hd"/>
<path d="M262.53 164.01v35.20" stroke="currentColor" fill="none"/>
<use x="274.83" y="170.01" xlink:href="#hd"/>
<path d="M271.33 170.01v27.30" stroke="currentColor" fill="none"/>
<path fill="currentColor"
	d="M289.53 207.21l44.70 0.00v-3.20l-44.70 -0.00"/>
<use x="293.33" y="173.01" xlink:href="#hd"/>
<path d="M289.83 173.01v33.20" stroke="currentColor" fill="none"/>
<use x="302.13" y="167.01" xlink:href="#hd"/>
<path d="M298.63 167.01v39.20" stroke="currentColor" fill="none"/>
<use x="310.93" y="179.01" xlink:href="#hd"/>
<path d="M307.43 179.01v27.20" stroke="currentColor" fill="none"/>
<use x="319.73" y="173.01" xlink:href="#hd"/>
<path d="M316.23 173.01v33.20" stroke="currentColor" fill="none"/>
<use x="328.53" y="188.01" xlink:href="#hd"/>
<path d="M325.03 188.01v18.20" stroke="currentColor" fill="none"/>
<use x="337.33" y="173.01" xlink:href="#hd"/>
<path d="M333.83 173.01v33.20" stroke="currentColor" fill="none"/>
<path fill="currentColor"
	d="M352.03 190.91l27.10 0.00v-3.20l-27.10 -0.00"/>
<use x="355.83" y="170.01" xlink:href="#hd"/>
<path d="M352.33 170.01v20.00" stroke="currentColor" fill="none"/>
<use x="364.63" y="173.01" xlink:href="#hd"/>
<path d="M361.13 173.01v17.00" stroke="currentColor" fill="none"/>
<use x="373.53" y="170.01" xlink:href="#hd"/>
<path d="M370.03 170.01v20.00" stroke="currentColor" fill="none"/>
<use x="382.33" y="167.01" xlink:href="#hd"/>
<path d="M378.83 167.01v23.00" stroke="currentColor" fill="none"/>
<use x="392.03" y="164.01" xlink:href="#hl"/>
<use x="392.03" y="164.01" xlink:href="#hd"/>
<path d="M388.53 164.01v20.00" stroke="currentColor" fill="none"/>
<use x="413.63" y="179.01" xlink:href="#hd"/>
<path d="M410.13 179.01v20.00" stroke="currentColor" fill="none"/>
<path fill="currentColor"
	d="M423.63 192.31l9.50 -2.70v-3.20l-9.50 2.70"/>
<use x="427.43" y="173.01" xlink:href="#hd"/>
<path d="M423.93 173.01v18.20" stroke="currentColor" fill="none"/>
<use x="436.23" y="167.01" xlink:href="#hd"/>
<path d="M432.73 167.01v21.70" stroke="currentColor" fill="none"/>
<use x="446.03" y="164.01" xlink:href="#hl"/>
<use x="446.03" y="161.01" xlink:href="#hd"/>
<path d="M442.53 161.01v21.00" stroke="currentColor" fill="none"/>
<path fill="currentColor"
	d="M463.73 196.91l27.10 0.00v-3.20l-27.10 -0.00"/>
<use x="467.63" y="164.01" xlink:href="#hl"/>
<use x="467.63" y="164.01" xlink:href="#hd"/>
<path d="M464.13 164.01v32.00" stroke="currentColor" fill="none"/>
<use x="476.43" y="179.01" xlink:href="#hd"/>
<path d="M472.93 179.01v17.00" stroke="currentColor" fill="none"/>
<use x="485.23" y="170.01" xlink:href="#hd"/>
<path d="M481.73 170.01v26.00" stroke="currentColor" fill="none"/>
<use x="494.03" y="164.01" xlink:href="#hl"/>
<use x="494.03" y="164.01" xlink:href="#hd"/>
<path d="M490.53 164.01v32.00" stroke="currentColor" fill="none"/>
<use x="503.83" y="164.01" xlink:href="#hl"/>
<use x="503.83" y="158.01" xlink:href="#hl"/>
<use x="503.83" y="158.01" xlink:href="#hd"/>
<path d="M500.33 158.01v24.00" stroke="currentColor" fill="none"/>
<path fill="currentColor"
	d="M521.53 196.91l44.70 0.00v-3.20l-44.70 -0.00"/>
<use x="525.33" y="176.01" xlink:href="#hd"/>
<path d="M521.83 176.01v20.00" stroke="currentColor" fill="none"/>
<use x="534.13" y="179.01" xlink:href="#hd"/>
<path d="M530.63 179.01v17.00" stroke="currentColor" fill="none"/>
<use x="543.03" y="173.01" xlink:href="#hd"/>
<path d="M539.53 173.01v23.00" stroke="currentColor" fill="none"/>
<use x="551.83" y="179.01" xlink:href="#hd"/>
<path d="M548.33 179.01v17.00" stroke="currentColor" fill="none"/>
<use x="560.63" y="164.01" xlink:href="#hl"/>
<use x="560.63" y="164.01" xlink:href="#hd"/>
<path d="M557.13 164.01v32.00" stroke="currentColor" fill="none"/>
<use x="569.43" y="167.01" xlink:href="#hd"/>
<path d="M565.93 167.01v29.00" stroke="currentColor" fill="none"/>
<use x="593.33" y="170.01" xlink:href="#hd"/>
<path d="M589.83 170.01v20.00" stroke="currentColor" fill="none"/>
<use x="607.23" y="182.01" xlink:href="#r4"/>
<use x="621.03" y="170.01" xlink:href="#hd"/>
<path d="M617.53 170.01v20.00" stroke="currentColor" fill="none"/>
<use x="654.23" y="170.01" xlink:href="#hd"/>
<path d="M650.73 170.01v20.00" stroke="currentColor" fill="none"/>
<use x="668.03" y="182.01" xlink:href="#r4"/>
<use x="681.93" y="182.01" xlink:href="#r4"/>
</g>
</svg>
