<?xml version="1.0" standalone="no"?>
<!DOCTYPE svg PUBLIC "-//W3C//DTD SVG 1.1//EN"
	"http://www.w3.org/Graphics/SVG/1.1/DTD/svg11.dtd">
<svg xmlns="http://www.w3.org/2000/svg" version="1.1"
	xmlns:xlink="http://www.w3.org/1999/xlink"
	xml:space='preserve' color="black"
	width="7.38in" height="3.02in" viewBox="0 0 531 218">
<title>data/results/biggest_11/abc/31.abc (31) tune 1</title>
<!-- Creator: abcm2ps-7.8.14 -->
<!-- CreationDate: Aug  9, 2015 23:50 -->
<!-- CommandLine: -g data/results/biggest_11/abc/31.abc -O /home/allanino/Dropbox/Trabalhos/folkme/svg/31.svg -->
<g transform="scale(0.750)" stroke-width="0.70" font-family="Times" font-size="20.00">
<text x="354.13" y="21.67" text-anchor="middle">Walzer GDC 7- Anm</text>
<defs>
<g id="rdots" fill="currentColor">
	<circle cx="0" cy="-9" r="1.2"/>
	<circle cx="0" cy="-15" r="1.2"/>
</g>
</defs>
<use x="98.73" y="103.01" xlink:href="#rdots"/>
<path stroke="currentColor" fill="none"
	d="M94.73 103.01v-24.00"/>
<path stroke="currentColor" fill="none" stroke-width="3"
	d="M90.23 103.01v-24.00"/>
<path stroke="currentColor" fill="none"
	d="M218.43 103.01v-24.00"/>
<path stroke="currentColor" fill="none"
	d="M326.93 103.01v-24.00"/>
<path stroke="currentColor" fill="none"
	d="M447.23 103.01v-24.00"/>
<path stroke="currentColor" fill="none"
	d="M565.83 103.01v-24.00"/>
<path stroke="currentColor" fill="none"
	d="M694.93 103.01v-24.00"/>
<path stroke="currentColor" fill="none"
	d="M13.33 103.01h681.60m-681.60 -6h681.60m-681.60 -6h681.60m-681.60 -6h681.60m-681.60 -6h681.60"/>
</g>
<g transform="scale(0.750)" stroke-width="0.70" font-family="Helvetica" font-size="12.00">
<text x="108.43" y="62.61">G</text>
<text x="224.43" y="62.61">D7</text>
<text x="455.93" y="62.61">G</text>
<defs>
<path id="utclef" fill="currentColor" d="m-50 -90
	c-72 -41 -72 -158 52 -188
	c150 -10 220 188 90 256
	c-114 52 -275 0 -293 -136
	c-15 -181 93 -229 220 -334
	c88 -87 79 -133 62 -210
	c-51 33 -94 105 -89 186
	c17 267 36 374 49 574
	c6 96 -19 134 -77 135
	c-80 1 -126 -93 -61 -133
	c85 -41 133 101 31 105
	c23 17 92 37 90 -92
	c-10 -223 -39 -342 -50 -617
	c0 -90 0 -162 96 -232
	c56 72 63 230 22 289
	c-74 106 -257 168 -255 316
	c9 153 148 185 252 133
	c86 -65 29 -192 -80 -176
	c-71 12 -105 67 -59 124"/>
<use id="tclef" transform="scale(0.045)"
	xlink:href="#utclef"/>
</defs>
<use x="25.33" y="103.01" xlink:href="#tclef"/>
<defs>
<path id="usharp" fill="currentColor" d="
	m136 -702
	v890
	h32
	v-890
	m128 840
	h32
	v-888
	h-32
	m-232 286
	v116
	l338 -96
	v-116
	m-338 442
	v116
	l338 -98
	v-114"/>
<use id="sh0" transform="translate(-4,5) scale(0.018)"
	xlink:href="#usharp"/>
</defs>
<use x="40.33" y="79.01" xlink:href="#sh0"/>
<g font-family="serif" font-size="16" font-weight="bold" font-style="normal"
	transform="translate(56.33,103.01) scale(1.2,1)">
	<text y="-1" text-anchor="middle">4</text>
	<text y="-13" text-anchor="middle">3</text>
</g>
<defs>
<ellipse id="hd" rx="4.1" ry="2.9"
	transform="rotate(-20)" fill="currentColor"/>
</defs>
<use x="74.33" y="106.01" xlink:href="#hd"/>
<path d="M77.83 106.01v-20.00" stroke="currentColor" fill="none"/>
<path fill="currentColor"
	d="M115.33 80.61l60.00 -8.90v3.20l-60.00 8.90"/>
<defs>
<path id="hl" stroke="currentColor" d="m-6 0h12"/>
</defs>
<use x="112.23" y="109.01" xlink:href="#hl"/>
<use x="112.23" y="112.01" xlink:href="#hd"/>
<path d="M115.73 112.01v-30.40" stroke="currentColor" fill="none"/>
<use x="132.03" y="106.01" xlink:href="#hd"/>
<path d="M135.53 106.01v-27.40" stroke="currentColor" fill="none"/>
<use x="151.73" y="97.01" xlink:href="#hd"/>
<path d="M155.23 97.01v-21.30" stroke="currentColor" fill="none"/>
<use x="171.53" y="91.01" xlink:href="#hd"/>
<path d="M175.03 91.01v-18.20" stroke="currentColor" fill="none"/>
<use x="193.63" y="85.01" xlink:href="#hd"/>
<path d="M190.13 85.01v20.00" stroke="currentColor" fill="none"/>
<use x="230.93" y="106.01" xlink:href="#hd"/>
<path d="M234.43 106.01v-20.00" stroke="currentColor" fill="none"/>
<defs>
<path id="r4" fill="currentColor" d="m-1 -8.5
	l3.6 5.1 -2.1 5.2 2.2 4.3
	c-2.6 -2.3 -5.1 0 -2.4 2.6
	c-4.8 -3 -1.5 -6.9 1.4 -4.1
	l-3.1 -4.5 1.9 -5.1 -1.5 -3.5"/>
</defs>
<use x="261.73" y="91.01" xlink:href="#r4"/>
<path fill="currentColor"
	d="M292.63 78.81l20.50 0.00v3.20l-20.50 -0.00"/>
<use x="289.43" y="100.01" xlink:href="#hd"/>
<path d="M292.93 100.01v-20.20" stroke="currentColor" fill="none"/>
<use x="309.23" y="100.01" xlink:href="#hd"/>
<path d="M312.73 100.01v-20.20" stroke="currentColor" fill="none"/>
<use x="339.43" y="100.01" xlink:href="#hd"/>
<path d="M342.93 100.01v-20.00" stroke="currentColor" fill="none"/>
<path fill="currentColor"
	d="M373.33 62.71l60.00 9.90v3.20l-60.00 -9.90"/>
<use x="370.23" y="82.01" xlink:href="#hd"/>
<path d="M373.73 82.01v-18.20" stroke="currentColor" fill="none"/>
<use x="390.03" y="88.01" xlink:href="#hd"/>
<path d="M393.53 88.01v-20.90" stroke="currentColor" fill="none"/>
<use x="409.83" y="106.01" xlink:href="#hd"/>
<path d="M413.33 106.01v-35.70" stroke="currentColor" fill="none"/>
<use x="429.63" y="103.01" xlink:href="#hd"/>
<path d="M433.13 103.01v-29.40" stroke="currentColor" fill="none"/>
<path fill="currentColor"
	d="M462.93 71.81l60.00 0.00v3.20l-60.00 -0.00"/>
<use x="459.73" y="106.01" xlink:href="#hd"/>
<path d="M463.23 106.01v-33.20" stroke="currentColor" fill="none"/>
<use x="479.53" y="97.01" xlink:href="#hd"/>
<path d="M483.03 97.01v-24.20" stroke="currentColor" fill="none"/>
<use x="499.33" y="91.01" xlink:href="#hd"/>
<path d="M502.83 91.01v-18.20" stroke="currentColor" fill="none"/>
<use x="519.13" y="106.01" xlink:href="#hd"/>
<path d="M522.63 106.01v-33.20" stroke="currentColor" fill="none"/>
<use x="541.03" y="97.01" xlink:href="#hd"/>
<path d="M544.53 97.01v-20.00" stroke="currentColor" fill="none"/>
<path fill="currentColor"
	d="M581.43 76.71l99.60 -8.10v3.20l-99.60 8.10"/>
<use x="578.33" y="109.01" xlink:href="#hl"/>
<use x="578.33" y="112.01" xlink:href="#hd"/>
<path d="M581.83 112.01v-34.40" stroke="currentColor" fill="none"/>
<use x="598.13" y="106.01" xlink:href="#hd"/>
<path d="M601.63 106.01v-30.00" stroke="currentColor" fill="none"/>
<use x="617.93" y="97.01" xlink:href="#hd"/>
<path d="M621.43 97.01v-22.60" stroke="currentColor" fill="none"/>
<use x="637.73" y="91.01" xlink:href="#hd"/>
<path d="M641.23 91.01v-18.20" stroke="currentColor" fill="none"/>
<use x="657.43" y="94.01" xlink:href="#hd"/>
<path d="M660.93 94.01v-22.80" stroke="currentColor" fill="none"/>
<use x="677.23" y="97.01" xlink:href="#hd"/>
<path d="M680.73 97.01v-27.40" stroke="currentColor" fill="none"/>
<path stroke="currentColor" fill="none"
	d="M138.23 180.01v-24.00"/>
<path stroke="currentColor" fill="none"
	d="M238.93 180.01v-24.00"/>
<path stroke="currentColor" fill="none"
	d="M324.13 180.01v-24.00"/>
<path stroke="currentColor" fill="none"
	d="M424.93 180.01v-24.00"/>
<path stroke="currentColor" fill="none"
	d="M517.63 180.01v-24.00"/>
<path stroke="currentColor" fill="none"
	d="M618.33 180.01v-24.00"/>
<path stroke="currentColor" fill="none"
	d="M694.93 180.01v-24.00"/>
<path stroke="currentColor" fill="none"
	d="M13.33 180.01h681.60m-681.60 -6h681.60m-681.60 -6h681.60m-681.60 -6h681.60m-681.60 -6h681.60"/>
<text x="51.83" y="137.61">D7</text>
<text x="247.63" y="137.61">G</text>
<text x="430.93" y="137.61">D7</text>
<text x="627.03" y="137.61">D</text>
<use x="25.33" y="180.01" xlink:href="#tclef"/>
<use x="40.33" y="156.01" xlink:href="#sh0"/>
<path fill="currentColor"
	d="M61.53 153.01l45.50 0.00v3.20l-45.50 -0.00"/>
<use x="58.33" y="174.01" xlink:href="#hd"/>
<path d="M61.83 174.01v-20.00" stroke="currentColor" fill="none"/>
<use x="73.33" y="177.01" xlink:href="#hd"/>
<path d="M76.83 177.01v-23.00" stroke="currentColor" fill="none"/>
<use x="88.23" y="171.01" xlink:href="#hd"/>
<path d="M91.73 171.01v-17.00" stroke="currentColor" fill="none"/>
<use x="103.23" y="183.01" xlink:href="#hd"/>
<path d="M106.73 183.01v-29.00" stroke="currentColor" fill="none"/>
<use x="119.63" y="186.01" xlink:href="#hl"/>
<use x="119.63" y="186.01" xlink:href="#hd"/>
<path d="M123.13 186.01v-20.00" stroke="currentColor" fill="none"/>
<path fill="currentColor"
	d="M153.83 146.91l75.40 -6.80v3.20l-75.40 6.80"/>
<use x="150.73" y="186.01" xlink:href="#hl"/>
<use x="150.73" y="186.01" xlink:href="#hd"/>
<path d="M154.23 186.01v-38.20" stroke="currentColor" fill="none"/>
<use x="165.63" y="168.01" xlink:href="#hd"/>
<path d="M169.13 168.01v-21.50" stroke="currentColor" fill="none"/>
<use x="180.63" y="165.01" xlink:href="#hd"/>
<path d="M184.13 165.01v-19.90" stroke="currentColor" fill="none"/>
<use x="195.53" y="162.01" xlink:href="#hd"/>
<path d="M199.03 162.01v-18.20" stroke="currentColor" fill="none"/>
<use x="210.53" y="177.01" xlink:href="#hd"/>
<path d="M214.03 177.01v-34.50" stroke="currentColor" fill="none"/>
<use x="225.43" y="162.01" xlink:href="#hd"/>
<path d="M228.93 162.01v-20.90" stroke="currentColor" fill="none"/>
<use x="251.43" y="162.01" xlink:href="#hd"/>
<path d="M247.93 162.01v20.00" stroke="currentColor" fill="none"/>
<path fill="currentColor"
	d="M270.33 187.31l15.60 -4.30v-3.20l-15.60 4.30"/>
<use x="274.23" y="168.01" xlink:href="#hd"/>
<path d="M270.73 168.01v18.20" stroke="currentColor" fill="none"/>
<use x="289.13" y="159.01" xlink:href="#hd"/>
<path d="M285.63 159.01v23.10" stroke="currentColor" fill="none"/>
<use x="305.63" y="168.01" xlink:href="#hd"/>
<path d="M302.13 168.01v20.00" stroke="currentColor" fill="none"/>
<path fill="currentColor"
	d="M339.83 153.41l75.40 -7.70v3.20l-75.40 7.70"/>
<use x="336.63" y="186.01" xlink:href="#hl"/>
<use x="336.63" y="189.01" xlink:href="#hd"/>
<path d="M340.13 189.01v-34.60" stroke="currentColor" fill="none"/>
<use x="351.63" y="183.01" xlink:href="#hd"/>
<path d="M355.13 183.01v-30.10" stroke="currentColor" fill="none"/>
<use x="366.53" y="174.01" xlink:href="#hd"/>
<path d="M370.03 174.01v-22.70" stroke="currentColor" fill="none"/>
<use x="381.53" y="168.01" xlink:href="#hd"/>
<path d="M385.03 168.01v-18.20" stroke="currentColor" fill="none"/>
<use x="396.43" y="171.01" xlink:href="#hd"/>
<path d="M399.93 171.01v-22.70" stroke="currentColor" fill="none"/>
<use x="411.43" y="174.01" xlink:href="#hd"/>
<path d="M414.93 174.01v-27.30" stroke="currentColor" fill="none"/>
<path fill="currentColor"
	d="M440.53 154.81l45.50 6.50v3.20l-45.50 -6.50"/>
<use x="437.43" y="174.01" xlink:href="#hd"/>
<path d="M440.93 174.01v-18.20" stroke="currentColor" fill="none"/>
<use x="452.33" y="177.01" xlink:href="#hd"/>
<path d="M455.83 177.01v-19.10" stroke="currentColor" fill="none"/>
<use x="467.33" y="180.01" xlink:href="#hd"/>
<path d="M470.83 180.01v-19.90" stroke="currentColor" fill="none"/>
<use x="482.23" y="183.01" xlink:href="#hd"/>
<path d="M485.73 183.01v-20.80" stroke="currentColor" fill="none"/>
<use x="499.13" y="165.01" xlink:href="#hd"/>
<path d="M495.63 165.01v20.00" stroke="currentColor" fill="none"/>
<path fill="currentColor"
	d="M533.23 148.81l75.40 0.00v3.20l-75.40 -0.00"/>
<use x="530.13" y="177.01" xlink:href="#hd"/>
<path d="M533.63 177.01v-27.20" stroke="currentColor" fill="none"/>
<use x="545.03" y="183.01" xlink:href="#hd"/>
<path d="M548.53 183.01v-33.20" stroke="currentColor" fill="none"/>
<use x="560.03" y="180.01" xlink:href="#hd"/>
<path d="M563.53 180.01v-30.20" stroke="currentColor" fill="none"/>
<use x="574.93" y="177.01" xlink:href="#hd"/>
<path d="M578.43 177.01v-27.20" stroke="currentColor" fill="none"/>
<use x="589.93" y="174.01" xlink:href="#hd"/>
<path d="M593.43 174.01v-24.20" stroke="currentColor" fill="none"/>
<use x="604.83" y="168.01" xlink:href="#hd"/>
<path d="M608.33 168.01v-18.20" stroke="currentColor" fill="none"/>
<use x="630.83" y="171.01" xlink:href="#hd"/>
<path d="M634.33 171.01v-20.00" stroke="currentColor" fill="none"/>
<use x="653.63" y="168.01" xlink:href="#r4"/>
<use x="676.43" y="168.01" xlink:href="#r4"/>
<text font-family="serif" font-size="16" font-weight="bold" font-style="italic"
	x="247.43" y="152.01">tr</text>
<path stroke="currentColor" fill="none"
	d="M131.53 267.01v-24.00"/>
<path stroke="currentColor" fill="none"
	d="M217.73 267.01v-24.00"/>
<path stroke="currentColor" fill="none"
	d="M304.33 267.01v-24.00"/>
<path stroke="currentColor" fill="none"
	d="M383.23 267.01v-24.00"/>
<path stroke="currentColor" fill="none"
	d="M468.93 267.01v-24.00"/>
<path stroke="currentColor" fill="none"
	d="M547.03 267.01v-24.00"/>
<path stroke="currentColor" fill="none"
	d="M626.03 267.01v-24.00"/>
<path stroke="currentColor" fill="none" stroke-width="3"
	d="M693.43 267.01v-24.00"/>
<path stroke="currentColor" fill="none"
	d="M688.93 267.01v-24.00"/>
<use x="684.93" y="267.01" xlink:href="#rdots"/>
<path stroke="currentColor" fill="none"
	d="M13.33 267.01h681.60m-681.60 -6h681.60m-681.60 -6h681.60m-681.60 -6h681.60m-681.60 -6h681.60"/>
<text x="51.83" y="214.61">A7</text>
<text x="140.23" y="214.61">D</text>
<text x="223.73" y="214.61">A7</text>
<text x="313.03" y="214.61">D</text>
<text x="389.23" y="214.61">A7</text>
<text x="477.63" y="214.61">D</text>
<text x="553.03" y="214.61">A7</text>
<text x="634.73" y="214.61">D</text>
<use x="25.33" y="267.01" xlink:href="#tclef"/>
<use x="40.33" y="243.01" xlink:href="#sh0"/>
<path fill="currentColor"
	d="M61.53 232.81l62.50 0.00v3.20l-62.50 -0.00"/>
<use x="58.33" y="258.01" xlink:href="#hd"/>
<path d="M61.83 258.01v-24.20" stroke="currentColor" fill="none"/>
<use x="70.73" y="273.01" xlink:href="#hl"/>
<use x="70.73" y="273.01" xlink:href="#hd"/>
<path d="M74.23 273.01v-39.20" stroke="currentColor" fill="none"/>
<use x="83.03" y="255.01" xlink:href="#hd"/>
<path d="M86.53 255.01v-21.20" stroke="currentColor" fill="none"/>
<use x="95.43" y="258.01" xlink:href="#hd"/>
<path d="M98.93 258.01v-24.20" stroke="currentColor" fill="none"/>
<use x="107.83" y="252.01" xlink:href="#hd"/>
<path d="M111.33 252.01v-18.20" stroke="currentColor" fill="none"/>
<use x="120.13" y="255.01" xlink:href="#hd"/>
<path d="M123.63 255.01v-21.20" stroke="currentColor" fill="none"/>
<path fill="currentColor"
	d="M147.23 240.01l62.90 0.00v3.20l-62.90 -0.00"/>
<use x="144.03" y="258.01" xlink:href="#hd"/>
<path d="M147.53 258.01v-17.00" stroke="currentColor" fill="none"/>
<use x="156.43" y="273.01" xlink:href="#hl"/>
<use x="156.43" y="279.01" xlink:href="#hl"/>
<use x="156.43" y="279.01" xlink:href="#hd"/>
<path d="M159.93 279.01v-38.00" stroke="currentColor" fill="none"/>
<use x="169.23" y="273.01" xlink:href="#hl"/>
<use x="169.23" y="279.01" xlink:href="#hl"/>
<use x="169.23" y="279.01" xlink:href="#hd"/>
<path d="M172.73 279.01v-38.00" stroke="currentColor" fill="none"/>
<use x="181.53" y="270.01" xlink:href="#hd"/>
<path d="M185.03 270.01v-29.00" stroke="currentColor" fill="none"/>
<use x="193.93" y="264.01" xlink:href="#hd"/>
<path d="M197.43 264.01v-23.00" stroke="currentColor" fill="none"/>
<use x="206.33" y="258.01" xlink:href="#hd"/>
<path d="M209.83 258.01v-17.00" stroke="currentColor" fill="none"/>
<path fill="currentColor"
	d="M233.33 235.81l63.30 9.20v3.20l-63.30 -9.20"/>
<use x="230.23" y="255.01" xlink:href="#hd"/>
<path d="M233.73 255.01v-18.20" stroke="currentColor" fill="none"/>
<use x="242.63" y="258.01" xlink:href="#hd"/>
<path d="M246.13 258.01v-19.40" stroke="currentColor" fill="none"/>
<use x="254.93" y="267.01" xlink:href="#hd"/>
<path d="M258.43 267.01v-26.60" stroke="currentColor" fill="none"/>
<use x="267.33" y="273.01" xlink:href="#hl"/>
<use x="267.33" y="279.01" xlink:href="#hl"/>
<use x="267.33" y="279.01" xlink:href="#hd"/>
<path d="M270.83 279.01v-36.80" stroke="currentColor" fill="none"/>
<use x="280.13" y="273.01" xlink:href="#hl"/>
<use x="280.13" y="276.01" xlink:href="#hd"/>
<path d="M283.63 276.01v-32.00" stroke="currentColor" fill="none"/>
<use x="292.93" y="273.01" xlink:href="#hl"/>
<use x="292.93" y="273.01" xlink:href="#hd"/>
<path d="M296.43 273.01v-27.10" stroke="currentColor" fill="none"/>
<path fill="currentColor"
	d="M319.93 252.01l38.60 0.00v3.20l-38.60 -0.00"/>
<use x="316.83" y="270.01" xlink:href="#hd"/>
<path d="M320.33 270.01v-17.00" stroke="currentColor" fill="none"/>
<use x="329.13" y="273.01" xlink:href="#hl"/>
<use x="329.13" y="279.01" xlink:href="#hl"/>
<use x="329.13" y="279.01" xlink:href="#hd"/>
<path d="M332.63 279.01v-26.00" stroke="currentColor" fill="none"/>
<use x="341.93" y="273.01" xlink:href="#hl"/>
<use x="341.93" y="276.01" xlink:href="#hd"/>
<path d="M345.43 276.01v-23.00" stroke="currentColor" fill="none"/>
<use x="354.73" y="273.01" xlink:href="#hl"/>
<use x="354.73" y="273.01" xlink:href="#hd"/>
<path d="M358.23 273.01v-20.00" stroke="currentColor" fill="none"/>
<use x="368.23" y="270.01" xlink:href="#hd"/>
<path d="M371.73 270.01v-20.00" stroke="currentColor" fill="none"/>
<path fill="currentColor"
	d="M398.83 240.01l62.50 0.00v3.20l-62.50 -0.00"/>
<use x="395.73" y="273.01" xlink:href="#hl"/>
<use x="395.73" y="273.01" xlink:href="#hd"/>
<path d="M399.23 273.01v-32.00" stroke="currentColor" fill="none"/>
<use x="408.03" y="258.01" xlink:href="#hd"/>
<path d="M411.53 258.01v-17.00" stroke="currentColor" fill="none"/>
<use x="420.43" y="261.01" xlink:href="#hd"/>
<path d="M423.93 261.01v-20.00" stroke="currentColor" fill="none"/>
<use x="432.83" y="258.01" xlink:href="#hd"/>
<path d="M436.33 258.01v-17.00" stroke="currentColor" fill="none"/>
<use x="445.13" y="261.01" xlink:href="#hd"/>
<path d="M448.63 261.01v-20.00" stroke="currentColor" fill="none"/>
<use x="457.53" y="264.01" xlink:href="#hd"/>
<path d="M461.03 264.01v-23.00" stroke="currentColor" fill="none"/>
<path fill="currentColor"
	d="M477.63 283.31l37.80 -7.80v-3.20l-37.80 7.80"/>
<use x="481.43" y="264.01" xlink:href="#hd"/>
<path d="M477.93 264.01v18.20" stroke="currentColor" fill="none"/>
<use x="493.83" y="258.01" xlink:href="#hd"/>
<path d="M490.33 258.01v21.70" stroke="currentColor" fill="none"/>
<use x="506.13" y="249.01" xlink:href="#hd"/>
<path d="M502.63 249.01v28.10" stroke="currentColor" fill="none"/>
<use x="518.53" y="243.01" xlink:href="#hd"/>
<path d="M515.03 243.01v31.60" stroke="currentColor" fill="none"/>
<use x="532.03" y="237.01" xlink:href="#hl"/>
<use x="532.03" y="237.01" xlink:href="#hd"/>
<path d="M528.53 237.01v20.00" stroke="currentColor" fill="none"/>
<use x="559.53" y="237.01" xlink:href="#hl"/>
<use x="559.53" y="237.01" xlink:href="#hd"/>
<path d="M556.03 237.01v20.00" stroke="currentColor" fill="none"/>
<path fill="currentColor"
	d="M573.63 264.01l37.80 0.00v-3.20l-37.80 -0.00"/>
<use x="577.53" y="246.01" xlink:href="#hd"/>
<path d="M574.03 246.01v17.00" stroke="currentColor" fill="none"/>
<use x="589.83" y="237.01" xlink:href="#hl"/>
<use x="589.83" y="237.01" xlink:href="#hd"/>
<path d="M586.33 237.01v26.00" stroke="currentColor" fill="none"/>
<use x="602.23" y="240.01" xlink:href="#hd"/>
<path d="M598.73 240.01v23.00" stroke="currentColor" fill="none"/>
<use x="614.53" y="243.01" xlink:href="#hd"/>
<path d="M611.03 243.01v20.00" stroke="currentColor" fill="none"/>
<use x="638.53" y="249.01" xlink:href="#hd"/>
<path d="M635.03 249.01v20.00" stroke="currentColor" fill="none"/>
<use x="656.43" y="255.01" xlink:href="#r4"/>
<use x="674.43" y="255.01" xlink:href="#r4"/>
<text font-family="serif" font-size="16" font-weight="bold" font-style="italic"
	x="555.53" y="229.01">tr</text>
</g>
</svg>
