<?xml version="1.0" standalone="no"?>
<!DOCTYPE svg PUBLIC "-//W3C//DTD SVG 1.1//EN"
	"http://www.w3.org/Graphics/SVG/1.1/DTD/svg11.dtd">
<svg xmlns="http://www.w3.org/2000/svg" version="1.1"
	xmlns:xlink="http://www.w3.org/1999/xlink"
	xml:space='preserve' color="black"
	width="7.38in" height="2.36in" viewBox="0 0 531 170">
<title>data/results/biggest_11/abc/310.abc (310) tune 1</title>
<!-- Creator: abcm2ps-7.8.14 -->
<!-- CreationDate: Aug  9, 2015 23:50 -->
<!-- CommandLine: -g data/results/biggest_11/abc/310.abc -O /home/allanino/Dropbox/Trabalhos/folkme/svg/310.svg -->
<g transform="scale(0.750)" stroke-width="0.70" font-family="Times" font-size="20.00">
<text x="354.13" y="21.67" text-anchor="middle">Walzer  GC 10-</text>
</g>
<g transform="scale(0.750)" stroke-width="0.70" font-family="Times" font-size="16.00">
<text x="354.13" y="41.30" text-anchor="middle">Hanny Christen. Bd.3 Appenzell. S.18 (wz03060) orig. C-Dur</text>
<defs>
<g id="rdots" fill="currentColor">
	<circle cx="0" cy="-9" r="1.2"/>
	<circle cx="0" cy="-15" r="1.2"/>
</g>
</defs>
<use x="124.33" y="125.84" xlink:href="#rdots"/>
<path stroke="currentColor" fill="none"
	d="M120.33 125.84v-24.00"/>
<path stroke="currentColor" fill="none" stroke-width="3"
	d="M115.83 125.84v-24.00"/>
<path stroke="currentColor" fill="none"
	d="M212.93 125.84v-24.00"/>
<path stroke="currentColor" fill="none"
	d="M291.63 125.84v-24.00"/>
<path stroke="currentColor" fill="none"
	d="M379.23 125.84v-24.00"/>
<path stroke="currentColor" fill="none"
	d="M451.73 125.84v-24.00"/>
<path stroke="currentColor" fill="none"
	d="M538.43 125.84v-24.00"/>
<path stroke="currentColor" fill="none"
	d="M608.33 125.84v-24.00"/>
<path stroke="currentColor" fill="none"
	d="M694.93 125.84v-24.00"/>
<path stroke="currentColor" fill="none"
	d="M13.33 125.84h681.60m-681.60 -6h681.60m-681.60 -6h681.60m-681.60 -6h681.60m-681.60 -6h681.60"/>
</g>
<g transform="scale(0.750)" stroke-width="0.70" font-family="Helvetica" font-size="12.00">
<text x="129.83" y="81.44">B♭7</text>
<text x="386.23" y="81.44">E♭</text>
<text x="458.13" y="81.44">C7</text>
<text x="617.83" y="81.44">F</text>
<defs>
<path id="utclef" fill="currentColor" d="m-50 -90
	c-72 -41 -72 -158 52 -188
	c150 -10 220 188 90 256
	c-114 52 -275 0 -293 -136
	c-15 -181 93 -229 220 -334
	c88 -87 79 -133 62 -210
	c-51 33 -94 105 -89 186
	c17 267 36 374 49 574
	c6 96 -19 134 -77 135
	c-80 1 -126 -93 -61 -133
	c85 -41 133 101 31 105
	c23 17 92 37 90 -92
	c-10 -223 -39 -342 -50 -617
	c0 -90 0 -162 96 -232
	c56 72 63 230 22 289
	c-74 106 -257 168 -255 316
	c9 153 148 185 252 133
	c86 -65 29 -192 -80 -176
	c-71 12 -105 67 -59 124"/>
<use id="tclef" transform="scale(0.045)"
	xlink:href="#utclef"/>
</defs>
<use x="25.33" y="125.84" xlink:href="#tclef"/>
<defs>
<path id="uflat" fill="currentColor" d="
	m100 -746
	h32
	v734
	l-32 4
	m32 -332
	c46 -72 152 -90 208 -20
	c100 110 -120 326 -208 348
	m0 -28
	c54 0 200 -206 130 -290
	c-50 -60 -130 -4 -130 34"/>
<use id="ft0" transform="translate(-3.5,3.5) scale(0.018)"
	xlink:href="#uflat"/>
</defs>
<use x="40.33" y="113.84" xlink:href="#ft0"/>
<use x="45.83" y="104.84" xlink:href="#ft0"/>
<g font-family="serif" font-size="16" font-weight="bold" font-style="normal"
	transform="translate(61.83,125.84) scale(1.2,1)">
	<text y="-1" text-anchor="middle">4</text>
	<text y="-13" text-anchor="middle">3</text>
</g>
<path fill="currentColor"
	d="M76.03 134.44l25.70 -2.90v-3.20l-25.70 2.90"/>
<defs>
<ellipse id="hd" rx="4.1" ry="2.9"
	transform="rotate(-20)" fill="currentColor"/>
</defs>
<use x="79.83" y="113.84" xlink:href="#hd"/>
<path d="M76.33 113.84v19.60" stroke="currentColor" fill="none"/>
<use x="92.33" y="113.84" xlink:href="#hd"/>
<path d="M88.83 113.84v18.20" stroke="currentColor" fill="none"/>
<use x="104.83" y="107.84" xlink:href="#hd"/>
<path d="M101.33 107.84v22.80" stroke="currentColor" fill="none"/>
<path fill="currentColor"
	d="M134.03 126.04l64.20 0.00v-3.20l-64.20 -0.00"/>
<use x="137.83" y="107.84" xlink:href="#hd"/>
<path d="M134.33 107.84v17.20" stroke="currentColor" fill="none"/>
<defs>
<path id="hl" stroke="currentColor" d="m-6 0h12"/>
</defs>
<use x="150.33" y="95.84" xlink:href="#hl"/>
<use x="150.33" y="92.84" xlink:href="#hd"/>
<path d="M146.83 92.84v32.20" stroke="currentColor" fill="none"/>
<use x="163.33" y="95.84" xlink:href="#hl"/>
<use x="163.33" y="92.84" xlink:href="#hd"/>
<path d="M159.83 92.84v32.20" stroke="currentColor" fill="none"/>
<use x="176.33" y="95.84" xlink:href="#hl"/>
<use x="176.33" y="95.84" xlink:href="#hd"/>
<path d="M172.83 95.84v29.20" stroke="currentColor" fill="none"/>
<use x="188.83" y="98.84" xlink:href="#hd"/>
<path d="M185.33 98.84v26.20" stroke="currentColor" fill="none"/>
<use x="201.33" y="101.84" xlink:href="#hd"/>
<path d="M197.83 101.84v23.20" stroke="currentColor" fill="none"/>
<path fill="currentColor"
	d="M221.63 128.84l38.20 0.00v-3.20l-38.20 -0.00"/>
<use x="225.43" y="104.84" xlink:href="#hd"/>
<path d="M221.93 104.84v23.00" stroke="currentColor" fill="none"/>
<use x="237.93" y="101.84" xlink:href="#hd"/>
<path d="M234.43 101.84v26.00" stroke="currentColor" fill="none"/>
<use x="250.43" y="110.84" xlink:href="#hd"/>
<path d="M246.93 110.84v17.00" stroke="currentColor" fill="none"/>
<use x="262.93" y="104.84" xlink:href="#hd"/>
<path d="M259.43 104.84v23.00" stroke="currentColor" fill="none"/>
<use x="276.53" y="113.84" xlink:href="#hd"/>
<path d="M273.03 113.84v20.00" stroke="currentColor" fill="none"/>
<path fill="currentColor"
	d="M300.33 126.04l64.20 0.00v-3.20l-64.20 -0.00"/>
<use x="304.13" y="107.84" xlink:href="#hd"/>
<path d="M300.63 107.84v17.20" stroke="currentColor" fill="none"/>
<use x="316.63" y="95.84" xlink:href="#hl"/>
<use x="316.63" y="92.84" xlink:href="#hd"/>
<path d="M313.13 92.84v32.20" stroke="currentColor" fill="none"/>
<use x="329.63" y="95.84" xlink:href="#hl"/>
<use x="329.63" y="92.84" xlink:href="#hd"/>
<path d="M326.13 92.84v32.20" stroke="currentColor" fill="none"/>
<use x="342.13" y="107.84" xlink:href="#hd"/>
<path d="M338.63 107.84v17.20" stroke="currentColor" fill="none"/>
<use x="354.63" y="95.84" xlink:href="#hl"/>
<use x="354.63" y="89.84" xlink:href="#hl"/>
<use x="354.63" y="89.84" xlink:href="#hd"/>
<path d="M351.13 89.84v35.20" stroke="currentColor" fill="none"/>
<use x="367.63" y="95.84" xlink:href="#hl"/>
<use x="367.63" y="95.84" xlink:href="#hd"/>
<path d="M364.13 95.84v29.20" stroke="currentColor" fill="none"/>
<use x="391.73" y="104.84" xlink:href="#hd"/>
<path d="M388.23 104.84v20.00" stroke="currentColor" fill="none"/>
<defs>
<path id="r4" fill="currentColor" d="m-1 -8.5
	l3.6 5.1 -2.1 5.2 2.2 4.3
	c-2.6 -2.3 -5.1 0 -2.4 2.6
	c-4.8 -3 -1.5 -6.9 1.4 -4.1
	l-3.1 -4.5 1.9 -5.1 -1.5 -3.5"/>
</defs>
<use x="409.73" y="113.84" xlink:href="#r4"/>
<path fill="currentColor"
	d="M423.83 133.84l13.20 0.00v-3.20l-13.20 -0.00"/>
<use x="427.63" y="113.84" xlink:href="#hd"/>
<path d="M424.13 113.84v19.00" stroke="currentColor" fill="none"/>
<use x="440.13" y="113.84" xlink:href="#hd"/>
<path d="M436.63 113.84v19.00" stroke="currentColor" fill="none"/>
<path fill="currentColor"
	d="M460.43 128.84l63.20 0.00v-3.20l-63.20 -0.00"/>
<use x="464.23" y="110.84" xlink:href="#hd"/>
<path d="M460.73 110.84v17.00" stroke="currentColor" fill="none"/>
<use x="476.73" y="107.84" xlink:href="#hd"/>
<path d="M473.23 107.84v20.00" stroke="currentColor" fill="none"/>
<use x="489.23" y="104.84" xlink:href="#hd"/>
<path d="M485.73 104.84v23.00" stroke="currentColor" fill="none"/>
<use x="501.73" y="110.84" xlink:href="#hd"/>
<path d="M498.23 110.84v17.00" stroke="currentColor" fill="none"/>
<use x="514.23" y="98.84" xlink:href="#hd"/>
<path d="M510.73 98.84v29.00" stroke="currentColor" fill="none"/>
<use x="526.73" y="104.84" xlink:href="#hd"/>
<path d="M523.23 104.84v23.00" stroke="currentColor" fill="none"/>
<use x="550.93" y="104.84" xlink:href="#hd"/>
<circle fill="currentColor" cx="558.93" cy="104.84" r="1.2"/>
<path d="M547.43 104.84v20.00" stroke="currentColor" fill="none"/>
<path fill="currentColor"
	d="M574.83 98.74l25.70 -4.20v3.20l-25.70 4.20"/>
<use x="571.63" y="119.84" xlink:href="#hd"/>
<path d="M575.13 119.84v-20.10" stroke="currentColor" fill="none"/>
<use x="584.23" y="116.84" xlink:href="#hd"/>
<path d="M587.73 116.84v-19.20" stroke="currentColor" fill="none"/>
<use x="596.73" y="113.84" xlink:href="#hd"/>
<path d="M600.23 113.84v-18.20" stroke="currentColor" fill="none"/>
<path fill="currentColor"
	d="M616.93 136.04l63.20 0.00v-3.20l-63.20 -0.00"/>
<use x="620.83" y="116.84" xlink:href="#hd"/>
<path d="M617.33 116.84v18.20" stroke="currentColor" fill="none"/>
<use x="633.33" y="110.84" xlink:href="#hd"/>
<path d="M629.83 110.84v24.20" stroke="currentColor" fill="none"/>
<use x="645.83" y="101.84" xlink:href="#hd"/>
<path d="M642.33 101.84v33.20" stroke="currentColor" fill="none"/>
<use x="658.33" y="95.84" xlink:href="#hl"/>
<use x="658.33" y="95.84" xlink:href="#hd"/>
<path d="M654.83 95.84v39.20" stroke="currentColor" fill="none"/>
<use x="670.83" y="110.84" xlink:href="#hd"/>
<path d="M667.33 110.84v24.20" stroke="currentColor" fill="none"/>
<use x="683.33" y="101.84" xlink:href="#hd"/>
<path d="M679.83 101.84v33.20" stroke="currentColor" fill="none"/>
<path stroke="currentColor" fill="none"
	d="M132.13 203.84v-24.00"/>
<path stroke="currentColor" fill="none"
	d="M211.13 203.84v-24.00"/>
<path stroke="currentColor" fill="none"
	d="M290.13 203.84v-24.00"/>
<path stroke="currentColor" fill="none"
	d="M377.93 203.84v-24.00"/>
<path stroke="currentColor" fill="none" stroke-width="3"
	d="M461.23 203.84v-24.00"/>
<path stroke="currentColor" fill="none"
	d="M456.73 203.84v-24.00"/>
<use x="452.73" y="203.84" xlink:href="#rdots"/>
<path stroke="currentColor" fill="none"
	d="M556.03 203.84v-24.00"/>
<path stroke="currentColor" fill="none"
	d="M629.03 203.84v-24.00"/>
<path stroke="currentColor" fill="none" stroke-width="3"
	d="M693.43 203.84v-24.00"/>
<path stroke="currentColor" fill="none"
	d="M688.93 203.84v-24.00"/>
<path stroke="currentColor" fill="none"
	d="M13.33 203.84h681.60m-681.60 -6h681.60m-681.60 -6h681.60m-681.60 -6h681.60m-681.60 -6h681.60"/>
<text x="138.43" y="162.44">C7</text>
<text x="218.03" y="162.44">F7</text>
<text x="304.63" y="162.44">B♭</text>
<text x="384.33" y="162.44">C7</text>
<text x="478.73" y="162.44">F</text>
<text x="562.33" y="162.44">C7</text>
<text x="638.63" y="162.44">F</text>
</g>
<g transform="scale(0.750)" stroke-width="0.70" font-family="Times" font-size="13.00">
<text x="294.13" y="162.24">1</text>
<path stroke="currentColor" fill="none"
	d="M290.13 150.84v20M290.13 150.84h164.50v20"/>
<text x="466.73" y="162.24">2</text>
<path stroke="currentColor" fill="none"
	d="M462.73 150.84v20M462.73 150.84h232.20v20"/>
<use x="25.33" y="203.84" xlink:href="#tclef"/>
<use x="40.33" y="191.84" xlink:href="#ft0"/>
<use x="45.83" y="182.84" xlink:href="#ft0"/>
<path fill="currentColor"
	d="M60.03 192.04l39.70 0.00v-3.20l-39.70 -0.00"/>
<use x="63.83" y="173.84" xlink:href="#hl"/>
<use x="63.83" y="173.84" xlink:href="#hd"/>
<path d="M60.33 173.84v17.20" stroke="currentColor" fill="none"/>
<use x="76.83" y="173.84" xlink:href="#hl"/>
<use x="76.83" y="170.84" xlink:href="#hd"/>
<path d="M73.33 170.84v20.20" stroke="currentColor" fill="none"/>
<use x="89.83" y="173.84" xlink:href="#hl"/>
<use x="89.83" y="167.84" xlink:href="#hl"/>
<use x="89.83" y="167.84" xlink:href="#hd"/>
<path d="M86.33 167.84v23.20" stroke="currentColor" fill="none"/>
<use x="102.83" y="173.84" xlink:href="#hl"/>
<use x="102.83" y="170.84" xlink:href="#hd"/>
<path d="M99.33 170.84v20.20" stroke="currentColor" fill="none"/>
<use x="116.93" y="173.84" xlink:href="#hl"/>
<use x="116.93" y="173.84" xlink:href="#hd"/>
<path d="M113.43 173.84v20.00" stroke="currentColor" fill="none"/>
<path fill="currentColor"
	d="M140.83 217.04l38.30 0.00v-3.20l-38.30 -0.00"/>
<use x="144.63" y="176.84" xlink:href="#hd"/>
<path d="M141.13 176.84v39.20" stroke="currentColor" fill="none"/>
<use x="157.13" y="197.84" xlink:href="#hd"/>
<path d="M153.63 197.84v18.20" stroke="currentColor" fill="none"/>
<use x="169.73" y="191.84" xlink:href="#hd"/>
<path d="M166.23 191.84v24.20" stroke="currentColor" fill="none"/>
<use x="182.23" y="176.84" xlink:href="#hd"/>
<path d="M178.73 176.84v39.20" stroke="currentColor" fill="none"/>
<use x="195.93" y="182.84" xlink:href="#hd"/>
<path d="M192.43 182.84v20.00" stroke="currentColor" fill="none"/>
<path fill="currentColor"
	d="M219.83 214.04l38.30 0.00v-3.20l-38.30 -0.00"/>
<use x="223.63" y="176.84" xlink:href="#hd"/>
<path d="M220.13 176.84v36.20" stroke="currentColor" fill="none"/>
<use x="236.23" y="194.84" xlink:href="#hd"/>
<path d="M232.73 194.84v18.20" stroke="currentColor" fill="none"/>
<use x="248.73" y="188.84" xlink:href="#hd"/>
<path d="M245.23 188.84v24.20" stroke="currentColor" fill="none"/>
<use x="261.33" y="176.84" xlink:href="#hd"/>
<path d="M257.83 176.84v36.20" stroke="currentColor" fill="none"/>
<use x="274.93" y="179.84" xlink:href="#hd"/>
<path d="M271.43 179.84v20.00" stroke="currentColor" fill="none"/>
<use x="310.53" y="191.84" xlink:href="#hd"/>
<path d="M307.03 191.84v20.00" stroke="currentColor" fill="none"/>
<path fill="currentColor"
	d="M324.83 211.04l38.30 0.00v-3.20l-38.30 -0.00"/>
<use x="328.73" y="173.84" xlink:href="#hl"/>
<use x="328.73" y="173.84" xlink:href="#hd"/>
<path d="M325.23 173.84v36.20" stroke="currentColor" fill="none"/>
<use x="341.23" y="191.84" xlink:href="#hd"/>
<path d="M337.73 191.84v18.20" stroke="currentColor" fill="none"/>
<use x="353.83" y="176.84" xlink:href="#hd"/>
<path d="M350.33 176.84v33.20" stroke="currentColor" fill="none"/>
<use x="366.33" y="179.84" xlink:href="#hd"/>
<path d="M362.83 179.84v30.20" stroke="currentColor" fill="none"/>
<path fill="currentColor"
	d="M386.63 210.84l38.30 -4.30v-3.20l-38.30 4.30"/>
<use x="390.43" y="182.84" xlink:href="#hd"/>
<path d="M386.93 182.84v27.00" stroke="currentColor" fill="none"/>
<use x="403.03" y="185.84" xlink:href="#hd"/>
<path d="M399.53 185.84v22.60" stroke="currentColor" fill="none"/>
<use x="415.53" y="188.84" xlink:href="#hd"/>
<path d="M412.03 188.84v18.20" stroke="currentColor" fill="none"/>
<use x="428.13" y="173.84" xlink:href="#hl"/>
<use x="428.13" y="167.84" xlink:href="#hl"/>
<use x="428.13" y="164.84" xlink:href="#hd"/>
<path d="M424.63 164.84v40.80" stroke="currentColor" fill="none"/>
<use x="442.23" y="173.84" xlink:href="#hl"/>
<use x="442.23" y="167.84" xlink:href="#hl"/>
<use x="442.23" y="167.84" xlink:href="#hd"/>
<path d="M438.73 167.84v24.00" stroke="currentColor" fill="none"/>
<path fill="currentColor"
	d="M477.83 214.04l63.40 0.00v-3.20l-63.40 -0.00"/>
<use x="481.73" y="179.84" xlink:href="#hd"/>
<path d="M478.23 179.84v33.20" stroke="currentColor" fill="none"/>
<use x="494.23" y="194.84" xlink:href="#hd"/>
<path d="M490.73 194.84v18.20" stroke="currentColor" fill="none"/>
<use x="506.83" y="188.84" xlink:href="#hd"/>
<path d="M503.33 188.84v24.20" stroke="currentColor" fill="none"/>
<use x="519.33" y="179.84" xlink:href="#hd"/>
<path d="M515.83 179.84v33.20" stroke="currentColor" fill="none"/>
<use x="531.93" y="194.84" xlink:href="#hd"/>
<path d="M528.43 194.84v18.20" stroke="currentColor" fill="none"/>
<use x="544.43" y="179.84" xlink:href="#hd"/>
<path d="M540.93 179.84v33.20" stroke="currentColor" fill="none"/>
<use x="568.53" y="182.84" xlink:href="#hd"/>
<path d="M565.03 182.84v20.00" stroke="currentColor" fill="none"/>
<use x="586.73" y="188.84" xlink:href="#hd"/>
<path d="M583.23 188.84v20.00" stroke="currentColor" fill="none"/>
<path fill="currentColor"
	d="M601.03 211.44l13.20 -2.10v-3.20l-13.20 2.10"/>
<use x="604.93" y="191.84" xlink:href="#hd"/>
<path d="M601.43 191.84v18.50" stroke="currentColor" fill="none"/>
<use x="617.43" y="188.84" xlink:href="#hd"/>
<path d="M613.93 188.84v19.50" stroke="currentColor" fill="none"/>
<use x="641.53" y="179.84" xlink:href="#hd"/>
<path d="M638.03 179.84v20.00" stroke="currentColor" fill="none"/>
<use x="659.73" y="191.84" xlink:href="#r4"/>
<use x="677.93" y="191.84" xlink:href="#r4"/>
</g>
</svg>
