<?xml version="1.0" standalone="no"?>
<!DOCTYPE svg PUBLIC "-//W3C//DTD SVG 1.1//EN"
	"http://www.w3.org/Graphics/SVG/1.1/DTD/svg11.dtd">
<svg xmlns="http://www.w3.org/2000/svg" version="1.1"
	xmlns:xlink="http://www.w3.org/1999/xlink"
	xml:space='preserve' color="black"
	width="7.38in" height="3.64in" viewBox="0 0 531 262">
<title>data/results/biggest_11/abc/313.abc (313) tune 1</title>
<!-- Creator: abcm2ps-7.8.14 -->
<!-- CreationDate: Aug  9, 2015 23:50 -->
<!-- CommandLine: -g data/results/biggest_11/abc/313.abc -O /home/allanino/Dropbox/Trabalhos/folkme/svg/313.svg -->
<g transform="scale(0.750)" stroke-width="0.70" font-family="Times" font-size="20.00">
<text x="354.13" y="21.67" text-anchor="middle">John Crowley&apos;s</text>
<path stroke="currentColor" fill="none"
	d="M378.83 98.01v-24.00"/>
<path stroke="currentColor" fill="none"
	d="M694.93 98.01v-24.00"/>
<path stroke="currentColor" fill="none"
	d="M13.33 98.01h681.60m-681.60 -6h681.60m-681.60 -6h681.60m-681.60 -6h681.60m-681.60 -6h681.60"/>
<defs>
<path id="utclef" fill="currentColor" d="m-50 -90
	c-72 -41 -72 -158 52 -188
	c150 -10 220 188 90 256
	c-114 52 -275 0 -293 -136
	c-15 -181 93 -229 220 -334
	c88 -87 79 -133 62 -210
	c-51 33 -94 105 -89 186
	c17 267 36 374 49 574
	c6 96 -19 134 -77 135
	c-80 1 -126 -93 -61 -133
	c85 -41 133 101 31 105
	c23 17 92 37 90 -92
	c-10 -223 -39 -342 -50 -617
	c0 -90 0 -162 96 -232
	c56 72 63 230 22 289
	c-74 106 -257 168 -255 316
	c9 153 148 185 252 133
	c86 -65 29 -192 -80 -176
	c-71 12 -105 67 -59 124"/>
<use id="tclef" transform="scale(0.045)"
	xlink:href="#utclef"/>
</defs>
<use x="25.33" y="98.01" xlink:href="#tclef"/>
<defs>
<path id="usharp" fill="currentColor" d="
	m136 -702
	v890
	h32
	v-890
	m128 840
	h32
	v-888
	h-32
	m-232 286
	v116
	l338 -96
	v-116
	m-338 442
	v116
	l338 -98
	v-114"/>
<use id="sh0" transform="translate(-4,5) scale(0.018)"
	xlink:href="#usharp"/>
</defs>
<use x="40.33" y="74.01" xlink:href="#sh0"/>
<defs>
<path id="csig" fill="currentColor" d="
	m1 -17.3
	c0.9 0 2.3 0.7 2.4 2.2
	c-1.2 -2 -3.6 0.1 -1.6 1.7
	c2 1 3.8 -3.5 -0.8 -4.7
	c-2 -0.4 -6.4 1.3 -5.8 7
	c0.4 6.4 7.9 6.8 9.1 0.7
	c-2.3 5.6 -6.7 5.1 -6.8 0
	c-0.5 -4.4 0.7 -7.5 3.5 -6.9"/>
<g id="ctsig">
	<use xlink:href="#csig"/>
	<path d="m0 -4v-16" stroke="currentColor"/>
</g>
</defs>
<use x="56.33" y="98.01" xlink:href="#ctsig"/>
<path fill="currentColor"
	d="M77.53 71.81l123.90 -5.90v3.20l-123.90 5.90"/>
<defs>
<ellipse id="hd" rx="4.1" ry="2.9"
	transform="rotate(-20)" fill="currentColor"/>
</defs>
<use x="74.33" y="98.01" xlink:href="#hd"/>
<path d="M77.83 98.01v-25.20" stroke="currentColor" fill="none"/>
<use x="115.43" y="89.01" xlink:href="#hd"/>
<path d="M118.93 89.01v-18.20" stroke="currentColor" fill="none"/>
<use x="156.43" y="89.01" xlink:href="#hd"/>
<path d="M159.93 89.01v-20.20" stroke="currentColor" fill="none"/>
<use x="197.53" y="86.01" xlink:href="#hd"/>
<path d="M201.03 86.01v-19.10" stroke="currentColor" fill="none"/>
<use x="243.23" y="83.01" xlink:href="#hd"/>
<path d="M239.73 83.01v20.00" stroke="currentColor" fill="none"/>
<path fill="currentColor"
	d="M304.43 66.21l41.80 2.70v3.20l-41.80 -2.70"/>
<use x="301.23" y="86.01" xlink:href="#hd"/>
<path d="M304.73 86.01v-18.80" stroke="currentColor" fill="none"/>
<use x="342.33" y="89.01" xlink:href="#hd"/>
<path d="M345.83 89.01v-19.20" stroke="currentColor" fill="none"/>
<path fill="currentColor"
	d="M404.83 72.61l41.80 4.70v3.20l-41.80 -4.70"/>
<use x="401.63" y="92.01" xlink:href="#hd"/>
<path d="M405.13 92.01v-18.30" stroke="currentColor" fill="none"/>
<use x="442.73" y="98.01" xlink:href="#hd"/>
<path d="M446.23 98.01v-19.70" stroke="currentColor" fill="none"/>
<use x="488.33" y="98.01" xlink:href="#hd"/>
<path d="M491.83 98.01v-20.00" stroke="currentColor" fill="none"/>
<use x="552.83" y="101.01" xlink:href="#hd"/>
<path d="M556.33 101.01v-20.00" stroke="currentColor" fill="none"/>
<path fill="currentColor"
	d="M620.53 74.41l41.80 -4.70v3.20l-41.80 4.70"/>
<use x="617.33" y="95.01" xlink:href="#hd"/>
<path d="M620.83 95.01v-19.70" stroke="currentColor" fill="none"/>
<use x="658.43" y="89.01" xlink:href="#hd"/>
<path d="M661.93 89.01v-18.30" stroke="currentColor" fill="none"/>
<defs>
<path id="grm" fill="currentColor" d="
	m-5 -2.5
	c5 -8.5 5.5 4.5 10 -2
	c-5 8.5 -5.5 -4.5 -10 2"/>
</defs>
<use x="488.33" y="72.01" xlink:href="#grm"/>
<path stroke="currentColor" fill="none"
	d="M261.63 176.01v-24.00"/>
<path stroke="currentColor" fill="none" stroke-width="3"
	d="M475.23 176.01v-24.00"/>
<path stroke="currentColor" fill="none"
	d="M470.73 176.01v-24.00"/>
<defs>
<g id="rdots" fill="currentColor">
	<circle cx="0" cy="-9" r="1.2"/>
	<circle cx="0" cy="-15" r="1.2"/>
</g>
</defs>
<use x="466.73" y="176.01" xlink:href="#rdots"/>
<path stroke="currentColor" fill="none"
	d="M694.93 176.01v-24.00"/>
<path stroke="currentColor" fill="none"
	d="M691.93 176.01v-24.00"/>
<path stroke="currentColor" fill="none"
	d="M13.33 176.01h681.60m-681.60 -6h681.60m-681.60 -6h681.60m-681.60 -6h681.60m-681.60 -6h681.60"/>
</g>
<g transform="scale(0.750)" stroke-width="0.70" font-family="Times" font-size="13.00">
<text x="265.63" y="134.41">1</text>
<path stroke="currentColor" fill="none"
	d="M261.63 123.01v20M261.63 123.01h207.20v20"/>
<text x="480.73" y="134.41">2</text>
<path stroke="currentColor" fill="none"
	d="M476.73 123.01v20M476.73 123.01h218.20v20"/>
<use x="25.33" y="176.01" xlink:href="#tclef"/>
<use x="40.33" y="152.01" xlink:href="#sh0"/>
<path fill="currentColor"
	d="M61.53 144.71l27.50 6.50v3.20l-27.50 -6.50"/>
<use x="58.33" y="164.01" xlink:href="#hd"/>
<path d="M61.83 164.01v-18.20" stroke="currentColor" fill="none"/>
<use x="85.13" y="176.01" xlink:href="#hd"/>
<path d="M88.63 176.01v-23.90" stroke="currentColor" fill="none"/>
<use x="115.03" y="176.01" xlink:href="#hd"/>
<path d="M118.53 176.01v-20.00" stroke="currentColor" fill="none"/>
<path fill="currentColor"
	d="M160.33 149.21l81.20 -7.40v3.20l-81.20 7.40"/>
<use x="157.13" y="170.01" xlink:href="#hd"/>
<path d="M160.63 170.01v-19.80" stroke="currentColor" fill="none"/>
<use x="184.03" y="167.01" xlink:href="#hd"/>
<path d="M187.53 167.01v-19.30" stroke="currentColor" fill="none"/>
<use x="210.83" y="164.01" xlink:href="#hd"/>
<path d="M214.33 164.01v-18.70" stroke="currentColor" fill="none"/>
<use x="237.73" y="161.01" xlink:href="#hd"/>
<path d="M241.23 161.01v-18.20" stroke="currentColor" fill="none"/>
<path fill="currentColor"
	d="M272.63 186.21l81.20 0.00v-3.20l-81.20 -0.00"/>
<use x="276.53" y="167.01" xlink:href="#hd"/>
<path d="M273.03 167.01v18.20" stroke="currentColor" fill="none"/>
<use x="303.33" y="161.01" xlink:href="#hd"/>
<path d="M299.83 161.01v24.20" stroke="currentColor" fill="none"/>
<use x="330.23" y="164.01" xlink:href="#hd"/>
<path d="M326.73 164.01v21.20" stroke="currentColor" fill="none"/>
<use x="357.03" y="161.01" xlink:href="#hd"/>
<path d="M353.53 161.01v24.20" stroke="currentColor" fill="none"/>
<use x="383.93" y="167.01" xlink:href="#hd"/>
<path d="M387.43 167.01v-20.00" stroke="currentColor" fill="none"/>
<path fill="currentColor"
	d="M429.23 146.81l27.50 -2.50v3.20l-27.50 2.50"/>
<use x="426.03" y="167.01" xlink:href="#hd"/>
<path d="M429.53 167.01v-19.30" stroke="currentColor" fill="none"/>
<use x="452.93" y="164.01" xlink:href="#hd"/>
<path d="M456.43 164.01v-18.70" stroke="currentColor" fill="none"/>
<path fill="currentColor"
	d="M494.83 141.81l81.20 0.00v3.20l-81.20 -0.00"/>
<use x="491.63" y="167.01" xlink:href="#hd"/>
<path d="M495.13 167.01v-24.20" stroke="currentColor" fill="none"/>
<use x="518.53" y="161.01" xlink:href="#hd"/>
<path d="M522.03 161.01v-18.20" stroke="currentColor" fill="none"/>
<use x="545.33" y="164.01" xlink:href="#hd"/>
<path d="M548.83 164.01v-21.20" stroke="currentColor" fill="none"/>
<use x="572.23" y="170.01" xlink:href="#hd"/>
<path d="M575.73 170.01v-27.20" stroke="currentColor" fill="none"/>
<use x="602.03" y="167.01" xlink:href="#hd"/>
<path d="M605.53 167.01v-20.00" stroke="currentColor" fill="none"/>
<path fill="currentColor"
	d="M647.33 147.21l27.50 2.50v3.20l-27.50 -2.50"/>
<use x="644.23" y="167.01" xlink:href="#hd"/>
<path d="M647.73 167.01v-18.70" stroke="currentColor" fill="none"/>
<use x="671.03" y="170.01" xlink:href="#hd"/>
<path d="M674.53 170.01v-19.30" stroke="currentColor" fill="none"/>
<use x="115.03" y="150.01" xlink:href="#grm"/>
<use x="64.83" y="255.01" xlink:href="#rdots"/>
<path stroke="currentColor" fill="none"
	d="M60.83 255.01v-24.00"/>
<path stroke="currentColor" fill="none" stroke-width="3"
	d="M56.33 255.01v-24.00"/>
<path stroke="currentColor" fill="none"
	d="M236.53 255.01v-24.00"/>
<path stroke="currentColor" fill="none"
	d="M390.03 255.01v-24.00"/>
<path stroke="currentColor" fill="none"
	d="M530.63 255.01v-24.00"/>
<path stroke="currentColor" fill="none"
	d="M694.93 255.01v-24.00"/>
<path stroke="currentColor" fill="none"
	d="M13.33 255.01h681.60m-681.60 -6h681.60m-681.60 -6h681.60m-681.60 -6h681.60m-681.60 -6h681.60"/>
<path stroke="currentColor" fill="none"
	d="M77.33 206.01v-3l38.60 -0.00v3"/>
<rect x="89.63" y="197.01" width="14.00" height="12" fill="white"/>
<text font-family="serif" font-size="12" font-style="italic" font-weight="normal"
	x="96.63" y="207.01" text-anchor="middle">3</text>
<use x="25.33" y="255.01" xlink:href="#tclef"/>
<use x="40.33" y="231.01" xlink:href="#sh0"/>
<path fill="currentColor"
	d="M81.53 214.81l141.70 0.00v3.20l-141.70 -0.00"/>
<use x="78.33" y="255.01" xlink:href="#hd"/>
<path d="M81.83 255.01v-39.20" stroke="currentColor" fill="none"/>
<use x="93.43" y="252.01" xlink:href="#hd"/>
<path d="M96.93 252.01v-36.20" stroke="currentColor" fill="none"/>
<use x="108.43" y="249.01" xlink:href="#hd"/>
<path d="M111.93 249.01v-33.20" stroke="currentColor" fill="none"/>
<use x="123.53" y="246.01" xlink:href="#hd"/>
<path d="M127.03 246.01v-30.20" stroke="currentColor" fill="none"/>
<use x="142.73" y="243.01" xlink:href="#hd"/>
<path d="M146.23 243.01v-27.20" stroke="currentColor" fill="none"/>
<use x="161.83" y="240.01" xlink:href="#hd"/>
<path d="M165.33 240.01v-24.20" stroke="currentColor" fill="none"/>
<use x="181.03" y="243.01" xlink:href="#hd"/>
<path d="M184.53 243.01v-27.20" stroke="currentColor" fill="none"/>
<use x="200.23" y="240.01" xlink:href="#hd"/>
<path d="M203.73 240.01v-24.20" stroke="currentColor" fill="none"/>
<use x="219.33" y="234.01" xlink:href="#hd"/>
<path d="M222.83 234.01v-18.20" stroke="currentColor" fill="none"/>
<path fill="currentColor"
	d="M252.13 217.81l96.50 8.50v3.20l-96.50 -8.50"/>
<use x="249.03" y="237.01" xlink:href="#hd"/>
<path d="M252.53 237.01v-18.20" stroke="currentColor" fill="none"/>
<use x="268.13" y="240.01" xlink:href="#hd"/>
<path d="M271.63 240.01v-19.50" stroke="currentColor" fill="none"/>
<use x="287.33" y="243.01" xlink:href="#hd"/>
<path d="M290.83 243.01v-20.80" stroke="currentColor" fill="none"/>
<use x="306.53" y="246.01" xlink:href="#hd"/>
<path d="M310.03 246.01v-22.10" stroke="currentColor" fill="none"/>
<use x="325.63" y="249.01" xlink:href="#hd"/>
<path d="M329.13 249.01v-23.40" stroke="currentColor" fill="none"/>
<use x="344.83" y="255.01" xlink:href="#hd"/>
<path d="M348.33 255.01v-27.70" stroke="currentColor" fill="none"/>
<use x="366.03" y="258.01" xlink:href="#hd"/>
<path d="M369.53 258.01v-20.00" stroke="currentColor" fill="none"/>
<use x="402.53" y="255.01" xlink:href="#hd"/>
<circle fill="currentColor" cx="410.53" cy="252.01" r="1.2"/>
<path d="M406.03 255.01v-20.00" stroke="currentColor" fill="none"/>
<path fill="currentColor"
	d="M440.03 220.81l77.30 0.00v3.20l-77.30 -0.00"/>
<use x="436.83" y="240.01" xlink:href="#hd"/>
<path d="M440.33 240.01v-18.20" stroke="currentColor" fill="none"/>
<use x="456.03" y="243.01" xlink:href="#hd"/>
<path d="M459.53 243.01v-21.20" stroke="currentColor" fill="none"/>
<use x="475.13" y="246.01" xlink:href="#hd"/>
<path d="M478.63 246.01v-24.20" stroke="currentColor" fill="none"/>
<use x="494.33" y="249.01" xlink:href="#hd"/>
<path d="M497.83 249.01v-27.20" stroke="currentColor" fill="none"/>
<use x="513.53" y="243.01" xlink:href="#hd"/>
<path d="M517.03 243.01v-21.20" stroke="currentColor" fill="none"/>
<path fill="currentColor"
	d="M546.23 217.81l135.40 0.00v3.20l-135.40 -0.00"/>
<use x="543.13" y="246.01" xlink:href="#hd"/>
<path d="M546.63 246.01v-27.20" stroke="currentColor" fill="none"/>
<use x="562.33" y="249.01" xlink:href="#hd"/>
<path d="M565.83 249.01v-30.20" stroke="currentColor" fill="none"/>
<use x="581.43" y="246.01" xlink:href="#hd"/>
<path d="M584.93 246.01v-27.20" stroke="currentColor" fill="none"/>
<use x="600.63" y="243.01" xlink:href="#hd"/>
<path d="M604.13 243.01v-24.20" stroke="currentColor" fill="none"/>
<use x="619.83" y="240.01" xlink:href="#hd"/>
<path d="M623.33 240.01v-21.20" stroke="currentColor" fill="none"/>
<use x="638.93" y="246.01" xlink:href="#hd"/>
<path d="M642.43 246.01v-27.20" stroke="currentColor" fill="none"/>
<use x="658.13" y="237.01" xlink:href="#hd"/>
<path d="M661.63 237.01v-18.20" stroke="currentColor" fill="none"/>
<use x="677.83" y="240.01" xlink:href="#hd"/>
<defs>
<path id="unat" fill="currentColor" d="
	m96 -750
	h-32
	v716
	l32 -8
	l182 -54
	v282
	h32
	v-706
	l-34 10
	l-180 50
	v-290
	m0 592
	v-190
	l182 -52
	v188"/>
<use id="nt0" transform="translate(-3,5) scale(0.018)"
	xlink:href="#unat"/>
</defs>
<use x="668.83" y="240.01" xlink:href="#nt0"/>
<path d="M681.33 240.01v-21.20" stroke="currentColor" fill="none"/>
<use x="402.53" y="229.01" xlink:href="#grm"/>
<path stroke="currentColor" fill="none"
	d="M214.63 326.21v-24.00"/>
<path stroke="currentColor" fill="none"
	d="M371.53 326.21v-24.00"/>
<path stroke="currentColor" fill="none"
	d="M528.33 326.21v-24.00"/>
<path stroke="currentColor" fill="none" stroke-width="3"
	d="M693.43 326.21v-24.00"/>
<path stroke="currentColor" fill="none"
	d="M688.93 326.21v-24.00"/>
<use x="684.93" y="326.21" xlink:href="#rdots"/>
<path stroke="currentColor" fill="none"
	d="M13.33 326.21h681.60m-681.60 -6h681.60m-681.60 -6h681.60m-681.60 -6h681.60m-681.60 -6h681.60"/>
<path stroke="currentColor" fill="none"
	d="M54.33 297.21v-3l38.00 -0.00v3"/>
<rect x="66.33" y="288.21" width="14.00" height="12" fill="white"/>
<text font-family="serif" font-size="12" font-style="italic" font-weight="normal"
	x="73.33" y="298.21" text-anchor="middle">3</text>
<text font-family="serif" font-size="12" font-style="italic" font-weight="normal"
	x="187.83" y="286.01" text-anchor="middle">3</text>
<use x="25.33" y="326.21" xlink:href="#tclef"/>
<use x="40.33" y="302.21" xlink:href="#sh0"/>
<path fill="currentColor"
	d="M54.53 339.41l64.80 0.00v-3.20l-64.80 -0.00"/>
<use x="58.33" y="314.21" xlink:href="#hd"/>
<path d="M54.83 314.21v24.20" stroke="currentColor" fill="none"/>
<use x="73.33" y="311.21" xlink:href="#hd"/>
<path d="M69.83 311.21v27.20" stroke="currentColor" fill="none"/>
<use x="88.33" y="308.21" xlink:href="#hd"/>
<path d="M84.83 308.21v30.20" stroke="currentColor" fill="none"/>
<use x="103.33" y="314.21" xlink:href="#hd"/>
<path d="M99.83 314.21v24.20" stroke="currentColor" fill="none"/>
<use x="122.43" y="320.21" xlink:href="#hd"/>
<path d="M118.93 320.21v18.20" stroke="currentColor" fill="none"/>
<use x="141.53" y="317.21" xlink:href="#hd"/>
<path d="M145.03 317.21v-20.00" stroke="currentColor" fill="none"/>
<path fill="currentColor"
	d="M174.33 296.41l30.70 -4.40v3.20l-30.70 4.40"/>
<use x="171.23" y="317.21" xlink:href="#hd"/>
<path d="M174.73 317.21v-19.90" stroke="currentColor" fill="none"/>
<use x="186.23" y="314.21" xlink:href="#hd"/>
<path d="M189.73 314.21v-19.10" stroke="currentColor" fill="none"/>
<use x="201.23" y="311.21" xlink:href="#hd"/>
<path d="M204.73 311.21v-18.20" stroke="currentColor" fill="none"/>
<path fill="currentColor"
	d="M230.23 295.31l57.90 -5.00v3.20l-57.90 5.00"/>
<use x="227.13" y="326.21" xlink:href="#hd"/>
<path d="M230.63 326.21v-29.90" stroke="currentColor" fill="none"/>
<use x="246.23" y="317.21" xlink:href="#hd"/>
<path d="M249.73 317.21v-22.60" stroke="currentColor" fill="none"/>
<use x="265.33" y="311.21" xlink:href="#hd"/>
<path d="M268.83 311.21v-18.20" stroke="currentColor" fill="none"/>
<use x="284.33" y="317.21" xlink:href="#hd"/>
<path d="M287.83 317.21v-25.80" stroke="currentColor" fill="none"/>
<use x="305.63" y="308.21" xlink:href="#hd"/>
<path d="M302.13 308.21v20.00" stroke="currentColor" fill="none"/>
<path fill="currentColor"
	d="M331.53 330.91l19.80 -2.40v-3.20l-19.80 2.40"/>
<use x="335.33" y="311.21" xlink:href="#hd"/>
<path d="M331.83 311.21v18.60" stroke="currentColor" fill="none"/>
<use x="354.43" y="308.21" xlink:href="#hd"/>
<path d="M350.93 308.21v19.40" stroke="currentColor" fill="none"/>
<path fill="currentColor"
	d="M380.13 323.21l57.90 0.00v-3.20l-57.90 -0.00"/>
<use x="384.03" y="305.21" xlink:href="#hd"/>
<path d="M380.53 305.21v17.00" stroke="currentColor" fill="none"/>
<use x="403.03" y="302.21" xlink:href="#hd"/>
<path d="M399.53 302.21v20.00" stroke="currentColor" fill="none"/>
<use x="422.13" y="299.21" xlink:href="#hd"/>
<path d="M418.63 299.21v23.00" stroke="currentColor" fill="none"/>
<use x="441.23" y="305.21" xlink:href="#hd"/>
<path d="M437.73 305.21v17.00" stroke="currentColor" fill="none"/>
<defs>
<path id="hl" stroke="currentColor" d="m-6 0h12"/>
</defs>
<use x="462.43" y="296.21" xlink:href="#hl"/>
<use x="462.43" y="293.21" xlink:href="#hd"/>
<path d="M458.93 293.21v21.00" stroke="currentColor" fill="none"/>
<path fill="currentColor"
	d="M488.33 316.51l19.80 2.40v-3.20l-19.80 -2.40"/>
<use x="492.13" y="296.21" xlink:href="#hl"/>
<use x="492.13" y="296.21" xlink:href="#hd"/>
<path d="M488.63 296.21v19.40" stroke="currentColor" fill="none"/>
<use x="511.23" y="299.21" xlink:href="#hd"/>
<path d="M507.73 299.21v18.60" stroke="currentColor" fill="none"/>
<path fill="currentColor"
	d="M536.93 336.41l134.30 0.00v-3.20l-134.30 -0.00"/>
<use x="540.83" y="302.21" xlink:href="#hd"/>
<path d="M537.33 302.21v33.20" stroke="currentColor" fill="none"/>
<use x="559.93" y="308.21" xlink:href="#hd"/>
<path d="M556.43 308.21v27.20" stroke="currentColor" fill="none"/>
<use x="579.03" y="308.21" xlink:href="#hd"/>
<path d="M575.53 308.21v27.20" stroke="currentColor" fill="none"/>
<use x="598.13" y="311.21" xlink:href="#hd"/>
<path d="M594.63 311.21v24.20" stroke="currentColor" fill="none"/>
<use x="617.13" y="314.21" xlink:href="#hd"/>
<path d="M613.63 314.21v21.20" stroke="currentColor" fill="none"/>
<use x="636.23" y="317.21" xlink:href="#hd"/>
<path d="M632.73 317.21v18.20" stroke="currentColor" fill="none"/>
<use x="655.33" y="314.21" xlink:href="#hd"/>
<path d="M651.83 314.21v21.20" stroke="currentColor" fill="none"/>
<use x="674.43" y="311.21" xlink:href="#hd"/>
<path d="M670.93 311.21v24.20" stroke="currentColor" fill="none"/>
</g>
</svg>
