<?xml version="1.0" standalone="no"?>
<!DOCTYPE svg PUBLIC "-//W3C//DTD SVG 1.1//EN"
	"http://www.w3.org/Graphics/SVG/1.1/DTD/svg11.dtd">
<svg xmlns="http://www.w3.org/2000/svg" version="1.1"
	xmlns:xlink="http://www.w3.org/1999/xlink"
	xml:space='preserve' color="black"
	width="7.38in" height="2.32in" viewBox="0 0 531 167">
<title>data/results/biggest_11/abc/317.abc (317) tune 1</title>
<!-- Creator: abcm2ps-7.8.14 -->
<!-- CreationDate: Aug  9, 2015 23:50 -->
<!-- CommandLine: -g data/results/biggest_11/abc/317.abc -O /home/allanino/Dropbox/Trabalhos/folkme/svg/317.svg -->
<g transform="scale(0.750)" stroke-width="0.70" font-family="Times" font-size="20.00">
<text x="354.13" y="21.67" text-anchor="middle">Walzer FBb chords</text>
</g>
<g transform="scale(0.750)" stroke-width="0.70" font-family="Times" font-size="16.00">
<text x="354.13" y="41.30" text-anchor="middle">Hanny Christen. Bd.VIII Zug, Luzern, Uri I. S.221 (wz09600) orig. F,C-Dur</text>
<defs>
<g id="rdots" fill="currentColor">
	<circle cx="0" cy="-9" r="1.2"/>
	<circle cx="0" cy="-15" r="1.2"/>
</g>
</defs>
<use x="108.93" y="124.84" xlink:href="#rdots"/>
<path stroke="currentColor" fill="none"
	d="M104.93 124.84v-24.00"/>
<path stroke="currentColor" fill="none" stroke-width="3"
	d="M100.43 124.84v-24.00"/>
<path stroke="currentColor" fill="none"
	d="M211.33 124.84v-24.00"/>
<path stroke="currentColor" fill="none"
	d="M304.03 124.84v-24.00"/>
<path stroke="currentColor" fill="none"
	d="M405.53 124.84v-24.00"/>
<path stroke="currentColor" fill="none"
	d="M507.03 124.84v-24.00"/>
<path stroke="currentColor" fill="none"
	d="M608.83 124.84v-24.00"/>
<path stroke="currentColor" fill="none" stroke-width="3"
	d="M693.43 124.84v-24.00"/>
<path stroke="currentColor" fill="none"
	d="M688.93 124.84v-24.00"/>
<use x="684.93" y="124.84" xlink:href="#rdots"/>
<path stroke="currentColor" fill="none"
	d="M13.33 124.84h681.60m-681.60 -6h681.60m-681.60 -6h681.60m-681.60 -6h681.60m-681.60 -6h681.60"/>
</g>
<g transform="scale(0.750)" stroke-width="0.70" font-family="Helvetica" font-size="12.00">
<text x="119.43" y="81.44">F</text>
<text x="217.73" y="81.44">C7</text>
<text x="313.63" y="81.44">F</text>
<text x="411.83" y="81.44">C7</text>
<text x="618.33" y="81.44">F</text>
<defs>
<path id="utclef" fill="currentColor" d="m-50 -90
	c-72 -41 -72 -158 52 -188
	c150 -10 220 188 90 256
	c-114 52 -275 0 -293 -136
	c-15 -181 93 -229 220 -334
	c88 -87 79 -133 62 -210
	c-51 33 -94 105 -89 186
	c17 267 36 374 49 574
	c6 96 -19 134 -77 135
	c-80 1 -126 -93 -61 -133
	c85 -41 133 101 31 105
	c23 17 92 37 90 -92
	c-10 -223 -39 -342 -50 -617
	c0 -90 0 -162 96 -232
	c56 72 63 230 22 289
	c-74 106 -257 168 -255 316
	c9 153 148 185 252 133
	c86 -65 29 -192 -80 -176
	c-71 12 -105 67 -59 124"/>
<use id="tclef" transform="scale(0.045)"
	xlink:href="#utclef"/>
</defs>
<use x="25.33" y="124.84" xlink:href="#tclef"/>
<defs>
<path id="uflat" fill="currentColor" d="
	m100 -746
	h32
	v734
	l-32 4
	m32 -332
	c46 -72 152 -90 208 -20
	c100 110 -120 326 -208 348
	m0 -28
	c54 0 200 -206 130 -290
	c-50 -60 -130 -4 -130 34"/>
<use id="ft0" transform="translate(-3.5,3.5) scale(0.018)"
	xlink:href="#uflat"/>
</defs>
<use x="40.33" y="112.84" xlink:href="#ft0"/>
<g font-family="serif" font-size="16" font-weight="bold" font-style="normal"
	transform="translate(56.33,124.84) scale(1.2,1)">
	<text y="-1" text-anchor="middle">4</text>
	<text y="-13" text-anchor="middle">3</text>
</g>
<path fill="currentColor"
	d="M77.53 102.24l15.70 2.20v3.20l-15.70 -2.20"/>
<defs>
<ellipse id="hd" rx="4.1" ry="2.9"
	transform="rotate(-20)" fill="currentColor"/>
</defs>
<use x="74.33" y="121.84" xlink:href="#hd"/>
<path d="M77.83 121.84v-18.60" stroke="currentColor" fill="none"/>
<use x="89.43" y="124.84" xlink:href="#hd"/>
<path d="M92.93 124.84v-19.40" stroke="currentColor" fill="none"/>
<path fill="currentColor"
	d="M125.53 90.64l76.00 0.00v3.20l-76.00 -0.00"/>
<defs>
<path id="hl" stroke="currentColor" d="m-6 0h12"/>
</defs>
<use x="122.43" y="130.84" xlink:href="#hl"/>
<use x="122.43" y="130.84" xlink:href="#hd"/>
<path d="M125.93 130.84v-39.20" stroke="currentColor" fill="none"/>
<use x="137.43" y="115.84" xlink:href="#hd"/>
<path d="M140.93 115.84v-24.20" stroke="currentColor" fill="none"/>
<use x="152.53" y="109.84" xlink:href="#hd"/>
<path d="M156.03 109.84v-18.20" stroke="currentColor" fill="none"/>
<use x="167.53" y="121.84" xlink:href="#hd"/>
<path d="M171.03 121.84v-30.20" stroke="currentColor" fill="none"/>
<use x="182.63" y="115.84" xlink:href="#hd"/>
<path d="M186.13 115.84v-24.20" stroke="currentColor" fill="none"/>
<use x="197.63" y="130.84" xlink:href="#hl"/>
<use x="197.63" y="130.84" xlink:href="#hd"/>
<path d="M201.13 130.84v-39.20" stroke="currentColor" fill="none"/>
<path fill="currentColor"
	d="M227.03 97.24l45.80 -6.60v3.20l-45.80 6.60"/>
<use x="223.83" y="124.84" xlink:href="#hd"/>
<path d="M227.33 124.84v-26.70" stroke="currentColor" fill="none"/>
<use x="238.93" y="130.84" xlink:href="#hl"/>
<use x="238.93" y="130.84" xlink:href="#hd"/>
<path d="M242.43 130.84v-34.80" stroke="currentColor" fill="none"/>
<use x="253.93" y="124.84" xlink:href="#hd"/>
<path d="M257.43 124.84v-31.00" stroke="currentColor" fill="none"/>
<use x="269.03" y="109.84" xlink:href="#hd"/>
<path d="M272.53 109.84v-18.20" stroke="currentColor" fill="none"/>
<use x="285.53" y="130.84" xlink:href="#hl"/>
<use x="285.53" y="130.84" xlink:href="#hd"/>
<path d="M289.03 130.84v-20.00" stroke="currentColor" fill="none"/>
<path fill="currentColor"
	d="M319.73 90.64l76.00 0.00v3.20l-76.00 -0.00"/>
<use x="316.53" y="109.84" xlink:href="#hd"/>
<path d="M320.03 109.84v-18.20" stroke="currentColor" fill="none"/>
<use x="331.63" y="121.84" xlink:href="#hd"/>
<path d="M335.13 121.84v-30.20" stroke="currentColor" fill="none"/>
<use x="346.73" y="115.84" xlink:href="#hd"/>
<path d="M350.23 115.84v-24.20" stroke="currentColor" fill="none"/>
<use x="361.73" y="109.84" xlink:href="#hd"/>
<path d="M365.23 109.84v-18.20" stroke="currentColor" fill="none"/>
<use x="376.83" y="121.84" xlink:href="#hd"/>
<path d="M380.33 121.84v-30.20" stroke="currentColor" fill="none"/>
<use x="391.83" y="115.84" xlink:href="#hd"/>
<path d="M395.33 115.84v-24.20" stroke="currentColor" fill="none"/>
<path fill="currentColor"
	d="M421.23 93.64l76.00 0.00v3.20l-76.00 -0.00"/>
<use x="418.03" y="130.84" xlink:href="#hl"/>
<use x="418.03" y="130.84" xlink:href="#hd"/>
<path d="M421.53 130.84v-36.20" stroke="currentColor" fill="none"/>
<use x="433.13" y="124.84" xlink:href="#hd"/>
<path d="M436.63 124.84v-30.20" stroke="currentColor" fill="none"/>
<use x="448.13" y="118.84" xlink:href="#hd"/>
<path d="M451.63 118.84v-24.20" stroke="currentColor" fill="none"/>
<use x="463.23" y="112.84" xlink:href="#hd"/>
<path d="M466.73 112.84v-18.20" stroke="currentColor" fill="none"/>
<use x="478.23" y="130.84" xlink:href="#hl"/>
<use x="478.23" y="130.84" xlink:href="#hd"/>
<path d="M481.73 130.84v-36.20" stroke="currentColor" fill="none"/>
<use x="493.33" y="124.84" xlink:href="#hd"/>
<path d="M496.83 124.84v-30.20" stroke="currentColor" fill="none"/>
<path fill="currentColor"
	d="M522.63 93.64l76.30 0.00v3.20l-76.30 -0.00"/>
<use x="519.53" y="118.84" xlink:href="#hd"/>
<path d="M523.03 118.84v-24.20" stroke="currentColor" fill="none"/>
<use x="534.53" y="130.84" xlink:href="#hl"/>
<use x="534.53" y="130.84" xlink:href="#hd"/>
<path d="M538.03 130.84v-36.20" stroke="currentColor" fill="none"/>
<use x="549.93" y="130.84" xlink:href="#hl"/>
<use x="549.93" y="133.84" xlink:href="#hd"/>
<path d="M553.43 133.84v-39.20" stroke="currentColor" fill="none"/>
<use x="565.03" y="112.84" xlink:href="#hd"/>
<path d="M568.53 112.84v-18.20" stroke="currentColor" fill="none"/>
<use x="580.03" y="118.84" xlink:href="#hd"/>
<path d="M583.53 118.84v-24.20" stroke="currentColor" fill="none"/>
<use x="595.13" y="124.84" xlink:href="#hd"/>
<path d="M598.63 124.84v-30.20" stroke="currentColor" fill="none"/>
<use x="621.33" y="121.84" xlink:href="#hd"/>
<path d="M624.83 121.84v-20.00" stroke="currentColor" fill="none"/>
<defs>
<path id="r4" fill="currentColor" d="m-1 -8.5
	l3.6 5.1 -2.1 5.2 2.2 4.3
	c-2.6 -2.3 -5.1 0 -2.4 2.6
	c-4.8 -3 -1.5 -6.9 1.4 -4.1
	l-3.1 -4.5 1.9 -5.1 -1.5 -3.5"/>
</defs>
<use x="643.83" y="112.84" xlink:href="#r4"/>
<use x="666.43" y="112.84" xlink:href="#r4"/>
<use x="64.83" y="199.84" xlink:href="#rdots"/>
<path stroke="currentColor" fill="none"
	d="M60.83 199.84v-24.00"/>
<path stroke="currentColor" fill="none" stroke-width="3"
	d="M56.33 199.84v-24.00"/>
<path stroke="currentColor" fill="none"
	d="M142.63 199.84v-24.00"/>
<path stroke="currentColor" fill="none"
	d="M219.33 199.84v-24.00"/>
<path stroke="currentColor" fill="none"
	d="M303.83 199.84v-24.00"/>
<path stroke="currentColor" fill="none"
	d="M380.63 199.84v-24.00"/>
<path stroke="currentColor" fill="none"
	d="M465.03 199.84v-24.00"/>
<path stroke="currentColor" fill="none"
	d="M541.83 199.84v-24.00"/>
<path stroke="currentColor" fill="none"
	d="M626.33 199.84v-24.00"/>
<path stroke="currentColor" fill="none" stroke-width="3"
	d="M693.43 199.84v-24.00"/>
<path stroke="currentColor" fill="none"
	d="M688.93 199.84v-24.00"/>
<use x="684.93" y="199.84" xlink:href="#rdots"/>
<path stroke="currentColor" fill="none"
	d="M13.33 199.84h681.60m-681.60 -6h681.60m-681.60 -6h681.60m-681.60 -6h681.60m-681.60 -6h681.60"/>
<text x="72.13" y="159.44">C7</text>
<text x="152.13" y="159.44">F</text>
<text x="225.73" y="159.44">C7</text>
<text x="313.43" y="159.44">F</text>
<text x="386.93" y="159.44">C7</text>
<text x="474.63" y="159.44">F</text>
<text x="548.13" y="159.44">C7</text>
<text x="635.83" y="159.44">F</text>
<use x="25.33" y="199.84" xlink:href="#tclef"/>
<use x="40.33" y="187.84" xlink:href="#ft0"/>
<path fill="currentColor"
	d="M81.53 172.84l37.10 0.00v3.20l-37.10 -0.00"/>
<use x="78.33" y="199.84" xlink:href="#hd"/>
<path d="M81.83 199.84v-26.00" stroke="currentColor" fill="none"/>
<use x="90.43" y="193.84" xlink:href="#hd"/>
<path d="M93.93 193.84v-20.00" stroke="currentColor" fill="none"/>
<use x="102.63" y="205.84" xlink:href="#hl"/>
<use x="102.63" y="205.84" xlink:href="#hd"/>
<path d="M106.13 205.84v-32.00" stroke="currentColor" fill="none"/>
<use x="114.73" y="190.84" xlink:href="#hd"/>
<path d="M118.23 190.84v-17.00" stroke="currentColor" fill="none"/>
<use x="127.93" y="193.84" xlink:href="#hd"/>
<path d="M131.43 193.84v-20.00" stroke="currentColor" fill="none"/>
<path fill="currentColor"
	d="M158.23 172.84l37.10 0.00v3.20l-37.10 -0.00"/>
<use x="155.13" y="196.84" xlink:href="#hd"/>
<path d="M158.63 196.84v-23.00" stroke="currentColor" fill="none"/>
<use x="167.23" y="193.84" xlink:href="#hd"/>
<path d="M170.73 193.84v-20.00" stroke="currentColor" fill="none"/>
<use x="179.33" y="190.84" xlink:href="#hd"/>
<path d="M182.83 190.84v-17.00" stroke="currentColor" fill="none"/>
<use x="191.53" y="196.84" xlink:href="#hd"/>
<path d="M195.03 196.84v-23.00" stroke="currentColor" fill="none"/>
<use x="204.63" y="205.84" xlink:href="#hl"/>
<use x="204.63" y="205.84" xlink:href="#hd"/>
<path d="M208.13 205.84v-20.00" stroke="currentColor" fill="none"/>
<path fill="currentColor"
	d="M235.03 168.64l61.40 0.00v3.20l-61.40 -0.00"/>
<use x="231.83" y="193.84" xlink:href="#hd"/>
<path d="M235.33 193.84v-24.20" stroke="currentColor" fill="none"/>
<use x="244.03" y="199.84" xlink:href="#hd"/>
<path d="M247.53 199.84v-30.20" stroke="currentColor" fill="none"/>
<use x="256.13" y="205.84" xlink:href="#hl"/>
<use x="256.13" y="205.84" xlink:href="#hd"/>
<path d="M259.63 205.84v-36.20" stroke="currentColor" fill="none"/>
<use x="268.23" y="187.84" xlink:href="#hd"/>
<path d="M271.73 187.84v-18.20" stroke="currentColor" fill="none"/>
<use x="280.43" y="187.84" xlink:href="#hd"/>
<path d="M283.93 187.84v-18.20" stroke="currentColor" fill="none"/>
<use x="292.53" y="193.84" xlink:href="#hd"/>
<path d="M296.03 193.84v-24.20" stroke="currentColor" fill="none"/>
<path fill="currentColor"
	d="M312.53 216.14l37.10 -7.50v-3.20l-37.10 7.50"/>
<use x="316.33" y="196.84" xlink:href="#hd"/>
<path d="M312.83 196.84v18.20" stroke="currentColor" fill="none"/>
<use x="328.43" y="190.84" xlink:href="#hd"/>
<path d="M324.93 190.84v21.70" stroke="currentColor" fill="none"/>
<use x="340.63" y="184.84" xlink:href="#hd"/>
<path d="M337.13 184.84v25.30" stroke="currentColor" fill="none"/>
<use x="352.73" y="175.84" xlink:href="#hd"/>
<path d="M349.23 175.84v31.80" stroke="currentColor" fill="none"/>
<use x="365.93" y="169.84" xlink:href="#hl"/>
<use x="365.93" y="169.84" xlink:href="#hd"/>
<path d="M362.43 169.84v20.00" stroke="currentColor" fill="none"/>
<path fill="currentColor"
	d="M389.23 213.04l61.40 0.00v-3.20l-61.40 -0.00"/>
<use x="393.13" y="187.84" xlink:href="#hd"/>
<path d="M389.63 187.84v24.20" stroke="currentColor" fill="none"/>
<use x="405.23" y="184.84" xlink:href="#hd"/>
<path d="M401.73 184.84v27.20" stroke="currentColor" fill="none"/>
<use x="417.33" y="178.84" xlink:href="#hd"/>
<path d="M413.83 178.84v33.20" stroke="currentColor" fill="none"/>
<use x="429.53" y="193.84" xlink:href="#hd"/>
<path d="M426.03 193.84v18.20" stroke="currentColor" fill="none"/>
<use x="441.63" y="184.84" xlink:href="#hd"/>
<path d="M438.13 184.84v27.20" stroke="currentColor" fill="none"/>
<use x="453.83" y="178.84" xlink:href="#hd"/>
<path d="M450.33 178.84v33.20" stroke="currentColor" fill="none"/>
<path fill="currentColor"
	d="M473.73 216.04l37.10 0.00v-3.20l-37.10 -0.00"/>
<use x="477.53" y="175.84" xlink:href="#hd"/>
<path d="M474.03 175.84v39.20" stroke="currentColor" fill="none"/>
<use x="489.73" y="196.84" xlink:href="#hd"/>
<path d="M486.23 196.84v18.20" stroke="currentColor" fill="none"/>
<use x="501.83" y="190.84" xlink:href="#hd"/>
<path d="M498.33 190.84v24.20" stroke="currentColor" fill="none"/>
<use x="513.93" y="181.84" xlink:href="#hd"/>
<path d="M510.43 181.84v33.20" stroke="currentColor" fill="none"/>
<use x="527.13" y="184.84" xlink:href="#hd"/>
<path d="M523.63 184.84v20.00" stroke="currentColor" fill="none"/>
<path fill="currentColor"
	d="M557.43 168.64l61.40 0.00v3.20l-61.40 -0.00"/>
<use x="554.33" y="187.84" xlink:href="#hd"/>
<path d="M557.83 187.84v-18.20" stroke="currentColor" fill="none"/>
<use x="566.43" y="199.84" xlink:href="#hd"/>
<path d="M569.93 199.84v-30.20" stroke="currentColor" fill="none"/>
<use x="578.63" y="193.84" xlink:href="#hd"/>
<path d="M582.13 193.84v-24.20" stroke="currentColor" fill="none"/>
<use x="590.73" y="187.84" xlink:href="#hd"/>
<path d="M594.23 187.84v-18.20" stroke="currentColor" fill="none"/>
<use x="602.83" y="190.84" xlink:href="#hd"/>
<path d="M606.33 190.84v-21.20" stroke="currentColor" fill="none"/>
<use x="615.03" y="193.84" xlink:href="#hd"/>
<path d="M618.53 193.84v-24.20" stroke="currentColor" fill="none"/>
<use x="638.83" y="196.84" xlink:href="#hd"/>
<path d="M642.33 196.84v-20.00" stroke="currentColor" fill="none"/>
<use x="657.03" y="175.84" xlink:href="#hd"/>
<path d="M653.53 175.84v20.00" stroke="currentColor" fill="none"/>
<use x="674.43" y="187.84" xlink:href="#r4"/>
</g>
</svg>
