<?xml version="1.0" standalone="no"?>
<!DOCTYPE svg PUBLIC "-//W3C//DTD SVG 1.1//EN"
	"http://www.w3.org/Graphics/SVG/1.1/DTD/svg11.dtd">
<svg xmlns="http://www.w3.org/2000/svg" version="1.1"
	xmlns:xlink="http://www.w3.org/1999/xlink"
	xml:space='preserve' color="black"
	width="7.38in" height="4.02in" viewBox="0 0 531 290">
<title>data/results/biggest_11/abc/318.abc (318) tune 1</title>
<!-- Creator: abcm2ps-7.8.14 -->
<!-- CreationDate: Aug  9, 2015 23:50 -->
<!-- CommandLine: -g data/results/biggest_11/abc/318.abc -O /home/allanino/Dropbox/Trabalhos/folkme/svg/318.svg -->
<g transform="scale(0.750)" stroke-width="0.70" font-family="Times" font-size="20.00">
<text x="354.13" y="21.67" text-anchor="middle">Walzer  GC 5- chords</text>
<path stroke="currentColor" fill="none"
	d="M176.93 109.01v-24.00"/>
<path stroke="currentColor" fill="none"
	d="M316.53 109.01v-24.00"/>
<path stroke="currentColor" fill="none"
	d="M456.23 109.01v-24.00"/>
<defs>
<g id="rdots" fill="currentColor">
	<circle cx="0" cy="-9" r="1.2"/>
	<circle cx="0" cy="-15" r="1.2"/>
</g>
</defs>
<use x="563.73" y="109.01" xlink:href="#rdots"/>
<path stroke="currentColor" fill="none" stroke-width="3"
	d="M558.23 109.01v-24.00"/>
<path stroke="currentColor" fill="none" stroke-width="3"
	d="M552.23 109.01v-24.00"/>
<use x="546.73" y="109.01" xlink:href="#rdots"/>
<path stroke="currentColor" fill="none"
	d="M694.93 109.01v-24.00"/>
<path stroke="currentColor" fill="none"
	d="M13.33 109.01h681.60m-681.60 -6h681.60m-681.60 -6h681.60m-681.60 -6h681.60m-681.60 -6h681.60"/>
<path fill="currentColor"
	d="M610.93 111.01c9.00 8.57 51.75 13.21 60.76 6.60
	l0.00 0.26c-10.82 8.35 -49.93 3.70 -60.76 -6.86"/>
</g>
<g transform="scale(0.750)" stroke-width="0.70" font-family="Helvetica" font-size="12.00">
<text x="70.53" y="62.61">G</text>
<text x="185.83" y="62.61">C</text>
<text x="325.23" y="62.61">G</text>
<text x="408.93" y="62.61">D7</text>
<text x="464.93" y="62.61">G</text>
<text x="570.73" y="62.61">D7</text>
<defs>
<path id="utclef" fill="currentColor" d="m-50 -90
	c-72 -41 -72 -158 52 -188
	c150 -10 220 188 90 256
	c-114 52 -275 0 -293 -136
	c-15 -181 93 -229 220 -334
	c88 -87 79 -133 62 -210
	c-51 33 -94 105 -89 186
	c17 267 36 374 49 574
	c6 96 -19 134 -77 135
	c-80 1 -126 -93 -61 -133
	c85 -41 133 101 31 105
	c23 17 92 37 90 -92
	c-10 -223 -39 -342 -50 -617
	c0 -90 0 -162 96 -232
	c56 72 63 230 22 289
	c-74 106 -257 168 -255 316
	c9 153 148 185 252 133
	c86 -65 29 -192 -80 -176
	c-71 12 -105 67 -59 124"/>
<use id="tclef" transform="scale(0.045)"
	xlink:href="#utclef"/>
</defs>
<use x="25.33" y="109.01" xlink:href="#tclef"/>
<defs>
<path id="usharp" fill="currentColor" d="
	m136 -702
	v890
	h32
	v-890
	m128 840
	h32
	v-888
	h-32
	m-232 286
	v116
	l338 -96
	v-116
	m-338 442
	v116
	l338 -98
	v-114"/>
<use id="sh0" transform="translate(-4,5) scale(0.018)"
	xlink:href="#usharp"/>
</defs>
<use x="40.33" y="85.01" xlink:href="#sh0"/>
<g font-family="serif" font-size="16" font-weight="bold" font-style="normal"
	transform="translate(56.33,109.01) scale(1.2,1)">
	<text y="-1" text-anchor="middle">4</text>
	<text y="-13" text-anchor="middle">3</text>
</g>
<defs>
<ellipse id="hd" rx="4.1" ry="2.9"
	transform="rotate(-20)" fill="currentColor"/>
</defs>
<use x="74.33" y="97.01" xlink:href="#hd"/>
<path d="M77.83 97.01v-20.00" stroke="currentColor" fill="none"/>
<path fill="currentColor"
	d="M111.23 78.41l25.40 2.50v3.20l-25.40 -2.50"/>
<path fill="currentColor"
	d="M130.33 85.21l6.00 0.60v3.20l-6.00 -0.60"/>
<use x="108.03" y="100.01" xlink:href="#hd"/>
<circle fill="currentColor" cx="116.03" cy="100.01" r="1.2"/>
<path d="M111.53 100.01v-20.60" stroke="currentColor" fill="none"/>
<use x="132.83" y="103.01" xlink:href="#hd"/>
<path d="M136.33 103.01v-21.20" stroke="currentColor" fill="none"/>
<use x="149.83" y="103.01" xlink:href="#hd"/>
<path d="M153.33 103.01v-20.00" stroke="currentColor" fill="none"/>
<path fill="currentColor"
	d="M185.53 122.21l108.60 0.00v-3.20l-108.60 -0.00"/>
<use x="189.43" y="103.01" xlink:href="#hd"/>
<path d="M185.93 103.01v18.20" stroke="currentColor" fill="none"/>
<use x="211.03" y="100.01" xlink:href="#hd"/>
<path d="M207.53 100.01v21.20" stroke="currentColor" fill="none"/>
<use x="232.53" y="97.01" xlink:href="#hd"/>
<path d="M229.03 97.01v24.20" stroke="currentColor" fill="none"/>
<use x="254.13" y="94.01" xlink:href="#hd"/>
<path d="M250.63 94.01v27.20" stroke="currentColor" fill="none"/>
<use x="275.73" y="91.01" xlink:href="#hd"/>
<path d="M272.23 91.01v30.20" stroke="currentColor" fill="none"/>
<use x="297.33" y="94.01" xlink:href="#hd"/>
<path d="M293.83 94.01v27.20" stroke="currentColor" fill="none"/>
<path fill="currentColor"
	d="M332.23 71.81l108.60 0.00v3.20l-108.60 -0.00"/>
<use x="329.03" y="97.01" xlink:href="#hd"/>
<path d="M332.53 97.01v-24.20" stroke="currentColor" fill="none"/>
<use x="350.63" y="112.01" xlink:href="#hd"/>
<path d="M354.13 112.01v-39.20" stroke="currentColor" fill="none"/>
<use x="372.23" y="103.01" xlink:href="#hd"/>
<path d="M375.73 103.01v-30.20" stroke="currentColor" fill="none"/>
<use x="393.83" y="97.01" xlink:href="#hd"/>
<path d="M397.33 97.01v-24.20" stroke="currentColor" fill="none"/>
<use x="415.43" y="91.01" xlink:href="#hd"/>
<path d="M418.93 91.01v-18.20" stroke="currentColor" fill="none"/>
<use x="437.03" y="106.01" xlink:href="#hd"/>
<path d="M440.53 106.01v-33.20" stroke="currentColor" fill="none"/>
<use x="468.73" y="103.01" xlink:href="#hd"/>
<path d="M472.23 103.01v-20.00" stroke="currentColor" fill="none"/>
<use x="502.43" y="103.01" xlink:href="#hd"/>
<path d="M505.93 103.01v-20.00" stroke="currentColor" fill="none"/>
<defs>
<path id="r4" fill="currentColor" d="m-1 -8.5
	l3.6 5.1 -2.1 5.2 2.2 4.3
	c-2.6 -2.3 -5.1 0 -2.4 2.6
	c-4.8 -3 -1.5 -6.9 1.4 -4.1
	l-3.1 -4.5 1.9 -5.1 -1.5 -3.5"/>
</defs>
<use x="536.23" y="97.01" xlink:href="#r4"/>
<use x="577.23" y="100.01" xlink:href="#hd"/>
<path d="M580.73 100.01v-20.00" stroke="currentColor" fill="none"/>
<path fill="currentColor"
	d="M614.13 83.81l65.40 7.10v3.20l-65.40 -7.10"/>
<use x="610.93" y="103.01" xlink:href="#hd"/>
<path d="M614.43 103.01v-18.20" stroke="currentColor" fill="none"/>
<use x="632.53" y="106.01" xlink:href="#hd"/>
<path d="M636.03 106.01v-18.90" stroke="currentColor" fill="none"/>
<use x="654.13" y="109.01" xlink:href="#hd"/>
<path d="M657.63 109.01v-19.50" stroke="currentColor" fill="none"/>
<use x="675.73" y="112.01" xlink:href="#hd"/>
<path d="M679.23 112.01v-20.20" stroke="currentColor" fill="none"/>
<path stroke="currentColor" fill="none"
	d="M159.93 187.01v-24.00"/>
<path stroke="currentColor" fill="none"
	d="M298.33 187.01v-24.00"/>
<path stroke="currentColor" fill="none"
	d="M427.43 187.01v-24.00"/>
<path stroke="currentColor" fill="none"
	d="M556.53 187.01v-24.00"/>
<path stroke="currentColor" fill="none"
	d="M694.93 187.01v-24.00"/>
<path stroke="currentColor" fill="none"
	d="M13.33 187.01h681.60m-681.60 -6h681.60m-681.60 -6h681.60m-681.60 -6h681.60m-681.60 -6h681.60"/>
<path fill="currentColor"
	d="M197.83 204.61c6.11 3.08 32.67 -1.44 38.78 -6.60
	l0.00 0.24c-7.27 6.92 -31.51 11.45 -38.78 6.36"/>
<path fill="currentColor"
	d="M260.93 199.21c2.89 3.19 15.48 0.31 18.37 -4.20
	l0.00 0.22c-3.44 6.29 -14.93 9.17 -18.37 3.98"/>
<path fill="currentColor"
	d="M477.43 201.61c8.92 4.80 51.19 -8.27 60.11 -18.60
	l0.00 0.26c-10.73 12.07 -49.39 25.14 -60.11 18.34"/>
<text x="54.53" y="143.61">G</text>
<text x="166.03" y="143.61">D7</text>
<text x="307.03" y="143.61">G</text>
<text x="562.63" y="143.61">D7</text>
<use x="25.33" y="187.01" xlink:href="#tclef"/>
<use x="40.33" y="163.01" xlink:href="#sh0"/>
<defs>
<path id="hl" stroke="currentColor" d="m-6 0h12"/>
</defs>
<use x="58.33" y="193.01" xlink:href="#hl"/>
<use x="58.33" y="196.01" xlink:href="#hd"/>
<path d="M61.83 196.01v-21.00" stroke="currentColor" fill="none"/>
<path fill="currentColor"
	d="M94.93 173.01l25.20 0.00v3.20l-25.20 -0.00"/>
<path fill="currentColor"
	d="M113.83 178.01l6.00 0.00v3.20l-6.00 -0.00"/>
<use x="91.83" y="193.01" xlink:href="#hl"/>
<use x="91.83" y="199.01" xlink:href="#hl"/>
<use x="91.83" y="202.01" xlink:href="#hd"/>
<circle fill="currentColor" cx="99.83" cy="202.01" r="1.2"/>
<path d="M95.33 202.01v-28.00" stroke="currentColor" fill="none"/>
<use x="116.33" y="193.01" xlink:href="#hl"/>
<use x="116.33" y="196.01" xlink:href="#hd"/>
<path d="M119.83 196.01v-22.00" stroke="currentColor" fill="none"/>
<use x="133.13" y="190.01" xlink:href="#hd"/>
<path d="M136.63 190.01v-20.00" stroke="currentColor" fill="none"/>
<path fill="currentColor"
	d="M175.63 162.81l107.60 0.00v3.20l-107.60 -0.00"/>
<use x="172.43" y="181.01" xlink:href="#hd"/>
<path d="M175.93 181.01v-17.20" stroke="currentColor" fill="none"/>
<use x="193.83" y="193.01" xlink:href="#hl"/>
<use x="193.83" y="199.01" xlink:href="#hl"/>
<use x="193.83" y="199.01" xlink:href="#hd"/>
<path d="M197.33 199.01v-35.20" stroke="currentColor" fill="none"/>
<use x="215.23" y="193.01" xlink:href="#hl"/>
<use x="215.23" y="193.01" xlink:href="#hd"/>
<path d="M218.73 193.01v-29.20" stroke="currentColor" fill="none"/>
<use x="236.63" y="190.01" xlink:href="#hd"/>
<path d="M240.13 190.01v-26.20" stroke="currentColor" fill="none"/>
<use x="257.93" y="193.01" xlink:href="#hl"/>
<use x="257.93" y="193.01" xlink:href="#hd"/>
<path d="M261.43 193.01v-29.20" stroke="currentColor" fill="none"/>
<use x="279.33" y="187.01" xlink:href="#hd"/>
<path d="M282.83 187.01v-23.20" stroke="currentColor" fill="none"/>
<use x="310.83" y="190.01" xlink:href="#hd"/>
<path d="M314.33 190.01v-20.00" stroke="currentColor" fill="none"/>
<path fill="currentColor"
	d="M347.43 155.21l64.80 -5.40v3.20l-64.80 5.40"/>
<use x="344.33" y="181.01" xlink:href="#hd"/>
<path d="M347.83 181.01v-24.80" stroke="currentColor" fill="none"/>
<use x="365.73" y="175.01" xlink:href="#hd"/>
<path d="M369.23 175.01v-20.60" stroke="currentColor" fill="none"/>
<use x="387.03" y="175.01" xlink:href="#hd"/>
<path d="M390.53 175.01v-22.40" stroke="currentColor" fill="none"/>
<use x="408.43" y="169.01" xlink:href="#hd"/>
<path d="M411.93 169.01v-18.20" stroke="currentColor" fill="none"/>
<use x="439.93" y="190.01" xlink:href="#hd"/>
<path d="M443.43 190.01v-20.00" stroke="currentColor" fill="none"/>
<path fill="currentColor"
	d="M476.53 164.81l64.80 -9.00v3.20l-64.80 9.00"/>
<use x="473.43" y="193.01" xlink:href="#hl"/>
<use x="473.43" y="196.01" xlink:href="#hd"/>
<path d="M476.93 196.01v-30.20" stroke="currentColor" fill="none"/>
<use x="494.73" y="190.01" xlink:href="#hd"/>
<path d="M498.23 190.01v-27.20" stroke="currentColor" fill="none"/>
<use x="516.13" y="181.01" xlink:href="#hd"/>
<path d="M519.63 181.01v-21.20" stroke="currentColor" fill="none"/>
<use x="537.53" y="175.01" xlink:href="#hd"/>
<path d="M541.03 175.01v-18.20" stroke="currentColor" fill="none"/>
<path fill="currentColor"
	d="M572.23 152.81l107.50 0.00v3.20l-107.50 -0.00"/>
<use x="569.03" y="190.01" xlink:href="#hd"/>
<path d="M572.53 190.01v-36.20" stroke="currentColor" fill="none"/>
<use x="590.43" y="172.01" xlink:href="#hd"/>
<path d="M593.93 172.01v-18.20" stroke="currentColor" fill="none"/>
<use x="611.83" y="190.01" xlink:href="#hd"/>
<path d="M615.33 190.01v-36.20" stroke="currentColor" fill="none"/>
<use x="633.13" y="172.01" xlink:href="#hd"/>
<path d="M636.63 172.01v-18.20" stroke="currentColor" fill="none"/>
<use x="654.53" y="175.01" xlink:href="#hd"/>
<path d="M658.03 175.01v-21.20" stroke="currentColor" fill="none"/>
<use x="675.93" y="178.01" xlink:href="#hd"/>
<path d="M679.43 178.01v-24.20" stroke="currentColor" fill="none"/>
<path stroke="currentColor" fill="none"
	d="M147.33 270.01v-24.00"/>
<path stroke="currentColor" fill="none"
	d="M248.83 270.01v-24.00"/>
<path stroke="currentColor" fill="none" stroke-width="3"
	d="M354.73 270.01v-24.00"/>
<path stroke="currentColor" fill="none"
	d="M350.23 270.01v-24.00"/>
<use x="346.23" y="270.01" xlink:href="#rdots"/>
<use x="438.23" y="270.01" xlink:href="#rdots"/>
<path stroke="currentColor" fill="none"
	d="M434.23 270.01v-24.00"/>
<path stroke="currentColor" fill="none" stroke-width="3"
	d="M429.73 270.01v-24.00"/>
<path stroke="currentColor" fill="none"
	d="M532.63 270.01v-24.00"/>
<path stroke="currentColor" fill="none"
	d="M609.03 270.01v-24.00"/>
<path stroke="currentColor" fill="none"
	d="M694.93 270.01v-24.00"/>
<path stroke="currentColor" fill="none"
	d="M13.33 270.01h681.60m-681.60 -6h681.60m-681.60 -6h681.60m-681.60 -6h681.60m-681.60 -6h681.60"/>
<text x="54.53" y="223.61">G</text>
<text x="153.43" y="223.61">D7</text>
<text x="264.03" y="223.61">G</text>
<text x="371.43" y="223.61">G</text>
<text x="461.73" y="223.61">G7</text>
<text x="541.63" y="223.61">C</text>
<text x="615.13" y="223.61">G7</text>
</g>
<g transform="scale(0.750)" stroke-width="0.70" font-family="Times" font-size="13.00">
<text x="252.83" y="223.41">1</text>
<path stroke="currentColor" fill="none"
	d="M248.83 212.01v20M248.83 212.01h99.40v20"/>
<text x="360.23" y="223.41">2</text>
<path stroke="currentColor" fill="none"
	d="M356.23 212.01v20M356.23 212.01h71.00v20"/>
<use x="25.33" y="270.01" xlink:href="#tclef"/>
<use x="40.33" y="246.01" xlink:href="#sh0"/>
<path fill="currentColor"
	d="M61.53 232.81l76.00 0.00v3.20l-76.00 -0.00"/>
<use x="58.33" y="252.01" xlink:href="#hd"/>
<path d="M61.83 252.01v-18.20" stroke="currentColor" fill="none"/>
<use x="73.43" y="270.01" xlink:href="#hd"/>
<path d="M76.93 270.01v-36.20" stroke="currentColor" fill="none"/>
<use x="88.43" y="273.01" xlink:href="#hd"/>
<path d="M91.93 273.01v-39.20" stroke="currentColor" fill="none"/>
<use x="103.53" y="270.01" xlink:href="#hd"/>
<path d="M107.03 270.01v-36.20" stroke="currentColor" fill="none"/>
<use x="118.63" y="264.01" xlink:href="#hd"/>
<path d="M122.13 264.01v-30.20" stroke="currentColor" fill="none"/>
<use x="133.63" y="258.01" xlink:href="#hd"/>
<path d="M137.13 258.01v-24.20" stroke="currentColor" fill="none"/>
<path fill="currentColor"
	d="M163.03 236.51l76.00 -6.10v3.20l-76.00 6.10"/>
<use x="159.83" y="261.01" xlink:href="#hd"/>
<path d="M163.33 261.01v-23.60" stroke="currentColor" fill="none"/>
<use x="174.93" y="273.01" xlink:href="#hd"/>
<path d="M178.43 273.01v-36.80" stroke="currentColor" fill="none"/>
<use x="190.03" y="267.01" xlink:href="#hd"/>
<path d="M193.53 267.01v-32.00" stroke="currentColor" fill="none"/>
<use x="205.03" y="252.01" xlink:href="#hd"/>
<path d="M208.53 252.01v-18.20" stroke="currentColor" fill="none"/>
<use x="220.13" y="255.01" xlink:href="#hd"/>
<path d="M223.63 255.01v-22.40" stroke="currentColor" fill="none"/>
<use x="235.23" y="258.01" xlink:href="#hd"/>
<path d="M238.73 258.01v-26.60" stroke="currentColor" fill="none"/>
<use x="267.83" y="264.01" xlink:href="#hd"/>
<path d="M271.33 264.01v-20.00" stroke="currentColor" fill="none"/>
<path fill="currentColor"
	d="M293.73 244.81l45.90 6.50v3.20l-45.90 -6.50"/>
<use x="290.53" y="264.01" xlink:href="#hd"/>
<path d="M294.03 264.01v-18.20" stroke="currentColor" fill="none"/>
<use x="305.63" y="267.01" xlink:href="#hd"/>
<path d="M309.13 267.01v-19.10" stroke="currentColor" fill="none"/>
<use x="320.73" y="270.01" xlink:href="#hd"/>
<path d="M324.23 270.01v-19.90" stroke="currentColor" fill="none"/>
<use x="335.73" y="273.01" xlink:href="#hd"/>
<path d="M339.23 273.01v-20.80" stroke="currentColor" fill="none"/>
<use x="375.23" y="264.01" xlink:href="#hd"/>
<path d="M378.73 264.01v-20.00" stroke="currentColor" fill="none"/>
<use x="397.93" y="258.01" xlink:href="#r4"/>
<use x="418.53" y="261.01" xlink:href="#hd"/>
<path d="M422.03 261.01v-20.00" stroke="currentColor" fill="none"/>
<defs>
<path id="unat" fill="currentColor" d="
	m96 -750
	h-32
	v716
	l32 -8
	l182 -54
	v282
	h32
	v-706
	l-34 10
	l-180 50
	v-290
	m0 592
	v-190
	l182 -52
	v188"/>
<use id="nt0" transform="translate(-3,5) scale(0.018)"
	xlink:href="#unat"/>
</defs>
<use x="450.23" y="246.01" xlink:href="#nt0"/>
<use x="468.23" y="258.01" xlink:href="#hd"/>
<path d="M471.73 258.01v-20.00" stroke="currentColor" fill="none"/>
<use x="490.93" y="258.01" xlink:href="#hd"/>
<path d="M494.43 258.01v-20.00" stroke="currentColor" fill="none"/>
<use x="514.03" y="240.01" xlink:href="#hl"/>
<use x="514.03" y="240.01" xlink:href="#hd"/>
<path d="M510.53 240.01v20.00" stroke="currentColor" fill="none"/>
<use x="545.13" y="264.01" xlink:href="#hd"/>
<path d="M548.63 264.01v-20.00" stroke="currentColor" fill="none"/>
<use x="567.83" y="261.01" xlink:href="#hd"/>
<path d="M571.33 261.01v-20.00" stroke="currentColor" fill="none"/>
<use x="590.53" y="264.01" xlink:href="#hd"/>
<path d="M594.03 264.01v-20.00" stroke="currentColor" fill="none"/>
<path fill="currentColor"
	d="M624.73 251.21l15.70 -3.50v3.20l-15.70 3.50"/>
<use x="621.53" y="273.01" xlink:href="#hd"/>
<path d="M625.03 273.01v-20.90" stroke="currentColor" fill="none"/>
<use x="636.63" y="267.01" xlink:href="#hd"/>
<path d="M640.13 267.01v-18.20" stroke="currentColor" fill="none"/>
<use x="653.63" y="258.01" xlink:href="#hd"/>
<path d="M650.13 258.01v20.00" stroke="currentColor" fill="none"/>
<use x="676.33" y="252.01" xlink:href="#hd"/>
<path d="M672.83 252.01v20.00" stroke="currentColor" fill="none"/>
<path stroke="currentColor" fill="none"
	d="M114.63 363.01v-24.00"/>
<path stroke="currentColor" fill="none"
	d="M191.93 363.01v-24.00"/>
<path stroke="currentColor" fill="none"
	d="M277.93 363.01v-24.00"/>
<path stroke="currentColor" fill="none"
	d="M355.13 363.01v-24.00"/>
<path stroke="currentColor" fill="none"
	d="M432.43 363.01v-24.00"/>
<path stroke="currentColor" fill="none"
	d="M526.93 363.01v-24.00"/>
<path stroke="currentColor" fill="none" stroke-width="3"
	d="M608.83 363.01v-24.00"/>
<path stroke="currentColor" fill="none"
	d="M604.33 363.01v-24.00"/>
<use x="600.33" y="363.01" xlink:href="#rdots"/>
<path stroke="currentColor" fill="none" stroke-width="3"
	d="M693.43 363.01v-24.00"/>
<path stroke="currentColor" fill="none"
	d="M688.93 363.01v-24.00"/>
<path stroke="currentColor" fill="none"
	d="M13.33 363.01h681.60m-681.60 -6h681.60m-681.60 -6h681.60m-681.60 -6h681.60m-681.60 -6h681.60"/>
</g>
<g transform="scale(0.750)" stroke-width="0.70" font-family="Helvetica" font-size="12.00">
<text x="46.33" y="321.61">C</text>
<text x="120.63" y="321.61">G7</text>
<text x="200.83" y="321.61">C</text>
<text x="283.93" y="321.61">D7</text>
<text x="363.83" y="321.61">G</text>
<text x="438.53" y="321.61">D7</text>
<text x="542.13" y="321.61">G</text>
<text x="625.53" y="321.61">G</text>
</g>
<g transform="scale(0.750)" stroke-width="0.70" font-family="Times" font-size="13.00">
<text x="530.93" y="306.41">1</text>
<path stroke="currentColor" fill="none"
	d="M526.93 295.01v20M526.93 295.01h75.40v20"/>
<text x="614.33" y="306.41">2</text>
<path stroke="currentColor" fill="none"
	d="M610.33 295.01v20M610.33 295.01h84.60v20"/>
<use x="25.33" y="363.01" xlink:href="#tclef"/>
<use x="49.83" y="357.01" xlink:href="#hd"/>
<path d="M53.33 357.01v-20.00" stroke="currentColor" fill="none"/>
<use x="72.83" y="357.01" xlink:href="#hd"/>
<path d="M76.33 357.01v-20.00" stroke="currentColor" fill="none"/>
<use x="95.83" y="363.01" xlink:href="#hd"/>
<path d="M99.33 363.01v-20.00" stroke="currentColor" fill="none"/>
<use x="127.13" y="357.01" xlink:href="#hd"/>
<path d="M130.63 357.01v-20.00" stroke="currentColor" fill="none"/>
<use x="150.13" y="369.01" xlink:href="#hl"/>
<use x="150.13" y="372.01" xlink:href="#hd"/>
<path d="M153.63 372.01v-21.00" stroke="currentColor" fill="none"/>
<use x="173.13" y="366.01" xlink:href="#hd"/>
<path d="M176.63 366.01v-20.00" stroke="currentColor" fill="none"/>
<use x="204.43" y="369.01" xlink:href="#hl"/>
<use x="204.43" y="369.01" xlink:href="#hd"/>
<path d="M207.93 369.01v-20.00" stroke="currentColor" fill="none"/>
<path fill="currentColor"
	d="M230.53 342.01l15.80 0.00v3.20l-15.80 -0.00"/>
<use x="227.43" y="363.01" xlink:href="#hd"/>
<path d="M230.93 363.01v-20.00" stroke="currentColor" fill="none"/>
<use x="242.53" y="363.01" xlink:href="#hd"/>
<path d="M246.03 363.01v-20.00" stroke="currentColor" fill="none"/>
<use x="259.13" y="363.01" xlink:href="#hd"/>
<path d="M262.63 363.01v-20.00" stroke="currentColor" fill="none"/>
<use x="290.43" y="366.01" xlink:href="#hd"/>
<path d="M293.93 366.01v-20.00" stroke="currentColor" fill="none"/>
<use x="313.43" y="354.01" xlink:href="#hd"/>
<path d="M316.93 354.01v-20.00" stroke="currentColor" fill="none"/>
<use x="336.43" y="354.01" xlink:href="#hd"/>
<path d="M339.93 354.01v-20.00" stroke="currentColor" fill="none"/>
<use x="367.63" y="351.01" xlink:href="#hd"/>
<path d="M371.13 351.01v-20.00" stroke="currentColor" fill="none"/>
<use x="390.73" y="357.01" xlink:href="#hd"/>
<path d="M394.23 357.01v-20.00" stroke="currentColor" fill="none"/>
<use x="413.73" y="366.01" xlink:href="#hd"/>
<path d="M417.23 366.01v-20.00" stroke="currentColor" fill="none"/>
<use x="444.93" y="354.01" xlink:href="#hd"/>
<path d="M448.43 354.01v-20.00" stroke="currentColor" fill="none"/>
<path fill="currentColor"
	d="M471.13 342.01l46.00 0.00v3.20l-46.00 -0.00"/>
<use x="467.93" y="366.01" xlink:href="#hd"/>
<path d="M471.43 366.01v-23.00" stroke="currentColor" fill="none"/>
<use x="483.13" y="366.01" xlink:href="#hd"/>
<path d="M486.63 366.01v-23.00" stroke="currentColor" fill="none"/>
<use x="498.23" y="363.01" xlink:href="#hd"/>
<path d="M501.73 363.01v-20.00" stroke="currentColor" fill="none"/>
<use x="513.33" y="360.01" xlink:href="#hd"/>
<path d="M516.83 360.01v-17.00" stroke="currentColor" fill="none"/>
<use x="545.93" y="357.01" xlink:href="#hd"/>
<path d="M549.43 357.01v-20.00" stroke="currentColor" fill="none"/>
<use x="568.93" y="351.01" xlink:href="#r4"/>
<use x="589.83" y="363.01" xlink:href="#hd"/>
<path d="M593.33 363.01v-20.00" stroke="currentColor" fill="none"/>
<use x="629.33" y="357.01" xlink:href="#hd"/>
<path d="M632.83 357.01v-20.00" stroke="currentColor" fill="none"/>
<use x="652.33" y="351.01" xlink:href="#r4"/>
<use x="675.33" y="351.01" xlink:href="#r4"/>
</g>
</svg>
