<?xml version="1.0" standalone="no"?>
<!DOCTYPE svg PUBLIC "-//W3C//DTD SVG 1.1//EN"
	"http://www.w3.org/Graphics/SVG/1.1/DTD/svg11.dtd">
<svg xmlns="http://www.w3.org/2000/svg" version="1.1"
	xmlns:xlink="http://www.w3.org/1999/xlink"
	xml:space='preserve' color="black"
	width="7.38in" height="2.18in" viewBox="0 0 531 157">
<title>data/results/biggest_11/abc/323.abc (323) tune 1</title>
<!-- Creator: abcm2ps-7.8.14 -->
<!-- CreationDate: Aug  9, 2015 23:50 -->
<!-- CommandLine: -g data/results/biggest_11/abc/323.abc -O /home/allanino/Dropbox/Trabalhos/folkme/svg/323.svg -->
<g transform="scale(0.750)" stroke-width="0.70" font-family="Times" font-size="20.00">
<text x="354.13" y="21.67" text-anchor="middle">Ländler  CG 3- chords</text>
<path stroke="currentColor" fill="none"
	d="M187.93 99.01v-24.00"/>
<path stroke="currentColor" fill="none"
	d="M300.93 99.01v-24.00"/>
<path stroke="currentColor" fill="none"
	d="M460.43 99.01v-24.00"/>
<path stroke="currentColor" fill="none"
	d="M564.03 99.01v-24.00"/>
<path stroke="currentColor" fill="none"
	d="M694.93 99.01v-24.00"/>
<path stroke="currentColor" fill="none"
	d="M13.33 99.01h681.60m-681.60 -6h681.60m-681.60 -6h681.60m-681.60 -6h681.60m-681.60 -6h681.60"/>
</g>
<g transform="scale(0.750)" stroke-width="0.70" font-family="Helvetica" font-size="12.00">
<text x="58.33" y="62.61">C</text>
<text x="472.23" y="62.61">F</text>
<text x="472.23" y="111.61">&gt;</text>
<text x="572.33" y="62.61">G7</text>
<defs>
<path id="utclef" fill="currentColor" d="m-50 -90
	c-72 -41 -72 -158 52 -188
	c150 -10 220 188 90 256
	c-114 52 -275 0 -293 -136
	c-15 -181 93 -229 220 -334
	c88 -87 79 -133 62 -210
	c-51 33 -94 105 -89 186
	c17 267 36 374 49 574
	c6 96 -19 134 -77 135
	c-80 1 -126 -93 -61 -133
	c85 -41 133 101 31 105
	c23 17 92 37 90 -92
	c-10 -223 -39 -342 -50 -617
	c0 -90 0 -162 96 -232
	c56 72 63 230 22 289
	c-74 106 -257 168 -255 316
	c9 153 148 185 252 133
	c86 -65 29 -192 -80 -176
	c-71 12 -105 67 -59 124"/>
<use id="tclef" transform="scale(0.045)"
	xlink:href="#utclef"/>
</defs>
<use x="25.33" y="99.01" xlink:href="#tclef"/>
<g font-family="serif" font-size="16" font-weight="bold" font-style="normal"
	transform="translate(43.83,99.01) scale(1.2,1)">
	<text y="-1" text-anchor="middle">4</text>
	<text y="-13" text-anchor="middle">3</text>
</g>
<defs>
<ellipse id="hd" rx="4.1" ry="2.9"
	transform="rotate(-20)" fill="currentColor"/>
</defs>
<use x="61.83" y="93.01" xlink:href="#hd"/>
<path d="M65.33 93.01v-20.00" stroke="currentColor" fill="none"/>
<path fill="currentColor"
	d="M106.63 69.41l30.90 -7.70v3.20l-30.90 7.70"/>
<path fill="currentColor"
	d="M131.23 68.31l6.00 -1.50v3.20l-6.00 1.50"/>
<use x="103.53" y="99.01" xlink:href="#hd"/>
<circle fill="currentColor" cx="111.53" cy="96.01" r="1.2"/>
<path d="M107.03 99.01v-28.70" stroke="currentColor" fill="none"/>
<use x="133.73" y="84.01" xlink:href="#hd"/>
<path d="M137.23 84.01v-21.20" stroke="currentColor" fill="none"/>
<use x="154.53" y="93.01" xlink:href="#hd"/>
<path d="M158.03 93.01v-20.00" stroke="currentColor" fill="none"/>
<path fill="currentColor"
	d="M205.83 67.51l30.90 -5.80v3.20l-30.90 5.80"/>
<path fill="currentColor"
	d="M230.33 67.91l6.00 -1.10v3.20l-6.00 1.10"/>
<use x="202.63" y="93.01" xlink:href="#hd"/>
<circle fill="currentColor" cx="210.63" cy="90.01" r="1.2"/>
<path d="M206.13 93.01v-24.60" stroke="currentColor" fill="none"/>
<use x="232.83" y="84.01" xlink:href="#hd"/>
<path d="M236.33 84.01v-21.20" stroke="currentColor" fill="none"/>
<defs>
<path id="Hd" fill="currentColor" d="m3 -1.6
	c-1 -1.8 -7 1.4 -6 3.2
	c1 1.8 7 -1.4 6 -3.2
	m0.5 -0.3
	c2 3.8 -5 7.6 -7 3.8
	c-2 -3.8 5 -7.6 7 -3.8"/>
</defs>
<use x="253.73" y="78.01" xlink:href="#Hd"/>
<path d="M250.23 78.01v20.00" stroke="currentColor" fill="none"/>
<path fill="currentColor"
	d="M311.83 107.31l128.80 7.90v-3.20l-128.80 -7.90"/>
<path fill="currentColor"
	d="M336.33 103.81l6.00 0.40v-3.20l-6.00 -0.40"/>
<path fill="currentColor"
	d="M385.33 106.81l6.00 0.40v-3.20l-6.00 -0.40"/>
<path fill="currentColor"
	d="M434.23 109.81l6.00 0.40v-3.20l-6.00 -0.40"/>
<use x="315.63" y="78.01" xlink:href="#hd"/>
<circle fill="currentColor" cx="323.63" cy="78.01" r="1.2"/>
<path d="M312.13 78.01v28.40" stroke="currentColor" fill="none"/>
<use x="345.83" y="81.01" xlink:href="#hd"/>
<path d="M342.33 81.01v27.20" stroke="currentColor" fill="none"/>
<use x="364.63" y="84.01" xlink:href="#hd"/>
<circle fill="currentColor" cx="372.63" cy="84.01" r="1.2"/>
<path d="M361.13 84.01v25.40" stroke="currentColor" fill="none"/>
<use x="394.83" y="87.01" xlink:href="#hd"/>
<path d="M391.33 87.01v24.20" stroke="currentColor" fill="none"/>
<use x="413.53" y="90.01" xlink:href="#hd"/>
<circle fill="currentColor" cx="421.53" cy="90.01" r="1.2"/>
<path d="M410.03 90.01v22.40" stroke="currentColor" fill="none"/>
<use x="443.73" y="93.01" xlink:href="#hd"/>
<path d="M440.23 93.01v21.20" stroke="currentColor" fill="none"/>
<use x="475.23" y="96.01" xlink:href="#hd"/>
<path d="M478.73 96.01v-20.00" stroke="currentColor" fill="none"/>
<use x="516.83" y="90.01" xlink:href="#Hd"/>
<path d="M520.33 90.01v-20.00" stroke="currentColor" fill="none"/>
<use x="578.83" y="81.01" xlink:href="#hd"/>
<circle fill="currentColor" cx="586.83" cy="78.01" r="1.2"/>
<path d="M575.33 81.01v20.00" stroke="currentColor" fill="none"/>
<path fill="currentColor"
	d="M624.63 61.81l57.40 5.70v3.20l-57.40 -5.70"/>
<path fill="currentColor"
	d="M675.73 71.81l6.00 0.60v3.20l-6.00 -0.60"/>
<use x="621.53" y="81.01" xlink:href="#hd"/>
<path d="M625.03 81.01v-18.20" stroke="currentColor" fill="none"/>
<use x="648.03" y="93.01" xlink:href="#hd"/>
<circle fill="currentColor" cx="656.03" cy="90.01" r="1.2"/>
<path d="M651.53 93.01v-27.60" stroke="currentColor" fill="none"/>
<use x="678.23" y="93.01" xlink:href="#hd"/>
<path d="M681.73 93.01v-24.60" stroke="currentColor" fill="none"/>
<path stroke="currentColor" fill="none"
	d="M123.63 186.01v-24.00"/>
<path stroke="currentColor" fill="none"
	d="M227.23 186.01v-24.00"/>
<path stroke="currentColor" fill="none"
	d="M305.13 186.01v-24.00"/>
<path stroke="currentColor" fill="none"
	d="M407.33 186.01v-24.00"/>
<path stroke="currentColor" fill="none"
	d="M511.63 186.01v-24.00"/>
<path stroke="currentColor" fill="none"
	d="M613.83 186.01v-24.00"/>
<path stroke="currentColor" fill="none" stroke-width="3"
	d="M693.43 186.01v-24.00"/>
<path stroke="currentColor" fill="none"
	d="M688.93 186.01v-24.00"/>
<defs>
<g id="rdots" fill="currentColor">
	<circle cx="0" cy="-9" r="1.2"/>
	<circle cx="0" cy="-15" r="1.2"/>
</g>
</defs>
<use x="684.93" y="186.01" xlink:href="#rdots"/>
<path stroke="currentColor" fill="none"
	d="M13.33 186.01h681.60m-681.60 -6h681.60m-681.60 -6h681.60m-681.60 -6h681.60m-681.60 -6h681.60"/>
<text x="46.33" y="133.61">C</text>
<text x="128.23" y="133.61">Dm</text>
<text x="133.53" y="199.61">h</text>
<text x="163.03" y="198.61">f#</text>
<text x="191.23" y="133.61">G7</text>
<text x="214.43" y="199.61">a</text>
<text x="236.13" y="133.61">C</text>
<text x="259.83" y="198.61">es</text>
<text x="314.63" y="133.61">F</text>
<text x="416.33" y="133.61">C</text>
<text x="474.43" y="133.61">Dm</text>
<text x="517.63" y="133.61">G7</text>
<text x="622.83" y="133.61">C</text>
<use x="25.33" y="186.01" xlink:href="#tclef"/>
<path fill="currentColor"
	d="M46.03 186.71l16.30 3.50v-3.20l-16.30 -3.50"/>
<use x="49.83" y="165.01" xlink:href="#hd"/>
<path d="M46.33 165.01v20.80" stroke="currentColor" fill="none"/>
<use x="65.43" y="171.01" xlink:href="#hd"/>
<path d="M61.93 171.01v18.20" stroke="currentColor" fill="none"/>
<use x="81.13" y="180.01" xlink:href="#hd"/>
<circle fill="currentColor" cx="89.13" cy="177.01" r="1.2"/>
<path d="M84.63 180.01v-20.00" stroke="currentColor" fill="none"/>
<use x="109.53" y="171.01" xlink:href="#hd"/>
<path d="M106.03 171.01v20.00" stroke="currentColor" fill="none"/>
<path fill="currentColor"
	d="M106.03 191.01c0.6 -5.6 9.6 -9 5.6 -18.4
	c1.6 6 -1.3 11.6 -5.6 12.8
"/>
<path fill="currentColor"
	d="M139.33 154.01l81.30 0.00v3.20l-81.30 -0.00"/>
<path fill="currentColor"
	d="M183.73 159.01l6.00 0.00v3.20l-6.00 -0.00"/>
<path fill="currentColor"
	d="M214.23 159.01l6.00 0.00v3.20l-6.00 -0.00"/>
<use x="136.13" y="174.01" xlink:href="#hd"/>
<path d="M139.63 174.01v-19.00" stroke="currentColor" fill="none"/>
<use x="151.83" y="177.01" xlink:href="#hd"/>
<path d="M155.33 177.01v-22.00" stroke="currentColor" fill="none"/>
<use x="167.43" y="183.01" xlink:href="#hd"/>
<circle fill="currentColor" cx="175.43" cy="183.01" r="1.2"/>
<path d="M170.93 183.01v-28.00" stroke="currentColor" fill="none"/>
<use x="186.23" y="177.01" xlink:href="#hd"/>
<path d="M189.73 177.01v-22.00" stroke="currentColor" fill="none"/>
<use x="197.73" y="180.01" xlink:href="#hd"/>
<circle fill="currentColor" cx="205.73" cy="177.01" r="1.2"/>
<path d="M201.23 180.01v-25.00" stroke="currentColor" fill="none"/>
<use x="216.73" y="177.01" xlink:href="#hd"/>
<path d="M220.23 177.01v-22.00" stroke="currentColor" fill="none"/>
<use x="239.73" y="171.01" xlink:href="#hd"/>
<path d="M236.23 171.01v20.00" stroke="currentColor" fill="none"/>
<use x="264.23" y="165.01" xlink:href="#hd"/>
<path d="M260.73 165.01v20.00" stroke="currentColor" fill="none"/>
<use x="285.73" y="186.01" xlink:href="#hd"/>
<path d="M289.23 186.01v-20.00" stroke="currentColor" fill="none"/>
<path fill="currentColor"
	d="M313.73 205.31l80.00 -6.10v-3.20l-80.00 6.10"/>
<path fill="currentColor"
	d="M326.83 199.31l6.00 -0.50v-3.20l-6.00 0.50"/>
<path fill="currentColor"
	d="M357.13 197.01l6.00 -0.50v-3.20l-6.00 0.50"/>
<path fill="currentColor"
	d="M387.43 194.71l6.00 -0.50v-3.20l-6.00 0.50"/>
<use x="317.63" y="183.01" xlink:href="#hd"/>
<circle fill="currentColor" cx="325.63" cy="183.01" r="1.2"/>
<path d="M314.13 183.01v21.30" stroke="currentColor" fill="none"/>
<use x="336.33" y="177.01" xlink:href="#hd"/>
<path d="M332.83 177.01v25.80" stroke="currentColor" fill="none"/>
<use x="347.83" y="171.01" xlink:href="#hd"/>
<circle fill="currentColor" cx="355.83" cy="171.01" r="1.2"/>
<path d="M344.33 171.01v30.90" stroke="currentColor" fill="none"/>
<use x="366.63" y="165.01" xlink:href="#hd"/>
<path d="M363.13 165.01v35.50" stroke="currentColor" fill="none"/>
<use x="378.13" y="162.01" xlink:href="#hd"/>
<circle fill="currentColor" cx="386.13" cy="159.01" r="1.2"/>
<path d="M374.63 162.01v37.60" stroke="currentColor" fill="none"/>
<use x="396.93" y="177.01" xlink:href="#hd"/>
<path d="M393.43 177.01v21.20" stroke="currentColor" fill="none"/>
<path fill="currentColor"
	d="M415.93 199.21l82.00 0.00v-3.20l-82.00 -0.00"/>
<path fill="currentColor"
	d="M491.63 194.21l6.00 0.00v-3.20l-6.00 -0.00"/>
<use x="419.83" y="180.01" xlink:href="#hd"/>
<path d="M416.33 180.01v18.20" stroke="currentColor" fill="none"/>
<use x="435.43" y="165.01" xlink:href="#hd"/>
<path d="M431.93 165.01v33.20" stroke="currentColor" fill="none"/>
<use x="451.13" y="165.01" xlink:href="#hd"/>
<path d="M447.63 165.01v33.20" stroke="currentColor" fill="none"/>
<use x="466.73" y="180.01" xlink:href="#hd"/>
<path d="M463.23 180.01v18.20" stroke="currentColor" fill="none"/>
<use x="482.33" y="162.01" xlink:href="#hd"/>
<circle fill="currentColor" cx="490.33" cy="159.01" r="1.2"/>
<path d="M478.83 162.01v36.20" stroke="currentColor" fill="none"/>
<use x="501.13" y="177.01" xlink:href="#hd"/>
<path d="M497.63 177.01v21.20" stroke="currentColor" fill="none"/>
<path fill="currentColor"
	d="M527.23 143.11l80.00 11.20v3.20l-80.00 -11.20"/>
<path fill="currentColor"
	d="M540.33 150.01l6.00 0.80v3.20l-6.00 -0.80"/>
<path fill="currentColor"
	d="M570.63 154.21l6.00 0.80v3.20l-6.00 -0.80"/>
<path fill="currentColor"
	d="M600.93 158.51l6.00 0.80v3.20l-6.00 -0.80"/>
<use x="524.13" y="165.01" xlink:href="#hd"/>
<circle fill="currentColor" cx="532.13" cy="165.01" r="1.2"/>
<path d="M527.63 165.01v-20.80" stroke="currentColor" fill="none"/>
<use x="542.83" y="168.01" xlink:href="#hd"/>
<path d="M546.33 168.01v-21.20" stroke="currentColor" fill="none"/>
<use x="554.33" y="180.01" xlink:href="#hd"/>
<circle fill="currentColor" cx="562.33" cy="177.01" r="1.2"/>
<path d="M557.83 180.01v-31.60" stroke="currentColor" fill="none"/>
<use x="573.13" y="183.01" xlink:href="#hd"/>
<path d="M576.63 183.01v-31.90" stroke="currentColor" fill="none"/>
<use x="584.63" y="186.01" xlink:href="#hd"/>
<circle fill="currentColor" cx="592.63" cy="183.01" r="1.2"/>
<path d="M588.13 186.01v-33.30" stroke="currentColor" fill="none"/>
<use x="603.43" y="189.01" xlink:href="#hd"/>
<path d="M606.93 189.01v-33.70" stroke="currentColor" fill="none"/>
<use x="626.33" y="171.01" xlink:href="#hd"/>
<path d="M622.83 171.01v20.00" stroke="currentColor" fill="none"/>
<use x="650.03" y="171.01" xlink:href="#hd"/>
<path d="M646.53 171.01v20.00" stroke="currentColor" fill="none"/>
<defs>
<path id="r4" fill="currentColor" d="m-1 -8.5
	l3.6 5.1 -2.1 5.2 2.2 4.3
	c-2.6 -2.3 -5.1 0 -2.4 2.6
	c-4.8 -3 -1.5 -6.9 1.4 -4.1
	l-3.1 -4.5 1.9 -5.1 -1.5 -3.5"/>
</defs>
<use x="673.83" y="174.01" xlink:href="#r4"/>
<defs>
<circle id="stc" fill="currentColor" cx="0" cy="-3" r="1.2"/>
</defs>
<use x="626.33" y="168.01" xlink:href="#stc"/>
</g>
</svg>
