<?xml version="1.0" standalone="no"?>
<!DOCTYPE svg PUBLIC "-//W3C//DTD SVG 1.1//EN"
	"http://www.w3.org/Graphics/SVG/1.1/DTD/svg11.dtd">
<svg xmlns="http://www.w3.org/2000/svg" version="1.1"
	xmlns:xlink="http://www.w3.org/1999/xlink"
	xml:space='preserve' color="black"
	width="7.38in" height="4.20in" viewBox="0 0 531 303">
<title>data/results/biggest_11/abc/324.abc (324) tune 1</title>
<!-- Creator: abcm2ps-7.8.14 -->
<!-- CreationDate: Aug  9, 2015 23:50 -->
<!-- CommandLine: -g data/results/biggest_11/abc/324.abc -O /home/allanino/Dropbox/Trabalhos/folkme/svg/324.svg -->
<g transform="scale(0.750)" stroke-width="0.70" font-family="Times" font-size="20.00">
<text x="354.13" y="21.67" text-anchor="middle">Ufem Ofebänzli (Walzer) C chords</text>
</g>
<g transform="scale(0.750)" stroke-width="0.70" font-family="Times" font-size="16.00">
<text x="354.13" y="41.30" text-anchor="middle">Hanny Christen. Bd.I Zürich, Schaffhause, St. Gallen I. S.62 (LD00094) orig. C-Dur</text>
<text x="354.13" y="60.13" text-anchor="middle">Zürcher Oberland, Ländlermusig am Bachtel. S.40-274</text>
<defs>
<g id="rdots" fill="currentColor">
	<circle cx="0" cy="-9" r="1.2"/>
	<circle cx="0" cy="-15" r="1.2"/>
</g>
</defs>
<use x="93.43" y="143.67" xlink:href="#rdots"/>
<path stroke="currentColor" fill="none"
	d="M89.43 143.67v-24.00"/>
<path stroke="currentColor" fill="none" stroke-width="3"
	d="M84.93 143.67v-24.00"/>
<path stroke="currentColor" fill="none"
	d="M164.03 143.67v-24.00"/>
<path stroke="currentColor" fill="none"
	d="M239.63 143.67v-24.00"/>
<path stroke="currentColor" fill="none"
	d="M317.53 143.67v-24.00"/>
<path stroke="currentColor" fill="none"
	d="M385.03 143.67v-24.00"/>
<path stroke="currentColor" fill="none"
	d="M469.23 143.67v-24.00"/>
<path stroke="currentColor" fill="none"
	d="M529.93 143.67v-24.00"/>
<path stroke="currentColor" fill="none"
	d="M596.03 143.67v-24.00"/>
<path stroke="currentColor" fill="none" stroke-width="3"
	d="M669.33 143.67v-24.00"/>
<path stroke="currentColor" fill="none"
	d="M664.83 143.67v-24.00"/>
<use x="660.83" y="143.67" xlink:href="#rdots"/>
<path stroke="currentColor" fill="none"
	d="M13.33 143.67h681.60m-681.60 -6h681.60m-681.60 -6h681.60m-681.60 -6h681.60m-681.60 -6h681.60"/>
</g>
<g transform="scale(0.750)" stroke-width="0.70" font-family="Helvetica" font-size="12.00">
<text x="100.43" y="100.27">G7</text>
<text x="173.03" y="100.27">C</text>
<text x="245.63" y="100.27">G7</text>
<text x="326.53" y="100.27">C</text>
<text x="391.13" y="100.27">G7</text>
<text x="478.13" y="100.27">C</text>
<text x="534.53" y="100.27">Dm</text>
<text x="558.33" y="100.27">G7</text>
<text x="605.03" y="100.27">C</text>
<defs>
<path id="utclef" fill="currentColor" d="m-50 -90
	c-72 -41 -72 -158 52 -188
	c150 -10 220 188 90 256
	c-114 52 -275 0 -293 -136
	c-15 -181 93 -229 220 -334
	c88 -87 79 -133 62 -210
	c-51 33 -94 105 -89 186
	c17 267 36 374 49 574
	c6 96 -19 134 -77 135
	c-80 1 -126 -93 -61 -133
	c85 -41 133 101 31 105
	c23 17 92 37 90 -92
	c-10 -223 -39 -342 -50 -617
	c0 -90 0 -162 96 -232
	c56 72 63 230 22 289
	c-74 106 -257 168 -255 316
	c9 153 148 185 252 133
	c86 -65 29 -192 -80 -176
	c-71 12 -105 67 -59 124"/>
<use id="tclef" transform="scale(0.045)"
	xlink:href="#utclef"/>
</defs>
<use x="25.33" y="143.67" xlink:href="#tclef"/>
<g font-family="serif" font-size="16" font-weight="bold" font-style="normal"
	transform="translate(43.83,143.67) scale(1.2,1)">
	<text y="-1" text-anchor="middle">4</text>
	<text y="-13" text-anchor="middle">3</text>
</g>
<path fill="currentColor"
	d="M58.03 151.27l12.70 -2.10v-3.20l-12.70 2.10"/>
<defs>
<ellipse id="hd" rx="4.1" ry="2.9"
	transform="rotate(-20)" fill="currentColor"/>
</defs>
<use x="61.83" y="131.67" xlink:href="#hd"/>
<path d="M58.33 131.67v18.50" stroke="currentColor" fill="none"/>
<use x="73.93" y="128.67" xlink:href="#hd"/>
<path d="M70.43 128.67v19.50" stroke="currentColor" fill="none"/>
<use x="106.93" y="131.67" xlink:href="#hd"/>
<path d="M103.43 131.67v20.00" stroke="currentColor" fill="none"/>
<use x="123.73" y="125.67" xlink:href="#hd"/>
<path d="M120.23 125.67v20.00" stroke="currentColor" fill="none"/>
<path fill="currentColor"
	d="M136.83 156.97l12.70 -4.80v-3.20l-12.70 4.80"/>
<use x="140.63" y="137.67" xlink:href="#hd"/>
<path d="M137.13 137.67v18.20" stroke="currentColor" fill="none"/>
<use x="152.73" y="119.67" xlink:href="#hd"/>
<path d="M149.23 119.67v31.70" stroke="currentColor" fill="none"/>
<use x="176.53" y="122.67" xlink:href="#hd"/>
<path d="M173.03 122.67v20.00" stroke="currentColor" fill="none"/>
<path fill="currentColor"
	d="M195.23 109.47l36.90 0.00v3.20l-36.90 -0.00"/>
<use x="192.13" y="128.67" xlink:href="#hd"/>
<path d="M195.63 128.67v-18.20" stroke="currentColor" fill="none"/>
<use x="204.13" y="143.67" xlink:href="#hd"/>
<path d="M207.63 143.67v-33.20" stroke="currentColor" fill="none"/>
<use x="216.23" y="137.67" xlink:href="#hd"/>
<path d="M219.73 137.67v-27.20" stroke="currentColor" fill="none"/>
<use x="228.33" y="128.67" xlink:href="#hd"/>
<path d="M231.83 128.67v-18.20" stroke="currentColor" fill="none"/>
<use x="252.13" y="131.67" xlink:href="#hd"/>
<path d="M255.63 131.67v-20.00" stroke="currentColor" fill="none"/>
<path fill="currentColor"
	d="M266.13 153.87l36.90 0.00v-3.20l-36.90 -0.00"/>
<use x="270.03" y="134.67" xlink:href="#hd"/>
<path d="M266.53 134.67v18.20" stroke="currentColor" fill="none"/>
<use x="282.03" y="131.67" xlink:href="#hd"/>
<path d="M278.53 131.67v21.20" stroke="currentColor" fill="none"/>
<use x="294.13" y="125.67" xlink:href="#hd"/>
<path d="M290.63 125.67v27.20" stroke="currentColor" fill="none"/>
<use x="306.23" y="131.67" xlink:href="#hd"/>
<path d="M302.73 131.67v21.20" stroke="currentColor" fill="none"/>
<use x="330.03" y="128.67" xlink:href="#hd"/>
<path d="M326.53 128.67v20.00" stroke="currentColor" fill="none"/>
<path fill="currentColor"
	d="M348.73 112.07l12.70 2.10v3.20l-12.70 -2.10"/>
<use x="345.53" y="131.67" xlink:href="#hd"/>
<path d="M349.03 131.67v-18.50" stroke="currentColor" fill="none"/>
<use x="357.63" y="134.67" xlink:href="#hd"/>
<path d="M361.13 134.67v-19.50" stroke="currentColor" fill="none"/>
<use x="370.63" y="137.67" xlink:href="#hd"/>
<path d="M374.13 137.67v-20.00" stroke="currentColor" fill="none"/>
<path fill="currentColor"
	d="M393.73 156.97l61.00 -9.00v-3.20l-61.00 9.00"/>
<use x="397.53" y="137.67" xlink:href="#hd"/>
<path d="M394.03 137.67v18.20" stroke="currentColor" fill="none"/>
<use x="409.63" y="131.67" xlink:href="#hd"/>
<path d="M406.13 131.67v22.40" stroke="currentColor" fill="none"/>
<use x="421.73" y="125.67" xlink:href="#hd"/>
<path d="M418.23 125.67v26.60" stroke="currentColor" fill="none"/>
<defs>
<path id="hl" stroke="currentColor" d="m-6 0h12"/>
</defs>
<use x="433.73" y="113.67" xlink:href="#hl"/>
<use x="433.73" y="113.67" xlink:href="#hd"/>
<path d="M430.23 113.67v36.90" stroke="currentColor" fill="none"/>
<use x="445.83" y="116.67" xlink:href="#hd"/>
<path d="M442.33 116.67v32.10" stroke="currentColor" fill="none"/>
<use x="457.83" y="119.67" xlink:href="#hd"/>
<path d="M454.33 119.67v27.30" stroke="currentColor" fill="none"/>
<use x="481.73" y="122.67" xlink:href="#hd"/>
<path d="M478.23 122.67v20.00" stroke="currentColor" fill="none"/>
<defs>
<path id="r4" fill="currentColor" d="m-1 -8.5
	l3.6 5.1 -2.1 5.2 2.2 4.3
	c-2.6 -2.3 -5.1 0 -2.4 2.6
	c-4.8 -3 -1.5 -6.9 1.4 -4.1
	l-3.1 -4.5 1.9 -5.1 -1.5 -3.5"/>
</defs>
<use x="498.63" y="131.67" xlink:href="#r4"/>
<use x="515.43" y="131.67" xlink:href="#r4"/>
<use x="542.43" y="113.67" xlink:href="#hl"/>
<use x="542.43" y="113.67" xlink:href="#hd"/>
<path d="M538.93 113.67v20.00" stroke="currentColor" fill="none"/>
<use x="564.73" y="116.67" xlink:href="#hd"/>
<path d="M561.23 116.67v20.00" stroke="currentColor" fill="none"/>
<use x="581.63" y="131.67" xlink:href="#hd"/>
<path d="M578.13 131.67v20.00" stroke="currentColor" fill="none"/>
<use x="608.53" y="128.67" xlink:href="#hd"/>
<path d="M605.03 128.67v20.00" stroke="currentColor" fill="none"/>
<use x="625.43" y="131.67" xlink:href="#r4"/>
<use x="642.33" y="131.67" xlink:href="#r4"/>
<defs>
<path id="uflat" fill="currentColor" d="
	m100 -746
	h32
	v734
	l-32 4
	m32 -332
	c46 -72 152 -90 208 -20
	c100 110 -120 326 -208 348
	m0 -28
	c54 0 200 -206 130 -290
	c-50 -60 -130 -4 -130 34"/>
<use id="ft0" transform="translate(-3.5,3.5) scale(0.018)"
	xlink:href="#uflat"/>
</defs>
<use x="681.83" y="131.67" xlink:href="#ft0"/>
<use x="64.83" y="222.67" xlink:href="#rdots"/>
<path stroke="currentColor" fill="none"
	d="M60.83 222.67v-24.00"/>
<path stroke="currentColor" fill="none" stroke-width="3"
	d="M56.33 222.67v-24.00"/>
<path stroke="currentColor" fill="none"
	d="M171.23 222.67v-24.00"/>
<path stroke="currentColor" fill="none"
	d="M278.83 222.67v-24.00"/>
<path stroke="currentColor" fill="none"
	d="M377.83 222.67v-24.00"/>
<path stroke="currentColor" fill="none"
	d="M491.73 222.67v-24.00"/>
<path stroke="currentColor" fill="none"
	d="M597.63 222.67v-24.00"/>
<path stroke="currentColor" fill="none" stroke-width="3"
	d="M693.43 222.67v-24.00"/>
<path stroke="currentColor" fill="none"
	d="M688.93 222.67v-24.00"/>
<use x="684.93" y="222.67" xlink:href="#rdots"/>
<path stroke="currentColor" fill="none"
	d="M13.33 222.67h681.60m-681.60 -6h681.60m-681.60 -6h681.60m-681.60 -6h681.60m-681.60 -6h681.60"/>
<text x="75.43" y="178.27">F</text>
<text x="177.23" y="178.27">G7</text>
<text x="287.83" y="178.27">C</text>
<text x="338.73" y="234.27">e</text>
<text x="389.83" y="178.27">G7</text>
<text x="500.73" y="178.27">C</text>
<use x="25.33" y="222.67" xlink:href="#tclef"/>
<use x="40.33" y="210.67" xlink:href="#ft0"/>
<path fill="currentColor"
	d="M74.53 225.67l79.30 0.00v-3.20l-79.30 -0.00"/>
<use x="78.33" y="207.67" xlink:href="#hd"/>
<path d="M74.83 207.67v17.00" stroke="currentColor" fill="none"/>
<use x="94.03" y="192.67" xlink:href="#hl"/>
<use x="94.03" y="192.67" xlink:href="#hd"/>
<path d="M90.53 192.67v32.00" stroke="currentColor" fill="none"/>
<use x="109.83" y="195.67" xlink:href="#hd"/>
<path d="M106.33 195.67v29.00" stroke="currentColor" fill="none"/>
<use x="125.53" y="198.67" xlink:href="#hd"/>
<path d="M122.03 198.67v26.00" stroke="currentColor" fill="none"/>
<use x="141.23" y="201.67" xlink:href="#hd"/>
<path d="M137.73 201.67v23.00" stroke="currentColor" fill="none"/>
<use x="156.93" y="198.67" xlink:href="#hd"/>
<path d="M153.43 198.67v26.00" stroke="currentColor" fill="none"/>
<path fill="currentColor"
	d="M179.83 222.87l81.60 0.00v-3.20l-81.60 -0.00"/>
<use x="183.73" y="192.67" xlink:href="#hl"/>
<use x="183.73" y="192.67" xlink:href="#hd"/>
<path d="M180.23 192.67v29.20" stroke="currentColor" fill="none"/>
<use x="199.43" y="195.67" xlink:href="#hd"/>
<path d="M195.93 195.67v26.20" stroke="currentColor" fill="none"/>
<use x="217.43" y="198.67" xlink:href="#hd"/>
<defs>
<path id="usharp" fill="currentColor" d="
	m136 -702
	v890
	h32
	v-890
	m128 840
	h32
	v-888
	h-32
	m-232 286
	v116
	l338 -96
	v-116
	m-338 442
	v116
	l338 -98
	v-114"/>
<use id="sh0" transform="translate(-4,5) scale(0.018)"
	xlink:href="#usharp"/>
</defs>
<use x="208.43" y="198.67" xlink:href="#sh0"/>
<path d="M213.93 198.67v23.20" stroke="currentColor" fill="none"/>
<use x="233.13" y="195.67" xlink:href="#hd"/>
<path d="M229.63 195.67v26.20" stroke="currentColor" fill="none"/>
<use x="248.93" y="192.67" xlink:href="#hl"/>
<use x="248.93" y="189.67" xlink:href="#hd"/>
<path d="M245.43 189.67v32.20" stroke="currentColor" fill="none"/>
<use x="264.63" y="204.67" xlink:href="#hd"/>
<path d="M261.13 204.67v17.20" stroke="currentColor" fill="none"/>
<path fill="currentColor"
	d="M287.53 215.77l50.40 5.20v-3.20l-50.40 -5.20"/>
<use x="291.33" y="192.67" xlink:href="#hl"/>
<use x="291.33" y="189.67" xlink:href="#hd"/>
<path d="M287.83 189.67v25.10" stroke="currentColor" fill="none"/>
<use x="307.33" y="192.67" xlink:href="#hl"/>
<use x="307.33" y="192.67" xlink:href="#hd"/>
<path d="M303.83 192.67v23.70" stroke="currentColor" fill="none"/>
<use x="325.33" y="195.67" xlink:href="#hd"/>
<defs>
<path id="unat" fill="currentColor" d="
	m96 -750
	h-32
	v716
	l32 -8
	l182 -54
	v282
	h32
	v-706
	l-34 10
	l-180 50
	v-290
	m0 592
	v-190
	l182 -52
	v188"/>
<use id="nt0" transform="translate(-3,5) scale(0.018)"
	xlink:href="#unat"/>
</defs>
<use x="316.33" y="195.67" xlink:href="#nt0"/>
<path d="M321.83 195.67v22.60" stroke="currentColor" fill="none"/>
<use x="341.13" y="201.67" xlink:href="#hd"/>
<path d="M337.63 201.67v18.20" stroke="currentColor" fill="none"/>
<use x="358.43" y="192.67" xlink:href="#hl"/>
<use x="358.43" y="192.67" xlink:href="#hd"/>
<path d="M354.93 192.67v20.00" stroke="currentColor" fill="none"/>
<path fill="currentColor"
	d="M392.53 222.87l81.90 0.00v-3.20l-81.90 -0.00"/>
<use x="396.33" y="198.67" xlink:href="#hd"/>
<use x="387.33" y="198.67" xlink:href="#sh0"/>
<path d="M392.83 198.67v23.20" stroke="currentColor" fill="none"/>
<use x="412.03" y="195.67" xlink:href="#hd"/>
<path d="M408.53 195.67v26.20" stroke="currentColor" fill="none"/>
<use x="427.73" y="192.67" xlink:href="#hl"/>
<use x="427.73" y="192.67" xlink:href="#hd"/>
<path d="M424.23 192.67v29.20" stroke="currentColor" fill="none"/>
<use x="443.73" y="192.67" xlink:href="#hl"/>
<use x="443.73" y="189.67" xlink:href="#hd"/>
<path d="M440.23 189.67v32.20" stroke="currentColor" fill="none"/>
<use x="461.73" y="198.67" xlink:href="#hd"/>
<use x="452.73" y="198.67" xlink:href="#nt0"/>
<path d="M458.23 198.67v23.20" stroke="currentColor" fill="none"/>
<use x="477.53" y="204.67" xlink:href="#hd"/>
<path d="M474.03 204.67v17.20" stroke="currentColor" fill="none"/>
<path fill="currentColor"
	d="M500.43 219.67l79.90 0.00v-3.20l-79.90 -0.00"/>
<use x="504.23" y="201.67" xlink:href="#hd"/>
<path d="M500.73 201.67v17.00" stroke="currentColor" fill="none"/>
<use x="519.93" y="198.67" xlink:href="#hd"/>
<path d="M516.43 198.67v20.00" stroke="currentColor" fill="none"/>
<use x="535.73" y="195.67" xlink:href="#hd"/>
<path d="M532.23 195.67v23.00" stroke="currentColor" fill="none"/>
<use x="551.43" y="192.67" xlink:href="#hl"/>
<use x="551.43" y="192.67" xlink:href="#hd"/>
<path d="M547.93 192.67v26.00" stroke="currentColor" fill="none"/>
<use x="567.43" y="192.67" xlink:href="#hl"/>
<use x="567.43" y="189.67" xlink:href="#hd"/>
<path d="M563.93 189.67v29.00" stroke="currentColor" fill="none"/>
<use x="583.43" y="192.67" xlink:href="#hl"/>
<use x="583.43" y="186.67" xlink:href="#hl"/>
<use x="583.43" y="186.67" xlink:href="#hd"/>
<path d="M579.93 186.67v32.00" stroke="currentColor" fill="none"/>
<path fill="currentColor"
	d="M612.33 210.87l16.70 0.00v-3.20l-16.70 -0.00"/>
<use x="616.13" y="192.67" xlink:href="#hl"/>
<use x="616.13" y="189.67" xlink:href="#hd"/>
<use x="607.13" y="189.67" xlink:href="#nt0"/>
<path d="M612.63 189.67v20.20" stroke="currentColor" fill="none"/>
<use x="632.13" y="192.67" xlink:href="#hl"/>
<use x="632.13" y="189.67" xlink:href="#hd"/>
<path d="M628.63 189.67v20.20" stroke="currentColor" fill="none"/>
<use x="649.73" y="192.67" xlink:href="#hl"/>
<use x="649.73" y="189.67" xlink:href="#hd"/>
<path d="M646.23 189.67v21.00" stroke="currentColor" fill="none"/>
<use x="673.53" y="210.67" xlink:href="#r4"/>
<path stroke="currentColor" fill="none"
	d="M141.03 301.67v-24.00"/>
<path stroke="currentColor" fill="none"
	d="M225.93 301.67v-24.00"/>
<path stroke="currentColor" fill="none"
	d="M310.93 301.67v-24.00"/>
<path stroke="currentColor" fill="none"
	d="M401.63 301.67v-24.00"/>
<path stroke="currentColor" fill="none"
	d="M502.03 301.67v-24.00"/>
<path stroke="currentColor" fill="none"
	d="M594.13 301.67v-24.00"/>
<path stroke="currentColor" fill="none"
	d="M694.93 301.67v-24.00"/>
<path stroke="currentColor" fill="none"
	d="M13.33 301.67h681.60m-681.60 -6h681.60m-681.60 -6h681.60m-681.60 -6h681.60m-681.60 -6h681.60"/>
<text x="55.43" y="257.27">F</text>
<text x="147.43" y="257.27">C7</text>
<text x="320.43" y="257.27">F</text>
<text x="508.43" y="257.27">C7</text>
<use x="25.33" y="301.67" xlink:href="#tclef"/>
<use x="40.33" y="289.67" xlink:href="#ft0"/>
<path fill="currentColor"
	d="M54.53 293.47l15.60 3.50v-3.20l-15.60 -3.50"/>
<use x="58.33" y="271.67" xlink:href="#hl"/>
<use x="58.33" y="271.67" xlink:href="#hd"/>
<path d="M54.83 271.67v20.90" stroke="currentColor" fill="none"/>
<use x="73.23" y="277.67" xlink:href="#hd"/>
<path d="M69.73 277.67v18.20" stroke="currentColor" fill="none"/>
<use x="89.63" y="271.67" xlink:href="#hl"/>
<use x="89.63" y="265.67" xlink:href="#hl"/>
<use x="89.63" y="265.67" xlink:href="#hd"/>
<path d="M86.13 265.67v24.00" stroke="currentColor" fill="none"/>
<path fill="currentColor"
	d="M108.63 289.87l15.80 1.70v-3.20l-15.80 -1.70"/>
<use x="112.53" y="271.67" xlink:href="#hl"/>
<use x="112.53" y="268.67" xlink:href="#hd"/>
<path d="M109.03 268.67v20.20" stroke="currentColor" fill="none"/>
<use x="127.63" y="271.67" xlink:href="#hl"/>
<use x="127.63" y="271.67" xlink:href="#hd"/>
<path d="M124.13 271.67v18.80" stroke="currentColor" fill="none"/>
<path fill="currentColor"
	d="M149.73 292.07l15.60 2.20v-3.20l-15.60 -2.20"/>
<use x="153.53" y="271.67" xlink:href="#hl"/>
<use x="153.53" y="271.67" xlink:href="#hd"/>
<path d="M150.03 271.67v19.40" stroke="currentColor" fill="none"/>
<use x="168.43" y="274.67" xlink:href="#hd"/>
<path d="M164.93 274.67v18.60" stroke="currentColor" fill="none"/>
<use x="184.83" y="274.67" xlink:href="#hd"/>
<path d="M181.33 274.67v20.00" stroke="currentColor" fill="none"/>
<use x="207.53" y="274.67" xlink:href="#hd"/>
<path d="M204.03 274.67v20.00" stroke="currentColor" fill="none"/>
<path fill="currentColor"
	d="M234.63 305.97l15.60 -3.50v-3.20l-15.60 3.50"/>
<use x="238.43" y="286.67" xlink:href="#hd"/>
<path d="M234.93 286.67v18.20" stroke="currentColor" fill="none"/>
<use x="253.33" y="280.67" xlink:href="#hd"/>
<path d="M249.83 280.67v20.90" stroke="currentColor" fill="none"/>
<use x="269.73" y="274.67" xlink:href="#hd"/>
<path d="M266.23 274.67v20.00" stroke="currentColor" fill="none"/>
<use x="292.43" y="271.67" xlink:href="#hl"/>
<use x="292.43" y="265.67" xlink:href="#hl"/>
<use x="292.43" y="265.67" xlink:href="#hd"/>
<path d="M288.93 265.67v24.00" stroke="currentColor" fill="none"/>
<path fill="currentColor"
	d="M319.53 298.77l45.60 7.10v-3.20l-45.60 -7.10"/>
<use x="323.43" y="271.67" xlink:href="#hl"/>
<use x="323.43" y="268.67" xlink:href="#hd"/>
<path d="M319.93 268.67v29.20" stroke="currentColor" fill="none"/>
<use x="338.53" y="271.67" xlink:href="#hl"/>
<use x="338.53" y="271.67" xlink:href="#hd"/>
<path d="M335.03 271.67v28.50" stroke="currentColor" fill="none"/>
<use x="353.43" y="277.67" xlink:href="#hd"/>
<path d="M349.93 277.67v24.90" stroke="currentColor" fill="none"/>
<use x="368.23" y="286.67" xlink:href="#hd"/>
<path d="M364.73 286.67v18.20" stroke="currentColor" fill="none"/>
<use x="383.13" y="292.67" xlink:href="#hd"/>
<path d="M386.63 292.67v-20.00" stroke="currentColor" fill="none"/>
<path fill="currentColor"
	d="M410.33 311.87l75.10 0.00v-3.20l-75.10 -0.00"/>
<use x="414.13" y="286.67" xlink:href="#hd"/>
<path d="M410.63 286.67v24.20" stroke="currentColor" fill="none"/>
<use x="429.03" y="271.67" xlink:href="#hl"/>
<use x="429.03" y="271.67" xlink:href="#hd"/>
<path d="M425.53 271.67v39.20" stroke="currentColor" fill="none"/>
<use x="443.93" y="277.67" xlink:href="#hd"/>
<path d="M440.43 277.67v33.20" stroke="currentColor" fill="none"/>
<use x="458.83" y="286.67" xlink:href="#hd"/>
<path d="M455.33 286.67v24.20" stroke="currentColor" fill="none"/>
<use x="473.73" y="292.67" xlink:href="#hd"/>
<path d="M470.23 292.67v18.20" stroke="currentColor" fill="none"/>
<use x="488.63" y="286.67" xlink:href="#hd"/>
<path d="M485.13 286.67v24.20" stroke="currentColor" fill="none"/>
<path fill="currentColor"
	d="M517.73 267.47l45.40 6.60v3.20l-45.40 -6.60"/>
<use x="514.53" y="286.67" xlink:href="#hd"/>
<path d="M518.03 286.67v-18.20" stroke="currentColor" fill="none"/>
<use x="529.43" y="289.67" xlink:href="#hd"/>
<path d="M532.93 289.67v-19.00" stroke="currentColor" fill="none"/>
<use x="544.33" y="295.67" xlink:href="#hd"/>
<path d="M547.83 295.67v-22.90" stroke="currentColor" fill="none"/>
<use x="559.23" y="301.67" xlink:href="#hd"/>
<path d="M562.73 301.67v-26.70" stroke="currentColor" fill="none"/>
<use x="575.63" y="295.67" xlink:href="#hd"/>
<path d="M579.13 295.67v-20.00" stroke="currentColor" fill="none"/>
<path fill="currentColor"
	d="M602.73 305.87l75.60 -6.80v-3.20l-75.60 6.80"/>
<use x="606.63" y="286.67" xlink:href="#hd"/>
<path d="M603.13 286.67v18.20" stroke="currentColor" fill="none"/>
<use x="621.43" y="283.67" xlink:href="#hd"/>
<path d="M617.93 283.67v19.90" stroke="currentColor" fill="none"/>
<use x="636.33" y="271.67" xlink:href="#hl"/>
<use x="636.33" y="265.67" xlink:href="#hl"/>
<use x="636.33" y="265.67" xlink:href="#hd"/>
<path d="M632.83 265.67v36.50" stroke="currentColor" fill="none"/>
<use x="651.43" y="271.67" xlink:href="#hl"/>
<use x="651.43" y="268.67" xlink:href="#hd"/>
<path d="M647.93 268.67v32.20" stroke="currentColor" fill="none"/>
<use x="666.63" y="271.67" xlink:href="#hl"/>
<use x="666.63" y="271.67" xlink:href="#hd"/>
<path d="M663.13 271.67v27.80" stroke="currentColor" fill="none"/>
<use x="681.43" y="274.67" xlink:href="#hd"/>
<path d="M677.93 274.67v23.50" stroke="currentColor" fill="none"/>
<use x="132.03" y="380.67" xlink:href="#rdots"/>
<path stroke="currentColor" fill="none" stroke-width="3"
	d="M126.53 380.67v-24.00"/>
<path stroke="currentColor" fill="none" stroke-width="3"
	d="M120.53 380.67v-24.00"/>
<use x="115.03" y="380.67" xlink:href="#rdots"/>
<path stroke="currentColor" fill="none"
	d="M235.63 380.67v-24.00"/>
<path stroke="currentColor" fill="none"
	d="M329.53 380.67v-24.00"/>
<path stroke="currentColor" fill="none"
	d="M432.13 380.67v-24.00"/>
<path stroke="currentColor" fill="none"
	d="M526.23 380.67v-24.00"/>
<path stroke="currentColor" fill="none"
	d="M629.13 380.67v-24.00"/>
<path stroke="currentColor" fill="none" stroke-width="3"
	d="M693.43 380.67v-24.00"/>
<path stroke="currentColor" fill="none"
	d="M688.93 380.67v-24.00"/>
<use x="684.93" y="380.67" xlink:href="#rdots"/>
<path stroke="currentColor" fill="none"
	d="M13.33 380.67h681.60m-681.60 -6h681.60m-681.60 -6h681.60m-681.60 -6h681.60m-681.60 -6h681.60"/>
<text x="55.43" y="336.27">F</text>
<text x="139.43" y="336.27">C7</text>
<text x="245.23" y="336.27">F</text>
<text x="336.13" y="336.27">B♭</text>
<text x="441.63" y="336.27">F</text>
<text x="532.63" y="336.27">C7</text>
<text x="639.13" y="336.27">F</text>
<use x="25.33" y="380.67" xlink:href="#tclef"/>
<use x="40.33" y="368.67" xlink:href="#ft0"/>
<use x="58.33" y="356.67" xlink:href="#hd"/>
<path d="M54.83 356.67v20.00" stroke="currentColor" fill="none"/>
<use x="81.43" y="368.67" xlink:href="#r4"/>
<use x="104.53" y="368.67" xlink:href="#r4"/>
<path fill="currentColor"
	d="M141.73 383.67l76.90 0.00v-3.20l-76.90 -0.00"/>
<use x="145.53" y="365.67" xlink:href="#hd"/>
<path d="M142.03 365.67v17.00" stroke="currentColor" fill="none"/>
<use x="160.83" y="359.67" xlink:href="#hd"/>
<path d="M157.33 359.67v23.00" stroke="currentColor" fill="none"/>
<use x="176.03" y="359.67" xlink:href="#hd"/>
<path d="M172.53 359.67v23.00" stroke="currentColor" fill="none"/>
<use x="191.33" y="365.67" xlink:href="#hd"/>
<path d="M187.83 365.67v17.00" stroke="currentColor" fill="none"/>
<use x="206.53" y="359.67" xlink:href="#hd"/>
<path d="M203.03 359.67v23.00" stroke="currentColor" fill="none"/>
<use x="221.83" y="353.67" xlink:href="#hd"/>
<path d="M218.33 353.67v29.00" stroke="currentColor" fill="none"/>
<path fill="currentColor"
	d="M244.33 383.47l46.40 7.40v-3.20l-46.40 -7.40"/>
<use x="248.13" y="356.67" xlink:href="#hd"/>
<path d="M244.63 356.67v25.90" stroke="currentColor" fill="none"/>
<use x="263.43" y="350.67" xlink:href="#hl"/>
<use x="263.43" y="350.67" xlink:href="#hd"/>
<path d="M259.93 350.67v34.30" stroke="currentColor" fill="none"/>
<use x="278.63" y="365.67" xlink:href="#hd"/>
<path d="M275.13 365.67v21.80" stroke="currentColor" fill="none"/>
<use x="293.93" y="371.67" xlink:href="#hd"/>
<path d="M290.43 371.67v18.20" stroke="currentColor" fill="none"/>
<use x="310.63" y="356.67" xlink:href="#hd"/>
<path d="M307.13 356.67v20.00" stroke="currentColor" fill="none"/>
<path fill="currentColor"
	d="M338.23 380.87l76.90 0.00v-3.20l-76.90 -0.00"/>
<use x="342.03" y="350.67" xlink:href="#hl"/>
<use x="342.03" y="347.67" xlink:href="#hd"/>
<path d="M338.53 347.67v32.20" stroke="currentColor" fill="none"/>
<use x="357.33" y="362.67" xlink:href="#hd"/>
<path d="M353.83 362.67v17.20" stroke="currentColor" fill="none"/>
<use x="372.53" y="350.67" xlink:href="#hl"/>
<use x="372.53" y="347.67" xlink:href="#hd"/>
<path d="M369.03 347.67v32.20" stroke="currentColor" fill="none"/>
<use x="387.83" y="362.67" xlink:href="#hd"/>
<path d="M384.33 362.67v17.20" stroke="currentColor" fill="none"/>
<use x="403.03" y="350.67" xlink:href="#hl"/>
<use x="403.03" y="347.67" xlink:href="#hd"/>
<path d="M399.53 347.67v32.20" stroke="currentColor" fill="none"/>
<use x="418.33" y="362.67" xlink:href="#hd"/>
<path d="M414.83 362.67v17.20" stroke="currentColor" fill="none"/>
<path fill="currentColor"
	d="M440.73 383.67l46.70 0.00v-3.20l-46.70 -0.00"/>
<use x="444.63" y="365.67" xlink:href="#hd"/>
<path d="M441.13 365.67v17.00" stroke="currentColor" fill="none"/>
<use x="459.83" y="350.67" xlink:href="#hl"/>
<use x="459.83" y="350.67" xlink:href="#hd"/>
<path d="M456.33 350.67v32.00" stroke="currentColor" fill="none"/>
<use x="475.33" y="350.67" xlink:href="#hl"/>
<use x="475.33" y="350.67" xlink:href="#hd"/>
<path d="M471.83 350.67v32.00" stroke="currentColor" fill="none"/>
<use x="490.63" y="365.67" xlink:href="#hd"/>
<path d="M487.13 365.67v17.00" stroke="currentColor" fill="none"/>
<use x="507.43" y="356.67" xlink:href="#hd"/>
<path d="M503.93 356.67v20.00" stroke="currentColor" fill="none"/>
<path fill="currentColor"
	d="M534.93 383.67l77.20 0.00v-3.20l-77.20 -0.00"/>
<use x="538.73" y="365.67" xlink:href="#hd"/>
<path d="M535.23 365.67v17.00" stroke="currentColor" fill="none"/>
<use x="554.03" y="350.67" xlink:href="#hl"/>
<use x="554.03" y="347.67" xlink:href="#hd"/>
<path d="M550.53 347.67v35.00" stroke="currentColor" fill="none"/>
<use x="569.53" y="350.67" xlink:href="#hl"/>
<use x="569.53" y="347.67" xlink:href="#hd"/>
<path d="M566.03 347.67v35.00" stroke="currentColor" fill="none"/>
<use x="584.73" y="353.67" xlink:href="#hd"/>
<path d="M581.23 353.67v29.00" stroke="currentColor" fill="none"/>
<use x="600.03" y="365.67" xlink:href="#hd"/>
<path d="M596.53 365.67v17.00" stroke="currentColor" fill="none"/>
<use x="615.33" y="359.67" xlink:href="#hd"/>
<path d="M611.83 359.67v23.00" stroke="currentColor" fill="none"/>
<defs>
<path id="Hd" fill="currentColor" d="m3 -1.6
	c-1 -1.8 -7 1.4 -6 3.2
	c1 1.8 7 -1.4 6 -3.2
	m0.5 -0.3
	c2 3.8 -5 7.6 -7 3.8
	c-2 -3.8 5 -7.6 7 -3.8"/>
</defs>
<use x="642.13" y="356.67" xlink:href="#Hd"/>
<path d="M638.63 356.67v20.00" stroke="currentColor" fill="none"/>
<use x="674.23" y="368.67" xlink:href="#r4"/>
</g>
</svg>
