<?xml version="1.0" standalone="no"?>
<!DOCTYPE svg PUBLIC "-//W3C//DTD SVG 1.1//EN"
	"http://www.w3.org/Graphics/SVG/1.1/DTD/svg11.dtd">
<svg xmlns="http://www.w3.org/2000/svg" version="1.1"
	xmlns:xlink="http://www.w3.org/1999/xlink"
	xml:space='preserve' color="black"
	width="7.38in" height="3.89in" viewBox="0 0 531 280">
<title>data/results/biggest_11/abc/33.abc (33) tune 1</title>
<!-- Creator: abcm2ps-7.8.14 -->
<!-- CreationDate: Aug  9, 2015 23:50 -->
<!-- CommandLine: -g data/results/biggest_11/abc/33.abc -O /home/allanino/Dropbox/Trabalhos/folkme/svg/33.svg -->
<g transform="scale(0.750)" stroke-width="0.70" font-family="Times" font-size="20.00">
<text x="354.13" y="21.67" text-anchor="middle">The Roscaul Lodstaghie</text>
</g>
<g transform="scale(0.750)" stroke-width="0.70" font-family="Times" font-size="16.00">
<text x="354.13" y="41.30" text-anchor="middle">Settine Reel</text>
<text x="354.13" y="60.13" text-anchor="middle">Marle Clark Then Juga</text>
<path stroke="currentColor" fill="none"
	d="M229.13 135.67v-24.00"/>
<path stroke="currentColor" fill="none"
	d="M382.13 135.67v-24.00"/>
<path stroke="currentColor" fill="none"
	d="M543.93 135.67v-24.00"/>
<path stroke="currentColor" fill="none"
	d="M694.93 135.67v-24.00"/>
<path stroke="currentColor" fill="none"
	d="M13.33 135.67h681.60m-681.60 -6h681.60m-681.60 -6h681.60m-681.60 -6h681.60m-681.60 -6h681.60"/>
<defs>
<path id="utclef" fill="currentColor" d="m-50 -90
	c-72 -41 -72 -158 52 -188
	c150 -10 220 188 90 256
	c-114 52 -275 0 -293 -136
	c-15 -181 93 -229 220 -334
	c88 -87 79 -133 62 -210
	c-51 33 -94 105 -89 186
	c17 267 36 374 49 574
	c6 96 -19 134 -77 135
	c-80 1 -126 -93 -61 -133
	c85 -41 133 101 31 105
	c23 17 92 37 90 -92
	c-10 -223 -39 -342 -50 -617
	c0 -90 0 -162 96 -232
	c56 72 63 230 22 289
	c-74 106 -257 168 -255 316
	c9 153 148 185 252 133
	c86 -65 29 -192 -80 -176
	c-71 12 -105 67 -59 124"/>
<use id="tclef" transform="scale(0.045)"
	xlink:href="#utclef"/>
</defs>
<use x="25.33" y="135.67" xlink:href="#tclef"/>
<defs>
<path id="usharp" fill="currentColor" d="
	m136 -702
	v890
	h32
	v-890
	m128 840
	h32
	v-888
	h-32
	m-232 286
	v116
	l338 -96
	v-116
	m-338 442
	v116
	l338 -98
	v-114"/>
<use id="sh0" transform="translate(-4,5) scale(0.018)"
	xlink:href="#usharp"/>
</defs>
<use x="40.33" y="111.67" xlink:href="#sh0"/>
<use x="45.83" y="120.67" xlink:href="#sh0"/>
<defs>
<path id="csig" fill="currentColor" d="
	m1 -17.3
	c0.9 0 2.3 0.7 2.4 2.2
	c-1.2 -2 -3.6 0.1 -1.6 1.7
	c2 1 3.8 -3.5 -0.8 -4.7
	c-2 -0.4 -6.4 1.3 -5.8 7
	c0.4 6.4 7.9 6.8 9.1 0.7
	c-2.3 5.6 -6.7 5.1 -6.8 0
	c-0.5 -4.4 0.7 -7.5 3.5 -6.9"/>
<g id="ctsig">
	<use xlink:href="#csig"/>
	<path d="m0 -4v-16" stroke="currentColor"/>
</g>
</defs>
<use x="61.83" y="135.67" xlink:href="#ctsig"/>
<path fill="currentColor"
	d="M83.03 104.47l59.90 0.00v3.20l-59.90 -0.00"/>
<defs>
<ellipse id="hd" rx="4.1" ry="2.9"
	transform="rotate(-20)" fill="currentColor"/>
</defs>
<use x="79.83" y="123.67" xlink:href="#hd"/>
<path d="M83.33 123.67v-18.20" stroke="currentColor" fill="none"/>
<use x="99.53" y="135.67" xlink:href="#hd"/>
<path d="M103.03 135.67v-30.20" stroke="currentColor" fill="none"/>
<use x="119.33" y="123.67" xlink:href="#hd"/>
<path d="M122.83 123.67v-18.20" stroke="currentColor" fill="none"/>
<use x="139.03" y="129.67" xlink:href="#hd"/>
<path d="M142.53 129.67v-24.20" stroke="currentColor" fill="none"/>
<use x="160.93" y="135.67" xlink:href="#hd"/>
<path d="M164.43 135.67v-20.00" stroke="currentColor" fill="none"/>
<path fill="currentColor"
	d="M194.93 118.37l20.40 -2.40v3.20l-20.40 2.40"/>
<use x="191.73" y="138.67" xlink:href="#hd"/>
<path d="M195.23 138.67v-19.30" stroke="currentColor" fill="none"/>
<use x="211.53" y="135.67" xlink:href="#hd"/>
<path d="M215.03 135.67v-18.70" stroke="currentColor" fill="none"/>
<use x="241.63" y="129.67" xlink:href="#hd"/>
<path d="M245.13 129.67v-20.00" stroke="currentColor" fill="none"/>
<path fill="currentColor"
	d="M275.53 103.97l20.40 2.40v3.20l-20.40 -2.40"/>
<use x="272.43" y="123.67" xlink:href="#hd"/>
<path d="M275.93 123.67v-18.70" stroke="currentColor" fill="none"/>
<use x="292.13" y="126.67" xlink:href="#hd"/>
<path d="M295.63 126.67v-19.30" stroke="currentColor" fill="none"/>
<use x="314.03" y="123.67" xlink:href="#hd"/>
<path d="M317.53 123.67v-20.00" stroke="currentColor" fill="none"/>
<path fill="currentColor"
	d="M347.93 103.67l20.40 0.00v3.20l-20.40 -0.00"/>
<use x="344.83" y="123.67" xlink:href="#hd"/>
<path d="M348.33 123.67v-19.00" stroke="currentColor" fill="none"/>
<use x="364.53" y="123.67" xlink:href="#hd"/>
<path d="M368.03 123.67v-19.00" stroke="currentColor" fill="none"/>
<path fill="currentColor"
	d="M397.83 104.47l40.20 0.00v3.20l-40.20 -0.00"/>
<use x="394.63" y="123.67" xlink:href="#hd"/>
<path d="M398.13 123.67v-18.20" stroke="currentColor" fill="none"/>
<use x="414.43" y="126.67" xlink:href="#hd"/>
<path d="M417.93 126.67v-21.20" stroke="currentColor" fill="none"/>
<use x="434.13" y="126.67" xlink:href="#hd"/>
<path d="M437.63 126.67v-21.20" stroke="currentColor" fill="none"/>
<use x="456.03" y="132.67" xlink:href="#hd"/>
<path d="M459.53 132.67v-20.00" stroke="currentColor" fill="none"/>
<path fill="currentColor"
	d="M490.03 102.27l40.20 4.30v3.20l-40.20 -4.30"/>
<use x="486.83" y="126.67" xlink:href="#hd"/>
<path d="M490.33 126.67v-23.30" stroke="currentColor" fill="none"/>
<use x="506.53" y="123.67" xlink:href="#hd"/>
<path d="M510.03 123.67v-18.20" stroke="currentColor" fill="none"/>
<use x="526.33" y="135.67" xlink:href="#hd"/>
<path d="M529.83 135.67v-28.10" stroke="currentColor" fill="none"/>
<use x="556.43" y="135.67" xlink:href="#hd"/>
<path d="M559.93 135.67v-20.00" stroke="currentColor" fill="none"/>
<use x="587.23" y="138.67" xlink:href="#hd"/>
<path d="M590.73 138.67v-20.00" stroke="currentColor" fill="none"/>
<path fill="currentColor"
	d="M621.13 116.47l60.00 4.50v3.20l-60.00 -4.50"/>
<use x="618.03" y="135.67" xlink:href="#hd"/>
<path d="M621.53 135.67v-18.20" stroke="currentColor" fill="none"/>
<use x="637.73" y="138.67" xlink:href="#hd"/>
<path d="M641.23 138.67v-19.70" stroke="currentColor" fill="none"/>
<defs>
<path id="hl" stroke="currentColor" d="m-6 0h12"/>
</defs>
<use x="657.53" y="141.67" xlink:href="#hl"/>
<use x="657.53" y="144.67" xlink:href="#hd"/>
<path d="M661.03 144.67v-24.20" stroke="currentColor" fill="none"/>
<use x="677.33" y="141.67" xlink:href="#hl"/>
<use x="677.33" y="147.67" xlink:href="#hl"/>
<use x="677.33" y="147.67" xlink:href="#hd"/>
<path d="M680.83 147.67v-25.80" stroke="currentColor" fill="none"/>
<defs>
<path id="grm" fill="currentColor" d="
	m-5 -2.5
	c5 -8.5 5.5 4.5 10 -2
	c-5 8.5 -5.5 -4.5 -10 2"/>
</defs>
<use x="556.43" y="109.67" xlink:href="#grm"/>
<use x="587.23" y="109.67" xlink:href="#grm"/>
<path stroke="currentColor" fill="none"
	d="M181.83 210.67v-24.00"/>
<path stroke="currentColor" fill="none"
	d="M312.33 210.67v-24.00"/>
<path stroke="currentColor" fill="none"
	d="M442.83 210.67v-24.00"/>
<path stroke="currentColor" fill="none" stroke-width="3"
	d="M573.03 210.67v-24.00"/>
<path stroke="currentColor" fill="none"
	d="M568.53 210.67v-24.00"/>
<defs>
<g id="rdots" fill="currentColor">
	<circle cx="0" cy="-9" r="1.2"/>
	<circle cx="0" cy="-15" r="1.2"/>
</g>
</defs>
<use x="564.53" y="210.67" xlink:href="#rdots"/>
<path stroke="currentColor" fill="none"
	d="M694.93 210.67v-24.00"/>
<path stroke="currentColor" fill="none"
	d="M691.93 210.67v-24.00"/>
<path stroke="currentColor" fill="none"
	d="M13.33 210.67h681.60m-681.60 -6h681.60m-681.60 -6h681.60m-681.60 -6h681.60m-681.60 -6h681.60"/>
</g>
<g transform="scale(0.750)" stroke-width="0.70" font-family="Times" font-size="13.00">
<text x="446.83" y="172.07">1</text>
<path stroke="currentColor" fill="none"
	d="M442.83 160.67v20M442.83 160.67h123.70v20"/>
<text x="578.53" y="172.07">2</text>
<path stroke="currentColor" fill="none"
	d="M574.53 160.67v20M574.53 160.67h120.40v20"/>
<use x="25.33" y="210.67" xlink:href="#tclef"/>
<use x="40.33" y="186.67" xlink:href="#sh0"/>
<use x="45.83" y="195.67" xlink:href="#sh0"/>
<path fill="currentColor"
	d="M67.03 186.47l105.20 0.00v3.20l-105.20 -0.00"/>
<use x="63.83" y="216.67" xlink:href="#hl"/>
<use x="63.83" y="219.67" xlink:href="#hd"/>
<path d="M67.33 219.67v-32.20" stroke="currentColor" fill="none"/>
<use x="78.73" y="210.67" xlink:href="#hd"/>
<path d="M82.23 210.67v-23.20" stroke="currentColor" fill="none"/>
<use x="93.63" y="210.67" xlink:href="#hd"/>
<path d="M97.13 210.67v-23.20" stroke="currentColor" fill="none"/>
<use x="108.63" y="207.67" xlink:href="#hd"/>
<path d="M112.13 207.67v-20.20" stroke="currentColor" fill="none"/>
<use x="123.53" y="204.67" xlink:href="#hd"/>
<path d="M127.03 204.67v-17.20" stroke="currentColor" fill="none"/>
<use x="138.43" y="207.67" xlink:href="#hd"/>
<path d="M141.93 207.67v-20.20" stroke="currentColor" fill="none"/>
<use x="153.33" y="210.67" xlink:href="#hd"/>
<path d="M156.83 210.67v-23.20" stroke="currentColor" fill="none"/>
<use x="168.33" y="213.67" xlink:href="#hd"/>
<path d="M171.83 213.67v-26.20" stroke="currentColor" fill="none"/>
<path fill="currentColor"
	d="M197.53 179.47l105.20 0.00v3.20l-105.20 -0.00"/>
<use x="194.33" y="207.67" xlink:href="#hd"/>
<path d="M197.83 207.67v-27.20" stroke="currentColor" fill="none"/>
<use x="209.23" y="210.67" xlink:href="#hd"/>
<path d="M212.73 210.67v-30.20" stroke="currentColor" fill="none"/>
<use x="224.13" y="213.67" xlink:href="#hd"/>
<path d="M227.63 213.67v-33.20" stroke="currentColor" fill="none"/>
<use x="239.13" y="198.67" xlink:href="#hd"/>
<path d="M242.63 198.67v-18.20" stroke="currentColor" fill="none"/>
<use x="254.03" y="201.67" xlink:href="#hd"/>
<path d="M257.53 201.67v-21.20" stroke="currentColor" fill="none"/>
<use x="268.93" y="198.67" xlink:href="#hd"/>
<path d="M272.43 198.67v-18.20" stroke="currentColor" fill="none"/>
<use x="283.83" y="207.67" xlink:href="#hd"/>
<path d="M287.33 207.67v-27.20" stroke="currentColor" fill="none"/>
<use x="298.83" y="201.67" xlink:href="#hd"/>
<path d="M302.33 201.67v-21.20" stroke="currentColor" fill="none"/>
<path fill="currentColor"
	d="M328.03 179.47l105.20 0.00v3.20l-105.20 -0.00"/>
<use x="324.83" y="198.67" xlink:href="#hd"/>
<path d="M328.33 198.67v-18.20" stroke="currentColor" fill="none"/>
<use x="339.73" y="207.67" xlink:href="#hd"/>
<path d="M343.23 207.67v-27.20" stroke="currentColor" fill="none"/>
<use x="354.63" y="204.67" xlink:href="#hd"/>
<path d="M358.13 204.67v-24.20" stroke="currentColor" fill="none"/>
<use x="369.63" y="210.67" xlink:href="#hd"/>
<path d="M373.13 210.67v-30.20" stroke="currentColor" fill="none"/>
<use x="384.53" y="201.67" xlink:href="#hd"/>
<path d="M388.03 201.67v-21.20" stroke="currentColor" fill="none"/>
<use x="399.43" y="204.67" xlink:href="#hd"/>
<path d="M402.93 204.67v-24.20" stroke="currentColor" fill="none"/>
<use x="414.33" y="207.67" xlink:href="#hd"/>
<path d="M417.83 207.67v-27.20" stroke="currentColor" fill="none"/>
<use x="429.33" y="210.67" xlink:href="#hd"/>
<path d="M432.83 210.67v-30.20" stroke="currentColor" fill="none"/>
<path fill="currentColor"
	d="M458.43 189.67l45.50 0.00v3.20l-45.50 -0.00"/>
<use x="455.33" y="213.67" xlink:href="#hd"/>
<path d="M458.83 213.67v-23.00" stroke="currentColor" fill="none"/>
<use x="470.23" y="210.67" xlink:href="#hd"/>
<path d="M473.73 210.67v-20.00" stroke="currentColor" fill="none"/>
<use x="485.13" y="207.67" xlink:href="#hd"/>
<path d="M488.63 207.67v-17.00" stroke="currentColor" fill="none"/>
<use x="500.13" y="213.67" xlink:href="#hd"/>
<path d="M503.63 213.67v-23.00" stroke="currentColor" fill="none"/>
<use x="516.53" y="210.67" xlink:href="#hd"/>
<path d="M520.03 210.67v-20.00" stroke="currentColor" fill="none"/>
<path fill="currentColor"
	d="M542.23 187.27l15.60 -2.20v3.20l-15.60 2.20"/>
<use x="539.03" y="207.67" xlink:href="#hd"/>
<path d="M542.53 207.67v-19.40" stroke="currentColor" fill="none"/>
<use x="554.03" y="204.67" xlink:href="#hd"/>
<path d="M557.53 204.67v-18.60" stroke="currentColor" fill="none"/>
<path fill="currentColor"
	d="M590.13 179.47l45.50 0.00v3.20l-45.50 -0.00"/>
<use x="587.03" y="204.67" xlink:href="#hd"/>
<path d="M590.53 204.67v-24.20" stroke="currentColor" fill="none"/>
<use x="601.93" y="198.67" xlink:href="#hd"/>
<path d="M605.43 198.67v-18.20" stroke="currentColor" fill="none"/>
<use x="616.83" y="201.67" xlink:href="#hd"/>
<path d="M620.33 201.67v-21.20" stroke="currentColor" fill="none"/>
<use x="631.73" y="207.67" xlink:href="#hd"/>
<path d="M635.23 207.67v-27.20" stroke="currentColor" fill="none"/>
<use x="648.13" y="204.67" xlink:href="#hd"/>
<circle fill="currentColor" cx="656.13" cy="201.67" r="1.2"/>
<path d="M651.63 204.67v-20.00" stroke="currentColor" fill="none"/>
<use x="674.93" y="210.67" xlink:href="#hd"/>
<path d="M678.43 210.67v-20.00" stroke="currentColor" fill="none"/>
<path fill="currentColor"
	d="	M678.43 190.67c0.6 5.6 9.6 9 5.6 18.4
	c1.6 -6 -1.3 -11.6 -5.6 -12.8
"/>
<use x="70.33" y="280.67" xlink:href="#rdots"/>
<path stroke="currentColor" fill="none"
	d="M66.33 280.67v-24.00"/>
<path stroke="currentColor" fill="none" stroke-width="3"
	d="M61.83 280.67v-24.00"/>
<path stroke="currentColor" fill="none"
	d="M236.63 280.67v-24.00"/>
<path stroke="currentColor" fill="none"
	d="M391.73 280.67v-24.00"/>
<path stroke="currentColor" fill="none"
	d="M550.53 280.67v-24.00"/>
<path stroke="currentColor" fill="none"
	d="M694.93 280.67v-24.00"/>
<path stroke="currentColor" fill="none"
	d="M13.33 280.67h681.60m-681.60 -6h681.60m-681.60 -6h681.60m-681.60 -6h681.60m-681.60 -6h681.60"/>
<use x="25.33" y="280.67" xlink:href="#tclef"/>
<use x="40.33" y="256.67" xlink:href="#sh0"/>
<use x="45.83" y="265.67" xlink:href="#sh0"/>
<path fill="currentColor"
	d="M80.03 293.87l136.20 0.00v-3.20l-136.20 -0.00"/>
<use x="83.83" y="274.67" xlink:href="#hd"/>
<path d="M80.33 274.67v18.20" stroke="currentColor" fill="none"/>
<use x="103.23" y="268.67" xlink:href="#hd"/>
<path d="M99.73 268.67v24.20" stroke="currentColor" fill="none"/>
<use x="122.53" y="262.67" xlink:href="#hd"/>
<path d="M119.03 262.67v30.20" stroke="currentColor" fill="none"/>
<use x="141.93" y="253.67" xlink:href="#hd"/>
<path d="M138.43 253.67v39.20" stroke="currentColor" fill="none"/>
<use x="161.33" y="259.67" xlink:href="#hd"/>
<path d="M157.83 259.67v33.20" stroke="currentColor" fill="none"/>
<use x="180.63" y="262.67" xlink:href="#hd"/>
<path d="M177.13 262.67v30.20" stroke="currentColor" fill="none"/>
<use x="200.03" y="268.67" xlink:href="#hd"/>
<path d="M196.53 268.67v24.20" stroke="currentColor" fill="none"/>
<use x="219.33" y="271.67" xlink:href="#hd"/>
<path d="M215.83 271.67v21.20" stroke="currentColor" fill="none"/>
<path fill="currentColor"
	d="M252.33 249.47l97.50 7.10v3.20l-97.50 -7.10"/>
<use x="249.13" y="268.67" xlink:href="#hd"/>
<path d="M252.63 268.67v-18.20" stroke="currentColor" fill="none"/>
<use x="268.53" y="274.67" xlink:href="#hd"/>
<path d="M272.03 274.67v-22.80" stroke="currentColor" fill="none"/>
<use x="287.93" y="271.67" xlink:href="#hd"/>
<path d="M291.43 271.67v-18.40" stroke="currentColor" fill="none"/>
<use x="307.23" y="274.67" xlink:href="#hd"/>
<path d="M310.73 274.67v-20.00" stroke="currentColor" fill="none"/>
<use x="326.63" y="280.67" xlink:href="#hd"/>
<path d="M330.13 280.67v-24.60" stroke="currentColor" fill="none"/>
<use x="346.03" y="283.67" xlink:href="#hd"/>
<path d="M349.53 283.67v-26.20" stroke="currentColor" fill="none"/>
<use x="367.43" y="283.67" xlink:href="#hd"/>
<path d="M370.93 283.67v-20.00" stroke="currentColor" fill="none"/>
<path fill="currentColor"
	d="M407.33 252.37l20.00 5.50v3.20l-20.00 -5.50"/>
<use x="404.23" y="271.67" xlink:href="#hd"/>
<path d="M407.73 271.67v-18.20" stroke="currentColor" fill="none"/>
<use x="423.53" y="283.67" xlink:href="#hd"/>
<path d="M427.03 283.67v-24.80" stroke="currentColor" fill="none"/>
<use x="445.03" y="283.67" xlink:href="#hd"/>
<path d="M448.53 283.67v-20.00" stroke="currentColor" fill="none"/>
<path fill="currentColor"
	d="M478.33 243.47l58.80 0.00v3.20l-58.80 -0.00"/>
<use x="475.13" y="262.67" xlink:href="#hd"/>
<path d="M478.63 262.67v-18.20" stroke="currentColor" fill="none"/>
<use x="494.53" y="283.67" xlink:href="#hd"/>
<path d="M498.03 283.67v-39.20" stroke="currentColor" fill="none"/>
<use x="513.83" y="277.67" xlink:href="#hd"/>
<path d="M517.33 277.67v-33.20" stroke="currentColor" fill="none"/>
<use x="533.23" y="271.67" xlink:href="#hd"/>
<path d="M536.73 271.67v-27.20" stroke="currentColor" fill="none"/>
<path fill="currentColor"
	d="M566.13 243.47l58.80 0.00v3.20l-58.80 -0.00"/>
<use x="563.03" y="274.67" xlink:href="#hd"/>
<path d="M566.53 274.67v-30.20" stroke="currentColor" fill="none"/>
<use x="582.43" y="280.67" xlink:href="#hd"/>
<path d="M585.93 280.67v-36.20" stroke="currentColor" fill="none"/>
<use x="601.73" y="262.67" xlink:href="#hd"/>
<path d="M605.23 262.67v-18.20" stroke="currentColor" fill="none"/>
<use x="621.13" y="280.67" xlink:href="#hd"/>
<path d="M624.63 280.67v-36.20" stroke="currentColor" fill="none"/>
<use x="642.53" y="274.67" xlink:href="#hd"/>
<circle fill="currentColor" cx="650.53" cy="271.67" r="1.2"/>
<path d="M646.03 274.67v-20.00" stroke="currentColor" fill="none"/>
<use x="677.23" y="271.67" xlink:href="#hd"/>
<path d="M680.73 271.67v-20.00" stroke="currentColor" fill="none"/>
<path fill="currentColor"
	d="	M680.73 251.67c0.6 5.6 9.6 9 5.6 18.4
	c1.6 -6 -1.3 -11.6 -5.6 -12.8
"/>
<use x="367.43" y="254.67" xlink:href="#grm"/>
<use x="445.03" y="254.67" xlink:href="#grm"/>
<use x="642.53" y="250.67" xlink:href="#grm"/>
<path stroke="currentColor" fill="none"
	d="M198.93 350.67v-24.00"/>
<path stroke="currentColor" fill="none"
	d="M368.53 350.67v-24.00"/>
<path stroke="currentColor" fill="none"
	d="M531.53 350.67v-24.00"/>
<path stroke="currentColor" fill="none"
	d="M694.93 350.67v-24.00"/>
<path stroke="currentColor" fill="none"
	d="M691.93 350.67v-24.00"/>
<use x="687.93" y="350.67" xlink:href="#rdots"/>
<path stroke="currentColor" fill="none"
	d="M13.33 350.67h681.60m-681.60 -6h681.60m-681.60 -6h681.60m-681.60 -6h681.60m-681.60 -6h681.60"/>
<use x="25.33" y="350.67" xlink:href="#tclef"/>
<use x="40.33" y="326.67" xlink:href="#sh0"/>
<use x="45.83" y="335.67" xlink:href="#sh0"/>
<path fill="currentColor"
	d="M60.03 357.87l60.40 0.00v-3.20l-60.40 -0.00"/>
<use x="63.83" y="338.67" xlink:href="#hd"/>
<path d="M60.33 338.67v18.20" stroke="currentColor" fill="none"/>
<use x="83.73" y="332.67" xlink:href="#hd"/>
<path d="M80.23 332.67v24.20" stroke="currentColor" fill="none"/>
<use x="103.63" y="329.67" xlink:href="#hd"/>
<path d="M100.13 329.67v27.20" stroke="currentColor" fill="none"/>
<use x="123.53" y="332.67" xlink:href="#hd"/>
<path d="M120.03 332.67v24.20" stroke="currentColor" fill="none"/>
<use x="145.63" y="323.67" xlink:href="#hd"/>
<circle fill="currentColor" cx="153.63" cy="323.67" r="1.2"/>
<path d="M142.13 323.67v20.00" stroke="currentColor" fill="none"/>
<use x="181.23" y="320.67" xlink:href="#hl"/>
<use x="181.23" y="320.67" xlink:href="#hd"/>
<path d="M177.73 320.67v20.00" stroke="currentColor" fill="none"/>
<path fill="currentColor"
	d="M177.73 340.67c0.6 -5.6 9.6 -9 5.6 -18.4
	c1.6 6 -1.3 11.6 -5.6 12.8
"/>
<path fill="currentColor"
	d="M207.63 350.87l140.00 0.00v-3.20l-140.00 -0.00"/>
<use x="211.43" y="320.67" xlink:href="#hl"/>
<use x="211.43" y="317.67" xlink:href="#hd"/>
<path d="M207.93 317.67v32.20" stroke="currentColor" fill="none"/>
<use x="231.33" y="323.67" xlink:href="#hd"/>
<path d="M227.83 323.67v26.20" stroke="currentColor" fill="none"/>
<use x="251.23" y="320.67" xlink:href="#hl"/>
<use x="251.23" y="320.67" xlink:href="#hd"/>
<path d="M247.73 320.67v29.20" stroke="currentColor" fill="none"/>
<use x="271.13" y="326.67" xlink:href="#hd"/>
<path d="M267.63 326.67v23.20" stroke="currentColor" fill="none"/>
<use x="291.03" y="323.67" xlink:href="#hd"/>
<path d="M287.53 323.67v26.20" stroke="currentColor" fill="none"/>
<use x="310.93" y="326.67" xlink:href="#hd"/>
<path d="M307.43 326.67v23.20" stroke="currentColor" fill="none"/>
<use x="330.83" y="329.67" xlink:href="#hd"/>
<path d="M327.33 329.67v20.20" stroke="currentColor" fill="none"/>
<use x="350.83" y="332.67" xlink:href="#hd"/>
<path d="M347.33 332.67v17.20" stroke="currentColor" fill="none"/>
<path fill="currentColor"
	d="M384.23 319.37l20.60 3.90v3.20l-20.60 -3.90"/>
<use x="381.03" y="338.67" xlink:href="#hd"/>
<path d="M384.53 338.67v-18.20" stroke="currentColor" fill="none"/>
<use x="400.93" y="344.67" xlink:href="#hd"/>
<path d="M404.43 344.67v-20.50" stroke="currentColor" fill="none"/>
<use x="423.03" y="344.67" xlink:href="#hd"/>
<path d="M426.53 344.67v-20.00" stroke="currentColor" fill="none"/>
<path fill="currentColor"
	d="M457.23 319.47l60.40 0.00v3.20l-60.40 -0.00"/>
<use x="454.03" y="338.67" xlink:href="#hd"/>
<path d="M457.53 338.67v-18.20" stroke="currentColor" fill="none"/>
<use x="473.93" y="341.67" xlink:href="#hd"/>
<path d="M477.43 341.67v-21.20" stroke="currentColor" fill="none"/>
<use x="493.83" y="344.67" xlink:href="#hd"/>
<path d="M497.33 344.67v-24.20" stroke="currentColor" fill="none"/>
<use x="513.73" y="341.67" xlink:href="#hd"/>
<path d="M517.23 341.67v-21.20" stroke="currentColor" fill="none"/>
<path fill="currentColor"
	d="M547.13 319.47l60.40 5.00v3.20l-60.40 -5.00"/>
<use x="544.03" y="338.67" xlink:href="#hd"/>
<path d="M547.53 338.67v-18.20" stroke="currentColor" fill="none"/>
<use x="563.93" y="344.67" xlink:href="#hd"/>
<path d="M567.43 344.67v-22.50" stroke="currentColor" fill="none"/>
<use x="583.83" y="350.67" xlink:href="#hd"/>
<path d="M587.33 350.67v-26.90" stroke="currentColor" fill="none"/>
<use x="603.73" y="347.67" xlink:href="#hd"/>
<path d="M607.23 347.67v-22.20" stroke="currentColor" fill="none"/>
<use x="625.83" y="344.67" xlink:href="#hd"/>
<path d="M629.33 344.67v-20.00" stroke="currentColor" fill="none"/>
<path fill="currentColor"
	d="M653.13 354.07l20.60 3.90v-3.20l-20.60 -3.90"/>
<use x="656.93" y="332.67" xlink:href="#hd"/>
<path d="M653.43 332.67v20.50" stroke="currentColor" fill="none"/>
<use x="676.83" y="338.67" xlink:href="#hd"/>
<path d="M673.33 338.67v18.20" stroke="currentColor" fill="none"/>
<use x="145.63" y="317.67" xlink:href="#grm"/>
<use x="423.03" y="320.67" xlink:href="#grm"/>
</g>
</svg>
