<?xml version="1.0" standalone="no"?>
<!DOCTYPE svg PUBLIC "-//W3C//DTD SVG 1.1//EN"
	"http://www.w3.org/Graphics/SVG/1.1/DTD/svg11.dtd">
<svg xmlns="http://www.w3.org/2000/svg" version="1.1"
	xmlns:xlink="http://www.w3.org/1999/xlink"
	xml:space='preserve' color="black"
	width="7.38in" height="1.47in" viewBox="0 0 531 106">
<title>data/results/biggest_11/abc/334.abc (334) tune 1</title>
<!-- Creator: abcm2ps-7.8.14 -->
<!-- CreationDate: Aug  9, 2015 23:50 -->
<!-- CommandLine: -g data/results/biggest_11/abc/334.abc -O /home/allanino/Dropbox/Trabalhos/folkme/svg/334.svg -->
<g transform="scale(0.750)" stroke-width="0.70" font-family="Times" font-size="20.00">
<text x="354.13" y="21.67" text-anchor="middle">Walzer D chords</text>
</g>
<g transform="scale(0.750)" stroke-width="0.70" font-family="Times" font-size="16.00">
<text x="354.13" y="41.30" text-anchor="middle">Hanny Christen. Bd.3 Appenzell. S.105 (ZL 03209) orig. G,D-Dur</text>
<defs>
<g id="rdots" fill="currentColor">
	<circle cx="0" cy="-9" r="1.2"/>
	<circle cx="0" cy="-15" r="1.2"/>
</g>
</defs>
<use x="119.33" y="117.84" xlink:href="#rdots"/>
<path stroke="currentColor" fill="none"
	d="M115.33 117.84v-24.00"/>
<path stroke="currentColor" fill="none" stroke-width="3"
	d="M110.83 117.84v-24.00"/>
<path stroke="currentColor" fill="none"
	d="M195.63 117.84v-24.00"/>
<path stroke="currentColor" fill="none"
	d="M282.63 117.84v-24.00"/>
<path stroke="currentColor" fill="none"
	d="M357.93 117.84v-24.00"/>
<path stroke="currentColor" fill="none"
	d="M444.83 117.84v-24.00"/>
<path stroke="currentColor" fill="none"
	d="M520.13 117.84v-24.00"/>
<path stroke="currentColor" fill="none"
	d="M619.33 117.84v-24.00"/>
<path stroke="currentColor" fill="none" stroke-width="3"
	d="M693.43 117.84v-24.00"/>
<path stroke="currentColor" fill="none"
	d="M688.93 117.84v-24.00"/>
<use x="684.93" y="117.84" xlink:href="#rdots"/>
<path stroke="currentColor" fill="none"
	d="M13.33 117.84h681.60m-681.60 -6h681.60m-681.60 -6h681.60m-681.60 -6h681.60m-681.60 -6h681.60"/>
</g>
<g transform="scale(0.750)" stroke-width="0.70" font-family="Helvetica" font-size="12.00">
<text x="126.73" y="81.44">C7</text>
<text x="292.23" y="81.44">F</text>
<text x="451.33" y="81.44">C7</text>
<text x="628.93" y="81.44">F</text>
<defs>
<path id="utclef" fill="currentColor" d="m-50 -90
	c-72 -41 -72 -158 52 -188
	c150 -10 220 188 90 256
	c-114 52 -275 0 -293 -136
	c-15 -181 93 -229 220 -334
	c88 -87 79 -133 62 -210
	c-51 33 -94 105 -89 186
	c17 267 36 374 49 574
	c6 96 -19 134 -77 135
	c-80 1 -126 -93 -61 -133
	c85 -41 133 101 31 105
	c23 17 92 37 90 -92
	c-10 -223 -39 -342 -50 -617
	c0 -90 0 -162 96 -232
	c56 72 63 230 22 289
	c-74 106 -257 168 -255 316
	c9 153 148 185 252 133
	c86 -65 29 -192 -80 -176
	c-71 12 -105 67 -59 124"/>
<use id="tclef" transform="scale(0.045)"
	xlink:href="#utclef"/>
</defs>
<use x="25.33" y="117.84" xlink:href="#tclef"/>
<defs>
<path id="uflat" fill="currentColor" d="
	m100 -746
	h32
	v734
	l-32 4
	m32 -332
	c46 -72 152 -90 208 -20
	c100 110 -120 326 -208 348
	m0 -28
	c54 0 200 -206 130 -290
	c-50 -60 -130 -4 -130 34"/>
<use id="ft0" transform="translate(-3.5,3.5) scale(0.018)"
	xlink:href="#uflat"/>
</defs>
<use x="40.33" y="105.84" xlink:href="#ft0"/>
<g font-family="serif" font-size="16" font-weight="bold" font-style="normal"
	transform="translate(56.33,117.84) scale(1.2,1)">
	<text y="-1" text-anchor="middle">4</text>
	<text y="-13" text-anchor="middle">2</text>
</g>
<path fill="currentColor"
	d="M70.53 124.54l26.20 -2.50v-3.20l-26.20 2.50"/>
<path fill="currentColor"
	d="M90.33 117.74l6.00 -0.60v-3.20l-6.00 0.60"/>
<defs>
<ellipse id="hd" rx="4.1" ry="2.9"
	transform="rotate(-20)" fill="currentColor"/>
</defs>
<use x="74.33" y="102.84" xlink:href="#hd"/>
<circle fill="currentColor" cx="82.33" cy="102.84" r="1.2"/>
<path d="M70.83 102.84v20.70" stroke="currentColor" fill="none"/>
<use x="99.83" y="99.84" xlink:href="#hd"/>
<path d="M96.33 99.84v21.30" stroke="currentColor" fill="none"/>
<use x="132.93" y="96.84" xlink:href="#hd"/>
<path d="M129.43 96.84v20.00" stroke="currentColor" fill="none"/>
<use x="167.73" y="99.84" xlink:href="#hd"/>
<path d="M164.23 99.84v20.00" stroke="currentColor" fill="none"/>
<use x="208.23" y="105.84" xlink:href="#hd"/>
<path d="M211.73 105.84v-20.00" stroke="currentColor" fill="none"/>
<path fill="currentColor"
	d="M246.13 85.24l26.20 -7.70v3.20l-26.20 7.70"/>
<path fill="currentColor"
	d="M266.03 84.44l6.00 -1.80v3.20l-6.00 1.80"/>
<use x="243.03" y="117.84" xlink:href="#hd"/>
<circle fill="currentColor" cx="251.03" cy="114.84" r="1.2"/>
<path d="M246.53 117.84v-31.70" stroke="currentColor" fill="none"/>
<use x="268.53" y="99.84" xlink:href="#hd"/>
<path d="M272.03 99.84v-21.20" stroke="currentColor" fill="none"/>
<use x="295.13" y="99.84" xlink:href="#hd"/>
<path d="M291.63 99.84v20.00" stroke="currentColor" fill="none"/>
<use x="329.93" y="102.84" xlink:href="#hd"/>
<path d="M326.43 102.84v20.00" stroke="currentColor" fill="none"/>
<use x="370.43" y="102.84" xlink:href="#hd"/>
<path d="M366.93 102.84v20.00" stroke="currentColor" fill="none"/>
<path fill="currentColor"
	d="M401.43 128.14l26.20 -7.10v-3.20l-26.20 7.10"/>
<path fill="currentColor"
	d="M421.23 117.74l6.00 -1.60v-3.20l-6.00 1.60"/>
<use x="405.23" y="108.84" xlink:href="#hd"/>
<circle fill="currentColor" cx="413.23" cy="108.84" r="1.2"/>
<path d="M401.73 108.84v18.20" stroke="currentColor" fill="none"/>
<use x="430.73" y="93.84" xlink:href="#hd"/>
<path d="M427.23 93.84v26.30" stroke="currentColor" fill="none"/>
<use x="457.43" y="96.84" xlink:href="#hd"/>
<path d="M453.93 96.84v20.00" stroke="currentColor" fill="none"/>
<use x="492.23" y="105.84" xlink:href="#hd"/>
<path d="M488.73 105.84v20.00" stroke="currentColor" fill="none"/>
<path fill="currentColor"
	d="M528.93 122.44l67.40 3.90v-3.20l-67.40 -3.90"/>
<use x="532.73" y="96.84" xlink:href="#hd"/>
<path d="M529.23 96.84v24.70" stroke="currentColor" fill="none"/>
<use x="555.03" y="99.84" xlink:href="#hd"/>
<path d="M551.53 99.84v22.90" stroke="currentColor" fill="none"/>
<use x="577.23" y="105.84" xlink:href="#hd"/>
<path d="M573.73 105.84v18.20" stroke="currentColor" fill="none"/>
<use x="599.53" y="102.84" xlink:href="#hd"/>
<path d="M596.03 102.84v22.50" stroke="currentColor" fill="none"/>
<use x="631.93" y="93.84" xlink:href="#hd"/>
<path d="M628.43 93.84v20.00" stroke="currentColor" fill="none"/>
<defs>
<path id="r4" fill="currentColor" d="m-1 -8.5
	l3.6 5.1 -2.1 5.2 2.2 4.3
	c-2.6 -2.3 -5.1 0 -2.4 2.6
	c-4.8 -3 -1.5 -6.9 1.4 -4.1
	l-3.1 -4.5 1.9 -5.1 -1.5 -3.5"/>
</defs>
<use x="666.73" y="105.84" xlink:href="#r4"/>
</g>
</svg>
