<?xml version="1.0" standalone="no"?>
<!DOCTYPE svg PUBLIC "-//W3C//DTD SVG 1.1//EN"
	"http://www.w3.org/Graphics/SVG/1.1/DTD/svg11.dtd">
<svg xmlns="http://www.w3.org/2000/svg" version="1.1"
	xmlns:xlink="http://www.w3.org/1999/xlink"
	xml:space='preserve' color="black"
	width="7.38in" height="1.77in" viewBox="0 0 531 127">
<title>data/results/biggest_11/abc/335.abc (335) tune 1</title>
<!-- Creator: abcm2ps-7.8.14 -->
<!-- CreationDate: Aug  9, 2015 23:50 -->
<!-- CommandLine: -g data/results/biggest_11/abc/335.abc -O /home/allanino/Dropbox/Trabalhos/folkme/svg/335.svg -->
<g transform="scale(0.750)" stroke-width="0.70" font-family="Times" font-size="20.00">
<text x="354.13" y="21.67" text-anchor="middle">Ländler F chords</text>
</g>
<g transform="scale(0.750)" stroke-width="0.70" font-family="Times" font-size="16.00">
<text x="354.13" y="41.30" text-anchor="middle">Hanny Christen. Bd.VIII Zug, Luzern, Uri I. S.223 (mz09504) orig. F-Dur</text>
<text x="354.13" y="60.13" text-anchor="middle">Cumbr Daleill {ånnskan Clesem Of Ofe tänzen (Bern) S.257ff</text>
<defs>
<g id="rdots" fill="currentColor">
	<circle cx="0" cy="-9" r="1.2"/>
	<circle cx="0" cy="-15" r="1.2"/>
</g>
</defs>
<use x="103.53" y="146.67" xlink:href="#rdots"/>
<path stroke="currentColor" fill="none"
	d="M99.53 146.67v-24.00"/>
<path stroke="currentColor" fill="none" stroke-width="3"
	d="M95.03 146.67v-24.00"/>
<path stroke="currentColor" fill="none"
	d="M152.53 146.67v-24.00"/>
<path stroke="currentColor" fill="none"
	d="M215.33 146.67v-24.00"/>
<path stroke="currentColor" fill="none"
	d="M286.23 146.67v-24.00"/>
<path stroke="currentColor" fill="none"
	d="M341.43 146.67v-24.00"/>
<path stroke="currentColor" fill="none"
	d="M404.53 146.67v-24.00"/>
<path stroke="currentColor" fill="none"
	d="M470.53 146.67v-24.00"/>
<path stroke="currentColor" fill="none"
	d="M535.43 146.67v-24.00"/>
<path stroke="currentColor" fill="none" stroke-width="3"
	d="M596.53 146.67v-24.00"/>
<path stroke="currentColor" fill="none"
	d="M592.03 146.67v-24.00"/>
<use x="588.03" y="146.67" xlink:href="#rdots"/>
<path stroke="currentColor" fill="none"
	d="M643.73 146.67v-24.00"/>
<path stroke="currentColor" fill="none" stroke-width="3"
	d="M693.43 146.67v-24.00"/>
<path stroke="currentColor" fill="none"
	d="M688.93 146.67v-24.00"/>
<path stroke="currentColor" fill="none"
	d="M13.33 146.67h681.60m-681.60 -6h681.60m-681.60 -6h681.60m-681.60 -6h681.60m-681.60 -6h681.60"/>
</g>
<g transform="scale(0.750)" stroke-width="0.70" font-family="Helvetica" font-size="12.00">
<text x="114.13" y="102.27">F</text>
<text x="221.63" y="102.27">C7</text>
<text x="420.63" y="102.27">F</text>
<text x="539.93" y="102.27">Dm</text>
<text x="612.53" y="102.27">C7</text>
<text x="653.33" y="102.27">F</text>
</g>
<g transform="scale(0.750)" stroke-width="0.70" font-family="Times" font-size="13.00">
<text x="408.53" y="102.07">1</text>
<path stroke="currentColor" fill="none"
	d="M404.53 90.67v20M404.53 90.67h185.50v20"/>
<text x="602.03" y="102.07">2</text>
<path stroke="currentColor" fill="none"
	d="M598.03 90.67v20M598.03 90.67h96.90v20"/>
<defs>
<path id="utclef" fill="currentColor" d="m-50 -90
	c-72 -41 -72 -158 52 -188
	c150 -10 220 188 90 256
	c-114 52 -275 0 -293 -136
	c-15 -181 93 -229 220 -334
	c88 -87 79 -133 62 -210
	c-51 33 -94 105 -89 186
	c17 267 36 374 49 574
	c6 96 -19 134 -77 135
	c-80 1 -126 -93 -61 -133
	c85 -41 133 101 31 105
	c23 17 92 37 90 -92
	c-10 -223 -39 -342 -50 -617
	c0 -90 0 -162 96 -232
	c56 72 63 230 22 289
	c-74 106 -257 168 -255 316
	c9 153 148 185 252 133
	c86 -65 29 -192 -80 -176
	c-71 12 -105 67 -59 124"/>
<use id="tclef" transform="scale(0.045)"
	xlink:href="#utclef"/>
</defs>
<use x="25.33" y="146.67" xlink:href="#tclef"/>
<defs>
<path id="uflat" fill="currentColor" d="
	m100 -746
	h32
	v734
	l-32 4
	m32 -332
	c46 -72 152 -90 208 -20
	c100 110 -120 326 -208 348
	m0 -28
	c54 0 200 -206 130 -290
	c-50 -60 -130 -4 -130 34"/>
<use id="ft0" transform="translate(-3.5,3.5) scale(0.018)"
	xlink:href="#uflat"/>
</defs>
<use x="40.33" y="134.67" xlink:href="#ft0"/>
<g font-family="serif" font-size="16" font-weight="bold" font-style="normal"
	transform="translate(56.33,146.67) scale(1.2,1)">
	<text y="-1" text-anchor="middle">4</text>
	<text y="-13" text-anchor="middle">3</text>
</g>
<path fill="currentColor"
	d="M77.53 117.17l10.40 -2.00v3.20l-10.40 2.00"/>
<defs>
<ellipse id="hd" rx="4.1" ry="2.9"
	transform="rotate(-20)" fill="currentColor"/>
</defs>
<use x="74.33" y="137.67" xlink:href="#hd"/>
<path d="M77.83 137.67v-19.60" stroke="currentColor" fill="none"/>
<use x="84.03" y="134.67" xlink:href="#hd"/>
<path d="M87.53 134.67v-18.40" stroke="currentColor" fill="none"/>
<use x="117.03" y="131.67" xlink:href="#hd"/>
<path d="M113.53 131.67v20.00" stroke="currentColor" fill="none"/>
<use x="128.13" y="137.67" xlink:href="#hd"/>
<path d="M131.63 137.67v-20.00" stroke="currentColor" fill="none"/>
<use x="141.53" y="131.67" xlink:href="#hd"/>
<path d="M138.03 131.67v20.00" stroke="currentColor" fill="none"/>
<path fill="currentColor"
	d="M161.13 156.87l29.90 0.00v-3.20l-29.90 -0.00"/>
<use x="165.03" y="122.67" xlink:href="#hd"/>
<path d="M161.53 122.67v33.20" stroke="currentColor" fill="none"/>
<use x="174.73" y="137.67" xlink:href="#hd"/>
<path d="M171.23 137.67v18.20" stroke="currentColor" fill="none"/>
<use x="184.53" y="131.67" xlink:href="#hd"/>
<path d="M181.03 131.67v24.20" stroke="currentColor" fill="none"/>
<use x="194.23" y="122.67" xlink:href="#hd"/>
<path d="M190.73 122.67v33.20" stroke="currentColor" fill="none"/>
<defs>
<path id="hl" stroke="currentColor" d="m-6 0h12"/>
</defs>
<use x="204.33" y="116.67" xlink:href="#hl"/>
<use x="204.33" y="116.67" xlink:href="#hd"/>
<path d="M200.83 116.67v20.00" stroke="currentColor" fill="none"/>
<path fill="currentColor"
	d="M223.93 143.67l49.40 0.00v-3.20l-49.40 -0.00"/>
<use x="227.83" y="116.67" xlink:href="#hl"/>
<use x="227.83" y="113.67" xlink:href="#hd"/>
<path d="M224.33 113.67v29.00" stroke="currentColor" fill="none"/>
<use x="237.53" y="125.67" xlink:href="#hd"/>
<path d="M234.03 125.67v17.00" stroke="currentColor" fill="none"/>
<use x="247.33" y="119.67" xlink:href="#hd"/>
<path d="M243.83 119.67v23.00" stroke="currentColor" fill="none"/>
<use x="257.03" y="116.67" xlink:href="#hl"/>
<use x="257.03" y="113.67" xlink:href="#hd"/>
<path d="M253.53 113.67v29.00" stroke="currentColor" fill="none"/>
<use x="266.83" y="125.67" xlink:href="#hd"/>
<path d="M263.33 125.67v17.00" stroke="currentColor" fill="none"/>
<use x="276.53" y="116.67" xlink:href="#hl"/>
<use x="276.53" y="113.67" xlink:href="#hd"/>
<path d="M273.03 113.67v29.00" stroke="currentColor" fill="none"/>
<use x="298.73" y="119.67" xlink:href="#hd"/>
<path d="M295.23 119.67v20.00" stroke="currentColor" fill="none"/>
<defs>
<path id="r4" fill="currentColor" d="m-1 -8.5
	l3.6 5.1 -2.1 5.2 2.2 4.3
	c-2.6 -2.3 -5.1 0 -2.4 2.6
	c-4.8 -3 -1.5 -6.9 1.4 -4.1
	l-3.1 -4.5 1.9 -5.1 -1.5 -3.5"/>
</defs>
<use x="310.33" y="134.67" xlink:href="#r4"/>
<path fill="currentColor"
	d="M318.13 150.97l10.40 -3.70v-3.20l-10.40 3.70"/>
<use x="322.03" y="131.67" xlink:href="#hd"/>
<path d="M318.53 131.67v18.20" stroke="currentColor" fill="none"/>
<use x="331.73" y="119.67" xlink:href="#hd"/>
<path d="M328.23 119.67v26.70" stroke="currentColor" fill="none"/>
<use x="353.93" y="125.67" xlink:href="#hd"/>
<path d="M350.43 125.67v20.00" stroke="currentColor" fill="none"/>
<path fill="currentColor"
	d="M361.73 150.97l29.90 -8.10v-3.20l-29.90 8.10"/>
<use x="365.53" y="131.67" xlink:href="#hd"/>
<path d="M362.03 131.67v18.20" stroke="currentColor" fill="none"/>
<use x="375.33" y="125.67" xlink:href="#hd"/>
<path d="M371.83 125.67v21.60" stroke="currentColor" fill="none"/>
<use x="385.03" y="119.67" xlink:href="#hd"/>
<path d="M381.53 119.67v24.90" stroke="currentColor" fill="none"/>
<use x="394.83" y="116.67" xlink:href="#hl"/>
<use x="394.83" y="113.67" xlink:href="#hd"/>
<path d="M391.33 113.67v28.30" stroke="currentColor" fill="none"/>
<use x="423.53" y="116.67" xlink:href="#hl"/>
<use x="423.53" y="116.67" xlink:href="#hd"/>
<circle fill="currentColor" cx="431.53" cy="113.67" r="1.2"/>
<path d="M420.03 116.67v20.00" stroke="currentColor" fill="none"/>
<path fill="currentColor"
	d="M437.43 149.67l20.20 4.30v-3.20l-20.20 -4.30"/>
<use x="441.23" y="122.67" xlink:href="#hd"/>
<path d="M437.73 122.67v26.10" stroke="currentColor" fill="none"/>
<use x="451.03" y="131.67" xlink:href="#hd"/>
<path d="M447.53 131.67v19.10" stroke="currentColor" fill="none"/>
<use x="460.73" y="134.67" xlink:href="#hd"/>
<path d="M457.23 134.67v18.20" stroke="currentColor" fill="none"/>
<use x="483.03" y="137.67" xlink:href="#hd"/>
<path d="M486.53 137.67v-20.00" stroke="currentColor" fill="none"/>
<path fill="currentColor"
	d="M492.53 159.97l29.90 -5.80v-3.20l-29.90 5.80"/>
<use x="496.43" y="140.67" xlink:href="#hd"/>
<path d="M492.93 140.67v18.20" stroke="currentColor" fill="none"/>
<use x="506.13" y="122.67" xlink:href="#hd"/>
<path d="M502.63 122.67v34.30" stroke="currentColor" fill="none"/>
<use x="515.93" y="125.67" xlink:href="#hd"/>
<path d="M512.43 125.67v29.40" stroke="currentColor" fill="none"/>
<use x="525.63" y="122.67" xlink:href="#hd"/>
<path d="M522.13 122.67v30.60" stroke="currentColor" fill="none"/>
<use x="547.93" y="137.67" xlink:href="#hd"/>
<circle fill="currentColor" cx="555.93" cy="137.67" r="1.2"/>
<path d="M551.43 137.67v-20.00" stroke="currentColor" fill="none"/>
<use x="567.43" y="122.67" xlink:href="#hd"/>
<path d="M563.93 122.67v20.00" stroke="currentColor" fill="none"/>
<path fill="currentColor"
	d="M563.93 142.67c0.6 -5.6 9.6 -9 5.6 -18.4
	c1.6 6 -1.3 11.6 -5.6 12.8
"/>
<use x="577.53" y="122.67" xlink:href="#hd"/>
<path d="M574.03 122.67v20.00" stroke="currentColor" fill="none"/>
<defs>
<path id="Hd" fill="currentColor" d="m3 -1.6
	c-1 -1.8 -7 1.4 -6 3.2
	c1 1.8 7 -1.4 6 -3.2
	m0.5 -0.3
	c2 3.8 -5 7.6 -7 3.8
	c-2 -3.8 5 -7.6 7 -3.8"/>
</defs>
<use x="618.73" y="125.67" xlink:href="#Hd"/>
<path d="M615.23 125.67v20.00" stroke="currentColor" fill="none"/>
<use x="632.73" y="119.67" xlink:href="#hd"/>
<path d="M629.23 119.67v20.00" stroke="currentColor" fill="none"/>
<use x="656.23" y="122.67" xlink:href="#hd"/>
<path d="M652.73 122.67v20.00" stroke="currentColor" fill="none"/>
<use x="667.83" y="134.67" xlink:href="#r4"/>
<use x="679.43" y="134.67" xlink:href="#r4"/>
</g>
</svg>
