<?xml version="1.0" standalone="no"?>
<!DOCTYPE svg PUBLIC "-//W3C//DTD SVG 1.1//EN"
	"http://www.w3.org/Graphics/SVG/1.1/DTD/svg11.dtd">
<svg xmlns="http://www.w3.org/2000/svg" version="1.1"
	xmlns:xlink="http://www.w3.org/1999/xlink"
	xml:space='preserve' color="black"
	width="7.38in" height="2.20in" viewBox="0 0 531 158">
<title>data/results/biggest_11/abc/338.abc (338) tune 1</title>
<!-- Creator: abcm2ps-7.8.14 -->
<!-- CreationDate: Aug  9, 2015 23:50 -->
<!-- CommandLine: -g data/results/biggest_11/abc/338.abc -O /home/allanino/Dropbox/Trabalhos/folkme/svg/338.svg -->
<g transform="scale(0.750)" stroke-width="0.70" font-family="Times" font-size="20.00">
<text x="354.13" y="21.67" text-anchor="middle">The Monferine</text>
<path stroke="currentColor" fill="none"
	d="M225.63 98.01v-24.00"/>
<path stroke="currentColor" fill="none"
	d="M373.73 98.01v-24.00"/>
<path stroke="currentColor" fill="none"
	d="M521.83 98.01v-24.00"/>
<path stroke="currentColor" fill="none"
	d="M694.93 98.01v-24.00"/>
<path stroke="currentColor" fill="none"
	d="M13.33 98.01h681.60m-681.60 -6h681.60m-681.60 -6h681.60m-681.60 -6h681.60m-681.60 -6h681.60"/>
<defs>
<path id="utclef" fill="currentColor" d="m-50 -90
	c-72 -41 -72 -158 52 -188
	c150 -10 220 188 90 256
	c-114 52 -275 0 -293 -136
	c-15 -181 93 -229 220 -334
	c88 -87 79 -133 62 -210
	c-51 33 -94 105 -89 186
	c17 267 36 374 49 574
	c6 96 -19 134 -77 135
	c-80 1 -126 -93 -61 -133
	c85 -41 133 101 31 105
	c23 17 92 37 90 -92
	c-10 -223 -39 -342 -50 -617
	c0 -90 0 -162 96 -232
	c56 72 63 230 22 289
	c-74 106 -257 168 -255 316
	c9 153 148 185 252 133
	c86 -65 29 -192 -80 -176
	c-71 12 -105 67 -59 124"/>
<use id="tclef" transform="scale(0.045)"
	xlink:href="#utclef"/>
</defs>
<use x="25.33" y="98.01" xlink:href="#tclef"/>
<defs>
<path id="usharp" fill="currentColor" d="
	m136 -702
	v890
	h32
	v-890
	m128 840
	h32
	v-888
	h-32
	m-232 286
	v116
	l338 -96
	v-116
	m-338 442
	v116
	l338 -98
	v-114"/>
<use id="sh0" transform="translate(-4,5) scale(0.018)"
	xlink:href="#usharp"/>
</defs>
<use x="40.33" y="74.01" xlink:href="#sh0"/>
<defs>
<path id="csig" fill="currentColor" d="
	m1 -17.3
	c0.9 0 2.3 0.7 2.4 2.2
	c-1.2 -2 -3.6 0.1 -1.6 1.7
	c2 1 3.8 -3.5 -0.8 -4.7
	c-2 -0.4 -6.4 1.3 -5.8 7
	c0.4 6.4 7.9 6.8 9.1 0.7
	c-2.3 5.6 -6.7 5.1 -6.8 0
	c-0.5 -4.4 0.7 -7.5 3.5 -6.9"/>
<g id="ctsig">
	<use xlink:href="#csig"/>
	<path d="m0 -4v-16" stroke="currentColor"/>
</g>
</defs>
<use x="56.33" y="98.01" xlink:href="#ctsig"/>
<defs>
<ellipse id="hd" rx="4.1" ry="2.9"
	transform="rotate(-20)" fill="currentColor"/>
</defs>
<use x="74.33" y="92.01" xlink:href="#hd"/>
<path d="M77.83 92.01v-20.00" stroke="currentColor" fill="none"/>
<path fill="currentColor"
	d="M102.23 111.21l102.20 0.00v-3.20l-102.20 -0.00"/>
<use x="106.13" y="80.01" xlink:href="#hd"/>
<path d="M102.63 80.01v30.20" stroke="currentColor" fill="none"/>
<use x="126.43" y="92.01" xlink:href="#hd"/>
<path d="M122.93 92.01v18.20" stroke="currentColor" fill="none"/>
<use x="146.73" y="77.01" xlink:href="#hd"/>
<path d="M143.23 77.01v33.20" stroke="currentColor" fill="none"/>
<use x="167.03" y="92.01" xlink:href="#hd"/>
<path d="M163.53 92.01v18.20" stroke="currentColor" fill="none"/>
<use x="187.23" y="80.01" xlink:href="#hd"/>
<path d="M183.73 80.01v30.20" stroke="currentColor" fill="none"/>
<use x="207.53" y="92.01" xlink:href="#hd"/>
<path d="M204.03 92.01v18.20" stroke="currentColor" fill="none"/>
<use x="238.13" y="98.01" xlink:href="#hd"/>
<circle fill="currentColor" cx="246.13" cy="95.01" r="1.2"/>
<path d="M241.63 98.01v-20.00" stroke="currentColor" fill="none"/>
<path fill="currentColor"
	d="M277.63 60.81l81.90 0.00v3.20l-81.90 -0.00"/>
<use x="274.53" y="86.01" xlink:href="#hd"/>
<path d="M278.03 86.01v-24.20" stroke="currentColor" fill="none"/>
<use x="294.73" y="80.01" xlink:href="#hd"/>
<path d="M298.23 80.01v-18.20" stroke="currentColor" fill="none"/>
<use x="315.03" y="86.01" xlink:href="#hd"/>
<path d="M318.53 86.01v-24.20" stroke="currentColor" fill="none"/>
<use x="335.33" y="92.01" xlink:href="#hd"/>
<path d="M338.83 92.01v-30.20" stroke="currentColor" fill="none"/>
<use x="355.63" y="89.01" xlink:href="#hd"/>
<path d="M359.13 89.01v-27.20" stroke="currentColor" fill="none"/>
<use x="386.23" y="92.01" xlink:href="#hd"/>
<circle fill="currentColor" cx="394.23" cy="89.01" r="1.2"/>
<path d="M389.73 92.01v-20.00" stroke="currentColor" fill="none"/>
<path fill="currentColor"
	d="M425.73 60.81l81.90 0.00v3.20l-81.90 -0.00"/>
<use x="422.53" y="89.01" xlink:href="#hd"/>
<path d="M426.03 89.01v-27.20" stroke="currentColor" fill="none"/>
<use x="442.83" y="86.01" xlink:href="#hd"/>
<path d="M446.33 86.01v-24.20" stroke="currentColor" fill="none"/>
<use x="463.13" y="89.01" xlink:href="#hd"/>
<path d="M466.63 89.01v-27.20" stroke="currentColor" fill="none"/>
<use x="483.43" y="86.01" xlink:href="#hd"/>
<path d="M486.93 86.01v-24.20" stroke="currentColor" fill="none"/>
<use x="503.73" y="80.01" xlink:href="#hd"/>
<path d="M507.23 80.01v-18.20" stroke="currentColor" fill="none"/>
<path fill="currentColor"
	d="M530.53 101.61l143.10 9.60v-3.20l-143.10 -9.60"/>
<use x="534.33" y="71.01" xlink:href="#hd"/>
<path d="M530.83 71.01v29.60" stroke="currentColor" fill="none"/>
<use x="554.63" y="77.01" xlink:href="#hd"/>
<path d="M551.13 77.01v25.00" stroke="currentColor" fill="none"/>
<use x="574.93" y="80.01" xlink:href="#hd"/>
<path d="M571.43 80.01v23.30" stroke="currentColor" fill="none"/>
<use x="595.23" y="86.01" xlink:href="#hd"/>
<path d="M591.73 86.01v18.70" stroke="currentColor" fill="none"/>
<use x="615.93" y="83.01" xlink:href="#hd"/>
<defs>
<path id="unat" fill="currentColor" d="
	m96 -750
	h-32
	v716
	l32 -8
	l182 -54
	v282
	h32
	v-706
	l-34 10
	l-180 50
	v-290
	m0 592
	v-190
	l182 -52
	v188"/>
<use id="nt0" transform="translate(-3,5) scale(0.018)"
	xlink:href="#unat"/>
</defs>
<use x="606.93" y="83.01" xlink:href="#nt0"/>
<path d="M612.43 83.01v23.10" stroke="currentColor" fill="none"/>
<use x="636.23" y="86.01" xlink:href="#hd"/>
<path d="M632.73 86.01v21.50" stroke="currentColor" fill="none"/>
<use x="656.53" y="89.01" xlink:href="#hd"/>
<path d="M653.03 89.01v19.80" stroke="currentColor" fill="none"/>
<use x="676.83" y="92.01" xlink:href="#hd"/>
<path d="M673.33 92.01v18.20" stroke="currentColor" fill="none"/>
<defs>
<path id="grm" fill="currentColor" d="
	m-5 -2.5
	c5 -8.5 5.5 4.5 10 -2
	c-5 8.5 -5.5 -4.5 -10 2"/>
</defs>
<use x="238.13" y="72.01" xlink:href="#grm"/>
<use x="386.23" y="68.01" xlink:href="#grm"/>
<path stroke="currentColor" fill="none"
	d="M175.43 188.01v-24.00"/>
<path stroke="currentColor" fill="none"
	d="M312.13 188.01v-24.00"/>
<path stroke="currentColor" fill="none"
	d="M440.03 188.01v-24.00"/>
<path stroke="currentColor" fill="none" stroke-width="3"
	d="M573.13 188.01v-24.00"/>
<path stroke="currentColor" fill="none"
	d="M568.63 188.01v-24.00"/>
<defs>
<g id="rdots" fill="currentColor">
	<circle cx="0" cy="-9" r="1.2"/>
	<circle cx="0" cy="-15" r="1.2"/>
</g>
</defs>
<use x="564.63" y="188.01" xlink:href="#rdots"/>
<path stroke="currentColor" fill="none" stroke-width="3"
	d="M693.43 188.01v-24.00"/>
<path stroke="currentColor" fill="none"
	d="M688.93 188.01v-24.00"/>
<path stroke="currentColor" fill="none"
	d="M13.33 188.01h681.60m-681.60 -6h681.60m-681.60 -6h681.60m-681.60 -6h681.60m-681.60 -6h681.60"/>
</g>
<g transform="scale(0.750)" stroke-width="0.70" font-family="Helvetica" font-size="12.00">
<text x="54.53" y="149.61">G</text>
<text x="318.13" y="149.61">D7</text>
<text x="455.23" y="149.61">G</text>
<text x="589.83" y="149.61">G</text>
</g>
<g transform="scale(0.750)" stroke-width="0.70" font-family="Times" font-size="13.00">
<text x="444.03" y="134.41">1</text>
<path stroke="currentColor" fill="none"
	d="M440.03 123.01v20M440.03 123.01h126.60v20"/>
<text x="578.63" y="134.41">2</text>
<path stroke="currentColor" fill="none"
	d="M574.63 123.01v20M574.63 123.01h120.30v20"/>
<use x="25.33" y="188.01" xlink:href="#tclef"/>
<use x="40.33" y="164.01" xlink:href="#sh0"/>
<use x="58.33" y="182.01" xlink:href="#hd"/>
<path d="M61.83 182.01v-20.00" stroke="currentColor" fill="none"/>
<path fill="currentColor"
	d="M78.83 195.21l79.30 0.00v-3.20l-79.30 -0.00"/>
<use x="82.63" y="176.01" xlink:href="#hd"/>
<path d="M79.13 176.01v18.20" stroke="currentColor" fill="none"/>
<use x="98.33" y="170.01" xlink:href="#hd"/>
<path d="M94.83 170.01v24.20" stroke="currentColor" fill="none"/>
<use x="114.13" y="161.01" xlink:href="#hd"/>
<path d="M110.63 161.01v33.20" stroke="currentColor" fill="none"/>
<use x="129.83" y="170.01" xlink:href="#hd"/>
<path d="M126.33 170.01v24.20" stroke="currentColor" fill="none"/>
<use x="145.53" y="176.01" xlink:href="#hd"/>
<path d="M142.03 176.01v18.20" stroke="currentColor" fill="none"/>
<use x="161.23" y="170.01" xlink:href="#hd"/>
<path d="M157.73 170.01v24.20" stroke="currentColor" fill="none"/>
<path fill="currentColor"
	d="M184.03 201.21l110.70 0.00v-3.20l-110.70 -0.00"/>
<use x="187.93" y="161.01" xlink:href="#hd"/>
<path d="M184.43 161.01v39.20" stroke="currentColor" fill="none"/>
<use x="203.63" y="170.01" xlink:href="#hd"/>
<path d="M200.13 170.01v30.20" stroke="currentColor" fill="none"/>
<use x="219.33" y="176.01" xlink:href="#hd"/>
<path d="M215.83 176.01v24.20" stroke="currentColor" fill="none"/>
<use x="235.03" y="170.01" xlink:href="#hd"/>
<path d="M231.53 170.01v30.20" stroke="currentColor" fill="none"/>
<use x="250.73" y="167.01" xlink:href="#hd"/>
<path d="M247.23 167.01v33.20" stroke="currentColor" fill="none"/>
<use x="266.53" y="170.01" xlink:href="#hd"/>
<path d="M263.03 170.01v30.20" stroke="currentColor" fill="none"/>
<use x="282.23" y="176.01" xlink:href="#hd"/>
<path d="M278.73 176.01v24.20" stroke="currentColor" fill="none"/>
<use x="297.93" y="182.01" xlink:href="#hd"/>
<path d="M294.43 182.01v18.20" stroke="currentColor" fill="none"/>
<path fill="currentColor"
	d="M320.73 204.21l79.30 -8.20v-3.20l-79.30 8.20"/>
<use x="324.63" y="185.01" xlink:href="#hd"/>
<path d="M321.13 185.01v18.20" stroke="currentColor" fill="none"/>
<use x="340.33" y="179.01" xlink:href="#hd"/>
<path d="M336.83 179.01v22.60" stroke="currentColor" fill="none"/>
<use x="356.03" y="167.01" xlink:href="#hd"/>
<path d="M352.53 167.01v32.90" stroke="currentColor" fill="none"/>
<use x="371.73" y="164.01" xlink:href="#hd"/>
<path d="M368.23 164.01v34.30" stroke="currentColor" fill="none"/>
<use x="387.43" y="170.01" xlink:href="#hd"/>
<path d="M383.93 170.01v26.70" stroke="currentColor" fill="none"/>
<use x="403.13" y="167.01" xlink:href="#hd"/>
<path d="M399.63 167.01v28.00" stroke="currentColor" fill="none"/>
<use x="420.53" y="164.01" xlink:href="#hd"/>
<path d="M417.03 164.01v20.00" stroke="currentColor" fill="none"/>
<use x="459.03" y="161.01" xlink:href="#hd"/>
<path d="M455.53 161.01v20.00" stroke="currentColor" fill="none"/>
<use x="483.03" y="161.01" xlink:href="#hd"/>
<path d="M479.53 161.01v20.00" stroke="currentColor" fill="none"/>
<path fill="currentColor"
	d="M503.13 195.21l47.80 0.00v-3.20l-47.80 -0.00"/>
<use x="506.93" y="161.01" xlink:href="#hd"/>
<path d="M503.43 161.01v33.20" stroke="currentColor" fill="none"/>
<use x="522.63" y="176.01" xlink:href="#hd"/>
<path d="M519.13 176.01v18.20" stroke="currentColor" fill="none"/>
<use x="538.43" y="170.01" xlink:href="#hd"/>
<path d="M534.93 170.01v24.20" stroke="currentColor" fill="none"/>
<use x="554.13" y="161.01" xlink:href="#hd"/>
<path d="M550.63 161.01v33.20" stroke="currentColor" fill="none"/>
<use x="593.63" y="161.01" xlink:href="#hd"/>
<path d="M590.13 161.01v20.00" stroke="currentColor" fill="none"/>
<path fill="currentColor"
	d="M613.73 189.31l16.40 -4.40v-3.20l-16.40 4.40"/>
<use x="617.63" y="170.01" xlink:href="#hd"/>
<path d="M614.13 170.01v18.20" stroke="currentColor" fill="none"/>
<use x="633.33" y="161.01" xlink:href="#hd"/>
<path d="M629.83 161.01v23.00" stroke="currentColor" fill="none"/>
<use x="650.63" y="161.01" xlink:href="#hd"/>
<path d="M647.13 161.01v20.00" stroke="currentColor" fill="none"/>
<defs>
<path id="r4" fill="currentColor" d="m-1 -8.5
	l3.6 5.1 -2.1 5.2 2.2 4.3
	c-2.6 -2.3 -5.1 0 -2.4 2.6
	c-4.8 -3 -1.5 -6.9 1.4 -4.1
	l-3.1 -4.5 1.9 -5.1 -1.5 -3.5"/>
</defs>
<use x="674.63" y="176.01" xlink:href="#r4"/>
</g>
</svg>
