<?xml version="1.0" standalone="no"?>
<!DOCTYPE svg PUBLIC "-//W3C//DTD SVG 1.1//EN"
	"http://www.w3.org/Graphics/SVG/1.1/DTD/svg11.dtd">
<svg xmlns="http://www.w3.org/2000/svg" version="1.1"
	xmlns:xlink="http://www.w3.org/1999/xlink"
	xml:space='preserve' color="black"
	width="7.38in" height="4.68in" viewBox="0 0 531 337">
<title>data/results/biggest_11/abc/39.abc (39) tune 1</title>
<!-- Creator: abcm2ps-7.8.14 -->
<!-- CreationDate: Aug  9, 2015 23:50 -->
<!-- CommandLine: -g data/results/biggest_11/abc/39.abc -O /home/allanino/Dropbox/Trabalhos/folkme/svg/39.svg -->
<g transform="scale(0.750)" stroke-width="0.70" font-family="Times" font-size="20.00">
<text x="354.13" y="21.67" text-anchor="middle">Mazurka CF chords Anm</text>
<defs>
<g id="rdots" fill="currentColor">
	<circle cx="0" cy="-9" r="1.2"/>
	<circle cx="0" cy="-15" r="1.2"/>
</g>
</defs>
<use x="93.53" y="107.01" xlink:href="#rdots"/>
<path stroke="currentColor" fill="none"
	d="M89.53 107.01v-24.00"/>
<path stroke="currentColor" fill="none" stroke-width="3"
	d="M85.03 107.01v-24.00"/>
<path stroke="currentColor" fill="none"
	d="M171.13 107.01v-24.00"/>
<path stroke="currentColor" fill="none"
	d="M255.93 107.01v-24.00"/>
<path stroke="currentColor" fill="none"
	d="M343.33 107.01v-24.00"/>
<path stroke="currentColor" fill="none"
	d="M433.93 107.01v-24.00"/>
<path stroke="currentColor" fill="none"
	d="M524.53 107.01v-24.00"/>
<path stroke="currentColor" fill="none"
	d="M601.83 107.01v-24.00"/>
<path stroke="currentColor" fill="none"
	d="M694.93 107.01v-24.00"/>
<path stroke="currentColor" fill="none"
	d="M13.33 107.01h681.60m-681.60 -6h681.60m-681.60 -6h681.60m-681.60 -6h681.60m-681.60 -6h681.60"/>
</g>
<g transform="scale(0.750)" stroke-width="0.70" font-family="Helvetica" font-size="12.00">
<text x="103.43" y="62.61">C</text>
<text x="175.73" y="62.61">Am</text>
<text x="262.03" y="62.61">G7</text>
<text x="352.33" y="62.61">C</text>
<text x="494.83" y="62.61">C7</text>
<text x="529.13" y="62.61">Dm</text>
<text x="607.93" y="62.61">G7</text>
<defs>
<path id="utclef" fill="currentColor" d="m-50 -90
	c-72 -41 -72 -158 52 -188
	c150 -10 220 188 90 256
	c-114 52 -275 0 -293 -136
	c-15 -181 93 -229 220 -334
	c88 -87 79 -133 62 -210
	c-51 33 -94 105 -89 186
	c17 267 36 374 49 574
	c6 96 -19 134 -77 135
	c-80 1 -126 -93 -61 -133
	c85 -41 133 101 31 105
	c23 17 92 37 90 -92
	c-10 -223 -39 -342 -50 -617
	c0 -90 0 -162 96 -232
	c56 72 63 230 22 289
	c-74 106 -257 168 -255 316
	c9 153 148 185 252 133
	c86 -65 29 -192 -80 -176
	c-71 12 -105 67 -59 124"/>
<use id="tclef" transform="scale(0.045)"
	xlink:href="#utclef"/>
</defs>
<use x="25.33" y="107.01" xlink:href="#tclef"/>
<g font-family="serif" font-size="16" font-weight="bold" font-style="normal"
	transform="translate(43.83,107.01) scale(1.2,1)">
	<text y="-1" text-anchor="middle">4</text>
	<text y="-13" text-anchor="middle">3</text>
</g>
<path fill="currentColor"
	d="M65.03 80.61l12.80 -2.10v3.20l-12.80 2.10"/>
<defs>
<ellipse id="hd" rx="4.1" ry="2.9"
	transform="rotate(-20)" fill="currentColor"/>
</defs>
<use x="61.83" y="101.01" xlink:href="#hd"/>
<path d="M65.33 101.01v-19.50" stroke="currentColor" fill="none"/>
<use x="74.03" y="98.01" xlink:href="#hd"/>
<path d="M77.53 98.01v-18.50" stroke="currentColor" fill="none"/>
<path fill="currentColor"
	d="M103.13 120.21l37.20 0.00v-3.20l-37.20 -0.00"/>
<use x="107.03" y="101.01" xlink:href="#hd"/>
<path d="M103.53 101.01v18.20" stroke="currentColor" fill="none"/>
<use x="119.13" y="80.01" xlink:href="#hd"/>
<path d="M115.63 80.01v39.20" stroke="currentColor" fill="none"/>
<use x="131.33" y="86.01" xlink:href="#hd"/>
<path d="M127.83 86.01v33.20" stroke="currentColor" fill="none"/>
<use x="143.53" y="101.01" xlink:href="#hd"/>
<path d="M140.03 101.01v18.20" stroke="currentColor" fill="none"/>
<use x="156.63" y="92.01" xlink:href="#hd"/>
<path d="M153.13 92.01v20.00" stroke="currentColor" fill="none"/>
<path fill="currentColor"
	d="M179.83 117.21l61.50 0.00v-3.20l-61.50 -0.00"/>
<use x="183.63" y="92.01" xlink:href="#hd"/>
<path d="M180.13 92.01v24.20" stroke="currentColor" fill="none"/>
<use x="195.83" y="92.01" xlink:href="#hd"/>
<path d="M192.33 92.01v24.20" stroke="currentColor" fill="none"/>
<use x="208.03" y="92.01" xlink:href="#hd"/>
<path d="M204.53 92.01v24.20" stroke="currentColor" fill="none"/>
<defs>
<path id="hl" stroke="currentColor" d="m-6 0h12"/>
</defs>
<use x="220.13" y="77.01" xlink:href="#hl"/>
<use x="220.13" y="77.01" xlink:href="#hd"/>
<path d="M216.63 77.01v39.20" stroke="currentColor" fill="none"/>
<use x="232.33" y="98.01" xlink:href="#hd"/>
<path d="M228.83 98.01v18.20" stroke="currentColor" fill="none"/>
<use x="244.53" y="80.01" xlink:href="#hd"/>
<path d="M241.03 80.01v36.20" stroke="currentColor" fill="none"/>
<path fill="currentColor"
	d="M264.63 98.01l43.00 0.00v-3.20l-43.00 -0.00"/>
<use x="268.43" y="77.01" xlink:href="#hl"/>
<use x="268.43" y="77.01" xlink:href="#hd"/>
<path d="M264.93 77.01v20.00" stroke="currentColor" fill="none"/>
<use x="280.63" y="80.01" xlink:href="#hd"/>
<path d="M277.13 80.01v17.00" stroke="currentColor" fill="none"/>
<use x="298.63" y="80.01" xlink:href="#hd"/>
<defs>
<path id="usharp" fill="currentColor" d="
	m136 -702
	v890
	h32
	v-890
	m128 840
	h32
	v-888
	h-32
	m-232 286
	v116
	l338 -96
	v-116
	m-338 442
	v116
	l338 -98
	v-114"/>
<use id="sh0" transform="translate(-4,5) scale(0.018)"
	xlink:href="#usharp"/>
</defs>
<use x="289.63" y="80.01" xlink:href="#sh0"/>
<path d="M295.13 80.01v17.00" stroke="currentColor" fill="none"/>
<use x="310.83" y="77.01" xlink:href="#hl"/>
<use x="310.83" y="77.01" xlink:href="#hd"/>
<path d="M307.33 77.01v20.00" stroke="currentColor" fill="none"/>
<use x="328.83" y="83.01" xlink:href="#hd"/>
<defs>
<path id="unat" fill="currentColor" d="
	m96 -750
	h-32
	v716
	l32 -8
	l182 -54
	v282
	h32
	v-706
	l-34 10
	l-180 50
	v-290
	m0 592
	v-190
	l182 -52
	v188"/>
<use id="nt0" transform="translate(-3,5) scale(0.018)"
	xlink:href="#unat"/>
</defs>
<use x="319.83" y="83.01" xlink:href="#nt0"/>
<path d="M325.33 83.01v20.00" stroke="currentColor" fill="none"/>
<path fill="currentColor"
	d="M352.03 107.21l67.40 0.00v-3.20l-67.40 -0.00"/>
<use x="355.83" y="83.01" xlink:href="#hd"/>
<path d="M352.33 83.01v23.20" stroke="currentColor" fill="none"/>
<use x="368.03" y="86.01" xlink:href="#hd"/>
<path d="M364.53 86.01v20.20" stroke="currentColor" fill="none"/>
<use x="380.13" y="86.01" xlink:href="#hd"/>
<path d="M376.63 86.01v20.20" stroke="currentColor" fill="none"/>
<use x="398.13" y="89.01" xlink:href="#hd"/>
<use x="389.13" y="89.01" xlink:href="#sh0"/>
<path d="M394.63 89.01v17.20" stroke="currentColor" fill="none"/>
<use x="410.33" y="86.01" xlink:href="#hd"/>
<path d="M406.83 86.01v20.20" stroke="currentColor" fill="none"/>
<use x="422.53" y="83.01" xlink:href="#hd"/>
<path d="M419.03 83.01v23.20" stroke="currentColor" fill="none"/>
<path fill="currentColor"
	d="M442.63 104.01l67.40 0.00v-3.20l-67.40 -0.00"/>
<use x="446.43" y="86.01" xlink:href="#hd"/>
<path d="M442.93 86.01v17.00" stroke="currentColor" fill="none"/>
<use x="458.63" y="77.01" xlink:href="#hl"/>
<use x="458.63" y="77.01" xlink:href="#hd"/>
<path d="M455.13 77.01v26.00" stroke="currentColor" fill="none"/>
<use x="476.63" y="80.01" xlink:href="#hd"/>
<use x="467.63" y="80.01" xlink:href="#sh0"/>
<path d="M473.13 80.01v23.00" stroke="currentColor" fill="none"/>
<use x="488.83" y="77.01" xlink:href="#hl"/>
<use x="488.83" y="77.01" xlink:href="#hd"/>
<path d="M485.33 77.01v26.00" stroke="currentColor" fill="none"/>
<use x="500.93" y="80.01" xlink:href="#hd"/>
<path d="M497.43 80.01v23.00" stroke="currentColor" fill="none"/>
<use x="513.13" y="77.01" xlink:href="#hl"/>
<use x="513.13" y="74.01" xlink:href="#hd"/>
<path d="M509.63 74.01v29.00" stroke="currentColor" fill="none"/>
<path fill="currentColor"
	d="M533.23 107.21l37.20 0.00v-3.20l-37.20 -0.00"/>
<use x="537.03" y="77.01" xlink:href="#hl"/>
<use x="537.03" y="77.01" xlink:href="#hd"/>
<path d="M533.53 77.01v29.20" stroke="currentColor" fill="none"/>
<use x="549.23" y="83.01" xlink:href="#hd"/>
<path d="M545.73 83.01v23.20" stroke="currentColor" fill="none"/>
<use x="561.43" y="89.01" xlink:href="#hd"/>
<path d="M557.93 89.01v17.20" stroke="currentColor" fill="none"/>
<use x="573.53" y="77.01" xlink:href="#hl"/>
<use x="573.53" y="77.01" xlink:href="#hd"/>
<path d="M570.03 77.01v29.20" stroke="currentColor" fill="none"/>
<use x="587.33" y="77.01" xlink:href="#hl"/>
<use x="587.33" y="77.01" xlink:href="#hd"/>
<path d="M583.83 77.01v20.00" stroke="currentColor" fill="none"/>
<path fill="currentColor"
	d="M610.53 98.01l69.80 0.00v-3.20l-69.80 -0.00"/>
<use x="614.33" y="77.01" xlink:href="#hl"/>
<use x="614.33" y="77.01" xlink:href="#hd"/>
<path d="M610.83 77.01v20.00" stroke="currentColor" fill="none"/>
<use x="627.13" y="77.01" xlink:href="#hl"/>
<use x="627.13" y="77.01" xlink:href="#hd"/>
<path d="M623.63 77.01v20.00" stroke="currentColor" fill="none"/>
<use x="639.93" y="77.01" xlink:href="#hl"/>
<use x="639.93" y="77.01" xlink:href="#hd"/>
<path d="M636.43 77.01v20.00" stroke="currentColor" fill="none"/>
<use x="652.73" y="77.01" xlink:href="#hl"/>
<use x="652.73" y="74.01" xlink:href="#hd"/>
<path d="M649.23 74.01v23.00" stroke="currentColor" fill="none"/>
<use x="665.53" y="77.01" xlink:href="#hl"/>
<use x="665.53" y="77.01" xlink:href="#hd"/>
<path d="M662.03 77.01v20.00" stroke="currentColor" fill="none"/>
<use x="683.53" y="80.01" xlink:href="#hd"/>
<use x="674.53" y="80.01" xlink:href="#sh0"/>
<path d="M680.03 80.01v17.00" stroke="currentColor" fill="none"/>
<path stroke="currentColor" fill="none"
	d="M109.63 188.01v-24.00"/>
<path stroke="currentColor" fill="none"
	d="M182.93 188.01v-24.00"/>
<path stroke="currentColor" fill="none"
	d="M246.63 188.01v-24.00"/>
<path stroke="currentColor" fill="none"
	d="M326.73 188.01v-24.00"/>
<path stroke="currentColor" fill="none" stroke-width="3"
	d="M396.03 188.01v-24.00"/>
<path stroke="currentColor" fill="none"
	d="M391.53 188.01v-24.00"/>
<use x="387.53" y="188.01" xlink:href="#rdots"/>
<use x="467.43" y="188.01" xlink:href="#rdots"/>
<path stroke="currentColor" fill="none"
	d="M463.43 188.01v-24.00"/>
<path stroke="currentColor" fill="none" stroke-width="3"
	d="M458.93 188.01v-24.00"/>
<path stroke="currentColor" fill="none"
	d="M557.93 188.01v-24.00"/>
<path stroke="currentColor" fill="none"
	d="M623.13 188.01v-24.00"/>
<path stroke="currentColor" fill="none"
	d="M694.93 188.01v-24.00"/>
<path stroke="currentColor" fill="none"
	d="M13.33 188.01h681.60m-681.60 -6h681.60m-681.60 -6h681.60m-681.60 -6h681.60m-681.60 -6h681.60"/>
<text x="46.33" y="143.61">C</text>
<text x="189.03" y="143.61">G7</text>
<text x="342.13" y="143.61">C</text>
<text x="413.03" y="143.61">C</text>
<text x="494.43" y="143.61">F</text>
<text x="564.23" y="143.61">C7</text>
</g>
<g transform="scale(0.750)" stroke-width="0.70" font-family="Times" font-size="13.00">
<text x="330.73" y="143.41">1</text>
<path stroke="currentColor" fill="none"
	d="M326.73 132.01v20M326.73 132.01h62.90v20"/>
<text x="401.53" y="143.41">2</text>
<path stroke="currentColor" fill="none"
	d="M397.53 132.01v20M397.53 132.01h58.90v20"/>
<use x="25.33" y="188.01" xlink:href="#tclef"/>
<path fill="currentColor"
	d="M46.03 185.01l34.80 0.00v-3.20l-34.80 -0.00"/>
<use x="49.83" y="158.01" xlink:href="#hl"/>
<use x="49.83" y="158.01" xlink:href="#hd"/>
<path d="M46.33 158.01v26.00" stroke="currentColor" fill="none"/>
<use x="61.23" y="161.01" xlink:href="#hd"/>
<path d="M57.73 161.01v23.00" stroke="currentColor" fill="none"/>
<use x="72.53" y="167.01" xlink:href="#hd"/>
<path d="M69.03 167.01v17.00" stroke="currentColor" fill="none"/>
<use x="83.93" y="158.01" xlink:href="#hl"/>
<use x="83.93" y="158.01" xlink:href="#hd"/>
<path d="M80.43 158.01v26.00" stroke="currentColor" fill="none"/>
<use x="96.13" y="161.01" xlink:href="#hd"/>
<path d="M92.63 161.01v20.00" stroke="currentColor" fill="none"/>
<path fill="currentColor"
	d="M125.23 153.81l34.80 0.00v3.20l-34.80 -0.00"/>
<use x="122.13" y="182.01" xlink:href="#hd"/>
<path d="M125.63 182.01v-27.20" stroke="currentColor" fill="none"/>
<use x="133.43" y="173.01" xlink:href="#hd"/>
<path d="M136.93 173.01v-18.20" stroke="currentColor" fill="none"/>
<use x="144.83" y="173.01" xlink:href="#hd"/>
<path d="M148.33 173.01v-18.20" stroke="currentColor" fill="none"/>
<use x="156.23" y="179.01" xlink:href="#hd"/>
<path d="M159.73 179.01v-24.20" stroke="currentColor" fill="none"/>
<use x="169.43" y="173.01" xlink:href="#hd"/>
<path d="M165.93 173.01v20.00" stroke="currentColor" fill="none"/>
<use x="195.43" y="170.01" xlink:href="#hd"/>
<circle fill="currentColor" cx="203.43" cy="167.01" r="1.2"/>
<path d="M191.93 170.01v20.00" stroke="currentColor" fill="none"/>
<use x="220.93" y="173.01" xlink:href="#hd"/>
<use x="211.93" y="173.01" xlink:href="#sh0"/>
<path d="M217.43 173.01v20.00" stroke="currentColor" fill="none"/>
<path fill="currentColor"
	d="M217.43 193.01c0.6 -5.6 9.6 -9 5.6 -18.4
	c1.6 6 -1.3 11.6 -5.6 12.8
"/>
<use x="233.13" y="170.01" xlink:href="#hd"/>
<path d="M229.63 170.01v20.00" stroke="currentColor" fill="none"/>
<path fill="currentColor"
	d="M255.33 188.01l57.50 7.30v-3.20l-57.50 -7.30"/>
<use x="259.13" y="158.01" xlink:href="#hl"/>
<use x="259.13" y="155.01" xlink:href="#hd"/>
<path d="M255.63 155.01v32.00" stroke="currentColor" fill="none"/>
<use x="270.53" y="161.01" xlink:href="#hd"/>
<path d="M267.03 161.01v27.50" stroke="currentColor" fill="none"/>
<use x="281.93" y="158.01" xlink:href="#hl"/>
<use x="281.93" y="158.01" xlink:href="#hd"/>
<path d="M278.43 158.01v31.90" stroke="currentColor" fill="none"/>
<use x="293.23" y="161.01" xlink:href="#hd"/>
<path d="M289.73 161.01v30.30" stroke="currentColor" fill="none"/>
<use x="304.63" y="164.01" xlink:href="#hd"/>
<path d="M301.13 164.01v28.80" stroke="currentColor" fill="none"/>
<use x="315.93" y="176.01" xlink:href="#hd"/>
<path d="M312.43 176.01v18.20" stroke="currentColor" fill="none"/>
<use x="345.73" y="173.01" xlink:href="#hd"/>
<path d="M342.23 173.01v20.00" stroke="currentColor" fill="none"/>
<defs>
<path id="r4" fill="currentColor" d="m-1 -8.5
	l3.6 5.1 -2.1 5.2 2.2 4.3
	c-2.6 -2.3 -5.1 0 -2.4 2.6
	c-4.8 -3 -1.5 -6.9 1.4 -4.1
	l-3.1 -4.5 1.9 -5.1 -1.5 -3.5"/>
</defs>
<use x="361.33" y="176.01" xlink:href="#r4"/>
<use x="377.03" y="176.01" xlink:href="#r4"/>
<use x="416.53" y="173.01" xlink:href="#hd"/>
<path d="M413.03 173.01v20.00" stroke="currentColor" fill="none"/>
<use x="432.23" y="176.01" xlink:href="#r4"/>
<use x="447.93" y="161.01" xlink:href="#hd"/>
<path d="M444.43 161.01v20.00" stroke="currentColor" fill="none"/>
<defs>
<path id="uflat" fill="currentColor" d="
	m100 -746
	h32
	v734
	l-32 4
	m32 -332
	c46 -72 152 -90 208 -20
	c100 110 -120 326 -208 348
	m0 -28
	c54 0 200 -206 130 -290
	c-50 -60 -130 -4 -130 34"/>
<use id="ft0" transform="translate(-3.5,3.5) scale(0.018)"
	xlink:href="#uflat"/>
</defs>
<use x="479.43" y="176.01" xlink:href="#ft0"/>
<use x="497.43" y="164.01" xlink:href="#hd"/>
<path d="M493.93 164.01v20.00" stroke="currentColor" fill="none"/>
<path fill="currentColor"
	d="M509.23 192.21l34.80 -4.20v-3.20l-34.80 4.20"/>
<use x="513.03" y="173.01" xlink:href="#hd"/>
<path d="M509.53 173.01v18.20" stroke="currentColor" fill="none"/>
<use x="524.43" y="158.01" xlink:href="#hl"/>
<use x="524.43" y="158.01" xlink:href="#hd"/>
<path d="M520.93 158.01v31.80" stroke="currentColor" fill="none"/>
<use x="535.83" y="164.01" xlink:href="#hd"/>
<path d="M532.33 164.01v24.50" stroke="currentColor" fill="none"/>
<use x="547.13" y="161.01" xlink:href="#hd"/>
<path d="M543.63 161.01v26.10" stroke="currentColor" fill="none"/>
<use x="570.43" y="158.01" xlink:href="#hl"/>
<use x="570.43" y="158.01" xlink:href="#hd"/>
<path d="M566.93 158.01v20.00" stroke="currentColor" fill="none"/>
<path fill="currentColor"
	d="M582.23 180.31l12.00 -2.80v-3.20l-12.00 2.80"/>
<use x="586.03" y="161.01" xlink:href="#hd"/>
<path d="M582.53 161.01v18.20" stroke="currentColor" fill="none"/>
<use x="597.43" y="158.01" xlink:href="#hl"/>
<use x="597.43" y="155.01" xlink:href="#hd"/>
<path d="M593.93 155.01v21.50" stroke="currentColor" fill="none"/>
<use x="609.63" y="167.01" xlink:href="#hd"/>
<path d="M606.13 167.01v20.00" stroke="currentColor" fill="none"/>
<use x="635.63" y="161.01" xlink:href="#hd"/>
<path d="M632.13 161.01v20.00" stroke="currentColor" fill="none"/>
<path fill="currentColor"
	d="M653.33 143.81l34.80 0.00v3.20l-34.80 -0.00"/>
<use x="650.13" y="161.01" xlink:href="#hd"/>
<path d="M653.63 161.01v-16.20" stroke="currentColor" fill="none"/>
<use x="661.53" y="194.01" xlink:href="#hl"/>
<use x="661.53" y="194.01" xlink:href="#hd"/>
<path d="M665.03 194.01v-49.20" stroke="currentColor" fill="none"/>
<use x="672.83" y="188.01" xlink:href="#hd"/>
<path d="M676.33 188.01v-43.20" stroke="currentColor" fill="none"/>
<use x="684.23" y="173.01" xlink:href="#hd"/>
<path d="M687.73 173.01v-28.20" stroke="currentColor" fill="none"/>
<path stroke="currentColor" fill="none"
	d="M210.33 259.01v-24.00"/>
<path stroke="currentColor" fill="none"
	d="M348.13 259.01v-24.00"/>
<path stroke="currentColor" fill="none"
	d="M527.53 259.01v-24.00"/>
<path stroke="currentColor" fill="none"
	d="M694.93 259.01v-24.00"/>
<path stroke="currentColor" fill="none"
	d="M13.33 259.01h681.60m-681.60 -6h681.60m-681.60 -6h681.60m-681.60 -6h681.60m-681.60 -6h681.60"/>
</g>
<g transform="scale(0.750)" stroke-width="0.70" font-family="Helvetica" font-size="12.00">
<text x="55.43" y="222.61">F</text>
<text x="357.43" y="222.61">C7</text>
<use x="25.33" y="259.01" xlink:href="#tclef"/>
<use x="40.33" y="247.01" xlink:href="#ft0"/>
<use x="58.33" y="244.01" xlink:href="#hd"/>
<path d="M54.83 244.01v20.00" stroke="currentColor" fill="none"/>
<path fill="currentColor"
	d="M98.23 269.21l84.20 -5.70v-3.20l-84.20 5.70"/>
<use x="102.03" y="250.01" xlink:href="#hd"/>
<path d="M98.53 250.01v18.20" stroke="currentColor" fill="none"/>
<use x="129.83" y="244.01" xlink:href="#hd"/>
<path d="M126.33 244.01v22.30" stroke="currentColor" fill="none"/>
<use x="157.73" y="235.01" xlink:href="#hd"/>
<path d="M154.23 235.01v29.50" stroke="currentColor" fill="none"/>
<use x="185.53" y="241.01" xlink:href="#hd"/>
<path d="M182.03 241.01v21.60" stroke="currentColor" fill="none"/>
<use x="225.73" y="244.01" xlink:href="#hd"/>
<path d="M222.23 244.01v20.00" stroke="currentColor" fill="none"/>
<use x="269.43" y="229.01" xlink:href="#hl"/>
<use x="269.43" y="229.01" xlink:href="#hd"/>
<path d="M265.93 229.01v20.00" stroke="currentColor" fill="none"/>
<use x="313.13" y="235.01" xlink:href="#hd"/>
<path d="M309.63 235.01v20.00" stroke="currentColor" fill="none"/>
<path fill="currentColor"
	d="M359.73 256.01l139.80 0.00v-3.20l-139.80 -0.00"/>
<use x="363.63" y="235.01" xlink:href="#hd"/>
<path d="M360.13 235.01v20.00" stroke="currentColor" fill="none"/>
<use x="391.43" y="238.01" xlink:href="#hd"/>
<path d="M387.93 238.01v17.00" stroke="currentColor" fill="none"/>
<use x="419.23" y="238.01" xlink:href="#hd"/>
<path d="M415.73 238.01v17.00" stroke="currentColor" fill="none"/>
<use x="447.13" y="229.01" xlink:href="#hl"/>
<use x="447.13" y="226.01" xlink:href="#hd"/>
<path d="M443.63 226.01v29.00" stroke="currentColor" fill="none"/>
<use x="474.93" y="238.01" xlink:href="#hd"/>
<path d="M471.43 238.01v17.00" stroke="currentColor" fill="none"/>
<use x="502.73" y="232.01" xlink:href="#hd"/>
<path d="M499.23 232.01v23.00" stroke="currentColor" fill="none"/>
<use x="542.93" y="238.01" xlink:href="#hd"/>
<path d="M539.43 238.01v20.00" stroke="currentColor" fill="none"/>
<path fill="currentColor"
	d="M582.83 266.21l84.20 0.00v-3.20l-84.20 -0.00"/>
<use x="586.73" y="241.01" xlink:href="#hd"/>
<path d="M583.23 241.01v24.20" stroke="currentColor" fill="none"/>
<use x="614.53" y="244.01" xlink:href="#hd"/>
<path d="M611.03 244.01v21.20" stroke="currentColor" fill="none"/>
<use x="642.33" y="247.01" xlink:href="#hd"/>
<use x="633.33" y="247.01" xlink:href="#nt0"/>
<path d="M638.83 247.01v18.20" stroke="currentColor" fill="none"/>
<use x="670.23" y="244.01" xlink:href="#hd"/>
<path d="M666.73 244.01v21.20" stroke="currentColor" fill="none"/>
<path stroke="currentColor" fill="none" stroke-width="3"
	d="M147.13 348.01v-24.00"/>
<path stroke="currentColor" fill="none"
	d="M142.63 348.01v-24.00"/>
<use x="138.63" y="348.01" xlink:href="#rdots"/>
<path stroke="currentColor" fill="none"
	d="M231.33 348.01v-24.00"/>
<path stroke="currentColor" fill="none"
	d="M228.33 348.01v-24.00"/>
<path stroke="currentColor" fill="none"
	d="M321.03 348.01v-24.00"/>
<path stroke="currentColor" fill="none"
	d="M387.73 348.01v-24.00"/>
<path stroke="currentColor" fill="none"
	d="M454.53 348.01v-24.00"/>
<path stroke="currentColor" fill="none"
	d="M530.23 348.01v-24.00"/>
<path stroke="currentColor" fill="none"
	d="M612.63 348.01v-24.00"/>
<path stroke="currentColor" fill="none"
	d="M694.93 348.01v-24.00"/>
<path stroke="currentColor" fill="none"
	d="M13.33 348.01h681.60m-681.60 -6h681.60m-681.60 -6h681.60m-681.60 -6h681.60m-681.60 -6h681.60"/>
<text x="73.93" y="295.61">F</text>
<text x="164.73" y="295.61">F</text>
<text x="235.83" y="295.61">Gm</text>
<text x="327.43" y="295.61">C7</text>
<text x="397.33" y="295.61">F</text>
<text x="536.63" y="295.61">C7</text>
<text x="622.13" y="295.61">F</text>
</g>
<g transform="scale(0.750)" stroke-width="0.70" font-family="Times" font-size="13.00">
<text x="61.83" y="295.41">1</text>
<path stroke="currentColor" fill="none"
	d="M57.83 284.01v20M57.83 284.01h82.80v20"/>
<text x="152.63" y="295.41">2</text>
<path stroke="currentColor" fill="none"
	d="M148.63 284.01v20M148.63 284.01h82.70v20"/>
<use x="25.33" y="348.01" xlink:href="#tclef"/>
<use x="40.33" y="336.01" xlink:href="#ft0"/>
<use x="76.83" y="324.01" xlink:href="#hd"/>
<path d="M73.33 324.01v20.00" stroke="currentColor" fill="none"/>
<use x="95.83" y="336.01" xlink:href="#r4"/>
<path fill="currentColor"
	d="M110.93 336.21l14.10 0.00v-3.20l-14.10 -0.00"/>
<use x="114.73" y="318.01" xlink:href="#hl"/>
<use x="114.73" y="312.01" xlink:href="#hl"/>
<use x="114.73" y="312.01" xlink:href="#hd"/>
<path d="M111.23 312.01v23.20" stroke="currentColor" fill="none"/>
<use x="128.13" y="318.01" xlink:href="#hl"/>
<use x="128.13" y="312.01" xlink:href="#hl"/>
<use x="128.13" y="312.01" xlink:href="#hd"/>
<path d="M124.63 312.01v23.20" stroke="currentColor" fill="none"/>
<use x="167.63" y="324.01" xlink:href="#hd"/>
<path d="M164.13 324.01v20.00" stroke="currentColor" fill="none"/>
<use x="186.63" y="336.01" xlink:href="#r4"/>
<path fill="currentColor"
	d="M201.73 340.61l13.70 -2.20v-3.20l-13.70 2.20"/>
<use x="205.53" y="321.01" xlink:href="#hd"/>
<path d="M202.03 321.01v18.50" stroke="currentColor" fill="none"/>
<use x="218.53" y="318.01" xlink:href="#hl"/>
<use x="218.53" y="318.01" xlink:href="#hd"/>
<path d="M215.03 318.01v19.50" stroke="currentColor" fill="none"/>
<path fill="currentColor"
	d="M239.93 339.21l66.00 10.10v-3.20l-66.00 -10.10"/>
<use x="243.83" y="318.01" xlink:href="#hl"/>
<use x="243.83" y="315.01" xlink:href="#hd"/>
<path d="M240.33 315.01v23.30" stroke="currentColor" fill="none"/>
<use x="257.23" y="318.01" xlink:href="#hl"/>
<use x="257.23" y="318.01" xlink:href="#hd"/>
<path d="M253.73 318.01v22.30" stroke="currentColor" fill="none"/>
<use x="270.13" y="321.01" xlink:href="#hd"/>
<path d="M266.63 321.01v21.30" stroke="currentColor" fill="none"/>
<use x="283.13" y="324.01" xlink:href="#hd"/>
<path d="M279.63 324.01v20.20" stroke="currentColor" fill="none"/>
<use x="296.13" y="327.01" xlink:href="#hd"/>
<path d="M292.63 327.01v19.20" stroke="currentColor" fill="none"/>
<use x="309.13" y="330.01" xlink:href="#hd"/>
<path d="M305.63 330.01v18.20" stroke="currentColor" fill="none"/>
<use x="333.53" y="333.01" xlink:href="#hd"/>
<path d="M330.03 333.01v20.00" stroke="currentColor" fill="none"/>
<use x="352.53" y="321.01" xlink:href="#hd"/>
<circle fill="currentColor" cx="360.53" cy="321.01" r="1.2"/>
<path d="M349.03 321.01v20.00" stroke="currentColor" fill="none"/>
<use x="375.83" y="324.01" xlink:href="#hd"/>
<path d="M372.33 324.01v20.00" stroke="currentColor" fill="none"/>
<path fill="currentColor"
	d="M372.33 344.01c0.6 -5.6 9.6 -9 5.6 -18.4
	c1.6 6 -1.3 11.6 -5.6 12.8
"/>
<use x="400.23" y="318.01" xlink:href="#hl"/>
<use x="400.23" y="318.01" xlink:href="#hd"/>
<path d="M396.73 318.01v20.00" stroke="currentColor" fill="none"/>
<use x="419.23" y="324.01" xlink:href="#hd"/>
<circle fill="currentColor" cx="427.23" cy="321.01" r="1.2"/>
<path d="M415.73 324.01v20.00" stroke="currentColor" fill="none"/>
<use x="442.53" y="324.01" xlink:href="#hd"/>
<path d="M439.03 324.01v20.00" stroke="currentColor" fill="none"/>
<path fill="currentColor"
	d="M439.03 344.01c0.6 -5.6 9.6 -9 5.6 -18.4
	c1.6 6 -1.3 11.6 -5.6 12.8
"/>
<use x="467.03" y="318.01" xlink:href="#hl"/>
<use x="467.03" y="318.01" xlink:href="#hd"/>
<path d="M463.53 318.01v20.00" stroke="currentColor" fill="none"/>
<use x="485.93" y="336.01" xlink:href="#r4"/>
<path fill="currentColor"
	d="M501.03 336.21l14.10 0.00v-3.20l-14.10 -0.00"/>
<use x="504.93" y="318.01" xlink:href="#hl"/>
<use x="504.93" y="312.01" xlink:href="#hl"/>
<use x="504.93" y="312.01" xlink:href="#hd"/>
<path d="M501.43 312.01v23.20" stroke="currentColor" fill="none"/>
<use x="518.33" y="318.01" xlink:href="#hl"/>
<use x="518.33" y="315.01" xlink:href="#hd"/>
<path d="M514.83 315.01v20.20" stroke="currentColor" fill="none"/>
<use x="542.73" y="318.01" xlink:href="#hl"/>
<use x="542.73" y="318.01" xlink:href="#hd"/>
<path d="M539.23 318.01v20.00" stroke="currentColor" fill="none"/>
<path fill="currentColor"
	d="M557.83 343.01l39.60 6.30v-3.20l-39.60 -6.30"/>
<use x="561.73" y="321.01" xlink:href="#hd"/>
<path d="M558.23 321.01v21.00" stroke="currentColor" fill="none"/>
<use x="574.73" y="324.01" xlink:href="#hd"/>
<path d="M571.23 324.01v20.10" stroke="currentColor" fill="none"/>
<use x="587.63" y="327.01" xlink:href="#hd"/>
<path d="M584.13 327.01v19.10" stroke="currentColor" fill="none"/>
<use x="600.63" y="330.01" xlink:href="#hd"/>
<path d="M597.13 330.01v18.20" stroke="currentColor" fill="none"/>
<use x="625.13" y="333.01" xlink:href="#hd"/>
<path d="M621.63 333.01v20.00" stroke="currentColor" fill="none"/>
<path fill="currentColor"
	d="M640.23 350.91l39.60 0.00v-3.20l-39.60 -0.00"/>
<use x="644.03" y="333.01" xlink:href="#hd"/>
<path d="M640.53 333.01v17.00" stroke="currentColor" fill="none"/>
<use x="657.03" y="318.01" xlink:href="#hl"/>
<use x="657.03" y="318.01" xlink:href="#hd"/>
<path d="M653.53 318.01v32.00" stroke="currentColor" fill="none"/>
<use x="670.03" y="324.01" xlink:href="#hd"/>
<path d="M666.53 324.01v26.00" stroke="currentColor" fill="none"/>
<use x="682.93" y="333.01" xlink:href="#hd"/>
<path d="M679.43 333.01v17.00" stroke="currentColor" fill="none"/>
<text font-family="serif" font-size="16" font-weight="bold" font-style="italic"
	x="538.73" y="310.01">tr</text>
<path stroke="currentColor" fill="none"
	d="M128.93 426.01v-24.00"/>
<use x="204.73" y="426.01" xlink:href="#rdots"/>
<path stroke="currentColor" fill="none"
	d="M200.73 426.01v-24.00"/>
<path stroke="currentColor" fill="none" stroke-width="3"
	d="M196.23 426.01v-24.00"/>
<path stroke="currentColor" fill="none"
	d="M288.33 426.01v-24.00"/>
<path stroke="currentColor" fill="none"
	d="M371.53 426.01v-24.00"/>
<path stroke="currentColor" fill="none"
	d="M454.63 426.01v-24.00"/>
<path stroke="currentColor" fill="none" stroke-width="3"
	d="M534.93 426.01v-24.00"/>
<path stroke="currentColor" fill="none"
	d="M530.43 426.01v-24.00"/>
<use x="526.43" y="426.01" xlink:href="#rdots"/>
<path stroke="currentColor" fill="none"
	d="M618.93 426.01v-24.00"/>
<path stroke="currentColor" fill="none"
	d="M694.93 426.01v-24.00"/>
<path stroke="currentColor" fill="none"
	d="M691.93 426.01v-24.00"/>
<path stroke="currentColor" fill="none"
	d="M13.33 426.01h681.60m-681.60 -6h681.60m-681.60 -6h681.60m-681.60 -6h681.60m-681.60 -6h681.60"/>
</g>
<g transform="scale(0.750)" stroke-width="0.70" font-family="Helvetica" font-size="12.00">
<text x="52.13" y="384.61">C7</text>
<text x="138.53" y="384.61">F</text>
<text x="215.33" y="384.61">F</text>
<text x="294.73" y="384.61">C7</text>
<text x="464.23" y="384.61">F</text>
<text x="625.93" y="384.61">E♭</text>
<text x="671.63" y="439.61">&gt;TeilA</text>
</g>
<g transform="scale(0.750)" stroke-width="0.70" font-family="Times" font-size="13.00">
<text x="375.53" y="384.41">1</text>
<path stroke="currentColor" fill="none"
	d="M371.53 373.01v20M371.53 373.01h156.90v20"/>
<text x="540.43" y="384.41">2</text>
<path stroke="currentColor" fill="none"
	d="M536.43 373.01v20M536.43 373.01h158.50v20"/>
<use x="25.33" y="426.01" xlink:href="#tclef"/>
<use x="40.33" y="414.01" xlink:href="#ft0"/>
<path fill="currentColor"
	d="M54.53 429.01l60.30 0.00v-3.20l-60.30 -0.00"/>
<use x="58.33" y="405.01" xlink:href="#hd"/>
<path d="M54.83 405.01v23.00" stroke="currentColor" fill="none"/>
<use x="70.13" y="408.01" xlink:href="#hd"/>
<path d="M66.63 408.01v20.00" stroke="currentColor" fill="none"/>
<use x="81.93" y="411.01" xlink:href="#hd"/>
<path d="M78.43 411.01v17.00" stroke="currentColor" fill="none"/>
<use x="93.73" y="396.01" xlink:href="#hl"/>
<use x="93.73" y="393.01" xlink:href="#hd"/>
<path d="M90.23 393.01v35.00" stroke="currentColor" fill="none"/>
<use x="106.13" y="396.01" xlink:href="#hl"/>
<use x="106.13" y="396.01" xlink:href="#hd"/>
<path d="M102.63 396.01v32.00" stroke="currentColor" fill="none"/>
<use x="117.93" y="399.01" xlink:href="#hd"/>
<path d="M114.43 399.01v29.00" stroke="currentColor" fill="none"/>
<use x="141.43" y="402.01" xlink:href="#hd"/>
<path d="M137.93 402.01v20.00" stroke="currentColor" fill="none"/>
<use x="158.13" y="414.01" xlink:href="#r4"/>
<path fill="currentColor"
	d="M176.63 401.81l12.50 0.00v3.20l-12.50 -0.00"/>
<use x="173.43" y="423.01" xlink:href="#hd"/>
<path d="M176.93 423.01v-20.20" stroke="currentColor" fill="none"/>
<use x="185.23" y="423.01" xlink:href="#hd"/>
<path d="M188.73 423.01v-20.20" stroke="currentColor" fill="none"/>
<path fill="currentColor"
	d="M214.43 442.21l59.70 -8.30v-3.20l-59.70 8.30"/>
<use x="218.23" y="423.01" xlink:href="#hd"/>
<path d="M214.73 423.01v18.20" stroke="currentColor" fill="none"/>
<use x="230.03" y="417.01" xlink:href="#hd"/>
<path d="M226.53 417.01v22.60" stroke="currentColor" fill="none"/>
<use x="241.93" y="411.01" xlink:href="#hd"/>
<path d="M238.43 411.01v26.90" stroke="currentColor" fill="none"/>
<use x="253.73" y="402.01" xlink:href="#hd"/>
<path d="M250.23 402.01v34.30" stroke="currentColor" fill="none"/>
<use x="265.53" y="396.01" xlink:href="#hl"/>
<use x="265.53" y="396.01" xlink:href="#hd"/>
<path d="M262.03 396.01v38.70" stroke="currentColor" fill="none"/>
<use x="277.33" y="411.01" xlink:href="#hd"/>
<path d="M273.83 411.01v22.00" stroke="currentColor" fill="none"/>
<path fill="currentColor"
	d="M297.03 423.01l60.30 0.00v-3.20l-60.30 -0.00"/>
<use x="300.83" y="399.01" xlink:href="#hd"/>
<path d="M297.33 399.01v23.00" stroke="currentColor" fill="none"/>
<use x="312.63" y="405.01" xlink:href="#hd"/>
<path d="M309.13 405.01v17.00" stroke="currentColor" fill="none"/>
<use x="324.43" y="399.01" xlink:href="#hd"/>
<path d="M320.93 399.01v23.00" stroke="currentColor" fill="none"/>
<use x="336.33" y="396.01" xlink:href="#hl"/>
<use x="336.33" y="393.01" xlink:href="#hd"/>
<path d="M332.83 393.01v29.00" stroke="currentColor" fill="none"/>
<use x="348.63" y="396.01" xlink:href="#hl"/>
<use x="348.63" y="393.01" xlink:href="#hd"/>
<path d="M345.13 393.01v29.00" stroke="currentColor" fill="none"/>
<use x="360.43" y="399.01" xlink:href="#hd"/>
<path d="M356.93 399.01v23.00" stroke="currentColor" fill="none"/>
<path fill="currentColor"
	d="M380.13 439.21l60.30 0.00v-3.20l-60.30 -0.00"/>
<use x="384.03" y="420.01" xlink:href="#hd"/>
<path d="M380.53 420.01v18.20" stroke="currentColor" fill="none"/>
<use x="395.83" y="396.01" xlink:href="#hl"/>
<use x="395.83" y="393.01" xlink:href="#hd"/>
<path d="M392.33 393.01v45.20" stroke="currentColor" fill="none"/>
<use x="408.13" y="396.01" xlink:href="#hl"/>
<use x="408.13" y="393.01" xlink:href="#hd"/>
<path d="M404.63 393.01v45.20" stroke="currentColor" fill="none"/>
<use x="420.03" y="399.01" xlink:href="#hd"/>
<path d="M416.53 399.01v39.20" stroke="currentColor" fill="none"/>
<use x="431.83" y="405.01" xlink:href="#hd"/>
<path d="M428.33 405.01v33.20" stroke="currentColor" fill="none"/>
<use x="443.63" y="411.01" xlink:href="#hd"/>
<path d="M440.13 411.01v27.20" stroke="currentColor" fill="none"/>
<path fill="currentColor"
	d="M463.33 429.01l36.70 0.00v-3.20l-36.70 -0.00"/>
<use x="467.13" y="411.01" xlink:href="#hd"/>
<path d="M463.63 411.01v17.00" stroke="currentColor" fill="none"/>
<use x="478.93" y="396.01" xlink:href="#hl"/>
<use x="478.93" y="396.01" xlink:href="#hd"/>
<path d="M475.43 396.01v32.00" stroke="currentColor" fill="none"/>
<use x="491.33" y="396.01" xlink:href="#hl"/>
<use x="491.33" y="396.01" xlink:href="#hd"/>
<path d="M487.83 396.01v32.00" stroke="currentColor" fill="none"/>
<use x="503.13" y="411.01" xlink:href="#hd"/>
<path d="M499.63 411.01v17.00" stroke="currentColor" fill="none"/>
<use x="515.93" y="402.01" xlink:href="#hd"/>
<path d="M512.43 402.01v20.00" stroke="currentColor" fill="none"/>
<path fill="currentColor"
	d="M545.03 429.01l59.70 0.00v-3.20l-59.70 -0.00"/>
<use x="548.93" y="411.01" xlink:href="#hd"/>
<path d="M545.43 411.01v17.00" stroke="currentColor" fill="none"/>
<use x="560.73" y="396.01" xlink:href="#hl"/>
<use x="560.73" y="396.01" xlink:href="#hd"/>
<path d="M557.23 396.01v32.00" stroke="currentColor" fill="none"/>
<use x="572.53" y="402.01" xlink:href="#hd"/>
<path d="M569.03 402.01v26.00" stroke="currentColor" fill="none"/>
<use x="584.33" y="396.01" xlink:href="#hl"/>
<use x="584.33" y="396.01" xlink:href="#hd"/>
<path d="M580.83 396.01v32.00" stroke="currentColor" fill="none"/>
<use x="596.13" y="399.01" xlink:href="#hd"/>
<path d="M592.63 399.01v29.00" stroke="currentColor" fill="none"/>
<use x="607.93" y="402.01" xlink:href="#hd"/>
<path d="M604.43 402.01v26.00" stroke="currentColor" fill="none"/>
<path fill="currentColor"
	d="M627.63 429.31l36.10 3.90v-3.20l-36.10 -3.90"/>
<use x="631.43" y="405.01" xlink:href="#hd"/>
<path d="M627.93 405.01v23.40" stroke="currentColor" fill="none"/>
<use x="643.33" y="399.01" xlink:href="#hd"/>
<path d="M639.83 399.01v30.70" stroke="currentColor" fill="none"/>
<use x="655.13" y="399.01" xlink:href="#hd"/>
<path d="M651.63 399.01v31.90" stroke="currentColor" fill="none"/>
<use x="666.93" y="414.01" xlink:href="#hd"/>
<path d="M663.43 414.01v18.20" stroke="currentColor" fill="none"/>
<use x="679.63" y="414.01" xlink:href="#r4"/>
</g>
</svg>
