<?xml version="1.0" standalone="no"?>
<!DOCTYPE svg PUBLIC "-//W3C//DTD SVG 1.1//EN"
	"http://www.w3.org/Graphics/SVG/1.1/DTD/svg11.dtd">
<svg xmlns="http://www.w3.org/2000/svg" version="1.1"
	xmlns:xlink="http://www.w3.org/1999/xlink"
	xml:space='preserve' color="black"
	width="7.38in" height="2.16in" viewBox="0 0 531 155">
<title>data/results/biggest_11/abc/43.abc (43) tune 1</title>
<!-- Creator: abcm2ps-7.8.14 -->
<!-- CreationDate: Aug  9, 2015 23:50 -->
<!-- CommandLine: -g data/results/biggest_11/abc/43.abc -O /home/allanino/Dropbox/Trabalhos/folkme/svg/43.svg -->
<g transform="scale(0.750)" stroke-width="0.70" font-family="Times" font-size="20.00">
<text x="354.13" y="21.67" text-anchor="middle">Ländler-Walzer CF 7- chords</text>
<defs>
<g id="rdots" fill="currentColor">
	<circle cx="0" cy="-9" r="1.2"/>
	<circle cx="0" cy="-15" r="1.2"/>
</g>
</defs>
<use x="92.43" y="108.01" xlink:href="#rdots"/>
<path stroke="currentColor" fill="none"
	d="M88.43 108.01v-24.00"/>
<path stroke="currentColor" fill="none" stroke-width="3"
	d="M83.93 108.01v-24.00"/>
<path stroke="currentColor" fill="none"
	d="M158.73 108.01v-24.00"/>
<path stroke="currentColor" fill="none"
	d="M230.33 108.01v-24.00"/>
<path stroke="currentColor" fill="none"
	d="M301.93 108.01v-24.00"/>
<path stroke="currentColor" fill="none"
	d="M358.03 108.01v-24.00"/>
<path stroke="currentColor" fill="none"
	d="M436.63 108.01v-24.00"/>
<path stroke="currentColor" fill="none"
	d="M492.73 108.01v-24.00"/>
<path stroke="currentColor" fill="none"
	d="M571.33 108.01v-24.00"/>
<path stroke="currentColor" fill="none" stroke-width="3"
	d="M621.83 108.01v-24.00"/>
<path stroke="currentColor" fill="none"
	d="M617.33 108.01v-24.00"/>
<use x="613.33" y="108.01" xlink:href="#rdots"/>
<path stroke="currentColor" fill="none"
	d="M694.93 108.01v-24.00"/>
<path stroke="currentColor" fill="none"
	d="M13.33 108.01h681.60m-681.60 -6h681.60m-681.60 -6h681.60m-681.60 -6h681.60m-681.60 -6h681.60"/>
</g>
<g transform="scale(0.750)" stroke-width="0.70" font-family="Helvetica" font-size="12.00">
<text x="102.43" y="64.61">C</text>
<text x="236.43" y="64.61">G7</text>
<text x="501.73" y="64.61">C</text>
</g>
<g transform="scale(0.750)" stroke-width="0.70" font-family="Times" font-size="13.00">
<text x="440.63" y="64.41">1</text>
<path stroke="currentColor" fill="none"
	d="M436.63 53.01v20M436.63 53.01h178.70v20"/>
<text x="627.33" y="64.41">2</text>
<path stroke="currentColor" fill="none"
	d="M623.33 53.01v20M623.33 53.01h63.60"/>
<defs>
<path id="utclef" fill="currentColor" d="m-50 -90
	c-72 -41 -72 -158 52 -188
	c150 -10 220 188 90 256
	c-114 52 -275 0 -293 -136
	c-15 -181 93 -229 220 -334
	c88 -87 79 -133 62 -210
	c-51 33 -94 105 -89 186
	c17 267 36 374 49 574
	c6 96 -19 134 -77 135
	c-80 1 -126 -93 -61 -133
	c85 -41 133 101 31 105
	c23 17 92 37 90 -92
	c-10 -223 -39 -342 -50 -617
	c0 -90 0 -162 96 -232
	c56 72 63 230 22 289
	c-74 106 -257 168 -255 316
	c9 153 148 185 252 133
	c86 -65 29 -192 -80 -176
	c-71 12 -105 67 -59 124"/>
<use id="tclef" transform="scale(0.045)"
	xlink:href="#utclef"/>
</defs>
<use x="25.33" y="108.01" xlink:href="#tclef"/>
<g font-family="serif" font-size="16" font-weight="bold" font-style="normal"
	transform="translate(43.83,108.01) scale(1.2,1)">
	<text y="-1" text-anchor="middle">4</text>
	<text y="-13" text-anchor="middle">3</text>
</g>
<path fill="currentColor"
	d="M65.03 87.01l11.80 0.00v3.20l-11.80 -0.00"/>
<defs>
<ellipse id="hd" rx="4.1" ry="2.9"
	transform="rotate(-20)" fill="currentColor"/>
</defs>
<use x="61.83" y="108.01" xlink:href="#hd"/>
<path d="M65.33 108.01v-20.00" stroke="currentColor" fill="none"/>
<use x="72.93" y="108.01" xlink:href="#hd"/>
<path d="M76.43 108.01v-20.00" stroke="currentColor" fill="none"/>
<use x="105.93" y="102.01" xlink:href="#hd"/>
<circle fill="currentColor" cx="113.93" cy="99.01" r="1.2"/>
<path d="M109.43 102.01v-20.00" stroke="currentColor" fill="none"/>
<path fill="currentColor"
	d="M129.13 79.71l22.90 3.70v3.20l-22.90 -3.70"/>
<use x="126.03" y="99.01" xlink:href="#hd"/>
<path d="M129.53 99.01v-18.20" stroke="currentColor" fill="none"/>
<use x="137.13" y="102.01" xlink:href="#hd"/>
<path d="M140.63 102.01v-19.40" stroke="currentColor" fill="none"/>
<use x="148.23" y="108.01" xlink:href="#hd"/>
<path d="M151.73 108.01v-23.60" stroke="currentColor" fill="none"/>
<defs>
<path id="hl" stroke="currentColor" d="m-6 0h12"/>
</defs>
<use x="171.23" y="114.01" xlink:href="#hl"/>
<use x="171.23" y="114.01" xlink:href="#hd"/>
<path d="M174.73 114.01v-20.00" stroke="currentColor" fill="none"/>
<path fill="currentColor"
	d="M189.63 75.21l34.00 -7.40v3.20l-34.00 7.40"/>
<use x="186.43" y="108.01" xlink:href="#hd"/>
<path d="M189.93 108.01v-31.90" stroke="currentColor" fill="none"/>
<use x="197.53" y="102.01" xlink:href="#hd"/>
<path d="M201.03 102.01v-28.30" stroke="currentColor" fill="none"/>
<use x="208.73" y="93.01" xlink:href="#hd"/>
<path d="M212.23 93.01v-21.80" stroke="currentColor" fill="none"/>
<use x="219.83" y="87.01" xlink:href="#hd"/>
<path d="M223.33 87.01v-18.20" stroke="currentColor" fill="none"/>
<use x="242.83" y="84.01" xlink:href="#hd"/>
<path d="M239.33 84.01v20.00" stroke="currentColor" fill="none"/>
<path fill="currentColor"
	d="M254.23 118.01l34.00 4.80v-3.20l-34.00 -4.80"/>
<use x="258.03" y="90.01" xlink:href="#hd"/>
<path d="M254.53 90.01v27.10" stroke="currentColor" fill="none"/>
<use x="269.13" y="84.01" xlink:href="#hd"/>
<path d="M265.63 84.01v34.60" stroke="currentColor" fill="none"/>
<use x="280.33" y="102.01" xlink:href="#hd"/>
<path d="M276.83 102.01v18.20" stroke="currentColor" fill="none"/>
<use x="291.43" y="96.01" xlink:href="#hd"/>
<path d="M287.93 96.01v25.80" stroke="currentColor" fill="none"/>
<use x="314.43" y="99.01" xlink:href="#hd"/>
<path d="M317.93 99.01v-20.00" stroke="currentColor" fill="none"/>
<use x="329.63" y="102.01" xlink:href="#hd"/>
<path d="M333.13 102.01v-20.00" stroke="currentColor" fill="none"/>
<use x="344.83" y="102.01" xlink:href="#hd"/>
<path d="M348.33 102.01v-20.00" stroke="currentColor" fill="none"/>
<path fill="currentColor"
	d="M373.73 67.81l56.20 0.00v3.20l-56.20 -0.00"/>
<use x="370.53" y="99.01" xlink:href="#hd"/>
<path d="M374.03 99.01v-30.20" stroke="currentColor" fill="none"/>
<use x="381.63" y="102.01" xlink:href="#hd"/>
<path d="M385.13 102.01v-33.20" stroke="currentColor" fill="none"/>
<use x="392.73" y="87.01" xlink:href="#hd"/>
<path d="M396.23 87.01v-18.20" stroke="currentColor" fill="none"/>
<use x="403.93" y="105.01" xlink:href="#hd"/>
<path d="M407.43 105.01v-36.20" stroke="currentColor" fill="none"/>
<use x="415.03" y="90.01" xlink:href="#hd"/>
<path d="M418.53 90.01v-21.20" stroke="currentColor" fill="none"/>
<use x="426.13" y="111.01" xlink:href="#hd"/>
<path d="M429.63 111.01v-42.20" stroke="currentColor" fill="none"/>
<use x="449.13" y="105.01" xlink:href="#hd"/>
<path d="M452.63 105.01v-20.00" stroke="currentColor" fill="none"/>
<use x="465.43" y="96.01" xlink:href="#hd"/>
<path d="M461.93 96.01v20.00" stroke="currentColor" fill="none"/>
<use x="479.53" y="105.01" xlink:href="#hd"/>
<path d="M483.03 105.01v-20.00" stroke="currentColor" fill="none"/>
<path fill="currentColor"
	d="M508.33 73.81l56.20 0.00v3.20l-56.20 -0.00"/>
<use x="505.23" y="114.01" xlink:href="#hl"/>
<use x="505.23" y="114.01" xlink:href="#hd"/>
<path d="M508.73 114.01v-39.20" stroke="currentColor" fill="none"/>
<use x="516.33" y="108.01" xlink:href="#hd"/>
<path d="M519.83 108.01v-33.20" stroke="currentColor" fill="none"/>
<use x="527.43" y="102.01" xlink:href="#hd"/>
<path d="M530.93 102.01v-27.20" stroke="currentColor" fill="none"/>
<use x="538.53" y="93.01" xlink:href="#hd"/>
<path d="M542.03 93.01v-18.20" stroke="currentColor" fill="none"/>
<use x="549.63" y="108.01" xlink:href="#hd"/>
<path d="M553.13 108.01v-33.20" stroke="currentColor" fill="none"/>
<use x="560.73" y="102.01" xlink:href="#hd"/>
<path d="M564.23 102.01v-27.20" stroke="currentColor" fill="none"/>
<defs>
<path id="Hd" fill="currentColor" d="m3 -1.6
	c-1 -1.8 -7 1.4 -6 3.2
	c1 1.8 7 -1.4 6 -3.2
	m0.5 -0.3
	c2 3.8 -5 7.6 -7 3.8
	c-2 -3.8 5 -7.6 7 -3.8"/>
</defs>
<use x="584.33" y="93.01" xlink:href="#Hd"/>
<path d="M580.83 93.01v20.00" stroke="currentColor" fill="none"/>
<use x="602.83" y="102.01" xlink:href="#hd"/>
<path d="M606.33 102.01v-20.00" stroke="currentColor" fill="none"/>
<use x="635.83" y="96.01" xlink:href="#hd"/>
<path d="M639.33 96.01v-20.00" stroke="currentColor" fill="none"/>
<path fill="currentColor"
	d="M654.23 73.81l34.00 0.00v3.20l-34.00 -0.00"/>
<use x="651.03" y="99.01" xlink:href="#hd"/>
<path d="M654.53 99.01v-24.20" stroke="currentColor" fill="none"/>
<use x="662.13" y="93.01" xlink:href="#hd"/>
<path d="M665.63 93.01v-18.20" stroke="currentColor" fill="none"/>
<use x="673.33" y="96.01" xlink:href="#hd"/>
<path d="M676.83 96.01v-21.20" stroke="currentColor" fill="none"/>
<use x="684.43" y="99.01" xlink:href="#hd"/>
<path d="M687.93 99.01v-24.20" stroke="currentColor" fill="none"/>
<path stroke="currentColor" fill="none"
	d="M128.83 184.01v-24.00"/>
<path stroke="currentColor" fill="none"
	d="M204.73 184.01v-24.00"/>
<path stroke="currentColor" fill="none"
	d="M289.43 184.01v-24.00"/>
<path stroke="currentColor" fill="none"
	d="M372.43 184.01v-24.00"/>
<path stroke="currentColor" fill="none"
	d="M457.13 184.01v-24.00"/>
<path stroke="currentColor" fill="none"
	d="M540.13 184.01v-24.00"/>
<path stroke="currentColor" fill="none"
	d="M624.83 184.01v-24.00"/>
<path stroke="currentColor" fill="none" stroke-width="3"
	d="M693.43 184.01v-24.00"/>
<path stroke="currentColor" fill="none"
	d="M688.93 184.01v-24.00"/>
<path stroke="currentColor" fill="none"
	d="M13.33 184.01h681.60m-681.60 -6h681.60m-681.60 -6h681.60m-681.60 -6h681.60m-681.60 -6h681.60"/>
</g>
<g transform="scale(0.750)" stroke-width="0.70" font-family="Helvetica" font-size="12.00">
<text x="43.33" y="142.61">G7</text>
<text x="298.43" y="142.61">C</text>
<text x="549.63" y="142.61">F</text>
<use x="25.33" y="184.01" xlink:href="#tclef"/>
<path fill="currentColor"
	d="M53.03 154.71l67.50 -7.90v3.20l-67.50 7.90"/>
<use x="49.83" y="184.01" xlink:href="#hd"/>
<path d="M53.33 184.01v-28.30" stroke="currentColor" fill="none"/>
<use x="63.23" y="178.01" xlink:href="#hd"/>
<path d="M66.73 178.01v-23.90" stroke="currentColor" fill="none"/>
<use x="76.53" y="175.01" xlink:href="#hd"/>
<path d="M80.03 175.01v-22.50" stroke="currentColor" fill="none"/>
<use x="89.93" y="172.01" xlink:href="#hd"/>
<path d="M93.43 172.01v-21.10" stroke="currentColor" fill="none"/>
<use x="103.33" y="169.01" xlink:href="#hd"/>
<path d="M106.83 169.01v-19.60" stroke="currentColor" fill="none"/>
<use x="116.63" y="166.01" xlink:href="#hd"/>
<path d="M120.13 166.01v-18.20" stroke="currentColor" fill="none"/>
<path fill="currentColor"
	d="M137.53 191.31l14.00 -3.30v-3.20l-14.00 3.30"/>
<use x="141.33" y="172.01" xlink:href="#hd"/>
<path d="M137.83 172.01v18.20" stroke="currentColor" fill="none"/>
<use x="154.73" y="166.01" xlink:href="#hd"/>
<path d="M151.23 166.01v21.00" stroke="currentColor" fill="none"/>
<use x="168.03" y="181.01" xlink:href="#hd"/>
<circle fill="currentColor" cx="176.03" cy="181.01" r="1.2"/>
<path d="M171.53 181.01v-20.00" stroke="currentColor" fill="none"/>
<use x="192.53" y="172.01" xlink:href="#hd"/>
<path d="M189.03 172.01v20.00" stroke="currentColor" fill="none"/>
<path fill="currentColor"
	d="M189.03 192.01c0.6 -5.6 9.6 -9 5.6 -18.4
	c1.6 6 -1.3 11.6 -5.6 12.8
"/>
<use x="217.23" y="175.01" xlink:href="#hd"/>
<path d="M220.73 175.01v-20.00" stroke="currentColor" fill="none"/>
<path fill="currentColor"
	d="M240.33 144.11l40.80 -5.00v3.20l-40.80 5.00"/>
<use x="237.23" y="178.01" xlink:href="#hd"/>
<path d="M240.73 178.01v-32.90" stroke="currentColor" fill="none"/>
<use x="250.53" y="178.01" xlink:href="#hd"/>
<path d="M254.03 178.01v-34.60" stroke="currentColor" fill="none"/>
<use x="263.93" y="160.01" xlink:href="#hd"/>
<path d="M267.43 160.01v-18.20" stroke="currentColor" fill="none"/>
<use x="277.23" y="172.01" xlink:href="#hd"/>
<path d="M280.73 172.01v-31.80" stroke="currentColor" fill="none"/>
<use x="301.93" y="169.01" xlink:href="#hd"/>
<path d="M298.43 169.01v20.00" stroke="currentColor" fill="none"/>
<path fill="currentColor"
	d="M323.23 151.71l40.80 -8.00v3.20l-40.80 8.00"/>
<use x="320.13" y="184.01" xlink:href="#hd"/>
<path d="M323.63 184.01v-31.30" stroke="currentColor" fill="none"/>
<use x="333.53" y="178.01" xlink:href="#hd"/>
<path d="M337.03 178.01v-28.00" stroke="currentColor" fill="none"/>
<use x="346.83" y="169.01" xlink:href="#hd"/>
<path d="M350.33 169.01v-21.60" stroke="currentColor" fill="none"/>
<use x="360.23" y="163.01" xlink:href="#hd"/>
<path d="M363.73 163.01v-18.20" stroke="currentColor" fill="none"/>
<use x="384.93" y="157.01" xlink:href="#hd"/>
<path d="M381.43 157.01v20.00" stroke="currentColor" fill="none"/>
<path fill="currentColor"
	d="M401.03 184.21l40.80 0.00v-3.20l-40.80 -0.00"/>
<use x="404.83" y="163.01" xlink:href="#hd"/>
<path d="M401.33 163.01v20.20" stroke="currentColor" fill="none"/>
<use x="418.23" y="160.01" xlink:href="#hd"/>
<path d="M414.73 160.01v23.20" stroke="currentColor" fill="none"/>
<use x="431.63" y="163.01" xlink:href="#hd"/>
<path d="M428.13 163.01v20.20" stroke="currentColor" fill="none"/>
<use x="444.93" y="166.01" xlink:href="#hd"/>
<path d="M441.43 166.01v17.20" stroke="currentColor" fill="none"/>
<use x="469.63" y="169.01" xlink:href="#hd"/>
<path d="M466.13 169.01v20.00" stroke="currentColor" fill="none"/>
<path fill="currentColor"
	d="M490.93 157.01l40.80 0.00v3.20l-40.80 -0.00"/>
<use x="487.83" y="175.01" xlink:href="#hd"/>
<path d="M491.33 175.01v-17.00" stroke="currentColor" fill="none"/>
<use x="501.13" y="178.01" xlink:href="#hd"/>
<path d="M504.63 178.01v-20.00" stroke="currentColor" fill="none"/>
<use x="514.53" y="184.01" xlink:href="#hd"/>
<path d="M518.03 184.01v-26.00" stroke="currentColor" fill="none"/>
<use x="527.93" y="178.01" xlink:href="#hd"/>
<path d="M531.43 178.01v-20.00" stroke="currentColor" fill="none"/>
<use x="552.63" y="181.01" xlink:href="#hd"/>
<path d="M556.13 181.01v-20.00" stroke="currentColor" fill="none"/>
<path fill="currentColor"
	d="M575.73 157.01l40.80 0.00v3.20l-40.80 -0.00"/>
<use x="572.53" y="184.01" xlink:href="#hd"/>
<path d="M576.03 184.01v-26.00" stroke="currentColor" fill="none"/>
<use x="585.93" y="181.01" xlink:href="#hd"/>
<path d="M589.43 181.01v-23.00" stroke="currentColor" fill="none"/>
<use x="599.33" y="175.01" xlink:href="#hd"/>
<path d="M602.83 175.01v-17.00" stroke="currentColor" fill="none"/>
<use x="612.63" y="178.01" xlink:href="#hd"/>
<path d="M616.13 178.01v-20.00" stroke="currentColor" fill="none"/>
<use x="637.33" y="181.01" xlink:href="#hd"/>
<path d="M640.83 181.01v-20.00" stroke="currentColor" fill="none"/>
<defs>
<path id="r4" fill="currentColor" d="m-1 -8.5
	l3.6 5.1 -2.1 5.2 2.2 4.3
	c-2.6 -2.3 -5.1 0 -2.4 2.6
	c-4.8 -3 -1.5 -6.9 1.4 -4.1
	l-3.1 -4.5 1.9 -5.1 -1.5 -3.5"/>
</defs>
<use x="657.33" y="172.01" xlink:href="#r4"/>
<use x="677.33" y="172.01" xlink:href="#r4"/>
</g>
</svg>
