<?xml version="1.0" standalone="no"?>
<!DOCTYPE svg PUBLIC "-//W3C//DTD SVG 1.1//EN"
	"http://www.w3.org/Graphics/SVG/1.1/DTD/svg11.dtd">
<svg xmlns="http://www.w3.org/2000/svg" version="1.1"
	xmlns:xlink="http://www.w3.org/1999/xlink"
	xml:space='preserve' color="black"
	width="7.38in" height="4.68in" viewBox="0 0 531 337">
<title>data/results/biggest_11/abc/47.abc (47) tune 1</title>
<!-- Creator: abcm2ps-7.8.14 -->
<!-- CreationDate: Aug  9, 2015 23:50 -->
<!-- CommandLine: -g data/results/biggest_11/abc/47.abc -O /home/allanino/Dropbox/Trabalhos/folkme/svg/47.svg -->
<g transform="scale(0.750)" stroke-width="0.70" font-family="Times" font-size="20.00">
<text x="354.13" y="21.67" text-anchor="middle">Ländler C chords</text>
<path stroke="currentColor" fill="none"
	d="M126.43 104.01v-24.00"/>
<path stroke="currentColor" fill="none"
	d="M192.63 104.01v-24.00"/>
<path stroke="currentColor" fill="none"
	d="M258.83 104.01v-24.00"/>
<path stroke="currentColor" fill="none"
	d="M313.73 104.01v-24.00"/>
<path stroke="currentColor" fill="none"
	d="M370.83 104.01v-24.00"/>
<path stroke="currentColor" fill="none"
	d="M437.03 104.01v-24.00"/>
<path stroke="currentColor" fill="none"
	d="M491.93 104.01v-24.00"/>
<path stroke="currentColor" fill="none"
	d="M548.93 104.01v-24.00"/>
<path stroke="currentColor" fill="none"
	d="M638.53 104.01v-24.00"/>
<path stroke="currentColor" fill="none"
	d="M694.93 104.01v-24.00"/>
<path stroke="currentColor" fill="none"
	d="M691.93 104.01v-24.00"/>
<path stroke="currentColor" fill="none"
	d="M13.33 104.01h681.60m-681.60 -6h681.60m-681.60 -6h681.60m-681.60 -6h681.60m-681.60 -6h681.60"/>
</g>
<g transform="scale(0.750)" stroke-width="0.70" font-family="Helvetica" font-size="12.00">
<text x="58.33" y="62.61">C</text>
<text x="198.73" y="62.61">G7</text>
<text x="379.83" y="62.61">C</text>
<text x="554.93" y="62.61">G7</text>
<defs>
<path id="utclef" fill="currentColor" d="m-50 -90
	c-72 -41 -72 -158 52 -188
	c150 -10 220 188 90 256
	c-114 52 -275 0 -293 -136
	c-15 -181 93 -229 220 -334
	c88 -87 79 -133 62 -210
	c-51 33 -94 105 -89 186
	c17 267 36 374 49 574
	c6 96 -19 134 -77 135
	c-80 1 -126 -93 -61 -133
	c85 -41 133 101 31 105
	c23 17 92 37 90 -92
	c-10 -223 -39 -342 -50 -617
	c0 -90 0 -162 96 -232
	c56 72 63 230 22 289
	c-74 106 -257 168 -255 316
	c9 153 148 185 252 133
	c86 -65 29 -192 -80 -176
	c-71 12 -105 67 -59 124"/>
<use id="tclef" transform="scale(0.045)"
	xlink:href="#utclef"/>
</defs>
<use x="25.33" y="104.01" xlink:href="#tclef"/>
<g font-family="serif" font-size="16" font-weight="bold" font-style="normal"
	transform="translate(43.83,104.01) scale(1.2,1)">
	<text y="-1" text-anchor="middle">4</text>
	<text y="-13" text-anchor="middle">3</text>
</g>
<path fill="currentColor"
	d="M58.03 98.21l42.80 0.00v-3.20l-42.80 -0.00"/>
<path fill="currentColor"
	d="M68.83 93.21l6.00 0.00v-3.20l-6.00 -0.00"/>
<path fill="currentColor"
	d="M94.43 93.21l6.00 0.00v-3.20l-6.00 -0.00"/>
<defs>
<ellipse id="hd" rx="4.1" ry="2.9"
	transform="rotate(-20)" fill="currentColor"/>
</defs>
<use x="61.83" y="77.01" xlink:href="#hd"/>
<circle fill="currentColor" cx="69.83" cy="77.01" r="1.2"/>
<path d="M58.33 77.01v20.20" stroke="currentColor" fill="none"/>
<defs>
<path id="hl" stroke="currentColor" d="m-6 0h12"/>
</defs>
<use x="78.33" y="74.01" xlink:href="#hl"/>
<use x="78.33" y="74.01" xlink:href="#hd"/>
<path d="M74.83 74.01v23.20" stroke="currentColor" fill="none"/>
<use x="87.43" y="77.01" xlink:href="#hd"/>
<circle fill="currentColor" cx="95.43" cy="77.01" r="1.2"/>
<path d="M83.93 77.01v20.20" stroke="currentColor" fill="none"/>
<use x="103.93" y="74.01" xlink:href="#hl"/>
<use x="103.93" y="74.01" xlink:href="#hd"/>
<path d="M100.43 74.01v23.20" stroke="currentColor" fill="none"/>
<use x="113.53" y="77.01" xlink:href="#hd"/>
<path d="M110.03 77.01v20.00" stroke="currentColor" fill="none"/>
<path fill="currentColor"
	d="M135.03 106.01l17.20 0.00v-3.20l-17.20 -0.00"/>
<path fill="currentColor"
	d="M145.93 101.01l6.00 0.00v-3.20l-6.00 -0.00"/>
<use x="138.93" y="83.01" xlink:href="#hd"/>
<circle fill="currentColor" cx="146.93" cy="83.01" r="1.2"/>
<path d="M135.43 83.01v22.00" stroke="currentColor" fill="none"/>
<use x="155.43" y="83.01" xlink:href="#hd"/>
<path d="M151.93 83.01v22.00" stroke="currentColor" fill="none"/>
<use x="165.03" y="86.01" xlink:href="#hd"/>
<path d="M161.53 86.01v20.00" stroke="currentColor" fill="none"/>
<use x="179.73" y="89.01" xlink:href="#hd"/>
<path d="M176.23 89.01v20.00" stroke="currentColor" fill="none"/>
<path fill="currentColor"
	d="M201.33 111.31l17.20 -5.50v-3.20l-17.20 5.50"/>
<path fill="currentColor"
	d="M212.13 102.81l6.00 -1.90v-3.20l-6.00 1.90"/>
<use x="205.13" y="92.01" xlink:href="#hd"/>
<circle fill="currentColor" cx="213.13" cy="89.01" r="1.2"/>
<path d="M201.63 92.01v18.20" stroke="currentColor" fill="none"/>
<use x="221.63" y="77.01" xlink:href="#hd"/>
<path d="M218.13 77.01v27.90" stroke="currentColor" fill="none"/>
<use x="231.23" y="80.01" xlink:href="#hd"/>
<path d="M227.73 80.01v20.00" stroke="currentColor" fill="none"/>
<use x="245.93" y="83.01" xlink:href="#hd"/>
<path d="M242.43 83.01v20.00" stroke="currentColor" fill="none"/>
<use x="271.33" y="86.01" xlink:href="#hd"/>
<path d="M267.83 86.01v20.00" stroke="currentColor" fill="none"/>
<use x="286.13" y="89.01" xlink:href="#hd"/>
<path d="M282.63 89.01v20.00" stroke="currentColor" fill="none"/>
<use x="300.83" y="92.01" xlink:href="#hd"/>
<path d="M297.33 92.01v20.00" stroke="currentColor" fill="none"/>
<path fill="currentColor"
	d="M329.43 73.31l17.20 -3.60v3.20l-17.20 3.60"/>
<path fill="currentColor"
	d="M340.23 76.11l6.00 -1.30v3.20l-6.00 1.30"/>
<use x="326.23" y="98.01" xlink:href="#hd"/>
<circle fill="currentColor" cx="334.23" cy="95.01" r="1.2"/>
<path d="M329.73 98.01v-23.70" stroke="currentColor" fill="none"/>
<use x="342.73" y="92.01" xlink:href="#hd"/>
<path d="M346.23 92.01v-21.20" stroke="currentColor" fill="none"/>
<defs>
<path id="Hd" fill="currentColor" d="m3 -1.6
	c-1 -1.8 -7 1.4 -6 3.2
	c1 1.8 7 -1.4 6 -3.2
	m0.5 -0.3
	c2 3.8 -5 7.6 -7 3.8
	c-2 -3.8 5 -7.6 7 -3.8"/>
</defs>
<use x="354.23" y="86.01" xlink:href="#Hd"/>
<path d="M350.73 86.01v20.00" stroke="currentColor" fill="none"/>
<path fill="currentColor"
	d="M379.53 103.81l17.20 -3.60v-3.20l-17.20 3.60"/>
<path fill="currentColor"
	d="M390.33 96.51l6.00 -1.30v-3.20l-6.00 1.30"/>
<use x="383.33" y="83.01" xlink:href="#hd"/>
<circle fill="currentColor" cx="391.33" cy="83.01" r="1.2"/>
<path d="M379.83 83.01v19.70" stroke="currentColor" fill="none"/>
<use x="399.83" y="77.01" xlink:href="#hd"/>
<path d="M396.33 77.01v22.30" stroke="currentColor" fill="none"/>
<use x="409.43" y="74.01" xlink:href="#hl"/>
<use x="409.43" y="68.01" xlink:href="#hl"/>
<use x="409.43" y="68.01" xlink:href="#hd"/>
<path d="M405.93 68.01v24.00" stroke="currentColor" fill="none"/>
<use x="424.13" y="83.01" xlink:href="#hd"/>
<path d="M420.63 83.01v20.00" stroke="currentColor" fill="none"/>
<use x="449.53" y="77.01" xlink:href="#hd"/>
<path d="M446.03 77.01v20.00" stroke="currentColor" fill="none"/>
<use x="464.33" y="89.01" xlink:href="#hd"/>
<path d="M460.83 89.01v20.00" stroke="currentColor" fill="none"/>
<use x="479.03" y="83.01" xlink:href="#hd"/>
<path d="M475.53 83.01v20.00" stroke="currentColor" fill="none"/>
<use x="504.43" y="77.01" xlink:href="#hd"/>
<circle fill="currentColor" cx="512.43" cy="77.01" r="1.2"/>
<path d="M500.93 77.01v20.00" stroke="currentColor" fill="none"/>
<use x="524.33" y="89.01" xlink:href="#hd"/>
<path d="M520.83 89.01v20.00" stroke="currentColor" fill="none"/>
<path fill="currentColor"
	d="M520.83 109.01c0.6 -5.6 9.6 -9 5.6 -18.4
	c1.6 6 -1.3 11.6 -5.6 12.8
"/>
<use x="536.03" y="83.01" xlink:href="#hd"/>
<path d="M532.53 83.01v20.00" stroke="currentColor" fill="none"/>
<path fill="currentColor"
	d="M557.63 106.01l68.30 0.00v-3.20l-68.30 -0.00"/>
<path fill="currentColor"
	d="M568.43 101.01l6.00 0.00v-3.20l-6.00 -0.00"/>
<path fill="currentColor"
	d="M594.03 101.01l6.00 0.00v-3.20l-6.00 -0.00"/>
<path fill="currentColor"
	d="M619.53 101.01l6.00 0.00v-3.20l-6.00 -0.00"/>
<use x="561.43" y="80.01" xlink:href="#hd"/>
<circle fill="currentColor" cx="569.43" cy="77.01" r="1.2"/>
<path d="M557.93 80.01v25.00" stroke="currentColor" fill="none"/>
<use x="577.93" y="80.01" xlink:href="#hd"/>
<path d="M574.43 80.01v25.00" stroke="currentColor" fill="none"/>
<use x="587.03" y="83.01" xlink:href="#hd"/>
<circle fill="currentColor" cx="595.03" cy="83.01" r="1.2"/>
<path d="M583.53 83.01v22.00" stroke="currentColor" fill="none"/>
<use x="603.53" y="86.01" xlink:href="#hd"/>
<path d="M600.03 86.01v19.00" stroke="currentColor" fill="none"/>
<use x="612.53" y="83.01" xlink:href="#hd"/>
<circle fill="currentColor" cx="620.53" cy="83.01" r="1.2"/>
<path d="M609.03 83.01v22.00" stroke="currentColor" fill="none"/>
<use x="629.03" y="80.01" xlink:href="#hd"/>
<path d="M625.53 80.01v25.00" stroke="currentColor" fill="none"/>
<use x="651.03" y="77.01" xlink:href="#hd"/>
<path d="M647.53 77.01v20.00" stroke="currentColor" fill="none"/>
<use x="665.83" y="77.01" xlink:href="#hd"/>
<path d="M662.33 77.01v20.00" stroke="currentColor" fill="none"/>
<defs>
<path id="r4" fill="currentColor" d="m-1 -8.5
	l3.6 5.1 -2.1 5.2 2.2 4.3
	c-2.6 -2.3 -5.1 0 -2.4 2.6
	c-4.8 -3 -1.5 -6.9 1.4 -4.1
	l-3.1 -4.5 1.9 -5.1 -1.5 -3.5"/>
</defs>
<use x="680.53" y="92.01" xlink:href="#r4"/>
<path stroke="currentColor" fill="none"
	d="M144.33 177.01v-24.00"/>
<path stroke="currentColor" fill="none"
	d="M248.73 177.01v-24.00"/>
<path stroke="currentColor" fill="none"
	d="M353.03 177.01v-24.00"/>
<path stroke="currentColor" fill="none"
	d="M445.53 177.01v-24.00"/>
<path stroke="currentColor" fill="none"
	d="M561.53 177.01v-24.00"/>
<path stroke="currentColor" fill="none"
	d="M694.93 177.01v-24.00"/>
<path stroke="currentColor" fill="none"
	d="M13.33 177.01h681.60m-681.60 -6h681.60m-681.60 -6h681.60m-681.60 -6h681.60m-681.60 -6h681.60"/>
<text x="46.33" y="138.61">C</text>
<text x="254.83" y="138.61">G7</text>
<use x="25.33" y="177.01" xlink:href="#tclef"/>
<path fill="currentColor"
	d="M46.03 173.01l23.00 0.00v-3.20l-23.00 -0.00"/>
<path fill="currentColor"
	d="M62.73 168.01l6.00 0.00v-3.20l-6.00 -0.00"/>
<use x="49.83" y="150.01" xlink:href="#hd"/>
<circle fill="currentColor" cx="57.83" cy="150.01" r="1.2"/>
<path d="M46.33 150.01v22.00" stroke="currentColor" fill="none"/>
<use x="72.23" y="150.01" xlink:href="#hd"/>
<path d="M68.73 150.01v22.00" stroke="currentColor" fill="none"/>
<use x="90.23" y="153.01" xlink:href="#hd"/>
<defs>
<path id="usharp" fill="currentColor" d="
	m136 -702
	v890
	h32
	v-890
	m128 840
	h32
	v-888
	h-32
	m-232 286
	v116
	l338 -96
	v-116
	m-338 442
	v116
	l338 -98
	v-114"/>
<use id="sh0" transform="translate(-4,5) scale(0.018)"
	xlink:href="#usharp"/>
</defs>
<use x="81.23" y="153.01" xlink:href="#sh0"/>
<path d="M86.73 153.01v20.00" stroke="currentColor" fill="none"/>
<use x="120.13" y="150.01" xlink:href="#hd"/>
<path d="M116.63 150.01v20.00" stroke="currentColor" fill="none"/>
<path fill="currentColor"
	d="M152.93 167.01l23.10 0.00v-3.20l-23.10 -0.00"/>
<path fill="currentColor"
	d="M169.73 162.01l6.00 0.00v-3.20l-6.00 -0.00"/>
<use x="156.83" y="147.01" xlink:href="#hl"/>
<use x="156.83" y="141.01" xlink:href="#hl"/>
<use x="156.83" y="141.01" xlink:href="#hd"/>
<circle fill="currentColor" cx="164.83" cy="138.01" r="1.2"/>
<path d="M153.33 141.01v25.00" stroke="currentColor" fill="none"/>
<use x="179.23" y="147.01" xlink:href="#hl"/>
<use x="179.23" y="144.01" xlink:href="#hd"/>
<path d="M175.73 144.01v22.00" stroke="currentColor" fill="none"/>
<use x="194.63" y="147.01" xlink:href="#hl"/>
<use x="194.63" y="147.01" xlink:href="#hd"/>
<path d="M191.13 147.01v20.00" stroke="currentColor" fill="none"/>
<use x="224.63" y="156.01" xlink:href="#hd"/>
<path d="M221.13 156.01v20.00" stroke="currentColor" fill="none"/>
<path fill="currentColor"
	d="M257.43 177.21l23.00 0.00v-3.20l-23.00 -0.00"/>
<path fill="currentColor"
	d="M274.13 172.21l6.00 0.00v-3.20l-6.00 -0.00"/>
<use x="261.23" y="153.01" xlink:href="#hd"/>
<circle fill="currentColor" cx="269.23" cy="150.01" r="1.2"/>
<path d="M257.73 153.01v23.20" stroke="currentColor" fill="none"/>
<use x="283.63" y="153.01" xlink:href="#hd"/>
<path d="M280.13 153.01v23.20" stroke="currentColor" fill="none"/>
<use x="298.93" y="156.01" xlink:href="#hd"/>
<path d="M295.43 156.01v20.00" stroke="currentColor" fill="none"/>
<use x="328.83" y="159.01" xlink:href="#hd"/>
<path d="M325.33 159.01v20.00" stroke="currentColor" fill="none"/>
<use x="365.53" y="159.01" xlink:href="#hd"/>
<circle fill="currentColor" cx="373.53" cy="156.01" r="1.2"/>
<path d="M362.03 159.01v20.00" stroke="currentColor" fill="none"/>
<use x="400.03" y="162.01" xlink:href="#hd"/>
<path d="M396.53 162.01v20.00" stroke="currentColor" fill="none"/>
<path fill="currentColor"
	d="M396.53 182.01c0.6 -5.6 9.6 -9 5.6 -18.4
	c1.6 6 -1.3 11.6 -5.6 12.8
"/>
<use x="421.43" y="147.01" xlink:href="#hl"/>
<use x="421.43" y="144.01" xlink:href="#hd"/>
<path d="M417.93 144.01v21.00" stroke="currentColor" fill="none"/>
<path fill="currentColor"
	d="M454.13 171.21l58.70 0.00v-3.20l-58.70 -0.00"/>
<use x="458.03" y="147.01" xlink:href="#hl"/>
<use x="458.03" y="144.01" xlink:href="#hd"/>
<path d="M454.53 144.01v26.20" stroke="currentColor" fill="none"/>
<use x="477.43" y="147.01" xlink:href="#hl"/>
<use x="477.43" y="147.01" xlink:href="#hd"/>
<path d="M473.93 147.01v23.20" stroke="currentColor" fill="none"/>
<use x="496.73" y="153.01" xlink:href="#hd"/>
<path d="M493.23 153.01v17.20" stroke="currentColor" fill="none"/>
<use x="516.03" y="147.01" xlink:href="#hl"/>
<use x="516.03" y="147.01" xlink:href="#hd"/>
<path d="M512.53 147.01v23.20" stroke="currentColor" fill="none"/>
<use x="537.33" y="159.01" xlink:href="#hd"/>
<path d="M533.83 159.01v20.00" stroke="currentColor" fill="none"/>
<path fill="currentColor"
	d="M576.13 177.21l98.40 0.00v-3.20l-98.40 -0.00"/>
<use x="580.03" y="153.01" xlink:href="#hd"/>
<use x="571.03" y="153.01" xlink:href="#sh0"/>
<path d="M576.53 153.01v23.20" stroke="currentColor" fill="none"/>
<use x="599.33" y="150.01" xlink:href="#hd"/>
<path d="M595.83 150.01v26.20" stroke="currentColor" fill="none"/>
<use x="619.23" y="153.01" xlink:href="#hd"/>
<use x="610.23" y="153.01" xlink:href="#sh0"/>
<path d="M615.73 153.01v23.20" stroke="currentColor" fill="none"/>
<use x="638.53" y="150.01" xlink:href="#hd"/>
<path d="M635.03 150.01v26.20" stroke="currentColor" fill="none"/>
<use x="658.33" y="153.01" xlink:href="#hd"/>
<defs>
<path id="unat" fill="currentColor" d="
	m96 -750
	h-32
	v716
	l32 -8
	l182 -54
	v282
	h32
	v-706
	l-34 10
	l-180 50
	v-290
	m0 592
	v-190
	l182 -52
	v188"/>
<use id="nt0" transform="translate(-3,5) scale(0.018)"
	xlink:href="#unat"/>
</defs>
<use x="649.33" y="153.01" xlink:href="#nt0"/>
<path d="M654.83 153.01v23.20" stroke="currentColor" fill="none"/>
<use x="677.63" y="159.01" xlink:href="#hd"/>
<path d="M674.13 159.01v17.20" stroke="currentColor" fill="none"/>
<path stroke="currentColor" fill="none"
	d="M137.73 259.01v-24.00"/>
<path stroke="currentColor" fill="none"
	d="M234.93 259.01v-24.00"/>
<path stroke="currentColor" fill="none"
	d="M314.23 259.01v-24.00"/>
<defs>
<g id="rdots" fill="currentColor">
	<circle cx="0" cy="-9" r="1.2"/>
	<circle cx="0" cy="-15" r="1.2"/>
</g>
</defs>
<use x="395.33" y="259.01" xlink:href="#rdots"/>
<path stroke="currentColor" fill="none" stroke-width="3"
	d="M389.83 259.01v-24.00"/>
<path stroke="currentColor" fill="none" stroke-width="3"
	d="M383.83 259.01v-24.00"/>
<use x="378.33" y="259.01" xlink:href="#rdots"/>
<path stroke="currentColor" fill="none"
	d="M508.23 259.01v-24.00"/>
<path stroke="currentColor" fill="none"
	d="M599.13 259.01v-24.00"/>
<path stroke="currentColor" fill="none"
	d="M694.93 259.01v-24.00"/>
<path stroke="currentColor" fill="none"
	d="M13.33 259.01h681.60m-681.60 -6h681.60m-681.60 -6h681.60m-681.60 -6h681.60m-681.60 -6h681.60"/>
<text x="46.33" y="211.61">C</text>
<text x="240.93" y="211.61">G7</text>
<text x="323.23" y="211.61">C</text>
<text x="422.43" y="211.61">F</text>
<text x="514.93" y="211.61">B♭</text>
<text x="608.73" y="211.61">F</text>
<use x="25.33" y="259.01" xlink:href="#tclef"/>
<path fill="currentColor"
	d="M46.03 259.21l78.70 0.00v-3.20l-78.70 -0.00"/>
<path fill="currentColor"
	d="M58.03 254.21l6.00 0.00v-3.20l-6.00 -0.00"/>
<path fill="currentColor"
	d="M118.33 254.21l6.00 0.00v-3.20l-6.00 -0.00"/>
<use x="49.83" y="238.01" xlink:href="#hd"/>
<circle fill="currentColor" cx="57.83" cy="238.01" r="1.2"/>
<path d="M46.33 238.01v20.20" stroke="currentColor" fill="none"/>
<use x="67.53" y="235.01" xlink:href="#hd"/>
<path d="M64.03 235.01v23.20" stroke="currentColor" fill="none"/>
<use x="78.13" y="232.01" xlink:href="#hd"/>
<path d="M74.63 232.01v26.20" stroke="currentColor" fill="none"/>
<use x="96.13" y="235.01" xlink:href="#hd"/>
<use x="87.13" y="235.01" xlink:href="#sh0"/>
<path d="M92.63 235.01v23.20" stroke="currentColor" fill="none"/>
<use x="110.13" y="232.01" xlink:href="#hd"/>
<circle fill="currentColor" cx="118.13" cy="232.01" r="1.2"/>
<path d="M106.63 232.01v26.20" stroke="currentColor" fill="none"/>
<use x="127.83" y="229.01" xlink:href="#hl"/>
<use x="127.83" y="229.01" xlink:href="#hd"/>
<path d="M124.33 229.01v29.20" stroke="currentColor" fill="none"/>
<path fill="currentColor"
	d="M146.43 261.01l75.50 0.00v-3.20l-75.50 -0.00"/>
<path fill="currentColor"
	d="M158.43 256.01l6.00 0.00v-3.20l-6.00 -0.00"/>
<path fill="currentColor"
	d="M187.23 256.01l6.00 0.00v-3.20l-6.00 -0.00"/>
<path fill="currentColor"
	d="M215.53 256.01l6.00 0.00v-3.20l-6.00 -0.00"/>
<use x="150.23" y="232.01" xlink:href="#hd"/>
<circle fill="currentColor" cx="158.23" cy="232.01" r="1.2"/>
<path d="M146.73 232.01v28.00" stroke="currentColor" fill="none"/>
<use x="167.93" y="229.01" xlink:href="#hl"/>
<use x="167.93" y="226.01" xlink:href="#hd"/>
<path d="M164.43 226.01v34.00" stroke="currentColor" fill="none"/>
<use x="179.03" y="229.01" xlink:href="#hl"/>
<use x="179.03" y="229.01" xlink:href="#hd"/>
<circle fill="currentColor" cx="187.03" cy="226.01" r="1.2"/>
<path d="M175.53 229.01v31.00" stroke="currentColor" fill="none"/>
<use x="196.73" y="232.01" xlink:href="#hd"/>
<path d="M193.23 232.01v28.00" stroke="currentColor" fill="none"/>
<use x="207.33" y="235.01" xlink:href="#hd"/>
<circle fill="currentColor" cx="215.33" cy="232.01" r="1.2"/>
<path d="M203.83 235.01v25.00" stroke="currentColor" fill="none"/>
<use x="225.03" y="238.01" xlink:href="#hd"/>
<path d="M221.53 238.01v22.00" stroke="currentColor" fill="none"/>
<path fill="currentColor"
	d="M243.53 253.71l18.40 -2.30v-3.20l-18.40 2.30"/>
<path fill="currentColor"
	d="M255.63 247.11l6.00 -0.80v-3.20l-6.00 0.80"/>
<use x="247.43" y="232.01" xlink:href="#hd"/>
<circle fill="currentColor" cx="255.43" cy="232.01" r="1.2"/>
<path d="M243.93 232.01v20.60" stroke="currentColor" fill="none"/>
<use x="265.13" y="229.01" xlink:href="#hl"/>
<use x="265.13" y="229.01" xlink:href="#hd"/>
<path d="M261.63 229.01v21.40" stroke="currentColor" fill="none"/>
<use x="276.63" y="232.01" xlink:href="#hd"/>
<path d="M273.13 232.01v20.00" stroke="currentColor" fill="none"/>
<use x="297.13" y="247.01" xlink:href="#hd"/>
<path d="M293.63 247.01v20.00" stroke="currentColor" fill="none"/>
<use x="326.73" y="244.01" xlink:href="#hd"/>
<path d="M323.23 244.01v20.00" stroke="currentColor" fill="none"/>
<use x="347.33" y="229.01" xlink:href="#hl"/>
<use x="347.33" y="223.01" xlink:href="#hl"/>
<use x="347.33" y="223.01" xlink:href="#hd"/>
<path d="M343.83 223.01v24.00" stroke="currentColor" fill="none"/>
<use x="367.83" y="247.01" xlink:href="#r4"/>
<defs>
<path id="uflat" fill="currentColor" d="
	m100 -746
	h32
	v734
	l-32 4
	m32 -332
	c46 -72 152 -90 208 -20
	c100 110 -120 326 -208 348
	m0 -28
	c54 0 200 -206 130 -290
	c-50 -60 -130 -4 -130 34"/>
<use id="ft0" transform="translate(-3.5,3.5) scale(0.018)"
	xlink:href="#uflat"/>
</defs>
<use x="407.33" y="247.01" xlink:href="#ft0"/>
<path fill="currentColor"
	d="M421.53 256.01l70.70 0.00v-3.20l-70.70 -0.00"/>
<use x="425.33" y="229.01" xlink:href="#hl"/>
<use x="425.33" y="229.01" xlink:href="#hd"/>
<path d="M421.83 229.01v26.00" stroke="currentColor" fill="none"/>
<use x="439.33" y="232.01" xlink:href="#hd"/>
<path d="M435.83 232.01v23.00" stroke="currentColor" fill="none"/>
<use x="453.33" y="235.01" xlink:href="#hd"/>
<path d="M449.83 235.01v20.00" stroke="currentColor" fill="none"/>
<use x="467.33" y="238.01" xlink:href="#hd"/>
<path d="M463.83 238.01v17.00" stroke="currentColor" fill="none"/>
<use x="481.33" y="235.01" xlink:href="#hd"/>
<path d="M477.83 235.01v20.00" stroke="currentColor" fill="none"/>
<use x="495.33" y="238.01" xlink:href="#hd"/>
<path d="M491.83 238.01v17.00" stroke="currentColor" fill="none"/>
<path fill="currentColor"
	d="M516.93 262.01l46.70 0.00v-3.20l-46.70 -0.00"/>
<use x="520.73" y="241.01" xlink:href="#hd"/>
<path d="M517.23 241.01v20.00" stroke="currentColor" fill="none"/>
<use x="538.73" y="244.01" xlink:href="#hd"/>
<use x="529.73" y="244.01" xlink:href="#sh0"/>
<path d="M535.23 244.01v17.00" stroke="currentColor" fill="none"/>
<use x="552.73" y="241.01" xlink:href="#hd"/>
<path d="M549.23 241.01v20.00" stroke="currentColor" fill="none"/>
<use x="566.73" y="235.01" xlink:href="#hd"/>
<path d="M563.23 235.01v26.00" stroke="currentColor" fill="none"/>
<use x="582.03" y="229.01" xlink:href="#hl"/>
<use x="582.03" y="226.01" xlink:href="#hd"/>
<path d="M578.53 226.01v21.00" stroke="currentColor" fill="none"/>
<path fill="currentColor"
	d="M607.73 262.01l71.10 0.00v-3.20l-71.10 -0.00"/>
<use x="611.63" y="229.01" xlink:href="#hl"/>
<use x="611.63" y="229.01" xlink:href="#hd"/>
<path d="M608.13 229.01v32.00" stroke="currentColor" fill="none"/>
<use x="625.63" y="244.01" xlink:href="#hd"/>
<path d="M622.13 244.01v17.00" stroke="currentColor" fill="none"/>
<use x="639.63" y="235.01" xlink:href="#hd"/>
<path d="M636.13 235.01v26.00" stroke="currentColor" fill="none"/>
<use x="653.63" y="244.01" xlink:href="#hd"/>
<path d="M650.13 244.01v17.00" stroke="currentColor" fill="none"/>
<use x="667.63" y="229.01" xlink:href="#hl"/>
<use x="667.63" y="226.01" xlink:href="#hd"/>
<path d="M664.13 226.01v35.00" stroke="currentColor" fill="none"/>
<use x="682.03" y="229.01" xlink:href="#hl"/>
<use x="682.03" y="229.01" xlink:href="#hd"/>
<path d="M678.53 229.01v32.00" stroke="currentColor" fill="none"/>
<path stroke="currentColor" fill="none"
	d="M132.63 345.01v-24.00"/>
<path stroke="currentColor" fill="none"
	d="M211.63 345.01v-24.00"/>
<path stroke="currentColor" fill="none"
	d="M282.23 345.01v-24.00"/>
<path stroke="currentColor" fill="none"
	d="M376.93 345.01v-24.00"/>
<path stroke="currentColor" fill="none"
	d="M441.73 345.01v-24.00"/>
<path stroke="currentColor" fill="none"
	d="M536.13 345.01v-24.00"/>
<path stroke="currentColor" fill="none" stroke-width="3"
	d="M615.83 345.01v-24.00"/>
<path stroke="currentColor" fill="none"
	d="M611.33 345.01v-24.00"/>
<use x="607.33" y="345.01" xlink:href="#rdots"/>
<path stroke="currentColor" fill="none"
	d="M694.93 345.01v-24.00"/>
<path stroke="currentColor" fill="none"
	d="M13.33 345.01h681.60m-681.60 -6h681.60m-681.60 -6h681.60m-681.60 -6h681.60m-681.60 -6h681.60"/>
<text x="52.13" y="295.61">C7</text>
<text x="221.23" y="295.61">F</text>
<text x="381.53" y="295.61">Gm</text>
<text x="448.13" y="295.61">C7</text>
<text x="552.13" y="295.61">F</text>
<text x="633.33" y="295.61">F</text>
</g>
<g transform="scale(0.750)" stroke-width="0.70" font-family="Times" font-size="13.00">
<text x="540.13" y="295.41">1</text>
<path stroke="currentColor" fill="none"
	d="M536.13 284.01v20M536.13 284.01h73.20v20"/>
<text x="621.33" y="295.41">2</text>
<path stroke="currentColor" fill="none"
	d="M617.33 284.01v20M617.33 284.01h69.60"/>
<use x="25.33" y="345.01" xlink:href="#tclef"/>
<use x="40.33" y="333.01" xlink:href="#ft0"/>
<use x="58.33" y="318.01" xlink:href="#hd"/>
<path d="M54.83 318.01v20.00" stroke="currentColor" fill="none"/>
<path fill="currentColor"
	d="M75.03 352.71l26.20 2.50v-3.20l-26.20 -2.50"/>
<path fill="currentColor"
	d="M94.93 349.61l6.00 0.60v-3.20l-6.00 -0.60"/>
<use x="78.93" y="330.01" xlink:href="#hd"/>
<circle fill="currentColor" cx="86.93" cy="330.01" r="1.2"/>
<path d="M75.43 330.01v21.80" stroke="currentColor" fill="none"/>
<use x="104.43" y="333.01" xlink:href="#hd"/>
<use x="95.43" y="333.01" xlink:href="#nt0"/>
<path d="M100.93 333.01v21.20" stroke="currentColor" fill="none"/>
<use x="115.73" y="330.01" xlink:href="#hd"/>
<path d="M112.23 330.01v20.00" stroke="currentColor" fill="none"/>
<path fill="currentColor"
	d="M141.33 339.21l14.50 0.00v-3.20l-14.50 -0.00"/>
<use x="145.13" y="318.01" xlink:href="#hd"/>
<path d="M141.63 318.01v20.20" stroke="currentColor" fill="none"/>
<use x="159.03" y="318.01" xlink:href="#hd"/>
<path d="M155.53 318.01v20.20" stroke="currentColor" fill="none"/>
<use x="174.13" y="318.01" xlink:href="#hd"/>
<path d="M170.63 318.01v20.00" stroke="currentColor" fill="none"/>
<use x="194.73" y="318.01" xlink:href="#hd"/>
<path d="M191.23 318.01v20.00" stroke="currentColor" fill="none"/>
<use x="224.13" y="318.01" xlink:href="#hd"/>
<path d="M220.63 318.01v20.00" stroke="currentColor" fill="none"/>
<use x="244.73" y="321.01" xlink:href="#hd"/>
<path d="M241.23 321.01v20.00" stroke="currentColor" fill="none"/>
<use x="265.23" y="321.01" xlink:href="#hd"/>
<path d="M261.73 321.01v20.00" stroke="currentColor" fill="none"/>
<path fill="currentColor"
	d="M290.93 342.01l70.20 0.00v-3.20l-70.20 -0.00"/>
<use x="294.73" y="315.01" xlink:href="#hl"/>
<use x="294.73" y="315.01" xlink:href="#hd"/>
<path d="M291.23 315.01v26.00" stroke="currentColor" fill="none"/>
<use x="308.93" y="315.01" xlink:href="#hl"/>
<use x="308.93" y="315.01" xlink:href="#hd"/>
<path d="M305.43 315.01v26.00" stroke="currentColor" fill="none"/>
<use x="322.73" y="318.01" xlink:href="#hd"/>
<path d="M319.23 318.01v23.00" stroke="currentColor" fill="none"/>
<use x="336.63" y="321.01" xlink:href="#hd"/>
<path d="M333.13 321.01v20.00" stroke="currentColor" fill="none"/>
<use x="350.43" y="324.01" xlink:href="#hd"/>
<path d="M346.93 324.01v17.00" stroke="currentColor" fill="none"/>
<use x="364.33" y="321.01" xlink:href="#hd"/>
<path d="M360.83 321.01v20.00" stroke="currentColor" fill="none"/>
<path fill="currentColor"
	d="M385.63 341.51l14.50 4.90v-3.20l-14.50 -4.90"/>
<use x="389.43" y="315.01" xlink:href="#hl"/>
<use x="389.43" y="312.01" xlink:href="#hd"/>
<path d="M385.93 312.01v28.60" stroke="currentColor" fill="none"/>
<use x="403.23" y="327.01" xlink:href="#hd"/>
<path d="M399.73 327.01v18.20" stroke="currentColor" fill="none"/>
<use x="418.53" y="318.01" xlink:href="#Hd"/>
<path d="M415.03 318.01v20.00" stroke="currentColor" fill="none"/>
<path fill="currentColor"
	d="M450.43 347.71l69.90 10.60v-3.20l-69.90 -10.60"/>
<use x="454.23" y="324.01" xlink:href="#hd"/>
<path d="M450.73 324.01v22.70" stroke="currentColor" fill="none"/>
<use x="468.13" y="327.01" xlink:href="#hd"/>
<path d="M464.63 327.01v21.80" stroke="currentColor" fill="none"/>
<use x="481.93" y="330.01" xlink:href="#hd"/>
<path d="M478.43 330.01v20.90" stroke="currentColor" fill="none"/>
<use x="495.73" y="333.01" xlink:href="#hd"/>
<path d="M492.23 333.01v20.00" stroke="currentColor" fill="none"/>
<use x="509.63" y="336.01" xlink:href="#hd"/>
<path d="M506.13 336.01v19.10" stroke="currentColor" fill="none"/>
<use x="523.43" y="339.01" xlink:href="#hd"/>
<path d="M519.93 339.01v18.20" stroke="currentColor" fill="none"/>
<use x="555.13" y="342.01" xlink:href="#hd"/>
<path d="M558.63 342.01v-20.00" stroke="currentColor" fill="none"/>
<use x="575.63" y="342.01" xlink:href="#hd"/>
<path d="M579.13 342.01v-20.00" stroke="currentColor" fill="none"/>
<use x="596.83" y="321.01" xlink:href="#hd"/>
<path d="M593.33 321.01v20.00" stroke="currentColor" fill="none"/>
<use x="636.33" y="342.01" xlink:href="#hd"/>
<path d="M639.83 342.01v-20.00" stroke="currentColor" fill="none"/>
<use x="656.83" y="342.01" xlink:href="#hd"/>
<path d="M660.33 342.01v-20.00" stroke="currentColor" fill="none"/>
<use x="677.93" y="321.01" xlink:href="#hd"/>
<path d="M674.43 321.01v20.00" stroke="currentColor" fill="none"/>
<text font-family="serif" font-size="16" font-weight="bold" font-style="italic"
	x="220.13" y="310.01">tr</text>
<use x="64.83" y="426.01" xlink:href="#rdots"/>
<path stroke="currentColor" fill="none"
	d="M60.83 426.01v-24.00"/>
<path stroke="currentColor" fill="none" stroke-width="3"
	d="M56.33 426.01v-24.00"/>
<path stroke="currentColor" fill="none"
	d="M135.13 426.01v-24.00"/>
<path stroke="currentColor" fill="none"
	d="M204.33 426.01v-24.00"/>
<path stroke="currentColor" fill="none"
	d="M268.43 426.01v-24.00"/>
<path stroke="currentColor" fill="none"
	d="M345.63 426.01v-24.00"/>
<path stroke="currentColor" fill="none"
	d="M402.63 426.01v-24.00"/>
<path stroke="currentColor" fill="none"
	d="M479.03 426.01v-24.00"/>
<path stroke="currentColor" fill="none"
	d="M548.83 426.01v-24.00"/>
<path stroke="currentColor" fill="none" stroke-width="3"
	d="M630.53 426.01v-24.00"/>
<path stroke="currentColor" fill="none"
	d="M626.03 426.01v-24.00"/>
<use x="622.03" y="426.01" xlink:href="#rdots"/>
<path stroke="currentColor" fill="none" stroke-width="3"
	d="M693.43 426.01v-24.00"/>
<path stroke="currentColor" fill="none"
	d="M688.93 426.01v-24.00"/>
<path stroke="currentColor" fill="none"
	d="M13.33 426.01h681.60m-681.60 -6h681.60m-681.60 -6h681.60m-681.60 -6h681.60m-681.60 -6h681.60"/>
</g>
<g transform="scale(0.750)" stroke-width="0.70" font-family="Helvetica" font-size="12.00">
<text x="75.43" y="381.61">F</text>
<text x="274.83" y="381.61">C7</text>
<text x="564.83" y="381.61">F</text>
<text x="648.13" y="381.61">F</text>
</g>
<g transform="scale(0.750)" stroke-width="0.70" font-family="Times" font-size="13.00">
<text x="552.83" y="381.41">1</text>
<path stroke="currentColor" fill="none"
	d="M548.83 370.01v20M548.83 370.01h75.30v20"/>
<text x="636.03" y="381.41">2</text>
<path stroke="currentColor" fill="none"
	d="M632.03 370.01v20M632.03 370.01h62.90v20"/>
<use x="25.33" y="426.01" xlink:href="#tclef"/>
<use x="40.33" y="414.01" xlink:href="#ft0"/>
<path fill="currentColor"
	d="M74.53 431.51l32.80 -3.80v-3.20l-32.80 3.80"/>
<use x="78.33" y="402.01" xlink:href="#hd"/>
<path d="M74.83 402.01v28.40" stroke="currentColor" fill="none"/>
<use x="89.03" y="411.01" xlink:href="#hd"/>
<path d="M85.53 411.01v18.20" stroke="currentColor" fill="none"/>
<use x="99.73" y="402.01" xlink:href="#hd"/>
<path d="M96.23 402.01v26.00" stroke="currentColor" fill="none"/>
<use x="110.43" y="396.01" xlink:href="#hl"/>
<use x="110.43" y="396.01" xlink:href="#hd"/>
<path d="M106.93 396.01v30.70" stroke="currentColor" fill="none"/>
<use x="122.63" y="396.01" xlink:href="#hl"/>
<use x="122.63" y="390.01" xlink:href="#hl"/>
<use x="122.63" y="390.01" xlink:href="#hd"/>
<path d="M119.13 390.01v24.00" stroke="currentColor" fill="none"/>
<path fill="currentColor"
	d="M143.73 436.31l32.80 -7.30v-3.20l-32.80 7.30"/>
<use x="147.63" y="417.01" xlink:href="#hd"/>
<path d="M144.13 417.01v18.20" stroke="currentColor" fill="none"/>
<use x="158.33" y="411.01" xlink:href="#hd"/>
<path d="M154.83 411.01v21.80" stroke="currentColor" fill="none"/>
<use x="169.03" y="402.01" xlink:href="#hd"/>
<path d="M165.53 402.01v28.40" stroke="currentColor" fill="none"/>
<use x="179.73" y="396.01" xlink:href="#hl"/>
<use x="179.73" y="396.01" xlink:href="#hd"/>
<path d="M176.23 396.01v32.00" stroke="currentColor" fill="none"/>
<use x="191.83" y="396.01" xlink:href="#hl"/>
<use x="191.83" y="390.01" xlink:href="#hl"/>
<use x="191.83" y="390.01" xlink:href="#hd"/>
<path d="M188.33 390.01v24.00" stroke="currentColor" fill="none"/>
<use x="216.83" y="396.01" xlink:href="#hl"/>
<use x="216.83" y="390.01" xlink:href="#hl"/>
<use x="216.83" y="387.01" xlink:href="#hd"/>
<path d="M213.33 387.01v27.00" stroke="currentColor" fill="none"/>
<use x="231.73" y="396.01" xlink:href="#hl"/>
<use x="231.73" y="396.01" xlink:href="#hd"/>
<path d="M228.23 396.01v20.00" stroke="currentColor" fill="none"/>
<path fill="currentColor"
	d="M242.83 414.21l12.20 1.60v-3.20l-12.20 -1.60"/>
<use x="246.63" y="396.01" xlink:href="#hl"/>
<use x="246.63" y="393.01" xlink:href="#hd"/>
<path d="M243.13 393.01v20.30" stroke="currentColor" fill="none"/>
<use x="258.13" y="396.01" xlink:href="#hl"/>
<use x="258.13" y="396.01" xlink:href="#hd"/>
<path d="M254.63 396.01v18.70" stroke="currentColor" fill="none"/>
<path fill="currentColor"
	d="M277.13 417.81l55.00 9.50v-3.20l-55.00 -9.50"/>
<use x="280.93" y="396.01" xlink:href="#hl"/>
<use x="280.93" y="393.01" xlink:href="#hd"/>
<path d="M277.43 393.01v23.80" stroke="currentColor" fill="none"/>
<use x="292.43" y="396.01" xlink:href="#hl"/>
<use x="292.43" y="396.01" xlink:href="#hd"/>
<path d="M288.93 396.01v22.80" stroke="currentColor" fill="none"/>
<use x="303.13" y="399.01" xlink:href="#hd"/>
<path d="M299.63 399.01v21.70" stroke="currentColor" fill="none"/>
<use x="313.83" y="402.01" xlink:href="#hd"/>
<path d="M310.33 402.01v20.50" stroke="currentColor" fill="none"/>
<use x="324.53" y="405.01" xlink:href="#hd"/>
<path d="M321.03 405.01v19.40" stroke="currentColor" fill="none"/>
<use x="335.33" y="408.01" xlink:href="#hd"/>
<path d="M331.83 408.01v18.20" stroke="currentColor" fill="none"/>
<use x="358.13" y="411.01" xlink:href="#hd"/>
<path d="M354.63 411.01v20.00" stroke="currentColor" fill="none"/>
<use x="372.23" y="396.01" xlink:href="#hl"/>
<use x="372.23" y="390.01" xlink:href="#hl"/>
<use x="372.23" y="390.01" xlink:href="#hd"/>
<circle fill="currentColor" cx="380.23" cy="387.01" r="1.2"/>
<path d="M368.73 390.01v24.00" stroke="currentColor" fill="none"/>
<use x="392.33" y="396.01" xlink:href="#hl"/>
<use x="392.33" y="393.01" xlink:href="#hd"/>
<path d="M388.83 393.01v21.00" stroke="currentColor" fill="none"/>
<path fill="currentColor"
	d="M388.83 414.01c0.6 -5.6 9.6 -9 5.6 -18.4
	c1.6 6 -1.3 11.6 -5.6 12.8
"/>
<path fill="currentColor"
	d="M411.33 424.81l54.20 6.80v-3.20l-54.20 -6.80"/>
<use x="415.13" y="396.01" xlink:href="#hl"/>
<use x="415.13" y="396.01" xlink:href="#hd"/>
<path d="M411.63 396.01v27.80" stroke="currentColor" fill="none"/>
<use x="425.83" y="399.01" xlink:href="#hd"/>
<path d="M422.33 399.01v26.20" stroke="currentColor" fill="none"/>
<use x="436.53" y="405.01" xlink:href="#hd"/>
<path d="M433.03 405.01v21.50" stroke="currentColor" fill="none"/>
<use x="447.23" y="399.01" xlink:href="#hd"/>
<path d="M443.73 399.01v28.90" stroke="currentColor" fill="none"/>
<use x="457.93" y="411.01" xlink:href="#hd"/>
<path d="M454.43 411.01v18.20" stroke="currentColor" fill="none"/>
<use x="468.63" y="411.01" xlink:href="#hd"/>
<path d="M465.13 411.01v19.50" stroke="currentColor" fill="none"/>
<use x="491.53" y="396.01" xlink:href="#hl"/>
<use x="491.53" y="393.01" xlink:href="#hd"/>
<path d="M488.03 393.01v21.00" stroke="currentColor" fill="none"/>
<path fill="currentColor"
	d="M502.53 417.01l32.80 0.00v-3.20l-32.80 -0.00"/>
<use x="506.33" y="396.01" xlink:href="#hl"/>
<use x="506.33" y="396.01" xlink:href="#hd"/>
<path d="M502.83 396.01v20.00" stroke="currentColor" fill="none"/>
<use x="517.13" y="399.01" xlink:href="#hd"/>
<path d="M513.63 399.01v17.00" stroke="currentColor" fill="none"/>
<use x="527.83" y="399.01" xlink:href="#hd"/>
<path d="M524.33 399.01v17.00" stroke="currentColor" fill="none"/>
<use x="538.53" y="396.01" xlink:href="#hl"/>
<use x="538.53" y="396.01" xlink:href="#hd"/>
<path d="M535.03 396.01v20.00" stroke="currentColor" fill="none"/>
<use x="567.83" y="402.01" xlink:href="#hd"/>
<path d="M564.33 402.01v20.00" stroke="currentColor" fill="none"/>
<use x="580.93" y="423.01" xlink:href="#hd"/>
<path d="M584.43 423.01v-20.00" stroke="currentColor" fill="none"/>
<path fill="currentColor"
	d="M598.23 393.21l17.20 -4.50v3.20l-17.20 4.50"/>
<path fill="currentColor"
	d="M609.03 395.41l6.00 -1.60v3.20l-6.00 1.60"/>
<use x="595.03" y="420.01" xlink:href="#hd"/>
<circle fill="currentColor" cx="603.03" cy="417.01" r="1.2"/>
<path d="M598.53 420.01v-25.90" stroke="currentColor" fill="none"/>
<use x="611.53" y="411.01" xlink:href="#hd"/>
<path d="M615.03 411.01v-21.20" stroke="currentColor" fill="none"/>
<use x="651.03" y="402.01" xlink:href="#hd"/>
<path d="M647.53 402.01v20.00" stroke="currentColor" fill="none"/>
<use x="665.13" y="402.01" xlink:href="#hd"/>
<path d="M661.63 402.01v20.00" stroke="currentColor" fill="none"/>
<use x="679.23" y="414.01" xlink:href="#r4"/>
</g>
</svg>
