<?xml version="1.0" standalone="no"?>
<!DOCTYPE svg PUBLIC "-//W3C//DTD SVG 1.1//EN"
	"http://www.w3.org/Graphics/SVG/1.1/DTD/svg11.dtd">
<svg xmlns="http://www.w3.org/2000/svg" version="1.1"
	xmlns:xlink="http://www.w3.org/1999/xlink"
	xml:space='preserve' color="black"
	width="7.38in" height="3.31in" viewBox="0 0 531 239">
<title>data/results/biggest_11/abc/50.abc (50) tune 1</title>
<!-- Creator: abcm2ps-7.8.14 -->
<!-- CreationDate: Aug  9, 2015 23:50 -->
<!-- CommandLine: -g data/results/biggest_11/abc/50.abc -O /home/allanino/Dropbox/Trabalhos/folkme/svg/50.svg -->
<g transform="scale(0.750)" stroke-width="0.70" font-family="Times" font-size="20.00">
<text x="354.13" y="21.67" text-anchor="middle">The Seeming. JBa.24</text>
</g>
<g transform="scale(0.525)" stroke-width="0.70" font-family="Times" font-size="20.00">
<defs>
<ellipse id="hd" rx="4.1" ry="2.9"
	transform="rotate(-20)" fill="currentColor"/>
</defs>
<use x="123.47" y="94.16" xlink:href="#hd"/>
<circle fill="currentColor" cx="131.47" cy="94.16" r="1.2"/>
<path d="M126.97 94.16v-20.00" stroke="currentColor" fill="none"/>
</g>
<g transform="scale(0.750)" stroke-width="0.70" font-family="Times" font-size="15.00" font-weight="bold">
<text x="96.93" y="68.01">= 300</text>
<defs>
<g id="rdots" fill="currentColor">
	<circle cx="0" cy="-9" r="1.2"/>
	<circle cx="0" cy="-15" r="1.2"/>
</g>
</defs>
<use x="84.83" y="130.01" xlink:href="#rdots"/>
<path stroke="currentColor" fill="none"
	d="M80.83 130.01v-24.00"/>
<path stroke="currentColor" fill="none" stroke-width="3"
	d="M76.33 130.01v-24.00"/>
<path stroke="currentColor" fill="none"
	d="M119.53 130.01v-24.00"/>
<path stroke="currentColor" fill="none"
	d="M265.33 130.01v-24.00"/>
<path stroke="currentColor" fill="none"
	d="M407.23 130.01v-24.00"/>
<path stroke="currentColor" fill="none"
	d="M556.43 130.01v-24.00"/>
<path stroke="currentColor" fill="none"
	d="M694.93 130.01v-24.00"/>
<path stroke="currentColor" fill="none"
	d="M13.33 130.01h681.60m-681.60 -6h681.60m-681.60 -6h681.60m-681.60 -6h681.60m-681.60 -6h681.60"/>
</g>
<g transform="scale(0.750)" stroke-width="0.70" font-family="Helvetica" font-size="12.00">
<text x="129.63" y="83.61">F</text>
<text x="192.33" y="83.61">C7</text>
<text x="275.43" y="83.61">F</text>
<text x="412.33" y="83.61">Gm</text>
<text x="486.73" y="83.61">F</text>
<text x="563.33" y="83.61">C7</text>
<text x="635.03" y="83.61">F</text>
<defs>
<path id="utclef" fill="currentColor" d="m-50 -90
	c-72 -41 -72 -158 52 -188
	c150 -10 220 188 90 256
	c-114 52 -275 0 -293 -136
	c-15 -181 93 -229 220 -334
	c88 -87 79 -133 62 -210
	c-51 33 -94 105 -89 186
	c17 267 36 374 49 574
	c6 96 -19 134 -77 135
	c-80 1 -126 -93 -61 -133
	c85 -41 133 101 31 105
	c23 17 92 37 90 -92
	c-10 -223 -39 -342 -50 -617
	c0 -90 0 -162 96 -232
	c56 72 63 230 22 289
	c-74 106 -257 168 -255 316
	c9 153 148 185 252 133
	c86 -65 29 -192 -80 -176
	c-71 12 -105 67 -59 124"/>
<use id="tclef" transform="scale(0.045)"
	xlink:href="#utclef"/>
</defs>
<use x="25.33" y="130.01" xlink:href="#tclef"/>
<defs>
<path id="uflat" fill="currentColor" d="
	m100 -746
	h32
	v734
	l-32 4
	m32 -332
	c46 -72 152 -90 208 -20
	c100 110 -120 326 -208 348
	m0 -28
	c54 0 200 -206 130 -290
	c-50 -60 -130 -4 -130 34"/>
<use id="ft0" transform="translate(-3.5,3.5) scale(0.018)"
	xlink:href="#uflat"/>
</defs>
<use x="40.33" y="118.01" xlink:href="#ft0"/>
<g font-family="serif" font-size="16" font-weight="bold" font-style="normal"
	transform="translate(56.33,130.01) scale(1.2,1)">
	<text y="-1" text-anchor="middle">8</text>
	<text y="-13" text-anchor="middle">6</text>
</g>
<use x="98.83" y="121.01" xlink:href="#hd"/>
<path d="M102.33 121.01v-20.00" stroke="currentColor" fill="none"/>
<path fill="currentColor"
	d="	M102.33 101.01c0.6 5.6 9.6 9 5.6 18.4
	c1.6 -6 -1.3 -11.6 -5.6 -12.8
"/>
<path fill="currentColor"
	d="M135.73 98.01l112.90 0.00v3.20l-112.90 -0.00"/>
<path fill="currentColor"
	d="M156.53 103.01l6.00 0.00v3.20l-6.00 -0.00"/>
<use x="132.53" y="127.01" xlink:href="#hd"/>
<circle fill="currentColor" cx="140.53" cy="127.01" r="1.2"/>
<path d="M136.03 127.01v-28.00" stroke="currentColor" fill="none"/>
<use x="159.03" y="127.01" xlink:href="#hd"/>
<path d="M162.53 127.01v-28.00" stroke="currentColor" fill="none"/>
<use x="175.33" y="121.01" xlink:href="#hd"/>
<path d="M178.83 121.01v-22.00" stroke="currentColor" fill="none"/>
<use x="198.53" y="124.01" xlink:href="#hd"/>
<path d="M202.03 124.01v-25.00" stroke="currentColor" fill="none"/>
<use x="221.63" y="118.01" xlink:href="#hd"/>
<path d="M225.13 118.01v-19.00" stroke="currentColor" fill="none"/>
<use x="244.73" y="124.01" xlink:href="#hd"/>
<path d="M248.23 124.01v-25.00" stroke="currentColor" fill="none"/>
<path fill="currentColor"
	d="M281.53 107.81l47.00 4.40v3.20l-47.00 -4.40"/>
<use x="278.33" y="127.01" xlink:href="#hd"/>
<path d="M281.83 127.01v-18.20" stroke="currentColor" fill="none"/>
<defs>
<path id="hl" stroke="currentColor" d="m-6 0h12"/>
</defs>
<use x="301.43" y="136.01" xlink:href="#hl"/>
<use x="301.43" y="142.01" xlink:href="#hl"/>
<use x="301.43" y="142.01" xlink:href="#hd"/>
<path d="M304.93 142.01v-31.00" stroke="currentColor" fill="none"/>
<use x="324.63" y="136.01" xlink:href="#hl"/>
<use x="324.63" y="136.01" xlink:href="#hd"/>
<path d="M328.13 136.01v-22.80" stroke="currentColor" fill="none"/>
<use x="350.33" y="127.01" xlink:href="#hd"/>
<path d="M353.83 127.01v-20.00" stroke="currentColor" fill="none"/>
<use x="386.53" y="121.01" xlink:href="#hd"/>
<path d="M390.03 121.01v-20.00" stroke="currentColor" fill="none"/>
<path fill="currentColor"
	d="	M390.03 101.01c0.6 5.6 9.6 9 5.6 18.4
	c1.6 -6 -1.3 -11.6 -5.6 -12.8
"/>
<path fill="currentColor"
	d="M423.43 92.81l116.30 0.00v3.20l-116.30 -0.00"/>
<use x="420.23" y="124.01" xlink:href="#hd"/>
<path d="M423.73 124.01v-30.20" stroke="currentColor" fill="none"/>
<use x="443.33" y="112.01" xlink:href="#hd"/>
<path d="M446.83 112.01v-18.20" stroke="currentColor" fill="none"/>
<use x="466.53" y="115.01" xlink:href="#hd"/>
<path d="M470.03 115.01v-21.20" stroke="currentColor" fill="none"/>
<use x="489.63" y="121.01" xlink:href="#hd"/>
<path d="M493.13 121.01v-27.20" stroke="currentColor" fill="none"/>
<use x="512.73" y="118.01" xlink:href="#hd"/>
<path d="M516.23 118.01v-24.20" stroke="currentColor" fill="none"/>
<use x="535.93" y="121.01" xlink:href="#hd"/>
<path d="M539.43 121.01v-27.20" stroke="currentColor" fill="none"/>
<path fill="currentColor"
	d="M572.63 98.01l43.50 0.00v3.20l-43.50 -0.00"/>
<path fill="currentColor"
	d="M593.43 103.01l6.00 0.00v3.20l-6.00 -0.00"/>
<use x="569.43" y="124.01" xlink:href="#hd"/>
<circle fill="currentColor" cx="577.43" cy="121.01" r="1.2"/>
<path d="M572.93 124.01v-25.00" stroke="currentColor" fill="none"/>
<use x="595.93" y="121.01" xlink:href="#hd"/>
<path d="M599.43 121.01v-22.00" stroke="currentColor" fill="none"/>
<use x="612.33" y="124.01" xlink:href="#hd"/>
<path d="M615.83 124.01v-25.00" stroke="currentColor" fill="none"/>
<use x="637.93" y="127.01" xlink:href="#hd"/>
<path d="M641.43 127.01v-20.00" stroke="currentColor" fill="none"/>
<use x="674.23" y="136.01" xlink:href="#hl"/>
<use x="674.23" y="136.01" xlink:href="#hd"/>
<path d="M677.73 136.01v-20.00" stroke="currentColor" fill="none"/>
<path fill="currentColor"
	d="	M677.73 116.01c0.6 5.6 9.6 9 5.6 18.4
	c1.6 -6 -1.3 -11.6 -5.6 -12.8
"/>
<path stroke="currentColor" fill="none"
	d="M54.83 211.01v-24.00"/>
<path stroke="currentColor" fill="none"
	d="M132.73 211.01v-24.00"/>
<path stroke="currentColor" fill="none"
	d="M219.73 211.01v-24.00"/>
<path stroke="currentColor" fill="none"
	d="M299.83 211.01v-24.00"/>
<path stroke="currentColor" fill="none"
	d="M378.83 211.01v-24.00"/>
<path stroke="currentColor" fill="none"
	d="M462.83 211.01v-24.00"/>
<path stroke="currentColor" fill="none"
	d="M543.03 211.01v-24.00"/>
<path stroke="currentColor" fill="none"
	d="M626.23 211.01v-24.00"/>
<path stroke="currentColor" fill="none"
	d="M694.93 211.01v-24.00"/>
<path stroke="currentColor" fill="none"
	d="M13.33 211.01h681.60m-681.60 -6h681.60m-681.60 -6h681.60m-681.60 -6h681.60m-681.60 -6h681.60"/>
<text x="64.43" y="164.61">F</text>
<text x="139.33" y="164.61">B♭</text>
<text x="179.43" y="164.61">F</text>
<text x="226.03" y="164.61">C7</text>
<text x="263.33" y="164.61">F</text>
<text x="304.43" y="164.61">Gm</text>
<text x="340.33" y="164.61">C7</text>
<text x="388.43" y="164.61">F</text>
<text x="419.53" y="164.61">B♭</text>
<text x="439.73" y="164.61">F</text>
<text x="467.43" y="164.61">Gm</text>
<text x="506.53" y="164.61">F</text>
<text x="551.93" y="164.61">C</text>
<text x="587.43" y="164.61">F♯</text>
<text x="630.83" y="164.61">Gm</text>
<text x="673.73" y="164.61">F</text>
<use x="25.33" y="211.01" xlink:href="#tclef"/>
<use x="40.33" y="199.01" xlink:href="#ft0"/>
<path fill="currentColor"
	d="M70.53 181.01l26.50 2.80v3.20l-26.50 -2.80"/>
<path fill="currentColor"
	d="M81.33 187.21l6.00 0.60v3.20l-6.00 -0.60"/>
<use x="67.33" y="202.01" xlink:href="#hd"/>
<circle fill="currentColor" cx="75.33" cy="202.01" r="1.2"/>
<path d="M70.83 202.01v-19.90" stroke="currentColor" fill="none"/>
<use x="83.83" y="205.01" xlink:href="#hd"/>
<path d="M87.33 205.01v-21.20" stroke="currentColor" fill="none"/>
<use x="93.13" y="208.01" xlink:href="#hd"/>
<path d="M96.63 208.01v-23.20" stroke="currentColor" fill="none"/>
<use x="105.33" y="208.01" xlink:href="#hd"/>
<path d="M108.83 208.01v-20.00" stroke="currentColor" fill="none"/>
<use x="121.83" y="199.01" xlink:href="#hd"/>
<path d="M118.33 199.01v20.00" stroke="currentColor" fill="none"/>
<path fill="currentColor"
	d="M118.33 219.01c0.6 -5.6 9.6 -9 5.6 -18.4
	c1.6 6 -1.3 11.6 -5.6 12.8
"/>
<path fill="currentColor"
	d="M141.33 227.21l65.70 0.00v-3.20l-65.70 -0.00"/>
<path fill="currentColor"
	d="M152.23 222.21l6.00 0.00v-3.20l-6.00 -0.00"/>
<path fill="currentColor"
	d="M200.73 222.21l6.00 0.00v-3.20l-6.00 -0.00"/>
<use x="145.23" y="193.01" xlink:href="#hd"/>
<circle fill="currentColor" cx="153.23" cy="190.01" r="1.2"/>
<path d="M141.73 193.01v33.20" stroke="currentColor" fill="none"/>
<use x="161.73" y="196.01" xlink:href="#hd"/>
<path d="M158.23 196.01v30.20" stroke="currentColor" fill="none"/>
<use x="171.03" y="199.01" xlink:href="#hd"/>
<path d="M167.53 199.01v27.20" stroke="currentColor" fill="none"/>
<use x="182.33" y="202.01" xlink:href="#hd"/>
<path d="M178.83 202.01v24.20" stroke="currentColor" fill="none"/>
<use x="193.73" y="208.01" xlink:href="#hd"/>
<circle fill="currentColor" cx="201.73" cy="208.01" r="1.2"/>
<path d="M190.23 208.01v18.20" stroke="currentColor" fill="none"/>
<use x="210.23" y="187.01" xlink:href="#hd"/>
<path d="M206.73 187.01v39.20" stroke="currentColor" fill="none"/>
<path fill="currentColor"
	d="M228.33 221.51l57.50 7.20v-3.20l-57.50 -7.20"/>
<use x="232.23" y="190.01" xlink:href="#hd"/>
<path d="M228.73 190.01v30.50" stroke="currentColor" fill="none"/>
<use x="243.63" y="193.01" xlink:href="#hd"/>
<path d="M240.13 193.01v28.90" stroke="currentColor" fill="none"/>
<use x="254.93" y="196.01" xlink:href="#hd"/>
<path d="M251.43 196.01v27.30" stroke="currentColor" fill="none"/>
<use x="266.33" y="202.01" xlink:href="#hd"/>
<path d="M262.83 202.01v22.80" stroke="currentColor" fill="none"/>
<use x="277.63" y="208.01" xlink:href="#hd"/>
<path d="M274.13 208.01v18.20" stroke="currentColor" fill="none"/>
<use x="289.03" y="202.01" xlink:href="#hd"/>
<path d="M285.53 202.01v25.60" stroke="currentColor" fill="none"/>
<path fill="currentColor"
	d="M308.53 221.41l23.40 2.80v-3.20l-23.40 -2.80"/>
<use x="312.33" y="199.01" xlink:href="#hd"/>
<path d="M308.83 199.01v21.50" stroke="currentColor" fill="none"/>
<use x="323.73" y="193.01" xlink:href="#hd"/>
<path d="M320.23 193.01v28.80" stroke="currentColor" fill="none"/>
<use x="335.13" y="205.01" xlink:href="#hd"/>
<path d="M331.63 205.01v18.20" stroke="currentColor" fill="none"/>
<use x="346.43" y="205.01" xlink:href="#hd"/>
<path d="M349.93 205.01v-20.00" stroke="currentColor" fill="none"/>
<use x="361.83" y="202.01" xlink:href="#hd"/>
<path d="M365.33 202.01v-20.00" stroke="currentColor" fill="none"/>
<path fill="currentColor"
	d="	M365.33 182.01c0.6 5.6 9.6 9 5.6 18.4
	c1.6 -6 -1.3 -11.6 -5.6 -12.8
"/>
<path fill="currentColor"
	d="M387.53 227.21l61.40 -7.40v-3.20l-61.40 7.40"/>
<path fill="currentColor"
	d="M433.23 216.71l6.00 -0.70v-3.20l-6.00 0.70"/>
<use x="391.33" y="208.01" xlink:href="#hd"/>
<path d="M387.83 208.01v18.20" stroke="currentColor" fill="none"/>
<use x="402.73" y="202.01" xlink:href="#hd"/>
<path d="M399.23 202.01v22.80" stroke="currentColor" fill="none"/>
<use x="414.03" y="196.01" xlink:href="#hd"/>
<path d="M410.53 196.01v27.50" stroke="currentColor" fill="none"/>
<use x="425.43" y="193.01" xlink:href="#hd"/>
<circle fill="currentColor" cx="433.43" cy="190.01" r="1.2"/>
<path d="M421.93 193.01v29.10" stroke="currentColor" fill="none"/>
<use x="442.73" y="196.01" xlink:href="#hd"/>
<path d="M439.23 196.01v24.00" stroke="currentColor" fill="none"/>
<use x="452.03" y="187.01" xlink:href="#hd"/>
<path d="M448.53 187.01v31.90" stroke="currentColor" fill="none"/>
<path fill="currentColor"
	d="M478.53 173.81l57.50 0.00v3.20l-57.50 -0.00"/>
<use x="475.33" y="199.01" xlink:href="#hd"/>
<path d="M478.83 199.01v-24.20" stroke="currentColor" fill="none"/>
<use x="486.73" y="193.01" xlink:href="#hd"/>
<path d="M490.23 193.01v-18.20" stroke="currentColor" fill="none"/>
<use x="498.03" y="205.01" xlink:href="#hd"/>
<path d="M501.53 205.01v-30.20" stroke="currentColor" fill="none"/>
<use x="509.43" y="202.01" xlink:href="#hd"/>
<path d="M512.93 202.01v-27.20" stroke="currentColor" fill="none"/>
<use x="520.83" y="208.01" xlink:href="#hd"/>
<path d="M524.33 208.01v-33.20" stroke="currentColor" fill="none"/>
<use x="532.13" y="202.01" xlink:href="#hd"/>
<path d="M535.63 202.01v-27.20" stroke="currentColor" fill="none"/>
<path fill="currentColor"
	d="M558.63 174.81l60.60 0.00v3.20l-60.60 -0.00"/>
<path fill="currentColor"
	d="M569.53 179.81l6.00 0.00v3.20l-6.00 -0.00"/>
<use x="555.53" y="205.01" xlink:href="#hd"/>
<circle fill="currentColor" cx="563.53" cy="202.01" r="1.2"/>
<path d="M559.03 205.01v-29.20" stroke="currentColor" fill="none"/>
<use x="572.03" y="208.01" xlink:href="#hd"/>
<path d="M575.53 208.01v-32.20" stroke="currentColor" fill="none"/>
<use x="581.33" y="205.01" xlink:href="#hd"/>
<path d="M584.83 205.01v-29.20" stroke="currentColor" fill="none"/>
<use x="592.63" y="202.01" xlink:href="#hd"/>
<path d="M596.13 202.01v-26.20" stroke="currentColor" fill="none"/>
<use x="604.03" y="196.01" xlink:href="#hd"/>
<path d="M607.53 196.01v-20.20" stroke="currentColor" fill="none"/>
<use x="615.43" y="202.01" xlink:href="#hd"/>
<path d="M618.93 202.01v-26.20" stroke="currentColor" fill="none"/>
<path fill="currentColor"
	d="M641.93 180.81l26.50 0.00v3.20l-26.50 -0.00"/>
<path fill="currentColor"
	d="M652.73 185.81l6.00 0.00v3.20l-6.00 -0.00"/>
<use x="638.73" y="205.01" xlink:href="#hd"/>
<circle fill="currentColor" cx="646.73" cy="202.01" r="1.2"/>
<path d="M642.23 205.01v-23.20" stroke="currentColor" fill="none"/>
<use x="655.23" y="205.01" xlink:href="#hd"/>
<path d="M658.73 205.01v-23.20" stroke="currentColor" fill="none"/>
<use x="664.53" y="205.01" xlink:href="#hd"/>
<path d="M668.03 205.01v-23.20" stroke="currentColor" fill="none"/>
<use x="676.63" y="205.01" xlink:href="#hd"/>
<circle fill="currentColor" cx="684.63" cy="202.01" r="1.2"/>
<path d="M680.13 205.01v-20.00" stroke="currentColor" fill="none"/>
<path stroke="currentColor" fill="none"
	d="M54.83 295.01v-24.00"/>
<path stroke="currentColor" fill="none"
	d="M138.13 295.01v-24.00"/>
<path stroke="currentColor" fill="none"
	d="M216.13 295.01v-24.00"/>
<path stroke="currentColor" fill="none"
	d="M301.63 295.01v-24.00"/>
<path stroke="currentColor" fill="none"
	d="M369.63 295.01v-24.00"/>
<path stroke="currentColor" fill="none"
	d="M449.83 295.01v-24.00"/>
<path stroke="currentColor" fill="none"
	d="M535.33 295.01v-24.00"/>
<path stroke="currentColor" fill="none"
	d="M620.83 295.01v-24.00"/>
<path stroke="currentColor" fill="none" stroke-width="3"
	d="M693.43 295.01v-24.00"/>
<path stroke="currentColor" fill="none"
	d="M688.93 295.01v-24.00"/>
<use x="684.93" y="295.01" xlink:href="#rdots"/>
<path stroke="currentColor" fill="none"
	d="M13.33 295.01h681.60m-681.60 -6h681.60m-681.60 -6h681.60m-681.60 -6h681.60m-681.60 -6h681.60"/>
<text x="64.43" y="245.61">F</text>
<text x="142.73" y="245.61">Gm</text>
<text x="184.33" y="245.61">F</text>
<text x="220.63" y="245.61">C/G</text>
<text x="258.63" y="245.61">Gm</text>
<text x="307.93" y="245.61">C7</text>
<text x="332.23" y="245.61">D</text>
<text x="379.23" y="245.61">F</text>
<text x="416.13" y="245.61">B♭</text>
<text x="456.23" y="245.61">C7</text>
<text x="497.33" y="245.61">F</text>
<text x="541.93" y="245.61">B♭</text>
<text x="579.63" y="245.61">C7</text>
<text x="630.33" y="245.61">F</text>
<text x="651.23" y="245.61">B♭</text>
<text x="671.53" y="245.61">F</text>
<use x="25.33" y="295.01" xlink:href="#tclef"/>
<use x="40.33" y="283.01" xlink:href="#ft0"/>
<path fill="currentColor"
	d="M70.53 260.81l60.30 0.00v3.20l-60.30 -0.00"/>
<use x="67.33" y="292.01" xlink:href="#hd"/>
<path d="M70.83 292.01v-30.20" stroke="currentColor" fill="none"/>
<use x="79.23" y="286.01" xlink:href="#hd"/>
<path d="M82.73 286.01v-24.20" stroke="currentColor" fill="none"/>
<use x="91.13" y="280.01" xlink:href="#hd"/>
<path d="M94.63 280.01v-18.20" stroke="currentColor" fill="none"/>
<use x="103.03" y="292.01" xlink:href="#hd"/>
<path d="M106.53 292.01v-30.20" stroke="currentColor" fill="none"/>
<use x="115.03" y="286.01" xlink:href="#hd"/>
<path d="M118.53 286.01v-24.20" stroke="currentColor" fill="none"/>
<use x="126.93" y="286.01" xlink:href="#hd"/>
<path d="M130.43 286.01v-24.20" stroke="currentColor" fill="none"/>
<path fill="currentColor"
	d="M153.83 257.71l24.50 6.10v3.20l-24.50 -6.10"/>
<use x="150.63" y="277.01" xlink:href="#hd"/>
<path d="M154.13 277.01v-18.20" stroke="currentColor" fill="none"/>
<use x="162.53" y="283.01" xlink:href="#hd"/>
<path d="M166.03 283.01v-21.20" stroke="currentColor" fill="none"/>
<use x="174.43" y="289.01" xlink:href="#hd"/>
<path d="M177.93 289.01v-24.20" stroke="currentColor" fill="none"/>
<use x="187.33" y="292.01" xlink:href="#hd"/>
<path d="M190.83 292.01v-20.00" stroke="currentColor" fill="none"/>
<use x="204.93" y="271.01" xlink:href="#hd"/>
<path d="M201.43 271.01v20.00" stroke="currentColor" fill="none"/>
<path fill="currentColor"
	d="M201.43 291.01c0.6 -5.6 9.6 -9 5.6 -18.4
	c1.6 6 -1.3 11.6 -5.6 12.8
"/>
<path fill="currentColor"
	d="M231.73 264.81l62.40 0.00v3.20l-62.40 -0.00"/>
<path fill="currentColor"
	d="M238.13 269.81l-6.00 -0.00v3.20l6.00 0.00"/>
<use x="228.63" y="289.01" xlink:href="#hd"/>
<path d="M232.13 289.01v-23.20" stroke="currentColor" fill="none"/>
<use x="238.13" y="289.01" xlink:href="#hd"/>
<circle fill="currentColor" cx="246.13" cy="286.01" r="1.2"/>
<path d="M241.63 289.01v-23.20" stroke="currentColor" fill="none"/>
<use x="254.63" y="289.01" xlink:href="#hd"/>
<path d="M258.13 289.01v-23.20" stroke="currentColor" fill="none"/>
<use x="266.53" y="286.01" xlink:href="#hd"/>
<path d="M270.03 286.01v-20.20" stroke="currentColor" fill="none"/>
<use x="278.43" y="289.01" xlink:href="#hd"/>
<path d="M281.93 289.01v-23.20" stroke="currentColor" fill="none"/>
<use x="290.43" y="292.01" xlink:href="#hd"/>
<path d="M293.93 292.01v-26.20" stroke="currentColor" fill="none"/>
<use x="314.13" y="295.01" xlink:href="#hd"/>
<circle fill="currentColor" cx="322.13" cy="292.01" r="1.2"/>
<path d="M317.63 295.01v-20.00" stroke="currentColor" fill="none"/>
<use x="336.13" y="292.01" xlink:href="#hd"/>
<path d="M339.63 292.01v-20.00" stroke="currentColor" fill="none"/>
<use x="352.63" y="298.01" xlink:href="#hd"/>
<path d="M356.13 298.01v-20.00" stroke="currentColor" fill="none"/>
<path fill="currentColor"
	d="	M356.13 278.01c0.6 5.6 9.6 9 5.6 18.4
	c1.6 -6 -1.3 -11.6 -5.6 -12.8
"/>
<path fill="currentColor"
	d="M385.33 264.81l26.70 0.00v3.20l-26.70 -0.00"/>
<path fill="currentColor"
	d="M396.13 269.81l6.00 0.00v3.20l-6.00 -0.00"/>
<use x="382.13" y="292.01" xlink:href="#hd"/>
<circle fill="currentColor" cx="390.13" cy="292.01" r="1.2"/>
<path d="M385.63 292.01v-26.20" stroke="currentColor" fill="none"/>
<use x="398.63" y="289.01" xlink:href="#hd"/>
<path d="M402.13 289.01v-23.20" stroke="currentColor" fill="none"/>
<use x="408.23" y="292.01" xlink:href="#hd"/>
<path d="M411.73 292.01v-26.20" stroke="currentColor" fill="none"/>
<use x="422.03" y="277.01" xlink:href="#hd"/>
<path d="M418.53 277.01v20.00" stroke="currentColor" fill="none"/>
<use x="438.63" y="283.01" xlink:href="#hd"/>
<path d="M435.13 283.01v20.00" stroke="currentColor" fill="none"/>
<path fill="currentColor"
	d="M435.13 303.01c0.6 -5.6 9.6 -9 5.6 -18.4
	c1.6 6 -1.3 11.6 -5.6 12.8
"/>
<path fill="currentColor"
	d="M458.53 302.91l62.40 0.00v-3.20l-62.40 -0.00"/>
<path fill="currentColor"
	d="M469.33 297.91l6.00 0.00v-3.20l-6.00 -0.00"/>
<use x="462.33" y="280.01" xlink:href="#hd"/>
<circle fill="currentColor" cx="470.33" cy="280.01" r="1.2"/>
<path d="M458.83 280.01v22.00" stroke="currentColor" fill="none"/>
<use x="478.83" y="277.01" xlink:href="#hd"/>
<path d="M475.33 277.01v25.00" stroke="currentColor" fill="none"/>
<use x="488.33" y="280.01" xlink:href="#hd"/>
<path d="M484.83 280.01v22.00" stroke="currentColor" fill="none"/>
<use x="500.23" y="271.01" xlink:href="#hd"/>
<path d="M496.73 271.01v31.00" stroke="currentColor" fill="none"/>
<use x="512.23" y="280.01" xlink:href="#hd"/>
<path d="M508.73 280.01v22.00" stroke="currentColor" fill="none"/>
<use x="524.13" y="286.01" xlink:href="#hd"/>
<path d="M520.63 286.01v16.00" stroke="currentColor" fill="none"/>
<path fill="currentColor"
	d="M551.03 254.81l62.40 0.00v3.20l-62.40 -0.00"/>
<path fill="currentColor"
	d="M561.83 259.81l6.00 0.00v3.20l-6.00 -0.00"/>
<use x="547.83" y="283.01" xlink:href="#hd"/>
<circle fill="currentColor" cx="555.83" cy="280.01" r="1.2"/>
<path d="M551.33 283.01v-27.20" stroke="currentColor" fill="none"/>
<use x="564.33" y="277.01" xlink:href="#hd"/>
<path d="M567.83 277.01v-21.20" stroke="currentColor" fill="none"/>
<use x="573.83" y="292.01" xlink:href="#hd"/>
<path d="M577.33 292.01v-36.20" stroke="currentColor" fill="none"/>
<use x="585.73" y="289.01" xlink:href="#hd"/>
<path d="M589.23 289.01v-33.20" stroke="currentColor" fill="none"/>
<use x="597.63" y="295.01" xlink:href="#hd"/>
<path d="M601.13 295.01v-39.20" stroke="currentColor" fill="none"/>
<use x="609.63" y="289.01" xlink:href="#hd"/>
<path d="M613.13 289.01v-33.20" stroke="currentColor" fill="none"/>
<path fill="currentColor"
	d="M636.43 270.81l24.50 0.00v3.20l-24.50 -0.00"/>
<use x="633.33" y="292.01" xlink:href="#hd"/>
<path d="M636.83 292.01v-20.20" stroke="currentColor" fill="none"/>
<use x="645.23" y="292.01" xlink:href="#hd"/>
<path d="M648.73 292.01v-20.20" stroke="currentColor" fill="none"/>
<use x="657.13" y="292.01" xlink:href="#hd"/>
<path d="M660.63 292.01v-20.20" stroke="currentColor" fill="none"/>
<use x="674.43" y="292.01" xlink:href="#hd"/>
<path d="M677.93 292.01v-20.00" stroke="currentColor" fill="none"/>
</g>
</svg>
