<?xml version="1.0" standalone="no"?>
<!DOCTYPE svg PUBLIC "-//W3C//DTD SVG 1.1//EN"
	"http://www.w3.org/Graphics/SVG/1.1/DTD/svg11.dtd">
<svg xmlns="http://www.w3.org/2000/svg" version="1.1"
	xmlns:xlink="http://www.w3.org/1999/xlink"
	xml:space='preserve' color="black"
	width="7.38in" height="2.50in" viewBox="0 0 531 180">
<title>data/results/biggest_11/abc/56.abc (56) tune 1</title>
<!-- Creator: abcm2ps-7.8.14 -->
<!-- CreationDate: Aug  9, 2015 23:50 -->
<!-- CommandLine: -g data/results/biggest_11/abc/56.abc -O /home/allanino/Dropbox/Trabalhos/folkme/svg/56.svg -->
<g transform="scale(0.750)" stroke-width="0.70" font-family="Times" font-size="20.00">
<text x="354.13" y="21.67" text-anchor="middle">Ländler G 5- chords</text>
</g>
<g transform="scale(0.750)" stroke-width="0.70" font-family="Times" font-size="15.00">
<text x="503.83" y="68.01">C</text>
<defs>
<g id="rdots" fill="currentColor">
	<circle cx="0" cy="-9" r="1.2"/>
	<circle cx="0" cy="-15" r="1.2"/>
</g>
</defs>
<use x="109.83" y="134.01" xlink:href="#rdots"/>
<path stroke="currentColor" fill="none"
	d="M105.83 134.01v-24.00"/>
<path stroke="currentColor" fill="none" stroke-width="3"
	d="M101.33 134.01v-24.00"/>
<path stroke="currentColor" fill="none"
	d="M216.13 134.01v-24.00"/>
<path stroke="currentColor" fill="none"
	d="M313.73 134.01v-24.00"/>
<path stroke="currentColor" fill="none"
	d="M412.83 134.01v-24.00"/>
<use x="500.33" y="134.01" xlink:href="#rdots"/>
<path stroke="currentColor" fill="none" stroke-width="3"
	d="M494.83 134.01v-24.00"/>
<path stroke="currentColor" fill="none" stroke-width="3"
	d="M488.83 134.01v-24.00"/>
<use x="483.33" y="134.01" xlink:href="#rdots"/>
<path stroke="currentColor" fill="none"
	d="M606.63 134.01v-24.00"/>
<path stroke="currentColor" fill="none"
	d="M694.93 134.01v-24.00"/>
<path stroke="currentColor" fill="none"
	d="M13.33 134.01h681.60m-681.60 -6h681.60m-681.60 -6h681.60m-681.60 -6h681.60m-681.60 -6h681.60"/>
</g>
<g transform="scale(0.750)" stroke-width="0.70" font-family="Helvetica" font-size="12.00">
<text x="119.53" y="86.61">G</text>
<text x="222.13" y="86.61">D7</text>
<text x="421.53" y="86.61">G</text>
<text x="464.83" y="147.61">&gt;TeilA</text>
<text x="507.33" y="86.61">D7</text>
<text x="615.33" y="86.61">G</text>
<defs>
<path id="utclef" fill="currentColor" d="m-50 -90
	c-72 -41 -72 -158 52 -188
	c150 -10 220 188 90 256
	c-114 52 -275 0 -293 -136
	c-15 -181 93 -229 220 -334
	c88 -87 79 -133 62 -210
	c-51 33 -94 105 -89 186
	c17 267 36 374 49 574
	c6 96 -19 134 -77 135
	c-80 1 -126 -93 -61 -133
	c85 -41 133 101 31 105
	c23 17 92 37 90 -92
	c-10 -223 -39 -342 -50 -617
	c0 -90 0 -162 96 -232
	c56 72 63 230 22 289
	c-74 106 -257 168 -255 316
	c9 153 148 185 252 133
	c86 -65 29 -192 -80 -176
	c-71 12 -105 67 -59 124"/>
<use id="tclef" transform="scale(0.045)"
	xlink:href="#utclef"/>
</defs>
<use x="25.33" y="134.01" xlink:href="#tclef"/>
<defs>
<path id="usharp" fill="currentColor" d="
	m136 -702
	v890
	h32
	v-890
	m128 840
	h32
	v-888
	h-32
	m-232 286
	v116
	l338 -96
	v-116
	m-338 442
	v116
	l338 -98
	v-114"/>
<use id="sh0" transform="translate(-4,5) scale(0.018)"
	xlink:href="#usharp"/>
</defs>
<use x="40.33" y="110.01" xlink:href="#sh0"/>
<g font-family="serif" font-size="16" font-weight="bold" font-style="normal"
	transform="translate(56.33,134.01) scale(1.2,1)">
	<text y="-1" text-anchor="middle">4</text>
	<text y="-13" text-anchor="middle">3</text>
</g>
<path fill="currentColor"
	d="M77.53 121.81l16.70 -1.70v3.20l-16.70 1.70"/>
<defs>
<path id="hl" stroke="currentColor" d="m-6 0h12"/>
</defs>
<use x="74.33" y="140.01" xlink:href="#hl"/>
<defs>
<ellipse id="hd" rx="4.1" ry="2.9"
	transform="rotate(-20)" fill="currentColor"/>
</defs>
<use x="74.33" y="143.01" xlink:href="#hd"/>
<path d="M77.83 143.01v-20.20" stroke="currentColor" fill="none"/>
<use x="90.33" y="140.01" xlink:href="#hl"/>
<use x="90.33" y="140.01" xlink:href="#hd"/>
<path d="M93.83 140.01v-18.80" stroke="currentColor" fill="none"/>
<path fill="currentColor"
	d="M126.43 97.51l79.20 -6.10v3.20l-79.20 6.10"/>
<use x="123.33" y="137.01" xlink:href="#hd"/>
<path d="M126.83 137.01v-38.50" stroke="currentColor" fill="none"/>
<use x="139.03" y="122.01" xlink:href="#hd"/>
<path d="M142.53 122.01v-24.80" stroke="currentColor" fill="none"/>
<use x="154.73" y="122.01" xlink:href="#hd"/>
<path d="M158.23 122.01v-26.00" stroke="currentColor" fill="none"/>
<use x="170.43" y="113.01" xlink:href="#hd"/>
<path d="M173.93 113.01v-18.20" stroke="currentColor" fill="none"/>
<use x="186.13" y="122.01" xlink:href="#hd"/>
<path d="M189.63 122.01v-28.40" stroke="currentColor" fill="none"/>
<use x="201.83" y="122.01" xlink:href="#hd"/>
<path d="M205.33 122.01v-29.60" stroke="currentColor" fill="none"/>
<path fill="currentColor"
	d="M224.73 138.31l16.40 -3.50v-3.20l-16.40 3.50"/>
<use x="228.63" y="119.01" xlink:href="#hd"/>
<path d="M225.13 119.01v18.20" stroke="currentColor" fill="none"/>
<use x="244.33" y="113.01" xlink:href="#hd"/>
<path d="M240.83 113.01v20.80" stroke="currentColor" fill="none"/>
<use x="260.03" y="125.01" xlink:href="#hd"/>
<path d="M263.53 125.01v-20.00" stroke="currentColor" fill="none"/>
<path fill="currentColor"
	d="M286.93 109.81l16.40 0.00v3.20l-16.40 -0.00"/>
<use x="283.73" y="131.01" xlink:href="#hd"/>
<path d="M287.23 131.01v-20.20" stroke="currentColor" fill="none"/>
<use x="299.43" y="131.01" xlink:href="#hd"/>
<path d="M302.93 131.01v-20.20" stroke="currentColor" fill="none"/>
<path fill="currentColor"
	d="M329.33 111.41l16.40 2.30v3.20l-16.40 -2.30"/>
<use x="326.23" y="131.01" xlink:href="#hd"/>
<path d="M329.73 131.01v-18.60" stroke="currentColor" fill="none"/>
<use x="341.93" y="134.01" xlink:href="#hd"/>
<path d="M345.43 134.01v-19.40" stroke="currentColor" fill="none"/>
<use x="359.13" y="137.01" xlink:href="#hd"/>
<path d="M362.63 137.01v-20.00" stroke="currentColor" fill="none"/>
<path fill="currentColor"
	d="M386.03 116.11l16.40 -4.40v3.20l-16.40 4.40"/>
<use x="382.93" y="140.01" xlink:href="#hl"/>
<use x="382.93" y="140.01" xlink:href="#hd"/>
<path d="M386.43 140.01v-23.00" stroke="currentColor" fill="none"/>
<use x="398.63" y="131.01" xlink:href="#hd"/>
<path d="M402.13 131.01v-18.20" stroke="currentColor" fill="none"/>
<use x="425.33" y="125.01" xlink:href="#hd"/>
<path d="M428.83 125.01v-20.00" stroke="currentColor" fill="none"/>
<use x="449.13" y="128.01" xlink:href="#hd"/>
<path d="M452.63 128.01v-20.00" stroke="currentColor" fill="none"/>
<defs>
<path id="r4" fill="currentColor" d="m-1 -8.5
	l3.6 5.1 -2.1 5.2 2.2 4.3
	c-2.6 -2.3 -5.1 0 -2.4 2.6
	c-4.8 -3 -1.5 -6.9 1.4 -4.1
	l-3.1 -4.5 1.9 -5.1 -1.5 -3.5"/>
</defs>
<use x="472.83" y="122.01" xlink:href="#r4"/>
<path fill="currentColor"
	d="M516.93 99.81l79.20 0.00v3.20l-79.20 -0.00"/>
<use x="513.83" y="125.01" xlink:href="#hd"/>
<path d="M517.33 125.01v-24.20" stroke="currentColor" fill="none"/>
<use x="529.53" y="122.01" xlink:href="#hd"/>
<path d="M533.03 122.01v-21.20" stroke="currentColor" fill="none"/>
<use x="545.23" y="119.01" xlink:href="#hd"/>
<path d="M548.73 119.01v-18.20" stroke="currentColor" fill="none"/>
<use x="560.93" y="122.01" xlink:href="#hd"/>
<path d="M564.43 122.01v-21.20" stroke="currentColor" fill="none"/>
<use x="576.63" y="125.01" xlink:href="#hd"/>
<path d="M580.13 125.01v-24.20" stroke="currentColor" fill="none"/>
<use x="592.33" y="122.01" xlink:href="#hd"/>
<path d="M595.83 122.01v-21.20" stroke="currentColor" fill="none"/>
<path fill="currentColor"
	d="M622.23 106.31l16.40 -3.50v3.20l-16.40 3.50"/>
<use x="619.13" y="128.01" xlink:href="#hd"/>
<path d="M622.63 128.01v-20.80" stroke="currentColor" fill="none"/>
<use x="634.83" y="122.01" xlink:href="#hd"/>
<path d="M638.33 122.01v-18.20" stroke="currentColor" fill="none"/>
<use x="652.03" y="137.01" xlink:href="#hd"/>
<circle fill="currentColor" cx="660.03" cy="137.01" r="1.2"/>
<path d="M655.53 137.01v-20.00" stroke="currentColor" fill="none"/>
<use x="680.73" y="122.01" xlink:href="#hd"/>
<path d="M677.23 122.01v20.00" stroke="currentColor" fill="none"/>
<path fill="currentColor"
	d="M677.23 142.01c0.6 -5.6 9.6 -9 5.6 -18.4
	c1.6 6 -1.3 11.6 -5.6 12.8
"/>
<path stroke="currentColor" fill="none"
	d="M144.73 217.01v-24.00"/>
<path stroke="currentColor" fill="none"
	d="M243.63 217.01v-24.00"/>
<path stroke="currentColor" fill="none"
	d="M327.33 217.01v-24.00"/>
<path stroke="currentColor" fill="none"
	d="M417.83 217.01v-24.00"/>
<path stroke="currentColor" fill="none"
	d="M516.73 217.01v-24.00"/>
<path stroke="currentColor" fill="none" stroke-width="3"
	d="M611.23 217.01v-24.00"/>
<path stroke="currentColor" fill="none"
	d="M606.73 217.01v-24.00"/>
<use x="602.73" y="217.01" xlink:href="#rdots"/>
<path stroke="currentColor" fill="none" stroke-width="3"
	d="M693.43 217.01v-24.00"/>
<path stroke="currentColor" fill="none"
	d="M688.93 217.01v-24.00"/>
<path stroke="currentColor" fill="none"
	d="M13.33 217.01h681.60m-681.60 -6h681.60m-681.60 -6h681.60m-681.60 -6h681.60m-681.60 -6h681.60"/>
<text x="51.83" y="170.61">D7</text>
<text x="153.43" y="170.61">G</text>
<text x="249.73" y="170.61">D7</text>
<text x="336.03" y="170.61">G</text>
<text x="423.83" y="170.61">D7</text>
<text x="531.93" y="170.61">G</text>
<text x="627.93" y="170.61">G</text>
</g>
<g transform="scale(0.750)" stroke-width="0.70" font-family="Times" font-size="13.00">
<text x="520.73" y="170.41">1</text>
<path stroke="currentColor" fill="none"
	d="M516.73 159.01v20M516.73 159.01h88.10v20"/>
<text x="616.73" y="170.41">2</text>
<path stroke="currentColor" fill="none"
	d="M612.73 159.01v20M612.73 159.01h82.20v20"/>
<use x="25.33" y="217.01" xlink:href="#tclef"/>
<use x="40.33" y="193.01" xlink:href="#sh0"/>
<path fill="currentColor"
	d="M61.53 182.81l73.80 0.00v3.20l-73.80 -0.00"/>
<use x="58.33" y="220.01" xlink:href="#hd"/>
<path d="M61.83 220.01v-36.20" stroke="currentColor" fill="none"/>
<use x="72.93" y="214.01" xlink:href="#hd"/>
<path d="M76.43 214.01v-30.20" stroke="currentColor" fill="none"/>
<use x="87.63" y="208.01" xlink:href="#hd"/>
<path d="M91.13 208.01v-24.20" stroke="currentColor" fill="none"/>
<use x="102.23" y="220.01" xlink:href="#hd"/>
<path d="M105.73 220.01v-36.20" stroke="currentColor" fill="none"/>
<use x="116.83" y="202.01" xlink:href="#hd"/>
<path d="M120.33 202.01v-18.20" stroke="currentColor" fill="none"/>
<use x="131.43" y="220.01" xlink:href="#hd"/>
<path d="M134.93 220.01v-36.20" stroke="currentColor" fill="none"/>
<path fill="currentColor"
	d="M160.43 185.81l73.80 0.00v3.20l-73.80 -0.00"/>
<use x="157.23" y="211.01" xlink:href="#hd"/>
<path d="M160.73 211.01v-24.20" stroke="currentColor" fill="none"/>
<use x="171.83" y="205.01" xlink:href="#hd"/>
<path d="M175.33 205.01v-18.20" stroke="currentColor" fill="none"/>
<use x="186.53" y="208.01" xlink:href="#hd"/>
<path d="M190.03 208.01v-21.20" stroke="currentColor" fill="none"/>
<use x="201.13" y="211.01" xlink:href="#hd"/>
<path d="M204.63 211.01v-24.20" stroke="currentColor" fill="none"/>
<use x="215.73" y="214.01" xlink:href="#hd"/>
<path d="M219.23 214.01v-27.20" stroke="currentColor" fill="none"/>
<use x="230.33" y="217.01" xlink:href="#hd"/>
<path d="M233.83 217.01v-30.20" stroke="currentColor" fill="none"/>
<use x="256.13" y="220.01" xlink:href="#hd"/>
<path d="M259.63 220.01v-20.00" stroke="currentColor" fill="none"/>
<path fill="currentColor"
	d="M281.33 192.21l15.30 -3.40v3.20l-15.30 3.40"/>
<use x="278.13" y="214.01" xlink:href="#hd"/>
<path d="M281.63 214.01v-20.90" stroke="currentColor" fill="none"/>
<use x="292.73" y="208.01" xlink:href="#hd"/>
<path d="M296.23 208.01v-18.20" stroke="currentColor" fill="none"/>
<use x="309.33" y="202.01" xlink:href="#hd"/>
<path d="M305.83 202.01v20.00" stroke="currentColor" fill="none"/>
<path fill="currentColor"
	d="M343.03 185.81l44.60 3.70v3.20l-44.60 -3.70"/>
<use x="339.83" y="205.01" xlink:href="#hd"/>
<path d="M343.33 205.01v-18.20" stroke="currentColor" fill="none"/>
<use x="354.43" y="211.01" xlink:href="#hd"/>
<path d="M357.93 211.01v-23.00" stroke="currentColor" fill="none"/>
<use x="369.13" y="217.01" xlink:href="#hd"/>
<path d="M372.63 217.01v-27.80" stroke="currentColor" fill="none"/>
<use x="383.73" y="211.01" xlink:href="#hd"/>
<path d="M387.23 211.01v-20.60" stroke="currentColor" fill="none"/>
<use x="399.73" y="220.01" xlink:href="#hd"/>
<path d="M403.23 220.01v-20.00" stroke="currentColor" fill="none"/>
<path fill="currentColor"
	d="M433.43 179.81l73.80 0.00v3.20l-73.80 -0.00"/>
<use x="430.33" y="220.01" xlink:href="#hd"/>
<path d="M433.83 220.01v-39.20" stroke="currentColor" fill="none"/>
<use x="444.93" y="202.01" xlink:href="#hd"/>
<path d="M448.43 202.01v-21.20" stroke="currentColor" fill="none"/>
<use x="459.53" y="205.01" xlink:href="#hd"/>
<path d="M463.03 205.01v-24.20" stroke="currentColor" fill="none"/>
<use x="474.13" y="208.01" xlink:href="#hd"/>
<path d="M477.63 208.01v-27.20" stroke="currentColor" fill="none"/>
<use x="488.83" y="220.01" xlink:href="#hd"/>
<path d="M492.33 220.01v-39.20" stroke="currentColor" fill="none"/>
<use x="503.43" y="199.01" xlink:href="#hd"/>
<path d="M506.93 199.01v-18.20" stroke="currentColor" fill="none"/>
<use x="535.73" y="211.01" xlink:href="#hd"/>
<path d="M539.23 211.01v-20.00" stroke="currentColor" fill="none"/>
<use x="557.73" y="205.01" xlink:href="#r4"/>
<path fill="currentColor"
	d="M580.83 198.81l15.30 0.00v3.20l-15.30 -0.00"/>
<use x="577.63" y="220.01" xlink:href="#hd"/>
<path d="M581.13 220.01v-20.20" stroke="currentColor" fill="none"/>
<use x="592.23" y="220.01" xlink:href="#hd"/>
<path d="M595.73 220.01v-20.20" stroke="currentColor" fill="none"/>
<use x="631.73" y="211.01" xlink:href="#hd"/>
<path d="M635.23 211.01v-20.00" stroke="currentColor" fill="none"/>
<use x="653.73" y="205.01" xlink:href="#r4"/>
<use x="675.73" y="205.01" xlink:href="#r4"/>
</g>
</svg>
