<?xml version="1.0" standalone="no"?>
<!DOCTYPE svg PUBLIC "-//W3C//DTD SVG 1.1//EN"
	"http://www.w3.org/Graphics/SVG/1.1/DTD/svg11.dtd">
<svg xmlns="http://www.w3.org/2000/svg" version="1.1"
	xmlns:xlink="http://www.w3.org/1999/xlink"
	xml:space='preserve' color="black"
	width="7.38in" height="3.97in" viewBox="0 0 531 286">
<title>data/results/biggest_11/abc/59.abc (59) tune 1</title>
<!-- Creator: abcm2ps-7.8.14 -->
<!-- CreationDate: Aug  9, 2015 23:50 -->
<!-- CommandLine: -g data/results/biggest_11/abc/59.abc -O /home/allanino/Dropbox/Trabalhos/folkme/svg/59.svg -->
<g transform="scale(0.750)" stroke-width="0.70" font-family="Times" font-size="20.00">
<text x="354.13" y="21.67" text-anchor="middle">The BallxTadaly.,The</text>
</g>
<g transform="scale(0.750)" stroke-width="0.70" font-family="Times" font-size="16.00">
<text x="354.13" y="41.30" text-anchor="middle">Bill ag - de Elsasset Home wemp the Tay</text>
<text x="354.13" y="60.13" text-anchor="middle">Faltade Polka. GHW.021</text>
</g>
<g transform="scale(0.525)" stroke-width="0.70" font-family="Times" font-size="16.00">
<defs>
<ellipse id="hd" rx="4.1" ry="2.9"
	transform="rotate(-20)" fill="currentColor"/>
</defs>
<use x="114.90" y="147.96" xlink:href="#hd"/>
<circle fill="currentColor" cx="122.90" cy="147.96" r="1.2"/>
<path d="M118.40 147.96v-20.00" stroke="currentColor" fill="none"/>
</g>
<g transform="scale(0.750)" stroke-width="0.70" font-family="Times" font-size="15.00" font-weight="bold">
<text x="90.93" y="105.67">= 120</text>
<path stroke="currentColor" fill="none"
	d="M110.23 147.67v-24.00"/>
<path stroke="currentColor" fill="none"
	d="M256.43 147.67v-24.00"/>
<path stroke="currentColor" fill="none"
	d="M402.53 147.67v-24.00"/>
<path stroke="currentColor" fill="none"
	d="M548.73 147.67v-24.00"/>
<path stroke="currentColor" fill="none"
	d="M694.93 147.67v-24.00"/>
<path stroke="currentColor" fill="none"
	d="M13.33 147.67h681.60m-681.60 -6h681.60m-681.60 -6h681.60m-681.60 -6h681.60m-681.60 -6h681.60"/>
<defs>
<path id="utclef" fill="currentColor" d="m-50 -90
	c-72 -41 -72 -158 52 -188
	c150 -10 220 188 90 256
	c-114 52 -275 0 -293 -136
	c-15 -181 93 -229 220 -334
	c88 -87 79 -133 62 -210
	c-51 33 -94 105 -89 186
	c17 267 36 374 49 574
	c6 96 -19 134 -77 135
	c-80 1 -126 -93 -61 -133
	c85 -41 133 101 31 105
	c23 17 92 37 90 -92
	c-10 -223 -39 -342 -50 -617
	c0 -90 0 -162 96 -232
	c56 72 63 230 22 289
	c-74 106 -257 168 -255 316
	c9 153 148 185 252 133
	c86 -65 29 -192 -80 -176
	c-71 12 -105 67 -59 124"/>
<use id="tclef" transform="scale(0.045)"
	xlink:href="#utclef"/>
</defs>
<use x="25.33" y="147.67" xlink:href="#tclef"/>
<defs>
<path id="usharp" fill="currentColor" d="
	m136 -702
	v890
	h32
	v-890
	m128 840
	h32
	v-888
	h-32
	m-232 286
	v116
	l338 -96
	v-116
	m-338 442
	v116
	l338 -98
	v-114"/>
<use id="sh0" transform="translate(-4,5) scale(0.018)"
	xlink:href="#usharp"/>
</defs>
<use x="40.33" y="123.67" xlink:href="#sh0"/>
<use x="45.83" y="132.67" xlink:href="#sh0"/>
<g font-family="serif" font-size="16" font-weight="bold" font-style="normal"
	transform="translate(61.83,147.67) scale(1.2,1)">
	<text y="-1" text-anchor="middle">8</text>
	<text y="-13" text-anchor="middle">6</text>
</g>
<path fill="currentColor"
	d="M83.03 115.67l16.70 -2.30v3.20l-16.70 2.30"/>
<path fill="currentColor"
	d="M83.33 120.67l16.10 -2.20v3.20l-16.10 2.20"/>
<use x="79.83" y="138.67" xlink:href="#hd"/>
<path d="M83.33 138.67v-22.00" stroke="currentColor" fill="none"/>
<use x="95.93" y="135.67" xlink:href="#hd"/>
<path d="M99.43 135.67v-21.20" stroke="currentColor" fill="none"/>
<path fill="currentColor"
	d="M119.13 147.87l114.00 0.00v-3.20l-114.00 -0.00"/>
<use x="122.93" y="129.67" xlink:href="#hd"/>
<path d="M119.43 129.67v17.20" stroke="currentColor" fill="none"/>
<use x="145.63" y="123.67" xlink:href="#hd"/>
<path d="M142.13 123.67v23.20" stroke="currentColor" fill="none"/>
<use x="168.23" y="129.67" xlink:href="#hd"/>
<path d="M164.73 129.67v17.20" stroke="currentColor" fill="none"/>
<use x="190.93" y="126.67" xlink:href="#hd"/>
<path d="M187.43 126.67v20.20" stroke="currentColor" fill="none"/>
<use x="213.53" y="123.67" xlink:href="#hd"/>
<path d="M210.03 123.67v23.20" stroke="currentColor" fill="none"/>
<use x="236.23" y="120.67" xlink:href="#hd"/>
<path d="M232.73 120.67v26.20" stroke="currentColor" fill="none"/>
<path fill="currentColor"
	d="M265.23 147.87l114.00 0.00v-3.20l-114.00 -0.00"/>
<use x="269.13" y="123.67" xlink:href="#hd"/>
<path d="M265.63 123.67v23.20" stroke="currentColor" fill="none"/>
<use x="291.73" y="126.67" xlink:href="#hd"/>
<path d="M288.23 126.67v20.20" stroke="currentColor" fill="none"/>
<use x="314.43" y="129.67" xlink:href="#hd"/>
<path d="M310.93 129.67v17.20" stroke="currentColor" fill="none"/>
<use x="337.13" y="126.67" xlink:href="#hd"/>
<path d="M333.63 126.67v20.20" stroke="currentColor" fill="none"/>
<use x="359.73" y="129.67" xlink:href="#hd"/>
<path d="M356.23 129.67v17.20" stroke="currentColor" fill="none"/>
<use x="382.43" y="126.67" xlink:href="#hd"/>
<path d="M378.93 126.67v20.20" stroke="currentColor" fill="none"/>
<path fill="currentColor"
	d="M411.43 146.97l114.00 8.20v-3.20l-114.00 -8.20"/>
<defs>
<path id="hl" stroke="currentColor" d="m-6 0h12"/>
</defs>
<use x="415.33" y="117.67" xlink:href="#hl"/>
<use x="415.33" y="117.67" xlink:href="#hd"/>
<path d="M411.83 117.67v28.30" stroke="currentColor" fill="none"/>
<use x="437.93" y="123.67" xlink:href="#hd"/>
<path d="M434.43 123.67v23.90" stroke="currentColor" fill="none"/>
<use x="460.63" y="129.67" xlink:href="#hd"/>
<path d="M457.13 129.67v19.60" stroke="currentColor" fill="none"/>
<use x="483.23" y="132.67" xlink:href="#hd"/>
<path d="M479.73 132.67v18.20" stroke="currentColor" fill="none"/>
<use x="505.93" y="129.67" xlink:href="#hd"/>
<path d="M502.43 129.67v22.80" stroke="currentColor" fill="none"/>
<use x="528.53" y="135.67" xlink:href="#hd"/>
<path d="M525.03 135.67v18.50" stroke="currentColor" fill="none"/>
<path fill="currentColor"
	d="M557.63 154.87l114.00 0.00v-3.20l-114.00 -0.00"/>
<use x="561.53" y="132.67" xlink:href="#hd"/>
<path d="M558.03 132.67v21.20" stroke="currentColor" fill="none"/>
<use x="584.13" y="126.67" xlink:href="#hd"/>
<path d="M580.63 126.67v27.20" stroke="currentColor" fill="none"/>
<use x="606.83" y="117.67" xlink:href="#hl"/>
<use x="606.83" y="117.67" xlink:href="#hd"/>
<path d="M603.33 117.67v36.20" stroke="currentColor" fill="none"/>
<use x="629.43" y="123.67" xlink:href="#hd"/>
<path d="M625.93 123.67v30.20" stroke="currentColor" fill="none"/>
<use x="652.13" y="129.67" xlink:href="#hd"/>
<path d="M648.63 129.67v24.20" stroke="currentColor" fill="none"/>
<use x="674.73" y="135.67" xlink:href="#hd"/>
<path d="M671.23 135.67v18.20" stroke="currentColor" fill="none"/>
<path stroke="currentColor" fill="none"
	d="M213.03 217.67v-24.00"/>
<path stroke="currentColor" fill="none"
	d="M376.33 217.67v-24.00"/>
<path stroke="currentColor" fill="none"
	d="M539.73 217.67v-24.00"/>
<path stroke="currentColor" fill="none"
	d="M694.93 217.67v-24.00"/>
<path stroke="currentColor" fill="none"
	d="M13.33 217.67h681.60m-681.60 -6h681.60m-681.60 -6h681.60m-681.60 -6h681.60m-681.60 -6h681.60"/>
<use x="25.33" y="217.67" xlink:href="#tclef"/>
<use x="40.33" y="193.67" xlink:href="#sh0"/>
<use x="45.83" y="202.67" xlink:href="#sh0"/>
<path fill="currentColor"
	d="M60.03 220.67l127.40 0.00v-3.20l-127.40 -0.00"/>
<use x="63.83" y="193.67" xlink:href="#hd"/>
<path d="M60.33 193.67v26.00" stroke="currentColor" fill="none"/>
<use x="89.13" y="196.67" xlink:href="#hd"/>
<path d="M85.63 196.67v23.00" stroke="currentColor" fill="none"/>
<use x="114.53" y="199.67" xlink:href="#hd"/>
<path d="M111.03 199.67v20.00" stroke="currentColor" fill="none"/>
<use x="139.83" y="196.67" xlink:href="#hd"/>
<path d="M136.33 196.67v23.00" stroke="currentColor" fill="none"/>
<use x="165.23" y="199.67" xlink:href="#hd"/>
<path d="M161.73 199.67v20.00" stroke="currentColor" fill="none"/>
<use x="190.53" y="202.67" xlink:href="#hd"/>
<path d="M187.03 202.67v17.00" stroke="currentColor" fill="none"/>
<path fill="currentColor"
	d="M223.33 222.27l127.40 -8.60v-3.20l-127.40 8.60"/>
<use x="227.13" y="199.67" xlink:href="#hd"/>
<path d="M223.63 199.67v21.60" stroke="currentColor" fill="none"/>
<use x="252.53" y="199.67" xlink:href="#hd"/>
<path d="M249.03 199.67v19.90" stroke="currentColor" fill="none"/>
<use x="277.83" y="199.67" xlink:href="#hd"/>
<path d="M274.33 199.67v18.20" stroke="currentColor" fill="none"/>
<use x="303.13" y="190.67" xlink:href="#hd"/>
<path d="M299.63 190.67v25.50" stroke="currentColor" fill="none"/>
<use x="328.53" y="187.67" xlink:href="#hl"/>
<use x="328.53" y="187.67" xlink:href="#hd"/>
<path d="M325.03 187.67v26.80" stroke="currentColor" fill="none"/>
<use x="353.83" y="187.67" xlink:href="#hl"/>
<use x="353.83" y="184.67" xlink:href="#hd"/>
<path d="M350.33 184.67v28.10" stroke="currentColor" fill="none"/>
<path fill="currentColor"
	d="M386.63 209.67l127.40 12.20v-3.20l-127.40 -12.20"/>
<use x="390.43" y="187.67" xlink:href="#hl"/>
<use x="390.43" y="187.67" xlink:href="#hd"/>
<path d="M386.93 187.67v21.10" stroke="currentColor" fill="none"/>
<use x="415.83" y="190.67" xlink:href="#hd"/>
<path d="M412.33 190.67v20.50" stroke="currentColor" fill="none"/>
<use x="441.13" y="193.67" xlink:href="#hd"/>
<path d="M437.63 193.67v19.90" stroke="currentColor" fill="none"/>
<use x="466.53" y="196.67" xlink:href="#hd"/>
<path d="M463.03 196.67v19.30" stroke="currentColor" fill="none"/>
<use x="491.83" y="199.67" xlink:href="#hd"/>
<path d="M488.33 199.67v18.80" stroke="currentColor" fill="none"/>
<use x="517.13" y="202.67" xlink:href="#hd"/>
<path d="M513.63 202.67v18.20" stroke="currentColor" fill="none"/>
<path fill="currentColor"
	d="M549.93 220.47l51.40 -3.20v-3.20l-51.40 3.20"/>
<use x="553.73" y="199.67" xlink:href="#hd"/>
<path d="M550.23 199.67v19.80" stroke="currentColor" fill="none"/>
<use x="579.13" y="199.67" xlink:href="#hd"/>
<path d="M575.63 199.67v18.20" stroke="currentColor" fill="none"/>
<use x="604.43" y="193.67" xlink:href="#hd"/>
<path d="M600.93 193.67v22.60" stroke="currentColor" fill="none"/>
<use x="632.63" y="187.67" xlink:href="#hl"/>
<use x="632.63" y="187.67" xlink:href="#hd"/>
<path d="M629.13 187.67v20.00" stroke="currentColor" fill="none"/>
<use x="672.43" y="193.67" xlink:href="#hd"/>
<path d="M668.93 193.67v20.00" stroke="currentColor" fill="none"/>
<path fill="currentColor"
	d="M668.93 213.67c0.6 -5.6 9.6 -9 5.6 -18.4
	c1.6 6 -1.3 11.6 -5.6 12.8
"/>
<path stroke="currentColor" fill="none"
	d="M229.93 287.67v-24.00"/>
<path stroke="currentColor" fill="none"
	d="M411.63 287.67v-24.00"/>
<path stroke="currentColor" fill="none"
	d="M593.43 287.67v-24.00"/>
<path stroke="currentColor" fill="none" stroke-width="3"
	d="M693.43 287.67v-24.00"/>
<path stroke="currentColor" fill="none"
	d="M688.93 287.67v-24.00"/>
<defs>
<g id="rdots" fill="currentColor">
	<circle cx="0" cy="-9" r="1.2"/>
	<circle cx="0" cy="-15" r="1.2"/>
</g>
</defs>
<use x="684.93" y="287.67" xlink:href="#rdots"/>
<path stroke="currentColor" fill="none"
	d="M13.33 287.67h681.60m-681.60 -6h681.60m-681.60 -6h681.60m-681.60 -6h681.60m-681.60 -6h681.60"/>
<use x="25.33" y="287.67" xlink:href="#tclef"/>
<use x="40.33" y="263.67" xlink:href="#sh0"/>
<use x="45.83" y="272.67" xlink:href="#sh0"/>
<path fill="currentColor"
	d="M60.03 290.67l141.70 0.00v-3.20l-141.70 -0.00"/>
<use x="63.83" y="260.67" xlink:href="#hd"/>
<path d="M60.33 260.67v29.00" stroke="currentColor" fill="none"/>
<use x="92.03" y="266.67" xlink:href="#hd"/>
<path d="M88.53 266.67v23.00" stroke="currentColor" fill="none"/>
<use x="120.23" y="269.67" xlink:href="#hd"/>
<path d="M116.73 269.67v20.00" stroke="currentColor" fill="none"/>
<use x="148.43" y="272.67" xlink:href="#hd"/>
<path d="M144.93 272.67v17.00" stroke="currentColor" fill="none"/>
<use x="176.63" y="266.67" xlink:href="#hd"/>
<path d="M173.13 266.67v23.00" stroke="currentColor" fill="none"/>
<use x="204.83" y="257.67" xlink:href="#hl"/>
<use x="204.83" y="257.67" xlink:href="#hd"/>
<path d="M201.33 257.67v32.00" stroke="currentColor" fill="none"/>
<path fill="currentColor"
	d="M241.73 287.87l141.70 0.00v-3.20l-141.70 -0.00"/>
<use x="245.53" y="257.67" xlink:href="#hl"/>
<use x="245.53" y="257.67" xlink:href="#hd"/>
<path d="M242.03 257.67v29.20" stroke="currentColor" fill="none"/>
<use x="273.83" y="263.67" xlink:href="#hd"/>
<path d="M270.33 263.67v23.20" stroke="currentColor" fill="none"/>
<use x="302.03" y="269.67" xlink:href="#hd"/>
<path d="M298.53 269.67v17.20" stroke="currentColor" fill="none"/>
<use x="330.23" y="266.67" xlink:href="#hd"/>
<path d="M326.73 266.67v20.20" stroke="currentColor" fill="none"/>
<use x="358.43" y="263.67" xlink:href="#hd"/>
<path d="M354.93 263.67v23.20" stroke="currentColor" fill="none"/>
<use x="386.63" y="260.67" xlink:href="#hd"/>
<path d="M383.13 260.67v26.20" stroke="currentColor" fill="none"/>
<path fill="currentColor"
	d="M423.53 287.87l141.70 0.00v-3.20l-141.70 -0.00"/>
<use x="427.33" y="263.67" xlink:href="#hd"/>
<path d="M423.83 263.67v23.20" stroke="currentColor" fill="none"/>
<use x="455.53" y="266.67" xlink:href="#hd"/>
<path d="M452.03 266.67v20.20" stroke="currentColor" fill="none"/>
<use x="483.73" y="269.67" xlink:href="#hd"/>
<path d="M480.23 269.67v17.20" stroke="currentColor" fill="none"/>
<use x="511.93" y="257.67" xlink:href="#hl"/>
<use x="511.93" y="257.67" xlink:href="#hd"/>
<path d="M508.43 257.67v29.20" stroke="currentColor" fill="none"/>
<use x="540.13" y="263.67" xlink:href="#hd"/>
<path d="M536.63 263.67v23.20" stroke="currentColor" fill="none"/>
<use x="568.33" y="269.67" xlink:href="#hd"/>
<path d="M564.83 269.67v17.20" stroke="currentColor" fill="none"/>
<use x="609.03" y="269.67" xlink:href="#hd"/>
<circle fill="currentColor" cx="617.03" cy="266.67" r="1.2"/>
<path d="M605.53 269.67v20.00" stroke="currentColor" fill="none"/>
<use x="659.53" y="269.67" xlink:href="#hd"/>
<path d="M656.03 269.67v20.00" stroke="currentColor" fill="none"/>
<use x="70.33" y="357.67" xlink:href="#rdots"/>
<path stroke="currentColor" fill="none"
	d="M66.33 357.67v-24.00"/>
<path stroke="currentColor" fill="none" stroke-width="3"
	d="M61.83 357.67v-24.00"/>
<path stroke="currentColor" fill="none"
	d="M94.53 357.67v-24.00"/>
<path stroke="currentColor" fill="none"
	d="M161.13 357.67v-24.00"/>
<path stroke="currentColor" fill="none"
	d="M244.73 357.67v-24.00"/>
<path stroke="currentColor" fill="none"
	d="M323.83 357.67v-24.00"/>
<path stroke="currentColor" fill="none"
	d="M409.63 357.67v-24.00"/>
<path stroke="currentColor" fill="none"
	d="M483.33 357.67v-24.00"/>
<path stroke="currentColor" fill="none"
	d="M548.63 357.67v-24.00"/>
<path stroke="currentColor" fill="none"
	d="M627.63 357.67v-24.00"/>
<path stroke="currentColor" fill="none" stroke-width="3"
	d="M693.43 357.67v-24.00"/>
<path stroke="currentColor" fill="none"
	d="M688.93 357.67v-24.00"/>
<use x="684.93" y="357.67" xlink:href="#rdots"/>
<path stroke="currentColor" fill="none"
	d="M13.33 357.67h681.60m-681.60 -6h681.60m-681.60 -6h681.60m-681.60 -6h681.60m-681.60 -6h681.60"/>
<use x="25.33" y="357.67" xlink:href="#tclef"/>
<use x="40.33" y="333.67" xlink:href="#sh0"/>
<use x="45.83" y="342.67" xlink:href="#sh0"/>
<use x="83.83" y="333.67" xlink:href="#hd"/>
<path d="M80.33 333.67v20.00" stroke="currentColor" fill="none"/>
<path fill="currentColor"
	d="M80.33 353.67c0.6 -5.6 9.6 -9 5.6 -18.4
	c1.6 6 -1.3 11.6 -5.6 12.8
"/>
<use x="107.03" y="327.67" xlink:href="#hl"/>
<use x="107.03" y="327.67" xlink:href="#hd"/>
<path d="M103.53 327.67v20.00" stroke="currentColor" fill="none"/>
<use x="122.83" y="327.67" xlink:href="#hl"/>
<use x="122.83" y="324.67" xlink:href="#hd"/>
<path d="M119.33 324.67v21.00" stroke="currentColor" fill="none"/>
<path fill="currentColor"
	d="M119.33 345.67c0.6 -5.6 9.6 -9 5.6 -18.4
	c1.6 6 -1.3 11.6 -5.6 12.8
"/>
<use x="135.43" y="327.67" xlink:href="#hl"/>
<use x="135.43" y="327.67" xlink:href="#hd"/>
<path d="M131.93 327.67v20.00" stroke="currentColor" fill="none"/>
<use x="150.53" y="333.67" xlink:href="#hd"/>
<path d="M147.03 333.67v20.00" stroke="currentColor" fill="none"/>
<path fill="currentColor"
	d="M147.03 353.67c0.6 -5.6 9.6 -9 5.6 -18.4
	c1.6 6 -1.3 11.6 -5.6 12.8
"/>
<use x="173.63" y="330.67" xlink:href="#hd"/>
<path d="M170.13 330.67v20.00" stroke="currentColor" fill="none"/>
<path fill="currentColor"
	d="M184.93 357.87l46.00 0.00v-3.20l-46.00 -0.00"/>
<use x="188.73" y="336.67" xlink:href="#hd"/>
<path d="M185.23 336.67v20.20" stroke="currentColor" fill="none"/>
<defs>
<path id="ghd" fill="currentColor" d="m1.7 -1
	c-1 -1.7 -4.5 0.2 -3.4 2
	c1 1.7 4.5 -0.2 3.4 -2"/>
</defs>
<use x="199.73" y="339.67" xlink:href="#ghd"/>
<path d="M201.33 339.67v-14.00" stroke="currentColor" fill="none"/>
<path fill="currentColor"
	d="M201.33 325.67c0.6 3.4 5.6 3.8 3 10
	c1.2 -4.4 -1.4 -7 -3 -7
"/>
<path stroke="currentColor" fill="none"
	d="M199.73 344.67c1.40 2.20 5.60 0.40 7.00 -3.00"/>
<use x="211.73" y="336.67" xlink:href="#hd"/>
<path d="M208.23 336.67v20.20" stroke="currentColor" fill="none"/>
<use x="222.93" y="333.67" xlink:href="#hd"/>
<path d="M219.43 333.67v23.20" stroke="currentColor" fill="none"/>
<use x="234.13" y="339.67" xlink:href="#hd"/>
<path d="M230.63 339.67v17.20" stroke="currentColor" fill="none"/>
<path fill="currentColor"
	d="M253.43 360.67l56.60 0.00v-3.20l-56.60 -0.00"/>
<use x="257.23" y="342.67" xlink:href="#hd"/>
<path d="M253.73 342.67v17.00" stroke="currentColor" fill="none"/>
<use x="268.43" y="339.67" xlink:href="#hd"/>
<path d="M264.93 339.67v20.00" stroke="currentColor" fill="none"/>
<use x="279.63" y="336.67" xlink:href="#hd"/>
<path d="M276.13 336.67v23.00" stroke="currentColor" fill="none"/>
<use x="290.83" y="333.67" xlink:href="#hd"/>
<path d="M287.33 333.67v26.00" stroke="currentColor" fill="none"/>
<use x="301.93" y="327.67" xlink:href="#hl"/>
<use x="301.93" y="327.67" xlink:href="#hd"/>
<path d="M298.43 327.67v32.00" stroke="currentColor" fill="none"/>
<use x="313.13" y="333.67" xlink:href="#hd"/>
<path d="M309.63 333.67v26.00" stroke="currentColor" fill="none"/>
<path fill="currentColor"
	d="M332.43 364.37l63.40 6.50v-3.20l-63.40 -6.50"/>
<use x="336.33" y="336.67" xlink:href="#hd"/>
<path d="M332.83 336.67v26.70" stroke="currentColor" fill="none"/>
<use x="347.43" y="339.67" xlink:href="#hd"/>
<path d="M343.93 339.67v24.90" stroke="currentColor" fill="none"/>
<use x="358.63" y="336.67" xlink:href="#hd"/>
<path d="M355.13 336.67v29.00" stroke="currentColor" fill="none"/>
<use x="369.83" y="330.67" xlink:href="#hd"/>
<path d="M366.33 330.67v36.20" stroke="currentColor" fill="none"/>
<use x="381.03" y="345.67" xlink:href="#hd"/>
<path d="M377.53 345.67v22.30" stroke="currentColor" fill="none"/>
<use x="399.03" y="351.67" xlink:href="#hd"/>
<defs>
<path id="unat" fill="currentColor" d="
	m96 -750
	h-32
	v716
	l32 -8
	l182 -54
	v282
	h32
	v-706
	l-34 10
	l-180 50
	v-290
	m0 592
	v-190
	l182 -52
	v188"/>
<use id="nt0" transform="translate(-3,5) scale(0.018)"
	xlink:href="#unat"/>
</defs>
<use x="390.03" y="351.67" xlink:href="#nt0"/>
<path d="M395.53 351.67v18.20" stroke="currentColor" fill="none"/>
<use x="422.13" y="348.67" xlink:href="#hd"/>
<path d="M425.63 348.67v-20.00" stroke="currentColor" fill="none"/>
<path fill="currentColor"
	d="M434.63 353.57l34.90 5.30v-3.20l-34.90 -5.30"/>
<use x="438.43" y="327.67" xlink:href="#hl"/>
<use x="438.43" y="327.67" xlink:href="#hd"/>
<path d="M434.93 327.67v25.00" stroke="currentColor" fill="none"/>
<use x="450.33" y="327.67" xlink:href="#hl"/>
<use x="450.33" y="327.67" xlink:href="#hd"/>
<path d="M446.83 327.67v26.80" stroke="currentColor" fill="none"/>
<use x="461.53" y="333.67" xlink:href="#hd"/>
<path d="M458.03 333.67v22.50" stroke="currentColor" fill="none"/>
<use x="472.73" y="339.67" xlink:href="#hd"/>
<path d="M469.23 339.67v18.20" stroke="currentColor" fill="none"/>
<use x="495.83" y="336.67" xlink:href="#hd"/>
<path d="M492.33 336.67v20.00" stroke="currentColor" fill="none"/>
<use x="510.93" y="336.67" xlink:href="#hd"/>
<path d="M507.43 336.67v20.00" stroke="currentColor" fill="none"/>
<path fill="currentColor"
	d="M507.43 356.67c0.6 -5.6 9.6 -9 5.6 -18.4
	c1.6 6 -1.3 11.6 -5.6 12.8
"/>
<use x="522.83" y="336.67" xlink:href="#hd"/>
<path d="M519.33 336.67v20.00" stroke="currentColor" fill="none"/>
<use x="537.93" y="330.67" xlink:href="#hd"/>
<path d="M534.43 330.67v20.00" stroke="currentColor" fill="none"/>
<path fill="currentColor"
	d="M534.43 350.67c0.6 -5.6 9.6 -9 5.6 -18.4
	c1.6 6 -1.3 11.6 -5.6 12.8
"/>
<path fill="currentColor"
	d="M557.23 354.67l56.60 0.00v-3.20l-56.60 -0.00"/>
<use x="561.13" y="333.67" xlink:href="#hd"/>
<path d="M557.63 333.67v20.00" stroke="currentColor" fill="none"/>
<use x="572.23" y="336.67" xlink:href="#hd"/>
<path d="M568.73 336.67v17.00" stroke="currentColor" fill="none"/>
<use x="583.43" y="333.67" xlink:href="#hd"/>
<path d="M579.93 333.67v20.00" stroke="currentColor" fill="none"/>
<use x="594.63" y="327.67" xlink:href="#hl"/>
<use x="594.63" y="327.67" xlink:href="#hd"/>
<path d="M591.13 327.67v26.00" stroke="currentColor" fill="none"/>
<use x="605.83" y="336.67" xlink:href="#hd"/>
<path d="M602.33 336.67v17.00" stroke="currentColor" fill="none"/>
<use x="616.93" y="333.67" xlink:href="#hd"/>
<path d="M613.43 333.67v20.00" stroke="currentColor" fill="none"/>
<path fill="currentColor"
	d="M636.33 358.97l23.00 -4.00v-3.20l-23.00 4.00"/>
<use x="640.13" y="339.67" xlink:href="#hd"/>
<path d="M636.63 339.67v18.20" stroke="currentColor" fill="none"/>
<use x="651.33" y="336.67" xlink:href="#hd"/>
<path d="M647.83 336.67v19.20" stroke="currentColor" fill="none"/>
<use x="662.53" y="333.67" xlink:href="#hd"/>
<path d="M659.03 333.67v20.30" stroke="currentColor" fill="none"/>
<use x="674.43" y="339.67" xlink:href="#hd"/>
<path d="M670.93 339.67v20.00" stroke="currentColor" fill="none"/>
</g>
</svg>
