<?xml version="1.0" standalone="no"?>
<!DOCTYPE svg PUBLIC "-//W3C//DTD SVG 1.1//EN"
	"http://www.w3.org/Graphics/SVG/1.1/DTD/svg11.dtd">
<svg xmlns="http://www.w3.org/2000/svg" version="1.1"
	xmlns:xlink="http://www.w3.org/1999/xlink"
	xml:space='preserve' color="black"
	width="7.38in" height="3.49in" viewBox="0 0 531 252">
<title>data/results/biggest_11/abc/60.abc (60) tune 1</title>
<!-- Creator: abcm2ps-7.8.14 -->
<!-- CreationDate: Aug  9, 2015 23:50 -->
<!-- CommandLine: -g data/results/biggest_11/abc/60.abc -O /home/allanino/Dropbox/Trabalhos/folkme/svg/60.svg -->
<g transform="scale(0.750)" stroke-width="0.70" font-family="Times" font-size="20.00">
<text x="354.13" y="21.67" text-anchor="middle">Seadorson</text>
</g>
<g transform="scale(0.750)" stroke-width="0.70" font-family="Times" font-size="16.00">
<text x="354.13" y="41.30" text-anchor="middle">Be Cope du Nathan</text>
<text x="354.13" y="60.13" text-anchor="middle">Miller&apos;s Jig</text>
<text x="354.13" y="78.96" text-anchor="middle">Martins and</text>
<defs>
<g id="rdots" fill="currentColor">
	<circle cx="0" cy="-9" r="1.2"/>
	<circle cx="0" cy="-15" r="1.2"/>
</g>
</defs>
<use x="95.83" y="160.50" xlink:href="#rdots"/>
<path stroke="currentColor" fill="none"
	d="M91.83 160.50v-24.00"/>
<path stroke="currentColor" fill="none" stroke-width="3"
	d="M87.33 160.50v-24.00"/>
<path stroke="currentColor" fill="none"
	d="M128.03 160.50v-24.00"/>
<path stroke="currentColor" fill="none"
	d="M206.93 160.50v-24.00"/>
<path stroke="currentColor" fill="none"
	d="M271.93 160.50v-24.00"/>
<path stroke="currentColor" fill="none"
	d="M343.53 160.50v-24.00"/>
<path stroke="currentColor" fill="none"
	d="M420.93 160.50v-24.00"/>
<path stroke="currentColor" fill="none"
	d="M499.83 160.50v-24.00"/>
<path stroke="currentColor" fill="none"
	d="M551.73 160.50v-24.00"/>
<path stroke="currentColor" fill="none"
	d="M623.33 160.50v-24.00"/>
<path stroke="currentColor" fill="none"
	d="M694.93 160.50v-24.00"/>
<path stroke="currentColor" fill="none"
	d="M13.33 160.50h681.60m-681.60 -6h681.60m-681.60 -6h681.60m-681.60 -6h681.60m-681.60 -6h681.60"/>
</g>
<g transform="scale(0.750)" stroke-width="0.70" font-family="Helvetica" font-size="12.00">
<text x="136.73" y="119.10">A</text>
<text x="278.63" y="119.10">E7</text>
<text x="352.23" y="119.10">A</text>
<text x="425.83" y="119.10">Bm</text>
<text x="461.03" y="119.10">E7</text>
<text x="508.53" y="119.10">A</text>
<text x="561.03" y="119.10">E</text>
<defs>
<path id="utclef" fill="currentColor" d="m-50 -90
	c-72 -41 -72 -158 52 -188
	c150 -10 220 188 90 256
	c-114 52 -275 0 -293 -136
	c-15 -181 93 -229 220 -334
	c88 -87 79 -133 62 -210
	c-51 33 -94 105 -89 186
	c17 267 36 374 49 574
	c6 96 -19 134 -77 135
	c-80 1 -126 -93 -61 -133
	c85 -41 133 101 31 105
	c23 17 92 37 90 -92
	c-10 -223 -39 -342 -50 -617
	c0 -90 0 -162 96 -232
	c56 72 63 230 22 289
	c-74 106 -257 168 -255 316
	c9 153 148 185 252 133
	c86 -65 29 -192 -80 -176
	c-71 12 -105 67 -59 124"/>
<use id="tclef" transform="scale(0.045)"
	xlink:href="#utclef"/>
</defs>
<use x="25.33" y="160.50" xlink:href="#tclef"/>
<defs>
<path id="usharp" fill="currentColor" d="
	m136 -702
	v890
	h32
	v-890
	m128 840
	h32
	v-888
	h-32
	m-232 286
	v116
	l338 -96
	v-116
	m-338 442
	v116
	l338 -98
	v-114"/>
<use id="sh0" transform="translate(-4,5) scale(0.018)"
	xlink:href="#usharp"/>
</defs>
<use x="40.33" y="136.50" xlink:href="#sh0"/>
<use x="45.83" y="145.50" xlink:href="#sh0"/>
<use x="51.33" y="133.50" xlink:href="#sh0"/>
<g font-family="serif" font-size="16" font-weight="bold" font-style="normal"
	transform="translate(67.33,160.50) scale(1.2,1)">
	<text y="-1" text-anchor="middle">8</text>
	<text y="-13" text-anchor="middle">6</text>
</g>
<path fill="currentColor"
	d="M105.53 167.80l9.90 -1.90v-3.20l-9.90 1.90"/>
<path fill="currentColor"
	d="M105.83 162.70l9.20 -1.80v-3.20l-9.20 1.80"/>
<defs>
<ellipse id="hd" rx="4.1" ry="2.9"
	transform="rotate(-20)" fill="currentColor"/>
</defs>
<use x="109.33" y="145.50" xlink:href="#hd"/>
<path d="M105.83 145.50v21.20" stroke="currentColor" fill="none"/>
<use x="118.53" y="142.50" xlink:href="#hd"/>
<path d="M115.03 142.50v22.40" stroke="currentColor" fill="none"/>
<path fill="currentColor"
	d="M136.63 170.70l56.40 0.00v-3.20l-56.40 -0.00"/>
<use x="140.53" y="139.50" xlink:href="#hd"/>
<path d="M137.03 139.50v30.20" stroke="currentColor" fill="none"/>
<use x="151.63" y="145.50" xlink:href="#hd"/>
<path d="M148.13 145.50v24.20" stroke="currentColor" fill="none"/>
<use x="162.83" y="148.50" xlink:href="#hd"/>
<path d="M159.33 148.50v21.20" stroke="currentColor" fill="none"/>
<use x="173.93" y="151.50" xlink:href="#hd"/>
<path d="M170.43 151.50v18.20" stroke="currentColor" fill="none"/>
<use x="185.13" y="145.50" xlink:href="#hd"/>
<path d="M181.63 145.50v24.20" stroke="currentColor" fill="none"/>
<use x="196.33" y="136.50" xlink:href="#hd"/>
<path d="M192.83 136.50v33.20" stroke="currentColor" fill="none"/>
<use x="219.43" y="139.50" xlink:href="#hd"/>
<path d="M215.93 139.50v20.00" stroke="currentColor" fill="none"/>
<use x="234.43" y="145.50" xlink:href="#hd"/>
<path d="M230.93 145.50v20.00" stroke="currentColor" fill="none"/>
<path fill="currentColor"
	d="M230.93 165.50c0.6 -5.6 9.6 -9 5.6 -18.4
	c1.6 6 -1.3 11.6 -5.6 12.8
"/>
<use x="246.33" y="139.50" xlink:href="#hd"/>
<path d="M242.83 139.50v20.00" stroke="currentColor" fill="none"/>
<use x="261.33" y="142.50" xlink:href="#hd"/>
<path d="M257.83 142.50v20.00" stroke="currentColor" fill="none"/>
<path fill="currentColor"
	d="M257.83 162.50c0.6 -5.6 9.6 -9 5.6 -18.4
	c1.6 6 -1.3 11.6 -5.6 12.8
"/>
<use x="284.43" y="145.50" xlink:href="#hd"/>
<path d="M280.93 145.50v20.00" stroke="currentColor" fill="none"/>
<path fill="currentColor"
	d="M295.63 157.50l34.10 0.00v-3.20l-34.10 -0.00"/>
<use x="299.43" y="139.50" xlink:href="#hd"/>
<path d="M295.93 139.50v17.00" stroke="currentColor" fill="none"/>
<use x="310.63" y="139.50" xlink:href="#hd"/>
<path d="M307.13 139.50v17.00" stroke="currentColor" fill="none"/>
<use x="321.73" y="136.50" xlink:href="#hd"/>
<path d="M318.23 136.50v20.00" stroke="currentColor" fill="none"/>
<use x="332.93" y="133.50" xlink:href="#hd"/>
<path d="M329.43 133.50v23.00" stroke="currentColor" fill="none"/>
<defs>
<path id="hl" stroke="currentColor" d="m-6 0h12"/>
</defs>
<use x="356.03" y="130.50" xlink:href="#hl"/>
<use x="356.03" y="130.50" xlink:href="#hd"/>
<path d="M352.53 130.50v20.00" stroke="currentColor" fill="none"/>
<path fill="currentColor"
	d="M373.13 133.50l41.00 0.00v3.20l-41.00 -0.00"/>
<use x="370.03" y="151.50" xlink:href="#hd"/>
<path d="M373.53 151.50v-17.00" stroke="currentColor" fill="none"/>
<use x="381.13" y="151.50" xlink:href="#hd"/>
<path d="M384.63 151.50v-17.00" stroke="currentColor" fill="none"/>
<use x="399.13" y="154.50" xlink:href="#hd"/>
<use x="390.13" y="154.50" xlink:href="#sh0"/>
<path d="M402.63 154.50v-20.00" stroke="currentColor" fill="none"/>
<use x="410.33" y="151.50" xlink:href="#hd"/>
<path d="M413.83 151.50v-17.00" stroke="currentColor" fill="none"/>
<path fill="currentColor"
	d="M429.63 167.70l56.40 0.00v-3.20l-56.40 -0.00"/>
<use x="433.43" y="148.50" xlink:href="#hd"/>
<path d="M429.93 148.50v18.20" stroke="currentColor" fill="none"/>
<use x="444.63" y="145.50" xlink:href="#hd"/>
<path d="M441.13 145.50v21.20" stroke="currentColor" fill="none"/>
<use x="455.73" y="142.50" xlink:href="#hd"/>
<path d="M452.23 142.50v24.20" stroke="currentColor" fill="none"/>
<use x="466.93" y="148.50" xlink:href="#hd"/>
<path d="M463.43 148.50v18.20" stroke="currentColor" fill="none"/>
<use x="478.03" y="145.50" xlink:href="#hd"/>
<path d="M474.53 145.50v21.20" stroke="currentColor" fill="none"/>
<use x="489.23" y="148.50" xlink:href="#hd"/>
<path d="M485.73 148.50v18.20" stroke="currentColor" fill="none"/>
<use x="512.33" y="151.50" xlink:href="#hd"/>
<circle fill="currentColor" cx="520.33" cy="151.50" r="1.2"/>
<path d="M515.83 151.50v-20.00" stroke="currentColor" fill="none"/>
<use x="533.73" y="139.50" xlink:href="#hd"/>
<circle fill="currentColor" cx="541.73" cy="139.50" r="1.2"/>
<path d="M530.23 139.50v20.00" stroke="currentColor" fill="none"/>
<use x="564.23" y="130.50" xlink:href="#hl"/>
<use x="564.23" y="130.50" xlink:href="#hd"/>
<path d="M560.73 130.50v20.00" stroke="currentColor" fill="none"/>
<path fill="currentColor"
	d="M575.33 154.70l34.10 0.00v-3.20l-34.10 -0.00"/>
<use x="579.23" y="133.50" xlink:href="#hd"/>
<path d="M575.73 133.50v20.20" stroke="currentColor" fill="none"/>
<use x="590.33" y="130.50" xlink:href="#hl"/>
<use x="590.33" y="130.50" xlink:href="#hd"/>
<path d="M586.83 130.50v23.20" stroke="currentColor" fill="none"/>
<use x="601.53" y="133.50" xlink:href="#hd"/>
<path d="M598.03 133.50v20.20" stroke="currentColor" fill="none"/>
<use x="612.63" y="136.50" xlink:href="#hd"/>
<path d="M609.13 136.50v17.20" stroke="currentColor" fill="none"/>
<use x="635.83" y="139.50" xlink:href="#hd"/>
<path d="M632.33 139.50v20.00" stroke="currentColor" fill="none"/>
<path fill="currentColor"
	d="M646.93 164.80l34.10 6.00v-3.20l-34.10 -6.00"/>
<use x="650.83" y="142.50" xlink:href="#hd"/>
<path d="M647.33 142.50v21.30" stroke="currentColor" fill="none"/>
<use x="661.93" y="145.50" xlink:href="#hd"/>
<path d="M658.43 145.50v20.30" stroke="currentColor" fill="none"/>
<use x="673.13" y="148.50" xlink:href="#hd"/>
<path d="M669.63 148.50v19.20" stroke="currentColor" fill="none"/>
<use x="684.23" y="151.50" xlink:href="#hd"/>
<path d="M680.73 151.50v18.20" stroke="currentColor" fill="none"/>
<path stroke="currentColor" fill="none"
	d="M211.93 236.50v-24.00"/>
<path stroke="currentColor" fill="none"
	d="M342.73 236.50v-24.00"/>
<path stroke="currentColor" fill="none"
	d="M523.33 236.50v-24.00"/>
<path stroke="currentColor" fill="none"
	d="M694.93 236.50v-24.00"/>
<path stroke="currentColor" fill="none"
	d="M13.33 236.50h681.60m-681.60 -6h681.60m-681.60 -6h681.60m-681.60 -6h681.60m-681.60 -6h681.60"/>
<text x="65.53" y="195.10">A</text>
<text x="223.73" y="195.10">A</text>
<text x="350.63" y="195.10">Bm</text>
<text x="533.03" y="195.10">E7</text>
<text x="666.23" y="195.10">A</text>
<use x="25.33" y="236.50" xlink:href="#tclef"/>
<use x="40.33" y="212.50" xlink:href="#sh0"/>
<use x="45.83" y="221.50" xlink:href="#sh0"/>
<use x="51.33" y="209.50" xlink:href="#sh0"/>
<use x="69.33" y="215.50" xlink:href="#hd"/>
<circle fill="currentColor" cx="77.33" cy="215.50" r="1.2"/>
<path d="M65.83 215.50v20.00" stroke="currentColor" fill="none"/>
<path fill="currentColor"
	d="M115.53 244.50l68.30 0.00v-3.20l-68.30 -0.00"/>
<path fill="currentColor"
	d="M115.93 239.50l19.80 0.00v-3.20l-19.80 -0.00"/>
<use x="119.43" y="221.50" xlink:href="#hd"/>
<path d="M115.93 221.50v22.00" stroke="currentColor" fill="none"/>
<use x="139.23" y="212.50" xlink:href="#hd"/>
<path d="M135.73 212.50v31.00" stroke="currentColor" fill="none"/>
<use x="159.03" y="215.50" xlink:href="#hd"/>
<path d="M155.53 215.50v28.00" stroke="currentColor" fill="none"/>
<use x="187.03" y="221.50" xlink:href="#hd"/>
<path d="M183.53 221.50v22.00" stroke="currentColor" fill="none"/>
<use x="227.53" y="206.50" xlink:href="#hl"/>
<use x="227.53" y="206.50" xlink:href="#hd"/>
<path d="M224.03 206.50v20.00" stroke="currentColor" fill="none"/>
<use x="271.53" y="206.50" xlink:href="#hl"/>
<use x="271.53" y="206.50" xlink:href="#hd"/>
<path d="M268.03 206.50v20.00" stroke="currentColor" fill="none"/>
<path fill="currentColor"
	d="M268.03 226.50c0.6 -5.6 9.6 -9 5.6 -18.4
	c1.6 6 -1.3 11.6 -5.6 12.8
"/>
<use x="302.63" y="206.50" xlink:href="#hl"/>
<use x="302.63" y="206.50" xlink:href="#hd"/>
<circle fill="currentColor" cx="310.63" cy="203.50" r="1.2"/>
<path d="M299.13 206.50v20.00" stroke="currentColor" fill="none"/>
<path fill="currentColor"
	d="M354.43 243.70l140.80 0.00v-3.20l-140.80 -0.00"/>
<use x="358.33" y="212.50" xlink:href="#hd"/>
<path d="M354.83 212.50v30.20" stroke="currentColor" fill="none"/>
<use x="386.33" y="218.50" xlink:href="#hd"/>
<path d="M382.83 218.50v24.20" stroke="currentColor" fill="none"/>
<use x="414.33" y="224.50" xlink:href="#hd"/>
<path d="M410.83 224.50v18.20" stroke="currentColor" fill="none"/>
<use x="442.33" y="224.50" xlink:href="#hd"/>
<path d="M438.83 224.50v18.20" stroke="currentColor" fill="none"/>
<use x="470.33" y="212.50" xlink:href="#hd"/>
<path d="M466.83 212.50v30.20" stroke="currentColor" fill="none"/>
<use x="498.43" y="218.50" xlink:href="#hd"/>
<path d="M494.93 218.50v24.20" stroke="currentColor" fill="none"/>
<path fill="currentColor"
	d="M535.03 240.70l56.70 -3.20v-3.20l-56.70 3.20"/>
<use x="538.83" y="221.50" xlink:href="#hd"/>
<path d="M535.33 221.50v18.20" stroke="currentColor" fill="none"/>
<use x="566.83" y="215.50" xlink:href="#hd"/>
<path d="M563.33 215.50v22.60" stroke="currentColor" fill="none"/>
<use x="594.93" y="215.50" xlink:href="#hd"/>
<path d="M591.43 215.50v21.00" stroke="currentColor" fill="none"/>
<use x="626.03" y="215.50" xlink:href="#hd"/>
<path d="M622.53 215.50v20.00" stroke="currentColor" fill="none"/>
<use x="670.03" y="206.50" xlink:href="#hl"/>
<use x="670.03" y="206.50" xlink:href="#hd"/>
<path d="M666.53 206.50v20.00" stroke="currentColor" fill="none"/>
<path fill="currentColor"
	d="M666.53 226.50c0.6 -5.6 9.6 -9 5.6 -18.4
	c1.6 6 -1.3 11.6 -5.6 12.8
"/>
<path stroke="currentColor" fill="none"
	d="M222.33 312.50v-24.00"/>
<path stroke="currentColor" fill="none"
	d="M401.33 312.50v-24.00"/>
<path stroke="currentColor" fill="none"
	d="M593.13 312.50v-24.00"/>
<path stroke="currentColor" fill="none" stroke-width="3"
	d="M693.43 312.50v-24.00"/>
<path stroke="currentColor" fill="none"
	d="M688.93 312.50v-24.00"/>
<use x="684.93" y="312.50" xlink:href="#rdots"/>
<path stroke="currentColor" fill="none"
	d="M13.33 312.50h681.60m-681.60 -6h681.60m-681.60 -6h681.60m-681.60 -6h681.60m-681.60 -6h681.60"/>
<text x="65.53" y="271.10">A</text>
<text x="235.03" y="271.10">D</text>
<text x="414.63" y="271.10">E</text>
<text x="499.53" y="271.10">Bm</text>
<text x="603.83" y="271.10">E7</text>
<text x="653.73" y="271.10">A</text>
<use x="25.33" y="312.50" xlink:href="#tclef"/>
<use x="40.33" y="288.50" xlink:href="#sh0"/>
<use x="45.83" y="297.50" xlink:href="#sh0"/>
<use x="51.33" y="285.50" xlink:href="#sh0"/>
<use x="69.33" y="282.50" xlink:href="#hl"/>
<use x="69.33" y="282.50" xlink:href="#hd"/>
<path d="M65.83 282.50v20.00" stroke="currentColor" fill="none"/>
<use x="116.03" y="282.50" xlink:href="#hl"/>
<use x="116.03" y="282.50" xlink:href="#hd"/>
<path d="M112.53 282.50v20.00" stroke="currentColor" fill="none"/>
<path fill="currentColor"
	d="M112.53 302.50c0.6 -5.6 9.6 -9 5.6 -18.4
	c1.6 6 -1.3 11.6 -5.6 12.8
"/>
<use x="149.13" y="285.50" xlink:href="#hd"/>
<path d="M145.63 285.50v20.00" stroke="currentColor" fill="none"/>
<use x="195.83" y="291.50" xlink:href="#hd"/>
<path d="M192.33 291.50v20.00" stroke="currentColor" fill="none"/>
<path fill="currentColor"
	d="M192.33 311.50c0.6 -5.6 9.6 -9 5.6 -18.4
	c1.6 6 -1.3 11.6 -5.6 12.8
"/>
<use x="238.83" y="288.50" xlink:href="#hd"/>
<path d="M235.33 288.50v20.00" stroke="currentColor" fill="none"/>
<path fill="currentColor"
	d="M281.73 308.40l90.00 5.30v-3.20l-90.00 -5.30"/>
<use x="285.63" y="285.50" xlink:href="#hd"/>
<path d="M282.13 285.50v22.00" stroke="currentColor" fill="none"/>
<use x="315.33" y="282.50" xlink:href="#hl"/>
<use x="315.33" y="282.50" xlink:href="#hd"/>
<path d="M311.83 282.50v26.70" stroke="currentColor" fill="none"/>
<use x="345.13" y="288.50" xlink:href="#hd"/>
<use x="336.13" y="288.50" xlink:href="#sh0"/>
<path d="M341.63 288.50v22.50" stroke="currentColor" fill="none"/>
<use x="374.83" y="294.50" xlink:href="#hd"/>
<path d="M371.33 294.50v18.20" stroke="currentColor" fill="none"/>
<path fill="currentColor"
	d="M414.03 328.70l149.50 0.00v-3.20l-149.50 -0.00"/>
<use x="417.83" y="291.50" xlink:href="#hd"/>
<path d="M414.33 291.50v36.20" stroke="currentColor" fill="none"/>
<use x="447.63" y="288.50" xlink:href="#hd"/>
<path d="M444.13 288.50v39.20" stroke="currentColor" fill="none"/>
<use x="477.43" y="291.50" xlink:href="#hd"/>
<path d="M473.93 291.50v36.20" stroke="currentColor" fill="none"/>
<use x="507.13" y="309.50" xlink:href="#hd"/>
<path d="M503.63 309.50v18.20" stroke="currentColor" fill="none"/>
<use x="536.93" y="300.50" xlink:href="#hd"/>
<path d="M533.43 300.50v27.20" stroke="currentColor" fill="none"/>
<use x="566.63" y="294.50" xlink:href="#hd"/>
<path d="M563.13 294.50v33.20" stroke="currentColor" fill="none"/>
<use x="609.63" y="297.50" xlink:href="#hd"/>
<circle fill="currentColor" cx="617.63" cy="297.50" r="1.2"/>
<path d="M606.13 297.50v20.00" stroke="currentColor" fill="none"/>
<use x="657.53" y="303.50" xlink:href="#hd"/>
<path d="M661.03 303.50v-20.00" stroke="currentColor" fill="none"/>
</g>
</svg>
