<?xml version="1.0" standalone="no"?>
<!DOCTYPE svg PUBLIC "-//W3C//DTD SVG 1.1//EN"
	"http://www.w3.org/Graphics/SVG/1.1/DTD/svg11.dtd">
<svg xmlns="http://www.w3.org/2000/svg" version="1.1"
	xmlns:xlink="http://www.w3.org/1999/xlink"
	xml:space='preserve' color="black"
	width="7.38in" height="2.08in" viewBox="0 0 531 150">
<title>data/results/biggest_11/abc/71.abc (71) tune 1</title>
<!-- Creator: abcm2ps-7.8.14 -->
<!-- CreationDate: Aug  9, 2015 23:50 -->
<!-- CommandLine: -g data/results/biggest_11/abc/71.abc -O /home/allanino/Dropbox/Trabalhos/folkme/svg/71.svg -->
<g transform="scale(0.750)" stroke-width="0.70" font-family="Times" font-size="20.00">
<text x="354.13" y="21.67" text-anchor="middle">Mazurka CF chords</text>
<path stroke="currentColor" fill="none"
	d="M137.93 99.01v-24.00"/>
<path stroke="currentColor" fill="none"
	d="M256.53 99.01v-24.00"/>
<path stroke="currentColor" fill="none"
	d="M366.83 99.01v-24.00"/>
<path stroke="currentColor" fill="none"
	d="M485.23 99.01v-24.00"/>
<path stroke="currentColor" fill="none"
	d="M595.43 99.01v-24.00"/>
<path stroke="currentColor" fill="none"
	d="M694.93 99.01v-24.00"/>
<path stroke="currentColor" fill="none"
	d="M13.33 99.01h681.60m-681.60 -6h681.60m-681.60 -6h681.60m-681.60 -6h681.60m-681.60 -6h681.60"/>
</g>
<g transform="scale(0.750)" stroke-width="0.70" font-family="Helvetica" font-size="12.00">
<text x="58.33" y="62.61">C</text>
<text x="262.63" y="62.61">G7</text>
<defs>
<path id="utclef" fill="currentColor" d="m-50 -90
	c-72 -41 -72 -158 52 -188
	c150 -10 220 188 90 256
	c-114 52 -275 0 -293 -136
	c-15 -181 93 -229 220 -334
	c88 -87 79 -133 62 -210
	c-51 33 -94 105 -89 186
	c17 267 36 374 49 574
	c6 96 -19 134 -77 135
	c-80 1 -126 -93 -61 -133
	c85 -41 133 101 31 105
	c23 17 92 37 90 -92
	c-10 -223 -39 -342 -50 -617
	c0 -90 0 -162 96 -232
	c56 72 63 230 22 289
	c-74 106 -257 168 -255 316
	c9 153 148 185 252 133
	c86 -65 29 -192 -80 -176
	c-71 12 -105 67 -59 124"/>
<use id="tclef" transform="scale(0.045)"
	xlink:href="#utclef"/>
</defs>
<use x="25.33" y="99.01" xlink:href="#tclef"/>
<g font-family="serif" font-size="16" font-weight="bold" font-style="normal"
	transform="translate(43.83,99.01) scale(1.2,1)">
	<text y="-1" text-anchor="middle">4</text>
	<text y="-13" text-anchor="middle">3</text>
</g>
<defs>
<ellipse id="hd" rx="4.1" ry="2.9"
	transform="rotate(-20)" fill="currentColor"/>
</defs>
<use x="61.83" y="78.01" xlink:href="#hd"/>
<path d="M58.33 78.01v20.00" stroke="currentColor" fill="none"/>
<defs>
<path id="hl" stroke="currentColor" d="m-6 0h12"/>
</defs>
<use x="89.63" y="69.01" xlink:href="#hl"/>
<use x="89.63" y="63.01" xlink:href="#hl"/>
<use x="89.63" y="63.01" xlink:href="#hd"/>
<circle fill="currentColor" cx="97.63" cy="60.01" r="1.2"/>
<path d="M86.13 63.01v24.00" stroke="currentColor" fill="none"/>
<use x="121.93" y="69.01" xlink:href="#hl"/>
<use x="121.93" y="66.01" xlink:href="#hd"/>
<path d="M118.43 66.01v21.00" stroke="currentColor" fill="none"/>
<path fill="currentColor"
	d="M118.43 87.01c0.6 -5.6 9.6 -9 5.6 -18.4
	c1.6 6 -1.3 11.6 -5.6 12.8
"/>
<path fill="currentColor"
	d="M146.63 94.71l90.70 8.50v-3.20l-90.70 -8.50"/>
<use x="150.43" y="69.01" xlink:href="#hl"/>
<use x="150.43" y="63.01" xlink:href="#hl"/>
<use x="150.43" y="63.01" xlink:href="#hd"/>
<path d="M146.93 63.01v30.80" stroke="currentColor" fill="none"/>
<use x="168.53" y="69.01" xlink:href="#hl"/>
<use x="168.53" y="66.01" xlink:href="#hd"/>
<path d="M165.03 66.01v29.50" stroke="currentColor" fill="none"/>
<use x="186.63" y="69.01" xlink:href="#hl"/>
<use x="186.63" y="69.01" xlink:href="#hd"/>
<path d="M183.13 69.01v28.20" stroke="currentColor" fill="none"/>
<use x="204.53" y="72.01" xlink:href="#hd"/>
<path d="M201.03 72.01v26.80" stroke="currentColor" fill="none"/>
<use x="222.53" y="78.01" xlink:href="#hd"/>
<path d="M219.03 78.01v22.50" stroke="currentColor" fill="none"/>
<use x="240.53" y="84.01" xlink:href="#hd"/>
<path d="M237.03 84.01v18.20" stroke="currentColor" fill="none"/>
<use x="269.03" y="87.01" xlink:href="#hd"/>
<path d="M265.53 87.01v20.00" stroke="currentColor" fill="none"/>
<path fill="currentColor"
	d="M293.03 93.21l54.60 0.00v-3.20l-54.60 -0.00"/>
<use x="296.93" y="72.01" xlink:href="#hd"/>
<path d="M293.43 72.01v20.20" stroke="currentColor" fill="none"/>
<use x="314.83" y="72.01" xlink:href="#hd"/>
<path d="M311.33 72.01v20.20" stroke="currentColor" fill="none"/>
<use x="332.83" y="72.01" xlink:href="#hd"/>
<path d="M329.33 72.01v20.20" stroke="currentColor" fill="none"/>
<use x="350.73" y="72.01" xlink:href="#hd"/>
<path d="M347.23 72.01v20.20" stroke="currentColor" fill="none"/>
<path fill="currentColor"
	d="M375.53 97.21l90.50 6.10v-3.20l-90.50 -6.10"/>
<use x="379.33" y="72.01" xlink:href="#hd"/>
<path d="M375.83 72.01v24.20" stroke="currentColor" fill="none"/>
<use x="397.33" y="75.01" xlink:href="#hd"/>
<path d="M393.83 75.01v22.40" stroke="currentColor" fill="none"/>
<use x="415.23" y="75.01" xlink:href="#hd"/>
<path d="M411.73 75.01v23.60" stroke="currentColor" fill="none"/>
<use x="433.23" y="78.01" xlink:href="#hd"/>
<path d="M429.73 78.01v21.80" stroke="currentColor" fill="none"/>
<use x="451.13" y="81.01" xlink:href="#hd"/>
<path d="M447.63 81.01v20.00" stroke="currentColor" fill="none"/>
<use x="469.13" y="84.01" xlink:href="#hd"/>
<path d="M465.63 84.01v18.20" stroke="currentColor" fill="none"/>
<use x="497.73" y="87.01" xlink:href="#hd"/>
<path d="M494.23 87.01v20.00" stroke="currentColor" fill="none"/>
<path fill="currentColor"
	d="M521.63 106.21l54.60 0.00v-3.20l-54.60 -0.00"/>
<use x="525.53" y="81.01" xlink:href="#hd"/>
<path d="M522.03 81.01v24.20" stroke="currentColor" fill="none"/>
<use x="543.43" y="75.01" xlink:href="#hd"/>
<path d="M539.93 75.01v30.20" stroke="currentColor" fill="none"/>
<use x="561.43" y="87.01" xlink:href="#hd"/>
<path d="M557.93 87.01v18.20" stroke="currentColor" fill="none"/>
<use x="579.43" y="72.01" xlink:href="#hd"/>
<path d="M575.93 72.01v33.20" stroke="currentColor" fill="none"/>
<use x="607.93" y="75.01" xlink:href="#hd"/>
<path d="M604.43 75.01v20.00" stroke="currentColor" fill="none"/>
<use x="635.83" y="87.01" xlink:href="#hd"/>
<path d="M632.33 87.01v20.00" stroke="currentColor" fill="none"/>
<path fill="currentColor"
	d="M664.03 67.31l18.60 2.30v3.20l-18.60 -2.30"/>
<use x="660.93" y="87.01" xlink:href="#hd"/>
<path d="M664.43 87.01v-18.60" stroke="currentColor" fill="none"/>
<use x="678.83" y="90.01" xlink:href="#hd"/>
<path d="M682.33 90.01v-19.40" stroke="currentColor" fill="none"/>
<path stroke="currentColor" fill="none"
	d="M98.13 177.01v-24.00"/>
<path stroke="currentColor" fill="none"
	d="M165.23 177.01v-24.00"/>
<path stroke="currentColor" fill="none"
	d="M231.53 177.01v-24.00"/>
<path stroke="currentColor" fill="none" stroke-width="3"
	d="M307.73 177.01v-24.00"/>
<path stroke="currentColor" fill="none"
	d="M303.23 177.01v-24.00"/>
<defs>
<g id="rdots" fill="currentColor">
	<circle cx="0" cy="-9" r="1.2"/>
	<circle cx="0" cy="-15" r="1.2"/>
</g>
</defs>
<use x="299.23" y="177.01" xlink:href="#rdots"/>
<path stroke="currentColor" fill="none"
	d="M371.03 177.01v-24.00"/>
<path stroke="currentColor" fill="none"
	d="M423.23 177.01v-24.00"/>
<path stroke="currentColor" fill="none"
	d="M476.33 177.01v-24.00"/>
<path stroke="currentColor" fill="none"
	d="M531.13 177.01v-24.00"/>
<path stroke="currentColor" fill="none"
	d="M585.43 177.01v-24.00"/>
<path stroke="currentColor" fill="none"
	d="M639.63 177.01v-24.00"/>
<path stroke="currentColor" fill="none" stroke-width="3"
	d="M693.43 177.01v-24.00"/>
<path stroke="currentColor" fill="none"
	d="M688.93 177.01v-24.00"/>
<path stroke="currentColor" fill="none"
	d="M13.33 177.01h681.60m-681.60 -6h681.60m-681.60 -6h681.60m-681.60 -6h681.60m-681.60 -6h681.60"/>
<text x="174.23" y="135.61">C</text>
<text x="380.03" y="135.61">C</text>
<text x="537.13" y="135.61">G7</text>
<text x="594.43" y="135.61">C</text>
</g>
<g transform="scale(0.750)" stroke-width="0.70" font-family="Times" font-size="13.00">
<text x="102.13" y="135.41">1</text>
<path stroke="currentColor" fill="none"
	d="M98.13 124.01v20M98.13 124.01h203.00v20"/>
<text x="313.23" y="135.41">2</text>
<path stroke="currentColor" fill="none"
	d="M309.23 124.01v20M309.23 124.01h106.00"/>
<use x="25.33" y="177.01" xlink:href="#tclef"/>
<use x="49.83" y="171.01" xlink:href="#hd"/>
<path d="M53.33 171.01v-20.00" stroke="currentColor" fill="none"/>
<path fill="currentColor"
	d="M60.93 186.21l11.00 4.10v-3.20l-11.00 -4.10"/>
<use x="64.73" y="156.01" xlink:href="#hd"/>
<path d="M61.23 156.01v29.40" stroke="currentColor" fill="none"/>
<use x="75.13" y="171.01" xlink:href="#hd"/>
<path d="M71.63 171.01v18.20" stroke="currentColor" fill="none"/>
<use x="86.03" y="165.01" xlink:href="#hd"/>
<path d="M82.53 165.01v20.00" stroke="currentColor" fill="none"/>
<use x="110.63" y="171.01" xlink:href="#hd"/>
<path d="M114.13 171.01v-20.00" stroke="currentColor" fill="none"/>
<path fill="currentColor"
	d="M127.43 151.41l31.70 -5.70v3.20l-31.70 5.70"/>
<use x="124.23" y="180.01" xlink:href="#hd"/>
<path d="M127.73 180.01v-27.60" stroke="currentColor" fill="none"/>
<use x="134.63" y="171.01" xlink:href="#hd"/>
<path d="M138.13 171.01v-20.50" stroke="currentColor" fill="none"/>
<use x="144.93" y="168.01" xlink:href="#hd"/>
<path d="M148.43 168.01v-19.30" stroke="currentColor" fill="none"/>
<use x="155.33" y="165.01" xlink:href="#hd"/>
<path d="M158.83 165.01v-18.20" stroke="currentColor" fill="none"/>
<use x="177.73" y="162.01" xlink:href="#hd"/>
<path d="M174.23 162.01v20.00" stroke="currentColor" fill="none"/>
<path fill="currentColor"
	d="M193.63 145.31l31.70 -3.80v3.20l-31.70 3.80"/>
<use x="190.53" y="177.01" xlink:href="#hd"/>
<path d="M194.03 177.01v-30.70" stroke="currentColor" fill="none"/>
<use x="200.83" y="171.01" xlink:href="#hd"/>
<path d="M204.33 171.01v-26.00" stroke="currentColor" fill="none"/>
<use x="211.23" y="162.01" xlink:href="#hd"/>
<path d="M214.73 162.01v-18.20" stroke="currentColor" fill="none"/>
<use x="221.53" y="171.01" xlink:href="#hd"/>
<path d="M225.03 171.01v-28.40" stroke="currentColor" fill="none"/>
<use x="244.03" y="177.01" xlink:href="#hd"/>
<path d="M247.53 177.01v-20.00" stroke="currentColor" fill="none"/>
<path fill="currentColor"
	d="M260.83 154.61l31.70 -5.80v3.20l-31.70 5.80"/>
<use x="257.63" y="177.01" xlink:href="#hd"/>
<path d="M261.13 177.01v-21.50" stroke="currentColor" fill="none"/>
<use x="268.03" y="174.01" xlink:href="#hd"/>
<path d="M271.53 174.01v-20.40" stroke="currentColor" fill="none"/>
<use x="278.33" y="171.01" xlink:href="#hd"/>
<path d="M281.83 171.01v-19.30" stroke="currentColor" fill="none"/>
<use x="288.73" y="168.01" xlink:href="#hd"/>
<path d="M292.23 168.01v-18.20" stroke="currentColor" fill="none"/>
<use x="321.73" y="165.01" xlink:href="#hd"/>
<path d="M325.23 165.01v-20.00" stroke="currentColor" fill="none"/>
<use x="335.33" y="168.01" xlink:href="#hd"/>
<circle fill="currentColor" cx="343.33" cy="168.01" r="1.2"/>
<path d="M338.83 168.01v-20.00" stroke="currentColor" fill="none"/>
<use x="354.03" y="171.01" xlink:href="#hd"/>
<path d="M357.53 171.01v-20.00" stroke="currentColor" fill="none"/>
<path fill="currentColor"
	d="	M357.53 151.01c0.6 5.6 9.6 9 5.6 18.4
	c1.6 -6 -1.3 -11.6 -5.6 -12.8
"/>
<use x="383.53" y="177.01" xlink:href="#hd"/>
<path d="M387.03 177.01v-20.00" stroke="currentColor" fill="none"/>
<use x="398.43" y="162.01" xlink:href="#hd"/>
<path d="M394.93 162.01v20.00" stroke="currentColor" fill="none"/>
<use x="411.13" y="177.01" xlink:href="#hd"/>
<path d="M414.63 177.01v-20.00" stroke="currentColor" fill="none"/>
<use x="435.73" y="177.01" xlink:href="#hd"/>
<path d="M439.23 177.01v-20.00" stroke="currentColor" fill="none"/>
<use x="449.33" y="171.01" xlink:href="#hd"/>
<path d="M452.83 171.01v-20.00" stroke="currentColor" fill="none"/>
<use x="464.23" y="162.01" xlink:href="#hd"/>
<path d="M460.73 162.01v20.00" stroke="currentColor" fill="none"/>
<use x="488.83" y="156.01" xlink:href="#hd"/>
<path d="M485.33 156.01v20.00" stroke="currentColor" fill="none"/>
<use x="502.43" y="156.01" xlink:href="#hd"/>
<circle fill="currentColor" cx="510.43" cy="156.01" r="1.2"/>
<path d="M498.93 156.01v20.00" stroke="currentColor" fill="none"/>
<use x="521.13" y="156.01" xlink:href="#hd"/>
<path d="M517.63 156.01v20.00" stroke="currentColor" fill="none"/>
<path fill="currentColor"
	d="M517.63 176.01c0.6 -5.6 9.6 -9 5.6 -18.4
	c1.6 6 -1.3 11.6 -5.6 12.8
"/>
<use x="543.63" y="156.01" xlink:href="#hd"/>
<circle fill="currentColor" cx="551.63" cy="156.01" r="1.2"/>
<path d="M540.13 156.01v20.00" stroke="currentColor" fill="none"/>
<use x="562.33" y="159.01" xlink:href="#hd"/>
<path d="M558.83 159.01v20.00" stroke="currentColor" fill="none"/>
<path fill="currentColor"
	d="M558.83 179.01c0.6 -5.6 9.6 -9 5.6 -18.4
	c1.6 6 -1.3 11.6 -5.6 12.8
"/>
<use x="573.33" y="159.01" xlink:href="#hd"/>
<path d="M569.83 159.01v20.00" stroke="currentColor" fill="none"/>
<use x="597.93" y="162.01" xlink:href="#hd"/>
<circle fill="currentColor" cx="605.93" cy="162.01" r="1.2"/>
<path d="M594.43 162.01v20.00" stroke="currentColor" fill="none"/>
<use x="616.63" y="159.01" xlink:href="#hd"/>
<path d="M613.13 159.01v20.00" stroke="currentColor" fill="none"/>
<path fill="currentColor"
	d="M613.13 179.01c0.6 -5.6 9.6 -9 5.6 -18.4
	c1.6 6 -1.3 11.6 -5.6 12.8
"/>
<use x="627.63" y="162.01" xlink:href="#hd"/>
<path d="M624.13 162.01v20.00" stroke="currentColor" fill="none"/>
<use x="652.13" y="162.01" xlink:href="#hd"/>
<path d="M648.63 162.01v20.00" stroke="currentColor" fill="none"/>
<defs>
<path id="r4" fill="currentColor" d="m-1 -8.5
	l3.6 5.1 -2.1 5.2 2.2 4.3
	c-2.6 -2.3 -5.1 0 -2.4 2.6
	c-4.8 -3 -1.5 -6.9 1.4 -4.1
	l-3.1 -4.5 1.9 -5.1 -1.5 -3.5"/>
</defs>
<use x="665.83" y="165.01" xlink:href="#r4"/>
<use x="679.43" y="165.01" xlink:href="#r4"/>
</g>
</svg>
