<?xml version="1.0" standalone="no"?>
<!DOCTYPE svg PUBLIC "-//W3C//DTD SVG 1.1//EN"
	"http://www.w3.org/Graphics/SVG/1.1/DTD/svg11.dtd">
<svg xmlns="http://www.w3.org/2000/svg" version="1.1"
	xmlns:xlink="http://www.w3.org/1999/xlink"
	xml:space='preserve' color="black"
	width="7.38in" height="1.38in" viewBox="0 0 531 99">
<title>data/results/biggest_11/abc/75.abc (75) tune 1</title>
<!-- Creator: abcm2ps-7.8.14 -->
<!-- CreationDate: Aug  9, 2015 23:50 -->
<!-- CommandLine: -g data/results/biggest_11/abc/75.abc -O /home/allanino/Dropbox/Trabalhos/folkme/svg/75.svg -->
<g transform="scale(0.750)" stroke-width="0.70" font-family="Times" font-size="20.00">
<text x="354.13" y="21.67" text-anchor="middle">Mazurka FCBb</text>
<path stroke="currentColor" fill="none"
	d="M136.03 109.01v-24.00"/>
<path stroke="currentColor" fill="none"
	d="M202.43 109.01v-24.00"/>
<path stroke="currentColor" fill="none"
	d="M277.53 109.01v-24.00"/>
<path stroke="currentColor" fill="none"
	d="M343.33 109.01v-24.00"/>
<path stroke="currentColor" fill="none"
	d="M417.63 109.01v-24.00"/>
<path stroke="currentColor" fill="none"
	d="M492.73 109.01v-24.00"/>
<path stroke="currentColor" fill="none"
	d="M567.83 109.01v-24.00"/>
<path stroke="currentColor" fill="none" stroke-width="3"
	d="M632.33 109.01v-24.00"/>
<path stroke="currentColor" fill="none"
	d="M627.83 109.01v-24.00"/>
<defs>
<g id="rdots" fill="currentColor">
	<circle cx="0" cy="-9" r="1.2"/>
	<circle cx="0" cy="-15" r="1.2"/>
</g>
</defs>
<use x="623.83" y="109.01" xlink:href="#rdots"/>
<path stroke="currentColor" fill="none" stroke-width="3"
	d="M693.43 109.01v-24.00"/>
<path stroke="currentColor" fill="none"
	d="M688.93 109.01v-24.00"/>
<path stroke="currentColor" fill="none"
	d="M13.33 109.01h681.60m-681.60 -6h681.60m-681.60 -6h681.60m-681.60 -6h681.60m-681.60 -6h681.60"/>
</g>
<g transform="scale(0.750)" stroke-width="0.70" font-family="Helvetica" font-size="12.00">
<text x="71.43" y="64.61">F</text>
<text x="142.43" y="64.61">C7</text>
<text x="287.13" y="64.61">F</text>
<text x="423.93" y="64.61">C7</text>
<text x="583.83" y="64.61">F</text>
<text x="649.93" y="64.61">F</text>
</g>
<g transform="scale(0.750)" stroke-width="0.70" font-family="Times" font-size="13.00">
<text x="571.83" y="64.41">1</text>
<path stroke="currentColor" fill="none"
	d="M567.83 53.01v20M567.83 53.01h58.10v20"/>
<text x="637.83" y="64.41">2</text>
<path stroke="currentColor" fill="none"
	d="M633.83 53.01v20M633.83 53.01h61.10v20"/>
<defs>
<path id="utclef" fill="currentColor" d="m-50 -90
	c-72 -41 -72 -158 52 -188
	c150 -10 220 188 90 256
	c-114 52 -275 0 -293 -136
	c-15 -181 93 -229 220 -334
	c88 -87 79 -133 62 -210
	c-51 33 -94 105 -89 186
	c17 267 36 374 49 574
	c6 96 -19 134 -77 135
	c-80 1 -126 -93 -61 -133
	c85 -41 133 101 31 105
	c23 17 92 37 90 -92
	c-10 -223 -39 -342 -50 -617
	c0 -90 0 -162 96 -232
	c56 72 63 230 22 289
	c-74 106 -257 168 -255 316
	c9 153 148 185 252 133
	c86 -65 29 -192 -80 -176
	c-71 12 -105 67 -59 124"/>
<use id="tclef" transform="scale(0.045)"
	xlink:href="#utclef"/>
</defs>
<use x="25.33" y="109.01" xlink:href="#tclef"/>
<defs>
<path id="uflat" fill="currentColor" d="
	m100 -746
	h32
	v734
	l-32 4
	m32 -332
	c46 -72 152 -90 208 -20
	c100 110 -120 326 -208 348
	m0 -28
	c54 0 200 -206 130 -290
	c-50 -60 -130 -4 -130 34"/>
<use id="ft0" transform="translate(-3.5,3.5) scale(0.018)"
	xlink:href="#uflat"/>
</defs>
<use x="40.33" y="97.01" xlink:href="#ft0"/>
<g font-family="serif" font-size="16" font-weight="bold" font-style="normal"
	transform="translate(56.33,109.01) scale(1.2,1)">
	<text y="-1" text-anchor="middle">4</text>
	<text y="-13" text-anchor="middle">3</text>
</g>
<path fill="currentColor"
	d="M70.53 125.31l52.40 -8.00v-3.20l-52.40 8.00"/>
<defs>
<ellipse id="hd" rx="4.1" ry="2.9"
	transform="rotate(-20)" fill="currentColor"/>
</defs>
<use x="74.33" y="106.01" xlink:href="#hd"/>
<path d="M70.83 106.01v18.20" stroke="currentColor" fill="none"/>
<use x="84.63" y="100.01" xlink:href="#hd"/>
<path d="M81.13 100.01v22.60" stroke="currentColor" fill="none"/>
<use x="95.03" y="94.01" xlink:href="#hd"/>
<path d="M91.53 94.01v27.10" stroke="currentColor" fill="none"/>
<use x="105.33" y="85.01" xlink:href="#hd"/>
<path d="M101.83 85.01v34.50" stroke="currentColor" fill="none"/>
<defs>
<path id="hl" stroke="currentColor" d="m-6 0h12"/>
</defs>
<use x="115.73" y="79.01" xlink:href="#hl"/>
<use x="115.73" y="79.01" xlink:href="#hd"/>
<path d="M112.23 79.01v38.90" stroke="currentColor" fill="none"/>
<use x="126.03" y="94.01" xlink:href="#hd"/>
<path d="M122.53 94.01v22.30" stroke="currentColor" fill="none"/>
<path fill="currentColor"
	d="M144.73 106.01l31.70 0.00v-3.20l-31.70 -0.00"/>
<use x="148.53" y="82.01" xlink:href="#hd"/>
<path d="M145.03 82.01v23.00" stroke="currentColor" fill="none"/>
<use x="158.93" y="79.01" xlink:href="#hl"/>
<use x="158.93" y="76.01" xlink:href="#hd"/>
<path d="M155.43 76.01v29.00" stroke="currentColor" fill="none"/>
<use x="169.23" y="82.01" xlink:href="#hd"/>
<path d="M165.73 82.01v23.00" stroke="currentColor" fill="none"/>
<use x="179.63" y="88.01" xlink:href="#hd"/>
<path d="M176.13 88.01v17.00" stroke="currentColor" fill="none"/>
<use x="190.53" y="79.01" xlink:href="#hl"/>
<use x="190.53" y="73.01" xlink:href="#hl"/>
<use x="190.53" y="73.01" xlink:href="#hd"/>
<path d="M187.03 73.01v24.00" stroke="currentColor" fill="none"/>
<path fill="currentColor"
	d="M211.13 113.21l53.20 -6.10v-3.20l-53.20 6.10"/>
<use x="214.93" y="94.01" xlink:href="#hd"/>
<path d="M211.43 94.01v18.20" stroke="currentColor" fill="none"/>
<use x="225.33" y="88.01" xlink:href="#hd"/>
<path d="M221.83 88.01v23.00" stroke="currentColor" fill="none"/>
<use x="235.63" y="82.01" xlink:href="#hd"/>
<path d="M232.13 82.01v27.80" stroke="currentColor" fill="none"/>
<use x="245.93" y="79.01" xlink:href="#hl"/>
<use x="245.93" y="76.01" xlink:href="#hd"/>
<path d="M242.43 76.01v32.60" stroke="currentColor" fill="none"/>
<use x="257.13" y="79.01" xlink:href="#hl"/>
<use x="257.13" y="79.01" xlink:href="#hd"/>
<path d="M253.63 79.01v28.40" stroke="currentColor" fill="none"/>
<use x="267.53" y="82.01" xlink:href="#hd"/>
<path d="M264.03 82.01v24.20" stroke="currentColor" fill="none"/>
<path fill="currentColor"
	d="M286.23 112.01l31.70 0.00v-3.20l-31.70 -0.00"/>
<use x="290.03" y="85.01" xlink:href="#hd"/>
<path d="M286.53 85.01v26.00" stroke="currentColor" fill="none"/>
<use x="300.43" y="79.01" xlink:href="#hl"/>
<use x="300.43" y="79.01" xlink:href="#hd"/>
<path d="M296.93 79.01v32.00" stroke="currentColor" fill="none"/>
<use x="310.73" y="94.01" xlink:href="#hd"/>
<path d="M307.23 94.01v17.00" stroke="currentColor" fill="none"/>
<use x="321.03" y="85.01" xlink:href="#hd"/>
<path d="M317.53 85.01v26.00" stroke="currentColor" fill="none"/>
<use x="331.43" y="100.01" xlink:href="#hd"/>
<path d="M334.93 100.01v-20.00" stroke="currentColor" fill="none"/>
<path fill="currentColor"
	d="M352.03 126.91l52.40 -8.50v-3.20l-52.40 8.50"/>
<use x="355.83" y="94.01" xlink:href="#hd"/>
<path d="M352.33 94.01v31.90" stroke="currentColor" fill="none"/>
<use x="366.23" y="106.01" xlink:href="#hd"/>
<path d="M362.73 106.01v18.20" stroke="currentColor" fill="none"/>
<use x="376.53" y="100.01" xlink:href="#hd"/>
<path d="M373.03 100.01v22.50" stroke="currentColor" fill="none"/>
<use x="386.83" y="94.01" xlink:href="#hd"/>
<path d="M383.33 94.01v26.90" stroke="currentColor" fill="none"/>
<use x="397.23" y="85.01" xlink:href="#hd"/>
<path d="M393.73 85.01v34.20" stroke="currentColor" fill="none"/>
<use x="407.53" y="79.01" xlink:href="#hl"/>
<use x="407.53" y="79.01" xlink:href="#hd"/>
<path d="M404.03 79.01v38.50" stroke="currentColor" fill="none"/>
<path fill="currentColor"
	d="M426.23 106.01l53.20 0.00v-3.20l-53.20 -0.00"/>
<use x="430.13" y="79.01" xlink:href="#hl"/>
<use x="430.13" y="76.01" xlink:href="#hd"/>
<path d="M426.63 76.01v29.00" stroke="currentColor" fill="none"/>
<use x="440.43" y="88.01" xlink:href="#hd"/>
<path d="M436.93 88.01v17.00" stroke="currentColor" fill="none"/>
<use x="450.73" y="82.01" xlink:href="#hd"/>
<path d="M447.23 82.01v23.00" stroke="currentColor" fill="none"/>
<use x="461.13" y="79.01" xlink:href="#hl"/>
<use x="461.13" y="76.01" xlink:href="#hd"/>
<path d="M457.63 76.01v29.00" stroke="currentColor" fill="none"/>
<use x="472.33" y="79.01" xlink:href="#hl"/>
<use x="472.33" y="79.01" xlink:href="#hd"/>
<path d="M468.83 79.01v26.00" stroke="currentColor" fill="none"/>
<use x="482.63" y="82.01" xlink:href="#hd"/>
<path d="M479.13 82.01v23.00" stroke="currentColor" fill="none"/>
<path fill="currentColor"
	d="M501.33 106.01l53.20 0.00v-3.20l-53.20 -0.00"/>
<use x="505.23" y="88.01" xlink:href="#hd"/>
<path d="M501.73 88.01v17.00" stroke="currentColor" fill="none"/>
<use x="515.53" y="79.01" xlink:href="#hl"/>
<use x="515.53" y="76.01" xlink:href="#hd"/>
<path d="M512.03 76.01v29.00" stroke="currentColor" fill="none"/>
<use x="525.83" y="88.01" xlink:href="#hd"/>
<path d="M522.33 88.01v17.00" stroke="currentColor" fill="none"/>
<use x="536.23" y="79.01" xlink:href="#hl"/>
<use x="536.23" y="73.01" xlink:href="#hl"/>
<use x="536.23" y="73.01" xlink:href="#hd"/>
<path d="M532.73 73.01v32.00" stroke="currentColor" fill="none"/>
<use x="547.43" y="79.01" xlink:href="#hl"/>
<use x="547.43" y="76.01" xlink:href="#hd"/>
<path d="M543.93 76.01v29.00" stroke="currentColor" fill="none"/>
<use x="557.73" y="88.01" xlink:href="#hd"/>
<path d="M554.23 88.01v17.00" stroke="currentColor" fill="none"/>
<use x="586.83" y="85.01" xlink:href="#hd"/>
<path d="M583.33 85.01v20.00" stroke="currentColor" fill="none"/>
<defs>
<path id="r4" fill="currentColor" d="m-1 -8.5
	l3.6 5.1 -2.1 5.2 2.2 4.3
	c-2.6 -2.3 -5.1 0 -2.4 2.6
	c-4.8 -3 -1.5 -6.9 1.4 -4.1
	l-3.1 -4.5 1.9 -5.1 -1.5 -3.5"/>
</defs>
<use x="600.13" y="97.01" xlink:href="#r4"/>
<use x="613.33" y="94.01" xlink:href="#hd"/>
<path d="M609.83 94.01v20.00" stroke="currentColor" fill="none"/>
<use x="652.83" y="85.01" xlink:href="#hd"/>
<path d="M649.33 85.01v20.00" stroke="currentColor" fill="none"/>
<use x="666.13" y="97.01" xlink:href="#r4"/>
<use x="679.43" y="97.01" xlink:href="#r4"/>
</g>
</svg>
