<?xml version="1.0" standalone="no"?>
<!DOCTYPE svg PUBLIC "-//W3C//DTD SVG 1.1//EN"
	"http://www.w3.org/Graphics/SVG/1.1/DTD/svg11.dtd">
<svg xmlns="http://www.w3.org/2000/svg" version="1.1"
	xmlns:xlink="http://www.w3.org/1999/xlink"
	xml:space='preserve' color="black"
	width="7.38in" height="1.41in" viewBox="0 0 531 101">
<title>data/results/biggest_11/abc/76.abc (76) tune 1</title>
<!-- Creator: abcm2ps-7.8.14 -->
<!-- CreationDate: Aug  9, 2015 23:50 -->
<!-- CommandLine: -g data/results/biggest_11/abc/76.abc -O /home/allanino/Dropbox/Trabalhos/folkme/svg/76.svg -->
<g transform="scale(0.750)" stroke-width="0.70" font-family="Times" font-size="20.00">
<text x="354.13" y="21.67" text-anchor="middle">Brock the Allemane</text>
<path stroke="currentColor" fill="none"
	d="M90.23 112.01v-24.00"/>
<path stroke="currentColor" fill="none"
	d="M166.93 112.01v-24.00"/>
<path stroke="currentColor" fill="none"
	d="M243.63 112.01v-24.00"/>
<path stroke="currentColor" fill="none"
	d="M320.43 112.01v-24.00"/>
<path stroke="currentColor" fill="none"
	d="M397.13 112.01v-24.00"/>
<path stroke="currentColor" fill="none"
	d="M473.93 112.01v-24.00"/>
<path stroke="currentColor" fill="none"
	d="M550.63 112.01v-24.00"/>
<path stroke="currentColor" fill="none"
	d="M627.33 112.01v-24.00"/>
<path stroke="currentColor" fill="none" stroke-width="3"
	d="M693.43 112.01v-24.00"/>
<path stroke="currentColor" fill="none"
	d="M688.93 112.01v-24.00"/>
<defs>
<g id="rdots" fill="currentColor">
	<circle cx="0" cy="-9" r="1.2"/>
	<circle cx="0" cy="-15" r="1.2"/>
</g>
</defs>
<use x="684.93" y="112.01" xlink:href="#rdots"/>
<path stroke="currentColor" fill="none"
	d="M13.33 112.01h681.60m-681.60 -6h681.60m-681.60 -6h681.60m-681.60 -6h681.60m-681.60 -6h681.60"/>
</g>
<g transform="scale(0.750)" stroke-width="0.70" font-family="Helvetica" font-size="12.00">
<text x="96.83" y="62.61">B♭</text>
<text x="173.83" y="62.61">E♭</text>
<text x="205.93" y="62.61">B♭</text>
<text x="250.63" y="62.61">F7</text>
<text x="327.03" y="62.61">B♭</text>
<text x="362.33" y="62.61">F</text>
<text x="403.73" y="62.61">B♭</text>
<text x="436.43" y="62.61">F7</text>
<text x="480.53" y="62.61">B♭</text>
<text x="515.73" y="62.61">F</text>
<text x="557.23" y="62.61">B♭</text>
<text x="589.83" y="62.61">F7</text>
<text x="634.03" y="62.61">B♭</text>
<defs>
<path id="utclef" fill="currentColor" d="m-50 -90
	c-72 -41 -72 -158 52 -188
	c150 -10 220 188 90 256
	c-114 52 -275 0 -293 -136
	c-15 -181 93 -229 220 -334
	c88 -87 79 -133 62 -210
	c-51 33 -94 105 -89 186
	c17 267 36 374 49 574
	c6 96 -19 134 -77 135
	c-80 1 -126 -93 -61 -133
	c85 -41 133 101 31 105
	c23 17 92 37 90 -92
	c-10 -223 -39 -342 -50 -617
	c0 -90 0 -162 96 -232
	c56 72 63 230 22 289
	c-74 106 -257 168 -255 316
	c9 153 148 185 252 133
	c86 -65 29 -192 -80 -176
	c-71 12 -105 67 -59 124"/>
<use id="tclef" transform="scale(0.045)"
	xlink:href="#utclef"/>
</defs>
<use x="25.33" y="112.01" xlink:href="#tclef"/>
<defs>
<path id="uflat" fill="currentColor" d="
	m100 -746
	h32
	v734
	l-32 4
	m32 -332
	c46 -72 152 -90 208 -20
	c100 110 -120 326 -208 348
	m0 -28
	c54 0 200 -206 130 -290
	c-50 -60 -130 -4 -130 34"/>
<use id="ft0" transform="translate(-3.5,3.5) scale(0.018)"
	xlink:href="#uflat"/>
</defs>
<use x="40.33" y="100.01" xlink:href="#ft0"/>
<use x="45.83" y="91.01" xlink:href="#ft0"/>
<g font-family="serif" font-size="16" font-weight="bold" font-style="normal"
	transform="translate(61.83,112.01) scale(1.2,1)">
	<text y="-1" text-anchor="middle">8</text>
	<text y="-13" text-anchor="middle">6</text>
</g>
<defs>
<ellipse id="hd" rx="4.1" ry="2.9"
	transform="rotate(-20)" fill="currentColor"/>
</defs>
<use x="79.83" y="88.01" xlink:href="#hd"/>
<path d="M76.33 88.01v20.00" stroke="currentColor" fill="none"/>
<path fill="currentColor"
	d="M76.33 108.01c0.6 -5.6 9.6 -9 5.6 -18.4
	c1.6 6 -1.3 11.6 -5.6 12.8
"/>
<path fill="currentColor"
	d="M98.83 119.21l54.60 0.00v-3.20l-54.60 -0.00"/>
<use x="102.73" y="94.01" xlink:href="#hd"/>
<path d="M99.23 94.01v24.20" stroke="currentColor" fill="none"/>
<defs>
<path id="hl" stroke="currentColor" d="m-6 0h12"/>
</defs>
<use x="113.43" y="82.01" xlink:href="#hl"/>
<use x="113.43" y="79.01" xlink:href="#hd"/>
<path d="M109.93 79.01v39.20" stroke="currentColor" fill="none"/>
<use x="124.23" y="88.01" xlink:href="#hd"/>
<path d="M120.73 88.01v30.20" stroke="currentColor" fill="none"/>
<use x="135.03" y="100.01" xlink:href="#hd"/>
<path d="M131.53 100.01v18.20" stroke="currentColor" fill="none"/>
<use x="145.83" y="85.01" xlink:href="#hd"/>
<path d="M142.33 85.01v33.20" stroke="currentColor" fill="none"/>
<use x="156.53" y="88.01" xlink:href="#hd"/>
<path d="M153.03 88.01v30.20" stroke="currentColor" fill="none"/>
<path fill="currentColor"
	d="M175.63 119.21l54.60 0.00v-3.20l-54.60 -0.00"/>
<use x="179.43" y="91.01" xlink:href="#hd"/>
<path d="M175.93 91.01v27.20" stroke="currentColor" fill="none"/>
<use x="190.23" y="88.01" xlink:href="#hd"/>
<path d="M186.73 88.01v30.20" stroke="currentColor" fill="none"/>
<use x="201.03" y="85.01" xlink:href="#hd"/>
<path d="M197.53 85.01v33.20" stroke="currentColor" fill="none"/>
<use x="211.73" y="88.01" xlink:href="#hd"/>
<path d="M208.23 88.01v30.20" stroke="currentColor" fill="none"/>
<use x="222.53" y="94.01" xlink:href="#hd"/>
<path d="M219.03 94.01v24.20" stroke="currentColor" fill="none"/>
<use x="233.33" y="100.01" xlink:href="#hd"/>
<path d="M229.83 100.01v18.20" stroke="currentColor" fill="none"/>
<path fill="currentColor"
	d="M259.33 71.81l54.60 0.00v3.20l-54.60 -0.00"/>
<use x="256.13" y="97.01" xlink:href="#hd"/>
<path d="M259.63 97.01v-24.20" stroke="currentColor" fill="none"/>
<use x="266.93" y="103.01" xlink:href="#hd"/>
<path d="M270.43 103.01v-30.20" stroke="currentColor" fill="none"/>
<use x="277.73" y="109.01" xlink:href="#hd"/>
<path d="M281.23 109.01v-36.20" stroke="currentColor" fill="none"/>
<use x="288.53" y="91.01" xlink:href="#hd"/>
<path d="M292.03 91.01v-18.20" stroke="currentColor" fill="none"/>
<use x="299.23" y="106.01" xlink:href="#hd"/>
<path d="M302.73 106.01v-33.20" stroke="currentColor" fill="none"/>
<use x="310.03" y="109.01" xlink:href="#hd"/>
<path d="M313.53 109.01v-36.20" stroke="currentColor" fill="none"/>
<path fill="currentColor"
	d="M329.03 122.21l54.60 0.00v-3.20l-54.60 -0.00"/>
<use x="332.93" y="100.01" xlink:href="#hd"/>
<path d="M329.43 100.01v21.20" stroke="currentColor" fill="none"/>
<use x="343.73" y="97.01" xlink:href="#hd"/>
<path d="M340.23 97.01v24.20" stroke="currentColor" fill="none"/>
<use x="354.43" y="94.01" xlink:href="#hd"/>
<path d="M350.93 94.01v27.20" stroke="currentColor" fill="none"/>
<use x="365.23" y="97.01" xlink:href="#hd"/>
<path d="M361.73 97.01v24.20" stroke="currentColor" fill="none"/>
<use x="376.03" y="100.01" xlink:href="#hd"/>
<path d="M372.53 100.01v21.20" stroke="currentColor" fill="none"/>
<use x="386.83" y="103.01" xlink:href="#hd"/>
<path d="M383.33 103.01v18.20" stroke="currentColor" fill="none"/>
<path fill="currentColor"
	d="M405.83 119.21l54.60 0.00v-3.20l-54.60 -0.00"/>
<use x="409.63" y="94.01" xlink:href="#hd"/>
<path d="M406.13 94.01v24.20" stroke="currentColor" fill="none"/>
<use x="420.43" y="100.01" xlink:href="#hd"/>
<path d="M416.93 100.01v18.20" stroke="currentColor" fill="none"/>
<use x="431.23" y="94.01" xlink:href="#hd"/>
<path d="M427.73 94.01v24.20" stroke="currentColor" fill="none"/>
<use x="441.93" y="97.01" xlink:href="#hd"/>
<path d="M438.43 97.01v21.20" stroke="currentColor" fill="none"/>
<use x="452.73" y="100.01" xlink:href="#hd"/>
<path d="M449.23 100.01v18.20" stroke="currentColor" fill="none"/>
<use x="463.53" y="97.01" xlink:href="#hd"/>
<path d="M460.03 97.01v21.20" stroke="currentColor" fill="none"/>
<path fill="currentColor"
	d="M489.53 74.81l54.60 0.00v3.20l-54.60 -0.00"/>
<use x="486.43" y="94.01" xlink:href="#hd"/>
<path d="M489.93 94.01v-18.20" stroke="currentColor" fill="none"/>
<use x="497.13" y="100.01" xlink:href="#hd"/>
<path d="M500.63 100.01v-24.20" stroke="currentColor" fill="none"/>
<use x="507.93" y="106.01" xlink:href="#hd"/>
<path d="M511.43 106.01v-30.20" stroke="currentColor" fill="none"/>
<use x="518.73" y="103.01" xlink:href="#hd"/>
<path d="M522.23 103.01v-27.20" stroke="currentColor" fill="none"/>
<use x="529.53" y="97.01" xlink:href="#hd"/>
<path d="M533.03 97.01v-21.20" stroke="currentColor" fill="none"/>
<use x="540.23" y="103.01" xlink:href="#hd"/>
<path d="M543.73 103.01v-27.20" stroke="currentColor" fill="none"/>
<path fill="currentColor"
	d="M566.33 74.81l54.60 0.00v3.20l-54.60 -0.00"/>
<use x="563.13" y="100.01" xlink:href="#hd"/>
<path d="M566.63 100.01v-24.20" stroke="currentColor" fill="none"/>
<use x="573.93" y="94.01" xlink:href="#hd"/>
<path d="M577.43 94.01v-18.20" stroke="currentColor" fill="none"/>
<use x="584.63" y="100.01" xlink:href="#hd"/>
<path d="M588.13 100.01v-24.20" stroke="currentColor" fill="none"/>
<use x="595.43" y="103.01" xlink:href="#hd"/>
<path d="M598.93 103.01v-27.20" stroke="currentColor" fill="none"/>
<use x="606.23" y="97.01" xlink:href="#hd"/>
<path d="M609.73 97.01v-21.20" stroke="currentColor" fill="none"/>
<use x="617.03" y="109.01" xlink:href="#hd"/>
<path d="M620.53 109.01v-33.20" stroke="currentColor" fill="none"/>
<path fill="currentColor"
	d="M643.03 89.71l23.00 4.20v3.20l-23.00 -4.20"/>
<use x="639.83" y="109.01" xlink:href="#hd"/>
<path d="M643.33 109.01v-18.20" stroke="currentColor" fill="none"/>
<use x="650.63" y="118.01" xlink:href="#hl"/>
<use x="650.63" y="121.01" xlink:href="#hd"/>
<path d="M654.13 121.01v-28.20" stroke="currentColor" fill="none"/>
<use x="662.23" y="118.01" xlink:href="#hl"/>
<use x="662.23" y="121.01" xlink:href="#hd"/>
<path d="M665.73 121.01v-26.10" stroke="currentColor" fill="none"/>
<use x="674.43" y="118.01" xlink:href="#hl"/>
<use x="674.43" y="121.01" xlink:href="#hd"/>
<path d="M677.93 121.01v-21.00" stroke="currentColor" fill="none"/>
</g>
</svg>
