<?xml version="1.0" standalone="no"?>
<!DOCTYPE svg PUBLIC "-//W3C//DTD SVG 1.1//EN"
	"http://www.w3.org/Graphics/SVG/1.1/DTD/svg11.dtd">
<svg xmlns="http://www.w3.org/2000/svg" version="1.1"
	xmlns:xlink="http://www.w3.org/1999/xlink"
	xml:space='preserve' color="black"
	width="7.38in" height="3.58in" viewBox="0 0 531 258">
<title>data/results/biggest_11/abc/8.abc (8) tune 1</title>
<!-- Creator: abcm2ps-7.8.14 -->
<!-- CreationDate: Aug  9, 2015 23:50 -->
<!-- CommandLine: -g data/results/biggest_11/abc/8.abc -O /home/allanino/Dropbox/Trabalhos/folkme/svg/8.svg -->
<g transform="scale(0.750)" stroke-width="0.70" font-family="Times" font-size="20.00">
<text x="354.13" y="21.67" text-anchor="middle">Rockmadown</text>
</g>
<g transform="scale(0.525)" stroke-width="0.70" font-family="Times" font-size="20.00">
<defs>
<ellipse id="hd" rx="4.1" ry="2.9"
	transform="rotate(-20)" fill="currentColor"/>
</defs>
<use x="107.04" y="94.16" xlink:href="#hd"/>
<path d="M110.54 94.16v-20.00" stroke="currentColor" fill="none"/>
</g>
<g transform="scale(0.750)" stroke-width="0.70" font-family="Times" font-size="15.00" font-weight="bold">
<text x="82.63" y="68.01">= 300</text>
<path stroke="currentColor" fill="none"
	d="M91.33 106.01v-24.00"/>
<path stroke="currentColor" fill="none"
	d="M245.63 106.01v-24.00"/>
<path stroke="currentColor" fill="none"
	d="M400.13 106.01v-24.00"/>
<path stroke="currentColor" fill="none"
	d="M554.73 106.01v-24.00"/>
<path stroke="currentColor" fill="none"
	d="M694.93 106.01v-24.00"/>
<path stroke="currentColor" fill="none"
	d="M13.33 106.01h681.60m-681.60 -6h681.60m-681.60 -6h681.60m-681.60 -6h681.60m-681.60 -6h681.60"/>
<path fill="currentColor"
	d="M167.63 83.01c4.07 -3.95 21.78 -3.95 25.86 -0.00
	l0.00 -0.23c-4.85 -5.72 -21.01 -5.72 -25.86 0.23"/>
<defs>
<path id="utclef" fill="currentColor" d="m-50 -90
	c-72 -41 -72 -158 52 -188
	c150 -10 220 188 90 256
	c-114 52 -275 0 -293 -136
	c-15 -181 93 -229 220 -334
	c88 -87 79 -133 62 -210
	c-51 33 -94 105 -89 186
	c17 267 36 374 49 574
	c6 96 -19 134 -77 135
	c-80 1 -126 -93 -61 -133
	c85 -41 133 101 31 105
	c23 17 92 37 90 -92
	c-10 -223 -39 -342 -50 -617
	c0 -90 0 -162 96 -232
	c56 72 63 230 22 289
	c-74 106 -257 168 -255 316
	c9 153 148 185 252 133
	c86 -65 29 -192 -80 -176
	c-71 12 -105 67 -59 124"/>
<use id="tclef" transform="scale(0.045)"
	xlink:href="#utclef"/>
</defs>
<use x="25.33" y="106.01" xlink:href="#tclef"/>
<defs>
<path id="usharp" fill="currentColor" d="
	m136 -702
	v890
	h32
	v-890
	m128 840
	h32
	v-888
	h-32
	m-232 286
	v116
	l338 -96
	v-116
	m-338 442
	v116
	l338 -98
	v-114"/>
<use id="sh0" transform="translate(-4,5) scale(0.018)"
	xlink:href="#usharp"/>
</defs>
<use x="40.33" y="82.01" xlink:href="#sh0"/>
<defs>
<path id="csig" fill="currentColor" d="
	m1 -17.3
	c0.9 0 2.3 0.7 2.4 2.2
	c-1.2 -2 -3.6 0.1 -1.6 1.7
	c2 1 3.8 -3.5 -0.8 -4.7
	c-2 -0.4 -6.4 1.3 -5.8 7
	c0.4 6.4 7.9 6.8 9.1 0.7
	c-2.3 5.6 -6.7 5.1 -6.8 0
	c-0.5 -4.4 0.7 -7.5 3.5 -6.9"/>
<g id="ctsig">
	<use xlink:href="#csig"/>
	<path d="m0 -4v-16" stroke="currentColor"/>
</g>
</defs>
<use x="56.33" y="106.01" xlink:href="#ctsig"/>
<use x="74.33" y="100.01" xlink:href="#hd"/>
<path d="M77.83 100.01v-20.00" stroke="currentColor" fill="none"/>
<path fill="currentColor"
	d="	M77.83 80.01c0.6 5.6 9.6 9 5.6 18.4
	c1.6 -6 -1.3 -11.6 -5.6 -12.8
"/>
<use x="103.83" y="94.01" xlink:href="#hd"/>
<path d="M100.33 94.01v20.00" stroke="currentColor" fill="none"/>
<path fill="currentColor"
	d="M127.83 122.21l98.50 0.00v-3.20l-98.50 -0.00"/>
<path fill="currentColor"
	d="M164.13 117.21l12.90 0.00v-3.20l-12.90 -0.00"/>
<use x="131.63" y="94.01" xlink:href="#hd"/>
<path d="M128.13 94.01v27.20" stroke="currentColor" fill="none"/>
<use x="149.63" y="88.01" xlink:href="#hd"/>
<path d="M146.13 88.01v33.20" stroke="currentColor" fill="none"/>
<use x="167.63" y="91.01" xlink:href="#hd"/>
<path d="M164.13 91.01v30.20" stroke="currentColor" fill="none"/>
<use x="180.63" y="94.01" xlink:href="#hd"/>
<path d="M177.13 94.01v27.20" stroke="currentColor" fill="none"/>
<use x="193.53" y="91.01" xlink:href="#hd"/>
<path d="M190.03 91.01v30.20" stroke="currentColor" fill="none"/>
<use x="211.53" y="97.01" xlink:href="#hd"/>
<path d="M208.03 97.01v24.20" stroke="currentColor" fill="none"/>
<use x="229.53" y="103.01" xlink:href="#hd"/>
<path d="M226.03 103.01v18.20" stroke="currentColor" fill="none"/>
<path fill="currentColor"
	d="M254.23 125.21l126.60 0.00v-3.20l-126.60 -0.00"/>
<use x="258.13" y="106.01" xlink:href="#hd"/>
<path d="M254.63 106.01v18.20" stroke="currentColor" fill="none"/>
<use x="276.13" y="91.01" xlink:href="#hd"/>
<path d="M272.63 91.01v33.20" stroke="currentColor" fill="none"/>
<use x="294.13" y="85.01" xlink:href="#hd"/>
<path d="M290.63 85.01v39.20" stroke="currentColor" fill="none"/>
<use x="312.13" y="91.01" xlink:href="#hd"/>
<path d="M308.63 91.01v33.20" stroke="currentColor" fill="none"/>
<use x="330.13" y="88.01" xlink:href="#hd"/>
<path d="M326.63 88.01v36.20" stroke="currentColor" fill="none"/>
<use x="348.03" y="88.01" xlink:href="#hd"/>
<path d="M344.53 88.01v36.20" stroke="currentColor" fill="none"/>
<use x="366.03" y="88.01" xlink:href="#hd"/>
<path d="M362.53 88.01v36.20" stroke="currentColor" fill="none"/>
<use x="384.03" y="94.01" xlink:href="#hd"/>
<path d="M380.53 94.01v30.20" stroke="currentColor" fill="none"/>
<path fill="currentColor"
	d="M408.83 119.21l126.60 0.00v-3.20l-126.60 -0.00"/>
<use x="412.63" y="91.01" xlink:href="#hd"/>
<path d="M409.13 91.01v27.20" stroke="currentColor" fill="none"/>
<use x="430.63" y="88.01" xlink:href="#hd"/>
<path d="M427.13 88.01v30.20" stroke="currentColor" fill="none"/>
<use x="448.63" y="91.01" xlink:href="#hd"/>
<path d="M445.13 91.01v27.20" stroke="currentColor" fill="none"/>
<use x="466.63" y="94.01" xlink:href="#hd"/>
<path d="M463.13 94.01v24.20" stroke="currentColor" fill="none"/>
<use x="484.63" y="88.01" xlink:href="#hd"/>
<path d="M481.13 88.01v30.20" stroke="currentColor" fill="none"/>
<use x="502.63" y="94.01" xlink:href="#hd"/>
<path d="M499.13 94.01v24.20" stroke="currentColor" fill="none"/>
<use x="520.63" y="100.01" xlink:href="#hd"/>
<path d="M517.13 100.01v18.20" stroke="currentColor" fill="none"/>
<use x="538.63" y="94.01" xlink:href="#hd"/>
<path d="M535.13 94.01v24.20" stroke="currentColor" fill="none"/>
<use x="567.23" y="82.01" xlink:href="#hd"/>
<path d="M563.73 82.01v20.00" stroke="currentColor" fill="none"/>
<path fill="currentColor"
	d="M591.23 97.51l18.70 3.70v-3.20l-18.70 -3.70"/>
<defs>
<path id="hl" stroke="currentColor" d="m-6 0h12"/>
</defs>
<use x="595.03" y="76.01" xlink:href="#hl"/>
<use x="595.03" y="76.01" xlink:href="#hd"/>
<path d="M591.53 76.01v20.60" stroke="currentColor" fill="none"/>
<use x="613.03" y="82.01" xlink:href="#hd"/>
<path d="M609.53 82.01v18.20" stroke="currentColor" fill="none"/>
<use x="632.93" y="79.01" xlink:href="#hd"/>
<path d="M629.43 79.01v20.00" stroke="currentColor" fill="none"/>
<path fill="currentColor"
	d="M657.03 102.31l18.70 2.30v-3.20l-18.70 -2.30"/>
<use x="660.83" y="82.01" xlink:href="#hd"/>
<path d="M657.33 82.01v19.40" stroke="currentColor" fill="none"/>
<use x="678.83" y="85.01" xlink:href="#hd"/>
<path d="M675.33 85.01v18.60" stroke="currentColor" fill="none"/>
<path stroke="currentColor" fill="none"
	d="M253.63 176.01v-24.00"/>
<path stroke="currentColor" fill="none"
	d="M484.53 176.01v-24.00"/>
<path stroke="currentColor" fill="none"
	d="M694.93 176.01v-24.00"/>
<path stroke="currentColor" fill="none"
	d="M13.33 176.01h681.60m-681.60 -6h681.60m-681.60 -6h681.60m-681.60 -6h681.60m-681.60 -6h681.60"/>
<use x="25.33" y="176.01" xlink:href="#tclef"/>
<use x="40.33" y="152.01" xlink:href="#sh0"/>
<use x="58.33" y="158.01" xlink:href="#hd"/>
<path d="M54.83 158.01v20.00" stroke="currentColor" fill="none"/>
<path fill="currentColor"
	d="M97.43 173.01l28.00 4.30v-3.20l-28.00 -4.30"/>
<use x="101.23" y="152.01" xlink:href="#hd"/>
<path d="M97.73 152.01v20.00" stroke="currentColor" fill="none"/>
<use x="128.63" y="158.01" xlink:href="#hd"/>
<path d="M125.13 158.01v18.20" stroke="currentColor" fill="none"/>
<use x="159.03" y="161.01" xlink:href="#hd"/>
<path d="M155.53 161.01v20.00" stroke="currentColor" fill="none"/>
<path fill="currentColor"
	d="M198.13 178.21l28.00 2.50v-3.20l-28.00 -2.50"/>
<use x="201.93" y="158.01" xlink:href="#hd"/>
<path d="M198.43 158.01v19.30" stroke="currentColor" fill="none"/>
<use x="229.33" y="161.01" xlink:href="#hd"/>
<path d="M225.83 161.01v18.70" stroke="currentColor" fill="none"/>
<path fill="currentColor"
	d="M271.93 138.81l192.10 0.00v3.20l-192.10 -0.00"/>
<use x="268.73" y="164.01" xlink:href="#hd"/>
<path d="M272.23 164.01v-24.20" stroke="currentColor" fill="none"/>
<use x="296.13" y="167.01" xlink:href="#hd"/>
<path d="M299.63 167.01v-27.20" stroke="currentColor" fill="none"/>
<use x="323.43" y="170.01" xlink:href="#hd"/>
<path d="M326.93 170.01v-30.20" stroke="currentColor" fill="none"/>
<use x="350.83" y="164.01" xlink:href="#hd"/>
<path d="M354.33 164.01v-24.20" stroke="currentColor" fill="none"/>
<use x="378.13" y="158.01" xlink:href="#hd"/>
<path d="M381.63 158.01v-18.20" stroke="currentColor" fill="none"/>
<use x="405.53" y="161.01" xlink:href="#hd"/>
<path d="M409.03 161.01v-21.20" stroke="currentColor" fill="none"/>
<use x="432.83" y="164.01" xlink:href="#hd"/>
<path d="M436.33 164.01v-24.20" stroke="currentColor" fill="none"/>
<use x="460.13" y="167.01" xlink:href="#hd"/>
<path d="M463.63 167.01v-27.20" stroke="currentColor" fill="none"/>
<use x="499.63" y="170.01" xlink:href="#hd"/>
<path d="M503.13 170.01v-20.00" stroke="currentColor" fill="none"/>
<path fill="currentColor"
	d="M545.73 138.71l28.00 6.50v3.20l-28.00 -6.50"/>
<use x="542.63" y="158.01" xlink:href="#hd"/>
<path d="M546.13 158.01v-18.20" stroke="currentColor" fill="none"/>
<use x="569.93" y="170.01" xlink:href="#hd"/>
<path d="M573.43 170.01v-23.80" stroke="currentColor" fill="none"/>
<use x="600.33" y="164.01" xlink:href="#hd"/>
<path d="M603.83 164.01v-20.00" stroke="currentColor" fill="none"/>
<path fill="currentColor"
	d="M646.43 150.21l28.00 2.50v3.20l-28.00 -2.50"/>
<use x="643.33" y="170.01" xlink:href="#hd"/>
<path d="M646.83 170.01v-18.70" stroke="currentColor" fill="none"/>
<use x="670.63" y="173.01" xlink:href="#hd"/>
<path d="M674.13 173.01v-19.30" stroke="currentColor" fill="none"/>
<path stroke="currentColor" fill="none"
	d="M171.73 251.01v-24.00"/>
<path stroke="currentColor" fill="none"
	d="M304.53 251.01v-24.00"/>
<path stroke="currentColor" fill="none"
	d="M437.83 251.01v-24.00"/>
<path stroke="currentColor" fill="none" stroke-width="3"
	d="M553.43 251.01v-24.00"/>
<path stroke="currentColor" fill="none"
	d="M548.93 251.01v-24.00"/>
<defs>
<g id="rdots" fill="currentColor">
	<circle cx="0" cy="-9" r="1.2"/>
	<circle cx="0" cy="-15" r="1.2"/>
</g>
</defs>
<use x="544.93" y="251.01" xlink:href="#rdots"/>
<path stroke="currentColor" fill="none"
	d="M694.93 251.01v-24.00"/>
<path stroke="currentColor" fill="none"
	d="M691.93 251.01v-24.00"/>
<path stroke="currentColor" fill="none"
	d="M13.33 251.01h681.60m-681.60 -6h681.60m-681.60 -6h681.60m-681.60 -6h681.60m-681.60 -6h681.60"/>
<path fill="currentColor"
	d="M129.03 216.91c4.56 -3.66 24.39 -2.22 28.95 2.10
	l0.00 -0.23c-5.43 -6.09 -23.52 -7.53 -28.95 -1.87"/>
</g>
<g transform="scale(0.750)" stroke-width="0.70" font-family="Times" font-size="13.00">
<text x="441.83" y="212.41">1</text>
<path stroke="currentColor" fill="none"
	d="M437.83 201.01v20M437.83 201.01h109.10v20"/>
<text x="558.93" y="212.41">2</text>
<path stroke="currentColor" fill="none"
	d="M554.93 201.01v20M554.93 201.01h140.00v20"/>
<use x="25.33" y="251.01" xlink:href="#tclef"/>
<use x="40.33" y="227.01" xlink:href="#sh0"/>
<use x="58.33" y="245.01" xlink:href="#hd"/>
<path d="M61.83 245.01v-20.00" stroke="currentColor" fill="none"/>
<path fill="currentColor"
	d="M78.03 264.21l76.80 -9.40v-3.20l-76.80 9.40"/>
<use x="81.83" y="245.01" xlink:href="#hd"/>
<path d="M78.33 245.01v18.20" stroke="currentColor" fill="none"/>
<use x="97.13" y="239.01" xlink:href="#hd"/>
<path d="M93.63 239.01v22.30" stroke="currentColor" fill="none"/>
<use x="112.33" y="233.01" xlink:href="#hd"/>
<path d="M108.83 233.01v26.50" stroke="currentColor" fill="none"/>
<use x="127.53" y="224.01" xlink:href="#hd"/>
<path d="M124.03 224.01v33.60" stroke="currentColor" fill="none"/>
<use x="142.73" y="224.01" xlink:href="#hd"/>
<path d="M139.23 224.01v31.70" stroke="currentColor" fill="none"/>
<use x="158.03" y="227.01" xlink:href="#hd"/>
<path d="M154.53 227.01v26.90" stroke="currentColor" fill="none"/>
<path fill="currentColor"
	d="M180.43 258.21l107.30 0.00v-3.20l-107.30 -0.00"/>
<use x="184.23" y="230.01" xlink:href="#hd"/>
<path d="M180.73 230.01v27.20" stroke="currentColor" fill="none"/>
<use x="199.43" y="233.01" xlink:href="#hd"/>
<path d="M195.93 233.01v24.20" stroke="currentColor" fill="none"/>
<use x="214.73" y="236.01" xlink:href="#hd"/>
<path d="M211.23 236.01v21.20" stroke="currentColor" fill="none"/>
<use x="229.93" y="239.01" xlink:href="#hd"/>
<path d="M226.43 239.01v18.20" stroke="currentColor" fill="none"/>
<use x="245.13" y="236.01" xlink:href="#hd"/>
<path d="M241.63 236.01v21.20" stroke="currentColor" fill="none"/>
<use x="260.33" y="233.01" xlink:href="#hd"/>
<path d="M256.83 233.01v24.20" stroke="currentColor" fill="none"/>
<use x="275.63" y="230.01" xlink:href="#hd"/>
<path d="M272.13 230.01v27.20" stroke="currentColor" fill="none"/>
<use x="290.83" y="227.01" xlink:href="#hd"/>
<path d="M287.33 227.01v30.20" stroke="currentColor" fill="none"/>
<path fill="currentColor"
	d="M313.23 251.21l107.70 0.00v-3.20l-107.70 -0.00"/>
<use x="317.03" y="224.01" xlink:href="#hd"/>
<path d="M313.53 224.01v26.20" stroke="currentColor" fill="none"/>
<use x="332.33" y="227.01" xlink:href="#hd"/>
<path d="M328.83 227.01v23.20" stroke="currentColor" fill="none"/>
<use x="347.53" y="230.01" xlink:href="#hd"/>
<path d="M344.03 230.01v20.20" stroke="currentColor" fill="none"/>
<use x="362.73" y="233.01" xlink:href="#hd"/>
<path d="M359.23 233.01v17.20" stroke="currentColor" fill="none"/>
<use x="377.93" y="227.01" xlink:href="#hd"/>
<path d="M374.43 227.01v23.20" stroke="currentColor" fill="none"/>
<use x="393.13" y="221.01" xlink:href="#hl"/>
<use x="393.13" y="221.01" xlink:href="#hd"/>
<path d="M389.63 221.01v29.20" stroke="currentColor" fill="none"/>
<use x="408.63" y="221.01" xlink:href="#hl"/>
<use x="408.63" y="218.01" xlink:href="#hd"/>
<path d="M405.13 218.01v32.20" stroke="currentColor" fill="none"/>
<use x="424.03" y="221.01" xlink:href="#hl"/>
<use x="424.03" y="221.01" xlink:href="#hd"/>
<path d="M420.53 221.01v29.20" stroke="currentColor" fill="none"/>
<use x="450.33" y="224.01" xlink:href="#hd"/>
<path d="M446.83 224.01v20.00" stroke="currentColor" fill="none"/>
<path fill="currentColor"
	d="M469.63 264.21l61.60 0.00v-3.20l-61.60 -0.00"/>
<use x="473.53" y="233.01" xlink:href="#hd"/>
<path d="M470.03 233.01v30.20" stroke="currentColor" fill="none"/>
<use x="488.73" y="224.01" xlink:href="#hd"/>
<path d="M485.23 224.01v39.20" stroke="currentColor" fill="none"/>
<use x="503.93" y="245.01" xlink:href="#hd"/>
<path d="M500.43 245.01v18.20" stroke="currentColor" fill="none"/>
<use x="519.13" y="239.01" xlink:href="#hd"/>
<path d="M515.63 239.01v24.20" stroke="currentColor" fill="none"/>
<use x="534.43" y="236.01" xlink:href="#hd"/>
<path d="M530.93 236.01v27.20" stroke="currentColor" fill="none"/>
<use x="567.43" y="224.01" xlink:href="#hd"/>
<path d="M563.93 224.01v20.00" stroke="currentColor" fill="none"/>
<path fill="currentColor"
	d="M586.73 259.01l90.90 0.00v-3.20l-90.90 -0.00"/>
<path fill="currentColor"
	d="M617.53 254.01l33.40 0.00v-3.20l-33.40 -0.00"/>
<use x="590.53" y="233.01" xlink:href="#hd"/>
<path d="M587.03 233.01v25.00" stroke="currentColor" fill="none"/>
<use x="605.83" y="239.01" xlink:href="#hd"/>
<path d="M602.33 239.01v19.00" stroke="currentColor" fill="none"/>
<use x="621.03" y="224.01" xlink:href="#hd"/>
<path d="M617.53 224.01v34.00" stroke="currentColor" fill="none"/>
<use x="632.13" y="221.01" xlink:href="#hl"/>
<use x="632.13" y="221.01" xlink:href="#hd"/>
<path d="M628.63 221.01v37.00" stroke="currentColor" fill="none"/>
<use x="643.33" y="224.01" xlink:href="#hd"/>
<path d="M639.83 224.01v34.00" stroke="currentColor" fill="none"/>
<use x="654.43" y="227.01" xlink:href="#hd"/>
<path d="M650.93 227.01v31.00" stroke="currentColor" fill="none"/>
<use x="665.53" y="224.01" xlink:href="#hd"/>
<path d="M662.03 224.01v34.00" stroke="currentColor" fill="none"/>
<use x="680.73" y="230.01" xlink:href="#hd"/>
<path d="M677.23 230.01v28.00" stroke="currentColor" fill="none"/>
<path stroke="currentColor" fill="none"
	d="M215.43 321.01v-24.00"/>
<path stroke="currentColor" fill="none"
	d="M367.73 321.01v-24.00"/>
<path stroke="currentColor" fill="none"
	d="M546.43 321.01v-24.00"/>
<path stroke="currentColor" fill="none" stroke-width="3"
	d="M693.43 321.01v-24.00"/>
<path stroke="currentColor" fill="none"
	d="M688.93 321.01v-24.00"/>
<path stroke="currentColor" fill="none"
	d="M13.33 321.01h681.60m-681.60 -6h681.60m-681.60 -6h681.60m-681.60 -6h681.60m-681.60 -6h681.60"/>
<use x="25.33" y="321.01" xlink:href="#tclef"/>
<use x="40.33" y="297.01" xlink:href="#sh0"/>
<path fill="currentColor"
	d="M54.53 334.21l140.00 0.00v-3.20l-140.00 -0.00"/>
<use x="58.33" y="294.01" xlink:href="#hd"/>
<path d="M54.83 294.01v39.20" stroke="currentColor" fill="none"/>
<use x="78.23" y="300.01" xlink:href="#hd"/>
<path d="M74.73 300.01v33.20" stroke="currentColor" fill="none"/>
<use x="98.13" y="303.01" xlink:href="#hd"/>
<path d="M94.63 303.01v30.20" stroke="currentColor" fill="none"/>
<use x="118.03" y="300.01" xlink:href="#hd"/>
<path d="M114.53 300.01v33.20" stroke="currentColor" fill="none"/>
<use x="137.93" y="309.01" xlink:href="#hd"/>
<path d="M134.43 309.01v24.20" stroke="currentColor" fill="none"/>
<use x="157.83" y="315.01" xlink:href="#hd"/>
<path d="M154.33 315.01v18.20" stroke="currentColor" fill="none"/>
<use x="177.83" y="300.01" xlink:href="#hd"/>
<path d="M174.33 300.01v33.20" stroke="currentColor" fill="none"/>
<use x="197.73" y="306.01" xlink:href="#hd"/>
<path d="M194.23 306.01v27.20" stroke="currentColor" fill="none"/>
<use x="227.93" y="315.01" xlink:href="#hd"/>
<path d="M231.43 315.01v-20.00" stroke="currentColor" fill="none"/>
<use x="259.13" y="297.01" xlink:href="#hd"/>
<path d="M255.63 297.01v20.00" stroke="currentColor" fill="none"/>
<path fill="currentColor"
	d="M286.33 315.21l60.50 0.00v-3.20l-60.50 -0.00"/>
<use x="290.23" y="294.01" xlink:href="#hd"/>
<path d="M286.73 294.01v20.20" stroke="currentColor" fill="none"/>
<use x="310.13" y="291.01" xlink:href="#hl"/>
<use x="310.13" y="288.01" xlink:href="#hd"/>
<path d="M306.63 288.01v26.20" stroke="currentColor" fill="none"/>
<use x="330.03" y="291.01" xlink:href="#hl"/>
<use x="330.03" y="291.01" xlink:href="#hd"/>
<path d="M326.53 291.01v23.20" stroke="currentColor" fill="none"/>
<use x="349.93" y="297.01" xlink:href="#hd"/>
<path d="M346.43 297.01v17.20" stroke="currentColor" fill="none"/>
<path fill="currentColor"
	d="M376.33 323.01l154.30 0.00v-3.20l-154.30 -0.00"/>
<path fill="currentColor"
	d="M516.13 318.01l14.20 0.00v-3.20l-14.20 -0.00"/>
<use x="380.23" y="294.01" xlink:href="#hd"/>
<path d="M376.73 294.01v28.00" stroke="currentColor" fill="none"/>
<use x="400.13" y="291.01" xlink:href="#hl"/>
<use x="400.13" y="291.01" xlink:href="#hd"/>
<path d="M396.63 291.01v31.00" stroke="currentColor" fill="none"/>
<use x="420.13" y="291.01" xlink:href="#hl"/>
<use x="420.13" y="288.01" xlink:href="#hd"/>
<path d="M416.63 288.01v34.00" stroke="currentColor" fill="none"/>
<use x="440.03" y="306.01" xlink:href="#hd"/>
<path d="M436.53 306.01v16.00" stroke="currentColor" fill="none"/>
<use x="459.93" y="300.01" xlink:href="#hd"/>
<path d="M456.43 300.01v22.00" stroke="currentColor" fill="none"/>
<use x="479.83" y="291.01" xlink:href="#hl"/>
<use x="479.83" y="291.01" xlink:href="#hd"/>
<path d="M476.33 291.01v31.00" stroke="currentColor" fill="none"/>
<use x="499.73" y="303.01" xlink:href="#hd"/>
<path d="M496.23 303.01v19.00" stroke="currentColor" fill="none"/>
<use x="519.63" y="297.01" xlink:href="#hd"/>
<path d="M516.13 297.01v25.00" stroke="currentColor" fill="none"/>
<use x="533.83" y="300.01" xlink:href="#hd"/>
<path d="M530.33 300.01v22.00" stroke="currentColor" fill="none"/>
<path fill="currentColor"
	d="M555.13 328.71l60.40 3.80v-3.20l-60.40 -3.80"/>
<use x="558.93" y="303.01" xlink:href="#hd"/>
<path d="M555.43 303.01v24.70" stroke="currentColor" fill="none"/>
<use x="578.83" y="306.01" xlink:href="#hd"/>
<path d="M575.33 306.01v22.90" stroke="currentColor" fill="none"/>
<use x="598.73" y="312.01" xlink:href="#hd"/>
<path d="M595.23 312.01v18.20" stroke="currentColor" fill="none"/>
<use x="618.73" y="309.01" xlink:href="#hd"/>
<path d="M615.23 309.01v22.50" stroke="currentColor" fill="none"/>
<use x="638.63" y="315.01" xlink:href="#hd"/>
<path d="M642.13 315.01v-20.00" stroke="currentColor" fill="none"/>
<use x="669.73" y="294.01" xlink:href="#hd"/>
<path d="M666.23 294.01v20.00" stroke="currentColor" fill="none"/>
</g>
</svg>
