<?xml version="1.0" standalone="no"?>
<!DOCTYPE svg PUBLIC "-//W3C//DTD SVG 1.1//EN"
	"http://www.w3.org/Graphics/SVG/1.1/DTD/svg11.dtd">
<svg xmlns="http://www.w3.org/2000/svg" version="1.1"
	xmlns:xlink="http://www.w3.org/1999/xlink"
	xml:space='preserve' color="black"
	width="7.38in" height="2.23in" viewBox="0 0 531 161">
<title>data/results/biggest_11/abc/82.abc (82) tune 1</title>
<!-- Creator: abcm2ps-7.8.14 -->
<!-- CreationDate: Aug  9, 2015 23:50 -->
<!-- CommandLine: -g data/results/biggest_11/abc/82.abc -O /home/allanino/Dropbox/Trabalhos/folkme/svg/82.svg -->
<g transform="scale(0.750)" stroke-width="0.70" font-family="Times" font-size="20.00">
<text x="354.13" y="21.67" text-anchor="middle">Ländler  F 5+ chords</text>
<defs>
<g id="rdots" fill="currentColor">
	<circle cx="0" cy="-9" r="1.2"/>
	<circle cx="0" cy="-15" r="1.2"/>
</g>
</defs>
<use x="104.83" y="110.01" xlink:href="#rdots"/>
<path stroke="currentColor" fill="none"
	d="M100.83 110.01v-24.00"/>
<path stroke="currentColor" fill="none" stroke-width="3"
	d="M96.33 110.01v-24.00"/>
<path stroke="currentColor" fill="none"
	d="M176.63 110.01v-24.00"/>
<path stroke="currentColor" fill="none"
	d="M246.73 110.01v-24.00"/>
<path stroke="currentColor" fill="none"
	d="M317.53 110.01v-24.00"/>
<path stroke="currentColor" fill="none"
	d="M395.63 110.01v-24.00"/>
<path stroke="currentColor" fill="none"
	d="M467.63 110.01v-24.00"/>
<path stroke="currentColor" fill="none"
	d="M530.53 110.01v-24.00"/>
<path stroke="currentColor" fill="none"
	d="M608.63 110.01v-24.00"/>
<path stroke="currentColor" fill="none" stroke-width="3"
	d="M669.43 110.01v-24.00"/>
<path stroke="currentColor" fill="none"
	d="M664.93 110.01v-24.00"/>
<use x="660.93" y="110.01" xlink:href="#rdots"/>
<path stroke="currentColor" fill="none"
	d="M13.33 110.01h681.60m-681.60 -6h681.60m-681.60 -6h681.60m-681.60 -6h681.60m-681.60 -6h681.60"/>
</g>
<g transform="scale(0.750)" stroke-width="0.70" font-family="Helvetica" font-size="12.00">
<text x="115.43" y="62.61">F</text>
<text x="182.63" y="62.61">G7</text>
<text x="327.13" y="62.61">F</text>
<text x="474.03" y="62.61">C7</text>
<text x="618.13" y="62.61">F</text>
<defs>
<path id="utclef" fill="currentColor" d="m-50 -90
	c-72 -41 -72 -158 52 -188
	c150 -10 220 188 90 256
	c-114 52 -275 0 -293 -136
	c-15 -181 93 -229 220 -334
	c88 -87 79 -133 62 -210
	c-51 33 -94 105 -89 186
	c17 267 36 374 49 574
	c6 96 -19 134 -77 135
	c-80 1 -126 -93 -61 -133
	c85 -41 133 101 31 105
	c23 17 92 37 90 -92
	c-10 -223 -39 -342 -50 -617
	c0 -90 0 -162 96 -232
	c56 72 63 230 22 289
	c-74 106 -257 168 -255 316
	c9 153 148 185 252 133
	c86 -65 29 -192 -80 -176
	c-71 12 -105 67 -59 124"/>
<use id="tclef" transform="scale(0.045)"
	xlink:href="#utclef"/>
</defs>
<use x="25.33" y="110.01" xlink:href="#tclef"/>
<defs>
<path id="uflat" fill="currentColor" d="
	m100 -746
	h32
	v734
	l-32 4
	m32 -332
	c46 -72 152 -90 208 -20
	c100 110 -120 326 -208 348
	m0 -28
	c54 0 200 -206 130 -290
	c-50 -60 -130 -4 -130 34"/>
<use id="ft0" transform="translate(-3.5,3.5) scale(0.018)"
	xlink:href="#uflat"/>
</defs>
<use x="40.33" y="98.01" xlink:href="#ft0"/>
<g font-family="serif" font-size="16" font-weight="bold" font-style="normal"
	transform="translate(56.33,110.01) scale(1.2,1)">
	<text y="-1" text-anchor="middle">4</text>
	<text y="-13" text-anchor="middle">3</text>
</g>
<path fill="currentColor"
	d="M70.53 116.21l11.70 0.00v-3.20l-11.70 -0.00"/>
<defs>
<ellipse id="hd" rx="4.1" ry="2.9"
	transform="rotate(-20)" fill="currentColor"/>
</defs>
<use x="74.33" y="95.01" xlink:href="#hd"/>
<path d="M70.83 95.01v20.20" stroke="currentColor" fill="none"/>
<use x="85.33" y="95.01" xlink:href="#hd"/>
<path d="M81.83 95.01v20.20" stroke="currentColor" fill="none"/>
<use x="118.33" y="95.01" xlink:href="#hd"/>
<path d="M114.83 95.01v20.00" stroke="currentColor" fill="none"/>
<path fill="currentColor"
	d="M129.13 120.31l33.70 -5.50v-3.20l-33.70 5.50"/>
<use x="133.03" y="101.01" xlink:href="#hd"/>
<path d="M129.53 101.01v18.20" stroke="currentColor" fill="none"/>
<use x="144.03" y="95.01" xlink:href="#hd"/>
<path d="M140.53 95.01v22.40" stroke="currentColor" fill="none"/>
<use x="155.03" y="86.01" xlink:href="#hd"/>
<path d="M151.53 86.01v29.60" stroke="currentColor" fill="none"/>
<use x="166.03" y="89.01" xlink:href="#hd"/>
<path d="M162.53 89.01v24.80" stroke="currentColor" fill="none"/>
<path fill="currentColor"
	d="M185.23 117.21l33.70 0.00v-3.20l-33.70 -0.00"/>
<use x="189.13" y="95.01" xlink:href="#hd"/>
<path d="M185.63 95.01v21.20" stroke="currentColor" fill="none"/>
<use x="200.13" y="98.01" xlink:href="#hd"/>
<path d="M196.63 98.01v18.20" stroke="currentColor" fill="none"/>
<use x="211.13" y="92.01" xlink:href="#hd"/>
<path d="M207.63 92.01v24.20" stroke="currentColor" fill="none"/>
<use x="222.13" y="95.01" xlink:href="#hd"/>
<path d="M218.63 95.01v21.20" stroke="currentColor" fill="none"/>
<use x="233.83" y="98.01" xlink:href="#hd"/>
<path d="M230.33 98.01v20.00" stroke="currentColor" fill="none"/>
<use x="259.23" y="98.01" xlink:href="#hd"/>
<path d="M255.73 98.01v20.00" stroke="currentColor" fill="none"/>
<path fill="currentColor"
	d="M270.13 117.21l33.70 0.00v-3.20l-33.70 -0.00"/>
<use x="273.93" y="92.01" xlink:href="#hd"/>
<path d="M270.43 92.01v24.20" stroke="currentColor" fill="none"/>
<use x="284.93" y="83.01" xlink:href="#hd"/>
<path d="M281.43 83.01v33.20" stroke="currentColor" fill="none"/>
<use x="295.93" y="98.01" xlink:href="#hd"/>
<path d="M292.43 98.01v18.20" stroke="currentColor" fill="none"/>
<use x="306.93" y="83.01" xlink:href="#hd"/>
<path d="M303.43 83.01v33.20" stroke="currentColor" fill="none"/>
<path fill="currentColor"
	d="M326.23 115.01l55.70 6.60v-3.20l-55.70 -6.60"/>
<use x="330.03" y="86.01" xlink:href="#hd"/>
<path d="M326.53 86.01v28.00" stroke="currentColor" fill="none"/>
<defs>
<path id="hl" stroke="currentColor" d="m-6 0h12"/>
</defs>
<use x="341.03" y="80.01" xlink:href="#hl"/>
<use x="341.03" y="80.01" xlink:href="#hd"/>
<path d="M337.53 80.01v35.30" stroke="currentColor" fill="none"/>
<use x="352.03" y="95.01" xlink:href="#hd"/>
<path d="M348.53 95.01v21.60" stroke="currentColor" fill="none"/>
<use x="363.03" y="86.01" xlink:href="#hd"/>
<path d="M359.53 86.01v31.90" stroke="currentColor" fill="none"/>
<use x="374.03" y="101.01" xlink:href="#hd"/>
<path d="M370.53 101.01v18.20" stroke="currentColor" fill="none"/>
<use x="385.03" y="95.01" xlink:href="#hd"/>
<path d="M381.53 95.01v25.50" stroke="currentColor" fill="none"/>
<use x="408.13" y="107.01" xlink:href="#hd"/>
<path d="M411.63 107.01v-20.00" stroke="currentColor" fill="none"/>
<path fill="currentColor"
	d="M420.23 120.31l33.70 -6.70v-3.20l-33.70 6.70"/>
<use x="424.13" y="101.01" xlink:href="#hd"/>
<path d="M420.63 101.01v18.20" stroke="currentColor" fill="none"/>
<use x="435.13" y="95.01" xlink:href="#hd"/>
<path d="M431.63 95.01v22.00" stroke="currentColor" fill="none"/>
<use x="446.13" y="80.01" xlink:href="#hl"/>
<use x="446.13" y="80.01" xlink:href="#hd"/>
<path d="M442.63 80.01v34.80" stroke="currentColor" fill="none"/>
<use x="457.13" y="86.01" xlink:href="#hd"/>
<path d="M453.63 86.01v26.70" stroke="currentColor" fill="none"/>
<path fill="currentColor"
	d="M476.33 108.31l11.70 -3.90v-3.20l-11.70 3.90"/>
<use x="480.13" y="89.01" xlink:href="#hd"/>
<path d="M476.63 89.01v18.20" stroke="currentColor" fill="none"/>
<use x="491.13" y="80.01" xlink:href="#hl"/>
<use x="491.13" y="74.01" xlink:href="#hl"/>
<use x="491.13" y="74.01" xlink:href="#hd"/>
<path d="M487.63 74.01v29.50" stroke="currentColor" fill="none"/>
<use x="502.93" y="83.01" xlink:href="#hd"/>
<path d="M499.43 83.01v20.00" stroke="currentColor" fill="none"/>
<use x="517.53" y="89.01" xlink:href="#hd"/>
<path d="M514.03 89.01v20.00" stroke="currentColor" fill="none"/>
<path fill="currentColor"
	d="M539.13 117.21l55.70 0.00v-3.20l-55.70 -0.00"/>
<use x="543.03" y="92.01" xlink:href="#hd"/>
<path d="M539.53 92.01v24.20" stroke="currentColor" fill="none"/>
<use x="554.03" y="95.01" xlink:href="#hd"/>
<path d="M550.53 95.01v21.20" stroke="currentColor" fill="none"/>
<use x="565.03" y="98.01" xlink:href="#hd"/>
<path d="M561.53 98.01v18.20" stroke="currentColor" fill="none"/>
<use x="576.03" y="95.01" xlink:href="#hd"/>
<path d="M572.53 95.01v21.20" stroke="currentColor" fill="none"/>
<use x="587.03" y="92.01" xlink:href="#hd"/>
<path d="M583.53 92.01v24.20" stroke="currentColor" fill="none"/>
<use x="598.03" y="89.01" xlink:href="#hd"/>
<path d="M594.53 89.01v27.20" stroke="currentColor" fill="none"/>
<use x="621.13" y="86.01" xlink:href="#hd"/>
<path d="M617.63 86.01v20.00" stroke="currentColor" fill="none"/>
<defs>
<path id="r4" fill="currentColor" d="m-1 -8.5
	l3.6 5.1 -2.1 5.2 2.2 4.3
	c-2.6 -2.3 -5.1 0 -2.4 2.6
	c-4.8 -3 -1.5 -6.9 1.4 -4.1
	l-3.1 -4.5 1.9 -5.1 -1.5 -3.5"/>
</defs>
<use x="635.73" y="98.01" xlink:href="#r4"/>
<use x="650.43" y="98.01" xlink:href="#r4"/>
<defs>
<path id="unat" fill="currentColor" d="
	m96 -750
	h-32
	v716
	l32 -8
	l182 -54
	v282
	h32
	v-706
	l-34 10
	l-180 50
	v-290
	m0 592
	v-190
	l182 -52
	v188"/>
<use id="nt0" transform="translate(-3,5) scale(0.018)"
	xlink:href="#unat"/>
</defs>
<use x="681.93" y="98.01" xlink:href="#nt0"/>
<use x="52.33" y="191.01" xlink:href="#rdots"/>
<path stroke="currentColor" fill="none"
	d="M48.33 191.01v-24.00"/>
<path stroke="currentColor" fill="none" stroke-width="3"
	d="M43.83 191.01v-24.00"/>
<path stroke="currentColor" fill="none"
	d="M129.63 191.01v-24.00"/>
<path stroke="currentColor" fill="none"
	d="M212.83 191.01v-24.00"/>
<path stroke="currentColor" fill="none"
	d="M303.73 191.01v-24.00"/>
<path stroke="currentColor" fill="none"
	d="M372.03 191.01v-24.00"/>
<path stroke="currentColor" fill="none"
	d="M448.33 191.01v-24.00"/>
<path stroke="currentColor" fill="none"
	d="M531.43 191.01v-24.00"/>
<path stroke="currentColor" fill="none"
	d="M622.43 191.01v-24.00"/>
<path stroke="currentColor" fill="none" stroke-width="3"
	d="M693.43 191.01v-24.00"/>
<path stroke="currentColor" fill="none"
	d="M688.93 191.01v-24.00"/>
<use x="684.93" y="191.01" xlink:href="#rdots"/>
<path stroke="currentColor" fill="none"
	d="M13.33 191.01h681.60m-681.60 -6h681.60m-681.60 -6h681.60m-681.60 -6h681.60m-681.60 -6h681.60"/>
<text x="62.33" y="144.61">C</text>
<text x="309.83" y="144.61">G7</text>
<text x="631.43" y="144.61">C</text>
<text x="666.43" y="204.61">&gt;TeilA</text>
<use x="25.33" y="191.01" xlink:href="#tclef"/>
<path fill="currentColor"
	d="M62.03 186.01l14.00 3.30v-3.20l-14.00 -3.30"/>
<use x="65.83" y="164.01" xlink:href="#hd"/>
<path d="M62.33 164.01v21.00" stroke="currentColor" fill="none"/>
<use x="79.13" y="170.01" xlink:href="#hd"/>
<path d="M75.63 170.01v18.20" stroke="currentColor" fill="none"/>
<use x="93.63" y="161.01" xlink:href="#hl"/>
<use x="93.63" y="161.01" xlink:href="#hd"/>
<path d="M90.13 161.01v20.00" stroke="currentColor" fill="none"/>
<use x="113.33" y="164.01" xlink:href="#hd"/>
<path d="M109.83 164.01v20.00" stroke="currentColor" fill="none"/>
<path fill="currentColor"
	d="M138.33 204.21l40.50 -5.30v-3.20l-40.50 5.30"/>
<use x="142.13" y="185.01" xlink:href="#hd"/>
<path d="M138.63 185.01v18.20" stroke="currentColor" fill="none"/>
<use x="155.43" y="170.01" xlink:href="#hd"/>
<path d="M151.93 170.01v31.50" stroke="currentColor" fill="none"/>
<use x="168.73" y="176.01" xlink:href="#hd"/>
<path d="M165.23 176.01v23.70" stroke="currentColor" fill="none"/>
<use x="181.93" y="170.01" xlink:href="#hd"/>
<path d="M178.43 170.01v28.00" stroke="currentColor" fill="none"/>
<use x="196.53" y="164.01" xlink:href="#hd"/>
<path d="M193.03 164.01v20.00" stroke="currentColor" fill="none"/>
<path fill="currentColor"
	d="M221.43 188.01l67.00 0.00v-3.20l-67.00 -0.00"/>
<use x="225.33" y="170.01" xlink:href="#hd"/>
<path d="M221.83 170.01v17.00" stroke="currentColor" fill="none"/>
<use x="238.53" y="164.01" xlink:href="#hd"/>
<path d="M235.03 164.01v23.00" stroke="currentColor" fill="none"/>
<use x="251.83" y="161.01" xlink:href="#hl"/>
<use x="251.83" y="155.01" xlink:href="#hl"/>
<use x="251.83" y="155.01" xlink:href="#hd"/>
<path d="M248.33 155.01v32.00" stroke="currentColor" fill="none"/>
<use x="265.13" y="164.01" xlink:href="#hd"/>
<path d="M261.63 164.01v23.00" stroke="currentColor" fill="none"/>
<use x="278.33" y="167.01" xlink:href="#hd"/>
<path d="M274.83 167.01v20.00" stroke="currentColor" fill="none"/>
<use x="291.63" y="170.01" xlink:href="#hd"/>
<path d="M288.13 170.01v17.00" stroke="currentColor" fill="none"/>
<use x="316.23" y="167.01" xlink:href="#hd"/>
<path d="M312.73 167.01v20.00" stroke="currentColor" fill="none"/>
<use x="336.03" y="179.01" xlink:href="#hd"/>
<path d="M332.53 179.01v20.00" stroke="currentColor" fill="none"/>
<use x="355.73" y="179.01" xlink:href="#hd"/>
<path d="M352.23 179.01v20.00" stroke="currentColor" fill="none"/>
<use x="384.53" y="164.01" xlink:href="#hd"/>
<path d="M381.03 164.01v20.00" stroke="currentColor" fill="none"/>
<path fill="currentColor"
	d="M400.43 199.01l14.00 5.30v-3.20l-14.00 -5.30"/>
<use x="404.23" y="164.01" xlink:href="#hd"/>
<path d="M400.73 164.01v34.20" stroke="currentColor" fill="none"/>
<use x="417.53" y="185.01" xlink:href="#hd"/>
<path d="M414.03 185.01v18.20" stroke="currentColor" fill="none"/>
<use x="432.03" y="164.01" xlink:href="#hd"/>
<path d="M428.53 164.01v20.00" stroke="currentColor" fill="none"/>
<path fill="currentColor"
	d="M457.03 204.21l40.50 0.00v-3.20l-40.50 -0.00"/>
<use x="460.83" y="185.01" xlink:href="#hd"/>
<path d="M457.33 185.01v18.20" stroke="currentColor" fill="none"/>
<use x="474.13" y="167.01" xlink:href="#hd"/>
<path d="M470.63 167.01v36.20" stroke="currentColor" fill="none"/>
<use x="487.43" y="167.01" xlink:href="#hd"/>
<path d="M483.93 167.01v36.20" stroke="currentColor" fill="none"/>
<use x="500.63" y="185.01" xlink:href="#hd"/>
<path d="M497.13 185.01v18.20" stroke="currentColor" fill="none"/>
<use x="515.23" y="179.01" xlink:href="#hd"/>
<path d="M511.73 179.01v20.00" stroke="currentColor" fill="none"/>
<path fill="currentColor"
	d="M540.13 204.21l67.00 0.00v-3.20l-67.00 -0.00"/>
<use x="543.93" y="185.01" xlink:href="#hd"/>
<path d="M540.43 185.01v18.20" stroke="currentColor" fill="none"/>
<use x="557.23" y="173.01" xlink:href="#hd"/>
<path d="M553.73 173.01v30.20" stroke="currentColor" fill="none"/>
<use x="570.53" y="167.01" xlink:href="#hd"/>
<path d="M567.03 167.01v36.20" stroke="currentColor" fill="none"/>
<use x="583.83" y="185.01" xlink:href="#hd"/>
<path d="M580.33 185.01v18.20" stroke="currentColor" fill="none"/>
<use x="597.03" y="182.01" xlink:href="#hd"/>
<path d="M593.53 182.01v21.20" stroke="currentColor" fill="none"/>
<use x="610.33" y="179.01" xlink:href="#hd"/>
<path d="M606.83 179.01v24.20" stroke="currentColor" fill="none"/>
<use x="634.93" y="176.01" xlink:href="#hd"/>
<path d="M631.43 176.01v20.00" stroke="currentColor" fill="none"/>
<use x="654.73" y="176.01" xlink:href="#hd"/>
<path d="M651.23 176.01v20.00" stroke="currentColor" fill="none"/>
<use x="674.43" y="179.01" xlink:href="#r4"/>
<text font-family="serif" font-size="16" font-weight="bold" font-style="italic"
	x="312.23" y="159.01">tr</text>
</g>
</svg>
