<?xml version="1.0" standalone="no"?>
<!DOCTYPE svg PUBLIC "-//W3C//DTD SVG 1.1//EN"
	"http://www.w3.org/Graphics/SVG/1.1/DTD/svg11.dtd">
<svg xmlns="http://www.w3.org/2000/svg" version="1.1"
	xmlns:xlink="http://www.w3.org/1999/xlink"
	xml:space='preserve' color="black"
	width="7.38in" height="2.30in" viewBox="0 0 531 166">
<title>data/results/biggest_11/abc/88.abc (88) tune 1</title>
<!-- Creator: abcm2ps-7.8.14 -->
<!-- CreationDate: Aug  9, 2015 23:50 -->
<!-- CommandLine: -g data/results/biggest_11/abc/88.abc -O /home/allanino/Dropbox/Trabalhos/folkme/svg/88.svg -->
<g transform="scale(0.750)" stroke-width="0.70" font-family="Times" font-size="20.00">
<text x="354.13" y="21.67" text-anchor="middle">Allifte of The Creigfolsa</text>
</g>
<g transform="scale(0.750)" stroke-width="0.70" font-family="Times" font-size="15.00">
<text x="64.33" y="68.01">A</text>
<path stroke="currentColor" fill="none"
	d="M110.23 108.01v-24.00"/>
<path stroke="currentColor" fill="none"
	d="M252.73 108.01v-24.00"/>
<path stroke="currentColor" fill="none"
	d="M385.13 108.01v-24.00"/>
<path stroke="currentColor" fill="none"
	d="M541.13 108.01v-24.00"/>
<path stroke="currentColor" fill="none"
	d="M694.93 108.01v-24.00"/>
<path stroke="currentColor" fill="none"
	d="M13.33 108.01h681.60m-681.60 -6h681.60m-681.60 -6h681.60m-681.60 -6h681.60m-681.60 -6h681.60"/>
</g>
<g transform="scale(0.750)" stroke-width="0.70" font-family="Helvetica" font-size="12.00">
<text x="118.93" y="64.61">G</text>
<text x="172.33" y="64.61">D7</text>
<text x="261.43" y="64.61">G</text>
<text x="391.23" y="64.61">D7</text>
<text x="549.83" y="64.61">G</text>
<defs>
<path id="utclef" fill="currentColor" d="m-50 -90
	c-72 -41 -72 -158 52 -188
	c150 -10 220 188 90 256
	c-114 52 -275 0 -293 -136
	c-15 -181 93 -229 220 -334
	c88 -87 79 -133 62 -210
	c-51 33 -94 105 -89 186
	c17 267 36 374 49 574
	c6 96 -19 134 -77 135
	c-80 1 -126 -93 -61 -133
	c85 -41 133 101 31 105
	c23 17 92 37 90 -92
	c-10 -223 -39 -342 -50 -617
	c0 -90 0 -162 96 -232
	c56 72 63 230 22 289
	c-74 106 -257 168 -255 316
	c9 153 148 185 252 133
	c86 -65 29 -192 -80 -176
	c-71 12 -105 67 -59 124"/>
<use id="tclef" transform="scale(0.045)"
	xlink:href="#utclef"/>
</defs>
<use x="25.33" y="108.01" xlink:href="#tclef"/>
<defs>
<path id="usharp" fill="currentColor" d="
	m136 -702
	v890
	h32
	v-890
	m128 840
	h32
	v-888
	h-32
	m-232 286
	v116
	l338 -96
	v-116
	m-338 442
	v116
	l338 -98
	v-114"/>
<use id="sh0" transform="translate(-4,5) scale(0.018)"
	xlink:href="#usharp"/>
</defs>
<use x="40.33" y="84.01" xlink:href="#sh0"/>
<g font-family="serif" font-size="16" font-weight="bold" font-style="normal"
	transform="translate(56.33,108.01) scale(1.2,1)">
	<text y="-1" text-anchor="middle">4</text>
	<text y="-13" text-anchor="middle">4</text>
</g>
<path fill="currentColor"
	d="M70.53 115.71l19.70 -2.40v-3.20l-19.70 2.40"/>
<defs>
<ellipse id="hd" rx="4.1" ry="2.9"
	transform="rotate(-20)" fill="currentColor"/>
</defs>
<use x="74.33" y="96.01" xlink:href="#hd"/>
<path d="M70.83 96.01v18.60" stroke="currentColor" fill="none"/>
<use x="93.33" y="93.01" xlink:href="#hd"/>
<path d="M89.83 93.01v19.40" stroke="currentColor" fill="none"/>
<use x="122.73" y="90.01" xlink:href="#hd"/>
<path d="M119.23 90.01v20.00" stroke="currentColor" fill="none"/>
<use x="152.23" y="96.01" xlink:href="#hd"/>
<path d="M148.73 96.01v20.00" stroke="currentColor" fill="none"/>
<path fill="currentColor"
	d="M182.03 73.81l57.60 3.80v3.20l-57.60 -3.80"/>
<use x="178.83" y="93.01" xlink:href="#hd"/>
<path d="M182.33 93.01v-18.20" stroke="currentColor" fill="none"/>
<use x="197.83" y="99.01" xlink:href="#hd"/>
<path d="M201.33 99.01v-22.90" stroke="currentColor" fill="none"/>
<use x="216.73" y="105.01" xlink:href="#hd"/>
<path d="M220.23 105.01v-27.70" stroke="currentColor" fill="none"/>
<use x="235.73" y="99.01" xlink:href="#hd"/>
<path d="M239.23 99.01v-20.40" stroke="currentColor" fill="none"/>
<use x="265.23" y="102.01" xlink:href="#hd"/>
<path d="M268.73 102.01v-20.00" stroke="currentColor" fill="none"/>
<path fill="currentColor"
	d="M291.03 115.71l19.70 -2.40v-3.20l-19.70 2.40"/>
<use x="294.83" y="96.01" xlink:href="#hd"/>
<path d="M291.33 96.01v18.60" stroke="currentColor" fill="none"/>
<use x="313.83" y="93.01" xlink:href="#hd"/>
<path d="M310.33 93.01v19.40" stroke="currentColor" fill="none"/>
<use x="334.83" y="90.01" xlink:href="#hd"/>
<path d="M331.33 90.01v20.00" stroke="currentColor" fill="none"/>
<use x="361.43" y="102.01" xlink:href="#hd"/>
<path d="M364.93 102.01v-20.00" stroke="currentColor" fill="none"/>
<path fill="currentColor"
	d="M400.83 81.01l57.60 0.00v3.20l-57.60 -0.00"/>
<use x="397.63" y="105.01" xlink:href="#hd"/>
<path d="M401.13 105.01v-23.00" stroke="currentColor" fill="none"/>
<use x="416.63" y="102.01" xlink:href="#hd"/>
<path d="M420.13 102.01v-20.00" stroke="currentColor" fill="none"/>
<use x="435.63" y="99.01" xlink:href="#hd"/>
<path d="M439.13 99.01v-17.00" stroke="currentColor" fill="none"/>
<use x="454.53" y="105.01" xlink:href="#hd"/>
<path d="M458.03 105.01v-23.00" stroke="currentColor" fill="none"/>
<use x="475.53" y="111.01" xlink:href="#hd"/>
<path d="M479.03 111.01v-20.00" stroke="currentColor" fill="none"/>
<path fill="currentColor"
	d="M501.33 115.71l19.70 -2.40v-3.20l-19.70 2.40"/>
<use x="505.23" y="96.01" xlink:href="#hd"/>
<path d="M501.73 96.01v18.60" stroke="currentColor" fill="none"/>
<use x="524.23" y="93.01" xlink:href="#hd"/>
<path d="M520.73 93.01v19.40" stroke="currentColor" fill="none"/>
<path fill="currentColor"
	d="M549.83 115.21l57.60 0.00v-3.20l-57.60 -0.00"/>
<use x="553.63" y="90.01" xlink:href="#hd"/>
<path d="M550.13 90.01v24.20" stroke="currentColor" fill="none"/>
<use x="572.63" y="96.01" xlink:href="#hd"/>
<path d="M569.13 96.01v18.20" stroke="currentColor" fill="none"/>
<use x="591.53" y="90.01" xlink:href="#hd"/>
<path d="M588.03 90.01v24.20" stroke="currentColor" fill="none"/>
<use x="610.53" y="96.01" xlink:href="#hd"/>
<path d="M607.03 96.01v18.20" stroke="currentColor" fill="none"/>
<use x="629.53" y="99.01" xlink:href="#hd"/>
<path d="M633.03 99.01v-20.00" stroke="currentColor" fill="none"/>
<path fill="currentColor"
	d="M662.13 80.51l19.70 -3.80v3.20l-19.70 3.80"/>
<use x="659.03" y="102.01" xlink:href="#hd"/>
<path d="M662.53 102.01v-20.50" stroke="currentColor" fill="none"/>
<use x="677.93" y="96.01" xlink:href="#hd"/>
<path d="M681.43 96.01v-18.20" stroke="currentColor" fill="none"/>
<path stroke="currentColor" fill="none"
	d="M247.83 198.01v-24.00"/>
<path stroke="currentColor" fill="none"
	d="M426.93 198.01v-24.00"/>
<path stroke="currentColor" fill="none"
	d="M630.33 198.01v-24.00"/>
<path stroke="currentColor" fill="none" stroke-width="3"
	d="M693.43 198.01v-24.00"/>
<path stroke="currentColor" fill="none"
	d="M688.93 198.01v-24.00"/>
<defs>
<g id="rdots" fill="currentColor">
	<circle cx="0" cy="-9" r="1.2"/>
	<circle cx="0" cy="-15" r="1.2"/>
</g>
</defs>
<use x="684.93" y="198.01" xlink:href="#rdots"/>
<path stroke="currentColor" fill="none"
	d="M13.33 198.01h681.60m-681.60 -6h681.60m-681.60 -6h681.60m-681.60 -6h681.60m-681.60 -6h681.60"/>
<text x="54.53" y="142.61">G</text>
<text x="54.53" y="154.61">D</text>
<text x="146.93" y="154.61">C</text>
<text x="257.93" y="154.61">D</text>
<text x="336.53" y="154.61">G</text>
<text x="433.53" y="154.61">Em</text>
<text x="537.33" y="154.61">D7</text>
<text x="640.43" y="154.61">G</text>
<use x="25.33" y="198.01" xlink:href="#tclef"/>
<use x="40.33" y="174.01" xlink:href="#sh0"/>
<path fill="currentColor"
	d="M61.53 180.71l25.70 -2.50v3.20l-25.70 2.50"/>
<use x="58.33" y="201.01" xlink:href="#hd"/>
<path d="M61.83 201.01v-19.30" stroke="currentColor" fill="none"/>
<use x="83.33" y="198.01" xlink:href="#hd"/>
<path d="M86.83 198.01v-18.70" stroke="currentColor" fill="none"/>
<use x="111.13" y="195.01" xlink:href="#hd"/>
<path d="M114.63 195.01v-20.00" stroke="currentColor" fill="none"/>
<path fill="currentColor"
	d="M153.63 179.81l75.80 0.00v3.20l-75.80 -0.00"/>
<use x="150.43" y="198.01" xlink:href="#hd"/>
<path d="M153.93 198.01v-17.20" stroke="currentColor" fill="none"/>
<use x="175.53" y="201.01" xlink:href="#hd"/>
<path d="M179.03 201.01v-20.20" stroke="currentColor" fill="none"/>
<use x="200.53" y="201.01" xlink:href="#hd"/>
<path d="M204.03 201.01v-20.20" stroke="currentColor" fill="none"/>
<use x="225.53" y="198.01" xlink:href="#hd"/>
<path d="M229.03 198.01v-17.20" stroke="currentColor" fill="none"/>
<use x="261.73" y="195.01" xlink:href="#hd"/>
<path d="M265.23 195.01v-20.00" stroke="currentColor" fill="none"/>
<use x="301.03" y="198.01" xlink:href="#hd"/>
<path d="M304.53 198.01v-20.00" stroke="currentColor" fill="none"/>
<use x="340.33" y="183.01" xlink:href="#hd"/>
<path d="M336.83 183.01v20.00" stroke="currentColor" fill="none"/>
<path fill="currentColor"
	d="M375.83 205.71l25.70 -2.50v-3.20l-25.70 2.50"/>
<use x="379.63" y="186.01" xlink:href="#hd"/>
<path d="M376.13 186.01v18.70" stroke="currentColor" fill="none"/>
<use x="404.73" y="183.01" xlink:href="#hd"/>
<path d="M401.23 183.01v19.30" stroke="currentColor" fill="none"/>
<path fill="currentColor"
	d="M444.03 163.81l75.80 0.00v3.20l-75.80 -0.00"/>
<use x="440.83" y="192.01" xlink:href="#hd"/>
<path d="M444.33 192.01v-27.20" stroke="currentColor" fill="none"/>
<use x="465.93" y="183.01" xlink:href="#hd"/>
<path d="M469.43 183.01v-18.20" stroke="currentColor" fill="none"/>
<use x="490.93" y="186.01" xlink:href="#hd"/>
<path d="M494.43 186.01v-21.20" stroke="currentColor" fill="none"/>
<use x="515.93" y="189.01" xlink:href="#hd"/>
<path d="M519.43 189.01v-24.20" stroke="currentColor" fill="none"/>
<use x="543.73" y="189.01" xlink:href="#hd"/>
<path d="M547.23 189.01v-20.00" stroke="currentColor" fill="none"/>
<path fill="currentColor"
	d="M586.23 172.31l25.70 2.50v3.20l-25.70 -2.50"/>
<use x="583.03" y="192.01" xlink:href="#hd"/>
<path d="M586.53 192.01v-18.70" stroke="currentColor" fill="none"/>
<use x="608.13" y="195.01" xlink:href="#hd"/>
<path d="M611.63 195.01v-19.30" stroke="currentColor" fill="none"/>
<defs>
<path id="Hd" fill="currentColor" d="m3 -1.6
	c-1 -1.8 -7 1.4 -6 3.2
	c1 1.8 7 -1.4 6 -3.2
	m0.5 -0.3
	c2 3.8 -5 7.6 -7 3.8
	c-2 -3.8 5 -7.6 7 -3.8"/>
</defs>
<use x="644.23" y="192.01" xlink:href="#Hd"/>
<circle fill="currentColor" cx="653.23" cy="189.01" r="1.2"/>
<path d="M647.73 192.01v-20.00" stroke="currentColor" fill="none"/>
</g>
</svg>
