<?xml version="1.0" standalone="no"?>
<!DOCTYPE svg PUBLIC "-//W3C//DTD SVG 1.1//EN"
	"http://www.w3.org/Graphics/SVG/1.1/DTD/svg11.dtd">
<svg xmlns="http://www.w3.org/2000/svg" version="1.1"
	xmlns:xlink="http://www.w3.org/1999/xlink"
	xml:space='preserve' color="black"
	width="7.38in" height="2.47in" viewBox="0 0 531 178">
<title>data/results/biggest_11/abc/99.abc (99) tune 1</title>
<!-- Creator: abcm2ps-7.8.14 -->
<!-- CreationDate: Aug  9, 2015 23:50 -->
<!-- CommandLine: -g data/results/biggest_11/abc/99.abc -O /home/allanino/Dropbox/Trabalhos/folkme/svg/99.svg -->
<g transform="scale(0.750)" stroke-width="0.70" font-family="Times" font-size="20.00">
<text x="354.13" y="21.67" text-anchor="middle">Jodel-Marsch C,F Anm.</text>
<path stroke="currentColor" fill="none"
	d="M178.23 112.01v-24.00"/>
<path stroke="currentColor" fill="none"
	d="M278.43 112.01v-24.00"/>
<path stroke="currentColor" fill="none"
	d="M392.63 112.01v-24.00"/>
<path stroke="currentColor" fill="none"
	d="M502.43 112.01v-24.00"/>
<path stroke="currentColor" fill="none"
	d="M613.23 112.01v-24.00"/>
<path stroke="currentColor" fill="none"
	d="M694.93 112.01v-24.00"/>
<path stroke="currentColor" fill="none"
	d="M13.33 112.01h681.60m-681.60 -6h681.60m-681.60 -6h681.60m-681.60 -6h681.60m-681.60 -6h681.60"/>
</g>
<g transform="scale(0.750)" stroke-width="0.70" font-family="Helvetica" font-size="12.00">
<text x="77.23" y="137.61">b</text>
<text x="92.23" y="135.61">b</text>
<text x="137.43" y="131.61">f</text>
<text x="189.03" y="125.61">f</text>
<text x="203.03" y="125.61">b</text>
<text x="218.23" y="125.61">b</text>
<text x="233.73" y="125.61">a</text>
<text x="250.03" y="123.61">g</text>
<text x="284.73" y="62.61">C7</text>
<text x="288.23" y="125.61">b</text>
<text x="306.03" y="127.61">d</text>
<text x="321.33" y="127.61">e</text>
<text x="350.63" y="123.61">g</text>
<text x="371.53" y="123.61">b</text>
<text x="399.53" y="62.61">F7</text>
<text x="400.73" y="134.61">es</text>
<text x="418.63" y="132.61">es d</text>
<text x="445.63" y="131.61">a</text>
<text x="460.83" y="130.61">c</text>
<text x="482.23" y="128.61">f</text>
<text x="513.23" y="133.61">f</text>
<text x="533.43" y="133.61">e</text>
<text x="562.63" y="133.61">d</text>
<text x="592.53" y="133.61">a</text>
<text x="619.93" y="62.61">B♭</text>
<text x="623.13" y="126.61">b</text>
<defs>
<path id="utclef" fill="currentColor" d="m-50 -90
	c-72 -41 -72 -158 52 -188
	c150 -10 220 188 90 256
	c-114 52 -275 0 -293 -136
	c-15 -181 93 -229 220 -334
	c88 -87 79 -133 62 -210
	c-51 33 -94 105 -89 186
	c17 267 36 374 49 574
	c6 96 -19 134 -77 135
	c-80 1 -126 -93 -61 -133
	c85 -41 133 101 31 105
	c23 17 92 37 90 -92
	c-10 -223 -39 -342 -50 -617
	c0 -90 0 -162 96 -232
	c56 72 63 230 22 289
	c-74 106 -257 168 -255 316
	c9 153 148 185 252 133
	c86 -65 29 -192 -80 -176
	c-71 12 -105 67 -59 124"/>
<use id="tclef" transform="scale(0.045)"
	xlink:href="#utclef"/>
</defs>
<use x="25.33" y="112.01" xlink:href="#tclef"/>
<defs>
<path id="uflat" fill="currentColor" d="
	m100 -746
	h32
	v734
	l-32 4
	m32 -332
	c46 -72 152 -90 208 -20
	c100 110 -120 326 -208 348
	m0 -28
	c54 0 200 -206 130 -290
	c-50 -60 -130 -4 -130 34"/>
<use id="ft0" transform="translate(-3.5,3.5) scale(0.018)"
	xlink:href="#uflat"/>
</defs>
<use x="40.33" y="100.01" xlink:href="#ft0"/>
<use x="45.83" y="91.01" xlink:href="#ft0"/>
<g font-family="serif" font-size="16" font-weight="bold" font-style="normal"
	transform="translate(61.83,112.01) scale(1.2,1)">
	<text y="-1" text-anchor="middle">4</text>
	<text y="-13" text-anchor="middle">2</text>
</g>
<path fill="currentColor"
	d="M76.03 123.81l80.70 -8.50v-3.20l-80.70 8.50"/>
<path fill="currentColor"
	d="M76.33 118.81l44.60 -4.70v-3.20l-44.60 4.70"/>
<defs>
<ellipse id="hd" rx="4.1" ry="2.9"
	transform="rotate(-20)" fill="currentColor"/>
</defs>
<use x="79.83" y="100.01" xlink:href="#hd"/>
<path d="M76.33 100.01v22.80" stroke="currentColor" fill="none"/>
<use x="94.93" y="100.01" xlink:href="#hd"/>
<path d="M91.43 100.01v21.20" stroke="currentColor" fill="none"/>
<use x="109.63" y="97.01" xlink:href="#hd"/>
<path d="M106.13 97.01v22.60" stroke="currentColor" fill="none"/>
<use x="124.43" y="91.01" xlink:href="#hd"/>
<path d="M120.93 91.01v27.10" stroke="currentColor" fill="none"/>
<use x="139.23" y="88.01" xlink:href="#hd"/>
<path d="M135.73 88.01v28.50" stroke="currentColor" fill="none"/>
<use x="159.83" y="85.01" xlink:href="#hd"/>
<path d="M156.33 85.01v29.40" stroke="currentColor" fill="none"/>
<path fill="currentColor"
	d="M186.93 112.21l46.00 0.00v-3.20l-46.00 -0.00"/>
<path fill="currentColor"
	d="M187.23 107.21l45.30 0.00v-3.20l-45.30 -0.00"/>
<use x="190.73" y="88.01" xlink:href="#hd"/>
<path d="M187.23 88.01v23.20" stroke="currentColor" fill="none"/>
<defs>
<path id="hl" stroke="currentColor" d="m-6 0h12"/>
</defs>
<use x="205.73" y="82.01" xlink:href="#hl"/>
<use x="205.73" y="79.01" xlink:href="#hd"/>
<path d="M202.23 79.01v32.20" stroke="currentColor" fill="none"/>
<use x="220.93" y="82.01" xlink:href="#hl"/>
<use x="220.93" y="79.01" xlink:href="#hd"/>
<path d="M217.43 79.01v32.20" stroke="currentColor" fill="none"/>
<use x="236.13" y="82.01" xlink:href="#hl"/>
<use x="236.13" y="82.01" xlink:href="#hd"/>
<path d="M232.63 82.01v29.20" stroke="currentColor" fill="none"/>
<use x="252.63" y="85.01" xlink:href="#hd"/>
<path d="M249.13 85.01v20.00" stroke="currentColor" fill="none"/>
<path fill="currentColor"
	d="M294.03 71.81l83.90 0.00v3.20l-83.90 -0.00"/>
<path fill="currentColor"
	d="M294.43 76.81l47.60 0.00v3.20l-47.60 -0.00"/>
<use x="290.93" y="100.01" xlink:href="#hd"/>
<path d="M294.43 100.01v-27.20" stroke="currentColor" fill="none"/>
<use x="308.63" y="94.01" xlink:href="#hd"/>
<path d="M312.13 94.01v-21.20" stroke="currentColor" fill="none"/>
<use x="323.73" y="112.01" xlink:href="#hd"/>
<path d="M327.23 112.01v-39.20" stroke="currentColor" fill="none"/>
<use x="338.53" y="109.01" xlink:href="#hd"/>
<path d="M342.03 109.01v-36.20" stroke="currentColor" fill="none"/>
<use x="353.23" y="106.01" xlink:href="#hd"/>
<path d="M356.73 106.01v-33.20" stroke="currentColor" fill="none"/>
<use x="374.13" y="100.01" xlink:href="#hd"/>
<path d="M377.63 100.01v-27.20" stroke="currentColor" fill="none"/>
<path fill="currentColor"
	d="M401.23 120.61l79.60 -5.30v-3.20l-79.60 5.30"/>
<path fill="currentColor"
	d="M423.13 114.21l21.40 -1.40v-3.20l-21.40 1.40"/>
<use x="405.13" y="91.01" xlink:href="#hd"/>
<path d="M401.63 91.01v28.60" stroke="currentColor" fill="none"/>
<use x="426.63" y="97.01" xlink:href="#hd"/>
<path d="M423.13 97.01v21.20" stroke="currentColor" fill="none"/>
<use x="448.03" y="82.01" xlink:href="#hl"/>
<use x="448.03" y="82.01" xlink:href="#hd"/>
<path d="M444.53 82.01v34.80" stroke="currentColor" fill="none"/>
<use x="463.13" y="82.01" xlink:href="#hl"/>
<use x="463.13" y="76.01" xlink:href="#hl"/>
<use x="463.13" y="76.01" xlink:href="#hd"/>
<path d="M459.63 76.01v39.80" stroke="currentColor" fill="none"/>
<use x="484.03" y="88.01" xlink:href="#hd"/>
<path d="M480.53 88.01v26.40" stroke="currentColor" fill="none"/>
<path fill="currentColor"
	d="M511.13 119.91l80.60 0.00v-3.20l-80.60 -0.00"/>
<path fill="currentColor"
	d="M532.23 114.91l44.30 0.00v-3.20l-44.30 -0.00"/>
<use x="514.93" y="88.01" xlink:href="#hd"/>
<path d="M511.43 88.01v31.00" stroke="currentColor" fill="none"/>
<use x="535.73" y="91.01" xlink:href="#hd"/>
<path d="M532.23 91.01v28.00" stroke="currentColor" fill="none"/>
<use x="550.53" y="97.01" xlink:href="#hd"/>
<path d="M547.03 97.01v22.00" stroke="currentColor" fill="none"/>
<use x="565.33" y="94.01" xlink:href="#hd"/>
<path d="M561.83 94.01v25.00" stroke="currentColor" fill="none"/>
<use x="580.03" y="97.01" xlink:href="#hd"/>
<path d="M576.53 97.01v22.00" stroke="currentColor" fill="none"/>
<use x="594.83" y="82.01" xlink:href="#hl"/>
<use x="594.83" y="82.01" xlink:href="#hd"/>
<path d="M591.33 82.01v37.00" stroke="currentColor" fill="none"/>
<path fill="currentColor"
	d="M621.93 107.21l21.30 6.10v-3.20l-21.30 -6.10"/>
<use x="625.73" y="82.01" xlink:href="#hl"/>
<use x="625.73" y="79.01" xlink:href="#hd"/>
<path d="M622.23 79.01v27.30" stroke="currentColor" fill="none"/>
<use x="646.33" y="94.01" xlink:href="#hd"/>
<path d="M642.83 94.01v18.20" stroke="currentColor" fill="none"/>
<use x="669.23" y="88.01" xlink:href="#hd"/>
<path d="M665.73 88.01v20.00" stroke="currentColor" fill="none"/>
<path stroke="currentColor" fill="none"
	d="M171.53 206.41v-24.00"/>
<path stroke="currentColor" fill="none"
	d="M274.13 206.41v-24.00"/>
<path stroke="currentColor" fill="none"
	d="M385.53 206.41v-24.00"/>
<path stroke="currentColor" fill="none"
	d="M488.23 206.41v-24.00"/>
<path stroke="currentColor" fill="none"
	d="M599.63 206.41v-24.00"/>
<path stroke="currentColor" fill="none" stroke-width="3"
	d="M693.43 206.41v-24.00"/>
<path stroke="currentColor" fill="none"
	d="M688.93 206.41v-24.00"/>
<defs>
<g id="rdots" fill="currentColor">
	<circle cx="0" cy="-9" r="1.2"/>
	<circle cx="0" cy="-15" r="1.2"/>
</g>
</defs>
<use x="684.93" y="206.41" xlink:href="#rdots"/>
<path stroke="currentColor" fill="none"
	d="M13.33 206.41h681.60m-681.60 -6h681.60m-681.60 -6h681.60m-681.60 -6h681.60m-681.60 -6h681.60"/>
<text x="58.23" y="156.01">F7</text>
<text x="178.23" y="156.01">B♭</text>
<text x="280.83" y="156.01">B♭</text>
<text x="284.03" y="222.01">b</text>
<text x="322.53" y="156.01">F7</text>
<text x="392.23" y="156.01">B♭</text>
<text x="458.83" y="218.01">l</text>
<text x="457.93" y="230.01">?</text>
<text x="495.13" y="156.01">F7</text>
<text x="606.33" y="156.01">B♭</text>
<text x="609.53" y="218.01">b</text>
<use x="25.33" y="206.41" xlink:href="#tclef"/>
<use x="40.33" y="194.41" xlink:href="#ft0"/>
<use x="45.83" y="185.41" xlink:href="#ft0"/>
<path fill="currentColor"
	d="M60.03 214.31l95.20 0.00v-3.20l-95.20 -0.00"/>
<path fill="currentColor"
	d="M81.03 209.31l73.80 0.00v-3.20l-73.80 -0.00"/>
<use x="63.83" y="185.41" xlink:href="#hd"/>
<path d="M60.33 185.41v28.00" stroke="currentColor" fill="none"/>
<use x="84.53" y="191.41" xlink:href="#hd"/>
<path d="M81.03 191.41v22.00" stroke="currentColor" fill="none"/>
<use x="99.33" y="188.41" xlink:href="#hd"/>
<path d="M95.83 188.41v25.00" stroke="currentColor" fill="none"/>
<use x="114.03" y="185.41" xlink:href="#hd"/>
<path d="M110.53 185.41v28.00" stroke="currentColor" fill="none"/>
<use x="128.83" y="182.41" xlink:href="#hd"/>
<path d="M125.33 182.41v31.00" stroke="currentColor" fill="none"/>
<use x="143.63" y="179.41" xlink:href="#hd"/>
<path d="M140.13 179.41v34.00" stroke="currentColor" fill="none"/>
<use x="158.33" y="176.41" xlink:href="#hl"/>
<use x="158.33" y="176.41" xlink:href="#hd"/>
<path d="M154.83 176.41v37.00" stroke="currentColor" fill="none"/>
<path fill="currentColor"
	d="M180.23 204.61l77.60 7.40v-3.20l-77.60 -7.40"/>
<path fill="currentColor"
	d="M242.73 205.61l14.80 1.40v-3.20l-14.80 -1.40"/>
<use x="184.03" y="176.41" xlink:href="#hl"/>
<use x="184.03" y="173.41" xlink:href="#hd"/>
<path d="M180.53 173.41v30.20" stroke="currentColor" fill="none"/>
<use x="204.73" y="182.41" xlink:href="#hd"/>
<path d="M201.23 182.41v23.20" stroke="currentColor" fill="none"/>
<use x="225.53" y="188.41" xlink:href="#hd"/>
<path d="M222.03 188.41v19.20" stroke="currentColor" fill="none"/>
<use x="246.23" y="188.41" xlink:href="#hd"/>
<path d="M242.73 188.41v21.20" stroke="currentColor" fill="none"/>
<use x="260.93" y="188.41" xlink:href="#hd"/>
<path d="M257.43 188.41v22.60" stroke="currentColor" fill="none"/>
<path fill="currentColor"
	d="M282.83 208.41l86.40 0.00v-3.20l-86.40 -0.00"/>
<path fill="currentColor"
	d="M324.53 203.41l44.30 0.00v-3.20l-44.30 -0.00"/>
<use x="286.63" y="176.41" xlink:href="#hl"/>
<use x="286.63" y="173.41" xlink:href="#hd"/>
<path d="M283.13 173.41v34.00" stroke="currentColor" fill="none"/>
<use x="307.33" y="182.41" xlink:href="#hd"/>
<path d="M303.83 182.41v25.00" stroke="currentColor" fill="none"/>
<use x="328.03" y="179.41" xlink:href="#hd"/>
<path d="M324.53 179.41v28.00" stroke="currentColor" fill="none"/>
<use x="342.83" y="182.41" xlink:href="#hd"/>
<path d="M339.33 182.41v25.00" stroke="currentColor" fill="none"/>
<use x="357.63" y="185.41" xlink:href="#hd"/>
<path d="M354.13 185.41v22.00" stroke="currentColor" fill="none"/>
<use x="372.33" y="176.41" xlink:href="#hl"/>
<use x="372.33" y="170.41" xlink:href="#hl"/>
<use x="372.33" y="170.41" xlink:href="#hd"/>
<path d="M368.83 170.41v37.00" stroke="currentColor" fill="none"/>
<path fill="currentColor"
	d="M394.23 202.41l77.60 0.00v-3.20l-77.60 -0.00"/>
<path fill="currentColor"
	d="M456.73 197.41l14.80 0.00v-3.20l-14.80 -0.00"/>
<use x="398.03" y="176.41" xlink:href="#hl"/>
<use x="398.03" y="170.41" xlink:href="#hl"/>
<use x="398.03" y="167.41" xlink:href="#hd"/>
<path d="M394.53 167.41v34.00" stroke="currentColor" fill="none"/>
<use x="418.83" y="176.41" xlink:href="#hl"/>
<use x="418.83" y="173.41" xlink:href="#hd"/>
<path d="M415.33 173.41v28.00" stroke="currentColor" fill="none"/>
<use x="439.53" y="182.41" xlink:href="#hd"/>
<path d="M436.03 182.41v19.00" stroke="currentColor" fill="none"/>
<use x="460.23" y="176.41" xlink:href="#hl"/>
<use x="460.23" y="176.41" xlink:href="#hd"/>
<path d="M456.73 176.41v25.00" stroke="currentColor" fill="none"/>
<use x="475.03" y="179.41" xlink:href="#hd"/>
<path d="M471.53 179.41v22.00" stroke="currentColor" fill="none"/>
<path fill="currentColor"
	d="M496.93 214.31l86.40 0.00v-3.20l-86.40 -0.00"/>
<path fill="currentColor"
	d="M517.93 209.31l14.80 0.00v-3.20l-14.80 -0.00"/>
<path fill="currentColor"
	d="M568.23 209.31l14.80 0.00v-3.20l-14.80 -0.00"/>
<use x="500.73" y="182.41" xlink:href="#hd"/>
<path d="M497.23 182.41v31.00" stroke="currentColor" fill="none"/>
<use x="521.43" y="191.41" xlink:href="#hd"/>
<path d="M517.93 191.41v22.00" stroke="currentColor" fill="none"/>
<use x="536.23" y="179.41" xlink:href="#hd"/>
<path d="M532.73 179.41v34.00" stroke="currentColor" fill="none"/>
<use x="551.03" y="176.41" xlink:href="#hl"/>
<use x="551.03" y="176.41" xlink:href="#hd"/>
<path d="M547.53 176.41v37.00" stroke="currentColor" fill="none"/>
<use x="571.73" y="179.41" xlink:href="#hd"/>
<path d="M568.23 179.41v34.00" stroke="currentColor" fill="none"/>
<use x="586.43" y="182.41" xlink:href="#hd"/>
<path d="M582.93 182.41v31.00" stroke="currentColor" fill="none"/>
<path fill="currentColor"
	d="M608.33 194.61l42.20 0.00v-3.20l-42.20 -0.00"/>
<use x="612.13" y="176.41" xlink:href="#hl"/>
<use x="612.13" y="173.41" xlink:href="#hd"/>
<path d="M608.63 173.41v20.20" stroke="currentColor" fill="none"/>
<use x="632.93" y="176.41" xlink:href="#hl"/>
<use x="632.93" y="173.41" xlink:href="#hd"/>
<path d="M629.43 173.41v20.20" stroke="currentColor" fill="none"/>
<use x="653.73" y="176.41" xlink:href="#hl"/>
<use x="653.73" y="173.41" xlink:href="#hd"/>
<path d="M650.23 173.41v20.20" stroke="currentColor" fill="none"/>
<defs>
<path id="r8e" fill="currentColor" d="m 0 0
	c-1.5 1.5 -2.4 2 -3.6 2
	c2.4 -2.8 -2.8 -4 -2.8 -1.2
	c0 2.7 4.3 2.4 5.9 0.6"/>
<g id="r8">
	<path d="m3.3 -4l-3.4 9.6" stroke="currentColor" fill="none"/>
	<use x="3.4" y="-4" xlink:href="#r8e"/>
</g>
</defs>
<use x="674.43" y="194.41" xlink:href="#r8"/>
</g>
</svg>
